<?xml version="1.0" encoding="utf-8"?>
<!-- Generator: Adobe Illustrator 21.0.2, SVG Export Plug-In . SVG Version: 6.00 Build 0)  -->
<svg version="1.1" id="Layer_1" xmlns="http://www.w3.org/2000/svg" xmlns:xlink="http://www.w3.org/1999/xlink" x="0px" y="0px"
	 viewBox="0 0 1139.1 483.4" style="enable-background:new 0 0 1139.1 483.4;" xml:space="preserve">
<style type="text/css">
	.st0{opacity:0.33;}
	.st1{opacity:0.44;fill:#ECECEC;enable-background:new    ;}
	.st2{opacity:0.75;fill:#ECECEC;enable-background:new    ;}
	.st3{opacity:0.35;fill:#ECECEC;enable-background:new    ;}
	.st4{fill:none;stroke:#ECECEC;stroke-miterlimit:10;}
	.st5{fill:#ECECEC;}
	.st6{opacity:0.76;fill:#EEEEEE;enable-background:new    ;}
	.st7{opacity:0.44;fill:#EEEEEE;enable-background:new    ;}
	.st8{fill:#EEEEEE;}
	.st9{opacity:0.35;fill:#EEEEEE;enable-background:new    ;}
	.st10{opacity:0.75;fill:#EEEEEE;enable-background:new    ;}
</style>
<g>
	<g class="st0">
		<path class="st1" d="M873.1,473.8c-7.7-1-13-8.4-11.8-16.9c0.9-6.6,6.3-10.4,13.4-9.5c7.5,1,12,7.2,11,15.3
			C884.8,469.9,879.5,474.6,873.1,473.8z"/>
		<path class="st1" d="M1197.8,474.9c-7.7-1-13-8.4-11.8-16.9c0.9-6.6,6.3-10.4,13.4-9.5c7.5,1,12,7.2,11,15.3
			C1209.5,471,1204.3,475.7,1197.8,474.9z"/>
		<path class="st1" d="M1162.9,443.8c-7.5-0.9-13.8-8.8-12.7-16c0.8-4.7,7.3-9.3,12.4-8.6c7,0.9,12.4,9.1,11.2,17.1
			C1172.8,442,1169.2,444.5,1162.9,443.8z"/>
		<path class="st2" d="M1243.6,465.1c-0.4,5.4-6.9,11-12,9.5c-4.6-1.4-7.8-4.8-7.2-10.3c0.7-6.3,6-11.4,11.1-10.9
			C1240.4,454,1244,459.2,1243.6,465.1z"/>
		<path class="st3" d="M1213.9,413.4c4.2-2.5,11.8-0.8,14.6,3.8c3.1,5.3-0.6,8.3-4.6,11c-5.8,3.7-10.7,3.2-13.8-1.3
			C1207.1,422.7,1208.9,416.4,1213.9,413.4z"/>
		<path class="st4" d="M1129.1,441.6c5.1,0.5,7.9,4.6,7.3,10.3c-0.7,6.2-5,9.2-11.6,8.1c-5.5-0.8-6.8-4.6-6.5-9.1
			C1119.1,445,1123.9,441,1129.1,441.6z"/>
		<path class="st5" d="M1088.1,456.5"/>
		
			<ellipse transform="matrix(0.1328 -0.9911 0.9911 0.1328 502.0984 1481.4124)" class="st1" cx="1097.6" cy="453.8" rx="5.8" ry="5.8"/>
		
			<ellipse transform="matrix(0.1328 -0.9911 0.9911 0.1328 607.9022 1558.3491)" class="st5" cx="1194.5" cy="431.8" rx="5.3" ry="5.3"/>
		
			<ellipse transform="matrix(0.1328 -0.9911 0.9911 0.1328 529.3621 1473.7588)" class="st5" cx="1106.9" cy="434.4" rx="5.3" ry="5.3"/>
		
			<ellipse transform="matrix(0.1328 -0.9911 0.9911 0.1328 511.5553 1449.3619)" class="st4" cx="1084" cy="432.3" rx="2.7" ry="2.7"/>
		<path class="st4" d="M1185.3,401c4.9-0.7,8.4,5.2,7.8,10.1c-0.7,4.9-5.2,8.4-10.1,7.8c-4.9-0.7-9-5.3-7.8-10.1
			C1176.4,403.9,1180.5,401.6,1185.3,401z"/>
		
			<ellipse transform="matrix(0.1328 -0.9911 0.9911 0.1328 634.4741 1609.2278)" class="st5" cx="1236.9" cy="442" rx="4.2" ry="4.2"/>
		
			<ellipse transform="matrix(0.1328 -0.9911 0.9911 0.1328 556.9864 1496.6453)" class="st5" cx="1133.8" cy="430" rx="4.2" ry="4.2"/>
		
			<ellipse transform="matrix(0.1328 -0.9911 0.9911 0.1328 629.3875 1645.2015)" class="st5" cx="1254.9" cy="462.9" rx="4.2" ry="4.2"/>
		
			<ellipse transform="matrix(0.1328 -0.9911 0.9911 0.1328 550.8797 1542.1959)" class="st5" cx="1156.8" cy="456.3" rx="5.8" ry="5.8"/>
	</g>
	<g class="st0">
		<path class="st6" d="M688.8,421.6c3.5,0.7,5.2,3.8,4.4,7.8c-0.7,3.5-4.3,6-7.6,5.3c-3-0.6-4.8-4.3-4-8.1
			C682.4,423,685.4,420.9,688.8,421.6z"/>
		<path class="st7" d="M1054.2,439.3c-3.4,0.1-7.2-4-7.2-7.8s3.2-7.2,6.9-7.2c3.6,0,6.4,3.1,6.4,7.2
			C1060.2,435.5,1057.3,439.2,1054.2,439.3z"/>
		<path class="st7" d="M361.5,475.6c-0.7-3.7,2.3-7.9,6-8.4c2.4-0.3,5.6,2.2,6,4.7c0.5,3.5-2.7,7.2-6.8,7.8
			C363.9,480.1,362.1,478.7,361.5,475.6z"/>
		<path class="st8" d="M916.5,429.7c0.1,3.6-1.8,6.2-4.3,6.3c-2.2,0.1-4.9-2.9-5-5.6c-0.1-2.3,2.4-4.6,5-4.6
			C914.9,425.9,916,427.7,916.5,429.7z"/>
		<path class="st7" d="M215.7,478.8c1.1-1.2,2.7-1.8,4.2-1.8c2.7,0.1,4.4,1.6,5,4.4v0.1c0.1,3.9-2,6.9-5,7c-1.1,0-2.2-0.5-3.3-1.4
			c-1.4-1.3-2.3-3.1-2.4-4.8v-0.1C214.2,481,214.7,479.8,215.7,478.8z M223.5,481.6c-0.5-2.2-1.7-3.3-3.7-3.3
			c-1.1,0-2.3,0.5-3.2,1.4c-0.7,0.8-1.2,1.7-1.1,2.5c0.1,1.3,0.8,2.9,2,3.9c0.8,0.7,1.6,1.1,2.3,1.1c2.1-0.1,3.7-2.4,3.7-5.4
			C223.5,481.7,223.5,481.7,223.5,481.6z"/>
		<path class="st8" d="M1069.2,432.9c-3.6,0.3-6.3-1.5-6.5-4c-0.2-2.2,2.6-5,5.3-5.3c2.3-0.2,4.8,2.2,4.9,4.7
			C1073,431.1,1071.3,432.3,1069.2,432.9z"/>
		<path class="st8" d="M642.3,439.7c-3.6,0.3-6.3-1.5-6.5-4c-0.2-2.2,2.6-5,5.3-5.3c2.3-0.2,4.8,2.2,4.9,4.7
			C646,437.9,644.3,439.2,642.3,439.7z"/>
		<path class="st8" d="M322.9,476.3c0.1,3.6-1.8,6.2-4.3,6.3c-2.2,0.1-4.9-2.9-5-5.6c-0.1-2.3,2.4-4.6,5-4.6
			C321.4,472.5,322.5,474.3,322.9,476.3z"/>
		<path class="st8" d="M442.2,469.6c0.1,3.6-1.8,6.2-4.3,6.3c-2.2,0.1-4.9-2.9-5-5.6c-0.1-2.3,2.4-4.6,5-4.6
			C440.6,465.7,441.8,467.5,442.2,469.6z"/>
		<path class="st8" d="M314.5,400.9c0.1,3.6-1.8,6.2-4.3,6.3c-2.2,0.1-4.9-2.9-5-5.6c-0.1-2.3,2.4-4.6,5-4.6
			C312.9,397,314.1,398.8,314.5,400.9z"/>
		<path class="st7" d="M125.8,475c0.1,3.6-1.8,6.2-4.3,6.3c-2.2,0.1-4.9-2.9-5-5.6c-0.1-2.3,2.4-4.6,5-4.6
			C124.3,471.1,125.4,472.9,125.8,475z"/>
		<path class="st9" d="M285.6,443.8c-0.1,2.9-3.4,6.1-6.6,6c-3.6-0.1-3.9-3-3.9-5.8c0-4.1,1.8-6.3,5.1-6.4
			C283.2,437.5,285.8,440.4,285.6,443.8z"/>
		<path class="st7" d="M1150.3,462.7c4.9,0.1,8.4,3.7,8,8.7c-0.3,4.4-2.6,7.2-7.4,7c-5-0.2-8.7-3.8-8.6-8.8
			C1143,465.4,1145.4,462.7,1150.3,462.7z"/>
		<path class="st10" d="M608.8,426.8c3.5-0.1,6.3,2.4,6.4,5.6c0.1,3.1-2.8,5.5-6.8,5.7c-1.9,0.1-3.3-0.3-4.2-1.2
			c-0.9-0.8-1.3-2-1.3-3.7v-0.1C602.8,429.4,605.1,426.9,608.8,426.8z M613.8,432.5c-0.1-2.5-2.3-4.4-5-4.3
			c-2.9,0.1-4.7,1.9-4.7,4.9v0.1l0,0c0,1.3,0.3,2.2,0.9,2.8c0.7,0.6,1.7,0.9,3.3,0.9c3.2-0.1,5.5-1.9,5.5-4.2
			C613.8,432.6,613.8,432.5,613.8,432.5z"/>
		<path class="st8" d="M1031.8,466.7c-5-0.1-8-3-7.7-7.9c0.2-4.1,1.3-7.7,4.8-7.8c6.3,0.1,9.7,4.2,9.5,9.6
			C1038.2,464.8,1036,466.7,1031.8,466.7z"/>
		<path class="st8" d="M600.2,355.5c2-1.6,4.1-2.2,6-1.7l0,0c0.3,0.1,6.9,2.1,6.9,9.6v0.1c0,1.9-0.7,3.6-2.1,4.9
			c-2.1,2.1-5.2,2.8-6.8,2.7c-6.1-0.1-7-4.7-7.3-9c0-0.1,0-0.3,0-0.4C596.8,359.6,598.1,357.2,600.2,355.5z M605.7,355.1
			L605.7,355.1c-1.4-0.4-3.1,0.1-4.7,1.4c-1.9,1.5-3,3.7-2.9,5.4c0.4,4.1,1.1,7.7,6.1,7.8c1.4,0,4.1-0.7,5.8-2.4
			c1.1-1.1,1.7-2.4,1.7-4l0,0C611.7,357,606,355.2,605.7,355.1z"/>
		<path class="st6" d="M1033,413.5c1.5-1.4,3.1-2,4.8-1.9c4.8,0.5,7.7,3.4,7.8,8.1c0,2.1-1.3,4.6-3.5,6.4c-2,1.6-4.1,2.3-6,1.9
			c-3.1-0.7-6.4-3.4-6.5-6.6c0-0.1,0-0.1,0-0.2C1029.6,418.5,1030.9,415.5,1033,413.5z M1044.2,419.8L1044.2,419.8
			c-0.1-4.1-2.4-6.5-6.6-6.9c-1.6-0.2-2.9,0.7-3.7,1.5c-1.8,1.7-3.1,4.6-3,6.9c0.1,2.6,2.9,4.8,5.5,5.4c1.4,0.3,3.2-0.3,4.8-1.6
			C1043,423.7,1044.2,421.6,1044.2,419.8C1044.2,419.9,1044.2,419.9,1044.2,419.8z"/>
		<path class="st8" d="M903.2,473.7c-0.1,5.2-3.8,7.1-7.7,6.3c-2.7-0.5-6.7-2.5-7-6.2c-0.4-3.8,3.4-8.7,8-9.2
			C900.3,464.2,903.3,468.5,903.2,473.7z"/>
		<path class="st7" d="M733.3,435.9c1.6-0.2,3.2,0.4,4.5,1.5c2,1.8,3.1,4.9,3,8.2l0,0c-0.1,2.5-0.9,4.5-2.5,5.7
			c-1.5,1.2-3.7,1.7-6,1.2c-2.6-0.5-7.1-2.5-7.6-6.8c0-0.2,0-0.4,0-0.6C724.8,441.3,728.6,436.4,733.3,435.9z M739.5,445.6
			c0.1-3-0.9-5.7-2.6-7.2c-1-0.9-2.2-1.3-3.4-1.2c-4.2,0.4-7.7,5.1-7.4,8.5c0.4,3.5,4.3,5.2,6.5,5.7c1.9,0.4,3.7,0,4.9-1
			C738.8,449.3,739.5,447.7,739.5,445.6L739.5,445.6z"/>
		<circle class="st8" cx="673.7" cy="431.7" r="4.3"/>
		<circle class="st8" cx="588.3" cy="331.6" r="4.3"/>
		<circle class="st8" cx="86.4" cy="446.6" r="4.3"/>
		<circle class="st8" cx="133" cy="454.7" r="4.3"/>
		<circle class="st8" cx="830" cy="438.2" r="4.6"/>
		<ellipse transform="matrix(0.4523 -0.8919 0.8919 0.4523 -7.0757 942.524)" class="st8" cx="763.8" cy="477" rx="4.1" ry="5.3"/>
		
			<ellipse transform="matrix(0.9925 -0.1226 0.1226 0.9925 -46.5926 117.7964)" class="st7" cx="933.9" cy="437.5" rx="5.7" ry="4.6"/>
		<path class="st8" d="M1130.4,386.6c2.8,0,5,2.6,5,5.7s-2.3,5.6-5,5.6s-5-2.6-5-5.7S1127.7,386.6,1130.4,386.6z M1130.4,387.9
			c-2,0-3.7,1.9-3.7,4.3s1.6,4.3,3.7,4.4c2,0,3.7-1.9,3.7-4.3S1132.5,387.9,1130.4,387.9z"/>
		<circle class="st8" cx="993.7" cy="413.6" r="5.6"/>
		<circle class="st8" cx="234.5" cy="353.7" r="3.5"/>
		<circle class="st7" cx="996" cy="443.1" r="5.1"/>
		<circle class="st7" cx="899.7" cy="442.1" r="5.1"/>
		<path class="st8" d="M944.4,451.1c2.6,0,4.7,2.1,4.7,4.7s-2.1,4.7-4.7,4.7s-4.7-2.1-4.7-4.7S941.8,451.1,944.4,451.1z
			 M944.4,452.4c-1.9,0-3.4,1.5-3.4,3.4s1.5,3.4,3.4,3.4s3.4-1.5,3.4-3.4S946.3,452.4,944.4,452.4z"/>
		<circle class="st8" cx="870.6" cy="433.3" r="4.3"/>
		<circle class="st8" cx="254" cy="469.2" r="4.3"/>
		<path class="st8" d="M19.5,481.8c2.7,0,4.9,2.2,4.9,4.9c0,2.7-2.2,4.9-4.9,4.9s-4.9-2.2-4.9-4.9S16.8,481.8,19.5,481.8z
			 M19.5,483.1c-2,0-3.6,1.6-3.6,3.6s1.6,3.6,3.6,3.6s3.6-1.6,3.6-3.6C23.1,484.8,21.5,483.1,19.5,483.1z"/>
		<path class="st7" d="M296.9,411.7c3.2,0,5.8,2.6,5.8,5.8c0,3.2-2.6,5.8-5.8,5.8c-3.2,0-5.8-2.6-5.8-5.8
			C291.1,414.3,293.7,411.7,296.9,411.7z M296.9,413.1c-2.5,0-4.5,2-4.5,4.5s2,4.5,4.5,4.5s4.5-2,4.5-4.5S299.4,413.1,296.9,413.1z"
			/>
		<path class="st7" d="M458.7,377.8c3.2-0.1,5.9,2.4,6,5.6s-2.4,5.9-5.6,6s-5.9-2.4-6-5.6C453,380.6,455.5,377.9,458.7,377.8z
			 M458.7,379.1c-2.5,0.1-4.4,2.1-4.3,4.6s2.1,4.4,4.6,4.3s4.4-2.1,4.3-4.6C463.2,381,461.2,379.1,458.7,379.1z"/>
		<path class="st8" d="M909.4,453.9c2.8,0,5,2.3,5,5c0,2.8-2.3,5-5,5c-2.8,0-5-2.3-5-5C904.4,456.2,906.7,453.9,909.4,453.9z
			 M909.4,455.2c-2.1,0-3.7,1.7-3.7,3.7s1.7,3.7,3.7,3.7c2.1,0,3.7-1.7,3.7-3.7S911.5,455.2,909.4,455.2z"/>
		<circle class="st8" cx="1134.7" cy="352.1" r="4.4"/>
		<path class="st8" d="M202.1,365.9c3.1,0,5.6,2.5,5.6,5.6s-2.5,5.6-5.6,5.6s-5.6-2.5-5.6-5.6S199,365.9,202.1,365.9z M202.1,367.2
			c-2.4,0-4.3,1.9-4.3,4.3s1.9,4.3,4.3,4.3c2.4,0,4.3-1.9,4.3-4.3S204.5,367.2,202.1,367.2z"/>
		<path class="st8" d="M-26,333.9c3.1,0,5.6,2.5,5.6,5.6s-2.5,5.6-5.6,5.6s-5.6-2.5-5.6-5.6S-29.1,333.9-26,333.9z M-26,335.2
			c-2.4,0-4.3,1.9-4.3,4.3s1.9,4.3,4.3,4.3s4.3-1.9,4.3-4.3C-21.8,337.2-23.7,335.2-26,335.2z"/>
		<path class="st8" d="M430.1,343c3.1,0,5.6,2.5,5.6,5.6s-2.5,5.6-5.6,5.6s-5.6-2.5-5.6-5.6S427,343,430.1,343z M430.1,344.3
			c-2.4,0-4.3,1.9-4.3,4.3s1.9,4.3,4.3,4.3s4.3-1.9,4.3-4.3S432.5,344.3,430.1,344.3z"/>
		<circle class="st8" cx="928.5" cy="401.5" r="4.8"/>
		<circle class="st8" cx="1003.8" cy="347.4" r="3.1"/>
		<circle class="st8" cx="352.4" cy="444.2" r="5.2"/>
		<circle class="st8" cx="396" cy="481.6" r="5.2"/>
		<circle class="st8" cx="59" cy="482.3" r="5.2"/>
		<circle class="st8" cx="27.5" cy="423.5" r="4.7"/>
		<circle class="st8" cx="974.5" cy="382.3" r="2.4"/>
		<path class="st9" d="M696.2,399.4c1.7,0,3.1,1.4,3.1,3.1s-1.4,3.1-3.1,3.1s-3.1-1.4-3.1-3.1S694.5,399.4,696.2,399.4z
			 M696.2,400.8c-1,0-1.8,0.8-1.8,1.8s0.8,1.8,1.8,1.8s1.8-0.8,1.8-1.8C697.9,401.6,697.1,400.8,696.2,400.8z"/>
		<path class="st8" d="M59.2,429.5c1.7-0.2,3.2,1.1,3.4,2.7c0.2,1.7-1.1,3.2-2.7,3.4c-1.7,0.2-3.2-1.1-3.4-2.7
			C56.3,431.2,57.6,429.7,59.2,429.5z M59.4,430.9c-1,0.1-1.7,1-1.6,1.9c0.1,1,1,1.7,1.9,1.6s1.7-1,1.6-1.9S60.3,430.8,59.4,430.9z"
			/>
		
			<ellipse transform="matrix(0.9985 -5.405390e-02 5.405390e-02 0.9985 -23.0875 26.7506)" class="st8" cx="483" cy="440.2" rx="2.4" ry="2.4"/>
		<path class="st8" d="M973.1,452.4c-0.4,1.7-2,2.7-3.7,2.3s-2.7-2-2.3-3.7s2-2.7,3.7-2.3C972.4,449.1,973.5,450.8,973.1,452.4z
			 M971.8,452.1c0.2-0.9-0.4-1.9-1.3-2.1c-0.9-0.2-1.9,0.4-2.1,1.3c-0.2,0.9,0.4,1.9,1.3,2.1C970.7,453.7,971.6,453.1,971.8,452.1z"
			/>
		<circle class="st8" cx="1123.7" cy="416.1" r="7"/>
		<circle class="st7" cx="1046.7" cy="384.6" r="7.5"/>
		<path class="st8" d="M402.6,437.1c1.6,0,2.9,1.3,2.9,2.9s-1.3,2.9-2.9,2.9s-2.9-1.3-2.9-2.9C399.6,438.4,400.9,437.1,402.6,437.1z
			 M402.6,438.4c-0.9,0-1.6,0.7-1.6,1.6s0.7,1.6,1.6,1.6s1.6-0.7,1.6-1.6S403.5,438.4,402.6,438.4z"/>
		<path class="st8" d="M363.7,364.7c1.6,0,2.9,1.3,2.9,2.9s-1.3,2.9-2.9,2.9s-2.9-1.3-2.9-2.9C360.8,366,362.1,364.7,363.7,364.7z
			 M363.7,366c-0.9,0-1.6,0.7-1.6,1.6s0.7,1.6,1.6,1.6s1.6-0.7,1.6-1.6C365.4,366.8,364.6,366,363.7,366z"/>
		<circle class="st8" cx="298.3" cy="478.3" r="2.3"/>
		<circle class="st8" cx="325.8" cy="381.7" r="2.3"/>
		<path class="st8" d="M74.7,372c1.6,0,2.9,1.3,2.9,2.9s-1.3,2.9-2.9,2.9s-2.9-1.3-2.9-2.9C71.7,373.3,73,372,74.7,372z M74.7,373.3
			c-0.9,0-1.6,0.7-1.6,1.6s0.7,1.6,1.6,1.6s1.6-0.7,1.6-1.6S75.6,373.3,74.7,373.3z"/>
		<circle class="st7" cx="1048.3" cy="277.7" r="2.3"/>
		<circle class="st8" cx="7.1" cy="307.3" r="3.4"/>
		<path class="st8" d="M311.1,355.5c0.3,2.2-1.2,4.2-3.3,4.6c-2.2,0.3-4.2-1.2-4.6-3.3c-0.3-2.2,1.2-4.2,3.3-4.6
			C308.7,351.8,310.7,353.3,311.1,355.5z M309.8,355.7c-0.2-1.5-1.6-2.5-3.1-2.2c-1.5,0.2-2.5,1.6-2.2,3.1c0.2,1.5,1.6,2.5,3.1,2.2
			C309,358.6,310,357.2,309.8,355.7z"/>
		<circle class="st8" cx="857" cy="397.2" r="3.9"/>
		<circle class="st7" cx="273.7" cy="392.7" r="4.1"/>
		
			<ellipse transform="matrix(0.9878 -0.1557 0.1557 0.9878 -76.6749 2.7004)" class="st7" cx="-21.1" cy="490.8" rx="4.1" ry="4.1"/>
		
			<ellipse transform="matrix(0.9985 -5.405390e-02 5.405390e-02 0.9985 -22.5209 22.4999)" class="st7" cx="404.7" cy="427.6" rx="4.1" ry="4.1"/>
		<circle class="st7" cx="188.5" cy="442.4" r="4.1"/>
		<circle class="st7" cx="335.2" cy="329" r="4.1"/>
		<circle class="st7" cx="378" cy="355.7" r="4.1"/>
		<path class="st8" d="M1060.7,482c-0.5,2.4-2.9,3.9-5.3,3.4s-3.9-2.9-3.4-5.3s2.9-3.9,5.3-3.4S1061.2,479.6,1060.7,482z
			 M1059.4,481.7c0.4-1.7-0.7-3.4-2.4-3.8c-1.7-0.4-3.4,0.7-3.8,2.4c-0.4,1.7,0.7,3.4,2.4,3.8S1059,483.4,1059.4,481.7z"/>
		<path class="st8" d="M418,327.1c-0.4,1.7-2,2.7-3.7,2.3c-1.7-0.4-2.7-2-2.3-3.7s2-2.7,3.7-2.3C417.3,323.8,418.3,325.5,418,327.1z
			 M416.7,326.8c0.2-0.9-0.4-1.9-1.3-2.1s-1.9,0.4-2.1,1.3s0.4,1.9,1.3,2.1C415.5,328.4,416.5,327.8,416.7,326.8z"/>
		<path class="st8" d="M1069.2,450c0.2,4.2-3,7.8-7.2,8.1c-4.2,0.2-7.8-3-8.1-7.2c-0.2-4.2,3-7.8,7.2-8.1
			C1065.4,442.5,1069,445.7,1069.2,450z M1067.9,450c-0.2-3.5-3.2-6.2-6.7-6s-6.2,3.2-6,6.7s3.2,6.2,6.7,6S1068.1,453.5,1067.9,450z
			"/>
		
			<ellipse transform="matrix(0.9985 -5.405390e-02 5.405390e-02 0.9985 -23.5367 0.1444)" class="st8" cx="-9.1" cy="435.2" rx="3.5" ry="3.5"/>
		<path class="st7" d="M333.7,370.1c2.6,0,4.7,2.1,4.7,4.7s-2.1,4.7-4.7,4.7s-4.7-2.1-4.7-4.7S331.1,370.1,333.7,370.1z
			 M333.7,371.4c-1.9,0-3.4,1.5-3.4,3.4s1.5,3.4,3.4,3.4s3.4-1.5,3.4-3.4S335.6,371.4,333.7,371.4z"/>
		<path class="st7" d="M174,379.8c2.6,0,4.7,2.1,4.7,4.7s-2.1,4.7-4.7,4.7c-2.6,0-4.7-2.1-4.7-4.7C169.3,382,171.4,379.8,174,379.8z
			 M174,381.1c-1.9,0-3.4,1.5-3.4,3.4s1.5,3.4,3.4,3.4s3.4-1.5,3.4-3.4C177.4,382.7,175.9,381.1,174,381.1z"/>
		<circle class="st7" cx="84.7" cy="394.4" r="4.1"/>
		<circle class="st7" cx="154.6" cy="419.3" r="7"/>
		<path class="st8" d="M1112.3,464.5c3.3,0,6.1,2.7,6.1,6.1s-2.7,6.1-6.1,6.1s-6.1-2.7-6.1-6.1S1109,464.5,1112.3,464.5z
			 M1112.3,465.8c-2.6,0-4.7,2.1-4.7,4.7s2.1,4.7,4.7,4.7s4.7-2.1,4.7-4.7S1114.9,465.8,1112.3,465.8z"/>
		<circle class="st8" cx="1168.7" cy="490.6" r="4.6"/>
		<path class="st9" d="M550.1,478c0.1,4-4.5,8.2-9,7.9c-4.8-0.4-6.4-3.8-6.6-8c-0.2-4.6,3.8-8.8,8.2-8.8
			C546.4,469.1,550,473.4,550.1,478z"/>
		<path class="st9" d="M725.8,390.8c0.1,4-4.5,8.2-9,7.9c-4.8-0.4-6.4-3.8-6.6-8c-0.2-4.6,3.8-8.8,8.2-8.8
			C722.2,381.9,725.7,386.2,725.8,390.8z"/>
		<path class="st7" d="M585.7,466.3c-0.3,2.4-3.2,6.3-5.6,6.4c-6.3,0.2-8.8-10.1-1.8-13.2C582.3,457.7,586.3,461.8,585.7,466.3z"/>
		
			<ellipse transform="matrix(0.9995 -3.030297e-02 3.030297e-02 0.9995 -11.089 16.259)" class="st8" cx="530.9" cy="374" rx="3.5" ry="3.5"/>
		
			<ellipse transform="matrix(0.9995 -3.030297e-02 3.030297e-02 0.9995 -13.4629 17.4133)" class="st8" cx="567.8" cy="452.9" rx="3.5" ry="3.5"/>
		<circle class="st8" cx="389.9" cy="426.2" r="5"/>
		<circle class="st7" cx="412.5" cy="402.7" r="4.1"/>
		<circle class="st8" cx="527.8" cy="479" r="4.1"/>
		
			<ellipse transform="matrix(0.9948 -0.1021 0.1021 0.9948 -47.9586 48.6121)" class="st7" cx="450.9" cy="492.8" rx="4.1" ry="4.1"/>
		
			<ellipse transform="matrix(0.9948 -0.1021 0.1021 0.9948 -30.1861 55.0422)" class="st7" cx="522.6" cy="322.4" rx="2.4" ry="2.4"/>
		
			<ellipse transform="matrix(0.9995 -3.030297e-02 3.030297e-02 0.9995 -13.6968 17.1805)" class="st8" cx="560" cy="460.5" rx="3.7" ry="3.7"/>
		<path class="st7" d="M553.1,435.1c4.1-0.2,7.7,3.9,8.2,9.7c0.6,5.4-1.8,9-6.2,9.4c-4.8,0.5-9.3-3.4-10-8.6
			C544.6,440.6,548.5,435.4,553.1,435.1z"/>
		<path class="st8" d="M206.4,460.9c1.8-1.8,3.9-2.6,5.8-2.3l0,0c3.2,0.6,5.4,3,6.2,6.8c0.6,2.7,0,5.8-1.6,7.9
			c-1.2,1.6-2.9,2.5-4.8,2.7c-6,0.5-7.4-4-8.2-8.2c0-0.1,0-0.3-0.1-0.4C203.5,465.3,204.6,462.8,206.4,460.9z M217.1,465.7
			c-0.7-3.3-2.5-5.3-5.2-5.8l0,0c-1.4-0.3-3.1,0.5-4.6,1.9c-1.7,1.7-2.6,4-2.3,5.7c0.8,4,1.9,7.6,6.8,7.2c1.6-0.1,2.9-0.9,3.8-2.2
			c1.2-1.6,1.7-3.8,1.5-5.9C217.2,466.3,217.2,466,217.1,465.7z"/>
		<path class="st8" d="M382.8,370.7c2.4,0.7,4.1,2.2,4.7,4l0,0c1,3.1-0.2,6.2-3.1,8.7c-2.1,1.8-5.1,2.7-7.7,2.3
			c-2-0.3-3.6-1.3-4.6-3c-3.2-5.1,0.1-8.4,3.4-11.1c0.1-0.1,0.2-0.2,0.3-0.2C377.6,370.2,380.3,369.9,382.8,370.7z M383.6,382.4
			c2.6-2.2,3.5-4.7,2.7-7.3l0,0c-0.4-1.4-1.9-2.5-3.8-3.1c-2.3-0.7-4.7-0.5-6.1,0.6c-3.2,2.5-5.8,5.2-3.2,9.4
			c0.8,1.3,2.1,2.1,3.7,2.4c1.9,0.3,4.2-0.3,5.9-1.4C383.1,382.8,383.3,382.6,383.6,382.4z"/>
		<path class="st8" d="M27.2,460.8c-0.3,1-1,1.8-1.7,2.6c-1.9,1.9-4.6,2.8-7.2,2.1c-3.8-1-5.7-3.3-5.2-6.5c0.4-2.4,4.1-5.3,6.8-6.2
			C23.2,451.9,28.3,457.6,27.2,460.8z"/>
		<path class="st8" d="M807.4,426.1c0.3-3.2,3.7-6,7.4-6.1c3.8-0.1,6.5,2.6,7.2,7.2c0.3,1.8,0,3.3-0.9,4.3c-1,1.2-2.6,1.8-5.2,1.9
			c-2.9,0.1-5.3-0.7-6.9-2.3c-0.9-1-1.5-2.2-1.6-3.5C807.3,427.1,807.3,426.6,807.4,426.1z M820.6,427.4c-0.6-3.9-2.7-6.2-5.8-6.1
			s-5.8,2.3-6.1,4.9l0,0c-0.1,1.6,0.3,2.9,1.2,3.9c1.2,1.3,3.4,2,5.9,1.9c2.1-0.1,3.5-0.5,4.2-1.4c0.6-0.7,0.8-1.6,0.6-3
			C820.6,427.7,820.6,427.5,820.6,427.4z"/>
		<path class="st8" d="M199.1,469c0.4,0.4,0.8,0.7,1,1.2c0.6,1-1.1,4.9-2.3,5.2c-1.7,0.4-4.8-0.8-5.7-2.2c-0.1-0.2-0.2-0.4-0.2-0.6
			C191,468.7,196.1,466.4,199.1,469z"/>
		
			<ellipse transform="matrix(0.9948 -0.1021 0.1021 0.9948 -48.6397 20.9054)" class="st8" cx="179.9" cy="485.6" rx="3.8" ry="5.5"/>
		
			<ellipse transform="matrix(0.9948 -0.1021 0.1021 0.9948 -47.1405 38.3949)" class="st8" cx="351.5" cy="479.7" rx="5.5" ry="5.5"/>
		<ellipse transform="matrix(0.9948 -0.1021 0.1021 0.9948 -48.3891 18.5996)" class="st7" cx="157.5" cy="482" rx="4.1" ry="4.1"/>
		<ellipse transform="matrix(0.9948 -0.1021 0.1021 0.9948 -44.4234 70.0819)" class="st7" cx="662.4" cy="469" rx="5.1" ry="5.1"/>
		
			<ellipse transform="matrix(0.9948 -0.1021 0.1021 0.9948 -35.6714 49.6723)" class="st8" cx="467.4" cy="373.3" rx="4.1" ry="4.1"/>
		
			<ellipse transform="matrix(0.9948 -0.1021 0.1021 0.9948 -46.8392 69.6835)" class="st8" cx="657.3" cy="492.4" rx="4.3" ry="4.3"/>
		
			<ellipse transform="matrix(0.9948 -0.1021 0.1021 0.9948 -48.301 32.7218)" class="st8" cx="295.5" cy="488.2" rx="4.3" ry="4.3"/>
		<circle class="st7" cx="952.7" cy="426.8" r="5.1"/>
		<path class="st8" d="M1020.7,469.9c3.1,0,5.6,2.5,5.6,5.6s-2.5,5.6-5.6,5.6s-5.6-2.5-5.6-5.6S1017.6,469.9,1020.7,469.9z
			 M1020.7,471.2c-2.4,0-4.3,1.9-4.3,4.3s1.9,4.3,4.3,4.3s4.3-1.9,4.3-4.3S1023.1,471.2,1020.7,471.2z"/>
		
			<ellipse transform="matrix(0.9948 -0.1021 0.1021 0.9948 -45.3777 31.0366)" class="st8" cx="280.5" cy="458.8" rx="4.8" ry="4.8"/>
		<path class="st7" d="M827,390.9c2,0,3.6,1.6,3.6,3.6s-1.6,3.6-3.6,3.6s-3.6-1.6-3.6-3.6S825,390.9,827,390.9z M827,392.2
			c-1.2,0-2.2,1-2.2,2.2s1,2.2,2.2,2.2s2.2-1,2.2-2.2S828.2,392.2,827,392.2z"/>
		<ellipse transform="matrix(0.9948 -0.1021 0.1021 0.9948 -36.0064 5.9274)" class="st8" cx="39.9" cy="354.7" rx="2.4" ry="2.4"/>
		
			<ellipse transform="matrix(0.9948 -0.1021 0.1021 0.9948 -45.3438 29.8986)" class="st8" cx="269.4" cy="457.9" rx="2.4" ry="2.4"/>
		
			<ellipse transform="matrix(0.9948 -0.1021 0.1021 0.9948 -47.1498 55.6136)" class="st8" cx="519.7" cy="488.4" rx="2.4" ry="2.4"/>
		<circle class="st8" cx="1014.1" cy="432.6" r="3.7"/>
		<circle class="st8" cx="709.2" cy="483.6" r="3.7"/>
		<path class="st8" d="M250,389.5c1.6,0,2.9,1.3,2.9,2.9s-1.3,2.9-2.9,2.9c-1.6,0-2.9-1.3-2.9-2.9C247,390.8,248.3,389.5,250,389.5z
			 M250,390.8c-0.9,0-1.6,0.7-1.6,1.6s0.7,1.6,1.6,1.6c0.9,0,1.6-0.7,1.6-1.6S250.8,390.8,250,390.8z"/>
		
			<ellipse transform="matrix(0.9948 -0.1021 0.1021 0.9948 -39.9072 22.9153)" class="st8" cx="203.9" cy="401.3" rx="2.3" ry="2.3"/>
		
			<ellipse transform="matrix(0.9995 -3.030297e-02 3.030297e-02 0.9995 -14.0701 19.7472)" class="st8" cx="644.5" cy="474.1" rx="5.2" ry="5.2"/>
		<circle class="st7" cx="1076.8" cy="463.4" r="4.1"/>
		
			<ellipse transform="matrix(0.9948 -0.1021 0.1021 0.9948 -43.618 84.6178)" class="st8" cx="804.8" cy="468.4" rx="4.7" ry="4.7"/>
		
			<ellipse transform="matrix(0.9948 -0.1021 0.1021 0.9948 -37.4597 52.3333)" class="st8" cx="492.5" cy="392.1" rx="4.7" ry="4.7"/>
		
			<ellipse transform="matrix(0.9948 -0.1021 0.1021 0.9948 -43.1046 52.8474)" class="st8" cx="494.7" cy="447.5" rx="6.2" ry="6.2"/>
		
			<ellipse transform="matrix(0.9948 -0.1021 0.1021 0.9948 -42.4499 27.0377)" class="st8" cx="242.9" cy="428.2" rx="6.2" ry="6.2"/>
		
			<ellipse transform="matrix(0.9948 -0.1021 0.1021 0.9948 -42.2217 83.2975)" class="st7" cx="792.6" cy="454.1" rx="8.5" ry="8.5"/>
		<circle class="st8" cx="463" cy="466.2" r="2.6"/>
		
			<ellipse transform="matrix(0.9995 -3.030297e-02 3.030297e-02 0.9995 -13.6846 20.5809)" class="st8" cx="672.2" cy="461.8" rx="2.6" ry="2.6"/>
		<circle class="st8" cx="509" cy="354.3" r="2.6"/>
		
			<ellipse transform="matrix(0.9948 -0.1021 0.1021 0.9948 -41.7265 55.1722)" class="st10" cx="518.1" cy="435.2" rx="5.5" ry="5.5"/>
		<ellipse transform="matrix(0.9948 -0.1021 0.1021 0.9948 -36.2233 55.2898)" class="st8" cx="522" cy="381.5" rx="4.6" ry="4.6"/>
		
			<ellipse transform="matrix(0.9948 -0.1021 0.1021 0.9948 -45.3257 53.4524)" class="st8" cx="499.5" cy="469.5" rx="4.6" ry="4.6"/>
		<circle class="st8" cx="1135.7" cy="295.7" r="4.3"/>
		<path class="st8" d="M1077.8,353.5c0-2.7,2.2-4.9,4.9-4.9c2.7,0,4.9,2.2,4.9,4.9c0,2.7-2.2,4.9-4.9,4.9S1077.8,356.2,1077.8,353.5
			z M1086.3,353.5c0-2-1.6-3.6-3.6-3.6s-3.6,1.6-3.6,3.6s1.6,3.6,3.6,3.6C1084.7,357.1,1086.3,355.5,1086.3,353.5z"/>
		<path class="st8" d="M909.2,340.2c0-3.1,2.5-5.6,5.6-5.6s5.6,2.5,5.6,5.6s-2.5,5.6-5.6,5.6C911.7,345.8,909.2,343.3,909.2,340.2z
			 M919.1,340.2c0-2.4-1.9-4.3-4.3-4.3c-2.4,0-4.3,1.9-4.3,4.3s1.9,4.3,4.3,4.3S919.1,342.5,919.1,340.2z"/>
		<path class="st8" d="M1164.7,310.6c0-3.1,2.5-5.6,5.6-5.6s5.6,2.5,5.6,5.6s-2.5,5.6-5.6,5.6S1164.7,313.7,1164.7,310.6z
			 M1174.6,310.6c0-2.4-1.9-4.3-4.3-4.3s-4.3,1.9-4.3,4.3s1.9,4.3,4.3,4.3S1174.6,313,1174.6,310.6z"/>
		<circle class="st8" cx="1087.2" cy="301" r="5.2"/>
		<circle class="st7" cx="762.5" cy="434.7" r="7"/>
		<path class="st9" d="M998.2,366.9c0.5-4-3.7-8.6-8.2-8.7c-4.8-0.1-6.8,3.1-7.4,7.3c-0.7,4.6,2.9,9.1,7.3,9.6
			C993.7,375.4,997.7,371.5,998.2,366.9z"/>
		<path class="st8" d="M766.8,412.3c0-0.1,0-0.3,0.1-0.4c0.8-4.2,2.2-8.7,8.2-8.2c1.9,0.2,3.6,1.1,4.8,2.7c1.6,2.1,2.2,5.2,1.6,7.9
			c-0.8,3.8-3,6.2-6.2,6.8l0,0c-1.9,0.4-4-0.5-5.8-2.3C767.6,416.9,766.6,414.4,766.8,412.3z M780.3,413.1c0.2-2.1-0.3-4.4-1.5-5.9
			c-1-1.3-2.3-2-3.8-2.2c-5-0.4-6.1,3.2-6.8,7.2c-0.3,1.7,0.6,4,2.3,5.7c1.5,1.5,3.2,2.2,4.6,1.9l0,0c2.7-0.5,4.5-2.5,5.2-5.8
			C780.2,413.7,780.3,413.4,780.3,413.1z"/>
		<path class="st8" d="M706.9,468.1c-0.3-1-1-1.8-1.7-2.6c-1.9-1.9-4.6-2.8-7.2-2.1c-3.8,1-5.7,3.3-5.2,6.5c0.4,2.4,4.1,5.3,6.8,6.2
			C702.8,477,708,471.3,706.9,468.1z"/>
		
			<ellipse transform="matrix(0.1021 -0.9948 0.9948 0.1021 114.3841 945.4031)" class="st8" cx="580.9" cy="409.3" rx="8.4" ry="8.4"/>
		<path class="st8" d="M1087.1,408.6c0.3-2.6,2.6-4.5,5.2-4.2s4.5,2.6,4.2,5.2s-2.6,4.5-5.2,4.2
			C1088.8,413.6,1086.9,411.2,1087.1,408.6z M1095.3,409.4c0.2-1.9-1.2-3.6-3.1-3.8c-1.9-0.2-3.6,1.2-3.8,3.1
			c-0.2,1.9,1.2,3.6,3.1,3.8C1093.4,412.7,1095.1,411.3,1095.3,409.4z"/>
		<path class="st8" d="M629.8,385c0.2-2.2,2.2-3.8,4.4-3.6c2.2,0.2,3.8,2.2,3.6,4.4c-0.2,2.2-2.2,3.8-4.4,3.6S629.6,387.2,629.8,385
			z M636.5,385.7c0.2-1.5-0.9-2.8-2.4-3s-2.8,0.9-3,2.4s0.9,2.8,2.4,3C635,388.2,636.3,387.2,636.5,385.7z"/>
		<path class="st8" d="M466.7,411.7c0.1,4.7,3.5,6.2,7.5,6.2c4.5,0,7.2-3.4,6.6-7.1c-0.2-1.3-1.2-2.5-2.3-3.6c-2.4-2.3-6.2-3-9-1.2
			C467.5,407.3,466.6,409.2,466.7,411.7z"/>
		<circle class="st8" cx="1110.8" cy="401.8" r="3.1"/>
		<circle class="st8" cx="978.5" cy="427.7" r="3.9"/>
		<circle class="st8" cx="1078.6" cy="405" r="3.7"/>
		<path class="st9" d="M27.1,400.8c-0.1-4.6-4.4-8.2-9.6-8.2c-4.4,0-11.2,5.9-11.2,9.7c0,3.8,7.1,8.3,12.9,8.1
			C24,410.3,27.2,406.4,27.1,400.8z"/>
		<circle class="st8" cx="441.8" cy="336" r="2.4"/>
		<path class="st8" d="M522.8,282.8c-1.6-0.3-2.7-1.8-2.5-3.4c0.3-1.6,1.8-2.7,3.4-2.5c1.6,0.3,2.7,1.8,2.5,3.4
			C525.9,282,524.4,283.1,522.8,282.8z M523.5,278.3c-0.9-0.1-1.7,0.5-1.9,1.4c-0.1,0.9,0.5,1.7,1.4,1.9c0.9,0.1,1.7-0.5,1.9-1.4
			C525,279.3,524.4,278.5,523.5,278.3z"/>
		
			<ellipse transform="matrix(3.030297e-02 -0.9995 0.9995 3.030297e-02 32.0776 860.1868)" class="st8" cx="459.4" cy="413.6" rx="3.5" ry="3.5"/>
		
			<ellipse transform="matrix(0.1021 -0.9948 0.9948 0.1021 -154.7511 703.4258)" class="st10" cx="312.3" cy="437.4" rx="5.5" ry="5.5"/>
		<path class="st8" d="M115.4,465.6c0.1-3.6-1.8-6.2-4.3-6.3c-2.2-0.1-4.9,2.9-5,5.6c-0.1,2.3,2.4,4.6,5,4.6
			C113.8,469.5,115,467.7,115.4,465.6z"/>
		<path class="st8" d="M36.5,384c0.1-3.6-1.8-6.2-4.3-6.3c-2.2-0.1-4.9,2.9-5,5.6c-0.1,2.3,2.4,4.6,5,4.6
			C35,387.9,36.1,386.1,36.5,384z"/>
		<path class="st9" d="M200.1,342.1c-0.1-2.9-3.4-6.1-6.6-6c-3.6,0.1-3.9,3-3.9,5.8c0,4.1,1.8,6.3,5.1,6.4
			C197.7,348.4,200.2,345.5,200.1,342.1z"/>
		<path class="st7" d="M142.8,330.8c0-3.2,2.6-5.8,5.8-5.8s5.8,2.6,5.8,5.8c0,3.2-2.6,5.8-5.8,5.8
			C145.4,336.6,142.8,334,142.8,330.8z M153,330.8c0-2.5-2-4.5-4.5-4.5s-4.5,2-4.5,4.5s2,4.5,4.5,4.5S153,333.3,153,330.8z"/>
		<circle class="st8" cx="90.2" cy="330.4" r="2.3"/>
		<circle class="st7" cx="152.2" cy="403.9" r="4.1"/>
		<circle class="st7" cx="-19.5" cy="348.7" r="4.1"/>
		
			<ellipse transform="matrix(3.030297e-02 -0.9995 0.9995 3.030297e-02 -87.6378 568.8286)" class="st8" cx="249.3" cy="329.6" rx="3.5" ry="3.5"/>
		<circle class="st8" cx="-33" cy="466.2" r="5.5"/>
		<path class="st9" d="M-49.6,407.2c0-2.8,2.1-5.4,4.2-7c2.3-1.8,4.9-2.6,6.8-2c4.3,1.2,5.3,4.4,5.7,7c0.4,2.4-1.4,5.3-3.1,7.1
			c-1.6,1.7-4.2,3.4-6.3,3.1c-4.5-0.6-7.1-3.5-7.2-8C-49.6,407.3-49.6,407.3-49.6,407.2z M-34.3,405.8c0-0.2,0-0.3,0-0.5
			c-0.4-2.4-1.2-4.9-4.8-5.9c-1.5-0.4-3.6,0.3-5.6,1.8c-2.3,1.8-3.7,4.1-3.7,6.1l0,0c0.1,3.9,2.3,6.3,6.1,6.7
			c1.4,0.2,3.4-0.9,5.2-2.8C-35.3,409.5-34.3,407.4-34.3,405.8z"/>
		<path class="st8" d="M127.6,369.7c0.2-1.8,0.9-3.9,2.4-5.1c1.2-1,2.8-1.2,4.5-0.8c1.6,0.4,3.7,1.8,4.7,4.1c0.6,1.4,1,3.6-0.5,6.3
			l0,0c-1.1,1.9-3.2,2.9-5.6,2.5c-2.3-0.3-4.8-2-5.4-4.8c-0.1-0.4-0.1-0.7-0.1-1.1C127.5,370.4,127.6,370.1,127.6,369.7z
			 M138.4,370.9c0.1-0.9,0-1.7-0.4-2.5c-0.8-1.8-2.5-3-3.8-3.3s-2.5-0.1-3.4,0.6c-1.5,1.2-2,3.4-2,5.1c0,0.3,0,0.5,0.1,0.8
			c0.5,2.2,2.5,3.5,4.3,3.8c1.9,0.3,3.5-0.4,4.3-1.8C138,372.6,138.3,371.7,138.4,370.9z"/>
		
			<ellipse transform="matrix(0.1021 -0.9948 0.9948 0.1021 -388.1643 331.6195)" class="st8" cx="-10.4" cy="380.8" rx="5.5" ry="5.5"/>
		
			<ellipse transform="matrix(0.1021 -0.9948 0.9948 0.1021 -265.7331 346.7222)" class="st8" cx="59.2" cy="320.6" rx="5.5" ry="5.5"/>
		
			<ellipse transform="matrix(0.1021 -0.9948 0.9948 0.1021 -486.2213 364.2856)" class="st8" cx="-41.3" cy="451.5" rx="4.1" ry="4.1"/>
		
			<ellipse transform="matrix(0.1021 -0.9948 0.9948 0.1021 -303.034 570.7484)" class="st8" cx="164.6" cy="453.2" rx="4.8" ry="4.8"/>
		
			<ellipse transform="matrix(0.1021 -0.9948 0.9948 0.1021 -252.6773 445.9817)" class="st8" cx="120.7" cy="363" rx="2.4" ry="2.4"/>
		<path class="st8" d="M44.5,344.4c0-1.6,1.3-2.9,2.9-2.9c1.6,0,2.9,1.3,2.9,2.9s-1.3,2.9-2.9,2.9C45.8,347.4,44.5,346.1,44.5,344.4
			z M49.1,344.4c0-0.9-0.7-1.6-1.6-1.6c-0.9,0-1.6,0.7-1.6,1.6s0.7,1.6,1.6,1.6C48.3,346.1,49.1,345.3,49.1,344.4z"/>
		
			<ellipse transform="matrix(0.1021 -0.9948 0.9948 0.1021 144.2211 976.7955)" class="st8" cx="613.2" cy="408.5" rx="6.5" ry="6.5"/>
		
			<ellipse transform="matrix(0.1021 -0.9948 0.9948 0.1021 -211.5478 581.3423)" class="st8" cx="216.3" cy="407.9" rx="4.7" ry="4.7"/>
		<ellipse transform="matrix(0.1021 -0.9948 0.9948 0.1021 -358.0378 451.243)" class="st8" cx="70.9" cy="424" rx="6.2" ry="6.2"/>
		<circle class="st8" cx="204.2" cy="290.9" r="2.6"/>
		
			<ellipse transform="matrix(0.1021 -0.9948 0.9948 0.1021 -307.5861 480.6236)" class="st8" cx="112.4" cy="410.7" rx="4.6" ry="4.6"/>
	</g>
	<g class="st0">
		<path class="st5" d="M71,456.5"/>
		
			<ellipse transform="matrix(0.9911 -0.1328 0.1328 0.9911 -59.361 -6.4319)" class="st5" cx="-77.9" cy="441.8" rx="4.2" ry="4.2"/>
		<ellipse transform="matrix(0.9911 -0.1328 0.1328 0.9911 -58.0486 5.2456)" class="st5" cx="10.3" cy="437.8" rx="5.8" ry="5.8"/>
	</g>
	<path class="st8" d="M718.6,419.6c2.2,0,4,1.8,4,4s-1.8,4-4,4s-4-1.8-4-4S716.4,419.6,718.6,419.6z M718.6,420.9
		c-1.5,0-2.7,1.2-2.7,2.7s1.2,2.7,2.7,2.7s2.7-1.2,2.7-2.7S720.1,420.9,718.6,420.9z"/>
</g>
</svg>
