<?xml version="1.0" encoding="utf-8"?>
<!-- Generator: Adobe Illustrator 21.0.2, SVG Export Plug-In . SVG Version: 6.00 Build 0)  -->
<svg version="1.1" id="Layer_1" xmlns="http://www.w3.org/2000/svg" xmlns:xlink="http://www.w3.org/1999/xlink" x="0px" y="0px"
	 viewBox="0 0 887.6 933.4" style="enable-background:new 0 0 887.6 933.4;" xml:space="preserve">
<style type="text/css">
	.st0{opacity:0.33;}
	.st1{opacity:0.76;fill:none;stroke:#EFEFEF;stroke-miterlimit:10;enable-background:new    ;}
	.st2{opacity:0.44;fill:#EFEFEF;enable-background:new    ;}
	.st3{fill:#EFEFEF;}
	.st4{opacity:0.35;fill:none;stroke:#EFEFEF;stroke-miterlimit:10;enable-background:new    ;}
	.st5{fill:none;stroke:#EFEFEF;stroke-miterlimit:10;}
	.st6{opacity:0.75;fill:none;stroke:#EFEFEF;stroke-miterlimit:10;enable-background:new    ;}
	.st7{opacity:0.35;fill:#EFEFEF;enable-background:new    ;}
	.st8{opacity:0.75;fill:#EFEFEF;enable-background:new    ;}
	.st9{opacity:0.44;fill:none;stroke:#EFEFEF;stroke-miterlimit:10;enable-background:new    ;}
	.st10{opacity:0.76;fill:#EFEFEF;enable-background:new    ;}
	.st11{opacity:0.35;fill:none;stroke:#EFEFEF;stroke-miterlimit:10;}
	.st12{opacity:0.35;fill:#EFEFEF;}
	.st13{opacity:0.44;fill:none;stroke:#EFEFEF;stroke-miterlimit:10;}
	.st14{opacity:0.75;fill:#EFEFEF;}
	.st15{opacity:0.44;fill:#EFEFEF;}
	.st16{opacity:0.76;fill:#EFEFEF;}
	.st17{opacity:0.75;fill:none;stroke:#EFEFEF;stroke-miterlimit:10;}
</style>
<g class="st0">
	<path class="st1" d="M131,452.7c-9.6,1.4-13.7,6.8-12.9,15.8c1.2,12.5,19.4,19.6,28.3,15.2c4.7-2.3,7.8-6.2,7.9-11.4
		C154.3,461.2,142,451.1,131,452.7z"/>
	<path class="st2" d="M9.7,688.1c1.3,10.3,11.3,17.3,22.5,15.8c8.8-1.2,13.9-8.4,12.7-17.9c-1.3-10-9.6-16-20.4-14.7
		C14.8,672.5,8.6,679.5,9.7,688.1z"/>
	<path class="st2" d="M176.8,255.5c1.5-2.6,2.2-6.1,1.9-9.1c-0.8-6.8-7-11.4-16.1-11.3c-11.3,0.1-13.6,3.4-13,13.5
		c0.7,6.3,4,9.9,10.9,11.6C167.5,262,173.9,260.5,176.8,255.5z"/>
	<path class="st3" d="M146.4,413.9c11.4-1.1,16.4-6.9,15.3-17.6c-0.9-8.9-6.1-13.8-13.8-12.8c-8.5,1.1-16,10-15.2,17.7
		C133.6,408.8,139.8,414.5,146.4,413.9z"/>
	<path class="st3" d="M90.5,435.5c1.1,11.4,10.3,19.3,21.2,18c8.9-1,14.7-8,13.6-16.3c-1.2-8.7-12.1-16.2-22.2-15.2
		C94.4,422.9,89.7,427.9,90.5,435.5z"/>
	<path class="st4" d="M-49,524.7c1.1,11.4,10.3,19.3,21.2,18c8.9-1,14.7-8,13.6-16.3c-1.2-8.7-12.1-16.2-22.2-15.2
		C-45,512.1-49.7,517.2-49,524.7z"/>
	<path class="st2" d="M55.4,691c1.1,10.1,11.7,18.5,21.3,16.9c6.3-1,12.4-9.8,11.5-16.5c-1.3-9.3-12.2-16.5-22.8-14.9
		C57.8,677.7,54.4,682.6,55.4,691z"/>
	<path class="st2" d="M527.7,237.8c0.6,5.6,6.7,10.4,12.2,9.5c3.6-0.6,7.1-5.5,6.6-9.3c-0.7-5.2-7-9.2-13.1-8.3
		C529.1,230.4,527.2,233.1,527.7,237.8z"/>
	<path class="st5" d="M177.1,311.1c-7,0.9-14.7,10.1-14,16.8c0.8,7.8,9,14.5,16.7,13.7s16.8-10.8,15.9-17.4
		C194.9,317.4,184.6,310.2,177.1,311.1z"/>
	<path class="st6" d="M220.3,277.4c1,7.7,8.5,13.3,16.5,12.4c6.4-0.8,13.4-12.5,12.4-21.2c-0.8-7.4-6.6-11.9-14-11
		C226.1,258.8,219.1,268.1,220.3,277.4z"/>
	<path class="st2" d="M118.4,323.5c0.9,7.2,7.8,12.4,15.3,11.5c6-0.7,12.4-11.6,11.5-19.6c-0.7-6.8-6.1-11.1-12.9-10.2
		C123.9,306.2,117.3,314.9,118.4,323.5z"/>
	<path class="st2" d="M281.6,284.5c0.9,7.2,7.8,12.4,15.3,11.5c6-0.7,12.4-11.6,11.5-19.6c-0.7-6.8-6.1-11.1-12.9-10.2
		C287,267.3,280.5,275.9,281.6,284.5z"/>
	<path class="st3" d="M73.7,537.2c0.7,5.2,5.7,9,11.1,8.3c4.3-0.5,9-8.4,8.4-14.2c-0.5-5-4.4-8-9.4-7.4
		C77.7,524.6,72.9,530.9,73.7,537.2z"/>
	<path class="st1" d="M19.1,620.7c-0.6-7.2-8-12.3-16.2-11.3c-7.1,0.9-13.3,7.5-12.6,13.4c0.7,5.8,9.3,10.5,17.7,9.6
		C15.8,631.6,19.8,627.4,19.1,620.7z"/>
	<path class="st3" d="M263.2,260.5c-5.3,0.6-8.8,3.9-8.5,7.7c0.3,3.3,5.2,6.7,9.3,6.3c3.4-0.3,6.4-4.5,5.8-8.3
		C269.2,262,266.3,260.7,263.2,260.5z"/>
	<path class="st2" d="M125.6,358.3c-7,0.7-11.5,5.1-11.1,10c0.4,4.3,6.8,8.7,12.1,8.2c4.4-0.4,8.4-5.9,7.6-10.9
		C133.4,360.3,129.6,358.5,125.6,358.3z"/>
	<path class="st3" d="M387.4,273.7c-5.3,0.6-8.8,3.9-8.5,7.7c0.3,3.3,5.2,6.7,9.3,6.3c3.4-0.3,6.4-4.5,5.8-8.3
		C393.4,275.3,390.5,273.9,387.4,273.7z"/>
	<path class="st3" d="M49.6,659.3c-5.3,0.6-8.8,3.9-8.5,7.7c0.3,3.3,5.2,6.7,9.3,6.3c3.4-0.3,6.4-4.5,5.8-8.3
		C55.6,660.9,52.7,659.5,49.6,659.3z"/>
	<path class="st3" d="M57.7,594c-5.3,0.6-8.8,3.9-8.5,7.7c0.3,3.3,5.2,6.7,9.3,6.3c3.4-0.3,6.4-4.5,5.8-8.3
		C63.7,595.6,60.8,594.2,57.7,594z"/>
	<path class="st3" d="M3,519c-5.3,0.6-8.8,3.9-8.5,7.7c0.3,3.3,5.2,6.7,9.3,6.3c3.4-0.3,6.4-4.5,5.8-8.3C9,520.5,6.1,519.2,3,519z"
		/>
	<path class="st2" d="M124.5,407.1c-5.3,0.6-8.8,3.9-8.5,7.7c0.3,3.3,5.2,6.7,9.3,6.3c3.4-0.3,6.4-4.5,5.8-8.3
		C130.5,408.6,127.6,407.3,124.5,407.1z"/>
	<path class="st3" d="M45.2,507.8c-5.3,0.6-8.8,3.9-8.5,7.7c0.3,3.3,5.2,6.7,9.3,6.3c3.4-0.3,6.4-4.5,5.8-8.3
		C51.2,509.3,48.3,508,45.2,507.8z"/>
	<path class="st7" d="M66.3,545.5c3.3-5.6,1.1-15.8-5.1-19.4c-7.1-4.2-11.1,0.8-14.6,6.2c-4.9,7.7-4.3,14.3,1.8,18.5
		C54,554.6,62.3,552.2,66.3,545.5z"/>
	<path class="st7" d="M45.5,484.5c-4.3,0.7-8.4,6.2-7.6,10.9c0.9,5.4,5.2,5.2,9.4,4.7c6-0.9,9-4,8.5-8.8
		C55.4,486.8,50.6,483.6,45.5,484.5z"/>
	<path class="st8" d="M41.2,636c7.6-0.9,11.8-6.4,10.7-14.1c-1.2-8.7-5.7-12.7-13.1-11.8c-7.7,0.9-13.1,6.9-12.1,13.4
		C27.8,630.8,34.7,636.8,41.2,636z"/>
	<path class="st3" d="M-30.4,617.2c-7.6,0.8-12.1,6.6-11.3,14.6c0.8,7.9,6.4,12.4,14.4,11.5c6.7-0.7,10.4-6.7,9.5-14.9
		C-18.8,620.7-23.5,616.5-30.4,617.2z"/>
	<path class="st3" d="M-14,550.4c-7.6,0.8-12.1,6.6-11.3,14.6c0.8,7.9,6.4,12.4,14.4,11.5c6.7-0.7,10.4-6.7,9.5-14.9
		C-2.3,553.9-7.1,549.7-14,550.4z"/>
	<path class="st3" d="M-9.5,592.5c1.5,7.7,8,6.7,12.6,7c9.9-1.2,15.1-6.4,13.9-13.4c-1.4-8.3-8.2-8.2-14.1-7.8
		C-4.9,578.9-10.8,585.9-9.5,592.5z"/>
	<path class="st3" d="M71,604.5c1.5,7.7,8,6.7,12.6,7c9.9-1.2,15.1-6.4,13.9-13.4c-1.4-8.3-8.2-8.2-14.1-7.8
		C75.6,590.9,69.7,597.9,71,604.5z"/>
	<path class="st3" d="M286.9,259c6.6-0.5,11-6.6,10-15c-1.1-5.6-5.2-9.5-12.2-9.5c-5.8,0-9.8,7.7-8.9,15.5
		C276.6,257,280.6,259.5,286.9,259z"/>
	<path class="st4" d="M110.9,525.3c6.2-1,9.7-5.1,9.6-11.3c0-5.2-10-12.7-15.8-11c-3.8,1.1-7.6,3.2-8.5,9.1
		C95.4,517.9,104.4,526.4,110.9,525.3z"/>
	<path class="st9" d="M462.4,284.2c3.3-0.5,5.1-2.6,5.1-5.7c0-2.6-5.2-6.2-8.3-5.4c-2,0.6-4.2,3.1-4.3,5.5
		C455,281,459,284.8,462.4,284.2z"/>
	<path class="st2" d="M354,341.3c6.3-0.4,9.7-5.1,9.6-11.3c0-5.2-10-12.7-15.8-11C344.1,320.1,333.2,342.7,354,341.3z"/>
	<path class="st3" d="M7.1,667.5c-0.5-6.9-4.3-11.1-11.6-11.5c-6.1,0.4-11.4,6.8-10.7,13.6c0.7,7,6.1,7.5,11.5,7.1
		C1.9,676.3,7.7,675.1,7.1,667.5z"/>
	<ellipse transform="matrix(0.9911 -0.1328 0.1328 0.9911 -46.5407 33.7848)" class="st5" cx="230" cy="365.8" rx="6.4" ry="6.4"/>
	
		<ellipse transform="matrix(0.9911 -0.1328 0.1328 0.9911 -32.2729 27.9101)" class="st3" cx="193.1" cy="255.9" rx="6.4" ry="6.4"/>
	
		<ellipse transform="matrix(0.9911 -0.1328 0.1328 0.9911 -35.7299 38.0513)" class="st3" cx="267.4" cy="286.9" rx="5.2" ry="5.2"/>
	
		<ellipse transform="matrix(0.9911 -0.1328 0.1328 0.9911 -44.5015 28.1522)" class="st3" cx="188.8" cy="347.7" rx="5.2" ry="5.2"/>
	<path class="st3" d="M-50.6,878.8"/>
	<ellipse transform="matrix(0.9911 -0.1328 0.1328 0.9911 -34.997 28.065)" class="st5" cx="192.9" cy="276.4" rx="6.4" ry="6.4"/>
	<ellipse transform="matrix(0.9911 -0.1328 0.1328 0.9911 -87.3017 8.0245)" class="st2" cx="16.5" cy="658.5" rx="7.7" ry="7.7"/>
	<ellipse transform="matrix(0.9911 -0.1328 0.1328 0.9911 -72.2507 6.1006)" class="st5" cx="9.6" cy="544.7" rx="7.4" ry="7.4"/>
	
		<ellipse transform="matrix(0.9911 -0.1328 0.1328 0.9911 -87.2042 19.9052)" class="st3" cx="105.6" cy="663.7" rx="10.5" ry="10.5"/>
	<ellipse transform="matrix(0.9911 -0.1328 0.1328 0.9911 -78.7122 1.6222)" class="st3" cx="-27.2" cy="590.9" rx="7.8" ry="7.8"/>
	<ellipse transform="matrix(0.9911 -0.1328 0.1328 0.9911 -40.696 32.6072)" class="st3" cx="224.1" cy="321.4" rx="7.8" ry="7.8"/>
	<ellipse transform="matrix(0.9911 -0.1328 0.1328 0.9911 -56.4133 23.559)" class="st3" cx="148.4" cy="434.7" rx="7.8" ry="7.8"/>
	<ellipse transform="matrix(0.9911 -0.1328 0.1328 0.9911 -54.8384 3.7648)" class="st3" cx="0.8" cy="413" rx="7.8" ry="7.8"/>
	
		<ellipse transform="matrix(0.9911 -0.1328 0.1328 0.9911 -37.0907 49.4533)" class="st5" cx="352.2" cy="302.8" rx="7.8" ry="7.8"/>
	<ellipse transform="matrix(0.9911 -0.1328 0.1328 0.9911 -81.2885 3.1961)" class="st3" cx="-16.7" cy="611" rx="4.3" ry="4.3"/>
	
		<ellipse transform="matrix(0.9911 -0.1328 0.1328 0.9911 -64.3149 20.4705)" class="st5" cx="121.3" cy="492.4" rx="3.6" ry="3.6"/>
	<ellipse transform="matrix(0.9911 -0.1328 0.1328 0.9911 -87.023 10.6075)" class="st5" cx="36" cy="657.7" rx="3.6" ry="3.6"/>
	<ellipse transform="matrix(0.9911 -0.1328 0.1328 0.9911 -85.0863 5.0487)" class="st5" cx="-4.7" cy="640.4" rx="3.6" ry="3.6"/>
	
		<ellipse transform="matrix(0.9911 -0.1328 0.1328 0.9911 -51.2517 19.3464)" class="st5" cx="119.4" cy="393.9" rx="3.6" ry="3.6"/>
	<ellipse transform="matrix(0.9911 -0.1328 0.1328 0.9911 -53.1005 9.6389)" class="st5" cx="45.7" cy="402.9" rx="3.6" ry="3.6"/>
	
		<ellipse transform="matrix(0.9911 -0.1328 0.1328 0.9911 -41.4074 46.1397)" class="st5" cx="325.2" cy="333.5" rx="3.6" ry="3.6"/>
	
		<ellipse transform="matrix(0.9911 -0.1328 0.1328 0.9911 -35.1879 84.9681)" class="st3" cx="619.4" cy="306.3" rx="3.6" ry="3.6"/>
	
		<ellipse transform="matrix(0.9911 -0.1328 0.1328 0.9911 -33.2115 30.6136)" class="st3" cx="212.9" cy="264.3" rx="3.6" ry="3.6"/>
	<ellipse transform="matrix(0.9911 -0.1328 0.1328 0.9911 -43.44 40.0734)" class="st5" cx="278.7" cy="345.7" rx="3.6" ry="3.6"/>
	
		<ellipse transform="matrix(0.9911 -0.1328 0.1328 0.9911 -30.8287 64.1491)" class="st3" cx="465.5" cy="263.2" rx="3.6" ry="3.6"/>
	
		<ellipse transform="matrix(0.9911 -0.1328 0.1328 0.9911 -29.4012 53.3565)" class="st3" cx="385.3" cy="247.1" rx="3.6" ry="3.6"/>
	<ellipse transform="matrix(0.9911 -0.1328 0.1328 0.9911 -46.8206 29.9749)" class="st3" cx="201.3" cy="366" rx="3.6" ry="3.6"/>
	<ellipse transform="matrix(0.9911 -0.1328 0.1328 0.9911 -24.661 33.4183)" class="st3" cx="238.2" cy="201.6" rx="3.6" ry="3.6"/>
	
		<ellipse transform="matrix(0.9911 -0.1328 0.1328 0.9911 -48.8167 21.8505)" class="st3" cx="139.4" cy="376.9" rx="3.6" ry="3.6"/>
	<ellipse transform="matrix(0.9911 -0.1328 0.1328 0.9911 -21.0058 2.254)" class="st3" cx="6.4" cy="158.6" rx="3.6" ry="3.6"/>
	
		<ellipse transform="matrix(0.9911 -0.1328 0.1328 0.9911 -38.3193 52.6438)" class="st3" cx="375.5" cy="313.6" rx="3.6" ry="3.6"/>
	
		<ellipse transform="matrix(0.9911 -0.1328 0.1328 0.9911 -40.9088 55.4045)" class="st3" cx="394.9" cy="334.4" rx="3.6" ry="3.6"/>
	
		<ellipse transform="matrix(0.9911 -0.1328 0.1328 0.9911 -31.4994 44.0795)" class="st3" cx="314.7" cy="258.2" rx="3.6" ry="3.6"/>
	<ellipse transform="matrix(0.9911 -0.1328 0.1328 0.9911 -36.842 20.9979)" class="st3" cx="139" cy="286.7" rx="8.1" ry="8.1"/>
	
		<ellipse transform="matrix(0.9911 -0.1328 0.1328 0.9911 -39.3246 38.7592)" class="st2" cx="270.9" cy="314.2" rx="11.3" ry="11.3"/>
	
		<ellipse transform="matrix(0.9911 -0.1328 0.1328 0.9911 -45.5053 22.4971)" class="st2" cx="145.9" cy="352.4" rx="11.3" ry="11.3"/>
	
		<ellipse transform="matrix(0.9911 -0.1328 0.1328 0.9911 -52.6181 1.2697)" class="st2" cx="-16.8" cy="395.1" rx="11.3" ry="11.3"/>
	<path class="st3" d="M41.8,594.5c-0.6-4.4-4-5.9-9.1-6.9c-4.4-0.9-7.5,4.7-6.9,9.1c0.6,4.4,4.7,7.5,9.1,6.9S42.4,599,41.8,594.5z"
		/>
	<path class="st5" d="M44.4,564.3c0.9-6.6-6.9-11.2-13.5-10.3s-11.2,6.9-10.3,13.5c0.9,6.6,7.1,12,13.5,10.3
		C40.5,576.3,43.5,570.8,44.4,564.3z"/>
	
		<ellipse transform="matrix(0.9911 -0.1328 0.1328 0.9911 -37.114 25.3244)" class="st3" cx="171.3" cy="290.9" rx="10.5" ry="10.5"/>
	
		<ellipse transform="matrix(0.9911 -0.1328 0.1328 0.9911 -74.4712 13.6117)" class="st3" cx="64.8" cy="565.1" rx="10.5" ry="10.5"/>
	
		<ellipse transform="matrix(0.9911 -0.1328 0.1328 0.9911 -44.0682 30.6582)" class="st3" cx="207.8" cy="345.7" rx="10.5" ry="10.5"/>
	
		<ellipse transform="matrix(0.9911 -0.1328 0.1328 0.9911 -47.7634 39.0272)" class="st3" cx="268.7" cy="377.6" rx="10.5" ry="10.5"/>
	<ellipse transform="matrix(0.9911 -0.1328 0.1328 0.9911 -84.884 8.4768)" class="st3" cx="21.1" cy="640.6" rx="5.6" ry="5.6"/>
	<ellipse transform="matrix(0.9911 -0.1328 0.1328 0.9911 -81.6583 15.825)" class="st5" cx="77.8" cy="620.1" rx="3.4" ry="3.4"/>
	<ellipse transform="matrix(0.9911 -0.1328 0.1328 0.9911 -69.9377 9.1741)" class="st5" cx="33.8" cy="528.9" rx="3.4" ry="3.4"/>
	<ellipse transform="matrix(0.9911 -0.1328 0.1328 0.9911 -66.4915 12.2526)" class="st3" cx="58.6" cy="504.6" rx="3.4" ry="3.4"/>
	<ellipse transform="matrix(0.9911 -0.1328 0.1328 0.9911 -71.7981 9.0844)" class="st3" cx="32.2" cy="542.8" rx="3.4" ry="3.4"/>
	
		<ellipse transform="matrix(0.9911 -0.1328 0.1328 0.9911 -30.3717 20.0066)" class="st9" cx="134.8" cy="237.7" rx="3.4" ry="3.4"/>
	<ellipse transform="matrix(0.9911 -0.1328 0.1328 0.9911 -76.9642 11.6297)" class="st9" cx="48.7" cy="582.8" rx="3.4" ry="3.4"/>
	<ellipse transform="matrix(0.9911 -0.1328 0.1328 0.9911 -93.6259 7.0073)" class="st3" cx="5.7" cy="705.4" rx="3.4" ry="3.4"/>
	<ellipse transform="matrix(0.9911 -0.1328 0.1328 0.9911 -82.6666 13.7326)" class="st3" cx="61.6" cy="626.6" rx="3.4" ry="3.4"/>
	<ellipse transform="matrix(0.9911 -0.1328 0.1328 0.9911 -73.4304 1.0163)" class="st3" cx="-29.1" cy="551" rx="3.4" ry="3.4"/>
	
		<ellipse transform="matrix(0.9911 -0.1328 0.1328 0.9911 -34.6986 23.1367)" class="st5" cx="156.1" cy="271.7" rx="3.4" ry="3.4"/>
	
		<ellipse transform="matrix(0.9911 -0.1328 0.1328 0.9911 -28.3511 15.2966)" class="st5" cx="100.5" cy="220.2" rx="3.4" ry="3.4"/>
	<ellipse transform="matrix(0.9911 -0.1328 0.1328 0.9911 -62.7334 11.2009)" class="st3" cx="52.6" cy="475.9" rx="3.4" ry="3.4"/>
	<ellipse transform="matrix(0.9911 -0.1328 0.1328 0.9911 -43.9488 43.829)" class="st8" cx="306.6" cy="351.4" rx="3.4" ry="3.4"/>
	
		<ellipse transform="matrix(0.9911 -0.1328 0.1328 0.9911 -33.9993 20.4217)" class="st3" cx="136.1" cy="265.1" rx="3.4" ry="3.4"/>
	<ellipse transform="matrix(0.9911 -0.1328 0.1328 0.9911 -56.0673 21.3475)" class="st3" cx="132" cy="431" rx="3.4" ry="3.4"/>
	<ellipse transform="matrix(0.9911 -0.1328 0.1328 0.9911 -67.9802 14.1385)" class="st3" cx="72" cy="516.7" rx="3.4" ry="3.4"/>
	<ellipse transform="matrix(0.9911 -0.1328 0.1328 0.9911 -66.9043 16.2545)" class="st5" cx="88.4" cy="509.7" rx="3.4" ry="3.4"/>
	<ellipse transform="matrix(0.9911 -0.1328 0.1328 0.9911 -85.411 11.3664)" class="st3" cx="42.5" cy="646" rx="3.4" ry="3.4"/>
	
		<ellipse transform="matrix(0.9911 -0.1328 0.1328 0.9911 -81.7104 7.499954e-02)" class="st8" cx="-40.3" cy="612.6" rx="3.4" ry="3.4"/>
	<ellipse transform="matrix(0.9911 -0.1328 0.1328 0.9911 -91.1898 4.9365)" class="st3" cx="-8.6" cy="686.1" rx="3.4" ry="3.4"/>
	<ellipse transform="matrix(0.9911 -0.1328 0.1328 0.9911 -85.8974 6.6918)" class="st3" cx="7.2" cy="647.3" rx="3.4" ry="3.4"/>
	
		<ellipse transform="matrix(0.9911 -0.1328 0.1328 0.9911 -37.0941 30.8197)" class="st3" cx="212.5" cy="293.5" rx="3.4" ry="3.4"/>
	<ellipse transform="matrix(0.9911 -0.1328 0.1328 0.9911 -73.1769 16.6059)" class="st5" cx="87.9" cy="556.9" rx="5" ry="5"/>
	<ellipse transform="matrix(0.9911 -0.1328 0.1328 0.9911 -39.705 23.4702)" class="st3" cx="156.1" cy="309.4" rx="5" ry="5"/>
	<ellipse transform="matrix(0.9911 -0.1328 0.1328 0.9911 -49.0709 17.2391)" class="st3" cx="104.7" cy="376.5" rx="5" ry="5"/>
	<ellipse transform="matrix(0.9911 -0.1328 0.1328 0.9911 -51.7336 8.5191)" class="st3" cx="38" cy="392.1" rx="5" ry="5"/>
	<ellipse transform="matrix(0.9911 -0.1328 0.1328 0.9911 -33.5215 68.1568)" class="st5" cx="494.2" cy="285.4" rx="5" ry="5"/>
	<ellipse transform="matrix(0.9911 -0.1328 0.1328 0.9911 -34.2721 73.703)" class="st3" cx="535.4" cy="293.8" rx="5" ry="5"/>
	<ellipse transform="matrix(0.9911 -0.1328 0.1328 0.9911 -39.0319 45.9559)" class="st3" cx="325" cy="315.6" rx="5" ry="5"/>
	
		<ellipse transform="matrix(0.9911 -0.1328 0.1328 0.9911 -38.4556 42.9949)" class="st9" cx="303.1" cy="309.8" rx="5.9" ry="5.9"/>
	
		<ellipse transform="matrix(0.9911 -0.1328 0.1328 0.9911 -29.0175 68.0836)" class="st2" cx="495.9" cy="251.6" rx="5.9" ry="5.9"/>
	
		<ellipse transform="matrix(0.9911 -0.1328 0.1328 0.9911 -33.1057 50.2145)" class="st2" cx="359.9" cy="273.3" rx="5.9" ry="5.9"/>
	<ellipse transform="matrix(0.9911 -0.1328 0.1328 0.9911 -37.3972 82.449)" class="st9" cx="599.4" cy="321.6" rx="5.9" ry="5.9"/>
	<ellipse transform="matrix(0.9911 -0.1328 0.1328 0.9911 -42.0958 35.6222)" class="st2" cx="246" cy="333.4" rx="6.1" ry="6.1"/>
	
		<ellipse transform="matrix(0.9911 -0.1328 0.1328 0.9911 -30.4185 62.0806)" class="st2" cx="450.2" cy="259.1" rx="6.1" ry="6.1"/>
	<ellipse transform="matrix(0.9911 -0.1328 0.1328 0.9911 -35.1523 46.9106)" class="st2" cx="334.1" cy="287" rx="6.1" ry="6.1"/>
	<ellipse transform="matrix(0.9911 -0.1328 0.1328 0.9911 -36.864 53.4405)" class="st2" cx="382.2" cy="303.1" rx="6.1" ry="6.1"/>
	<path class="st3" d="M425.5,258.2c-7,0.9-14.7,10.1-14,16.8c0.8,7.8,9,14.5,16.7,13.7s16.8-10.8,15.9-17.4
		C443.3,264.5,433,257.3,425.5,258.2z"/>
	<path class="st8" d="M647.3,316c0.6,4.4,4.8,7.6,9.4,7c3.7-0.4,7.6-7.1,7.1-12c-0.5-4.2-3.7-6.8-7.9-6.3
		C650.7,305.4,646.7,310.7,647.3,316z"/>
	<path class="st2" d="M507.5,301.1c0.7,5.1,5.6,8.8,10.9,8.2c4.2-0.5,8.8-8.3,8.2-14c-0.5-4.9-4.3-7.9-9.2-7.3
		C511.3,288.7,506.7,294.9,507.5,301.1z"/>
	
		<ellipse transform="matrix(0.9911 -0.1328 0.1328 0.9911 -34.4382 93.1857)" class="st5" cx="681.3" cy="304.8" rx="5.7" ry="5.7"/>
	
		<ellipse transform="matrix(0.9911 -0.1328 0.1328 0.9911 -31.2364 85.0119)" class="st3" cx="621.7" cy="276.7" rx="6.4" ry="6.4"/>
	
		<ellipse transform="matrix(0.9911 -0.1328 0.1328 0.9911 -38.6608 99.2262)" class="st3" cx="724.5" cy="339.4" rx="3.6" ry="3.6"/>
	
		<ellipse transform="matrix(0.9911 -0.1328 0.1328 0.9911 -26.2801 85.5349)" class="st5" cx="628.1" cy="239.8" rx="3.6" ry="3.6"/>
	<ellipse transform="matrix(0.9911 -0.1328 0.1328 0.9911 -33.0814 77.9448)" class="st5" cx="567.8" cy="287" rx="8.1" ry="8.1"/>
	
		<ellipse transform="matrix(0.9911 -0.1328 0.1328 0.9911 -36.7615 95.7722)" class="st9" cx="699.6" cy="323.5" rx="4.8" ry="4.8"/>
	
		<ellipse transform="matrix(0.9911 -0.1328 0.1328 0.9911 -36.2704 56.7496)" class="st5" cx="407.3" cy="300.3" rx="10.5" ry="10.5"/>
	
		<ellipse transform="matrix(0.9911 -0.1328 0.1328 0.9911 -28.6678 65.1389)" class="st3" cx="474" cy="247.5" rx="10.5" ry="10.5"/>
	<ellipse transform="matrix(0.9911 -0.1328 0.1328 0.9911 -30.938 80.0836)" class="st3" cx="584.9" cy="272" rx="3.4" ry="3.4"/>
	
		<ellipse transform="matrix(0.9911 -0.1328 0.1328 0.9911 -31.2926 71.3701)" class="st5" cx="519.4" cy="270.3" rx="3.4" ry="3.4"/>
	
		<ellipse transform="matrix(0.9911 -0.1328 0.1328 0.9911 -25.6105 61.3862)" class="st5" cx="447.4" cy="222.7" rx="3.4" ry="3.4"/>
	
		<ellipse transform="matrix(0.9911 -0.1328 0.1328 0.9911 -36.2955 66.1673)" class="st3" cx="477.9" cy="305.2" rx="3.4" ry="3.4"/>
	
		<ellipse transform="matrix(0.9911 -0.1328 0.1328 0.9911 -33.3335 87.7666)" class="st5" cx="641.3" cy="293.8" rx="3.4" ry="3.4"/>
	<ellipse transform="matrix(0.9911 -0.1328 0.1328 0.9911 -37.6599 70.501)" class="st5" cx="509.7" cy="317.6" rx="3.4" ry="3.4"/>
	<ellipse transform="matrix(0.9911 -0.1328 0.1328 0.9911 -35.9444 80.4171)" class="st3" cx="584.9" cy="309.7" rx="5" ry="5"/>
	<ellipse transform="matrix(0.9911 -0.1328 0.1328 0.9911 -27.7968 75.779)" class="st3" cx="554.2" cy="246.3" rx="5" ry="5"/>
	
		<ellipse transform="matrix(0.9911 -0.1328 0.1328 0.9911 -39.2689 94.1643)" class="st2" cx="686.3" cy="341.5" rx="6.1" ry="6.1"/>
	
		<ellipse transform="matrix(0.9911 -0.1328 0.1328 0.9911 -39.1083 56.8043)" class="st2" cx="406.3" cy="321.6" rx="6.1" ry="6.1"/>
	<ellipse transform="matrix(0.9911 -0.1328 0.1328 0.9911 -47.5301 25.154)" class="st2" cx="164.8" cy="368.9" rx="6.1" ry="6.1"/>
	<ellipse transform="matrix(0.9911 -0.1328 0.1328 0.9911 -75.1663 6.3891)" class="st2" cx="10.3" cy="566.7" rx="6.1" ry="6.1"/>
	<path class="st3" d="M90.3,261.2c0.9,11.4,9.9,19.5,20.8,18.5c8.9-0.8,14.9-7.7,13.9-16c-1-8.7-11.8-16.5-21.9-15.7
		C94.5,248.6,89.7,253.6,90.3,261.2z"/>
	<path class="st4" d="M-56.6,304.1c1.1,11.4,10.3,19.3,21.2,18c8.9-1,14.7-8,13.6-16.3c-1.2-8.7-12.1-16.2-22.2-15.2
		C-52.6,291.5-57.3,296.5-56.6,304.1z"/>
	<path class="st3" d="M66.2,316.6c0.7,5.2,5.7,9,11.1,8.3c4.3-0.5,9-8.4,8.4-14.2c-0.5-5-4.4-8-9.4-7.4
		C70.1,304,65.4,310.3,66.2,316.6z"/>
	<path class="st3" d="M-4.6,298.3c-5.3,0.6-8.8,3.9-8.5,7.7c0.3,3.3,5.2,6.7,9.3,6.3c3.4-0.3,6.4-4.5,5.8-8.3
		C1.4,299.9-1.5,298.5-4.6,298.3z"/>
	<path class="st7" d="M58.8,324.9c3.3-5.6,1.1-15.8-5.1-19.4c-7.1-4.2-11.1,0.8-14.6,6.2c-4.9,7.7-4.3,14.3,1.8,18.5
		C46.4,334,54.8,331.6,58.8,324.9z"/>
	<path class="st3" d="M-21.5,329.8c-7.6,0.8-12.1,6.6-11.3,14.6c0.8,7.9,6.4,12.4,14.4,11.5c6.7-0.7,10.4-6.7,9.5-14.9
		C-9.9,333.3-14.7,329-21.5,329.8z"/>
	<path class="st3" d="M-17.1,371.9c1.5,7.7,8,6.7,12.6,7c9.9-1.2,15.1-6.4,13.9-13.4c-1.4-8.3-8.2-8.2-14.1-7.8
		C-12.5,358.3-18.4,365.3-17.1,371.9z"/>
	<path class="st4" d="M103.3,304.7c6.2-1,9.7-5.1,9.6-11.3c0-5.2-10-12.7-15.8-11c-3.8,1.1-7.6,3.2-8.5,9.1S96.8,305.7,103.3,304.7z
		"/>
	<path class="st7" d="M103.2,335.9c-6.1,0.9-7.8,5.7-6.3,10.1c1,3.1,4,7.5,8.6,7.4c4.5-0.1,9.8-5.5,9.7-10.9
		C115,337.7,109.4,334.9,103.2,335.9z"/>
	<path class="st3" d="M102.4,328.8c5.5-2.1,6.1-5.9,6.2-10c0.1-3.8-2.8-8.6-8.2-7.9c-12.3,1.7-11.2,10.3-9.4,13.5
		C92.9,327.6,96.9,330.9,102.4,328.8z"/>
	<ellipse transform="matrix(0.9911 -0.1328 0.1328 0.9911 -43.0232 3.1368)" class="st5" cx="2" cy="324.1" rx="7.4" ry="7.4"/>
	<ellipse transform="matrix(0.9911 -0.1328 0.1328 0.9911 -47.8576 12.4498)" class="st7" cx="69.4" cy="365" rx="7.1" ry="7.1"/>
	<ellipse transform="matrix(0.9911 -0.1328 0.1328 0.9911 -55.863 1.0048)" class="st3" cx="-20.4" cy="419.3" rx="7.8" ry="7.8"/>
	<ellipse transform="matrix(0.9911 -0.1328 0.1328 0.9911 -46.1615 14.4709)" class="st3" cx="85.4" cy="353.3" rx="5" ry="5"/>
	<path class="st3" d="M34.2,373.9c-0.6-4.4-4-5.9-9.1-6.9c-4.4-0.9-7.5,4.7-6.9,9.1s4.7,7.5,9.1,6.9S34.8,378.4,34.2,373.9z"/>
	<path class="st5" d="M36.9,343.7c0.9-6.6-6.9-11.2-13.5-10.3s-11.2,6.9-10.3,13.5c0.9,6.6,7.1,12,13.5,10.3
		C33,355.6,35.9,350.2,36.9,343.7z"/>
	<ellipse transform="matrix(0.9911 -0.1328 0.1328 0.9911 -45.241 10.661)" class="st3" cx="57.3" cy="344.5" rx="10.5" ry="10.5"/>
	<ellipse transform="matrix(0.9911 -0.1328 0.1328 0.9911 -40.7102 6.2103)" class="st5" cx="26.2" cy="308.3" rx="3.4" ry="3.4"/>
	<ellipse transform="matrix(0.9911 -0.1328 0.1328 0.9911 -47.9205 14.9074)" class="st5" cx="87.8" cy="366.7" rx="3.4" ry="3.4"/>
	<ellipse transform="matrix(0.9911 -0.1328 0.1328 0.9911 -42.5706 6.1206)" class="st3" cx="24.6" cy="322.2" rx="3.4" ry="3.4"/>
	<ellipse transform="matrix(0.9911 -0.1328 0.1328 0.9911 -47.7367 8.6659)" class="st9" cx="41.1" cy="362.2" rx="3.4" ry="3.4"/>
	<ellipse transform="matrix(0.9911 -0.1328 0.1328 0.9911 -59.695 3.9551)" class="st3" cx="-0.2" cy="449.5" rx="3.4" ry="3.4"/>
	<ellipse transform="matrix(0.9911 -0.1328 0.1328 0.9911 -38.75 11.1877)" class="st3" cx="64.5" cy="296.1" rx="3.4" ry="3.4"/>
	<ellipse transform="matrix(0.9911 -0.1328 0.1328 0.9911 -37.6767 13.2907)" class="st5" cx="80.8" cy="289.1" rx="3.4" ry="3.4"/>
	<ellipse transform="matrix(0.9911 -0.1328 0.1328 0.9911 -43.9494 13.6421)" class="st5" cx="80.3" cy="336.3" rx="5" ry="5"/>
	<ellipse transform="matrix(0.9911 -0.1328 0.1328 0.9911 -19.8433 14.2753)" class="st3" cx="97.1" cy="155.9" rx="5" ry="5"/>
	<path class="st2" d="M-20.9,105.7C-19.6,116-9.6,123,1.6,121.5c8.8-1.2,13.9-8.4,12.7-17.9c-1.3-10-9.6-16-20.4-14.7
		C-15.8,90.1-22,97.1-20.9,105.7z"/>
	<path class="st2" d="M-19.9,190.4c1.3,10.3,11.3,17.3,22.5,15.8c8.8-1.2,13.9-8.4,12.7-17.9c-1.3-10-9.6-16-20.4-14.7
		C-14.8,174.7-21,181.8-19.9,190.4z"/>
	<path class="st10" d="M38.2,113.3c-1.8-5-6.6-7-12.5-4.9c-5.1,1.8-8.1,7.5-6.4,12.3c1.5,4.3,7.3,6.3,12.8,4.3
		C37.4,123.1,39.9,118.2,38.2,113.3z"/>
	<path class="st2" d="M-53,213.1c1.5-2.6,2.2-6.1,1.9-9.1c-0.8-6.8-7-11.4-16.1-11.3c-11.3,0.1-13.6,3.4-13,13.5
		c0.7,6.3,4,9.9,10.9,11.6C-62.2,219.7-55.8,218.2-53,213.1z"/>
	<path class="st5" d="M-38,253.7c-7,0.9-14.7,10.1-14,16.8c0.8,7.8,9,14.5,16.7,13.7s16.8-10.8,15.9-17.4
		C-20.2,260-30.5,252.8-38,253.7z"/>
	<path class="st6" d="M-9.5,235.1c1,7.7,8.5,13.3,16.5,12.4c6.4-0.8,13.4-12.5,12.4-21.2c-0.8-7.4-6.6-11.9-14-11
		C-3.6,216.4-10.7,225.7-9.5,235.1z"/>
	<path class="st2" d="M6.6,501.6c0.9,7.2,7.8,12.4,15.3,11.5c6-0.7,12.4-11.6,11.5-19.6c-0.7-6.8-6.1-11.1-12.9-10.2
		C12,484.3,5.5,493,6.6,501.6z"/>
	<path class="st2" d="M51.8,242.2c0.9,7.2,7.8,12.4,15.3,11.5c6-0.7,12.4-11.6,11.5-19.6c-0.7-6.8-6.1-11.1-12.9-10.2
		C57.3,224.9,50.7,233.5,51.8,242.2z"/>
	<path class="st3" d="M26.6,87.2c-5.3,0.6-8.8,3.9-8.5,7.7c0.3,3.3,5.2,6.7,9.3,6.3c3.4-0.3,6.4-4.5,5.8-8.3
		C32.6,88.7,29.7,87.4,26.6,87.2z"/>
	<path class="st3" d="M33.4,218.1c-5.3,0.6-8.8,3.9-8.5,7.7c0.3,3.3,5.2,6.7,9.3,6.3c3.4-0.3,6.4-4.5,5.8-8.3
		C39.4,219.7,36.5,218.3,33.4,218.1z"/>
	<path class="st9" d="M-63.6,171.2c-5.3,0.6-8.8,3.9-8.5,7.7c0.3,3.3,5.2,6.7,9.3,6.3c3.4-0.3,6.4-4.5,5.8-8.3
		C-57.6,172.8-60.5,171.4-63.6,171.2z"/>
	<path class="st3" d="M50.5,120.5c-5.3,0.6-8.8,3.9-8.5,7.7c0.3,3.3,5.2,6.7,9.3,6.3c3.4-0.3,6.4-4.5,5.8-8.3
		C56.5,122.1,53.6,120.8,50.5,120.5z"/>
	<path class="st3" d="M57.1,216.7c6.6-0.5,11-6.6,10-15c-1.1-5.6-5.2-9.5-12.2-9.5c-5.8,0-9.8,7.7-8.9,15.5
		C46.8,214.6,50.8,217.1,57.1,216.7z"/>
	<path class="st3" d="M7,142.4c4-0.3,6.7-4,6-9c-0.6-3.4-3.2-5.7-7.4-5.7c-3.5,0-5.9,4.7-5.4,9.4C0.8,141.1,3.2,142.7,7,142.4z"/>
	
		<ellipse transform="matrix(0.9911 -0.1328 0.1328 0.9911 -28.6764 -2.9703)" class="st3" cx="-36.6" cy="213.5" rx="6.4" ry="6.4"/>
	<ellipse transform="matrix(0.9911 -0.1328 0.1328 0.9911 -32.1361 7.1579)" class="st3" cx="37.6" cy="244.5" rx="5.2" ry="5.2"/>
	<ellipse transform="matrix(0.9911 -0.1328 0.1328 0.9911 -16.6283 10.6863)" class="st3" cx="71.8" cy="130" rx="5.2" ry="5.2"/>
	<ellipse transform="matrix(0.9911 -0.1328 0.1328 0.9911 -31.4006 -2.8154)" class="st5" cx="-36.8" cy="234" rx="6.4" ry="6.4"/>
	<ellipse transform="matrix(0.9911 -0.1328 0.1328 0.9911 -37.1022 1.7138)" class="st3" cx="-5.7" cy="279" rx="7.8" ry="7.8"/>
	<ellipse transform="matrix(0.9911 -0.1328 0.1328 0.9911 -25.4774 -3.9976)" class="st5" cx="-42.7" cy="189" rx="3.6" ry="3.6"/>
	
		<ellipse transform="matrix(0.9911 -0.1328 0.1328 0.9911 -29.6177 -0.2798)" class="st3" cx="-16.9" cy="221.9" rx="3.6" ry="3.6"/>
	
		<ellipse transform="matrix(0.9911 -0.1328 0.1328 0.9911 -30.3219 15.7476)" class="st3" cx="102.9" cy="235.2" rx="3.6" ry="3.6"/>
	
		<ellipse transform="matrix(0.9911 -0.1328 0.1328 0.9911 -15.2381 14.5288)" class="st3" cx="101.3" cy="121.5" rx="3.6" ry="3.6"/>
	<ellipse transform="matrix(0.9911 -0.1328 0.1328 0.9911 -22.7256 14.0542)" class="st3" cx="94" cy="177.4" rx="3.6" ry="3.6"/>
	<ellipse transform="matrix(0.9911 -0.1328 0.1328 0.9911 -50.3984 14.7398)" class="st3" cx="85.3" cy="385.2" rx="8.1" ry="8.1"/>
	<ellipse transform="matrix(0.9911 -0.1328 0.1328 0.9911 -18.7009 5.5947)" class="st3" cx="32.6" cy="143" rx="8.1" ry="8.1"/>
	
		<ellipse transform="matrix(0.9911 -0.1328 0.1328 0.9911 -35.7308 7.8657)" class="st2" cx="41.1" cy="271.8" rx="11.3" ry="11.3"/>
	
		<ellipse transform="matrix(0.9911 -0.1328 0.1328 0.9911 -33.5306 -5.5533)" class="st3" cx="-58.4" cy="248.6" rx="10.5" ry="10.5"/>
	
		<ellipse transform="matrix(0.9911 -0.1328 0.1328 0.9911 -61.1693 18.2336)" class="st9" cx="106.1" cy="467.7" rx="3.4" ry="3.4"/>
	<ellipse transform="matrix(0.9911 -0.1328 0.1328 0.9911 -14.2552 7.26)" class="st9" cx="47.3" cy="110.5" rx="3.4" ry="3.4"/>
	
		<ellipse transform="matrix(0.9911 -0.1328 0.1328 0.9911 -31.1048 -7.7568)" class="st5" cx="-73.7" cy="229.3" rx="3.4" ry="3.4"/>
	<ellipse transform="matrix(0.9911 -0.1328 0.1328 0.9911 -21.7751 6.9067)" class="st3" cx="40.9" cy="166.7" rx="3.4" ry="3.4"/>
	
		<ellipse transform="matrix(0.9911 -0.1328 0.1328 0.9911 -33.4977 -6.066535e-02)" class="st3" cx="-17.2" cy="251.1" rx="3.4" ry="3.4"/>
	<ellipse transform="matrix(0.9911 -0.1328 0.1328 0.9911 -51.4889 4.1943)" class="st3" cx="5.7" cy="388.1" rx="5" ry="5"/>
	<ellipse transform="matrix(0.9911 -0.1328 0.1328 0.9911 -27.6659 17.371)" class="st3" cx="116.4" cy="216.1" rx="5" ry="5"/>
	<ellipse transform="matrix(0.9911 -0.1328 0.1328 0.9911 -34.8749 12.1041)" class="st9" cx="73.3" cy="267.5" rx="5.9" ry="5.9"/>
	<ellipse transform="matrix(0.9911 -0.1328 0.1328 0.9911 -38.4994 4.7418)" class="st2" cx="16.3" cy="291" rx="6.1" ry="6.1"/>
	
		<ellipse transform="matrix(0.9911 -0.1328 0.1328 0.9911 -25.5725 15.3774)" class="st2" cx="102.5" cy="199.4" rx="6.1" ry="6.1"/>
	<path class="st3" d="M45.2,153.5C46,164.9,55.1,173,66,172c8.9-0.8,14.9-7.7,13.9-16c-1-8.7-11.8-16.5-21.9-15.7
		C49.4,140.9,44.6,145.9,45.2,153.5z"/>
	<path class="st3" d="M-24.3,160.6c0.7,5.2,5.7,9,11.1,8.3c4.3-0.5,9-8.4,8.4-14.2c-0.5-5-4.4-8-9.4-7.4
		C-20.4,148-25.1,154.3-24.3,160.6z"/>
	<path class="st3" d="M24.6,159.1c-5.3,0.6-8.8,3.9-8.5,7.7c0.3,3.3,5.2,6.7,9.3,6.3c3.4-0.3,6.4-4.5,5.8-8.3
		C30.6,160.6,27.7,159.3,24.6,159.1z"/>
	<path class="st7" d="M-31.7,168.9c3.3-5.6,1.1-15.8-5.1-19.4c-7.1-4.2-11.1,0.8-14.6,6.2c-4.9,7.7-4.3,14.3,1.8,18.5
		C-44,178-35.7,175.6-31.7,168.9z"/>
	<path class="st2" d="M-14.5,457.5c-3,0.3-6.3,1.7-8.5,3.6c-5.1,4.5-5.3,12.3-0.1,19.6c6.5,9.2,10.6,9.2,18.5,3
		c4.8-4.1,5.8-9,3.3-15.6C-3.9,461.4-8.8,457-14.5,457.5z"/>
	<path class="st2" d="M74.6,466.5c5.4-4.8,5.7-13.5,0.7-19.1c-4-4.5-16.6-3.5-22.7,1.8c-5.2,4.5-5.6,11.3-1,16.4
		C57.3,472,68.2,472.4,74.6,466.5z"/>
	<path class="st9" d="M98.5,492.9c4.8,2.3,9.6,1.2,11.3-2.1c1.5-3-1-8.4-4.7-10.2c-3-1.5-7.8,0.5-9.3,4.1
		C94.2,488.5,95.9,491.1,98.5,492.9z"/>
	
		<ellipse transform="matrix(0.7375 -0.6754 0.6754 0.7375 -305.965 100.6615)" class="st3" cx="-23.5" cy="443.9" rx="6.4" ry="6.4"/>
	
		<ellipse transform="matrix(0.7375 -0.6754 0.6754 0.7375 -293.7261 109.029)" class="st5" cx="-6.6" cy="432.3" rx="6.4" ry="6.4"/>
	<ellipse transform="matrix(0.4034 -0.915 0.915 0.4034 -373.5605 360.7494)" class="st5" cx="89.9" cy="466.8" rx="3.6" ry="3.6"/>
	<ellipse transform="matrix(0.9911 -0.1328 0.1328 0.9911 -50.6957 12.2786)" class="st9" cx="66.7" cy="386.2" rx="3.4" ry="3.4"/>
	<path class="st9" d="M59.1,411.5c4.8,2.3,9.6,1.2,11.3-2.1c1.5-3-1-8.4-4.7-10.2c-3-1.5-7.8,0.5-9.3,4.1
		C54.8,407,56.5,409.7,59.1,411.5z"/>
	<ellipse transform="matrix(0.4034 -0.915 0.915 0.4034 -322.409 276.1718)" class="st5" cx="50.6" cy="385.3" rx="3.6" ry="3.6"/>
	
		<ellipse transform="matrix(0.7375 -0.6754 0.6754 0.7375 -309.3249 145.6687)" class="st3" cx="32.7" cy="470.7" rx="8.1" ry="8.1"/>
	
		<ellipse transform="matrix(0.7375 -0.6754 0.6754 0.7375 -293.7258 127.9559)" class="st3" cx="17.7" cy="441.8" rx="10.5" ry="10.5"/>
	
		<ellipse transform="matrix(0.7375 -0.6754 0.6754 0.7375 -340.507 128.4034)" class="st9" cx="-5.1" cy="502.2" rx="3.4" ry="3.4"/>
	
		<ellipse transform="matrix(0.7375 -0.6754 0.6754 0.7375 -249.1028 154.7559)" class="st9" cx="74.5" cy="397.8" rx="3.4" ry="3.4"/>
	
		<ellipse transform="matrix(0.7375 -0.6754 0.6754 0.7375 -311.4223 129.2677)" class="st5" cx="10.6" cy="465.2" rx="3.4" ry="3.4"/>
	<ellipse transform="matrix(0.7375 -0.6754 0.6754 0.7375 -293.5532 143.5914)" class="st3" cx="37.9" cy="449.4" rx="5" ry="5"/>
	<path class="st7" d="M70.1,478.3c-5.8,3-9.2,12.9-5.8,19.2c3.9,7.3,9.9,5.1,15.7,2.4c8.2-4,11.1-10,8.1-16.7
		C85.3,477,76.9,474.7,70.1,478.3z"/>
	<path class="st7" d="M107.6,541.3c-5.8,3-9.2,12.9-5.8,19.2c3.9,7.3,9.9,5.1,15.7,2.4c8.2-4,11.1-10,8.1-16.7
		C122.8,540,114.4,537.7,107.6,541.3z"/>
	<path class="st4" d="M15.6,277.6c6.2-1,9.7-5.1,9.6-11.3c0-5.2-10-12.7-15.8-11c-3.8,1.1-7.6,3.2-8.5,9.1S9.1,278.7,15.6,277.6z"/>
	<path class="st3" d="M78.7,190.8c5.5-2.1,6.1-5.9,6.2-10c0.1-3.8-2.8-8.6-8.2-7.9c-12.3,1.7-11.2,10.3-9.4,13.5
		C69.2,189.6,73.2,192.9,78.7,190.8z"/>
	<ellipse transform="matrix(0.9911 -0.1328 0.1328 0.9911 -24.2652 5.7797)" class="st5" cx="31.2" cy="184.8" rx="7.4" ry="7.4"/>
	<ellipse transform="matrix(0.9911 -0.1328 0.1328 0.9911 -26.4451 12.0871)" class="st5" cx="77.4" cy="204.3" rx="3.4" ry="3.4"/>
	<ellipse transform="matrix(0.9911 -0.1328 0.1328 0.9911 -23.8125 8.7636)" class="st3" cx="53.8" cy="182.9" rx="3.4" ry="3.4"/>
	<ellipse transform="matrix(0.9911 -0.1328 0.1328 0.9911 -18.8358 -2.213)" class="st3" cx="-26" cy="140.1" rx="3.4" ry="3.4"/>
	
		<ellipse transform="matrix(0.9911 -0.1328 0.1328 0.9911 -17.7599 -9.699855e-02)" class="st5" cx="-9.6" cy="133.1" rx="3.4" ry="3.4"/>
	<ellipse transform="matrix(0.9911 -0.1328 0.1328 0.9911 -27.171 6.2138)" class="st3" cx="33" cy="206.8" rx="5" ry="5"/>
	<ellipse transform="matrix(0.9911 -0.1328 0.1328 0.9911 -45.9362 3.4383)" class="st2" cx="2.8" cy="346.1" rx="6.1" ry="6.1"/>
	<path class="st3" d="M72.3,429.4c0.1-5.4-2.9-9.2-6.6-9.3c-3.3-0.1-7.2,4.4-7.3,8.5c-0.1,3.4,3.7,6.9,7.6,6.8
		C70,435.2,71.7,432.5,72.3,429.4z"/>
	<path class="st7" d="M35.9,406.4c-0.3-6.5-7.8-13.7-15-13.3c-8.2,0.5-8.8,6.8-8.7,13.3c0.2,9.2,4.4,14.3,11.7,14.4
		C30.7,420.8,36.3,414.1,35.9,406.4z"/>
	<path class="st3" d="M96.7,412.3c0.1-6.3-4.2-10.5-10.8-10.6c-6.5-0.1-10.7,4-10.7,10.6c0,5.5,4.4,9.1,11.2,9.2
		C92.7,421.5,96.6,418,96.7,412.3z"/>
	
		<ellipse transform="matrix(0.9999 -1.402051e-02 1.402051e-02 0.9999 -5.8968 0.675)" class="st9" cx="45.2" cy="420.9" rx="7.7" ry="7.7"/>
	
		<ellipse transform="matrix(0.9999 -1.402051e-02 1.402051e-02 0.9999 -5.5504 1.4802)" class="st7" cx="102.8" cy="396.6" rx="7.1" ry="7.1"/>
	
		<ellipse transform="matrix(0.9999 -1.402051e-02 1.402051e-02 0.9999 -6.1793 1.1719)" class="st5" cx="80.5" cy="441.3" rx="3.4" ry="3.4"/>
	
		<ellipse transform="matrix(0.9999 -1.402051e-02 1.402051e-02 0.9999 -6.1224 0.6864)" class="st3" cx="45.9" cy="437" rx="3.4" ry="3.4"/>
	<path class="st2" d="M-102.1,82.7c1.3,10.3,11.3,17.3,22.5,15.8c8.8-1.2,13.9-8.4,12.7-17.9c-1.3-10-9.6-16-20.4-14.7
		C-96.9,67.1-103.2,74.1-102.1,82.7z"/>
	<path class="st2" d="M-15.5,67.6C-14.2,78-4.3,84.9,7,83.4c8.8-1.2,13.9-8.4,12.7-17.9c-1.3-10-9.6-16-20.4-14.7
		C-10.4,52-16.6,59-15.5,67.6z"/>
	<path class="st10" d="M-8.3,18.9c-1.8-5-6.6-7-12.5-4.9c-5.1,1.8-8.1,7.5-6.4,12.3c1.5,4.3,7.3,6.3,12.8,4.3
		C-9.2,28.7-6.6,23.9-8.3,18.9z"/>
	<path class="st3" d="M-61.9,2.2c-5.3,0.6-8.8,3.9-8.5,7.7c0.3,3.3,5.2,6.7,9.3,6.3c3.4-0.3,6.4-4.5,5.8-8.3
		C-55.9,3.7-58.8,2.4-61.9,2.2z"/>
	<path class="st9" d="M7.5,7.8C2.2,8.4-1.3,11.7-1,15.5c0.3,3.3,5.2,6.7,9.3,6.3c3.4-0.3,6.4-4.5,5.8-8.3C13.5,9.4,10.6,8,7.5,7.8z"
		/>
	<path class="st3" d="M5.4,29.2c-5.3,0.6-8.8,3.9-8.5,7.7c0.3,3.3,5.2,6.7,9.3,6.3c3.4-0.3,6.4-4.5,5.8-8.3
		C11.4,30.7,8.5,29.4,5.4,29.2z"/>
	<path class="st3" d="M-91.4,79.8c4-0.3,6.7-4,6-9c-0.6-3.4-3.2-5.7-7.4-5.7c-3.5,0-5.9,4.7-5.4,9.4C-97.6,78.6-95.2,80.1-91.4,79.8
		z"/>
	<ellipse transform="matrix(0.9911 -0.1328 0.1328 0.9911 -6.1242 -1.8195)" class="st3" cx="-16.7" cy="45" rx="5.2" ry="5.2"/>
	<ellipse transform="matrix(0.9911 -0.1328 0.1328 0.9911 -27.164 23.301)" class="st5" cx="161.1" cy="215.3" rx="3.6" ry="3.6"/>
	<ellipse transform="matrix(0.9911 -0.1328 0.1328 0.9911 -0.6193 -1.4808)" class="st9" cx="-11.4" cy="3.9" rx="3.4" ry="3.4"/>
	<path class="st11" d="M191.9,925.5c-5.2,10.7-1.3,22.6,9,27.4c8.4,3.9,17.3,0.9,20.8-7.1c3.7-8.3-1.9-20.9-11.4-25.4
		C202.2,916.5,195.4,918.4,191.9,925.5z"/>
	<path class="st3" d="M152.7,930.3c-2.2,5,0.2,11,5.3,13.4c4.1,1.9,12.5-2.6,15.1-8.1c2.2-4.7,0.4-9.5-4.3-11.6
		C163,921.3,155.4,924.3,152.7,930.3z"/>
	<path class="st3" d="M-20,903c-5-2.4-9.9-1.3-11.7,2.2c-1.5,3.1,1,8.7,4.8,10.6c3.2,1.5,8.1-0.5,9.6-4.2
		C-15.5,907.6-17.4,904.8-20,903z"/>
	<path class="st3" d="M23.4,915.9c-5-2.4-9.9-1.3-11.7,2.2c-1.5,3.1,1,8.7,4.8,10.6c3.2,1.5,8.1-0.5,9.6-4.2
		C27.8,920.5,26,917.7,23.4,915.9z"/>
	<path class="st12" d="M21.7,960.7c6-3.2,9.5-13.3,6-19.9c-4-7.5-10.3-5.3-16.3-2.5c-8.5,4.2-11.5,10.3-8.4,17.3
		C5.9,962.1,14.6,964.4,21.7,960.7z"/>
	<path class="st12" d="M36.2,895.5c-4.2-1.6-10.8,1-12.6,5.6c-2.1,5.2,1.8,7.4,5.8,9.2c5.8,2.5,10.1,1.3,12.3-3.2
		C43.7,902.8,41.2,897.5,36.2,895.5z"/>
	<path class="st3" d="M-52,921.6c-7.2-3.4-14.2-0.7-17.9,6.9c-3.6,7.4-1,14.4,6.5,17.9c6.3,2.9,12.8-0.3,16.4-8.1
		C-43.5,931-45.5,924.7-52,921.6z"/>
	<path class="st3" d="M-70.8,961.3c-2.8,7.7,3.5,10.3,7.3,13c9.4,4.3,16.8,2.5,19.5-4.3c3.2-8.2-2.8-11.6-8.3-14.5
		C-59.4,951.8-68.3,954.7-70.8,961.3z"/>
	<path class="st11" d="M72,966.9c6,2.5,11.3,0.7,14.6-4.8c2.8-4.6-2-16.6-8-18.2c-3.9-1-8.5-1.3-12.4,3.4
		C62.3,952,65.7,964.3,72,966.9z"/>
	
		<ellipse transform="matrix(0.4033 -0.9151 0.9151 0.4033 -706.4585 634.6649)" class="st5" cx="133.4" cy="859" rx="7.7" ry="7.7"/>
	<ellipse transform="matrix(0.4033 -0.9151 0.9151 0.4033 -697.5593 734.8008)" class="st3" cx="214.6" cy="902.3" rx="8" ry="8"/>
	<ellipse transform="matrix(0.4033 -0.9151 0.9151 0.4033 -804.2297 653.5027)" class="st5" cx="99" cy="943.4" rx="3.7" ry="3.7"/>
	<path class="st5" d="M195.2,911.5c4.4-5.3-0.1-13.7-6.4-16.5c-6.3-2.8-13.7,0.1-16.5,6.4c-2.8,6.3-0.2,14.4,6.4,16.5
		C185.3,919.9,190.8,916.8,195.2,911.5z"/>
	
		<ellipse transform="matrix(0.4033 -0.9151 0.9151 0.4033 -848.4553 555.7328)" class="st5" cx="1.9" cy="928.4" rx="3.5" ry="3.5"/>
	<ellipse transform="matrix(0.4033 -0.9151 0.9151 0.4033 -820.1079 583.0211)" class="st3" cx="37" cy="920.3" rx="3.5" ry="3.5"/>
	<ellipse transform="matrix(0.4033 -0.9151 0.9151 0.4033 -864.2632 554.4062)" class="st3" cx="-7" cy="939.9" rx="3.5" ry="3.5"/>
	
		<ellipse transform="matrix(0.4033 -0.9151 0.9151 0.4033 -655.8511 697.7328)" class="st3" cx="207.1" cy="851.7" rx="3.5" ry="3.5"/>
	
		<ellipse transform="matrix(0.4033 -0.9151 0.9151 0.4033 -787.8709 575.2716)" class="st3" cx="47.2" cy="891.7" rx="3.5" ry="3.5"/>
	
		<ellipse transform="matrix(0.4033 -0.9151 0.9151 0.4033 -833.407 598.6174)" class="st3" cx="42.3" cy="938.3" rx="3.5" ry="3.5"/>
	
		<ellipse transform="matrix(0.8034 -0.5954 0.5954 0.8034 -446.9743 408.0994)" class="st3" cx="394.6" cy="881" rx="3.5" ry="3.5"/>
	<ellipse transform="matrix(0.4033 -0.9151 0.9151 0.4033 -824.9228 616.878)" class="st5" cx="60.5" cy="941" rx="3.5" ry="3.5"/>
	
		<ellipse transform="matrix(0.4033 -0.9151 0.9151 0.4033 -671.9373 727.2016)" class="st5" cx="221.6" cy="878.8" rx="5.9" ry="5.9"/>
	
		<ellipse transform="matrix(0.8034 -0.5954 0.5954 0.8034 -497.8043 323.7781)" class="st5" cx="241.5" cy="915.8" rx="5.4" ry="5.4"/>
	<ellipse transform="matrix(0.8034 -0.5954 0.5954 0.8034 -499.7928 335.1098)" class="st3" cx="257.6" cy="924.5" rx="8" ry="8"/>
	<ellipse transform="matrix(0.8034 -0.5954 0.5954 0.8034 -439.5262 396.7426)" class="st3" cx="381.1" cy="864.1" rx="8" ry="8"/>
	
		<ellipse transform="matrix(0.8034 -0.5954 0.5954 0.8034 -489.3748 361.2523)" class="st3" cx="302.4" cy="921.8" rx="3.7" ry="3.7"/>
	
		<ellipse transform="matrix(0.8034 -0.5954 0.5954 0.8034 -500.6172 349.3262)" class="st13" cx="278.8" cy="932.9" rx="4.9" ry="4.9"/>
	
		<ellipse transform="matrix(0.8034 -0.5954 0.5954 0.8034 -480.7432 374.7573)" class="st14" cx="327.2" cy="915.5" rx="3.5" ry="3.5"/>
	
		<ellipse transform="matrix(7.863990e-02 -0.9969 0.9969 7.863990e-02 -618.9687 1126.5328)" class="st15" cx="300" cy="898.1" rx="6.1" ry="6.1"/>
	
		<ellipse transform="matrix(0.8034 -0.5954 0.5954 0.8034 -516.3025 341.0489)" class="st15" cx="258.4" cy="952.5" rx="6.3" ry="6.3"/>
	
		<ellipse transform="matrix(0.8034 -0.5954 0.5954 0.8034 -457.3022 430.6328)" class="st15" cx="423.6" cy="907.9" rx="6.3" ry="6.3"/>
	
		<ellipse transform="matrix(0.4033 -0.9151 0.9151 0.4033 -771.7487 597.0861)" class="st15" cx="71.9" cy="890.3" rx="6.3" ry="6.3"/>
	<path class="st15" d="M383.8,935.9c2.4,10.2,14.3,17.6,24,14.9c6.3-1.8,11.6-11.5,9.8-18.4c-2.4-9.5-14.5-15.5-25.2-12.6
		C384.6,921.9,381.8,927.4,383.8,935.9z"/>
	<path class="st15" d="M-7.4,889.6c-3.1,6.8,0.2,15.2,7.3,18.4c5.7,2.6,17.2-3.6,20.8-11.1c3-6.4,0.6-13.1-5.9-16
		C6.7,877.2-3.7,881.3-7.4,889.6z"/>
	<path class="st13" d="M78.5,931.6c3,4.7,7.8,6.3,11.1,4.2c2.9-1.8,3.7-8,1.4-11.6c-1.9-3-7.2-3.8-10.4-1.4
		C77.1,925.3,77.2,928.6,78.5,931.6z"/>
	
		<ellipse transform="matrix(0.8212 -0.5706 0.5706 0.8212 -500.5689 210.149)" class="st5" cx="85.1" cy="903.9" rx="3.7" ry="3.7"/>
	<ellipse transform="matrix(0.9814 -0.192 0.192 0.9814 -170.0522 12.976)" class="st13" cx="-18.1" cy="883.8" rx="3.5" ry="3.5"/>
	<path class="st12" d="M61.3,903.3c-6.8-0.4-15.1,6.4-15.5,13.9c-0.5,8.5,6,9.9,12.6,10.6c9.5,0.9,15.2-2.8,16.2-10.4
		C75.5,910.3,69.3,903.8,61.3,903.3z"/>
	
		<ellipse transform="matrix(0.5092 -0.8607 0.8607 0.5092 -709.6812 507.9508)" class="st5" cx="90.5" cy="876.2" rx="3.5" ry="3.5"/>
	
		<ellipse transform="matrix(0.9755 -0.2201 0.2201 0.9755 -95.4424 63.5911)" class="st3" cx="237.7" cy="460.1" rx="3.7" ry="3.7"/>
	
		<ellipse transform="matrix(0.9755 -0.2201 0.2201 0.9755 -127.915 51.6467)" class="st13" cx="167.8" cy="599.9" rx="3.5" ry="3.5"/>
	<ellipse transform="matrix(0.9755 -0.2201 0.2201 0.9755 -134.2601 44.9717)" class="st5" cx="134.7" cy="625" rx="3.5" ry="3.5"/>
	
		<ellipse transform="matrix(0.9755 -0.2201 0.2201 0.9755 -119.3966 54.0218)" class="st5" cx="182.7" cy="562.8" rx="3.5" ry="3.5"/>
	
		<ellipse transform="matrix(0.9755 -0.2201 0.2201 0.9755 -129.4603 45.5396)" class="st3" cx="139.6" cy="603.7" rx="3.5" ry="3.5"/>
	<ellipse transform="matrix(0.9755 -0.2201 0.2201 0.9755 -157.3421 36.368)" class="st3" cx="84.5" cy="724.3" rx="3.5" ry="3.5"/>
	
		<ellipse transform="matrix(0.9755 -0.2201 0.2201 0.9755 -124.8411 32.5143)" class="st3" cx="83.5" cy="576.5" rx="3.5" ry="3.5"/>
	<path class="st3" d="M139.5,556.1c-11.7,1.9-19.2,12-17.2,23.2c1.7,9.1,9.3,14.6,17.8,12.9c8.9-1.8,15.9-13.7,14.2-24
		C152.8,559.3,147.3,554.8,139.5,556.1z"/>
	<path class="st3" d="M76.5,632.1c-11.7,1.9-19.2,12-17.2,23.2c1.7,9.1,9.3,14.6,17.8,12.9c8.9-1.8,15.9-13.7,14.2-24
		C89.8,635.3,84.3,630.8,76.5,632.1z"/>
	<ellipse transform="matrix(0.9755 -0.2201 0.2201 0.9755 -125.7434 36.7771)" class="st3" cx="102.2" cy="582.7" rx="8" ry="8"/>
	
		<ellipse transform="matrix(0.9755 -0.2201 0.2201 0.9755 -100.2656 47.9995)" class="st13" cx="165.3" cy="474" rx="3.5" ry="3.5"/>
	
		<ellipse transform="matrix(0.9755 -0.2201 0.2201 0.9755 -115.7178 68.3315)" class="st3" cx="248.8" cy="553.5" rx="5.2" ry="5.2"/>
	<path class="st15" d="M202.4,435.8c-10.5,2.3-16.8,13.2-14.2,24.7c2,9,10,13.6,19.6,11.4c10.2-2.3,15.6-11.4,13.3-22.4
		C219,439.7,211.2,433.9,202.4,435.8z"/>
	<path class="st16" d="M287.3,488.7c5.1-2.3,6.6-7.5,3.9-13.3c-2.3-5.1-8.5-7.7-13.3-5.5c-4.3,2-5.8,8.1-3.3,13.6
		C277.2,488.8,282.4,490.9,287.3,488.7z"/>
	<path class="st15" d="M175.9,403.8c2.8,1.3,6.5,1.7,9.5,1.1c6.9-1.4,11.1-8.3,10.2-17.6c-1.1-11.6-4.8-13.7-15.1-12.2
		c-6.4,1.3-9.8,5.1-11,12.3C168.3,394.8,170.5,401.3,175.9,403.8z"/>
	<path class="st15" d="M155.6,514.6c-7.3,1.6-12,9.2-10.4,16.8c1.3,6.1,13.1,11.7,21.3,10.1c7-1.4,10.8-7.3,9.3-14.3
		C173.9,518.7,164.4,512.7,155.6,514.6z"/>
	<path class="st3" d="M178.7,493.4c-1.1-5.5-4.9-8.7-8.7-8.1c-3.4,0.6-6.4,6-5.6,10.2c0.6,3.5,5.2,6.2,9.1,5.2
		C177.7,499.8,178.8,496.6,178.7,493.4z"/>
	<path class="st3" d="M137.2,511.4c-1.1-5.5-4.9-8.7-8.7-8.1c-3.4,0.6-6.4,6-5.6,10.2c0.6,3.5,5.2,6.2,9.1,5.2
		C136.2,517.8,137.3,514.6,137.2,511.4z"/>
	<path class="st13" d="M218.2,389c-1.1-5.5-4.9-8.7-8.7-8.1c-3.4,0.6-6.4,6-5.6,10.2c0.6,3.5,5.2,6.2,9.1,5.2
		C217.1,395.3,218.3,392.2,218.2,389z"/>
	<path class="st3" d="M281,502.1c-1.1-5.5-4.9-8.7-8.7-8.1c-3.4,0.6-6.4,6-5.6,10.2c0.6,3.5,5.2,6.2,9.1,5.2
		C279.9,508.4,281.1,505.3,281,502.1z"/>
	<path class="st3" d="M182.4,517.8c1.1,6.8,7.8,10.8,16.4,8.9c5.7-1.6,9.3-6.3,8.7-13.5c-0.5-6-8.9-9.4-16.8-7.8
		C183.6,506.9,181.3,511.3,182.4,517.8z"/>
	<path class="st3" d="M254.5,459.2c0.7,4.1,4.7,6.5,9.9,5.4c3.4-1,5.6-3.8,5.3-8.1c-0.3-3.6-5.4-5.7-10.2-4.7
		C255.2,452.6,253.8,455.3,254.5,459.2z"/>
	<ellipse transform="matrix(0.9755 -0.2201 0.2201 0.9755 -88.2566 49.2773)" class="st3" cx="177" cy="420.7" rx="6.6" ry="6.6"/>
	
		<ellipse transform="matrix(0.9755 -0.2201 0.2201 0.9755 -106.3635 45.681)" class="st3" cx="151.8" cy="500.2" rx="5.4" ry="5.4"/>
	<ellipse transform="matrix(0.9755 -0.2201 0.2201 0.9755 -108.8513 73.01)" class="st3" cx="273.2" cy="525" rx="5.4" ry="5.4"/>
	
		<ellipse transform="matrix(0.9755 -0.2201 0.2201 0.9755 -113.6139 40.905)" class="st3" cx="126.8" cy="530.3" rx="5.4" ry="5.4"/>
	
		<ellipse transform="matrix(0.9755 -0.2201 0.2201 0.9755 -85.7759 54.5093)" class="st5" cx="201.7" cy="412.2" rx="3.7" ry="3.7"/>
	
		<ellipse transform="matrix(0.9755 -0.2201 0.2201 0.9755 -92.8636 73.2233)" class="st5" cx="282.2" cy="453.4" rx="3.7" ry="3.7"/>
	
		<ellipse transform="matrix(0.9755 -0.2201 0.2201 0.9755 -93.0743 48.2842)" class="st3" cx="170.1" cy="441.8" rx="3.7" ry="3.7"/>
	
		<ellipse transform="matrix(0.9755 -0.2201 0.2201 0.9755 -120.6209 50.7497)" class="st3" cx="167.4" cy="566.7" rx="3.7" ry="3.7"/>
	
		<ellipse transform="matrix(0.9755 -0.2201 0.2201 0.9755 -114.8135 35.8144)" class="st3" cx="103.3" cy="533.1" rx="3.7" ry="3.7"/>
	
		<ellipse transform="matrix(0.9755 -0.2201 0.2201 0.9755 -115.0997 76.2675)" class="st3" cx="284.7" cy="554.7" rx="3.7" ry="3.7"/>
	
		<ellipse transform="matrix(0.9755 -0.2201 0.2201 0.9755 -115.9947 63.3552)" class="st3" cx="226.3" cy="552.2" rx="3.7" ry="3.7"/>
	
		<ellipse transform="matrix(0.9755 -0.2201 0.2201 0.9755 -100.6125 68.2858)" class="st3" cx="256.1" cy="485.7" rx="8.4" ry="8.4"/>
	
		<ellipse transform="matrix(0.9755 -0.2201 0.2201 0.9755 -102.4447 76.2812)" class="st13" cx="291.1" cy="497.9" rx="3.5" ry="3.5"/>
	
		<ellipse transform="matrix(0.9755 -0.2201 0.2201 0.9755 -103.5632 63.3308)" class="st3" cx="232.4" cy="496.4" rx="3.5" ry="3.5"/>
	
		<ellipse transform="matrix(0.9755 -0.2201 0.2201 0.9755 -122.789 55.6581)" class="st3" cx="188.4" cy="578.9" rx="5.2" ry="5.2"/>
	
		<ellipse transform="matrix(0.9755 -0.2201 0.2201 0.9755 -118.9166 58.7873)" class="st15" cx="204.4" cy="563" rx="6.3" ry="6.3"/>
	<path class="st3" d="M246.5,499.6c-11.7,1.9-19.2,12-17.2,23.2c1.7,9.1,9.3,14.6,17.8,12.9c8.9-1.8,15.9-13.7,14.2-24
		C259.8,502.9,254.3,498.4,246.5,499.6z"/>
	<path class="st3" d="M232.8,428.6c-5.3,1.2-8.7,6.7-7.6,12.2c0.9,4.4,9.5,8.5,15.5,7.3c5.1-1,7.9-5.3,6.8-10.4
		C246.1,431.5,239.2,427.2,232.8,428.6z"/>
	<path class="st3" d="M238.9,478.9c-1.1-5.5-4.9-8.7-8.7-8.1c-3.4,0.6-6.4,6-5.6,10.2c0.6,3.5,5.2,6.2,9.1,5.2
		C237.8,485.2,238.9,482.1,238.9,478.9z"/>
	<path class="st12" d="M223.5,421.7c6.1,2.9,16.4-0.3,19.6-7c3.7-7.7-1.8-11.4-7.7-14.5c-8.4-4.4-15.1-3.1-18.9,3.5
		C213,409.8,216.3,418.2,223.5,421.7z"/>
	<path class="st3" d="M211.1,537.6c2.7,5.5,6.7,5.8,10.9,5.5c4-0.2,8.7-3.7,7.4-9.1c-2.8-12.6-11.7-10.6-14.8-8.5
		S208.4,532.1,211.1,537.6z"/>
	
		<ellipse transform="matrix(0.9755 -0.2201 0.2201 0.9755 -102.2106 58.828)" class="st5" cx="212.9" cy="488.1" rx="7.7" ry="7.7"/>
	
		<ellipse transform="matrix(0.9755 -0.2201 0.2201 0.9755 -116.3632 43.8037)" class="st5" cx="138.4" cy="544.1" rx="7.7" ry="7.7"/>
	<ellipse transform="matrix(0.9755 -0.2201 0.2201 0.9755 -113.4872 56.5352)" class="st5" cx="197" cy="537.6" rx="3.5" ry="3.5"/>
	
		<ellipse transform="matrix(0.9755 -0.2201 0.2201 0.9755 -107.2076 60.2773)" class="st3" cx="216.9" cy="511.2" rx="3.5" ry="3.5"/>
	
		<ellipse transform="matrix(0.9755 -0.2201 0.2201 0.9755 -87.3084 66.2715)" class="st3" cx="253.7" cy="424.9" rx="3.5" ry="3.5"/>
	
		<ellipse transform="matrix(0.9755 -0.2201 0.2201 0.9755 -90.6656 68.5933)" class="st5" cx="262.5" cy="441.2" rx="3.5" ry="3.5"/>
	<ellipse transform="matrix(0.9755 -0.2201 0.2201 0.9755 -103.6199 53.9634)" class="st3" cx="190.4" cy="492" rx="5.2" ry="5.2"/>
	<path class="st14" d="M325.9,902c2.5,3.4,7.4,4.1,10.9,1.5c2.8-2,3-9.3,0.3-13.1c-2.3-3.2-6.2-3.9-9.4-1.6
		C323.8,891.8,322.9,898,325.9,902z"/>
	
		<ellipse transform="matrix(0.8034 -0.5954 0.5954 0.8034 -476.4037 395.7805)" class="st5" cx="361.2" cy="919.4" rx="5.4" ry="5.4"/>
	
		<ellipse transform="matrix(0.8034 -0.5954 0.5954 0.8034 -449.5821 382.3183)" class="st5" cx="354.2" cy="872.1" rx="4.9" ry="4.9"/>
	
		<ellipse transform="matrix(7.863990e-02 -0.9969 0.9969 7.863990e-02 -628.5844 1086.787)" class="st3" cx="273.7" cy="883.5" rx="6" ry="6"/>
	
		<ellipse transform="matrix(0.8034 -0.5954 0.5954 0.8034 -457.3879 363.0415)" class="st3" cx="321.1" cy="874.3" rx="7.3" ry="7.3"/>
	
		<ellipse transform="matrix(0.8034 -0.5954 0.5954 0.8034 -498.6588 379.0098)" class="st3" cx="324.7" cy="944.7" rx="3.4" ry="3.4"/>
	
		<ellipse transform="matrix(7.863990e-02 -0.9969 0.9969 7.863990e-02 -645.5087 1042.0071)" class="st5" cx="241" cy="870.2" rx="3.4" ry="3.4"/>
	
		<ellipse transform="matrix(0.8034 -0.5954 0.5954 0.8034 -461.3893 406.6468)" class="st13" cx="385.2" cy="902.1" rx="4.5" ry="4.5"/>
	
		<ellipse transform="matrix(7.863990e-02 -0.9969 0.9969 7.863990e-02 -595.9089 1092.8234)" class="st5" cx="293.3" cy="868.8" rx="3.2" ry="3.2"/>
	
		<ellipse transform="matrix(0.8034 -0.5954 0.5954 0.8034 -461.4178 391.3775)" class="st15" cx="362.1" cy="894.5" rx="5.7" ry="5.7"/>
	<path class="st3" d="M176.5,655.7c-4.4,3.4-5.7,8.2-3.4,11.4c2.1,2.8,8.2,3.1,11.6,0.5c2.8-2.1,3.3-7.4,0.7-10.5
		C182.6,653.8,179.3,654.2,176.5,655.7z"/>
	<path class="st15" d="M128.7,661c6.7,8.5,19.3,9.3,28.4,1.9c7.1-5.8,7.8-15,1.6-22.7c-6.5-8.1-17.1-9-25.9-2.1
		C124.8,644.4,123.1,654,128.7,661z"/>
	<path class="st16" d="M108.9,614c-4.3-3.5-9.6-2.6-13.7,2.4c-3.6,4.3-3.1,11,1,14.3c3.7,3,9.8,1.6,13.6-3.1
		C113.4,623.1,113,617.5,108.9,614z"/>
	<path class="st13" d="M116.9,595.6c-4.4,3.4-5.7,8.2-3.4,11.4c2.1,2.8,8.2,3.1,11.6,0.5c2.8-2.1,3.3-7.4,0.7-10.5
		C123,593.8,119.8,594.1,116.9,595.6z"/>
	
		<ellipse transform="matrix(0.7785 -0.6277 0.6277 0.7785 -377.1299 214.6077)" class="st3" cx="115.5" cy="641.6" rx="5.4" ry="5.4"/>
	
		<ellipse transform="matrix(0.9755 -0.2201 0.2201 0.9755 -123.48 80.7608)" class="st13" cx="300.7" cy="594.5" rx="3.5" ry="3.5"/>
	<path class="st17" d="M26.2,720.7c-3.3,7.4,0.3,16.4,7.9,19.9c6.1,2.8,18.6-3.9,22.4-12c3.3-7,0.6-14.1-6.4-17.3
		C41.5,707.4,30.2,711.9,26.2,720.7z"/>
	<path class="st3" d="M73.3,728.9c-5-2.4-9.9-1.3-11.7,2.2c-1.5,3.1,1,8.7,4.8,10.6c3.2,1.5,8.1-0.5,9.6-4.2
		C77.8,733.5,75.9,730.8,73.3,728.9z"/>
	
		<ellipse transform="matrix(0.4033 -0.9151 0.9151 0.4033 -653.0396 507.6556)" class="st3" cx="62.7" cy="754.5" rx="5.4" ry="5.4"/>
	<ellipse transform="matrix(0.4033 -0.9151 0.9151 0.4033 -693.509 459.8667)" class="st3" cx="5.8" cy="761.7" rx="8" ry="8"/>
	
		<ellipse transform="matrix(0.4033 -0.9151 0.9151 0.4033 -671.9858 611.037)" class="st3" cx="132.5" cy="820.8" rx="3.7" ry="3.7"/>
	
		<ellipse transform="matrix(0.4033 -0.9151 0.9151 0.4033 -683.7444 512.5547)" class="st15" cx="51.1" cy="780.5" rx="11.7" ry="11.7"/>
	
		<ellipse transform="matrix(0.4033 -0.9151 0.9151 0.4033 -691.3859 548.2023)" class="st14" cx="74.6" cy="804.2" rx="3.5" ry="3.5"/>
	
		<ellipse transform="matrix(0.4033 -0.9151 0.9151 0.4033 -662.3185 445.8395)" class="st3" cx="10.7" cy="730.8" rx="3.5" ry="3.5"/>
	
		<ellipse transform="matrix(0.4033 -0.9151 0.9151 0.4033 -689.8873 588.9415)" class="st13" cx="106.6" cy="823.4" rx="6.1" ry="6.1"/>
	
		<ellipse transform="matrix(0.4033 -0.9151 0.9151 0.4033 -706.3386 485.074)" class="st15" cx="18.8" cy="784.1" rx="6.3" ry="6.3"/>
	<path class="st14" d="M152,844.4c-1.9,4.2,0.2,9.3,4.5,11.3c3.5,1.6,10.6-2.2,12.7-6.8c1.9-4,0.4-8-3.6-9.8
		C160.7,836.8,154.3,839.3,152,844.4z"/>
	
		<ellipse transform="matrix(0.4033 -0.9151 0.9151 0.4033 -651.8616 551.954)" class="st5" cx="97.3" cy="775.8" rx="8.4" ry="8.4"/>
	
		<ellipse transform="matrix(0.4033 -0.9151 0.9151 0.4033 -634.2645 570.8136)" class="st3" cx="120.5" cy="771.7" rx="3.5" ry="3.5"/>
	
		<ellipse transform="matrix(0.4033 -0.9151 0.9151 0.4033 -676.9573 572.0641)" class="st3" cx="100.2" cy="805.1" rx="5.2" ry="5.2"/>
	<ellipse transform="matrix(0.4033 -0.9151 0.9151 0.4033 -751.3987 493.8163)" class="st3" cx="2.9" cy="823" rx="3.5" ry="3.5"/>
	<path class="st15" d="M-14,822.4c-2.8-1.4-6.5-1.9-9.5-1.4c-7,1.2-11.3,8-10.7,17.3c0.8,11.6,4.4,13.8,14.7,12.6
		c6.4-1.1,10-4.8,11.4-12C-6.7,831.6-8.7,825-14,822.4z"/>
	<path class="st15" d="M59.9,878.5c7.3-1.4,12.3-8.9,10.9-16.5c-1.1-6.1-12.8-12.1-21-10.7c-7,1.2-11.1,7-9.8,14
		C41.7,874,51.1,880.2,59.9,878.5z"/>
	<ellipse transform="matrix(0.9814 -0.192 0.192 0.9814 -154.9511 12.1791)" class="st3" cx="-14.6" cy="805.5" rx="6.6" ry="6.6"/>
	<ellipse transform="matrix(0.9814 -0.192 0.192 0.9814 -154.3509 16.2355)" class="st5" cx="6.6" cy="804.4" rx="6.6" ry="6.6"/>
	<ellipse transform="matrix(0.9814 -0.192 0.192 0.9814 -164.679 19.9568)" class="st3" cx="20.6" cy="859.5" rx="8.4" ry="8.4"/>
	<ellipse transform="matrix(0.9814 -0.192 0.192 0.9814 -158.1643 19.7798)" class="st3" cx="23" cy="825.8" rx="10.9" ry="10.9"/>
	<ellipse transform="matrix(0.9814 -0.192 0.192 0.9814 -161.7691 16.4518)" class="st5" cx="4" cy="842.8" rx="3.5" ry="3.5"/>
	<ellipse transform="matrix(0.9814 -0.192 0.192 0.9814 -161.2936 22.7489)" class="st3" cx="36.7" cy="843.5" rx="5.2" ry="5.2"/>
	<path class="st3" d="M77.9,844.5c3-4.7,2.4-9.7-0.8-11.8c-2.9-1.9-8.8,0-11.1,3.6c-1.9,2.9-0.4,8.1,3,10.1
		C72.8,848.3,75.8,846.9,77.9,844.5z"/>
	<ellipse transform="matrix(0.5092 -0.8607 0.8607 0.5092 -678.926 453.92)" class="st13" cx="58.5" cy="822.2" rx="8" ry="8"/>
	
		<ellipse transform="matrix(0.5092 -0.8607 0.8607 0.5092 -695.4937 454.1936)" class="st3" cx="50.5" cy="836.9" rx="3.5" ry="3.5"/>
	<ellipse transform="matrix(0.4033 -0.9151 0.9151 0.4033 -599.7063 534.9464)" class="st3" cx="110.3" cy="727.3" rx="8" ry="8"/>
	<ellipse transform="matrix(0.4033 -0.9151 0.9151 0.4033 -664.576 430.8515)" class="st3" cx="-1.9" cy="725" rx="3.7" ry="3.7"/>
	<path class="st3" d="M112.8,838.6c-7.2-3.4-14.2-0.7-17.9,6.9c-3.6,7.4-1,14.4,6.5,17.9c6.3,2.9,12.8-0.3,16.4-8.1
		C121.2,848,119.3,841.7,112.8,838.6z"/>
	<path class="st11" d="M89.2,760c6,2.5,11.3,0.7,14.6-4.8c2.8-4.6-2-16.6-8-18.2c-3.9-1-8.5-1.3-12.4,3.4S82.9,757.4,89.2,760z"/>
	<ellipse transform="matrix(0.4033 -0.9151 0.9151 0.4033 -680.1886 438.9143)" class="st3" cx="-3.6" cy="741" rx="5.2" ry="5.2"/>
	
		<ellipse transform="matrix(0.4033 -0.9151 0.9151 0.4033 -584.8671 553.9495)" class="st3" cx="132.3" cy="725.4" rx="3.5" ry="3.5"/>
	<ellipse transform="matrix(0.4033 -0.9151 0.9151 0.4033 -674.3725 477.8912)" class="st3" cx="29.2" cy="756" rx="8.4" ry="8.4"/>
	
		<ellipse transform="matrix(0.4033 -0.9151 0.9151 0.4033 -613.1386 562.9137)" class="st3" cx="125" cy="751.6" rx="5.2" ry="5.2"/>
	<ellipse transform="matrix(0.9814 -0.192 0.192 0.9814 -144.8961 9.5658)" class="st13" cx="-23.1" cy="752.3" rx="3.5" ry="3.5"/>
	
		<ellipse transform="matrix(0.4033 -0.9151 0.9151 0.4033 -672.7595 541.3748)" class="st15" cx="78.7" cy="786.5" rx="6.3" ry="6.3"/>
	
		<ellipse transform="matrix(0.5092 -0.8607 0.8607 0.5092 -663.9468 323.1615)" class="st12" cx="-48.6" cy="743.7" rx="7.4" ry="7.4"/>
	<path class="st14" d="M99.7,922.2c7.2,3.3,13.9,0.7,17.1-6.7c3.6-8.3,1.9-14.3-5.2-17.6c-7.3-3.3-15.3-1-18,5.3
		C90.6,910.4,93.6,919.4,99.7,922.2z"/>
	<path class="st3" d="M122.6,885.8c1.9-4.2-0.3-7.4-4.3-11c-3.4-3.1-9.2,0.1-11,4.3s0.1,9.2,4.3,11
		C115.8,892,120.7,890.1,122.6,885.8z"/>
	
		<ellipse transform="matrix(0.4033 -0.9151 0.9151 0.4033 -703.3622 665.901)" class="st3" cx="158.9" cy="872.3" rx="10.9" ry="10.9"/>
	
		<ellipse transform="matrix(0.4033 -0.9151 0.9151 0.4033 -723.9797 648.2571)" class="st13" cx="135.1" cy="879.2" rx="3.5" ry="3.5"/>
	
		<ellipse transform="matrix(0.4033 -0.9151 0.9151 0.4033 -773.0062 664.3412)" class="st3" cx="122.9" cy="924.9" rx="3.5" ry="3.5"/>
	
		<ellipse transform="matrix(0.4033 -0.9151 0.9151 0.4033 -762.2434 679.9529)" class="st3" cx="140.2" cy="924.4" rx="3.5" ry="3.5"/>
	<path class="st12" d="M160.2,910.4c3.2-5.9,0.5-16.4-6.1-19.9c-7.5-4-11.5,1.3-14.9,7c-4.8,8.2-3.8,15,2.6,19
		C147.8,920.4,156.3,917.5,160.2,910.4z"/>
</g>
</svg>
