<?xml version="1.0" encoding="utf-8"?>
<!-- Generator: Adobe Illustrator 21.0.2, SVG Export Plug-In . SVG Version: 6.00 Build 0)  -->
<svg version="1.1" id="Layer_1" xmlns="http://www.w3.org/2000/svg" xmlns:xlink="http://www.w3.org/1999/xlink" x="0px" y="0px"
	 viewBox="0 0 1533 483.4" style="enable-background:new 0 0 1533 483.4;" xml:space="preserve">
<style type="text/css">
	.st0{opacity:0.33;}
	.st1{opacity:0.76;fill:none;stroke:#EFEFEF;stroke-miterlimit:10;enable-background:new    ;}
	.st2{opacity:0.44;fill:#EFEFEF;enable-background:new    ;}
	.st3{opacity:0.76;fill:#EFEFEF;enable-background:new    ;}
	.st4{fill:#EFEFEF;}
	.st5{opacity:0.35;fill:none;stroke:#EFEFEF;stroke-miterlimit:10;enable-background:new    ;}
	.st6{fill:none;stroke:#EFEFEF;stroke-miterlimit:10;}
	.st7{opacity:0.35;fill:#EFEFEF;enable-background:new    ;}
	.st8{opacity:0.75;fill:none;stroke:#EFEFEF;stroke-miterlimit:10;enable-background:new    ;}
	.st9{opacity:0.75;fill:#EFEFEF;enable-background:new    ;}
	.st10{opacity:0.44;fill:none;stroke:#EFEFEF;stroke-miterlimit:10;enable-background:new    ;}
	.st11{fill:#FFFFFF;}
</style>
<g class="st0">
	<path class="st1" d="M150.6,164.3c-6.9,1-9.8,4.9-9.2,11.3c0.8,9,13.9,14,20.3,10.9c3.3-1.6,5.6-4.5,5.6-8.2
		C167.3,170.4,158.5,163.1,150.6,164.3z"/>
	<path class="st2" d="M63.7,332.9c0.9,7.4,8.1,12.4,16.1,11.3c6.3-0.9,10-6,9.1-12.8C88,324.2,82,320,74.3,320.9
		C67.4,321.7,62.9,326.7,63.7,332.9z M139.8-26.9c0.9,7.4,8.1,12.4,16.1,11.3c6.3-0.9,10-6,9.1-12.8c-0.9-7.2-6.9-11.4-14.6-10.5
		C143.5-38,139-33,139.8-26.9z M207,6.7c0.9,7.4,8.1,12.4,16.1,11.3c6.3-0.9,10-6,9.1-12.8c-0.9-7.2-6.9-11.4-14.6-10.5
		C210.7-4.5,206.3,0.6,207,6.7z"/>
	<path class="st3" d="M182.1-21.4c-1.3-3.6-4.7-5-8.9-3.5c-3.7,1.2-5.8,5.3-4.6,8.8c1.1,3.1,5.2,4.5,9.2,3.1
		C181.5-14.4,183.3-17.9,182.1-21.4z"/>
	<path class="st2" d="M183.4,23c1-1.9,1.6-4.4,1.3-6.5c-0.6-4.9-5-8.1-11.5-8.1c-8.1,0.1-9.7,2.5-9.3,9.6c0.5,4.5,2.9,7.1,7.8,8.3
		C176.7,27.7,181.3,26.6,183.4,23z"/>
	<path class="st4" d="M161.6,136.5c8.1-0.8,11.7-4.9,10.9-12.6c-0.7-6.4-4.4-9.9-9.9-9.2c-6.1,0.8-11.5,7.1-10.9,12.7
		C152.4,132.8,156.9,136.9,161.6,136.5z"/>
	<path class="st3" d="M134.5,292.9c-7.2,1.1-13.3,7.9-12.3,13.8c1.2,6.9,9.5,12.6,16.8,11.6c7-1,13.2-8.2,12.3-14.6
		C150.4,296.3,143,291.6,134.5,292.9z"/>
	<path class="st4" d="M121.6,151.9c0.8,8.2,7.4,13.8,15.2,12.9c6.4-0.7,10.5-5.7,9.7-11.7c-0.8-6.2-8.7-11.6-15.9-10.9
		C124.4,142.9,121,146.5,121.6,151.9z"/>
	<path class="st5" d="M61.7,201.1c0.7,7.2,6.5,12.1,13.4,11.3c5.6-0.6,9.2-5,8.5-10.3c-0.7-5.5-7.7-10.2-14-9.6
		C64.2,193.1,61.2,196.2,61.7,201.1z"/>
	<path class="st6" d="M183.6,62.9c-5,0.6-10.5,7.2-10,12c0.6,5.6,6.4,10.4,12,9.8c5.5-0.6,12-7.7,11.4-12.5
		C196.3,67.4,189,62.2,183.6,62.9z"/>
	<path class="st7" d="M134.9,366.4c-5.9,0.7-8.4,4.3-7.4,10.8c1.1,7.4,4.7,9.6,13.6,8.4c8.5-1.2,10.6-3,9.8-8.7
		C149.9,370.3,142.4,365.4,134.9,366.4L134.9,366.4z"/>
	<path class="st8" d="M214.5,38.7c0.7,5.5,6.1,9.6,11.8,8.9c4.6-0.5,9.6-9,8.9-15.2c-0.6-5.3-4.7-8.6-10-7.9
		C218.7,25.4,213.7,32.1,214.5,38.7z"/>
	<path class="st2" d="M141.6,71.7c0.7,5.1,5.6,8.9,10.9,8.2c4.3-0.5,8.9-8.3,8.2-14c-0.5-4.9-4.3-7.9-9.2-7.3
		C145.5,59.4,140.8,65.6,141.6,71.7z M258.4,43.8c0.7,5.1,5.6,8.9,10.9,8.2c4.3-0.5,8.9-8.3,8.2-14c-0.5-4.9-4.4-7.9-9.3-7.3
		C262.3,31.4,257.7,37.6,258.4,43.8L258.4,43.8z"/>
	<path class="st4" d="M109.6,224.8c0.5,3.7,4.1,6.4,7.9,6c3.1-0.4,6.4-6,6-10.2c-0.4-3.6-3.2-5.8-6.7-5.3
		C112.4,215.8,109,220.3,109.6,224.8z"/>
	<path class="st3" d="M46.6,354.5c-4.6,0.7-7.7,5.3-7.1,10.7c0.6,5.6,5.9,9.4,11.8,8.4c4.9-0.8,8-5,7.3-9.9
		C57.8,357.6,52.6,353.6,46.6,354.5z"/>
	<path class="st9" d="M92.9,439.3c-5.2,0.4-10.5,6.6-9.1,11.5c1.3,4.4,4.6,7.4,9.8,6.9c6-0.7,10.9-5.7,10.4-10.6
		C103.6,442.3,98.5,438.8,92.9,439.3z"/>
	<path class="st1" d="M70.5,284.6c-0.5-5.1-5.7-8.8-11.6-8.1c-5.1,0.6-9.5,5.4-9,9.6c0.5,4.1,6.7,7.5,12.7,6.9
		C68.1,292.4,70.9,289.4,70.5,284.6z"/>
	<path class="st4" d="M130.9,200.7c-3.8,0.4-6.3,2.8-6.1,5.5c0.2,2.4,3.7,4.8,6.7,4.5c2.4-0.2,4.6-3.2,4.2-6
		C135.3,201.8,133.2,200.9,130.9,200.7z M117.3,267.6c-3.8,0.4-6.3,2.8-6.1,5.5c0.2,2.4,3.7,4.8,6.7,4.5c2.4-0.2,4.6-3.2,4.2-6
		C121.7,268.7,119.6,267.7,117.3,267.6z M173.8-40.1c-3.8,0.4-6.3,2.8-6.1,5.5c0.2,2.4,3.7,4.8,6.7,4.5c2.4-0.2,4.6-3.2,4.2-6
		C178.1-39,176-40,173.8-40.1z M245.2,26.6c-3.8,0.4-6.3,2.8-6.1,5.5c0.2,2.4,3.7,4.8,6.7,4.5c2.4-0.2,4.6-3.2,4.2-6
		C249.6,27.7,247.5,26.7,245.2,26.6L245.2,26.6z"/>
	<path class="st10" d="M175.8-7c-3.8,0.4-6.3,2.8-6.1,5.5c0.2,2.4,3.7,4.8,6.7,4.5c2.4-0.2,4.6-3.2,4.2-6C180.1-5.9,178-6.8,175.8-7
		z"/>
	<path class="st2" d="M146.7,96.6c-5,0.5-8.2,3.7-7.9,7.2c0.3,3.1,4.9,6.2,8.7,5.9c3.2-0.3,6-4.2,5.4-7.8
		C152.3,98.1,149.6,96.8,146.7,96.6z M127.4,124.6c-5,0.5-8.2,3.7-7.9,7.2c0.3,3.1,4.9,6.2,8.7,5.9c3.2-0.3,6-4.2,5.4-7.8
		C133,126.1,130.3,124.8,127.4,124.6L127.4,124.6z"/>
	<path class="st4" d="M394.2,36.1c-3.8,0.4-6.3,2.8-6.1,5.5c0.2,2.4,3.7,4.8,6.7,4.5c2.4-0.2,4.6-3.2,4.2-6
		C398.5,37.2,396.4,36.2,394.2,36.1L394.2,36.1z M92.3,312.3c-3.8,0.4-6.3,2.8-6.1,5.5c0.2,2.4,3.7,4.8,6.7,4.5
		c2.4-0.2,4.6-3.2,4.2-6C96.6,313.4,94.5,312.4,92.3,312.3z M58.9,211.7c-3.8,0.4-6.3,2.8-6.1,5.5c0.2,2.4,3.7,4.8,6.7,4.5
		c2.4-0.2,4.6-3.2,4.2-6C63.2,212.8,61.1,211.9,58.9,211.7z M190.9-16.2c-3.8,0.4-6.3,2.8-6.1,5.5c0.2,2.4,3.7,4.8,6.7,4.5
		c2.4-0.2,4.6-3.2,4.2-6C195.2-15.1,193.1-16.1,190.9-16.2z"/>
	<path class="st2" d="M145.9,131.6c-3.8,0.4-6.3,2.8-6.1,5.5c0.2,2.4,3.7,4.8,6.7,4.5c2.4-0.2,4.6-3.2,4.2-6
		C150.2,132.7,148.2,131.7,145.9,131.6z"/>
	<path class="st7" d="M104,295.4c-4.6,0.8-9.1,6.7-8.2,11.8c1,5.8,5.6,5.7,10.2,5.1c6.5-0.9,9.8-4.3,9.2-9.6
		C114.7,297.9,109.5,294.5,104,295.4z M104.3,230.7c2.4-4,0.8-11.3-3.6-13.9c-5.1-3-8,0.6-10.5,4.4c-3.5,5.5-3.1,10.2,1.3,13.2
		C95.4,237.3,101.4,235.5,104.3,230.7z"/>
	<path class="st9" d="M86.3,295.6c5.4-0.7,8.4-4.6,7.7-10.1c-0.9-6.2-4.1-9.1-9.4-8.5c-5.5,0.6-9.4,4.9-8.7,9.6
		C76.7,291.8,81.6,296.1,86.3,295.6z"/>
	<path class="st4" d="M35,282.1c-5.5,0.6-8.6,4.7-8.1,10.5c0.6,5.6,4.6,8.8,10.3,8.2c4.8-0.5,7.5-4.8,6.8-10.7
		C43.3,284.6,39.9,281.6,35,282.1z M99.3,263.9c-4.5,0.5-7.1,3.9-6.6,8.6c0.5,4.6,3.8,7.3,8.4,6.7c3.9-0.4,6.1-3.9,5.6-8.8
		C106.1,266,103.3,263.5,99.3,263.9L99.3,263.9z M46.7,234.2c-5.5,0.6-8.6,4.7-8.1,10.5c0.6,5.6,4.6,8.8,10.3,8.2
		c4.8-0.5,7.5-4.8,6.8-10.7C55.1,236.8,51.7,233.7,46.7,234.2L46.7,234.2z"/>
	<path class="st6" d="M80.5,355.9c-0.5-4.8-4.4-7.6-9.9-6.9c-5.9,0.7-8.8,4.7-7.8,11.1c0.8,5.2,4.4,6.5,8.7,6.2
		C77.2,365.5,81,361,80.5,355.9L80.5,355.9z"/>
	<path class="st4" d="M50,264.4c1.1,5.5,5.8,4.8,9,5c7.1-0.8,10.8-4.6,9.9-9.6c-1-6-5.8-5.8-10.1-5.6C53.2,254.7,49,259.6,50,264.4z
		 M262.2,25.6c4.7-0.3,7.9-4.7,7.1-10.7c-0.8-4-3.7-6.8-8.7-6.8c-4.1,0-7,5.5-6.4,11.1C254.8,24.1,257.7,25.9,262.2,25.6L262.2,25.6
		z M159.8-0.6c2.9-0.2,4.8-2.9,4.3-6.5c-0.5-2.4-2.3-4.1-5.3-4.1c-2.5,0-4.2,3.3-3.9,6.7C155.3-1.5,157-0.4,159.8-0.6z"/>
	<path class="st5" d="M136.1,357.1c4.4-0.7,6.9-3.6,6.9-8.1c0-3.7-7.2-9.1-11.3-7.9c-2.7,0.8-5.5,2.3-6.1,6.5
		C124.9,351.8,131.4,357.8,136.1,357.1z"/>
	<path class="st10" d="M448,43.6c2.4-0.4,3.7-1.8,3.7-4c0-1.8-3.7-4.5-5.9-3.8c-1.4,0.4-3,2.2-3.1,3.9C442.6,41.3,445.5,44,448,43.6
		z"/>
	<path class="st2" d="M310.3,84.5c4.5-0.3,6.9-3.6,6.9-8.1c0-3.7-7.2-9.1-11.3-7.9C303.2,69.3,295.4,85.5,310.3,84.5z"/>
	<path class="st4" d="M61.9,318.1c-0.4-4.9-3.1-8-8.3-8.2c-4.4,0.3-8.2,4.8-7.7,9.7c0.5,5,4.4,5.4,8.2,5.1
		C58.1,324.4,62.3,323.6,61.9,318.1z M135.5,233.6c4-1.5,4.4-4.2,4.5-7.2c0.1-2.7-2-6.2-5.8-5.7c-8.8,1.2-8,7.4-6.7,9.7
		C128.7,232.7,131.6,235.1,135.5,233.6z"/>
	<ellipse transform="matrix(0.9911 -0.1328 0.1328 0.9911 -1.3645 26.1224)" class="st4" cx="195.1" cy="23.3" rx="4.6" ry="4.6"/>
	<ellipse transform="matrix(0.9911 -0.1328 0.1328 0.9911 -3.8424 33.3707)" class="st4" cx="248.2" cy="45.5" rx="3.7" ry="3.7"/>
	<ellipse transform="matrix(0.9911 -0.1328 0.1328 0.9911 -10.1302 26.2936)" class="st4" cx="192" cy="89.1" rx="3.7" ry="3.7"/>
	<ellipse transform="matrix(0.9911 -0.1328 0.1328 0.9911 3.0896 27.306)" class="st4" cx="206.2" cy="-9.5" rx="3.7" ry="3.7"/>
	
		<ellipse transform="matrix(0.9911 -0.1328 0.1328 0.9911 -50.8983 18.2348)" class="st4" cx="111.2" cy="390.7" rx="4.6" ry="4.6"/>
	<ellipse transform="matrix(0.9911 -0.1328 0.1328 0.9911 -3.3185 26.2261)" class="st6" cx="194.9" cy="38" rx="4.6" ry="4.6"/>
	<ellipse transform="matrix(0.9911 -0.1328 0.1328 0.9911 -40.7845 11.8777)" class="st2" cx="68.6" cy="311.7" rx="5.5" ry="5.5"/>
	
		<ellipse transform="matrix(0.9911 -0.1328 0.1328 0.9911 -37.1854 17.6403)" class="st10" cx="113.6" cy="287.6" rx="5.5" ry="5.5"/>
	<ellipse transform="matrix(0.9911 -0.1328 0.1328 0.9911 -45.437 9.3202)" class="st6" cx="47.1" cy="345.3" rx="5.3" ry="5.3"/>
	<ellipse transform="matrix(0.9911 -0.1328 0.1328 0.9911 -30.0056 10.4919)" class="st6" cx="63.6" cy="230.2" rx="5.3" ry="5.3"/>
	
		<ellipse transform="matrix(0.9911 -0.1328 0.1328 0.9911 -33.4688 17.1656)" class="st7" cx="111.9" cy="259.5" rx="5.1" ry="5.1"/>
	<ellipse transform="matrix(0.9911 -0.1328 0.1328 0.9911 -42.4118 6.8775)" class="st7" cx="30.4" cy="321.4" rx="5.1" ry="5.1"/>
	
		<ellipse transform="matrix(0.9911 -0.1328 0.1328 0.9911 -54.4202 19.0299)" class="st4" cx="115.4" cy="417.5" rx="5.1" ry="5.1"/>
	<ellipse transform="matrix(0.9911 -0.1328 0.1328 0.9911 -58.7561 10.0195)" class="st4" cx="45.7" cy="445.5" rx="5.1" ry="5.1"/>
	<ellipse transform="matrix(0.9911 -0.1328 0.1328 0.9911 -34.6342 7.2924)" class="st4" cx="37.4" cy="263.3" rx="5.6" ry="5.6"/>
	<ellipse transform="matrix(0.9911 -0.1328 0.1328 0.9911 -7.3962 29.486)" class="st4" cx="217.3" cy="70.2" rx="5.6" ry="5.6"/>
	
		<ellipse transform="matrix(0.9911 -0.1328 0.1328 0.9911 -18.6596 23.0075)" class="st4" cx="163.1" cy="151.4" rx="5.6" ry="5.6"/>
	
		<ellipse transform="matrix(0.9911 -0.1328 0.1328 0.9911 -32.2514 18.6184)" class="st4" cx="123.4" cy="251.1" rx="3.6" ry="3.6"/>
	<ellipse transform="matrix(0.9911 -0.1328 0.1328 0.9911 -40.7023 6.9101)" class="st4" cx="31.5" cy="308.6" rx="3.6" ry="3.6"/>
	<ellipse transform="matrix(0.9911 -0.1328 0.1328 0.9911 -4.8177 41.5459)" class="st6" cx="309" cy="56.9" rx="5.6" ry="5.6"/>
	<ellipse transform="matrix(0.9911 -0.1328 0.1328 0.9911 -36.4668 8.4151)" class="st4" cx="44.8" cy="277.6" rx="3.1" ry="3.1"/>
	<ellipse transform="matrix(0.9911 -0.1328 0.1328 0.9911 -46.0494 15.7371)" class="st4" cx="94.9" cy="353.1" rx="5.1" ry="5.1"/>
	<ellipse transform="matrix(0.9911 -0.1328 0.1328 0.9911 -42.399 23.2703)" class="st4" cx="153.2" cy="329.5" rx="2.6" ry="2.6"/>
	<ellipse transform="matrix(0.9911 -0.1328 0.1328 0.9911 -24.317 20.7837)" class="st6" cx="143.6" cy="192.7" rx="2.6" ry="2.6"/>
	<ellipse transform="matrix(0.9911 -0.1328 0.1328 0.9911 -40.5817 13.7183)" class="st6" cx="82.5" cy="311.1" rx="2.6" ry="2.6"/>
	<ellipse transform="matrix(0.9911 -0.1328 0.1328 0.9911 -46.017 6.0231)" class="st6" cx="22.1" cy="348" rx="2.6" ry="2.6"/>
	<ellipse transform="matrix(0.9911 -0.1328 0.1328 0.9911 -39.1927 9.744)" class="st6" cx="53.4" cy="298.7" rx="2.6" ry="2.6"/>
	<ellipse transform="matrix(0.9911 -0.1328 0.1328 0.9911 0.9205 25.3831)" class="st6" cx="190.7" cy="5.8" rx="2.6" ry="2.6"/>
	
		<ellipse transform="matrix(0.9911 -0.1328 0.1328 0.9911 -14.9528 19.9857)" class="st6" cx="142.3" cy="122.1" rx="2.6" ry="2.6"/>
	<ellipse transform="matrix(0.9911 -0.1328 0.1328 0.9911 -7.9103 39.1778)" class="st6" cx="289.7" cy="78.9" rx="2.6" ry="2.6"/>
	<ellipse transform="matrix(0.9911 -0.1328 0.1328 0.9911 -2.0365 28.048)" class="st4" cx="209.2" cy="29.3" rx="2.6" ry="2.6"/>
	<ellipse transform="matrix(0.9911 -0.1328 0.1328 0.9911 -27.0084 21.23)" class="st4" cx="145.6" cy="213.1" rx="2.6" ry="2.6"/>
	<ellipse transform="matrix(0.9911 -0.1328 0.1328 0.9911 -9.3606 34.8326)" class="st6" cx="256.4" cy="87.6" rx="2.6" ry="2.6"/>
	<ellipse transform="matrix(0.9911 -0.1328 0.1328 0.9911 0.1912 60.0466)" class="st4" cx="450.2" cy="28.6" rx="2.6" ry="2.6"/>
	<ellipse transform="matrix(0.9911 -0.1328 0.1328 0.9911 1.2223 52.3079)" class="st4" cx="392.7" cy="17" rx="2.6" ry="2.6"/>
	
		<ellipse transform="matrix(0.9911 -0.1328 0.1328 0.9911 -11.7911 27.5915)" class="st4" cx="200.9" cy="102.2" rx="2.6" ry="2.6"/>
	<ellipse transform="matrix(0.9911 -0.1328 0.1328 0.9911 4.0866 30.054)" class="st4" cx="227.3" cy="-15.6" rx="2.6" ry="2.6"/>
	<ellipse transform="matrix(0.9911 -0.1328 0.1328 0.9911 -13.2193 21.7776)" class="st4" cx="156.6" cy="110" rx="2.6" ry="2.6"/>
	<ellipse transform="matrix(0.9911 -0.1328 0.1328 0.9911 -5.1742 51.8008)" class="st4" cx="385.7" cy="64.7" rx="2.6" ry="2.6"/>
	<ellipse transform="matrix(0.9911 -0.1328 0.1328 0.9911 -3.042 61.5695)" class="st4" cx="460" cy="53.6" rx="2.6" ry="2.6"/>
	<ellipse transform="matrix(0.9911 -0.1328 0.1328 0.9911 -7.0165 53.7778)" class="st4" cx="399.6" cy="79.5" rx="2.6" ry="2.6"/>
	<ellipse transform="matrix(0.9911 -0.1328 0.1328 0.9911 -0.8064 37.6902)" class="st4" cx="282.1" cy="24.9" rx="2.6" ry="2.6"/>
	<ellipse transform="matrix(0.9911 -0.1328 0.1328 0.9911 -42.461 20.5399)" class="st4" cx="132.7" cy="328.6" rx="7.2" ry="7.2"/>
	<ellipse transform="matrix(0.9911 -0.1328 0.1328 0.9911 -53.2304 15.8692)" class="st4" cx="92.3" cy="407" rx="6.1" ry="6.1"/>
	<ellipse transform="matrix(0.9911 -0.1328 0.1328 0.9911 -4.6431 21.1655)" class="st4" cx="156.3" cy="45.4" rx="5.8" ry="5.8"/>
	<ellipse transform="matrix(0.9911 -0.1328 0.1328 0.9911 -6.4089 33.8887)" class="st2" cx="250.8" cy="65" rx="8.1" ry="8.1"/>
	<ellipse transform="matrix(0.9911 -0.1328 0.1328 0.9911 -10.8413 22.2326)" class="st2" cx="161.2" cy="92.4" rx="8.1" ry="8.1"/>
	<path class="st4" d="M86.7,265.9c-0.4-3.2-2.9-4.3-6.5-5c-3.1-0.6-5.4,3.3-5,6.5s3.3,5.4,6.5,5C84.9,271.9,87.1,269,86.7,265.9z"/>
	<path class="st6" d="M88.6,244.2c0.7-4.7-5-8-9.7-7.4c-4.7,0.6-8,5-7.4,9.7c0.6,4.7,5.1,8.6,9.7,7.4
		C85.8,252.8,87.9,248.9,88.6,244.2z"/>
	<ellipse transform="matrix(0.9911 -0.1328 0.1328 0.9911 -4.836 24.2731)" class="st4" cx="179.5" cy="48.4" rx="7.5" ry="7.5"/>
	<ellipse transform="matrix(0.9911 -0.1328 0.1328 0.9911 -31.5937 15.88)" class="st4" cx="103.2" cy="244.8" rx="7.5" ry="7.5"/>
	<ellipse transform="matrix(0.9911 -0.1328 0.1328 0.9911 -9.8106 28.0864)" class="st4" cx="205.6" cy="87.6" rx="7.5" ry="7.5"/>
	<ellipse transform="matrix(0.9911 -0.1328 0.1328 0.9911 -14.3528 13.583)" class="st4" cx="94.6" cy="114.4" rx="7.5" ry="7.5"/>
	
		<ellipse transform="matrix(0.9911 -0.1328 0.1328 0.9911 -14.7369 16.4231)" class="st4" cx="115.7" cy="118.7" rx="7.5" ry="7.5"/>
	<ellipse transform="matrix(0.9911 -0.1328 0.1328 0.9911 -49.1951 14.573)" class="st4" cx="84.6" cy="376.1" rx="8" ry="8"/>
	<ellipse transform="matrix(0.9911 -0.1328 0.1328 0.9911 -58.1403 19.2513)" class="st4" cx="115.2" cy="445.5" rx="4" ry="4"/>
	<ellipse transform="matrix(0.9911 -0.1328 0.1328 0.9911 -39.0554 12.2026)" class="st4" cx="71.9" cy="298.9" rx="4" ry="4"/>
	<ellipse transform="matrix(0.9911 -0.1328 0.1328 0.9911 -56.0466 16.4439)" class="st4" cx="95.2" cy="428.4" rx="4" ry="4"/>
	<ellipse transform="matrix(0.9911 -0.1328 0.1328 0.9911 -41.3606 18.439)" class="st6" cx="117.5" cy="319.3" rx="2.4" ry="2.4"/>
	<ellipse transform="matrix(0.9911 -0.1328 0.1328 0.9911 -28.3376 12.7016)" class="st6" cx="81" cy="218.8" rx="2.4" ry="2.4"/>
	<ellipse transform="matrix(0.9911 -0.1328 0.1328 0.9911 -26.998 13.7861)" class="st6" cx="89.8" cy="209.3" rx="2.4" ry="2.4"/>
	
		<ellipse transform="matrix(0.9911 -0.1328 0.1328 0.9911 -33.5112 18.9292)" class="st6" cx="125.1" cy="260.7" rx="2.4" ry="2.4"/>
	<ellipse transform="matrix(0.9911 -0.1328 0.1328 0.9911 -26.4705 9.2957)" class="st4" cx="56.4" cy="203.1" rx="2.4" ry="2.4"/>
	<ellipse transform="matrix(0.9911 -0.1328 0.1328 0.9911 -29.6762 12.6308)" class="st4" cx="79.8" cy="228.8" rx="2.4" ry="2.4"/>
	
		<ellipse transform="matrix(0.9911 -0.1328 0.1328 0.9911 -8.386026e-03 20.4562)" class="st10" cx="153.3" cy="10.3" rx="2.4" ry="2.4"/>
	<ellipse transform="matrix(0.9911 -0.1328 0.1328 0.9911 4.7929 24.8447)" class="st10" cx="188.6" cy="-23.5" rx="2.4" ry="2.4"/>
	<ellipse transform="matrix(0.9911 -0.1328 0.1328 0.9911 -33.383 14.4521)" class="st10" cx="91.6" cy="257.5" rx="2.4" ry="2.4"/>
	<ellipse transform="matrix(0.9911 -0.1328 0.1328 0.9911 -45.3024 11.1386)" class="st4" cx="60.8" cy="345.2" rx="2.4" ry="2.4"/>
	
		<ellipse transform="matrix(0.9911 -0.1328 0.1328 0.9911 -37.4573 15.9643)" class="st4" cx="100.9" cy="288.8" rx="2.4" ry="2.4"/>
	<ellipse transform="matrix(0.9911 -0.1328 0.1328 0.9911 -44.2558 8.0322)" class="st4" cx="38.1" cy="335.8" rx="2.4" ry="2.4"/>
	<ellipse transform="matrix(0.9911 -0.1328 0.1328 0.9911 -30.8485 6.8532)" class="st4" cx="36" cy="234.7" rx="2.4" ry="2.4"/>
	
		<ellipse transform="matrix(0.9911 -0.1328 0.1328 0.9911 -46.5946 23.7635)" class="st4" cx="154.8" cy="361.2" rx="2.4" ry="2.4"/>
	<ellipse transform="matrix(0.9911 -0.1328 0.1328 0.9911 -3.0999 22.7033)" class="st6" cx="168.6" cy="34.6" rx="2.4" ry="2.4"/>
	
		<ellipse transform="matrix(0.9911 -0.1328 0.1328 0.9911 -37.6155 23.7916)" class="st4" cx="159.5" cy="293.9" rx="2.4" ry="2.4"/>
	<ellipse transform="matrix(0.9911 -0.1328 0.1328 0.9911 -9.7288 37.5116)" class="st9" cx="276.3" cy="91.7" rx="2.4" ry="2.4"/>
	<ellipse transform="matrix(0.9911 -0.1328 0.1328 0.9911 -2.6033 20.7494)" class="st4" cx="154.2" cy="29.9" rx="2.4" ry="2.4"/>
	
		<ellipse transform="matrix(0.9911 -0.1328 0.1328 0.9911 -18.4056 21.4165)" class="st4" cx="151.3" cy="148.7" rx="2.4" ry="2.4"/>
	
		<ellipse transform="matrix(0.9911 -0.1328 0.1328 0.9911 -26.9395 16.2633)" class="st4" cx="108.4" cy="210.1" rx="2.4" ry="2.4"/>
	
		<ellipse transform="matrix(0.9911 -0.1328 0.1328 0.9911 -47.4535 17.8849)" class="st4" cx="110.3" cy="364.7" rx="2.4" ry="2.4"/>
	
		<ellipse transform="matrix(0.9911 -0.1328 0.1328 0.9911 -26.1719 17.7727)" class="st6" cx="120.1" cy="205.1" rx="2.4" ry="2.4"/>
	<ellipse transform="matrix(0.9911 -0.1328 0.1328 0.9911 -36.8321 19.1374)" class="st4" cx="125" cy="285.7" rx="2.4" ry="2.4"/>
	<ellipse transform="matrix(0.9911 -0.1328 0.1328 0.9911 -39.4245 14.2681)" class="st4" cx="87.2" cy="302.7" rx="2.4" ry="2.4"/>
	<ellipse transform="matrix(0.9911 -0.1328 0.1328 0.9911 -40.2763 8.4957)" class="st4" cx="43.5" cy="306.2" rx="2.4" ry="2.4"/>
	<path class="st2" d="M1.3,457.2c0.9,7.4,8.1,12.4,16.1,11.3c6.3-0.9,10-6,9.1-12.8c-0.9-7.2-6.9-11.4-14.6-10.5
		C5,446,0.5,451,1.3,457.2z"/>
	<path class="st1" d="M8.1,408.9c-0.5-5.1-5.7-8.8-11.6-8.1c-5.1,0.6-9.5,5.4-9,9.6c0.5,4.1,6.7,7.5,12.7,6.9
		C5.7,416.7,8.5,413.7,8.1,408.9z"/>
	<path class="st4" d="M5.5,361.2c-3.8,0.4-6.3,2.8-6.1,5.5c0.2,2.4,3.7,4.8,6.7,4.5c2.4-0.2,4.6-3.2,4.2-6
		C9.9,362.3,7.8,361.4,5.5,361.2z M-8.1,428.1c-3.8,0.4-6.3,2.8-6.1,5.5c0.2,2.4,3.7,4.8,6.7,4.5c2.4-0.2,4.6-3.2,4.2-6
		C-3.7,429.2-5.8,428.2-8.1,428.1z"/>
	<path class="st4" d="M9.4,340c-3.8,0.4-6.3,2.8-6.1,5.5c0.2,2.4,3.7,4.8,6.7,4.5c2.4-0.2,4.6-3.2,4.2-6
		C13.7,341.1,11.6,340.2,9.4,340z"/>
	<path class="st7" d="M39.5,419.9c-4.6,0.8-9.1,6.7-8.2,11.8c1,5.8,5.6,5.7,10.2,5.1c6.5-0.9,9.8-4.3,9.2-9.6
		C50.2,422.4,45,419,39.5,419.9z M33.1,369.8c2.4-4,0.8-11.3-3.6-13.9c-5.1-3-8,0.6-10.5,4.4c-3.5,5.5-3.1,10.2,1.3,13.2
		C24.2,376.4,30.2,374.6,33.1,369.8z"/>
	<path class="st9" d="M23.9,419.9c5.4-0.7,8.4-4.6,7.7-10.1c-0.9-6.2-4.1-9.1-9.4-8.5c-5.5,0.6-9.4,4.9-8.7,9.6
		C14.3,416.1,19.2,420.4,23.9,419.9z"/>
	<path class="st4" d="M-27.4,406.4c-5.5,0.6-8.6,4.7-8.1,10.5c0.6,5.6,4.6,8.8,10.3,8.2c4.8-0.5,7.5-4.8,6.8-10.7
		C-19.1,408.9-22.5,405.9-27.4,406.4z M36.9,388.2c-4.5,0.5-7.1,3.9-6.6,8.6c0.5,4.6,3.8,7.3,8.4,6.7c3.9-0.4,6.1-3.9,5.6-8.8
		C43.7,390.3,40.9,387.8,36.9,388.2L36.9,388.2z M-15.7,358.5c-5.5,0.6-8.6,4.7-8.1,10.5c0.6,5.6,4.6,8.8,10.3,8.2
		c4.8-0.5,7.5-4.8,6.8-10.7C-7.3,361.1-10.7,358-15.7,358.5L-15.7,358.5z"/>
	<path class="st4" d="M-12.4,388.7c1.1,5.5,5.8,4.8,9,5c7.1-0.8,10.8-4.6,9.9-9.6c-1-6-5.8-5.8-10.1-5.6
		C-9.2,379-13.4,383.9-12.4,388.7z"/>
	<ellipse transform="matrix(0.9911 -0.1328 0.1328 0.9911 -57.8513 4.6903)" class="st2" cx="6.2" cy="436" rx="5.5" ry="5.5"/>
	
		<ellipse transform="matrix(0.9911 -0.1328 0.1328 0.9911 -54.2522 10.4529)" class="st10" cx="51.2" cy="411.9" rx="5.5" ry="5.5"/>
	<ellipse transform="matrix(0.9911 -0.1328 0.1328 0.9911 -50.5356 9.9782)" class="st7" cx="49.5" cy="383.8" rx="5.1" ry="5.1"/>
	<ellipse transform="matrix(0.9911 -0.1328 0.1328 0.9911 -57.6485 6.5309)" class="st6" cx="20.1" cy="435.4" rx="2.6" ry="2.6"/>
	<path class="st4" d="M24.3,390.2c-0.4-3.2-2.9-4.3-6.5-5c-3.1-0.6-5.4,3.3-5,6.5s3.3,5.4,6.5,5C22.5,396.2,24.7,393.3,24.3,390.2z"
		/>
	<ellipse transform="matrix(0.9911 -0.1328 0.1328 0.9911 -56.1222 5.0152)" class="st4" cx="9.5" cy="423.2" rx="4" ry="4"/>
	<ellipse transform="matrix(0.9911 -0.1328 0.1328 0.9911 -50.4498 7.2646)" class="st10" cx="29.2" cy="381.8" rx="2.4" ry="2.4"/>
	<ellipse transform="matrix(0.9911 -0.1328 0.1328 0.9911 -47.3049 5.0583)" class="st10" cx="14.3" cy="357.1" rx="2.4" ry="2.4"/>
	<ellipse transform="matrix(0.9911 -0.1328 0.1328 0.9911 -54.5241 8.7769)" class="st4" cx="38.5" cy="413.1" rx="2.4" ry="2.4"/>
	<ellipse transform="matrix(0.9911 -0.1328 0.1328 0.9911 -49.9252 8.4103)" class="st4" cx="38.1" cy="378.5" rx="2.4" ry="2.4"/>
	<ellipse transform="matrix(0.9911 -0.1328 0.1328 0.9911 -56.4913 7.0807)" class="st4" cx="24.8" cy="427" rx="2.4" ry="2.4"/>
	<ellipse transform="matrix(0.9911 -0.1328 0.1328 0.9911 -36.7759 6.1814)" class="st9" cx="28" cy="278.8" rx="2.4" ry="2.4"/>
	<ellipse transform="matrix(0.9911 -0.1328 0.1328 0.9911 -43.5601 9.6618)" class="st4" cx="50.6" cy="331.4" rx="2.4" ry="2.4"/>
	<ellipse transform="matrix(0.9911 -0.1328 0.1328 0.9911 -62.1741 10.698)" class="st4" cx="49.1" cy="471.4" rx="2.4" ry="2.4"/>
	<path class="st3" d="M12.1,317.3C7.5,318,4.4,322.6,5,328c0.6,5.6,5.9,9.4,11.8,8.4c4.9-0.8,8-5,7.3-9.9
		C23.3,320.4,18.1,316.4,12.1,317.3z"/>
	<ellipse transform="matrix(0.9911 -0.1328 0.1328 0.9911 -46.9186 2.8677)" class="st6" cx="-2" cy="353.2" rx="5.3" ry="5.3"/>
	<ellipse transform="matrix(0.9911 -0.1328 0.1328 0.9911 -50.1455 5.1079)" class="st4" cx="13.2" cy="378.5" rx="2.4" ry="2.4"/>
	<path class="st1" d="M30.7,237.3c-0.5-5.1-5.7-8.8-11.6-8.1c-5.1,0.6-9.5,5.4-9,9.6c0.5,4.1,6.7,7.5,12.7,6.9
		C28.3,245.1,31.1,242.1,30.7,237.3z"/>
	<path class="st4" d="M-4.8,234.8c-5.5,0.6-8.6,4.7-8.1,10.5c0.6,5.6,4.6,8.8,10.3,8.2c4.8-0.5,7.5-4.8,6.8-10.7
		C3.5,237.3,0.1,234.3-4.8,234.8z M6.9,186.9c-5.5,0.6-8.6,4.7-8.1,10.5c0.6,5.6,4.6,8.8,10.3,8.2c4.8-0.5,7.5-4.8,6.8-10.7
		C15.3,189.5,11.9,186.4,6.9,186.9L6.9,186.9z"/>
	<path class="st4" d="M10.2,217.1c1.1,5.5,5.8,4.8,9,5c7.1-0.8,10.8-4.6,9.9-9.6c-1-6-5.8-5.8-10.1-5.6
		C13.4,207.4,9.2,212.3,10.2,217.1z M81.6-2c4.7-0.3,7.9-4.7,7.1-10.7c-0.8-4-3.7-6.8-8.7-6.8c-4.1,0-7,5.5-6.4,11.1
		C74.2-3.5,77.1-1.7,81.6-2L81.6-2z M-20.8-28.2c2.9-0.2,4.8-2.9,4.3-6.5c-0.5-2.4-2.3-4.1-5.3-4.1c-2.5,0-4.2,3.3-3.9,6.7
		C-25.3-29.1-23.6-28-20.8-28.2z"/>
	<path class="st4" d="M22.1,270.8c-0.4-4.9-3.1-8-8.3-8.2c-4.4,0.3-8.2,4.8-7.7,9.7c0.5,5,4.4,5.4,8.2,5.1
		C18.3,277.1,22.5,276.3,22.1,270.8z"/>
	<ellipse transform="matrix(0.9911 -0.1328 0.1328 0.9911 -37.491 1.9562)" class="st4" cx="-4.1" cy="282" rx="7.5" ry="7.5"/>
	<ellipse transform="matrix(0.9911 -0.1328 0.1328 0.9911 -28.7121 1.5841)" class="st4" cx="-2.5" cy="216" rx="5.6" ry="5.6"/>
	<ellipse transform="matrix(0.9911 -0.1328 0.1328 0.9911 -30.5447 2.7067)" class="st4" cx="5" cy="230.3" rx="3.1" ry="3.1"/>
	<ellipse transform="matrix(0.9911 -0.1328 0.1328 0.9911 -33.2706 4.0357)" class="st6" cx="13.6" cy="251.4" rx="2.6" ry="2.6"/>
	<ellipse transform="matrix(0.9911 -0.1328 0.1328 0.9911 -24.9264 1.1448)" class="st4" cx="-3.9" cy="187.4" rx="2.4" ry="2.4"/>
	<ellipse transform="matrix(0.9911 -0.1328 0.1328 0.9911 -30.8538 0.473)" class="st9" cx="-11.9" cy="231.5" rx="2.4" ry="2.4"/>
	<ellipse transform="matrix(0.9911 -0.1328 0.1328 0.9911 -37.638 3.9535)" class="st4" cx="10.8" cy="284.1" rx="2.4" ry="2.4"/>
	<ellipse transform="matrix(0.9911 -0.1328 0.1328 0.9911 -39.7682 10.9162)" class="st4" cx="61.9" cy="303.6" rx="2.4" ry="2.4"/>
	<ellipse transform="matrix(0.9911 -0.1328 0.1328 0.9911 -52.1466 11.7419)" class="st4" cx="61.9" cy="396.8" rx="2.4" ry="2.4"/>
	<ellipse transform="matrix(0.9911 -0.1328 0.1328 0.9911 -4.8137 28.2066)" class="st4" cx="209" cy="50.2" rx="2.4" ry="2.4"/>
	<ellipse transform="matrix(0.9911 -0.1328 0.1328 0.9911 -30.664 18.019)" class="st6" cx="119.7" cy="238.9" rx="3.6" ry="3.6"/>
	<ellipse transform="matrix(0.9911 -0.1328 0.1328 0.9911 -60.4567 8.7212)" class="st4" cx="35.2" cy="457.6" rx="3.6" ry="3.6"/>
	<ellipse transform="matrix(0.9911 -0.1328 0.1328 0.9911 -61.7165 9.032)" class="st6" cx="36.8" cy="467.2" rx="2.4" ry="2.4"/>
	<ellipse transform="matrix(0.9911 -0.1328 0.1328 0.9911 -58.8693 8.1218)" class="st6" cx="31.5" cy="445.4" rx="3.6" ry="3.6"/>
	<path class="st4" d="M92.3,174.9c1.7,3.3,6,4.7,9.5,3c2.8-1.4,4-7.8,2.2-11.6c-1.6-3.3-5-4.4-8.1-2.7
		C92,165.4,90.3,170.8,92.3,174.9z M104.3,145c-3.4,1.7-5,4.8-3.9,7.2c1,2.2,5.1,3.3,7.8,2c2.2-1,3.3-4.6,1.9-7.1
		C108.8,144.6,106.6,144.4,104.3,145L104.3,145z"/>
	<path class="st7" d="M89.3,182.2c0.9-4.6-3-10.9-8.1-11.9c-5.8-1.1-7.3,3.2-8.4,7.7c-1.5,6.4,0.5,10.6,5.7,12
		C83.1,191.4,88.2,187.7,89.3,182.2z M121.9,179c-3.9,2.1-3.9,5.7-1.8,8.4c1.5,1.8,4.5,4.1,7.5,2.9c3-1.2,5.3-6,3.9-9.7
		C130.3,177.4,125.9,176.8,121.9,179L121.9,179z"/>
	<path class="st4" d="M119.7,174.5c3.3-2.8,2.7-5.4,1.8-8.3c-0.8-2.6-4-5.2-7.4-3.4c-7.9,4.1-5.1,9.7-3.1,11.4
		S116.5,177.2,119.7,174.5z"/>
	<ellipse transform="matrix(0.8892 -0.4575 0.4575 0.8892 -76.5501 73.8715)" class="st4" cx="114.2" cy="195" rx="3.6" ry="3.6"/>
	<ellipse transform="matrix(0.8892 -0.4575 0.4575 0.8892 -79.264 64.2625)" class="st4" cx="93.1" cy="195.8" rx="7.5" ry="7.5"/>
	<ellipse transform="matrix(0.8892 -0.4575 0.4575 0.8892 -64.2687 57.3852)" class="st4" cx="86.3" cy="161.4" rx="2.4" ry="2.4"/>
	<ellipse transform="matrix(0.8892 -0.4575 0.4575 0.8892 -59.3026 60.6868)" class="st6" cx="95.6" cy="152.8" rx="2.4" ry="2.4"/>
	
		<ellipse transform="matrix(0.8892 -0.4575 0.4575 0.8892 -72.6798 69.2547)" class="st6" cx="106.6" cy="184.7" rx="3.6" ry="3.6"/>
	<ellipse transform="matrix(0.9911 -0.1328 0.1328 0.9911 -6.6988 22.9433)" class="st4" cx="168.6" cy="61.7" rx="3.6" ry="3.6"/>
	
		<ellipse transform="matrix(0.9911 -0.1328 0.1328 0.9911 -16.6458 14.6029)" class="st4" cx="101.1" cy="132.1" rx="3.6" ry="3.6"/>
	<ellipse transform="matrix(0.9911 -0.1328 0.1328 0.9911 -13.4 18.4682)" class="st4" cx="131.7" cy="109.7" rx="3.6" ry="3.6"/>
	<ellipse transform="matrix(0.9911 -0.1328 0.1328 0.9911 -6.2122 39.0378)" class="st4" cx="289.5" cy="66.1" rx="3.6" ry="3.6"/>
	<ellipse transform="matrix(0.9911 -0.1328 0.1328 0.9911 -68.4209 18.1096)" class="st4" cx="101.5" cy="522" rx="5.5" ry="5.5"/>
	<ellipse transform="matrix(0.9911 -0.1328 0.1328 0.9911 -61.1002 12.8728)" class="st4" cx="65.9" cy="464.5" rx="5.5" ry="5.5"/>
	<ellipse transform="matrix(0.9911 -0.1328 0.1328 0.9911 -5.7935 36.9157)" class="st10" cx="273.8" cy="61.9" rx="4.2" ry="4.2"/>
	<ellipse transform="matrix(0.9911 -0.1328 0.1328 0.9911 -1.9661 42.1027)" class="st2" cx="314.6" cy="35.8" rx="4.2" ry="4.2"/>
	<ellipse transform="matrix(0.9911 -0.1328 0.1328 0.9911 -8.3992 31.6471)" class="st2" cx="233" cy="78.8" rx="4.4" ry="4.4"/>
	<ellipse transform="matrix(0.9911 -0.1328 0.1328 0.9911 0.4921 58.5592)" class="st2" cx="439.2" cy="25.6" rx="4.4" ry="4.4"/>
	<ellipse transform="matrix(0.9911 -0.1328 0.1328 0.9911 -3.4323 39.7194)" class="st2" cx="296" cy="45.6" rx="4.4" ry="4.4"/>
	<ellipse transform="matrix(0.9911 -0.1328 0.1328 0.9911 -4.1224 52.3709)" class="st2" cx="390.5" cy="57.1" rx="4.4" ry="4.4"/>
	<path class="st4" d="M421.5,25c-5,0.6-10.5,7.2-10,12c0.6,5.6,6.4,10.4,12,9.8c5.5-0.6,12-7.7,11.4-12.5S426.9,24.3,421.5,25z"/>
	<ellipse transform="matrix(0.9911 -0.1328 0.1328 0.9911 -3.6974 54.7436)" class="st6" cx="408.5" cy="55.1" rx="7.5" ry="7.5"/>
	<path class="st2" d="M342.2,98.4c0.5,4,4.8,7.4,8.8,6.8c2.6-0.4,5.1-3.9,4.7-6.7c-0.5-3.8-5-6.6-9.4-6
		C343.2,93,341.8,95,342.2,98.4z"/>
	<path class="st10" d="M353.9,70.4c2.4-0.4,3.7-1.8,3.7-4c0-1.8-3.7-4.5-5.9-3.8c-1.4,0.4-3,2.2-3.1,3.9
		C348.5,68.1,351.4,70.8,353.9,70.4z"/>
	<ellipse transform="matrix(0.9911 -0.1328 0.1328 0.9911 -6.1313 50.6507)" class="st6" cx="376.6" cy="71.3" rx="3.6" ry="3.6"/>
	<ellipse transform="matrix(0.9911 -0.1328 0.1328 0.9911 -2.8947 44.7791)" class="st4" cx="334.2" cy="44.1" rx="3.6" ry="3.6"/>
	<ellipse transform="matrix(0.9911 -0.1328 0.1328 0.9911 -2.8936 50.5949)" class="st2" cx="377.8" cy="47" rx="4.2" ry="4.2"/>
	
		<ellipse transform="matrix(0.9911 -0.1328 0.1328 0.9911 -6.018848e-02 62.2776)" class="st2" cx="466.8" cy="31.6" rx="4.2" ry="4.2"/>
	<ellipse transform="matrix(0.9911 -0.1328 0.1328 0.9911 -3.9004 46.3001)" class="st2" cx="345.1" cy="52.4" rx="4.4" ry="4.4"/>
	<path class="st4" d="M474.3,58.8c-5,0.6-10.5,7.2-10,12c0.6,5.6,6.4,10.4,12,9.8c5.5-0.6,12-7.7,11.4-12.5S479.7,58.1,474.3,58.8z"
		/>
	<ellipse transform="matrix(0.9911 -0.1328 0.1328 0.9911 -2.6467 48.4975)" class="st4" cx="362.2" cy="44.1" rx="7.5" ry="7.5"/>
	<ellipse transform="matrix(0.9911 -0.1328 0.1328 0.9911 -4.2298 43.761)" class="st6" cx="325.9" cy="53.6" rx="2.4" ry="2.4"/>
	<ellipse transform="matrix(0.9911 -0.1328 0.1328 0.9911 -0.4653 45.8043)" class="st6" cx="343.1" cy="26.4" rx="2.4" ry="2.4"/>
	<ellipse transform="matrix(0.9911 -0.1328 0.1328 0.9911 -8.1207 49.2228)" class="st4" cx="364.9" cy="85.5" rx="2.4" ry="2.4"/>
	<ellipse transform="matrix(0.9911 -0.1328 0.1328 0.9911 -3.8681 58.5833)" class="st4" cx="437.2" cy="58.3" rx="2.4" ry="2.4"/>
	<ellipse transform="matrix(0.9911 -0.1328 0.1328 0.9911 -9.0874 52.3285)" class="st6" cx="387.7" cy="94.3" rx="2.4" ry="2.4"/>
	<ellipse transform="matrix(0.9911 -0.1328 0.1328 0.9911 -25.0106 9.1849)" class="st10" cx="56.3" cy="192.1" rx="4.4" ry="4.4"/>
	<ellipse transform="matrix(0.9911 -0.1328 0.1328 0.9911 -18.003 12.8527)" class="st10" cx="87.3" cy="141.4" rx="4.4" ry="4.4"/>
	<ellipse transform="matrix(0.9911 -0.1328 0.1328 0.9911 -17.8246 3.1283)" class="st10" cx="14.5" cy="135.2" rx="4.4" ry="4.4"/>
	<ellipse transform="matrix(0.9911 -0.1328 0.1328 0.9911 -5.7354 54.7861)" class="st2" cx="407.8" cy="70.4" rx="4.4" ry="4.4"/>
	
		<ellipse transform="matrix(0.9911 -0.1328 0.1328 0.9911 -12.2879 24.1432)" class="st2" cx="174.8" cy="104.2" rx="4.4" ry="4.4"/>
	<path class="st4" d="M61.6,120.3c8.1-0.8,11.7-4.9,10.9-12.6c-0.7-6.4-4.4-9.9-9.9-9.2c-6.1,0.8-11.5,7.1-10.9,12.7
		C52.4,116.6,56.9,120.7,61.6,120.3L61.6,120.3z"/>
	<path class="st4" d="M27.7,113.1c8.1-0.8,11.7-4.9,10.9-12.6c-0.7-6.4-4.4-9.9-9.9-9.2c-6.1,0.8-11.5,7.1-10.9,12.7
		C18.5,109.4,23,113.5,27.7,113.1L27.7,113.1z"/>
	<ellipse transform="matrix(0.9911 -0.1328 0.1328 0.9911 -8.8646 12.8701)" class="st4" cx="92" cy="72.9" rx="3.7" ry="3.7"/>
	<ellipse transform="matrix(0.9911 -0.1328 0.1328 0.9911 -17.394 9.584)" class="st4" cx="63.1" cy="135.2" rx="5.6" ry="5.6"/>
	<ellipse transform="matrix(0.9911 -0.1328 0.1328 0.9911 -11.9537 8.3541)" class="st4" cx="56.6" cy="93.8" rx="2.6" ry="2.6"/>
	<ellipse transform="matrix(0.9911 -0.1328 0.1328 0.9911 -9.5757 8.8091)" class="st2" cx="61.2" cy="76.2" rx="8.1" ry="8.1"/>
	<ellipse transform="matrix(0.9911 -0.1328 0.1328 0.9911 -11.0222 10.7197)" class="st2" cx="74.8" cy="88" rx="4.4" ry="4.4"/>
	<path class="st2" d="M64.7-82.5c2.8,6.9,11,9.9,18.5,6.7c5.9-2.5,8.1-8.4,5.5-14.7c-2.8-6.7-9.7-9.2-16.9-6.3
		C65.3-94.2,62.3-88.2,64.7-82.5z"/>
	<path class="st3" d="M106.9-88.2c-2.2-3.1-5.8-3.6-9.5-1.1c-3.3,2.1-4.2,6.6-2.2,9.7c1.9,2.7,6.2,3,9.7,0.6
		C108.2-81.2,109-85.1,106.9-88.2z"/>
	<path class="st2" d="M119.7-45.6c0.5-2.1,0.4-4.7-0.4-6.6c-1.8-4.6-6.9-6.5-13.2-4.8c-7.8,2.2-8.7,4.9-6.5,11.7
		c1.6,4.2,4.6,6.1,9.7,6C114.4-39.3,118.6-41.6,119.7-45.6z"/>
	<path class="st4" d="M128,69.7c7.6-2.9,10-7.8,7.3-15c-2.3-6-6.8-8.4-11.9-6.3c-5.7,2.4-9.3,9.8-7.2,15.1
		C118.2,68.5,123.6,71.3,128,69.7z M93.4,94.9c2.9,7.7,10.7,11.4,18,8.5c6-2.3,8.7-8.2,6.3-13.8c-2.4-5.8-11.4-9-18.2-6.4
		C93.8,85.5,91.4,89.8,93.4,94.9z"/>
	<path class="st6" d="M130.2-7.1c-4.7,1.9-8.3,9.7-6.5,14.2c2,5.3,8.9,8.4,14.1,6.4s9.6-10.5,7.8-15C143.7-6.1,135.3-9.2,130.2-7.1z
		"/>
	<path class="st2" d="M91.9,12.3c2,4.7,7.7,7.1,12.7,5.1c4-1.6,6.4-10.3,4.3-15.6c-1.8-4.7-6.2-6.6-10.8-4.8
		C92.5-0.6,89.6,6.6,91.9,12.3z"/>
	<path class="st4" d="M94.1-104.1c-3.6,1.4-5.4,4.3-4.5,6.9c0.8,2.3,4.8,3.7,7.6,2.6c2.3-0.8,3.6-4.3,2.5-6.9
		C98.5-104.1,96.2-104.5,94.1-104.1z"/>
	<path class="st10" d="M104.6-72.6c-3.6,1.4-5.4,4.3-4.5,6.9c0.8,2.3,4.8,3.7,7.6,2.6c2.3-0.8,3.6-4.3,2.5-6.9
		C109-72.7,106.8-73,104.6-72.6z"/>
	<path class="st2" d="M103.3,35c-4.7,1.8-7,5.7-5.8,9c1.1,2.9,6.3,4.7,9.9,3.4c3-1.1,4.7-5.6,3.2-8.9C109.1,35,106.2,34.4,103.3,35z
		 M111.6,69c-3.6,1.4-5.4,4.3-4.5,6.9c0.8,2.3,4.8,3.7,7.6,2.6c2.3-0.8,3.6-4.3,2.5-6.9C116,69,113.9,68.5,111.6,69z"/>
	<path class="st4" d="M90.8-62.3c2.7-0.9,3.9-4,2.5-7.4c-1.1-2.2-3.3-3.4-6.2-2.6c-2.4,0.6-3.2,4.3-2,7.5
		C86.2-62,88.1-61.4,90.8-62.3z"/>
	<ellipse transform="matrix(0.9229 -0.385 0.385 0.9229 -21.9407 57.7911)" class="st4" cx="133.3" cy="83.7" rx="5.6" ry="5.6"/>
	<ellipse transform="matrix(0.9229 -0.385 0.385 0.9229 -15.2523 45.3996)" class="st6" cx="105.7" cy="60.8" rx="2.6" ry="2.6"/>
	<ellipse transform="matrix(0.9229 -0.385 0.385 0.9229 -8.5057 48.2939)" class="st4" cx="116.3" cy="45.4" rx="2.6" ry="2.6"/>
	<ellipse transform="matrix(0.9229 -0.385 0.385 0.9229 14.1691 36.9465)" class="st4" cx="99.3" cy="-16.9" rx="5.8" ry="5.8"/>
	<ellipse transform="matrix(0.9229 -0.385 0.385 0.9229 -1.5066 46.8526)" class="st2" cx="116.2" cy="27.2" rx="8.1" ry="8.1"/>
	<ellipse transform="matrix(0.9229 -0.385 0.385 0.9229 17.1888 45.6324)" class="st4" cx="122.6" cy="-20.1" rx="7.5" ry="7.5"/>
	<ellipse transform="matrix(0.9229 -0.385 0.385 0.9229 26.0257 29.7681)" class="st10" cx="87.4" cy="-50.1" rx="2.4" ry="2.4"/>
	<ellipse transform="matrix(0.9229 -0.385 0.385 0.9229 20.1444 39.3945)" class="st6" cx="108.5" cy="-30.6" rx="2.4" ry="2.4"/>
	<ellipse transform="matrix(0.9229 -0.385 0.385 0.9229 19.2883 33.5192)" class="st4" cx="93.4" cy="-31.4" rx="2.4" ry="2.4"/>
	<path class="st2" d="M78.5-6c-2-0.8-4.5-1.1-6.6-0.6C67.1-5.5,64.4-0.8,65,5.7c0.9,8,3.5,9.4,10.5,8.3c4.4-1,6.8-3.6,7.5-8.6
		C83.9,0.2,82.3-4.3,78.5-6z"/>
	<ellipse transform="matrix(0.9723 -0.2337 0.2337 0.9723 -10.549 19.154)" class="st4" cx="75.5" cy="54.1" rx="5.8" ry="5.8"/>
	
		<ellipse transform="matrix(0.9723 -0.2337 0.2337 0.9723 -23.0851 13.5536)" class="st10" cx="45.6" cy="104.2" rx="2.4" ry="2.4"/>
	<ellipse transform="matrix(0.9723 -0.2337 0.2337 0.9723 -28.5262 8.6277)" class="st10" cx="22.1" cy="124.7" rx="2.4" ry="2.4"/>
	<ellipse transform="matrix(0.9723 -0.2337 0.2337 0.9723 -8.2872 16.0422)" class="st6" cx="63.5" cy="43" rx="2.4" ry="2.4"/>
	<ellipse transform="matrix(0.9723 -0.2337 0.2337 0.9723 -11.8345 15.7042)" class="st4" cx="60.3" cy="57.8" rx="2.4" ry="2.4"/>
	<ellipse transform="matrix(0.9723 -0.2337 0.2337 0.9723 -2.2369 1.7041)" class="st4" cx="6.1" cy="10.3" rx="2.4" ry="2.4"/>
	<ellipse transform="matrix(0.9229 -0.385 0.385 0.9229 -23.0276 53.1639)" class="st4" cx="121.2" cy="84.1" rx="2.4" ry="2.4"/>
	<ellipse transform="matrix(0.9229 -0.385 0.385 0.9229 10.5974 44.109)" class="st4" cx="115.4" cy="-4.4" rx="3.6" ry="3.6"/>
	<ellipse transform="matrix(0.9229 -0.385 0.385 0.9229 -12.7124 39.486)" class="st4" cx="92.3" cy="51.5" rx="3.6" ry="3.6"/>
	<ellipse transform="matrix(0.9229 -0.385 0.385 0.9229 -3.2613 53.6912)" class="st2" cx="132.4" cy="35" rx="4.4" ry="4.4"/>
	<path class="st2" d="M81.8,16.9c-7.5-0.1-13.4,6.4-13.3,14.5c0.1,6.4,4.6,10.7,11.5,10.7c7.3,0.1,12.2-5.3,12.3-13.1
		C92.3,22.1,87.9,16.9,81.8,16.9z"/>
	<path class="st4" d="M29.9,127.7c1.7,8,6.2,11,13.8,9.4c6.3-1.4,9.3-5.5,8-10.9c-1.5-6-8.4-10.6-13.9-9.3
		C32.5,118.1,29,123.1,29.9,127.7z"/>
	<path class="st6" d="M41.4,181.9c-1.2-4.9-8.5-9.5-13.2-8.4c-5.5,1.3-9.5,7.7-8.2,13.2c1.3,5.4,9.2,10.9,13.9,9.7
		C38.6,195,42.8,187.1,41.4,181.9z"/>
	<path class="st2" d="M27.2,141.3c-5,1.4-8.1,6.7-6.7,11.9c1.1,4.2,9.4,7.7,14.9,6.3c4.8-1.1,7.3-5.3,6-10.1
		C39.9,143.6,33.2,139.8,27.2,141.3L27.2,141.3z M86.7,126.1c-1.1-4.9-4.7-7.7-8.2-6.9c-3,0.7-5.5,5.7-4.7,9.4
		c0.7,3.1,4.9,5.4,8.4,4.3C85.9,131.9,86.9,129,86.7,126.1z"/>
	<ellipse transform="matrix(0.9655 -0.2603 0.2603 0.9655 -21.4316 25.551)" class="st6" cx="85.7" cy="93.7" rx="2.6" ry="2.6"/>
	<ellipse transform="matrix(0.9655 -0.2603 0.2603 0.9655 -23.2655 27.3036)" class="st4" cx="91.4" cy="101.5" rx="2.6" ry="2.6"/>
	<ellipse transform="matrix(0.9655 -0.2603 0.2603 0.9655 -37.7887 19.6389)" class="st4" cx="55.3" cy="152.5" rx="5.8" ry="5.8"/>
	<ellipse transform="matrix(0.9655 -0.2603 0.2603 0.9655 -52.5916 18.262)" class="st2" cx="42.7" cy="207.7" rx="8.1" ry="8.1"/>
	<ellipse transform="matrix(0.9655 -0.2603 0.2603 0.9655 -43.8797 20.4456)" class="st4" cx="55.3" cy="175.9" rx="7.5" ry="7.5"/>
	<ellipse transform="matrix(0.9655 -0.2603 0.2603 0.9655 -40.1759 23.2129)" class="st6" cx="67.6" cy="163.3" rx="2.4" ry="2.4"/>
	<ellipse transform="matrix(0.9655 -0.2603 0.2603 0.9655 -45.9057 23.5479)" class="st6" cx="65.9" cy="185.1" rx="2.4" ry="2.4"/>
	<ellipse transform="matrix(0.9655 -0.2603 0.2603 0.9655 -36.201 23.4281)" class="st4" cx="70.3" cy="148.4" rx="2.4" ry="2.4"/>
	<ellipse transform="matrix(0.9655 -0.2603 0.2603 0.9655 -42.0143 16.3315)" class="st4" cx="40.7" cy="166.8" rx="3.6" ry="3.6"/>
	<path class="st4" d="M39.1,18.4c8.1-0.8,11.7-4.9,10.9-12.6c-0.7-6.4-4.4-9.9-9.9-9.2C34-2.6,28.6,3.7,29.2,9.3
		C29.9,14.7,34.4,18.8,39.1,18.4L39.1,18.4z"/>
	<ellipse transform="matrix(0.9911 -0.1328 0.1328 0.9911 -4.0658 5.6903)" class="st4" cx="40.6" cy="33.3" rx="5.6" ry="5.6"/>
	<ellipse transform="matrix(0.9911 -0.1328 0.1328 0.9911 1.3745 4.4604)" class="st4" cx="34.1" cy="-8.1" rx="2.6" ry="2.6"/>
	<ellipse transform="matrix(0.9911 -0.1328 0.1328 0.9911 3.7525 4.9154)" class="st2" cx="38.7" cy="-25.7" rx="8.1" ry="8.1"/>
	<ellipse transform="matrix(0.9911 -0.1328 0.1328 0.9911 2.3059 6.826)" class="st2" cx="52.3" cy="-13.9" rx="4.4" ry="4.4"/>
	<path class="st2" d="M56-107.9c-2-0.8-4.5-1.1-6.6-0.6c-4.8,1.1-7.5,5.8-6.9,12.3c0.9,8,3.5,9.4,10.5,8.3c4.4-1,6.8-3.6,7.5-8.6
		C61.4-101.7,59.8-106.2,56-107.9z"/>
	<ellipse transform="matrix(0.9723 -0.2337 0.2337 0.9723 12.6324 11.0692)" class="st4" cx="53" cy="-47.8" rx="5.8" ry="5.8"/>
	
		<ellipse transform="matrix(0.9723 -0.2337 0.2337 0.9723 9.623707e-02 5.4689)" class="st10" cx="23.1" cy="2.3" rx="2.4" ry="2.4"/>
	<ellipse transform="matrix(0.9723 -0.2337 0.2337 0.9723 14.8942 7.9574)" class="st6" cx="41" cy="-58.9" rx="2.4" ry="2.4"/>
	<ellipse transform="matrix(0.9723 -0.2337 0.2337 0.9723 11.3469 7.6194)" class="st4" cx="37.8" cy="-44.1" rx="2.4" ry="2.4"/>
	<path class="st2" d="M59.3-85c-7.5-0.1-13.4,6.4-13.3,14.5c0.1,6.4,4.6,10.7,11.5,10.7c7.3,0.1,12.2-5.3,12.3-13.1
		C69.8-79.8,65.4-85,59.3-85z"/>
	<path class="st4" d="M7.4,25.8c1.7,8,6.2,11,13.8,9.4c6.3-1.4,9.3-5.5,8-10.9c-1.5-6-8.4-10.6-13.9-9.3C10,16.2,6.5,21.2,7.4,25.8z
		"/>
	<path class="st6" d="M18.9,80c-1.2-4.9-8.5-9.5-13.2-8.4c-5.5,1.3-9.5,7.7-8.2,13.2c1.3,5.4,9.2,10.9,13.9,9.7
		C16.1,93.1,20.3,85.2,18.9,80z"/>
	<path class="st2" d="M4.7,39.4c-5,1.4-8.1,6.7-6.7,11.9c1.1,4.2,9.4,7.7,14.9,6.3c4.8-1.1,7.3-5.3,6-10.1
		C17.4,41.7,10.7,37.9,4.7,39.4L4.7,39.4z M64.2,24.2c-1.1-4.9-4.7-7.7-8.2-6.9c-3,0.7-5.5,5.7-4.7,9.4c0.7,3.1,4.9,5.4,8.4,4.3
		C63.4,30,64.4,27.1,64.2,24.2z"/>
	<ellipse transform="matrix(0.9655 -0.2603 0.2603 0.9655 -12.0501 10.264)" class="st4" cx="32.7" cy="50.6" rx="5.8" ry="5.8"/>
	<ellipse transform="matrix(0.9655 -0.2603 0.2603 0.9655 -18.1411 11.0707)" class="st4" cx="32.7" cy="74" rx="7.5" ry="7.5"/>
	<ellipse transform="matrix(0.9655 -0.2603 0.2603 0.9655 -14.4373 13.838)" class="st6" cx="45" cy="61.4" rx="2.4" ry="2.4"/>
	<ellipse transform="matrix(0.9655 -0.2603 0.2603 0.9655 -10.4623 14.0532)" class="st4" cx="47.8" cy="46.5" rx="2.4" ry="2.4"/>
	<ellipse transform="matrix(0.9655 -0.2603 0.2603 0.9655 -16.2757 6.9566)" class="st4" cx="18.1" cy="64.9" rx="3.6" ry="3.6"/>
	<ellipse transform="matrix(0.9655 -0.2603 0.2603 0.9655 -25.1701 24.7218)" class="st4" cx="80.7" cy="107.4" rx="3.6" ry="3.6"/>
	<ellipse transform="matrix(0.9655 -0.2603 0.2603 0.9655 -7.9696 1.0555)" class="st4" cx="0" cy="30.6" rx="3.6" ry="3.6"/>
	<path class="st4" d="M12.7,314.5c8.1-0.8,11.7-4.9,10.9-12.6c-0.7-6.4-4.4-9.9-9.9-9.2c-6.1,0.8-11.5,7.1-10.9,12.7
		C3.5,310.8,8,314.9,12.7,314.5L12.7,314.5z"/>
	<ellipse transform="matrix(0.9911 -0.1328 0.1328 0.9911 -22.9296 2.8737)" class="st4" cx="10.1" cy="173.3" rx="5.6" ry="5.6"/>
	<ellipse transform="matrix(0.9723 -0.2337 0.2337 0.9723 -37.894 9.9704)" class="st10" cx="23.1" cy="164.9" rx="2.4" ry="2.4"/>
	<path class="st4" d="M-7.6,151.7c1.7,8,6.2,11,13.8,9.4c6.3-1.4,9.3-5.5,8-10.9c-1.5-6-8.4-10.6-13.9-9.3
		C-5,142.1-8.5,147.1-7.6,151.7z"/>
	<ellipse transform="matrix(0.9655 -0.2603 0.2603 0.9655 -30.1257 6.6395)" class="st4" cx="10" cy="117.1" rx="3.6" ry="3.6"/>
	<ellipse transform="matrix(0.9655 -0.2603 0.2603 0.9655 -21.3972 14.2102)" class="st4" cx="43" cy="87.9" rx="3.6" ry="3.6"/>
	<ellipse transform="matrix(0.9655 -0.2603 0.2603 0.9655 -56.6779 20.2071)" class="st2" cx="48" cy="224.1" rx="4.4" ry="4.4"/>
	<ellipse transform="matrix(0.9911 -0.1328 0.1328 0.9911 -32.0861 10.6973)" class="st2" cx="64.1" cy="245.9" rx="4.4" ry="4.4"/>
	<path class="st1" d="M103.8,471.3c-0.5-5.1-5.7-8.8-11.6-8.1c-5.1,0.6-9.5,5.4-9,9.6c0.5,4.1,6.7,7.5,12.7,6.9
		C101.4,479.1,104.2,476.1,103.8,471.3z"/>
	<path class="st4" d="M94.8,486.3c-5.5,0.6-8.6,4.7-8.1,10.5c0.6,5.6,4.6,8.8,10.3,8.2c4.8-0.5,7.5-4.8,6.8-10.7
		C103.1,488.8,99.7,485.8,94.8,486.3z M80,517.3c-5.5,0.6-8.6,4.7-8.1,10.5c0.6,5.6,4.6,8.8,10.3,8.2c4.8-0.5,7.5-4.8,6.8-10.7
		C88.4,519.9,85,516.8,80,517.3z M63.1,474.8c-5.5,0.6-8.6,4.7-8.1,10.5c0.6,5.6,4.6,8.8,10.3,8.2c4.8-0.5,7.5-4.8,6.8-10.7
		C71.5,477.4,68.1,474.3,63.1,474.8z M61.3,449.1c1.1,5.5,5.8,4.8,9,5c7.1-0.8,10.8-4.6,9.9-9.6c-1-6-5.8-5.8-10.1-5.6
		C64.5,439.4,60.3,444.3,61.3,449.1z"/>
	<path class="st4" d="M34.9,474.8c-5.5,0.6-8.6,4.7-8.1,10.5c0.6,5.6,4.6,8.8,10.3,8.2c4.8-0.5,7.5-4.8,6.8-10.7
		C43.2,477.3,39.8,474.3,34.9,474.8z"/>
	<ellipse transform="matrix(0.9911 -0.1328 0.1328 0.9911 -52.8905 13.5656)" class="st4" cx="75.2" cy="403.3" rx="5.6" ry="5.6"/>
	
		<ellipse transform="matrix(0.9911 -0.1328 0.1328 0.9911 -59.9783 18.2935)" class="st4" cx="107.1" cy="458.8" rx="3.1" ry="3.1"/>
	<ellipse transform="matrix(0.9911 -0.1328 0.1328 0.9911 -60.6336 14.6689)" class="st6" cx="79.6" cy="461.9" rx="2.6" ry="2.6"/>
	<ellipse transform="matrix(0.9911 -0.1328 0.1328 0.9911 -42.777 8.1824)" class="st6" cx="40" cy="324.8" rx="2.6" ry="2.6"/>
	<ellipse transform="matrix(0.9911 -0.1328 0.1328 0.9911 -57.5058 11.3657)" class="st6" cx="56.4" cy="436.8" rx="2.6" ry="2.6"/>
	<ellipse transform="matrix(0.9911 -0.1328 0.1328 0.9911 -62.8704 6.8003)" class="st6" cx="19.5" cy="474.7" rx="2.6" ry="2.6"/>
	<path class="st6" d="M87.4,423.4c0.7-4.7-5-8-9.7-7.4s-8,5-7.4,9.7s5.1,8.6,9.7,7.4C84.6,432,86.7,428.1,87.4,423.4z"/>
	<path class="st6" d="M7.1,477.8c0.7-4.7-5-8-9.7-7.4s-8,5-7.4,9.7s5.1,8.6,9.7,7.4C4.3,486.4,6.4,482.5,7.1,477.8z"/>
	<ellipse transform="matrix(0.9911 -0.1328 0.1328 0.9911 -63.4436 14.9364)" class="st4" cx="80.2" cy="483.1" rx="4" ry="4"/>
	<ellipse transform="matrix(0.9911 -0.1328 0.1328 0.9911 -60.206 11.1456)" class="st4" cx="53.4" cy="456.9" rx="4" ry="4"/>
	<ellipse transform="matrix(0.9911 -0.1328 0.1328 0.9911 -57.2454 15.27)" class="st9" cx="85.8" cy="436.8" rx="2.4" ry="2.4"/>
	<ellipse transform="matrix(0.9911 -0.1328 0.1328 0.9911 -55.8945 12.1252)" class="st2" cx="62.9" cy="425.1" rx="4.4" ry="4.4"/>
	<ellipse transform="matrix(0.9911 -0.1328 0.1328 0.9911 -45.8617 7.5523)" class="st2" cx="33.7" cy="347.6" rx="4.4" ry="4.4"/>
	<path class="st9" d="M162.1,196.2c-5.2,0.4-10.5,6.6-9.1,11.5c1.3,4.4,4.6,7.4,9.8,6.9c6-0.7,10.9-5.7,10.4-10.6
		C172.8,199.2,167.7,195.7,162.1,196.2L162.1,196.2z"/>
	<path class="st4" d="M484.2,48.7c3.8-0.4,6.3-2.8,6.1-5.5c-0.2-2.4-3.7-4.8-6.7-4.5c-2.4,0.2-4.6,3.2-4.2,6
		C479.9,47.6,482,48.6,484.2,48.7L484.2,48.7z"/>
	<path class="st10" d="M494,61.1c-2.4,0.4-3.7,1.8-3.7,4c0,1.8,3.7,4.5,5.9,3.8c1.4-0.4,3-2.2,3.1-3.9
		C499.4,63.4,496.5,60.7,494,61.1z"/>
	<ellipse transform="matrix(0.9911 -0.1328 0.1328 0.9911 -6.5415 69.6997)" class="st4" cx="519.2" cy="83.9" rx="2.6" ry="2.6"/>
	<ellipse transform="matrix(0.9911 -0.1328 0.1328 0.9911 -7.5373 77.9696)" class="st4" cx="580.7" cy="95.5" rx="2.6" ry="2.6"/>
	<ellipse transform="matrix(0.9911 -0.1328 0.1328 0.9911 -3.0336 77.2957)" class="st4" cx="577.9" cy="61.4" rx="2.6" ry="2.6"/>
	<ellipse transform="matrix(0.9911 -0.1328 0.1328 0.9911 -3.3084 68.1768)" class="st4" cx="509.4" cy="58.9" rx="2.6" ry="2.6"/>
	<ellipse transform="matrix(0.9911 -0.1328 0.1328 0.9911 -1.1912 75.3187)" class="st4" cx="564" cy="46.6" rx="2.6" ry="2.6"/>
	<ellipse transform="matrix(0.9911 -0.1328 0.1328 0.9911 -6.8425 71.187)" class="st2" cx="530.2" cy="86.9" rx="4.4" ry="4.4"/>
	<ellipse transform="matrix(0.9911 -0.1328 0.1328 0.9911 -4.0854 76.7256)" class="st2" cx="573.1" cy="69" rx="4.4" ry="4.4"/>
	<path class="st4" d="M531.8,73.7c5-0.6,10.5-7.2,10-12c-0.6-5.6-6.4-10.4-12-9.8c-5.5,0.6-12,7.7-11.4,12.5
		C519,69.2,526.4,74.4,531.8,73.7z"/>
	<ellipse transform="matrix(0.9911 -0.1328 0.1328 0.9911 -4.5104 74.3529)" class="st6" cx="555.1" cy="71" rx="7.5" ry="7.5"/>
	<ellipse transform="matrix(0.9911 -0.1328 0.1328 0.9911 0.31 67.0284)" class="st6" cx="502.6" cy="31.2" rx="2.4" ry="2.4"/>
	<path class="st2" d="M621.4,27.7c-0.5-4-4.8-7.4-8.8-6.8c-2.6,0.4-5.1,3.9-4.7,6.7c0.5,3.8,5,6.6,9.4,6
		C620.4,33.1,621.8,31.1,621.4,27.7z"/>
	<path class="st10" d="M609.7,55.7c-2.4,0.4-3.7,1.8-3.7,4c0,1.8,3.7,4.5,5.9,3.8c1.4-0.4,3-2.2,3.1-3.9
		C615.1,58,612.2,55.3,609.7,55.7z"/>
	<ellipse transform="matrix(0.9911 -0.1328 0.1328 0.9911 -2.0765 78.4457)" class="st6" cx="587" cy="54.8" rx="3.6" ry="3.6"/>
	<ellipse transform="matrix(0.9911 -0.1328 0.1328 0.9911 -5.3141 78.5016)" class="st2" cx="585.8" cy="79.1" rx="4.2" ry="4.2"/>
	<ellipse transform="matrix(0.9911 -0.1328 0.1328 0.9911 -6.2902 67.4686)" class="st2" cx="502.6" cy="80.9" rx="4.2" ry="4.2"/>
	<ellipse transform="matrix(0.9911 -0.1328 0.1328 0.9911 -4.3074 82.7963)" class="st2" cx="618.5" cy="73.7" rx="4.4" ry="4.4"/>
	<ellipse transform="matrix(0.9911 -0.1328 0.1328 0.9911 -5.5611 80.599)" class="st4" cx="601.4" cy="82" rx="7.5" ry="7.5"/>
	<ellipse transform="matrix(0.9911 -0.1328 0.1328 0.9911 -7.7425 83.2922)" class="st6" cx="620.5" cy="99.7" rx="2.4" ry="2.4"/>
	
		<ellipse transform="matrix(0.9911 -0.1328 0.1328 0.9911 -8.708741e-02 79.8737)" class="st4" cx="598.7" cy="40.6" rx="2.4" ry="2.4"/>
	<ellipse transform="matrix(0.9911 -0.1328 0.1328 0.9911 -0.2016 70.1572)" class="st4" cx="525.8" cy="36.6" rx="2.4" ry="2.4"/>
	<ellipse transform="matrix(0.9911 -0.1328 0.1328 0.9911 0.8796 76.7679)" class="st6" cx="575.9" cy="31.8" rx="2.4" ry="2.4"/>
	<ellipse transform="matrix(0.9911 -0.1328 0.1328 0.9911 -2.4724 74.3103)" class="st2" cx="555.8" cy="55.7" rx="4.4" ry="4.4"/>
	<path class="st2" d="M707.2,30.4c0.5,4,4.8,7.4,8.8,6.8c2.6-0.4,5.1-3.9,4.7-6.7c-0.5-3.8-5-6.6-9.4-6
		C708.2,25,706.8,27,707.2,30.4z"/>
	<ellipse transform="matrix(0.9911 -0.1328 0.1328 0.9911 -3.6976 103.3377)" class="st4" cx="772.8" cy="79.4" rx="2.6" ry="2.6"/>
	<ellipse transform="matrix(0.9911 -0.1328 0.1328 0.9911 -4.5293 118.4664)" class="st6" cx="885.8" cy="93.2" rx="2.6" ry="2.6"/>
	<ellipse transform="matrix(0.9911 -0.1328 0.1328 0.9911 -2.5134 91.2936)" class="st6" cx="683.1" cy="64.5" rx="3.6" ry="3.6"/>
	<ellipse transform="matrix(0.9911 -0.1328 0.1328 0.9911 -3.0489 95.2644)" class="st4" cx="712.6" cy="70.5" rx="3.6" ry="3.6"/>
	<ellipse transform="matrix(0.9911 -0.1328 0.1328 0.9911 0.7243 91.2377)" class="st2" cx="684.3" cy="40.2" rx="4.2" ry="4.2"/>
	
		<ellipse transform="matrix(0.9911 -0.1328 0.1328 0.9911 -5.2851 101.5361)" class="st10" cx="758.5" cy="90.4" rx="4.2" ry="4.2"/>
	<path class="st9" d="M792.9,86.4c0.4,3.1,3.4,5.4,6.7,5c2.6-0.3,5.4-5.1,5.1-8.6c-0.3-3-2.7-4.9-5.7-4.5
		C795.3,78.7,792.4,82.6,792.9,86.4z"/>
	<path class="st2" d="M692.7,75.7c0.5,3.7,4,6.3,7.8,5.9c3-0.4,6.3-5.9,5.9-10c-0.4-3.5-3.1-5.6-6.6-5.2
		C695.5,66.8,692.1,71.3,692.7,75.7L692.7,75.7z"/>
	
		<ellipse transform="matrix(0.9911 -0.1328 0.1328 0.9911 -7.5522 108.5436)" class="st6" cx="809.9" cy="110.9" rx="4.1" ry="4.1"/>
	<ellipse transform="matrix(0.9911 -0.1328 0.1328 0.9911 -2.9103 109.9414)" class="st6" cx="822.7" cy="76.8" rx="3.7" ry="3.7"/>
	<ellipse transform="matrix(0.9911 -0.1328 0.1328 0.9911 -0.8681 103.3624)" class="st4" cx="774.4" cy="58.2" rx="4.6" ry="4.6"/>
	<ellipse transform="matrix(0.9911 -0.1328 0.1328 0.9911 -4.2702 110.9525)" class="st4" cx="829.6" cy="87.5" rx="5.6" ry="5.6"/>
	
		<ellipse transform="matrix(0.9911 -0.1328 0.1328 0.9911 -7.7537 119.1216)" class="st4" cx="889.1" cy="117.7" rx="2.6" ry="2.6"/>
	
		<ellipse transform="matrix(0.9911 -0.1328 0.1328 0.9911 -7.1155 116.0911)" class="st6" cx="866.7" cy="111.4" rx="2.6" ry="2.6"/>
	
		<ellipse transform="matrix(0.9911 -0.1328 0.1328 0.9911 -9.3407 104.7279)" class="st4" cx="780.4" cy="122.4" rx="2.6" ry="2.6"/>
	
		<ellipse transform="matrix(0.9911 -0.1328 0.1328 0.9911 -5.7884 114.7887)" class="st4" cx="857.6" cy="100.8" rx="2.6" ry="2.6"/>
	<ellipse transform="matrix(0.9911 -0.1328 0.1328 0.9911 2.6786 103.7395)" class="st6" cx="779" cy="31.8" rx="2.6" ry="2.6"/>
	<ellipse transform="matrix(0.9911 -0.1328 0.1328 0.9911 -2.1927 98.3019)" class="st6" cx="735.8" cy="65.6" rx="5.8" ry="5.8"/>
	
		<ellipse transform="matrix(0.9911 -0.1328 0.1328 0.9911 -5.7885 112.3877)" class="st10" cx="839.6" cy="99.6" rx="3.4" ry="3.4"/>
	<path class="st4" d="M644.4,40.4c-3.8,0.4-6.3,2.8-6.1,5.5c0.2,2.4,3.7,4.8,6.7,4.5c2.4-0.2,4.6-3.2,4.2-6
		C648.7,41.5,646.6,40.5,644.4,40.4L644.4,40.4z"/>
	<ellipse transform="matrix(0.9911 -0.1328 0.1328 0.9911 -2.0523 88.0081)" class="st6" cx="658.7" cy="59.4" rx="7.5" ry="7.5"/>
	<ellipse transform="matrix(0.9911 -0.1328 0.1328 0.9911 0.9712 89.1404)" class="st4" cx="668.7" cy="37.3" rx="7.5" ry="7.5"/>
	<ellipse transform="matrix(0.9911 -0.1328 0.1328 0.9911 -0.6495 99.8397)" class="st4" cx="748.1" cy="54.8" rx="2.4" ry="2.4"/>
	<ellipse transform="matrix(0.9911 -0.1328 0.1328 0.9911 -0.9064 93.5875)" class="st6" cx="701.1" cy="53.6" rx="2.4" ry="2.4"/>
	<ellipse transform="matrix(0.9911 -0.1328 0.1328 0.9911 -4.5028 89.8656)" class="st4" cx="671.4" cy="78.7" rx="2.4" ry="2.4"/>
	
		<ellipse transform="matrix(0.9911 -0.1328 0.1328 0.9911 -6.2345 117.0995)" class="st9" cx="874.7" cy="105.3" rx="2.4" ry="2.4"/>
	<ellipse transform="matrix(0.9911 -0.1328 0.1328 0.9911 -2.3766 105.3439)" class="st6" cx="788.5" cy="70.5" rx="2.4" ry="2.4"/>
	<ellipse transform="matrix(0.9911 -0.1328 0.1328 0.9911 -5.4695 92.9714)" class="st6" cx="694.2" cy="87.5" rx="2.4" ry="2.4"/>
	<ellipse transform="matrix(0.9911 -0.1328 0.1328 0.9911 -2.4021 84.9635)" class="st4" cx="635.7" cy="60.5" rx="2.6" ry="2.6"/>
	<path class="st4" d="M636.6,70.2c-5,0.6-10.5,7.2-10,12c0.6,5.6,6.4,10.4,12,9.8c5.5-0.6,12-7.7,11.4-12.5S642,69.5,636.6,70.2z"/>
	<ellipse transform="matrix(0.9911 -0.1328 0.1328 0.9911 -4.2493 100.0664)" class="st4" cx="748" cy="81.9" rx="3.6" ry="3.6"/>
	<ellipse transform="matrix(0.9911 -0.1328 0.1328 0.9911 1.5992 96.7551)" class="st4" cx="726.1" cy="36.4" rx="3.6" ry="3.6"/>
	<ellipse transform="matrix(0.9911 -0.1328 0.1328 0.9911 -4.5047 114.4363)" class="st2" cx="855.6" cy="91" rx="4.2" ry="4.2"/>
	
		<ellipse transform="matrix(0.9911 -0.1328 0.1328 0.9911 -6.6332 109.9229)" class="st2" cx="820.7" cy="104.7" rx="4.4" ry="4.4"/>
</g>
<path class="st11" d="M942.2,101.4c-2.7-0.1-2.5-2-1.5-2.2c0.7-0.1,1.6-0.4,1.8-0.5s0.5-0.5,0.5-0.9c-0.1-0.4-0.4-0.7-0.7-0.6
	c-0.6-4.7-2.8-9-6.3-12.2c-0.1,0-0.1-0.1-0.2-0.1c0-1,0.1-2,0.4-3l0.7-2l-1.7,1.3c-0.8,0.6-1.7,1.1-2.6,1.3
	c-2.5-1.5-5.3-2.5-8.3-2.8c-0.6-0.7-1-1.6-1.3-2.5l-0.6-2.1l-0.6,2.1c-0.3,0.9-0.7,1.8-1.2,2.5c-3.1,0.2-6,1.2-8.6,2.7
	c-0.8-0.3-1.6-0.7-2.4-1.2l-1.7-1.3l0.7,2c0.3,0.9,0.5,1.7,0.5,2.6c-0.2,0.2-0.4,0.4-0.6,0.5c-2.1,2-3.8,4.3-4.9,6.9
	c-0.8,0.2-1.6,0.4-2.5,0.3l-2.1-0.1l1.8,1.2c0.7,0.5,1.3,1.1,1.8,1.7c-0.2,0.8-0.3,1.6-0.4,2.4l-0.4-0.4c-1.2-1.2-3.6-1.7-4.6-1.2
	c-0.6,0.3-0.9,0.7-0.9,1.4v4.9c0,0.6,0.4,1.1,1,1.4c1.2,0.5,3.4-0.1,4.5-1.2l0.4-0.4c0.1,0.8,0.2,1.6,0.4,2.4
	c-0.5,0.7-1.1,1.2-1.8,1.7l-1.8,1.2l2.1-0.1c0.9,0,1.7,0.1,2.5,0.3c1.1,2.6,2.8,5,4.9,6.9c0.2,0.2,0.4,0.4,0.6,0.5
	c0,0.8-0.1,1.7-0.5,2.6l-0.7,2l1.7-1.3c0.7-0.6,1.5-1,2.4-1.2c2.6,1.5,5.6,2.5,8.6,2.7c0.5,0.7,1,1.6,1.2,2.5l0.6,2.1l0.6-2.1
	c0.3-1,0.7-1.8,1.3-2.5c2.9-0.3,5.8-1.3,8.3-2.8c0.9,0.3,1.8,0.7,2.6,1.3l1.7,1.3l-0.7-2c-0.4-1-0.5-2-0.4-3c0.1,0,0.1-0.1,0.2-0.1
	c3.4-3.1,5.5-7.2,6.2-11.7h0.1c0.3,0,0.6-0.4,0.6-0.8C942.8,101.7,942.6,101.4,942.2,101.4L942.2,101.4z M934.3,96.6
	c-1,0-1.9-0.8-1.9-1.9s0.8-1.9,1.9-1.9c1.1,0,1.9,0.8,1.9,1.9S935.3,96.6,934.3,96.6z"/>
</svg>
