<?xml version="1.0" encoding="utf-8"?>
<!-- Generator: Adobe Illustrator 21.0.2, SVG Export Plug-In . SVG Version: 6.00 Build 0)  -->
<svg version="1.1" id="Layer_1" xmlns="http://www.w3.org/2000/svg" xmlns:xlink="http://www.w3.org/1999/xlink" x="0px" y="0px"
	 viewBox="0 0 1666.9 925.4" style="enable-background:new 0 0 1666.9 925.4;" xml:space="preserve">
<style type="text/css">
	.st0{opacity:0.33;}
	.st1{opacity:0.76;fill:none;stroke:#EFEFEF;stroke-miterlimit:10;enable-background:new    ;}
	.st2{opacity:0.44;fill:#EFEFEF;enable-background:new    ;}
	.st3{fill:#EFEFEF;}
	.st4{opacity:0.35;fill:none;stroke:#EFEFEF;stroke-miterlimit:10;enable-background:new    ;}
	.st5{fill:none;stroke:#EFEFEF;stroke-miterlimit:10;}
	.st6{opacity:0.75;fill:none;stroke:#EFEFEF;stroke-miterlimit:10;enable-background:new    ;}
	.st7{opacity:0.35;fill:#EFEFEF;enable-background:new    ;}
	.st8{opacity:0.75;fill:#EFEFEF;enable-background:new    ;}
	.st9{opacity:0.44;fill:none;stroke:#EFEFEF;stroke-miterlimit:10;enable-background:new    ;}
	.st10{opacity:0.76;fill:#EFEFEF;enable-background:new    ;}
</style>
<g class="st0">
	<path class="st1" d="M149,444.7c-9.6,1.4-13.7,6.8-12.9,15.8c1.2,12.5,19.4,19.6,28.3,15.2c4.7-2.3,7.8-6.2,7.9-11.4
		C172.3,453.2,160,443.1,149,444.7z"/>
	<path class="st2" d="M27.7,680.1c1.3,10.3,11.3,17.3,22.5,15.8c8.8-1.2,13.9-8.4,12.7-17.9c-1.3-10-9.6-16-20.4-14.7
		C32.8,664.5,26.6,671.5,27.7,680.1z"/>
	<path class="st2" d="M194.8,247.5c1.5-2.6,2.2-6.1,1.9-9.1c-0.8-6.8-7-11.4-16.1-11.3c-11.3,0.1-13.6,3.4-13,13.5
		c0.7,6.3,4,9.9,10.9,11.6C185.5,254,191.9,252.5,194.8,247.5z"/>
	<path class="st3" d="M164.4,405.9c11.4-1.1,16.4-6.9,15.3-17.6c-0.9-8.9-6.1-13.8-13.8-12.8c-8.5,1.1-16,10-15.2,17.7
		C151.6,400.8,157.8,406.5,164.4,405.9z"/>
	<path class="st3" d="M108.5,427.5c1.1,11.4,10.3,19.3,21.2,18c8.9-1,14.7-8,13.6-16.3c-1.2-8.7-12.1-16.2-22.2-15.2
		C112.4,414.9,107.7,419.9,108.5,427.5z"/>
	<path class="st4" d="M-31,516.7c1.1,11.4,10.3,19.3,21.2,18c8.9-1,14.7-8,13.6-16.3c-1.2-8.7-12.1-16.2-22.2-15.2
		C-27,504.1-31.7,509.2-31,516.7z"/>
	<path class="st2" d="M73.4,683c1.1,10.1,11.7,18.5,21.3,16.9c6.3-1,12.4-9.8,11.5-16.5c-1.3-9.3-12.2-16.5-22.8-14.9
		C75.8,669.7,72.4,674.6,73.4,683z"/>
	<path class="st2" d="M545.7,229.8c0.6,5.6,6.7,10.4,12.2,9.5c3.6-0.6,7.1-5.5,6.6-9.3c-0.7-5.2-7-9.2-13.1-8.3
		C547.1,222.4,545.2,225.1,545.7,229.8z"/>
	<path class="st5" d="M195.1,303.1c-7,0.9-14.7,10.1-14,16.8c0.8,7.8,9,14.5,16.7,13.7s16.8-10.8,15.9-17.4
		C212.9,309.4,202.6,302.2,195.1,303.1z"/>
	<path class="st6" d="M238.3,269.4c1,7.7,8.5,13.3,16.5,12.4c6.4-0.8,13.4-12.5,12.4-21.2c-0.8-7.4-6.6-11.9-14-11
		C244.1,250.8,237.1,260.1,238.3,269.4z"/>
	<path class="st2" d="M136.4,315.5c0.9,7.2,7.8,12.4,15.3,11.5c6-0.7,12.4-11.6,11.5-19.6c-0.7-6.8-6.1-11.1-12.9-10.2
		C141.9,298.2,135.3,306.9,136.4,315.5z"/>
	<path class="st2" d="M299.6,276.5c0.9,7.2,7.8,12.4,15.3,11.5c6-0.7,12.4-11.6,11.5-19.6c-0.7-6.8-6.1-11.1-12.9-10.2
		C305,259.3,298.5,267.9,299.6,276.5z"/>
	<path class="st3" d="M91.7,529.2c0.7,5.2,5.7,9,11.1,8.3c4.3-0.5,9-8.4,8.4-14.2c-0.5-5-4.4-8-9.4-7.4
		C95.7,516.6,90.9,522.9,91.7,529.2z"/>
	<path class="st1" d="M37.1,612.7c-0.6-7.2-8-12.3-16.2-11.3c-7.1,0.9-13.3,7.5-12.6,13.4c0.7,5.8,9.3,10.5,17.7,9.6
		C33.8,623.6,37.8,619.4,37.1,612.7z"/>
	<path class="st3" d="M281.2,252.5c-5.3,0.6-8.8,3.9-8.5,7.7c0.3,3.3,5.2,6.7,9.3,6.3c3.4-0.3,6.4-4.5,5.8-8.3
		C287.2,254,284.3,252.7,281.2,252.5z"/>
	<path class="st2" d="M143.6,350.3c-7,0.7-11.5,5.1-11.1,10c0.4,4.3,6.8,8.7,12.1,8.2c4.4-0.4,8.4-5.9,7.6-10.9
		C151.4,352.3,147.6,350.5,143.6,350.3z"/>
	<path class="st3" d="M405.4,265.7c-5.3,0.6-8.8,3.9-8.5,7.7c0.3,3.3,5.2,6.7,9.3,6.3c3.4-0.3,6.4-4.5,5.8-8.3
		C411.4,267.3,408.5,265.9,405.4,265.7z"/>
	<path class="st3" d="M67.6,651.3c-5.3,0.6-8.8,3.9-8.5,7.7c0.3,3.3,5.2,6.7,9.3,6.3c3.4-0.3,6.4-4.5,5.8-8.3
		C73.6,652.9,70.7,651.5,67.6,651.3z"/>
	<path class="st3" d="M75.7,586c-5.3,0.6-8.8,3.9-8.5,7.7c0.3,3.3,5.2,6.7,9.3,6.3c3.4-0.3,6.4-4.5,5.8-8.3
		C81.7,587.6,78.8,586.2,75.7,586z"/>
	<path class="st3" d="M21,511c-5.3,0.6-8.8,3.9-8.5,7.7c0.3,3.3,5.2,6.7,9.3,6.3c3.4-0.3,6.4-4.5,5.8-8.3
		C27,512.5,24.1,511.2,21,511z"/>
	<path class="st2" d="M142.5,399.1c-5.3,0.6-8.8,3.9-8.5,7.7c0.3,3.3,5.2,6.7,9.3,6.3c3.4-0.3,6.4-4.5,5.8-8.3
		C148.5,400.6,145.6,399.3,142.5,399.1z"/>
	<path class="st3" d="M63.2,499.8c-5.3,0.6-8.8,3.9-8.5,7.7c0.3,3.3,5.2,6.7,9.3,6.3c3.4-0.3,6.4-4.5,5.8-8.3
		C69.2,501.3,66.3,500,63.2,499.8z"/>
	<path class="st7" d="M84.3,537.5c3.3-5.6,1.1-15.8-5.1-19.4c-7.1-4.2-11.1,0.8-14.6,6.2c-4.9,7.7-4.3,14.3,1.8,18.5
		C72,546.6,80.3,544.2,84.3,537.5z"/>
	<path class="st7" d="M63.5,476.5c-4.3,0.7-8.4,6.2-7.6,10.9c0.9,5.4,5.2,5.2,9.4,4.7c6-0.9,9-4,8.5-8.8
		C73.4,478.8,68.6,475.6,63.5,476.5z"/>
	<path class="st8" d="M59.2,628c7.6-0.9,11.8-6.4,10.7-14.1c-1.2-8.7-5.7-12.7-13.1-11.8c-7.7,0.9-13.1,6.9-12.1,13.4
		C45.8,622.8,52.7,628.8,59.2,628z"/>
	<path class="st3" d="M-12.4,609.2c-7.6,0.8-12.1,6.6-11.3,14.6c0.8,7.9,6.4,12.4,14.4,11.5c6.7-0.7,10.4-6.7,9.5-14.9
		C-0.8,612.7-5.5,608.5-12.4,609.2z"/>
	<path class="st3" d="M4,542.4C-3.6,543.2-8.1,549-7.3,557c0.8,7.9,6.4,12.4,14.4,11.5c6.7-0.7,10.4-6.7,9.5-14.9
		C15.7,545.9,10.9,541.7,4,542.4z"/>
	<path class="st3" d="M8.5,584.5c1.5,7.7,8,6.7,12.6,7c9.9-1.2,15.1-6.4,13.9-13.4c-1.4-8.3-8.2-8.2-14.1-7.8
		C13.1,570.9,7.2,577.9,8.5,584.5z"/>
	<path class="st3" d="M89,596.5c1.5,7.7,8,6.7,12.6,7c9.9-1.2,15.1-6.4,13.9-13.4c-1.4-8.3-8.2-8.2-14.1-7.8
		C93.6,582.9,87.7,589.9,89,596.5z"/>
	<path class="st3" d="M304.9,251c6.6-0.5,11-6.6,10-15c-1.1-5.6-5.2-9.5-12.2-9.5c-5.8,0-9.8,7.7-8.9,15.5
		C294.6,249,298.6,251.5,304.9,251z"/>
	<path class="st4" d="M128.9,517.3c6.2-1,9.7-5.1,9.6-11.3c0-5.2-10-12.7-15.8-11c-3.8,1.1-7.6,3.2-8.5,9.1
		C113.4,509.9,122.4,518.4,128.9,517.3z"/>
	<path class="st9" d="M480.4,276.2c3.3-0.5,5.1-2.6,5.1-5.7c0-2.6-5.2-6.2-8.3-5.4c-2,0.6-4.2,3.1-4.3,5.5
		C473,273,477,276.8,480.4,276.2z"/>
	<path class="st2" d="M372,333.3c6.3-0.4,9.7-5.1,9.6-11.3c0-5.2-10-12.7-15.8-11C362.1,312.1,351.2,334.7,372,333.3z"/>
	<path class="st3" d="M25.1,659.5c-0.5-6.9-4.3-11.1-11.6-11.5c-6.1,0.4-11.4,6.8-10.7,13.6c0.7,7,6.1,7.5,11.5,7.1
		C19.9,668.3,25.7,667.1,25.1,659.5z"/>
	<ellipse transform="matrix(0.9911 -0.1328 0.1328 0.9911 -45.3192 36.1036)" class="st5" cx="248" cy="357.8" rx="6.4" ry="6.4"/>
	
		<ellipse transform="matrix(0.9911 -0.1328 0.1328 0.9911 -31.0513 30.2298)" class="st3" cx="211.1" cy="247.9" rx="6.4" ry="6.4"/>
	<ellipse transform="matrix(0.9911 -0.1328 0.1328 0.9911 -34.51 40.3714)" class="st3" cx="285.4" cy="278.9" rx="5.2" ry="5.2"/>
	
		<ellipse transform="matrix(0.9911 -0.1328 0.1328 0.9911 -43.2804 30.4719)" class="st3" cx="206.8" cy="339.7" rx="5.2" ry="5.2"/>
	<path class="st3" d="M-32.6,870.8"/>
	
		<ellipse transform="matrix(0.9911 -0.1328 0.1328 0.9911 -33.7755 30.3848)" class="st5" cx="210.9" cy="268.4" rx="6.4" ry="6.4"/>
	<ellipse transform="matrix(0.9911 -0.1328 0.1328 0.9911 -86.0808 10.3434)" class="st2" cx="34.5" cy="650.5" rx="7.7" ry="7.7"/>
	<ellipse transform="matrix(0.9911 -0.1328 0.1328 0.9911 -71.0293 8.4191)" class="st5" cx="27.6" cy="536.7" rx="7.4" ry="7.4"/>
	
		<ellipse transform="matrix(0.9911 -0.1328 0.1328 0.9911 -85.9822 22.2219)" class="st3" cx="123.6" cy="655.7" rx="10.5" ry="10.5"/>
	<ellipse transform="matrix(0.9911 -0.1328 0.1328 0.9911 -77.4906 3.9413)" class="st3" cx="-9.2" cy="582.9" rx="7.8" ry="7.8"/>
	
		<ellipse transform="matrix(0.9911 -0.1328 0.1328 0.9911 -39.4751 34.9268)" class="st3" cx="242.1" cy="313.4" rx="7.8" ry="7.8"/>
	
		<ellipse transform="matrix(0.9911 -0.1328 0.1328 0.9911 -55.1919 25.8774)" class="st3" cx="166.4" cy="426.7" rx="7.8" ry="7.8"/>
	<ellipse transform="matrix(0.9911 -0.1328 0.1328 0.9911 -53.6175 6.0839)" class="st3" cx="18.8" cy="405" rx="7.8" ry="7.8"/>
	
		<ellipse transform="matrix(0.9911 -0.1328 0.1328 0.9911 -35.8704 51.7737)" class="st5" cx="370.2" cy="294.8" rx="7.8" ry="7.8"/>
	<ellipse transform="matrix(0.9911 -0.1328 0.1328 0.9911 -80.0669 5.5137)" class="st3" cx="1.3" cy="603" rx="4.3" ry="4.3"/>
	
		<ellipse transform="matrix(0.9911 -0.1328 0.1328 0.9911 -63.0945 22.7896)" class="st5" cx="139.3" cy="484.4" rx="3.6" ry="3.6"/>
	<ellipse transform="matrix(0.9911 -0.1328 0.1328 0.9911 -85.8018 12.9259)" class="st5" cx="54" cy="649.7" rx="3.6" ry="3.6"/>
	<ellipse transform="matrix(0.9911 -0.1328 0.1328 0.9911 -83.8649 7.3677)" class="st5" cx="13.3" cy="632.4" rx="3.6" ry="3.6"/>
	
		<ellipse transform="matrix(0.9911 -0.1328 0.1328 0.9911 -50.0305 21.6648)" class="st5" cx="137.4" cy="385.9" rx="3.6" ry="3.6"/>
	<ellipse transform="matrix(0.9911 -0.1328 0.1328 0.9911 -51.8785 11.9572)" class="st5" cx="63.7" cy="394.9" rx="3.6" ry="3.6"/>
	<ellipse transform="matrix(0.9911 -0.1328 0.1328 0.9911 -40.1865 48.46)" class="st5" cx="343.2" cy="325.5" rx="3.6" ry="3.6"/>
	
		<ellipse transform="matrix(0.9911 -0.1328 0.1328 0.9911 -33.9685 87.2889)" class="st3" cx="637.4" cy="298.3" rx="3.6" ry="3.6"/>
	
		<ellipse transform="matrix(0.9911 -0.1328 0.1328 0.9911 -31.9914 32.9337)" class="st3" cx="230.9" cy="256.3" rx="3.6" ry="3.6"/>
	
		<ellipse transform="matrix(0.9911 -0.1328 0.1328 0.9911 -42.2185 42.3929)" class="st5" cx="296.7" cy="337.7" rx="3.6" ry="3.6"/>
	
		<ellipse transform="matrix(0.9911 -0.1328 0.1328 0.9911 -29.6079 66.4692)" class="st3" cx="483.5" cy="255.2" rx="3.6" ry="3.6"/>
	<ellipse transform="matrix(0.9911 -0.1328 0.1328 0.9911 -28.1802 55.676)" class="st3" cx="403.3" cy="239.1" rx="3.6" ry="3.6"/>
	<ellipse transform="matrix(0.9911 -0.1328 0.1328 0.9911 -45.5999 32.294)" class="st3" cx="219.3" cy="358" rx="3.6" ry="3.6"/>
	
		<ellipse transform="matrix(0.9911 -0.1328 0.1328 0.9911 -23.4408 35.7381)" class="st3" cx="256.2" cy="193.6" rx="3.6" ry="3.6"/>
	
		<ellipse transform="matrix(0.9911 -0.1328 0.1328 0.9911 -47.5957 24.1702)" class="st3" cx="157.4" cy="368.9" rx="3.6" ry="3.6"/>
	<ellipse transform="matrix(0.9911 -0.1328 0.1328 0.9911 -19.7836 4.5742)" class="st3" cx="24.4" cy="150.6" rx="3.6" ry="3.6"/>
	<ellipse transform="matrix(0.9911 -0.1328 0.1328 0.9911 -6.4664 2.0053)" class="st3" cx="11.8" cy="49.5" rx="3.6" ry="3.6"/>
	
		<ellipse transform="matrix(0.9911 -0.1328 0.1328 0.9911 -37.0982 54.9636)" class="st3" cx="393.5" cy="305.6" rx="3.6" ry="3.6"/>
	
		<ellipse transform="matrix(0.9911 -0.1328 0.1328 0.9911 -39.6886 57.7242)" class="st3" cx="412.9" cy="326.4" rx="3.6" ry="3.6"/>
	
		<ellipse transform="matrix(0.9911 -0.1328 0.1328 0.9911 -30.2796 46.3987)" class="st3" cx="332.7" cy="250.2" rx="3.6" ry="3.6"/>
	<ellipse transform="matrix(0.9911 -0.1328 0.1328 0.9911 -35.6207 23.3182)" class="st3" cx="157" cy="278.7" rx="8.1" ry="8.1"/>
	
		<ellipse transform="matrix(0.9911 -0.1328 0.1328 0.9911 -38.1044 41.0781)" class="st2" cx="288.9" cy="306.2" rx="11.3" ry="11.3"/>
	
		<ellipse transform="matrix(0.9911 -0.1328 0.1328 0.9911 -44.2846 24.8164)" class="st2" cx="163.9" cy="344.4" rx="11.3" ry="11.3"/>
	<ellipse transform="matrix(0.9911 -0.1328 0.1328 0.9911 -51.3962 3.5881)" class="st2" cx="1.2" cy="387.1" rx="11.3" ry="11.3"/>
	<path class="st3" d="M59.8,586.5c-0.6-4.4-4-5.9-9.1-6.9c-4.4-0.9-7.5,4.7-6.9,9.1c0.6,4.4,4.7,7.5,9.1,6.9S60.4,591,59.8,586.5z"
		/>
	<path class="st5" d="M62.4,556.3c0.9-6.6-6.9-11.2-13.5-10.3s-11.2,6.9-10.3,13.5s7.1,12,13.5,10.3
		C58.5,568.3,61.5,562.8,62.4,556.3z"/>
	
		<ellipse transform="matrix(0.9911 -0.1328 0.1328 0.9911 -35.8924 27.6448)" class="st3" cx="189.3" cy="282.9" rx="10.5" ry="10.5"/>
	
		<ellipse transform="matrix(0.9911 -0.1328 0.1328 0.9911 -73.2495 15.9303)" class="st3" cx="82.8" cy="557.1" rx="10.5" ry="10.5"/>
	
		<ellipse transform="matrix(0.9911 -0.1328 0.1328 0.9911 -42.8465 32.9774)" class="st3" cx="225.8" cy="337.7" rx="10.5" ry="10.5"/>
	
		<ellipse transform="matrix(0.9911 -0.1328 0.1328 0.9911 -46.5434 41.3475)" class="st3" cx="286.7" cy="369.6" rx="10.5" ry="10.5"/>
	<ellipse transform="matrix(0.9911 -0.1328 0.1328 0.9911 -83.6629 10.7957)" class="st3" cx="39.1" cy="632.6" rx="5.6" ry="5.6"/>
	<ellipse transform="matrix(0.9911 -0.1328 0.1328 0.9911 -80.4383 18.1439)" class="st5" cx="95.8" cy="612.1" rx="3.4" ry="3.4"/>
	<ellipse transform="matrix(0.9911 -0.1328 0.1328 0.9911 -68.7167 11.4929)" class="st5" cx="51.8" cy="520.9" rx="3.4" ry="3.4"/>
	<ellipse transform="matrix(0.9911 -0.1328 0.1328 0.9911 -65.27 14.5711)" class="st3" cx="76.6" cy="496.6" rx="3.4" ry="3.4"/>
	<ellipse transform="matrix(0.9911 -0.1328 0.1328 0.9911 -70.5768 11.4035)" class="st3" cx="50.2" cy="534.8" rx="3.4" ry="3.4"/>
	
		<ellipse transform="matrix(0.9911 -0.1328 0.1328 0.9911 -29.1507 22.3264)" class="st9" cx="152.8" cy="229.7" rx="3.4" ry="3.4"/>
	<ellipse transform="matrix(0.9911 -0.1328 0.1328 0.9911 -75.7426 13.949)" class="st9" cx="66.7" cy="574.8" rx="3.4" ry="3.4"/>
	<ellipse transform="matrix(0.9911 -0.1328 0.1328 0.9911 -92.4048 9.3246)" class="st3" cx="23.7" cy="697.4" rx="3.4" ry="3.4"/>
	<ellipse transform="matrix(0.9911 -0.1328 0.1328 0.9911 -81.445 16.0501)" class="st3" cx="79.6" cy="618.6" rx="3.4" ry="3.4"/>
	<ellipse transform="matrix(0.9911 -0.1328 0.1328 0.9911 -72.2087 3.3355)" class="st3" cx="-11.1" cy="543" rx="3.4" ry="3.4"/>
	
		<ellipse transform="matrix(0.9911 -0.1328 0.1328 0.9911 -33.4773 25.4562)" class="st5" cx="174.1" cy="263.7" rx="3.4" ry="3.4"/>
	<ellipse transform="matrix(0.9911 -0.1328 0.1328 0.9911 -5.366 3.9462)" class="st5" cx="26.9" cy="42.2" rx="3.4" ry="3.4"/>
	
		<ellipse transform="matrix(0.9911 -0.1328 0.1328 0.9911 -27.1305 17.6163)" class="st5" cx="118.5" cy="212.2" rx="3.4" ry="3.4"/>
	<ellipse transform="matrix(0.9911 -0.1328 0.1328 0.9911 -61.5118 13.5201)" class="st3" cx="70.6" cy="467.9" rx="3.4" ry="3.4"/>
	
		<ellipse transform="matrix(0.9911 -0.1328 0.1328 0.9911 -42.7284 46.1485)" class="st8" cx="324.6" cy="343.4" rx="3.4" ry="3.4"/>
	
		<ellipse transform="matrix(0.9911 -0.1328 0.1328 0.9911 -32.7779 22.7417)" class="st3" cx="154.1" cy="257.1" rx="3.4" ry="3.4"/>
	<ellipse transform="matrix(0.9911 -0.1328 0.1328 0.9911 -54.8458 23.6667)" class="st3" cx="150" cy="423" rx="3.4" ry="3.4"/>
	<ellipse transform="matrix(0.9911 -0.1328 0.1328 0.9911 -66.7582 16.4578)" class="st3" cx="90" cy="508.7" rx="3.4" ry="3.4"/>
	
		<ellipse transform="matrix(0.9911 -0.1328 0.1328 0.9911 -65.6833 18.5737)" class="st5" cx="106.4" cy="501.7" rx="3.4" ry="3.4"/>
	<ellipse transform="matrix(0.9911 -0.1328 0.1328 0.9911 -84.1905 13.6855)" class="st3" cx="60.5" cy="638" rx="3.4" ry="3.4"/>
	<ellipse transform="matrix(0.9911 -0.1328 0.1328 0.9911 -80.4884 2.3938)" class="st8" cx="-22.3" cy="604.6" rx="3.4" ry="3.4"/>
	<ellipse transform="matrix(0.9911 -0.1328 0.1328 0.9911 -89.9684 7.2546)" class="st3" cx="9.4" cy="678.1" rx="3.4" ry="3.4"/>
	<ellipse transform="matrix(0.9911 -0.1328 0.1328 0.9911 -84.6758 9.0091)" class="st3" cx="25.2" cy="639.3" rx="3.4" ry="3.4"/>
	
		<ellipse transform="matrix(0.9911 -0.1328 0.1328 0.9911 -35.8727 33.1392)" class="st3" cx="230.5" cy="285.5" rx="3.4" ry="3.4"/>
	<ellipse transform="matrix(0.9911 -0.1328 0.1328 0.9911 -71.9559 18.9254)" class="st5" cx="105.9" cy="548.9" rx="5" ry="5"/>
	<ellipse transform="matrix(0.9911 -0.1328 0.1328 0.9911 -38.4838 25.7901)" class="st3" cx="174.1" cy="301.4" rx="5" ry="5"/>
	<ellipse transform="matrix(0.9911 -0.1328 0.1328 0.9911 -47.85 19.5585)" class="st3" cx="122.7" cy="368.5" rx="5" ry="5"/>
	<ellipse transform="matrix(0.9911 -0.1328 0.1328 0.9911 -50.5125 10.8389)" class="st3" cx="56" cy="384.1" rx="5" ry="5"/>
	<ellipse transform="matrix(0.9911 -0.1328 0.1328 0.9911 -32.3019 70.4772)" class="st5" cx="512.2" cy="277.4" rx="5" ry="5"/>
	<ellipse transform="matrix(0.9911 -0.1328 0.1328 0.9911 -33.0525 76.023)" class="st3" cx="553.4" cy="285.8" rx="5" ry="5"/>
	<ellipse transform="matrix(0.9911 -0.1328 0.1328 0.9911 -37.8111 48.2749)" class="st3" cx="343" cy="307.6" rx="5" ry="5"/>
	
		<ellipse transform="matrix(0.9911 -0.1328 0.1328 0.9911 -37.2349 45.3152)" class="st9" cx="321.1" cy="301.8" rx="5.9" ry="5.9"/>
	
		<ellipse transform="matrix(0.9911 -0.1328 0.1328 0.9911 -27.7982 70.4036)" class="st2" cx="513.9" cy="243.6" rx="5.9" ry="5.9"/>
	<ellipse transform="matrix(0.9911 -0.1328 0.1328 0.9911 -31.8846 52.535)" class="st2" cx="377.9" cy="265.3" rx="5.9" ry="5.9"/>
	
		<ellipse transform="matrix(0.9911 -0.1328 0.1328 0.9911 -36.1774 84.7684)" class="st9" cx="617.4" cy="313.6" rx="5.9" ry="5.9"/>
	<ellipse transform="matrix(0.9911 -0.1328 0.1328 0.9911 -40.8747 37.9414)" class="st2" cx="264" cy="325.4" rx="6.1" ry="6.1"/>
	<ellipse transform="matrix(0.9911 -0.1328 0.1328 0.9911 -29.199 64.401)" class="st2" cx="468.2" cy="251.1" rx="6.1" ry="6.1"/>
	<ellipse transform="matrix(0.9911 -0.1328 0.1328 0.9911 -33.9324 49.2301)" class="st2" cx="352.1" cy="279" rx="6.1" ry="6.1"/>
	
		<ellipse transform="matrix(0.9911 -0.1328 0.1328 0.9911 -35.6445 55.7604)" class="st2" cx="400.2" cy="295.1" rx="6.1" ry="6.1"/>
	<path class="st3" d="M443.5,250.2c-7,0.9-14.7,10.1-14,16.8c0.8,7.8,9,14.5,16.7,13.7s16.8-10.8,15.9-17.4
		C461.3,256.5,451,249.3,443.5,250.2z"/>
	<path class="st8" d="M665.3,308c0.6,4.4,4.8,7.6,9.4,7c3.7-0.4,7.6-7.1,7.1-12c-0.5-4.2-3.7-6.8-7.9-6.3
		C668.7,297.4,664.7,302.7,665.3,308z"/>
	<path class="st2" d="M525.5,293.1c0.7,5.1,5.6,8.8,10.9,8.2c4.2-0.5,8.8-8.3,8.2-14c-0.5-4.9-4.3-7.9-9.2-7.3
		C529.3,280.7,524.7,286.9,525.5,293.1z"/>
	
		<ellipse transform="matrix(0.9911 -0.1328 0.1328 0.9911 -33.2209 95.4959)" class="st5" cx="699.3" cy="296.8" rx="5.7" ry="5.7"/>
	
		<ellipse transform="matrix(0.9911 -0.1328 0.1328 0.9911 -30.0172 87.3321)" class="st3" cx="639.7" cy="268.7" rx="6.4" ry="6.4"/>
	
		<ellipse transform="matrix(0.9911 -0.1328 0.1328 0.9911 -37.4332 101.5394)" class="st3" cx="742.5" cy="331.4" rx="3.6" ry="3.6"/>
	
		<ellipse transform="matrix(0.9911 -0.1328 0.1328 0.9911 -25.0602 87.8552)" class="st5" cx="646.1" cy="231.8" rx="3.6" ry="3.6"/>
	<ellipse transform="matrix(0.9911 -0.1328 0.1328 0.9911 -31.8625 80.2654)" class="st5" cx="585.8" cy="279" rx="8.1" ry="8.1"/>
	
		<ellipse transform="matrix(0.9911 -0.1328 0.1328 0.9911 -35.5422 98.0918)" class="st9" cx="717.6" cy="315.5" rx="4.8" ry="4.8"/>
	
		<ellipse transform="matrix(0.9911 -0.1328 0.1328 0.9911 -35.0503 59.0689)" class="st5" cx="425.3" cy="292.3" rx="10.5" ry="10.5"/>
	
		<ellipse transform="matrix(0.9911 -0.1328 0.1328 0.9911 -27.4477 67.4589)" class="st3" cx="492" cy="239.5" rx="10.5" ry="10.5"/>
	<ellipse transform="matrix(0.9911 -0.1328 0.1328 0.9911 -29.719 82.4035)" class="st3" cx="602.9" cy="264" rx="3.4" ry="3.4"/>
	<ellipse transform="matrix(0.9911 -0.1328 0.1328 0.9911 -30.0734 73.69)" class="st5" cx="537.4" cy="262.3" rx="3.4" ry="3.4"/>
	
		<ellipse transform="matrix(0.9911 -0.1328 0.1328 0.9911 -24.3899 63.7068)" class="st5" cx="465.4" cy="214.7" rx="3.4" ry="3.4"/>
	
		<ellipse transform="matrix(0.9911 -0.1328 0.1328 0.9911 -35.0757 68.4879)" class="st3" cx="495.9" cy="297.2" rx="3.4" ry="3.4"/>
	
		<ellipse transform="matrix(0.9911 -0.1328 0.1328 0.9911 -32.1145 90.0865)" class="st5" cx="659.3" cy="285.8" rx="3.4" ry="3.4"/>
	
		<ellipse transform="matrix(0.9911 -0.1328 0.1328 0.9911 -36.4408 72.8208)" class="st5" cx="527.7" cy="309.6" rx="3.4" ry="3.4"/>
	<ellipse transform="matrix(0.9911 -0.1328 0.1328 0.9911 -34.7256 82.7374)" class="st3" cx="602.9" cy="301.7" rx="5" ry="5"/>
	<ellipse transform="matrix(0.9911 -0.1328 0.1328 0.9911 -26.578 78.0989)" class="st3" cx="572.2" cy="238.3" rx="5" ry="5"/>
	<ellipse transform="matrix(0.9911 -0.1328 0.1328 0.9911 -38.0504 96.485)" class="st2" cx="704.3" cy="333.5" rx="6.1" ry="6.1"/>
	
		<ellipse transform="matrix(0.9911 -0.1328 0.1328 0.9911 -37.8878 59.1247)" class="st2" cx="424.3" cy="313.6" rx="6.1" ry="6.1"/>
	
		<ellipse transform="matrix(0.9911 -0.1328 0.1328 0.9911 -46.3083 27.4725)" class="st2" cx="182.8" cy="360.9" rx="6.1" ry="6.1"/>
	<ellipse transform="matrix(0.9911 -0.1328 0.1328 0.9911 -73.9447 8.7069)" class="st2" cx="28.3" cy="558.7" rx="6.1" ry="6.1"/>
	<path class="st3" d="M108.3,253.2c0.9,11.4,9.9,19.5,20.8,18.5c8.9-0.8,14.9-7.7,13.9-16c-1-8.7-11.8-16.5-21.9-15.7
		C112.5,240.6,107.7,245.6,108.3,253.2z"/>
	<path class="st4" d="M-38.6,296.1c1.1,11.4,10.3,19.3,21.2,18c8.9-1,14.7-8,13.6-16.3c-1.2-8.7-12.1-16.2-22.2-15.2
		C-34.6,283.5-39.3,288.5-38.6,296.1z"/>
	<path class="st3" d="M84.2,308.6c0.7,5.2,5.7,9,11.1,8.3c4.3-0.5,9-8.4,8.4-14.2c-0.5-5-4.4-8-9.4-7.4
		C88.1,296,83.4,302.3,84.2,308.6z"/>
	<path class="st3" d="M13.4,290.3c-5.3,0.6-8.8,3.9-8.5,7.7c0.3,3.3,5.2,6.7,9.3,6.3c3.4-0.3,6.4-4.5,5.8-8.3
		C19.4,291.9,16.5,290.5,13.4,290.3z"/>
	<path class="st7" d="M76.8,316.9c3.3-5.6,1.1-15.8-5.1-19.4c-7.1-4.2-11.1,0.8-14.6,6.2c-4.9,7.7-4.3,14.3,1.8,18.5
		C64.4,326,72.8,323.6,76.8,316.9z"/>
	<path class="st3" d="M-3.5,321.8c-7.6,0.8-12.1,6.6-11.3,14.6c0.8,7.9,6.4,12.4,14.4,11.5c6.7-0.7,10.4-6.7,9.5-14.9
		C8.1,325.3,3.3,321-3.5,321.8z"/>
	<path class="st3" d="M0.9,363.9c1.5,7.7,8,6.7,12.6,7c9.9-1.2,15.1-6.4,13.9-13.4c-1.4-8.3-8.2-8.2-14.1-7.8
		C5.5,350.3-0.4,357.3,0.9,363.9z"/>
	<path class="st4" d="M121.3,296.7c6.2-1,9.7-5.1,9.6-11.3c0-5.2-10-12.7-15.8-11c-3.8,1.1-7.6,3.2-8.5,9.1S114.8,297.7,121.3,296.7
		z"/>
	<path class="st7" d="M121.2,327.9c-6.1,0.9-7.8,5.7-6.3,10.1c1,3.1,4,7.5,8.6,7.4c4.5-0.1,9.8-5.5,9.7-10.9
		C133,329.7,127.4,326.9,121.2,327.9z"/>
	<path class="st3" d="M120.4,320.8c5.5-2.1,6.1-5.9,6.2-10c0.1-3.8-2.8-8.6-8.2-7.9c-12.3,1.7-11.2,10.3-9.4,13.5
		C110.9,319.6,114.9,322.9,120.4,320.8z"/>
	<ellipse transform="matrix(0.9911 -0.1328 0.1328 0.9911 -41.8009 5.4558)" class="st5" cx="20" cy="316.1" rx="7.4" ry="7.4"/>
	<ellipse transform="matrix(0.9911 -0.1328 0.1328 0.9911 -46.6354 14.7688)" class="st7" cx="87.4" cy="357" rx="7.1" ry="7.1"/>
	<ellipse transform="matrix(0.9911 -0.1328 0.1328 0.9911 -54.6419 3.3243)" class="st3" cx="-2.4" cy="411.3" rx="7.8" ry="7.8"/>
	<ellipse transform="matrix(0.9911 -0.1328 0.1328 0.9911 -44.94 16.79)" class="st3" cx="103.4" cy="345.3" rx="5" ry="5"/>
	<path class="st3" d="M52.2,365.9c-0.6-4.4-4-5.9-9.1-6.9c-4.4-0.9-7.5,4.7-6.9,9.1s4.7,7.5,9.1,6.9S52.8,370.4,52.2,365.9z"/>
	<path class="st5" d="M54.9,335.7c0.9-6.6-6.9-11.2-13.5-10.3s-11.2,6.9-10.3,13.5s7.1,12,13.5,10.3C51,347.6,53.9,342.2,54.9,335.7
		z"/>
	
		<ellipse transform="matrix(0.9911 -0.1328 0.1328 0.9911 -44.0202 12.9804)" class="st3" cx="75.3" cy="336.5" rx="10.5" ry="10.5"/>
	<ellipse transform="matrix(0.9911 -0.1328 0.1328 0.9911 -39.4883 8.5296)" class="st5" cx="44.2" cy="300.3" rx="3.4" ry="3.4"/>
	
		<ellipse transform="matrix(0.9911 -0.1328 0.1328 0.9911 -46.6982 17.2274)" class="st5" cx="105.8" cy="358.7" rx="3.4" ry="3.4"/>
	<ellipse transform="matrix(0.9911 -0.1328 0.1328 0.9911 -41.3484 8.4403)" class="st3" cx="42.6" cy="314.2" rx="3.4" ry="3.4"/>
	<ellipse transform="matrix(0.9911 -0.1328 0.1328 0.9911 -46.5143 10.9858)" class="st9" cx="59.1" cy="354.2" rx="3.4" ry="3.4"/>
	<ellipse transform="matrix(0.9911 -0.1328 0.1328 0.9911 -58.4735 6.2744)" class="st3" cx="17.8" cy="441.5" rx="3.4" ry="3.4"/>
	<ellipse transform="matrix(0.9911 -0.1328 0.1328 0.9911 -37.5289 13.5078)" class="st3" cx="82.5" cy="288.1" rx="3.4" ry="3.4"/>
	<ellipse transform="matrix(0.9911 -0.1328 0.1328 0.9911 -36.4549 15.6105)" class="st5" cx="98.8" cy="281.1" rx="3.4" ry="3.4"/>
	<ellipse transform="matrix(0.9911 -0.1328 0.1328 0.9911 -42.7275 15.9621)" class="st5" cx="98.3" cy="328.3" rx="5" ry="5"/>
	<path class="st2" d="M-2.9,97.7C-1.6,108,8.4,115,19.6,113.5c8.8-1.2,13.9-8.4,12.7-17.9c-1.3-10-9.6-16-20.4-14.7
		C2.2,82.1-4,89.1-2.9,97.7z"/>
	<path class="st2" d="M-1.9,182.4c1.3,10.3,11.3,17.3,22.5,15.8c8.8-1.2,13.9-8.4,12.7-17.9c-1.3-10-9.6-16-20.4-14.7
		C3.2,166.7-3,173.8-1.9,182.4z"/>
	<path class="st10" d="M53.6,131.1c-1.8-5-6.6-7-12.5-4.9c-5.1,1.8-8.1,7.5-6.4,12.3c1.5,4.3,7.3,6.3,12.8,4.3
		C52.8,140.9,55.3,136,53.6,131.1z"/>
	<path class="st2" d="M-35,205.1c1.5-2.6,2.2-6.1,1.9-9.1c-0.8-6.8-7-11.4-16.1-11.3c-11.3,0.1-13.6,3.4-13,13.5
		c0.7,6.3,4,9.9,10.9,11.6C-44.2,211.7-37.8,210.2-35,205.1z"/>
	<path class="st5" d="M-20,245.7c-7,0.9-14.7,10.1-14,16.8c0.8,7.8,9,14.5,16.7,13.7s16.8-10.8,15.9-17.4
		C-2.2,252-12.5,244.8-20,245.7z"/>
	<path class="st6" d="M8.5,227.1c1,7.7,8.5,13.3,16.5,12.4c6.4-0.8,13.4-12.5,12.4-21.2c-0.8-7.4-6.6-11.9-14-11
		C14.4,208.4,7.3,217.7,8.5,227.1z"/>
	<path class="st2" d="M24.6,493.6c0.9,7.2,7.8,12.4,15.3,11.5c6-0.7,12.4-11.6,11.5-19.6c-0.7-6.8-6.1-11.1-12.9-10.2
		C30,476.3,23.5,485,24.6,493.6z"/>
	<path class="st2" d="M69.8,234.2c0.9,7.2,7.8,12.4,15.3,11.5c6-0.7,12.4-11.6,11.5-19.6c-0.7-6.8-6.1-11.1-12.9-10.2
		C75.3,216.9,68.7,225.5,69.8,234.2z"/>
	<path class="st3" d="M51.4,210.1c-5.3,0.6-8.8,3.9-8.5,7.7c0.3,3.3,5.2,6.7,9.3,6.3c3.4-0.3,6.4-4.5,5.8-8.3
		C57.4,211.7,54.5,210.3,51.4,210.1z"/>
	<path class="st9" d="M-45.6,163.2c-5.3,0.6-8.8,3.9-8.5,7.7c0.3,3.3,5.2,6.7,9.3,6.3c3.4-0.3,6.4-4.5,5.8-8.3
		C-39.6,164.8-42.5,163.4-45.6,163.2z"/>
	<path class="st3" d="M75.1,208.7c6.6-0.5,11-6.6,10-15c-1.1-5.6-5.2-9.5-12.2-9.5c-5.8,0-9.8,7.7-8.9,15.5
		C64.8,206.6,68.8,209.1,75.1,208.7z"/>
	<path class="st3" d="M25,134.4c4-0.3,6.7-4,6-9c-0.6-3.4-3.2-5.7-7.4-5.7c-3.5,0-5.9,4.7-5.4,9.4C18.8,133.1,21.2,134.7,25,134.4z"
		/>
	
		<ellipse transform="matrix(0.9911 -0.1328 0.1328 0.9911 -27.4551 -0.6499)" class="st3" cx="-18.6" cy="205.5" rx="6.4" ry="6.4"/>
	<ellipse transform="matrix(0.9911 -0.1328 0.1328 0.9911 -30.9147 9.4784)" class="st3" cx="55.6" cy="236.5" rx="5.2" ry="5.2"/>
	<ellipse transform="matrix(0.9911 -0.1328 0.1328 0.9911 -30.1793 -0.4949)" class="st5" cx="-18.8" cy="226" rx="6.4" ry="6.4"/>
	<ellipse transform="matrix(0.9911 -0.1328 0.1328 0.9911 -35.8798 4.0338)" class="st3" cx="12.3" cy="271" rx="7.8" ry="7.8"/>
	<ellipse transform="matrix(0.9911 -0.1328 0.1328 0.9911 -24.2556 -1.677)" class="st5" cx="-24.7" cy="181" rx="3.6" ry="3.6"/>
	<ellipse transform="matrix(0.9911 -0.1328 0.1328 0.9911 -14.7531 6.2128)" class="st5" cx="39.2" cy="113.7" rx="3.6" ry="3.6"/>
	<ellipse transform="matrix(0.9911 -0.1328 0.1328 0.9911 -28.3962 2.0407)" class="st3" cx="1.1" cy="213.9" rx="3.6" ry="3.6"/>
	
		<ellipse transform="matrix(0.9911 -0.1328 0.1328 0.9911 -29.1013 18.0679)" class="st3" cx="120.9" cy="227.2" rx="3.6" ry="3.6"/>
	
		<ellipse transform="matrix(0.9911 -0.1328 0.1328 0.9911 -49.1772 17.0593)" class="st3" cx="103.3" cy="377.2" rx="8.1" ry="8.1"/>
	
		<ellipse transform="matrix(0.9911 -0.1328 0.1328 0.9911 -34.5091 10.1851)" class="st2" cx="59.1" cy="263.8" rx="11.3" ry="11.3"/>
	
		<ellipse transform="matrix(0.9911 -0.1328 0.1328 0.9911 -32.3095 -3.234)" class="st3" cx="-40.4" cy="240.6" rx="10.5" ry="10.5"/>
	
		<ellipse transform="matrix(0.9911 -0.1328 0.1328 0.9911 -59.9489 20.5522)" class="st9" cx="124.1" cy="459.7" rx="3.4" ry="3.4"/>
	<ellipse transform="matrix(0.9911 -0.1328 0.1328 0.9911 -29.882 -5.4368)" class="st5" cx="-55.7" cy="221.3" rx="3.4" ry="3.4"/>
	<ellipse transform="matrix(0.9911 -0.1328 0.1328 0.9911 -32.2766 2.2595)" class="st3" cx="0.8" cy="243.1" rx="3.4" ry="3.4"/>
	<ellipse transform="matrix(0.9911 -0.1328 0.1328 0.9911 -50.2673 6.5141)" class="st3" cx="23.7" cy="380.1" rx="5" ry="5"/>
	<ellipse transform="matrix(0.9911 -0.1328 0.1328 0.9911 -26.4452 19.6915)" class="st3" cx="134.4" cy="208.1" rx="5" ry="5"/>
	<ellipse transform="matrix(0.9911 -0.1328 0.1328 0.9911 -33.6529 14.4231)" class="st9" cx="91.3" cy="259.5" rx="5.9" ry="5.9"/>
	<ellipse transform="matrix(0.9911 -0.1328 0.1328 0.9911 -37.2786 7.0617)" class="st2" cx="34.3" cy="283" rx="6.1" ry="6.1"/>
	
		<ellipse transform="matrix(0.9911 -0.1328 0.1328 0.9911 -24.3506 17.6977)" class="st2" cx="120.5" cy="191.4" rx="6.1" ry="6.1"/>
	<path class="st3" d="M-6.3,152.6c0.7,5.2,5.7,9,11.1,8.3c4.3-0.5,9-8.4,8.4-14.2c-0.5-5-4.4-8-9.4-7.4
		C-2.4,140-7.1,146.3-6.3,152.6z"/>
	<path class="st3" d="M42.6,151.1c-5.3,0.6-8.8,3.9-8.5,7.7c0.3,3.3,5.2,6.7,9.3,6.3c3.4-0.3,6.4-4.5,5.8-8.3
		C48.6,152.6,45.7,151.3,42.6,151.1z"/>
	<path class="st7" d="M-13.7,160.9c3.3-5.6,1.1-15.8-5.1-19.4c-7.1-4.2-11.1,0.8-14.6,6.2c-4.9,7.7-4.3,14.3,1.8,18.5
		C-26,170-17.7,167.6-13.7,160.9z"/>
	<path class="st2" d="M3.5,449.5c-3,0.3-6.3,1.7-8.5,3.6c-5.1,4.5-5.3,12.3-0.1,19.6c6.5,9.2,10.6,9.2,18.5,3
		c4.8-4.1,5.8-9,3.3-15.6C14.1,453.4,9.2,449,3.5,449.5z"/>
	<path class="st2" d="M92.6,458.5c5.4-4.8,5.7-13.5,0.7-19.1c-4-4.5-16.6-3.5-22.7,1.8c-5.2,4.5-5.6,11.3-1,16.4
		C75.3,464,86.2,464.4,92.6,458.5z"/>
	<path class="st9" d="M116.5,484.9c4.8,2.3,9.6,1.2,11.3-2.1c1.5-3-1-8.4-4.7-10.2c-3-1.5-7.8,0.5-9.3,4.1
		C112.2,480.5,113.9,483.1,116.5,484.9z"/>
	
		<ellipse transform="matrix(0.7375 -0.6754 0.6754 0.7375 -295.8601 110.7192)" class="st3" cx="-5.5" cy="435.9" rx="6.4" ry="6.4"/>
	
		<ellipse transform="matrix(0.7375 -0.6754 0.6754 0.7375 -283.5778 119.094)" class="st5" cx="11.4" cy="424.3" rx="6.4" ry="6.4"/>
	
		<ellipse transform="matrix(0.4034 -0.915 0.915 0.4034 -355.5507 372.3359)" class="st5" cx="107.8" cy="458.8" rx="3.6" ry="3.6"/>
	<ellipse transform="matrix(0.9911 -0.1328 0.1328 0.9911 -49.4747 14.598)" class="st9" cx="84.7" cy="378.2" rx="3.4" ry="3.4"/>
	<path class="st9" d="M77.1,403.5c4.8,2.3,9.6,1.2,11.3-2.1c1.5-3-1-8.4-4.7-10.2c-3-1.5-7.8,0.5-9.3,4.1
		C72.8,399,74.5,401.7,77.1,403.5z"/>
	<ellipse transform="matrix(0.4034 -0.915 0.915 0.4034 -304.2676 287.827)" class="st5" cx="68.6" cy="377.2" rx="3.6" ry="3.6"/>
	
		<ellipse transform="matrix(0.7375 -0.6754 0.6754 0.7375 -299.1994 155.7102)" class="st3" cx="50.7" cy="462.7" rx="8.1" ry="8.1"/>
	
		<ellipse transform="matrix(0.7375 -0.6754 0.6754 0.7375 -283.6236 137.987)" class="st3" cx="35.7" cy="433.8" rx="10.5" ry="10.5"/>
	
		<ellipse transform="matrix(0.7375 -0.6754 0.6754 0.7375 -330.405 138.4489)" class="st9" cx="12.9" cy="494.2" rx="3.4" ry="3.4"/>
	
		<ellipse transform="matrix(0.7375 -0.6754 0.6754 0.7375 -238.9936 164.8031)" class="st9" cx="92.5" cy="389.8" rx="3.4" ry="3.4"/>
	
		<ellipse transform="matrix(0.7375 -0.6754 0.6754 0.7375 -301.2885 139.3521)" class="st5" cx="28.6" cy="457.2" rx="3.4" ry="3.4"/>
	<ellipse transform="matrix(0.7375 -0.6754 0.6754 0.7375 -283.4547 153.626)" class="st3" cx="55.9" cy="441.4" rx="5" ry="5"/>
	<path class="st7" d="M88.1,470.3c-5.8,3-9.2,12.9-5.8,19.2c3.9,7.3,9.9,5.1,15.7,2.4c8.2-4,11.1-10,8.1-16.7
		C103.3,469,94.9,466.7,88.1,470.3z"/>
	<path class="st7" d="M125.6,533.3c-5.8,3-9.2,12.9-5.8,19.2c3.9,7.3,9.9,5.1,15.7,2.4c8.2-4,11.1-10,8.1-16.7
		C140.8,532,132.4,529.7,125.6,533.3z"/>
	<path class="st4" d="M33.6,269.6c6.2-1,9.7-5.1,9.6-11.3c0-5.2-10-12.7-15.8-11c-3.8,1.1-7.6,3.2-8.5,9.1
		C18,262.3,27.1,270.7,33.6,269.6z"/>
	<ellipse transform="matrix(0.9911 -0.1328 0.1328 0.9911 -23.0432 8.0997)" class="st5" cx="49.2" cy="176.8" rx="7.4" ry="7.4"/>
	<ellipse transform="matrix(0.9911 -0.1328 0.1328 0.9911 -25.2236 14.4078)" class="st5" cx="95.4" cy="196.3" rx="3.4" ry="3.4"/>
	<ellipse transform="matrix(0.9911 -0.1328 0.1328 0.9911 -22.5907 11.0842)" class="st3" cx="71.8" cy="174.9" rx="3.4" ry="3.4"/>
	<ellipse transform="matrix(0.9911 -0.1328 0.1328 0.9911 -17.6137 0.1076)" class="st3" cx="-8" cy="132.1" rx="3.4" ry="3.4"/>
	<ellipse transform="matrix(0.9911 -0.1328 0.1328 0.9911 -16.5389 2.2236)" class="st5" cx="8.4" cy="125.1" rx="3.4" ry="3.4"/>
	<ellipse transform="matrix(0.9911 -0.1328 0.1328 0.9911 -25.9489 8.5336)" class="st3" cx="51" cy="198.8" rx="5" ry="5"/>
	<ellipse transform="matrix(0.9911 -0.1328 0.1328 0.9911 -44.7154 5.7569)" class="st2" cx="20.8" cy="338.1" rx="6.1" ry="6.1"/>
	<path class="st3" d="M90.3,421.4c0.1-5.4-2.9-9.2-6.6-9.3c-3.3-0.1-7.2,4.4-7.3,8.5c-0.1,3.4,3.7,6.9,7.6,6.8
		C88,427.2,89.7,424.5,90.3,421.4z"/>
	<path class="st7" d="M53.9,398.4c-0.3-6.5-7.8-13.7-15-13.3c-8.2,0.5-8.8,6.8-8.7,13.3c0.2,9.2,4.4,14.3,11.7,14.4
		C48.7,412.8,54.3,406.1,53.9,398.4z"/>
	<path class="st3" d="M114.7,404.3c0.1-6.3-4.2-10.5-10.8-10.6c-6.5-0.1-10.7,4-10.7,10.6c0,5.5,4.4,9.1,11.2,9.2
		C110.7,413.5,114.6,410,114.7,404.3z"/>
	
		<ellipse transform="matrix(0.9999 -1.402057e-02 1.402057e-02 0.9999 -5.7829 0.9267)" class="st9" cx="63.2" cy="412.9" rx="7.7" ry="7.7"/>
	
		<ellipse transform="matrix(0.9999 -1.402057e-02 1.402057e-02 0.9999 -5.4365 1.7319)" class="st7" cx="120.8" cy="388.6" rx="7.1" ry="7.1"/>
	
		<ellipse transform="matrix(0.9999 -1.402057e-02 1.402057e-02 0.9999 -6.0654 1.4236)" class="st5" cx="98.5" cy="433.3" rx="3.4" ry="3.4"/>
	
		<ellipse transform="matrix(0.9999 -1.402057e-02 1.402057e-02 0.9999 -6.0085 0.9381)" class="st3" cx="63.9" cy="429" rx="3.4" ry="3.4"/>
	<path class="st2" d="M-84.1,74.7C-82.8,85-72.8,92-61.6,90.5c8.8-1.2,13.9-8.4,12.7-17.9c-1.3-10-9.6-16-20.4-14.7
		C-78.9,59.1-85.2,66.1-84.1,74.7z"/>
	<path class="st2" d="M2.4,67.2c0.7,5.8,6.3,9.7,12.6,8.9c4.9-0.7,7.8-4.7,7.1-10c-0.7-5.6-5.4-9-11.4-8.2
		C5.3,58.5,1.8,62.4,2.4,67.2z"/>
	<path class="st10" d="M9.7,10.9c-1.8-5-6.6-7-12.5-4.9c-5.1,1.8-8.1,7.5-6.4,12.3c1.5,4.3,7.3,6.3,12.8,4.3
		C8.8,20.7,11.4,15.9,9.7,10.9z"/>
	<path class="st3" d="M-43.9-5.8c-5.3,0.6-8.8,3.9-8.5,7.7c0.3,3.3,5.2,6.7,9.3,6.3c3.4-0.3,6.4-4.5,5.8-8.3
		C-37.9-4.3-40.8-5.6-43.9-5.8z"/>
	<path class="st9" d="M25.5-0.2c-5.3,0.6-8.8,3.9-8.5,7.7c0.3,3.3,5.2,6.7,9.3,6.3c3.4-0.3,6.4-4.5,5.8-8.3
		C31.5,1.4,28.6,0,25.5-0.2z"/>
	<path class="st3" d="M23.4,21.2c-5.3,0.6-8.8,3.9-8.5,7.7c0.3,3.3,5.2,6.7,9.3,6.3c3.4-0.3,6.4-4.5,5.8-8.3
		C29.4,22.7,26.5,21.4,23.4,21.2z"/>
	<path class="st3" d="M102.6,182.2c4-0.3,6.7-4,6-9c-0.6-3.4-3.2-5.7-7.4-5.7c-3.5,0-5.9,4.7-5.4,9.4
		C96.4,181,98.8,182.5,102.6,182.2z"/>
	<ellipse transform="matrix(0.9911 -0.1328 0.1328 0.9911 -4.9021 0.5003)" class="st3" cx="1.3" cy="37" rx="5.2" ry="5.2"/>
	
		<ellipse transform="matrix(0.9911 -0.1328 0.1328 0.9911 -25.9431 25.6206)" class="st5" cx="179.1" cy="207.3" rx="3.6" ry="3.6"/>
	<ellipse transform="matrix(0.9911 -0.1328 0.1328 0.9911 -19.3593 9.9348)" class="st9" cx="64.8" cy="150.1" rx="3.4" ry="3.4"/>
	<path class="st4" d="M209.9,917.5c-5.2,10.7-1.3,22.6,9,27.4c8.4,3.9,17.3,0.9,20.8-7.1c3.7-8.3-1.9-20.9-11.4-25.4
		C220.2,908.5,213.4,910.4,209.9,917.5z"/>
	<path class="st3" d="M170.7,922.3c-2.2,5,0.2,11,5.3,13.4c4.1,1.9,12.5-2.6,15.1-8.1c2.2-4.7,0.4-9.5-4.3-11.6
		C181,913.3,173.4,916.3,170.7,922.3z"/>
	<path class="st3" d="M-2,895c-5-2.4-9.9-1.3-11.7,2.2c-1.5,3.1,1,8.7,4.8,10.6c3.2,1.5,8.1-0.5,9.6-4.2C2.5,899.6,0.6,896.8-2,895z
		"/>
	<path class="st3" d="M41.4,907.9c-5-2.4-9.9-1.3-11.7,2.2c-1.5,3.1,1,8.7,4.8,10.6c3.2,1.5,8.1-0.5,9.6-4.2
		C45.8,912.5,44,909.7,41.4,907.9z"/>
	<path class="st7" d="M39.7,952.7c6-3.2,9.5-13.3,6-19.9c-4-7.5-10.3-5.3-16.3-2.5c-8.5,4.2-11.5,10.3-8.4,17.3
		C23.9,954.1,32.6,956.4,39.7,952.7z"/>
	<path class="st7" d="M54.2,887.5c-4.2-1.6-10.8,1-12.6,5.6c-2.1,5.2,1.8,7.4,5.8,9.2c5.8,2.5,10.1,1.3,12.3-3.2
		C61.7,894.8,59.2,889.5,54.2,887.5z"/>
	<path class="st3" d="M-34,913.6c-7.2-3.4-14.2-0.7-17.9,6.9c-3.6,7.4-1,14.4,6.5,17.9c6.3,2.9,12.8-0.3,16.4-8.1
		C-25.5,923-27.5,916.7-34,913.6z"/>
	<path class="st3" d="M-52.8,953.3c-2.8,7.7,3.5,10.3,7.3,13c9.4,4.3,16.8,2.5,19.5-4.3c3.2-8.2-2.8-11.6-8.3-14.5
		C-41.4,943.8-50.3,946.7-52.8,953.3z"/>
	<path class="st4" d="M90,958.9c6,2.5,11.3,0.7,14.6-4.8c2.8-4.6-2-16.6-8-18.2c-3.9-1-8.5-1.3-12.4,3.4
		C80.3,944,83.7,956.3,90,958.9z"/>
	
		<ellipse transform="matrix(0.4033 -0.9151 0.9151 0.4033 -688.4184 646.465)" class="st5" cx="151.5" cy="851.1" rx="7.7" ry="7.7"/>
	<ellipse transform="matrix(0.4033 -0.9151 0.9151 0.4033 -679.5035 746.5977)" class="st3" cx="232.7" cy="894.3" rx="8" ry="8"/>
	<ellipse transform="matrix(0.4033 -0.9151 0.9151 0.4033 -786.1761 665.3)" class="st5" cx="117" cy="935.5" rx="3.7" ry="3.7"/>
	<path class="st5" d="M213.2,903.5c4.4-5.3-0.1-13.7-6.4-16.5c-6.3-2.8-13.7,0.1-16.5,6.4c-2.8,6.3-0.2,14.4,6.4,16.5
		C203.3,911.9,208.8,908.8,213.2,903.5z"/>
	
		<ellipse transform="matrix(0.4033 -0.9151 0.9151 0.4033 -830.3874 567.4428)" class="st5" cx="19.9" cy="920.4" rx="3.5" ry="3.5"/>
	<ellipse transform="matrix(0.4033 -0.9151 0.9151 0.4033 -802.0173 594.7249)" class="st3" cx="55" cy="912.3" rx="3.5" ry="3.5"/>
	
		<ellipse transform="matrix(0.4033 -0.9151 0.9151 0.4033 -846.139 566.2063)" class="st3" cx="11.1" cy="931.9" rx="3.5" ry="3.5"/>
	
		<ellipse transform="matrix(0.4033 -0.9151 0.9151 0.4033 -637.7062 709.4574)" class="st3" cx="225.1" cy="843.7" rx="3.5" ry="3.5"/>
	
		<ellipse transform="matrix(0.4033 -0.9151 0.9151 0.4033 -769.7275 587.0098)" class="st3" cx="65.2" cy="883.7" rx="3.5" ry="3.5"/>
	
		<ellipse transform="matrix(0.4033 -0.9151 0.9151 0.4033 -815.3406 610.3115)" class="st3" cx="60.3" cy="930.3" rx="3.5" ry="3.5"/>
	
		<ellipse transform="matrix(0.8034 -0.5954 0.5954 0.8034 -438.6837 417.2748)" class="st3" cx="412.6" cy="873" rx="3.5" ry="3.5"/>
	<ellipse transform="matrix(0.4033 -0.9151 0.9151 0.4033 -806.8829 628.6748)" class="st5" cx="78.6" cy="933" rx="3.5" ry="3.5"/>
	
		<ellipse transform="matrix(0.4033 -0.9151 0.9151 0.4033 -653.9188 738.9816)" class="st5" cx="239.7" cy="870.9" rx="5.9" ry="5.9"/>
	
		<ellipse transform="matrix(0.8034 -0.5954 0.5954 0.8034 -489.4974 332.9633)" class="st5" cx="259.5" cy="907.8" rx="5.4" ry="5.4"/>
	<ellipse transform="matrix(0.8034 -0.5954 0.5954 0.8034 -491.5129 344.2485)" class="st3" cx="275.6" cy="916.5" rx="8" ry="8"/>
	<ellipse transform="matrix(0.8034 -0.5954 0.5954 0.8034 -431.2827 405.9085)" class="st3" cx="399.1" cy="856.1" rx="8" ry="8"/>
	
		<ellipse transform="matrix(0.8034 -0.5954 0.5954 0.8034 -481.0995 370.3912)" class="st3" cx="320.4" cy="913.8" rx="3.7" ry="3.7"/>
	
		<ellipse transform="matrix(0.8034 -0.5954 0.5954 0.8034 -492.2831 358.4926)" class="st9" cx="296.8" cy="924.8" rx="4.9" ry="4.9"/>
	
		<ellipse transform="matrix(0.8034 -0.5954 0.5954 0.8034 -472.4777 383.9225)" class="st8" cx="345.2" cy="907.5" rx="3.5" ry="3.5"/>
	
		<ellipse transform="matrix(7.864062e-02 -0.9969 0.9969 7.864062e-02 -594.2604 1137.0437)" class="st2" cx="318" cy="890" rx="6.1" ry="6.1"/>
	
		<ellipse transform="matrix(0.8034 -0.5954 0.5954 0.8034 -507.9597 350.1969)" class="st2" cx="276.4" cy="944.4" rx="6.3" ry="6.3"/>
	
		<ellipse transform="matrix(0.8034 -0.5954 0.5954 0.8034 -448.9259 439.7955)" class="st2" cx="441.6" cy="899.8" rx="6.3" ry="6.3"/>
	
		<ellipse transform="matrix(0.4033 -0.9151 0.9151 0.4033 -753.6224 608.9796)" class="st2" cx="90.1" cy="882.3" rx="6.3" ry="6.3"/>
	<path class="st2" d="M401.8,927.9c2.4,10.2,14.3,17.6,24,14.9c6.3-1.8,11.6-11.5,9.8-18.4c-2.4-9.5-14.5-15.5-25.2-12.6
		C402.6,913.9,399.8,919.4,401.8,927.9z"/>
	<path class="st2" d="M10.6,881.6c-3.1,6.8,0.2,15.2,7.3,18.4c5.7,2.6,17.2-3.6,20.8-11.1c3-6.4,0.6-13.1-5.9-16
		C24.7,869.2,14.3,873.3,10.6,881.6z"/>
	<path class="st9" d="M96.5,923.6c3,4.7,7.8,6.3,11.1,4.2c2.9-1.8,3.7-8,1.4-11.6c-1.9-3-7.2-3.8-10.4-1.4
		C95.1,917.3,95.2,920.6,96.5,923.6z"/>
	
		<ellipse transform="matrix(0.8212 -0.5706 0.5706 0.8212 -492.7679 218.995)" class="st5" cx="103.1" cy="895.9" rx="3.7" ry="3.7"/>
	<ellipse transform="matrix(0.9814 -0.192 0.192 0.9814 -168.1553 16.2751)" class="st9" cx="-0.1" cy="875.8" rx="3.5" ry="3.5"/>
	<path class="st7" d="M79.3,895.3c-6.8-0.4-15.1,6.4-15.5,13.9c-0.5,8.5,6,9.9,12.6,10.6c9.5,0.9,15.2-2.8,16.2-10.4
		C93.5,902.3,87.3,895.8,79.3,895.3z"/>
	
		<ellipse transform="matrix(0.5092 -0.8607 0.8607 0.5092 -693.9119 519.636)" class="st5" cx="108.6" cy="868.2" rx="3.5" ry="3.5"/>
	<ellipse transform="matrix(0.9755 -0.2201 0.2201 0.9755 -93.237 67.3659)" class="st3" cx="255.7" cy="452.1" rx="3.7" ry="3.7"/>
	
		<ellipse transform="matrix(0.9755 -0.2201 0.2201 0.9755 -125.7209 55.409)" class="st9" cx="185.8" cy="591.9" rx="3.5" ry="3.5"/>
	<ellipse transform="matrix(0.9755 -0.2201 0.2201 0.9755 -132.0572 48.7393)" class="st5" cx="152.7" cy="617" rx="3.5" ry="3.5"/>
	
		<ellipse transform="matrix(0.9755 -0.2201 0.2201 0.9755 -117.1898 57.7788)" class="st5" cx="200.7" cy="554.8" rx="3.5" ry="3.5"/>
	
		<ellipse transform="matrix(0.9755 -0.2201 0.2201 0.9755 -127.2487 49.2955)" class="st3" cx="157.6" cy="595.7" rx="3.5" ry="3.5"/>
	
		<ellipse transform="matrix(0.9755 -0.2201 0.2201 0.9755 -155.144 40.1252)" class="st3" cx="102.5" cy="716.3" rx="3.5" ry="3.5"/>
	
		<ellipse transform="matrix(0.9755 -0.2201 0.2201 0.9755 -122.6378 36.2808)" class="st3" cx="101.5" cy="568.5" rx="3.5" ry="3.5"/>
	<path class="st3" d="M157.5,548.1c-11.7,1.9-19.2,12-17.2,23.2c1.7,9.1,9.3,14.6,17.8,12.9c8.9-1.8,15.9-13.7,14.2-24
		C170.8,551.3,165.3,546.8,157.5,548.1z"/>
	<path class="st3" d="M94.5,624.1c-11.7,1.9-19.2,12-17.2,23.2c1.7,9.1,9.3,14.6,17.8,12.9c8.9-1.8,15.9-13.7,14.2-24
		C107.8,627.3,102.3,622.8,94.5,624.1z"/>
	<ellipse transform="matrix(0.9755 -0.2201 0.2201 0.9755 -123.544 40.5487)" class="st3" cx="120.2" cy="574.7" rx="8" ry="8"/>
	<ellipse transform="matrix(0.9755 -0.2201 0.2201 0.9755 -98.0718 51.7714)" class="st9" cx="183.3" cy="466" rx="3.5" ry="3.5"/>
	
		<ellipse transform="matrix(0.9755 -0.2201 0.2201 0.9755 -113.522 72.0993)" class="st3" cx="266.8" cy="545.5" rx="5.2" ry="5.2"/>
	<path class="st2" d="M220.4,427.8c-10.5,2.3-16.8,13.2-14.2,24.7c2,9,10,13.6,19.6,11.4c10.2-2.3,15.6-11.4,13.3-22.4
		C237,431.7,229.2,425.9,220.4,427.8z"/>
	<path class="st10" d="M305.3,480.7c5.1-2.3,6.6-7.5,3.9-13.3c-2.3-5.1-8.5-7.7-13.3-5.5c-4.3,2-5.8,8.1-3.3,13.6
		C295.2,480.8,300.4,482.9,305.3,480.7z"/>
	<path class="st2" d="M193.9,395.8c2.8,1.3,6.5,1.7,9.5,1.1c6.9-1.4,11.1-8.3,10.2-17.6c-1.1-11.6-4.8-13.7-15.1-12.2
		c-6.4,1.3-9.8,5.1-11,12.3C186.3,386.8,188.5,393.3,193.9,395.8z"/>
	<path class="st2" d="M173.6,506.6c-7.3,1.6-12,9.2-10.4,16.8c1.3,6.1,13.1,11.7,21.3,10.1c7-1.4,10.8-7.3,9.3-14.3
		C191.9,510.7,182.4,504.7,173.6,506.6z"/>
	<path class="st3" d="M196.7,485.4c-1.1-5.5-4.9-8.7-8.7-8.1c-3.4,0.6-6.4,6-5.6,10.2c0.6,3.5,5.2,6.2,9.1,5.2
		C195.7,491.8,196.8,488.6,196.7,485.4z"/>
	<path class="st3" d="M155.2,503.4c-1.1-5.5-4.9-8.7-8.7-8.1c-3.4,0.6-6.4,6-5.6,10.2c0.6,3.5,5.2,6.2,9.1,5.2
		C154.2,509.8,155.3,506.6,155.2,503.4z"/>
	<path class="st9" d="M236.2,381c-1.1-5.5-4.9-8.7-8.7-8.1c-3.4,0.6-6.4,6-5.6,10.2c0.6,3.5,5.2,6.2,9.1,5.2
		C235.1,387.3,236.3,384.2,236.2,381z"/>
	<path class="st3" d="M299,494.1c-1.1-5.5-4.9-8.7-8.7-8.1c-3.4,0.6-6.4,6-5.6,10.2c0.6,3.5,5.2,6.2,9.1,5.2
		C297.9,500.4,299.1,497.3,299,494.1z"/>
	<path class="st3" d="M200.4,509.8c1.1,6.8,7.8,10.8,16.4,8.9c5.7-1.6,9.3-6.3,8.7-13.5c-0.5-6-8.9-9.4-16.8-7.8
		C201.6,498.9,199.3,503.3,200.4,509.8z"/>
	<path class="st3" d="M272.5,451.2c0.7,4.1,4.7,6.5,9.9,5.4c3.4-1,5.6-3.8,5.3-8.1c-0.3-3.6-5.4-5.7-10.2-4.7
		C273.2,444.6,271.8,447.3,272.5,451.2z"/>
	<ellipse transform="matrix(0.9755 -0.2201 0.2201 0.9755 -86.0534 53.0396)" class="st3" cx="195" cy="412.7" rx="6.6" ry="6.6"/>
	
		<ellipse transform="matrix(0.9755 -0.2201 0.2201 0.9755 -104.1693 49.4425)" class="st3" cx="169.8" cy="492.2" rx="5.4" ry="5.4"/>
	<ellipse transform="matrix(0.9755 -0.2201 0.2201 0.9755 -106.6508 76.7709)" class="st3" cx="291.2" cy="517" rx="5.4" ry="5.4"/>
	
		<ellipse transform="matrix(0.9755 -0.2201 0.2201 0.9755 -111.4075 44.6783)" class="st3" cx="144.8" cy="522.3" rx="5.4" ry="5.4"/>
	
		<ellipse transform="matrix(0.9755 -0.2201 0.2201 0.9755 -83.5768 58.2676)" class="st5" cx="219.7" cy="404.2" rx="3.7" ry="3.7"/>
	
		<ellipse transform="matrix(0.9755 -0.2201 0.2201 0.9755 -90.6711 76.9959)" class="st5" cx="300.2" cy="445.4" rx="3.7" ry="3.7"/>
	
		<ellipse transform="matrix(0.9755 -0.2201 0.2201 0.9755 -90.8666 52.0384)" class="st3" cx="188.1" cy="433.8" rx="3.7" ry="3.7"/>
	
		<ellipse transform="matrix(0.9755 -0.2201 0.2201 0.9755 -118.4234 54.5068)" class="st3" cx="185.4" cy="558.7" rx="3.7" ry="3.7"/>
	
		<ellipse transform="matrix(0.9755 -0.2201 0.2201 0.9755 -112.5998 39.5746)" class="st3" cx="121.3" cy="525.1" rx="3.7" ry="3.7"/>
	
		<ellipse transform="matrix(0.9755 -0.2201 0.2201 0.9755 -112.9058 80.0303)" class="st3" cx="302.7" cy="546.7" rx="3.7" ry="3.7"/>
	
		<ellipse transform="matrix(0.9755 -0.2201 0.2201 0.9755 -113.7876 67.1152)" class="st3" cx="244.3" cy="544.2" rx="3.7" ry="3.7"/>
	
		<ellipse transform="matrix(0.9755 -0.2201 0.2201 0.9755 -98.4202 72.0433)" class="st3" cx="274.1" cy="477.7" rx="8.4" ry="8.4"/>
	
		<ellipse transform="matrix(0.9755 -0.2201 0.2201 0.9755 -100.2472 80.0461)" class="st9" cx="309.1" cy="489.9" rx="3.5" ry="3.5"/>
	
		<ellipse transform="matrix(0.9755 -0.2201 0.2201 0.9755 -101.3564 67.0895)" class="st3" cx="250.4" cy="488.4" rx="3.5" ry="3.5"/>
	
		<ellipse transform="matrix(0.9755 -0.2201 0.2201 0.9755 -120.5938 59.4281)" class="st3" cx="206.4" cy="570.9" rx="5.2" ry="5.2"/>
	<ellipse transform="matrix(0.9755 -0.2201 0.2201 0.9755 -116.7018 62.56)" class="st2" cx="222.4" cy="555" rx="6.3" ry="6.3"/>
	<path class="st3" d="M264.5,491.6c-11.7,1.9-19.2,12-17.2,23.2c1.7,9.1,9.3,14.6,17.8,12.9c8.9-1.8,15.9-13.7,14.2-24
		C277.8,494.9,272.3,490.4,264.5,491.6z"/>
	<path class="st3" d="M250.8,420.6c-5.3,1.2-8.7,6.7-7.6,12.2c0.9,4.4,9.5,8.5,15.5,7.3c5.1-1,7.9-5.3,6.8-10.4
		C264.1,423.5,257.2,419.2,250.8,420.6z"/>
	<path class="st3" d="M256.9,470.9c-1.1-5.5-4.9-8.7-8.7-8.1c-3.4,0.6-6.4,6-5.6,10.2c0.6,3.5,5.2,6.2,9.1,5.2
		C255.8,477.2,256.9,474.1,256.9,470.9z"/>
	<path class="st7" d="M241.5,413.7c6.1,2.9,16.4-0.3,19.6-7c3.7-7.7-1.8-11.4-7.7-14.5c-8.4-4.4-15.1-3.1-18.9,3.5
		C231,401.8,234.3,410.2,241.5,413.7z"/>
	<path class="st3" d="M229.1,529.6c2.7,5.5,6.7,5.8,10.9,5.5c4-0.2,8.7-3.7,7.4-9.1c-2.8-12.6-11.7-10.6-14.8-8.5
		S226.4,524.1,229.1,529.6z"/>
	
		<ellipse transform="matrix(0.9755 -0.2201 0.2201 0.9755 -100.0078 62.594)" class="st5" cx="230.9" cy="480.1" rx="7.7" ry="7.7"/>
	
		<ellipse transform="matrix(0.9755 -0.2201 0.2201 0.9755 -114.1603 47.5698)" class="st5" cx="156.4" cy="536.1" rx="7.7" ry="7.7"/>
	<ellipse transform="matrix(0.9755 -0.2201 0.2201 0.9755 -111.2928 60.3082)" class="st5" cx="215" cy="529.6" rx="3.5" ry="3.5"/>
	<ellipse transform="matrix(0.9755 -0.2201 0.2201 0.9755 -104.994 64.041)" class="st3" cx="234.9" cy="503.2" rx="3.5" ry="3.5"/>
	
		<ellipse transform="matrix(0.9755 -0.2201 0.2201 0.9755 -85.0968 70.0243)" class="st3" cx="271.7" cy="416.9" rx="3.5" ry="3.5"/>
	
		<ellipse transform="matrix(0.9755 -0.2201 0.2201 0.9755 -88.4689 72.3608)" class="st5" cx="280.5" cy="433.2" rx="3.5" ry="3.5"/>
	<ellipse transform="matrix(0.9755 -0.2201 0.2201 0.9755 -101.418 57.7374)" class="st3" cx="208.4" cy="484" rx="5.2" ry="5.2"/>
	<path class="st8" d="M343.9,894c2.5,3.4,7.4,4.1,10.9,1.5c2.8-2,3-9.3,0.3-13.1c-2.3-3.2-6.2-3.9-9.4-1.6
		C341.8,883.8,340.9,890,343.9,894z"/>
	
		<ellipse transform="matrix(0.8034 -0.5954 0.5954 0.8034 -468.11 404.9332)" class="st5" cx="379.2" cy="911.4" rx="5.4" ry="5.4"/>
	
		<ellipse transform="matrix(0.8034 -0.5954 0.5954 0.8034 -441.33 391.4616)" class="st5" cx="372.2" cy="864.1" rx="4.9" ry="4.9"/>
	
		<ellipse transform="matrix(7.864062e-02 -0.9969 0.9969 7.864062e-02 -603.9958 1097.3282)" class="st3" cx="291.7" cy="875.4" rx="6" ry="6"/>
	
		<ellipse transform="matrix(0.8034 -0.5954 0.5954 0.8034 -449.1092 372.2589)" class="st3" cx="339.2" cy="866.3" rx="7.3" ry="7.3"/>
	
		<ellipse transform="matrix(0.8034 -0.5954 0.5954 0.8034 -490.3469 388.1793)" class="st3" cx="342.7" cy="936.7" rx="3.4" ry="3.4"/>
	
		<ellipse transform="matrix(7.864062e-02 -0.9969 0.9969 7.864062e-02 -620.8153 1052.5366)" class="st5" cx="259" cy="862.1" rx="3.4" ry="3.4"/>
	
		<ellipse transform="matrix(0.8034 -0.5954 0.5954 0.8034 -453.094 415.8272)" class="st9" cx="403.2" cy="894.1" rx="4.5" ry="4.5"/>
	
		<ellipse transform="matrix(7.864062e-02 -0.9969 0.9969 7.864062e-02 -571.3015 1103.3668)" class="st5" cx="311.3" cy="860.8" rx="3.2" ry="3.2"/>
	
		<ellipse transform="matrix(0.8034 -0.5954 0.5954 0.8034 -453.0367 400.5458)" class="st2" cx="380.1" cy="886.4" rx="5.7" ry="5.7"/>
	<path class="st3" d="M194.5,647.7c-4.4,3.4-5.7,8.2-3.4,11.4c2.1,2.8,8.2,3.1,11.6,0.5c2.8-2.1,3.3-7.4,0.7-10.5
		C200.6,645.8,197.3,646.2,194.5,647.7z"/>
	<path class="st2" d="M146.7,653c6.7,8.5,19.3,9.3,28.4,1.9c7.1-5.8,7.8-15,1.6-22.7c-6.5-8.1-17.1-9-25.9-2.1
		C142.8,636.4,141.1,646,146.7,653z"/>
	<path class="st10" d="M126.9,606c-4.3-3.5-9.6-2.6-13.7,2.4c-3.6,4.3-3.1,11,1,14.3c3.7,3,9.8,1.6,13.6-3.1
		C131.4,615.1,131,609.5,126.9,606z"/>
	<path class="st9" d="M134.9,587.6c-4.4,3.4-5.7,8.2-3.4,11.4c2.1,2.8,8.2,3.1,11.6,0.5c2.8-2.1,3.3-7.4,0.7-10.5
		C141,585.8,137.8,586.1,134.9,587.6z"/>
	
		<ellipse transform="matrix(0.7785 -0.6277 0.6277 0.7785 -368.1462 224.163)" class="st3" cx="133.5" cy="633.6" rx="5.4" ry="5.4"/>
	
		<ellipse transform="matrix(0.9755 -0.2201 0.2201 0.9755 -121.2734 84.528)" class="st9" cx="318.7" cy="586.5" rx="3.5" ry="3.5"/>
	<path class="st6" d="M44.2,712.7c-3.3,7.4,0.3,16.4,7.9,19.9c6.1,2.8,18.6-3.9,22.4-12c3.3-7,0.6-14.1-6.4-17.3
		C59.5,699.4,48.2,703.9,44.2,712.7z"/>
	<path class="st3" d="M91.3,720.9c-5-2.4-9.9-1.3-11.7,2.2c-1.5,3.1,1,8.7,4.8,10.6c3.2,1.5,8.1-0.5,9.6-4.2
		C95.8,725.5,93.9,722.8,91.3,720.9z"/>
	
		<ellipse transform="matrix(0.4033 -0.9151 0.9151 0.4033 -635.0508 519.4257)" class="st3" cx="80.8" cy="746.6" rx="5.4" ry="5.4"/>
	<ellipse transform="matrix(0.4033 -0.9151 0.9151 0.4033 -675.496 471.7596)" class="st3" cx="24" cy="753.8" rx="8" ry="8"/>
	
		<ellipse transform="matrix(0.4033 -0.9151 0.9151 0.4033 -653.894 622.8321)" class="st3" cx="150.6" cy="812.8" rx="3.7" ry="3.7"/>
	
		<ellipse transform="matrix(0.4033 -0.9151 0.9151 0.4033 -665.6703 524.3107)" class="st2" cx="69.2" cy="772.6" rx="11.7" ry="11.7"/>
	
		<ellipse transform="matrix(0.4033 -0.9151 0.9151 0.4033 -673.3649 559.9626)" class="st8" cx="92.7" cy="796.3" rx="3.5" ry="3.5"/>
	
		<ellipse transform="matrix(0.4033 -0.9151 0.9151 0.4033 -644.1969 457.7072)" class="st3" cx="28.9" cy="722.8" rx="3.5" ry="3.5"/>
	
		<ellipse transform="matrix(0.4033 -0.9151 0.9151 0.4033 -671.8047 600.699)" class="st9" cx="124.7" cy="815.5" rx="6.1" ry="6.1"/>
	
		<ellipse transform="matrix(0.4033 -0.9151 0.9151 0.4033 -688.2286 496.8168)" class="st2" cx="36.8" cy="776.1" rx="6.3" ry="6.3"/>
	<path class="st8" d="M170,836.4c-1.9,4.2,0.2,9.3,4.5,11.3c3.5,1.6,10.6-2.2,12.7-6.8c1.9-4,0.4-8-3.6-9.8
		C178.7,828.8,172.3,831.3,170,836.4z"/>
	
		<ellipse transform="matrix(0.4033 -0.9151 0.9151 0.4033 -633.8389 563.7108)" class="st5" cx="115.3" cy="767.9" rx="8.4" ry="8.4"/>
	
		<ellipse transform="matrix(0.4033 -0.9151 0.9151 0.4033 -616.2227 582.5677)" class="st3" cx="138.6" cy="763.8" rx="3.5" ry="3.5"/>
	
		<ellipse transform="matrix(0.4033 -0.9151 0.9151 0.4033 -658.7894 583.8638)" class="st3" cx="118.3" cy="797.1" rx="5.2" ry="5.2"/>
	
		<ellipse transform="matrix(0.4033 -0.9151 0.9151 0.4033 -733.4337 505.5707)" class="st3" cx="20.9" cy="815.2" rx="3.5" ry="3.5"/>
	<path class="st2" d="M4,814.4c-2.8-1.4-6.5-1.9-9.5-1.4c-7,1.2-11.3,8-10.7,17.3c0.8,11.6,4.4,13.8,14.7,12.6
		c6.4-1.1,10-4.8,11.4-12C11.3,823.6,9.3,817,4,814.4z"/>
	<path class="st2" d="M77.9,870.5c7.3-1.4,12.3-8.9,10.9-16.5c-1.1-6.1-12.8-12.1-21-10.7c-7,1.2-11.1,7-9.8,14
		C59.7,866,69.1,872.2,77.9,870.5z"/>
	<ellipse transform="matrix(0.9814 -0.192 0.192 0.9814 -153.0567 15.4903)" class="st3" cx="3.4" cy="797.5" rx="6.6" ry="6.6"/>
	<ellipse transform="matrix(0.9814 -0.192 0.192 0.9814 -152.451 19.5403)" class="st5" cx="24.6" cy="796.4" rx="6.6" ry="6.6"/>
	<ellipse transform="matrix(0.9814 -0.192 0.192 0.9814 -162.7697 23.2535)" class="st3" cx="38.6" cy="851.5" rx="8.4" ry="8.4"/>
	<ellipse transform="matrix(0.9814 -0.192 0.192 0.9814 -156.2547 23.0873)" class="st3" cx="41" cy="817.8" rx="10.9" ry="10.9"/>
	<ellipse transform="matrix(0.9814 -0.192 0.192 0.9814 -159.8722 19.7555)" class="st5" cx="22" cy="834.8" rx="3.5" ry="3.5"/>
	<ellipse transform="matrix(0.9814 -0.192 0.192 0.9814 -159.3982 26.0469)" class="st3" cx="54.7" cy="835.5" rx="5.2" ry="5.2"/>
	<path class="st3" d="M95.9,836.5c3-4.7,2.4-9.7-0.8-11.8c-2.9-1.9-8.8,0-11.1,3.6c-1.9,2.9-0.4,8.1,3,10.1
		C90.8,840.3,93.8,838.9,95.9,836.5z"/>
	<ellipse transform="matrix(0.5092 -0.8607 0.8607 0.5092 -663.2734 465.5829)" class="st9" cx="76.6" cy="814.3" rx="8" ry="8"/>
	
		<ellipse transform="matrix(0.5092 -0.8607 0.8607 0.5092 -679.7166 465.9558)" class="st3" cx="68.7" cy="828.9" rx="3.5" ry="3.5"/>
	<ellipse transform="matrix(0.4033 -0.9151 0.9151 0.4033 -581.709 546.7285)" class="st3" cx="128.4" cy="719.4" rx="8" ry="8"/>
	
		<ellipse transform="matrix(0.4033 -0.9151 0.9151 0.4033 -646.5375 442.6314)" class="st3" cx="16.1" cy="717.1" rx="3.7" ry="3.7"/>
	<path class="st3" d="M130.8,830.6c-7.2-3.4-14.2-0.7-17.9,6.9c-3.6,7.4-1,14.4,6.5,17.9c6.3,2.9,12.8-0.3,16.4-8.1
		C139.2,840,137.3,833.7,130.8,830.6z"/>
	<path class="st4" d="M107.2,752c6,2.5,11.3,0.7,14.6-4.8c2.8-4.6-2-16.6-8-18.2c-3.9-1-8.5-1.3-12.4,3.4S100.9,749.4,107.2,752z"/>
	
		<ellipse transform="matrix(0.4033 -0.9151 0.9151 0.4033 -662.1464 450.8001)" class="st3" cx="14.6" cy="733.1" rx="5.2" ry="5.2"/>
	
		<ellipse transform="matrix(0.4033 -0.9151 0.9151 0.4033 -566.8256 565.6072)" class="st3" cx="150.3" cy="717.4" rx="3.5" ry="3.5"/>
	
		<ellipse transform="matrix(0.4033 -0.9151 0.9151 0.4033 -656.3442 489.6582)" class="st3" cx="47.3" cy="748.1" rx="8.4" ry="8.4"/>
	
		<ellipse transform="matrix(0.4033 -0.9151 0.9151 0.4033 -595.0112 574.8021)" class="st3" cx="143.2" cy="743.6" rx="5.2" ry="5.2"/>
	<ellipse transform="matrix(0.9814 -0.192 0.192 0.9814 -143.0004 12.8685)" class="st9" cx="-5.1" cy="744.3" rx="3.5" ry="3.5"/>
	<ellipse transform="matrix(0.4033 -0.9151 0.9151 0.4033 -654.695 553.171)" class="st2" cx="96.8" cy="778.6" rx="6.3" ry="6.3"/>
	
		<ellipse transform="matrix(0.5092 -0.8607 0.8607 0.5092 -648.2613 334.8168)" class="st7" cx="-30.6" cy="735.8" rx="7.4" ry="7.4"/>
	<path class="st8" d="M117.7,914.2c7.2,3.3,13.9,0.7,17.1-6.7c3.6-8.3,1.9-14.3-5.2-17.6c-7.3-3.3-15.3-1-18,5.3
		C108.6,902.4,111.6,911.4,117.7,914.2z"/>
	<path class="st3" d="M140.6,877.8c1.9-4.2-0.3-7.4-4.3-11c-3.4-3.1-9.2,0.1-11,4.3s0.1,9.2,4.3,11
		C133.8,884,138.7,882.1,140.6,877.8z"/>
	
		<ellipse transform="matrix(0.4033 -0.9151 0.9151 0.4033 -685.2595 677.7554)" class="st3" cx="177" cy="864.3" rx="10.9" ry="10.9"/>
	
		<ellipse transform="matrix(0.4033 -0.9151 0.9151 0.4033 -705.8378 659.9786)" class="st9" cx="153.1" cy="871.2" rx="3.5" ry="3.5"/>
	
		<ellipse transform="matrix(0.4033 -0.9151 0.9151 0.4033 -754.9201 676.1115)" class="st3" cx="141" cy="916.9" rx="3.5" ry="3.5"/>
	
		<ellipse transform="matrix(0.4033 -0.9151 0.9151 0.4033 -744.2029 691.7273)" class="st3" cx="158.3" cy="916.5" rx="3.5" ry="3.5"/>
	<path class="st7" d="M178.2,902.4c3.2-5.9,0.5-16.4-6.1-19.9c-7.5-4-11.5,1.3-14.9,7c-4.8,8.2-3.8,15,2.6,19
		C165.8,912.4,174.3,909.5,178.2,902.4z"/>
</g>
</svg>
