<?xml version="1.0" encoding="utf-8"?>
<!-- Generator: Adobe Illustrator 21.0.2, SVG Export Plug-In . SVG Version: 6.00 Build 0)  -->
<svg version="1.1" id="Layer_1" xmlns="http://www.w3.org/2000/svg" xmlns:xlink="http://www.w3.org/1999/xlink" x="0px" y="0px"
	 viewBox="0 0 666 483.4" style="enable-background:new 0 0 666 483.4;" xml:space="preserve">
<style type="text/css">
	.st0{fill:#FFFFFF;}
	.st1{opacity:0.33;}
	.st2{opacity:0.44;fill:#EFEFEF;enable-background:new    ;}
	.st3{opacity:0.76;fill:#EFEFEF;enable-background:new    ;}
	.st4{opacity:0.75;fill:none;stroke:#EFEFEF;stroke-miterlimit:10;enable-background:new    ;}
	.st5{fill:#EFEFEF;}
	.st6{opacity:0.44;fill:none;stroke:#EFEFEF;stroke-miterlimit:10;enable-background:new    ;}
	.st7{fill:none;stroke:#EFEFEF;stroke-miterlimit:10;}
	.st8{opacity:0.75;fill:#EFEFEF;enable-background:new    ;}
	.st9{opacity:0.76;fill:none;stroke:#EFEFEF;stroke-miterlimit:10;enable-background:new    ;}
	.st10{opacity:0.35;fill:#EFEFEF;enable-background:new    ;}
	.st11{opacity:0.35;fill:none;stroke:#EFEFEF;stroke-miterlimit:10;enable-background:new    ;}
</style>
<g>
	<path class="st0" d="M580,95c-2.5-0.1-2.3-1.8-1.4-2c0.6-0.1,1.5-0.4,1.7-0.5s0.5-0.5,0.5-0.8c-0.1-0.4-0.4-0.6-0.6-0.6l0,0
		c-0.6-4.3-2.6-8.3-5.8-11.2c-0.1,0-0.1-0.1-0.2-0.1c0-0.9,0.1-1.8,0.4-2.8l0.6-1.8l-1.6,1.2c-0.7,0.6-1.6,1-2.4,1.2
		c-2.3-1.4-4.9-2.3-7.6-2.6c-0.6-0.6-0.9-1.5-1.2-2.3l-0.6-1.9l-0.6,1.9c-0.3,0.8-0.6,1.7-1.1,2.3c-2.9,0.2-5.5,1.1-7.9,2.5
		c-0.7-0.3-1.5-0.6-2.2-1.1l-1.6-1.2L549,77c0.3,0.8,0.5,1.6,0.5,2.4c-0.2,0.2-0.4,0.4-0.6,0.5c-1.9,1.8-3.5,4-4.5,6.4
		c-0.7,0.2-1.5,0.4-2.3,0.3l-1.9-0.1l1.7,1.1c0.6,0.5,1.2,1,1.7,1.6c-0.2,0.7-0.3,1.5-0.4,2.2l-0.4-0.4c-1.1-1.1-3.3-1.6-4.2-1.1
		c-0.6,0.3-0.8,0.6-0.8,1.3c0,0.5,0,1.1,0,1.8c0,0.9,0,1.9,0,2.7c0,0.6,0.4,1,0.9,1.3c1.1,0.5,3.1-0.1,4.1-1.1l0.4-0.4
		c0.1,0.7,0.2,1.5,0.4,2.2c-0.5,0.6-1,1.1-1.7,1.6l-1.7,1.1l0,0l1.9-0.1c0.8,0,1.6,0.1,2.3,0.3c1,2.4,2.6,4.6,4.5,6.4
		c0.2,0.2,0.4,0.4,0.6,0.5c0,0.7-0.1,1.6-0.5,2.4l-0.6,1.8l1.6-1.2c0.6-0.6,1.4-0.9,2.2-1.1c2.4,1.4,5.2,2.3,7.9,2.5
		c0.5,0.6,0.9,1.5,1.1,2.3l0.6,1.9l0.6-1.9c0.3-0.9,0.6-1.7,1.2-2.3c2.7-0.3,5.3-1.2,7.6-2.6c0.8,0.3,1.7,0.6,2.4,1.2l1.6,1.2
		l-0.6-1.8c-0.4-0.9-0.5-1.8-0.4-2.8c0.1,0,0.1-0.1,0.2-0.1c3.1-2.9,5.1-6.6,5.7-10.8h0.1c0.3,0,0.6-0.4,0.6-0.7
		C580.6,95.3,580.4,95,580,95z M572.8,90.6c-0.9,0-1.8-0.7-1.8-1.8s0.7-1.8,1.8-1.8c1,0,1.8,0.7,1.8,1.8S573.7,90.6,572.8,90.6z"/>
</g>
<g class="st1">
	<path class="st2" d="M3.9,81.6C4.7,88.4,11.4,93,18.7,92c5.8-0.8,9.2-5.5,8.4-11.8c-0.8-6.6-6.3-10.4-13.4-9.6
		C7.3,71.4,3.2,76,3.9,81.6z"/>
	<path class="st2" d="M30.5,31.2C31.4,38,38,42.6,45.4,41.6c5.8-0.8,9.2-5.5,8.4-11.8c-0.8-6.6-6.4-10.5-13.4-9.7
		C33.9,20.9,29.9,25.6,30.5,31.2z"/>
	<path class="st3" d="M7.6,5.3C6.4,2,3.3,0.7-0.6,2.1C-4,3.2-5.9,7-4.8,10.2c1,2.9,4.8,4.1,8.5,2.9C7,11.8,8.7,8.5,7.6,5.3z"/>
	<path class="st2" d="M37,108.6c0.9-1.8,1.5-4.1,1.2-6c-0.6-4.5-4.6-7.5-10.6-7.5c-7.5,0.1-8.9,2.3-8.6,8.8c0.5,4.1,2.7,6.5,7.2,7.6
		C30.8,112.9,35,111.9,37,108.6z"/>
	<path class="st2" d="M240.3,34.6c0.5,3.7,4.4,6.8,8.1,6.3c2.4-0.4,4.7-3.6,4.3-6.2c-0.5-3.5-4.6-6.1-8.7-5.5
		C241.2,29.6,239.9,31.5,240.3,34.6z"/>
	<path class="st4" d="M37.4,60.7c0.6,5.1,5.6,8.8,10.9,8.2c4.2-0.5,8.8-8.3,8.2-14C56,50,52.2,47,47.3,47.6
		C41.3,48.4,36.7,54.6,37.4,60.7z"/>
	<path class="st2" d="M77.9,65.4c0.6,4.7,5.2,8.2,10,7.6c4-0.5,8.2-7.6,7.6-12.9c-0.5-4.5-4.1-7.3-8.6-6.7
		C81.5,54,77.2,59.7,77.9,65.4z"/>
	<path class="st5" d="M-0.1-11.9c-3.5,0.4-5.8,2.6-5.6,5.1c0.2,2.2,3.4,4.4,6.2,4.1c2.2-0.2,4.2-2.9,3.9-5.5
		C3.9-10.9,2-11.8-0.1-11.9z"/>
	<path class="st5" d="M65.7,49.5c-3.5,0.4-5.8,2.6-5.6,5.1c0.2,2.2,3.4,4.4,6.2,4.1c2.2-0.2,4.2-2.9,3.9-5.5
		C69.8,50.5,67.8,49.6,65.7,49.5z"/>
	<path class="st6" d="M1.8,18.6C-1.7,19-4,21.2-3.8,23.7c0.2,2.2,3.4,4.4,6.2,4.1c2.2-0.2,4.2-2.9,3.9-5.5
		C5.8,19.6,3.8,18.8,1.8,18.6z"/>
	<path class="st5" d="M147.7,58.3c-3.5,0.4-5.8,2.6-5.6,5.1c0.2,2.2,3.4,4.4,6.2,4.1c2.2-0.2,4.2-2.9,3.9-5.5
		C151.7,59.3,149.7,58.4,147.7,58.3z"/>
	<path class="st5" d="M15.7,10.1c-3.5,0.4-5.8,2.6-5.6,5.1c0.2,2.2,3.4,4.4,6.2,4.1c2.2-0.2,4.2-2.9,3.9-5.5
		C19.7,11.1,17.7,10.2,15.7,10.1z"/>
	<path class="st5" d="M81.4,48.6c4.3-0.3,7.3-4.3,6.5-9.9c-0.7-3.7-3.4-6.3-8-6.3c-3.8,0-6.4,5.1-5.9,10.2
		C74.6,47.2,77.2,48.9,81.4,48.6z"/>
	<path class="st5" d="M7.1,142.1c2.7-0.2,4.4-2.7,4-6c-0.5-2.2-2.1-3.8-4.9-3.8c-2.3,0-3.9,3-3.6,6.2C2.9,141.2,4.5,142.3,7.1,142.1
		z"/>
	<path class="st6" d="M197.3,65.2c2.2-0.4,3.4-1.7,3.4-3.7c0-1.7-3.4-4.1-5.4-3.5c-1.3,0.4-2.8,2-2.9,3.6
		C192.3,63.1,195,65.6,197.3,65.2z"/>
	<path class="st2" d="M125.7,102.9c4.1-0.3,6.4-3.3,6.4-7.5c0-3.4-6.6-8.4-10.4-7.3C119.2,88.9,112,103.8,125.7,102.9z"/>
	<ellipse transform="matrix(0.9911 -0.1328 0.1328 0.9911 -5.9997 3.0193)" class="st5" cx="19.6" cy="46.5" rx="4.2" ry="4.2"/>
	<ellipse transform="matrix(0.9911 -0.1328 0.1328 0.9911 -8.2761 9.693)" class="st5" cx="68.5" cy="66.9" rx="3.4" ry="3.4"/>
	<ellipse transform="matrix(0.9911 -0.1328 0.1328 0.9911 -1.8992 4.1067)" class="st5" cx="29.8" cy="16.3" rx="3.4" ry="3.4"/>
	<ellipse transform="matrix(0.9911 -0.1328 0.1328 0.9911 -7.7946 3.1116)" class="st7" cx="19.4" cy="60" rx="4.2" ry="4.2"/>
	<ellipse transform="matrix(0.9911 -0.1328 0.1328 0.9911 -9.1746 17.2228)" class="st7" cx="124.5" cy="77.4" rx="5.2" ry="5.2"/>
	<ellipse transform="matrix(0.9911 -0.1328 0.1328 0.9911 -3.8987 2.3326)" class="st7" cx="15.5" cy="30.4" rx="2.4" ry="2.4"/>
	<ellipse transform="matrix(0.9911 -0.1328 0.1328 0.9911 -12.0284 15.0394)" class="st7" cx="106.7" cy="97.7" rx="2.4" ry="2.4"/>
	<ellipse transform="matrix(0.9911 -0.1328 0.1328 0.9911 -6.6148 4.7939)" class="st5" cx="32.6" cy="52" rx="2.4" ry="2.4"/>
	<ellipse transform="matrix(0.9911 -0.1328 0.1328 0.9911 -13.3632 11.0331)" class="st7" cx="76" cy="105.7" rx="2.4" ry="2.4"/>
	<ellipse transform="matrix(0.9911 -0.1328 0.1328 0.9911 -5.0592 26.9272)" class="st5" cx="199.3" cy="51.4" rx="2.4" ry="2.4"/>
	<ellipse transform="matrix(0.9911 -0.1328 0.1328 0.9911 -4.1082 19.7938)" class="st5" cx="146.3" cy="40.7" rx="2.4" ry="2.4"/>
	<ellipse transform="matrix(0.9911 -0.1328 0.1328 0.9911 -0.9843 6.6338)" class="st5" cx="49.2" cy="10.7" rx="2.4" ry="2.4"/>
	<ellipse transform="matrix(0.9911 -0.1328 0.1328 0.9911 -9.9941 19.3319)" class="st5" cx="139.9" cy="84.6" rx="2.4" ry="2.4"/>
	<ellipse transform="matrix(0.9911 -0.1328 0.1328 0.9911 -11.7 21.1543)" class="st5" cx="152.7" cy="98.3" rx="2.4" ry="2.4"/>
	<ellipse transform="matrix(0.9911 -0.1328 0.1328 0.9911 -5.4901 13.6704)" class="st5" cx="99.7" cy="48" rx="2.4" ry="2.4"/>
	<ellipse transform="matrix(0.8018 -0.5975 0.5975 0.8018 -91.423 41.023)" class="st5" cx="16.1" cy="158.4" rx="5.3" ry="5.3"/>
	<ellipse transform="matrix(0.9911 -0.1328 0.1328 0.9911 -10.6451 10.1718)" class="st2" cx="70.9" cy="84.9" rx="7.5" ry="7.5"/>
	<ellipse transform="matrix(0.9911 -0.1328 0.1328 0.9911 -10.594 6.5407)" class="st5" cx="43.7" cy="82.7" rx="6.9" ry="6.9"/>
	<ellipse transform="matrix(0.9911 -0.1328 0.1328 0.9911 -13.3219 2.2385)" class="st6" cx="10.1" cy="101" rx="2.2" ry="2.2"/>
	<ellipse transform="matrix(0.9911 -0.1328 0.1328 0.9911 -0.3294 1.8409)" class="st6" cx="13.6" cy="3.4" rx="2.2" ry="2.2"/>
	<ellipse transform="matrix(0.8018 -0.5975 0.5975 0.8018 -91.1563 31.5152)" class="st7" cx="1.9" cy="153.2" rx="2.2" ry="2.2"/>
	<ellipse transform="matrix(0.9911 -0.1328 0.1328 0.9911 -13.7036 13.5106)" class="st8" cx="94.4" cy="109.5" rx="2.2" ry="2.2"/>
	<ellipse transform="matrix(0.8018 -0.5975 0.5975 0.8018 -98.8115 35.8469)" class="st5" cx="4.6" cy="166.9" rx="2.2" ry="2.2"/>
	<ellipse transform="matrix(0.9911 -0.1328 0.1328 0.9911 -9.1798 4.9391)" class="st5" cx="32.4" cy="71.3" rx="2.2" ry="2.2"/>
	<ellipse transform="matrix(0.9911 -0.1328 0.1328 0.9911 -6.8305 29.5656)" class="st7" cx="218.2" cy="66" rx="3.3" ry="3.3"/>
	<ellipse transform="matrix(0.9911 -0.1328 0.1328 0.9911 -7.3222 33.2129)" class="st5" cx="245.3" cy="71.5" rx="3.3" ry="3.3"/>
	<ellipse transform="matrix(0.9911 -0.1328 0.1328 0.9911 -10.4634 14.9082)" class="st5" cx="106.5" cy="85.9" rx="3.3" ry="3.3"/>
	<ellipse transform="matrix(0.9911 -0.1328 0.1328 0.9911 -10.072 12.9607)" class="st6" cx="92.1" cy="82" rx="3.9" ry="3.9"/>
	<ellipse transform="matrix(0.9911 -0.1328 0.1328 0.9911 -3.8461 29.513)" class="st2" cx="219.3" cy="43.6" rx="3.9" ry="3.9"/>
	<ellipse transform="matrix(0.9911 -0.1328 0.1328 0.9911 -6.5541 17.7291)" class="st2" cx="129.6" cy="58" rx="3.9" ry="3.9"/>
	<ellipse transform="matrix(0.9911 -0.1328 0.1328 0.9911 -12.477 8.1062)" class="st2" cx="54.5" cy="97.6" rx="4.1" ry="4.1"/>
	<ellipse transform="matrix(0.9911 -0.1328 0.1328 0.9911 -4.7763 25.5604)" class="st2" cx="189.2" cy="48.6" rx="4.1" ry="4.1"/>
	<ellipse transform="matrix(0.9911 -0.1328 0.1328 0.9911 -7.9002 15.5373)" class="st2" cx="112.5" cy="67" rx="4.1" ry="4.1"/>
	<path class="st2" d="M14.8,143c0.6,4.7,5.2,8.2,10,7.6c4-0.5,8.2-7.6,7.6-12.9c-0.5-4.5-4.1-7.3-8.6-6.7
		C18.4,131.6,14.1,137.3,14.8,143z"/>
	<path class="st5" d="M8.4,122.4c4.3-0.3,7.3-4.3,6.5-9.9c-0.7-3.7-3.4-6.3-8-6.3c-3.8,0-6.4,5.1-5.9,10.2
		C1.6,121,4.2,122.7,8.4,122.4z"/>
	<ellipse transform="matrix(0.9911 -0.1328 0.1328 0.9911 -12.1457 13.0723)" class="st5" cx="91.9" cy="97.6" rx="3.4" ry="3.4"/>
	<ellipse transform="matrix(0.9911 -0.1328 0.1328 0.9911 -15.9396 4.6224)" class="st5" cx="26.7" cy="121.8" rx="2.4" ry="2.4"/>
	<ellipse transform="matrix(0.9911 -0.1328 0.1328 0.9911 -18.3497 6.4893)" class="st2" cx="39.5" cy="140.8" rx="4.1" ry="4.1"/>
	<ellipse transform="matrix(0.9911 -0.1328 0.1328 0.9911 -9.0259 19.8543)" class="st2" cx="144.3" cy="77.6" rx="4.1" ry="4.1"/>
	<path class="st5" d="M172.9,48.1c-4.6,0.6-9.7,6.6-9.2,11.1c0.6,5.2,5.9,9.6,11.1,9c5.1-0.6,11.1-7.1,10.5-11.5
		C184.6,52.2,177.8,47.4,172.9,48.1z"/>
	<path class="st2" d="M226.9,76.3c0.5,3.4,3.7,5.8,7.2,5.4c2.8-0.4,5.8-5.4,5.4-9.2c-0.4-3.2-2.9-5.2-6.1-4.8
		C229.5,68.1,226.4,72.3,226.9,76.3z"/>
	<ellipse transform="matrix(0.9911 -0.1328 0.1328 0.9911 -8.6394 22.0436)" class="st7" cx="160.9" cy="75.8" rx="6.9" ry="6.9"/>
	<ellipse transform="matrix(0.9911 -0.1328 0.1328 0.9911 -3.6288 27.579)" class="st5" cx="204.9" cy="41" rx="6.9" ry="6.9"/>
	<ellipse transform="matrix(0.9911 -0.1328 0.1328 0.9911 -5.355 31.6822)" class="st7" cx="234.8" cy="56" rx="2.2" ry="2.2"/>
	<ellipse transform="matrix(0.9911 -0.1328 0.1328 0.9911 -1.6201 25.0974)" class="st7" cx="187.3" cy="24.7" rx="2.2" ry="2.2"/>
	<ellipse transform="matrix(0.9911 -0.1328 0.1328 0.9911 -8.6661 28.2477)" class="st5" cx="207.4" cy="79.1" rx="2.2" ry="2.2"/>
	<ellipse transform="matrix(0.9911 -0.1328 0.1328 0.9911 -9.5559 31.1082)" class="st7" cx="228.4" cy="87.2" rx="2.2" ry="2.2"/>
	<ellipse transform="matrix(0.9911 -0.1328 0.1328 0.9911 -3.0404 34.5948)" class="st5" cx="257.8" cy="40.1" rx="3.3" ry="3.3"/>
	<ellipse transform="matrix(0.9911 -0.1328 0.1328 0.9911 -10.519 22.0757)" class="st2" cx="160.2" cy="89.9" rx="4.1" ry="4.1"/>
	<path class="st9" d="M48.1,209.9c-6.4,0.9-9,4.5-8.5,10.4c0.7,8.3,12.8,12.9,18.7,10c3-1.5,5.2-4.1,5.2-7.6
		C63.5,215.5,55.4,208.8,48.1,209.9z"/>
	<path class="st2" d="M14.4,346c1.5,6.7,8.5,10.7,15.8,8.9c5.7-1.4,8.6-6.4,7.2-12.5c-1.5-6.5-7.3-9.8-14.3-8.3
		C16.8,335.4,13.1,340.3,14.4,346z"/>
	<path class="st2" d="M-12,452.8c1.5,6.7,8.5,10.7,15.8,8.9c5.7-1.4,8.6-6.4,7.2-12.5c-1.5-6.5-7.3-9.8-14.3-8.3
		C-9.6,442.2-13.3,447.1-12,452.8z"/>
	<path class="st10" d="M102.3,274c-8.1,1.9-12.2,7.9-10.5,15.4c1.5,6.6,9.5,10.7,17.3,8.9c7-1.7,11.3-8.8,9.6-15.9
		C117.1,275.7,110.3,272.2,102.3,274z"/>
	<path class="st9" d="M112.3,471.1c-5.6-3.3-11-2-14,3.2c-2.6,4.5-0.3,11.1,5,14.2c4.8,2.8,11,1,13.8-3.9
		C119.7,479.9,117.8,474.2,112.3,471.1z"/>
	<path class="st5" d="M58.3,184.3c7.5-0.7,10.8-4.5,10-11.6c-0.6-5.9-4.1-9.1-9.1-8.5c-5.6,0.7-10.6,6.5-10,11.7
		C49.8,180.9,53.9,184.7,58.3,184.3z"/>
	<path class="st3" d="M75.8,303.1c-6.5,1.6-11.5,8.4-10.1,13.7c1.7,6.2,9.8,10.7,16.4,9.2c6.3-1.5,11.4-8.7,10-14.5
		C90.6,304.8,83.4,301.1,75.8,303.1z"/>
	<path class="st5" d="M21.4,198.5c0.7,7.6,6.8,12.7,14,11.9c5.9-0.6,9.7-5.3,8.9-10.8c-0.7-5.7-8-10.7-14.6-10
		C24,190.2,20.9,193.5,21.4,198.5z"/>
	<path class="st11" d="M-34.4,242.4c1.5,7.4,8,12,15.1,10.5c5.8-1.2,9.1-6.1,7.9-11.6c-1.3-5.6-9-9.9-15.5-8.6
		C-32.7,233.8-35.5,237.4-34.4,242.4z"/>
	<path class="st2" d="M44.5,345c1.4,6.5,8.9,11.4,15.1,9.8c4.1-1,7.5-7.2,6.5-11.5c-1.4-6.1-9-10.1-15.9-8.4
		C45.2,336.1,43.4,339.5,44.5,345z"/>
	<path class="st7" d="M78.5,116.5c-4.6,0.6-9.7,6.6-9.2,11.1c0.6,5.2,5.9,9.6,11.1,9c5.1-0.6,11.1-7.1,10.5-11.5
		C90.2,120.6,83.5,115.8,78.5,116.5z"/>
	<path class="st10" d="M82.6,370.4c-5.3,1.2-7.3,4.7-5.8,10.6c1.7,6.7,5.2,8.4,13.2,6.5c7.7-1.8,9.5-3.7,8.2-8.8
		C96.7,372.7,89.4,368.8,82.6,370.4z"/>
	<path class="st2" d="M39.9,124.6c0.6,4.7,5.2,8.2,10,7.6c4-0.5,8.2-7.6,7.6-12.9c-0.5-4.5-4-7.3-8.5-6.7
		C43.4,113.3,39.1,119,39.9,124.6z"/>
	<path class="st3" d="M0.6,367.3c-4.2,1-6.6,5.5-5.6,10.4c1,5.1,6.2,8.1,11.6,6.7c4.4-1.2,6.9-5.3,5.8-9.7
		C11.1,369.1,6,365.9,0.6,367.3z"/>
	<path class="st8" d="M20.4,426.3c-4.7,0.8-9,7-7.3,11.3c1.6,3.9,4.9,6.4,9.6,5.5c5.4-1.2,9.5-6.2,8.6-10.6
		C30.5,428.1,25.5,425.3,20.4,426.3z"/>
	<path class="st9" d="M16.4,301.1c-0.9-4.6-6-7.6-11.3-6.4c-4.6,1-8.2,5.8-7.4,9.6c0.8,3.7,6.8,6.3,12.3,5.2
		C14.8,308.4,17.1,305.4,16.4,301.1z"/>
	<path class="st5" d="M57.8,281.4c-3.4,0.7-5.5,3.1-5.1,5.6c0.4,2.2,3.8,4.1,6.5,3.5c2.2-0.4,3.9-3.3,3.3-5.9
		C61.9,282,59.9,281.3,57.8,281.4z"/>
	<path class="st2" d="M44.6,147.5c-4.6,0.5-7.6,3.4-7.3,6.6c0.3,2.9,4.5,5.7,8,5.4c2.9-0.3,5.5-3.9,5-7.2
		C49.7,148.9,47.2,147.7,44.6,147.5z"/>
	<ellipse transform="matrix(0.9911 -0.1328 0.1328 0.9911 -22.594 3.2604)" class="st2" cx="13.1" cy="171" rx="4.1" ry="4.1"/>
	<path class="st5" d="M38.8,324.6c-3.4,0.7-5.5,3.1-5.1,5.6c0.4,2.2,3.8,4.1,6.5,3.5c2.2-0.4,3.9-3.3,3.3-5.9
		C42.8,325.2,40.8,324.5,38.8,324.6z"/>
	<path class="st5" d="M-0.7,235.2c-3.4,0.7-5.5,3.1-5.1,5.6c0.4,2.2,3.8,4.1,6.5,3.5c2.2-0.4,3.9-3.3,3.3-5.9
		C3.3,235.9,1.3,235.2-0.7,235.2z"/>
	<path class="st2" d="M43.8,179.8c-3.5,0.4-5.8,2.6-5.6,5.1c0.2,2.2,3.4,4.4,6.2,4.1c2.2-0.2,4.2-2.9,3.9-5.5
		C47.8,180.8,45.9,179.9,43.8,179.8z"/>
	<path class="st5" d="M80,289.3c-3.4,0.7-5.5,3.1-5.1,5.6c0.4,2.2,3.8,4.1,6.5,3.5c2.2-0.4,3.9-3.3,3.3-5.9
		C84,290,82,289.2,80,289.3z"/>
	<path class="st10" d="M48,308c-4.1,1.1-7.8,6.9-6.5,11.5c1.4,5.2,5.6,4.7,9.8,3.8c5.9-1.4,8.6-4.8,7.6-9.6
		C58.1,309.4,53,306.7,48,308z"/>
	<path class="st10" d="M42.6,248.7c1.8-3.9-0.3-10.4-4.5-12.4c-4.9-2.3-7.3,1.3-9.2,5c-2.7,5.4-1.9,9.6,2.4,12
		C35,255.5,40.4,253.3,42.6,248.7z"/>
	<path class="st10" d="M70.9,278.5c-2.7,0.7-5.1,4.7-4.3,7.6c1,3.4,3.7,3.2,6.4,2.5c3.9-0.9,5.7-3.2,5-6.3
		C77.6,279.4,74.2,277.6,70.9,278.5z"/>
	<path class="st8" d="M31.8,309.8c4.9-1.1,7.3-5,6.2-9.9c-1.4-5.6-4.6-8-9.4-7c-5,1-8.2,5.3-7.1,9.6
		C22.7,307.1,27.5,310.6,31.8,309.8z"/>
	<path class="st5" d="M-16.4,301.9c-5,1-7.5,5.1-6.5,10.3c1,5.1,5,7.7,10.2,6.6c4.4-0.9,6.5-5.1,5.3-10.4
		C-8.6,303.5-12,301-16.4,301.9z"/>
	<path class="st5" d="M40.9,279.6c-4.1,0.9-6.2,4.2-5.3,8.5c0.9,4.2,4.1,6.4,8.3,5.4c3.5-0.7,5.3-4.1,4.4-8.6
		C47.4,280.9,44.6,278.8,40.9,279.6z"/>
	<path class="st5" d="M-9.9,256.9c-5,1-7.5,5.1-6.5,10.3c1,5.1,5,7.7,10.2,6.6c4.4-0.9,6.5-5.1,5.3-10.4C-2,258.6-5.4,256-9.9,256.9
		z"/>
	<path class="st7" d="M31.8,365.6c-0.9-4.4-4.7-6.6-9.7-5.5c-5.3,1.2-7.7,5.1-6.2,10.9c1.2,4.7,4.6,5.6,8.5,4.9
		C29.6,374.7,32.7,370.2,31.8,365.6z"/>
	<path class="st5" d="M96.2,323.4c1.1,4.4,5.5,6.9,10.4,5.7c4.8-1.2,7-4.6,5.8-8.9c-1.2-4.5-6-7.4-10.4-5.9
		C97.9,315.7,95.1,318.4,96.2,323.4z"/>
	<path class="st5" d="M-4.2,284.3c1.5,4.9,5.7,3.9,8.7,3.8c6.4-1.4,9.5-5.2,8.2-9.7c-1.4-5.4-5.8-4.8-9.8-4.2
		C-2.1,275.2-5.6,280-4.2,284.3z"/>
	<path class="st11" d="M82.9,361.8c4-1,6-3.9,5.6-8c-0.3-3.4-7.4-7.7-11.1-6.3c-2.4,1-4.8,2.6-5,6.5
		C72.1,357.9,78.6,362.8,82.9,361.8z"/>
	<path class="st11" d="M4.6,423.2c4-1,6-3.9,5.6-8c-0.3-3.4-7.4-7.7-11.1-6.3c-2.4,1-4.8,2.6-5,6.5C-6.2,419.3,0.3,424.2,4.6,423.2z
		"/>
	<path class="st10" d="M80.7,485.7c-4,1-4.8,4.3-3.5,7.1c0.9,1.9,3.1,4.7,6.1,4.3c2.9-0.4,6.1-4.2,5.6-7.8
		C88.5,486.2,84.7,484.7,80.7,485.7z"/>
	<path class="st5" d="M11.4,332.5c-0.8-4.5-3.5-7.1-8.3-6.8c-4,0.7-7.1,5.1-6.2,9.6c0.9,4.5,4.5,4.6,8,4
		C8.5,338.7,12.3,337.6,11.4,332.5z"/>
	<path class="st5" d="M71.5,248.6c3.5-1.7,3.7-4.2,3.5-7c-0.1-2.5-2.4-5.5-5.8-4.7c-8,1.9-6.7,7.5-5.3,9.5
		C65.2,248.4,68,250.3,71.5,248.6z"/>
	
		<ellipse transform="matrix(0.9911 -0.1328 0.1328 0.9911 -19.2446 16.4277)" class="st7" cx="113.5" cy="152.5" rx="4.2" ry="4.2"/>
	<ellipse transform="matrix(0.9911 -0.1328 0.1328 0.9911 -17.9057 12.7099)" class="st5" cx="86.3" cy="140.6" rx="3.4" ry="3.4"/>
	<path class="st5" d="M-13.2,475"/>
	<ellipse transform="matrix(0.974 -0.2267 0.2267 0.974 -87.8601 24.5643)" class="st5" cx="63" cy="394.8" rx="4.2" ry="4.2"/>
	<ellipse transform="matrix(0.974 -0.2267 0.2267 0.974 -73.4825 12.3479)" class="st2" cx="17" cy="326.1" rx="5.1" ry="5.1"/>
	<ellipse transform="matrix(0.974 -0.2267 0.2267 0.974 -90.4474 10.4372)" class="st2" cx="0.2" cy="399" rx="5.1" ry="5.1"/>
	<ellipse transform="matrix(0.974 -0.2267 0.2267 0.974 -66.5508 20.5309)" class="st6" cx="56.1" cy="300" rx="5.1" ry="5.1"/>
	<ellipse transform="matrix(0.974 -0.2267 0.2267 0.974 -81.3347 9.3907)" class="st7" cx="0.2" cy="358.8" rx="4.9" ry="4.9"/>
	<ellipse transform="matrix(0.974 -0.2267 0.2267 0.974 -56.9482 7.7394)" class="st7" cx="5.2" cy="251.8" rx="4.9" ry="4.9"/>
	<ellipse transform="matrix(0.974 -0.2267 0.2267 0.974 -60.8496 18.9584)" class="st10" cx="52.1" cy="274.4" rx="4.7" ry="4.7"/>
	<ellipse transform="matrix(0.974 -0.2267 0.2267 0.974 -90.6364 19.393)" class="st5" cx="39.1" cy="404.3" rx="4.7" ry="4.7"/>
	<ellipse transform="matrix(0.974 -0.2267 0.2267 0.974 -78.5333 6.3568)" class="st5" cx="-11.6" cy="345.1" rx="6.9" ry="6.9"/>
	<ellipse transform="matrix(0.974 -0.2267 0.2267 0.974 -64.8908 3.7784)" class="st5" cx="-16" cy="284.4" rx="5.2" ry="5.2"/>
	
		<ellipse transform="matrix(0.9911 -0.1328 0.1328 0.9911 -15.3887 15.6502)" class="st5" cx="109.6" cy="123.2" rx="5.2" ry="5.2"/>
	<ellipse transform="matrix(0.9911 -0.1328 0.1328 0.9911 -25.7636 9.686)" class="st5" cx="59.7" cy="198" rx="5.2" ry="5.2"/>
	<ellipse transform="matrix(0.974 -0.2267 0.2267 0.974 -58.6225 20.9545)" class="st5" cx="61.9" cy="265.7" rx="3.3" ry="3.3"/>
	<ellipse transform="matrix(0.974 -0.2267 0.2267 0.974 -67.5073 5.9643)" class="st5" cx="-7.8" cy="296.9" rx="2.9" ry="2.9"/>
	<ellipse transform="matrix(0.974 -0.2267 0.2267 0.974 -80.8356 19.552)" class="st5" cx="44.7" cy="361.7" rx="4.7" ry="4.7"/>
	<ellipse transform="matrix(0.974 -0.2267 0.2267 0.974 -73.4435 30.5129)" class="st5" cx="96.1" cy="335" rx="2.4" ry="2.4"/>
	<ellipse transform="matrix(0.974 -0.2267 0.2267 0.974 -45.7362 22.5544)" class="st7" cx="75.3" cy="210.4" rx="2.4" ry="2.4"/>
	<ellipse transform="matrix(0.974 -0.2267 0.2267 0.974 -72.7438 15.1786)" class="st7" cx="29.7" cy="324.3" rx="2.4" ry="2.4"/>
	<ellipse transform="matrix(0.974 -0.2267 0.2267 0.974 -92.1997 14.4963)" class="st7" cx="17" cy="408.7" rx="2.4" ry="2.4"/>
	<ellipse transform="matrix(0.974 -0.2267 0.2267 0.974 -88.5856 16.4465)" class="st7" cx="27.3" cy="393.9" rx="2.4" ry="2.4"/>
	<ellipse transform="matrix(0.974 -0.2267 0.2267 0.974 -101.7402 16.761)" class="st7" cx="22.1" cy="451.3" rx="2.4" ry="2.4"/>
	<ellipse transform="matrix(0.974 -0.2267 0.2267 0.974 -71.4735 8.6483)" class="st7" cx="1.9" cy="315.5" rx="2.4" ry="2.4"/>
	<ellipse transform="matrix(0.9911 -0.1328 0.1328 0.9911 -22.3488 6.897)" class="st7" cx="40.5" cy="171" rx="2.4" ry="2.4"/>
	<ellipse transform="matrix(0.9911 -0.1328 0.1328 0.9911 -23.95 5.9243)" class="st7" cx="32.4" cy="182.5" rx="2.4" ry="2.4"/>
	<ellipse transform="matrix(0.974 -0.2267 0.2267 0.974 -102.3532 31.7611)" class="st5" cx="87.1" cy="461.5" rx="2.4" ry="2.4"/>
	<ellipse transform="matrix(0.9911 -0.1328 0.1328 0.9911 -19.4399 13.9066)" class="st5" cx="94.5" cy="152.7" rx="2.4" ry="2.4"/>
	<ellipse transform="matrix(0.9911 -0.1328 0.1328 0.9911 -20.7572 8.5524)" class="st5" cx="53.7" cy="159.9" rx="2.4" ry="2.4"/>
	<ellipse transform="matrix(0.974 -0.2267 0.2267 0.974 -74.1337 26.2694)" class="st5" cx="77.3" cy="335.9" rx="6.6" ry="6.6"/>
	<ellipse transform="matrix(0.974 -0.2267 0.2267 0.974 -89.4883 14.185)" class="st5" cx="17" cy="396.7" rx="5.6" ry="5.6"/>
	<ellipse transform="matrix(0.9911 -0.1328 0.1328 0.9911 -18.5693 8.967)" class="st2" cx="57.9" cy="143.7" rx="7.5" ry="7.5"/>
	<path class="st5" d="M29.6,282.5c-0.6-2.9-3-3.7-6.4-4c-2.9-0.3-4.7,3.5-4,6.4c0.6,2.9,3.5,4.7,6.4,4
		C28.4,288.2,30.2,285.3,29.6,282.5z"/>
	<path class="st7" d="M29.4,262.4c0.2-4.4-5.3-6.9-9.5-5.9S13,261.8,14,266c1,4.3,5.4,7.4,9.5,5.9C27.6,270.6,29.2,266.8,29.4,262.4
		z"/>
	<ellipse transform="matrix(0.974 -0.2267 0.2267 0.974 -58.2139 16.5207)" class="st5" cx="42.8" cy="261.7" rx="6.9" ry="6.9"/>
	<ellipse transform="matrix(0.9911 -0.1328 0.1328 0.9911 -17.6096 14.3573)" class="st5" cx="98.8" cy="139.2" rx="6.9" ry="6.9"/>
	<ellipse transform="matrix(0.974 -0.2267 0.2267 0.974 -86.0144 18.4469)" class="st5" cx="37.3" cy="383.7" rx="7.4" ry="7.4"/>
	<ellipse transform="matrix(0.974 -0.2267 0.2267 0.974 -96.4016 20.5834)" class="st5" cx="41.4" cy="430" rx="3.7" ry="3.7"/>
	<ellipse transform="matrix(0.974 -0.2267 0.2267 0.974 -70.6908 12.46)" class="st5" cx="18.9" cy="314" rx="3.7" ry="3.7"/>
	<ellipse transform="matrix(0.974 -0.2267 0.2267 0.974 -93.7495 15.7044)" class="st5" cx="21.5" cy="416" rx="3.7" ry="3.7"/>
	<ellipse transform="matrix(0.974 -0.2267 0.2267 0.974 -72.889 22.727)" class="st7" cx="62.5" cy="328.7" rx="2.2" ry="2.2"/>
	<ellipse transform="matrix(0.974 -0.2267 0.2267 0.974 -53.8352 10.8263)" class="st7" cx="20.2" cy="239.8" rx="2.2" ry="2.2"/>
	<ellipse transform="matrix(0.974 -0.2267 0.2267 0.974 -60.5104 21.7197)" class="st7" cx="64.3" cy="274.3" rx="2.2" ry="2.2"/>
	<ellipse transform="matrix(0.974 -0.2267 0.2267 0.974 -60.2061 25.7784)" class="st5" cx="82.1" cy="275" rx="2.2" ry="2.2"/>
	<ellipse transform="matrix(0.974 -0.2267 0.2267 0.974 -103.9716 30.4301)" class="st5" cx="80.5" cy="467.9" rx="2.2" ry="2.2"/>
	<ellipse transform="matrix(0.974 -0.2267 0.2267 0.974 -47.3756 11.0481)" class="st5" cx="24.4" cy="211.8" rx="2.2" ry="2.2"/>
	<ellipse transform="matrix(0.974 -0.2267 0.2267 0.974 -55.9474 11.024)" class="st5" cx="20" cy="249.1" rx="2.2" ry="2.2"/>
	<ellipse transform="matrix(0.974 -0.2267 0.2267 0.974 -61.3388 14.699)" class="st6" cx="33.3" cy="274.4" rx="2.2" ry="2.2"/>
	<ellipse transform="matrix(0.974 -0.2267 0.2267 0.974 -80.7098 12.2125)" class="st5" cx="12.8" cy="357.5" rx="2.2" ry="2.2"/>
	<ellipse transform="matrix(0.974 -0.2267 0.2267 0.974 -86.6619 14.8481)" class="st5" cx="21.3" cy="384.7" rx="2.2" ry="2.2"/>
	<ellipse transform="matrix(0.974 -0.2267 0.2267 0.974 -97.2953 12.8014)" class="st5" cx="7.1" cy="430" rx="2.2" ry="2.2"/>
	<ellipse transform="matrix(0.974 -0.2267 0.2267 0.974 -67.347 17.9798)" class="st5" cx="44.6" cy="302.2" rx="2.2" ry="2.2"/>
	<ellipse transform="matrix(0.974 -0.2267 0.2267 0.974 -59.0728 2.2379)" class="st5" cx="-19.8" cy="258.3" rx="2.2" ry="2.2"/>
	<ellipse transform="matrix(0.974 -0.2267 0.2267 0.974 -79.8812 32.2378)" class="st5" cx="100.4" cy="363.9" rx="2.2" ry="2.2"/>
	<ellipse transform="matrix(0.974 -0.2267 0.2267 0.974 -65.8441 30.2602)" class="st5" cx="98.8" cy="301.8" rx="2.2" ry="2.2"/>
	<ellipse transform="matrix(0.9911 -0.1328 0.1328 0.9911 -25.5287 8.2162)" class="st5" cx="48.8" cy="195.5" rx="2.2" ry="2.2"/>
	<ellipse transform="matrix(0.974 -0.2267 0.2267 0.974 -59.1291 23.7472)" class="st5" cx="73.8" cy="269.3" rx="2.2" ry="2.2"/>
	<ellipse transform="matrix(0.974 -0.2267 0.2267 0.974 -53.7746 17.7596)" class="st5" cx="50.4" cy="243" rx="2.2" ry="2.2"/>
	<ellipse transform="matrix(0.974 -0.2267 0.2267 0.974 -82.5452 23.2401)" class="st5" cx="59.9" cy="371" rx="2.2" ry="2.2"/>
	<ellipse transform="matrix(0.974 -0.2267 0.2267 0.974 -65.6694 22.7978)" class="st5" cx="66.4" cy="297.3" rx="2.2" ry="2.2"/>
	<path class="st10" d="M63.9,429.9c-6.4,5.3-7.4,12.5-2.6,18.5c4.3,5.2,13.3,5.4,19.5,0.3c5.5-4.6,6.2-12.9,1.5-18.5
		C77.9,424.8,70.2,424.7,63.9,429.9z"/>
	<path class="st3" d="M53,467.7c-5.1,4.3-6.6,12.6-3,16.8c4.3,4.8,13.5,5.2,18.8,1c5-4.1,6.4-12.9,2.5-17.4
		C67,462.7,59,462.6,53,467.7z"/>
	<path class="st5" d="M27.3,456.3c-2.7,2.1-3.6,5.2-2.1,7.3c1.3,1.8,5.2,2,7.4,0.3c1.8-1.3,2-4.7,0.3-6.8
		C31.2,455,29.1,455.2,27.3,456.3z"/>
	<path class="st5" d="M50.7,453.5c-2.7,2.1-3.6,5.2-2.1,7.3c1.3,1.8,5.2,2,7.4,0.3c1.8-1.3,2-4.7,0.3-6.8
		C54.6,452.3,52.4,452.5,50.7,453.5z"/>
	<path class="st10" d="M37.7,447.9c-2.1,1.8-2.5,6.5-0.5,8.7c2.4,2.6,4.7,1.2,6.8-0.6c3.1-2.5,3.7-5.4,1.7-7.9
		C44.1,445.7,40.3,445.6,37.7,447.9z"/>
	<path class="st8" d="M16.6,493.3c3.9-3.2,4.3-7.7,1.2-11.6c-3.7-4.4-7.7-5.1-11.5-2.1c-4,3.1-5,8.4-2.1,11.8
		C7.2,494.9,13.1,495.9,16.6,493.3z"/>
	<path class="st5" d="M11.3,462.2c-3.3,2.6-3.7,6.5-1,10c2.7,3.4,6.5,3.9,9.8,1.2c2.8-2.2,2.9-6,0.1-9.7
		C17.7,460.4,14.3,459.8,11.3,462.2z"/>
	<ellipse transform="matrix(0.7722 -0.6354 0.6354 0.7722 -293.2684 129.5302)" class="st6" cx="34" cy="473.7" rx="5.1" ry="5.1"/>
	<path class="st5" d="M2.5,469.8c-1.8-2.3-4.3-2-7.5-0.7c-2.7,1-2.7,5.2-0.7,7.5c1.8,2.3,5.2,2.7,7.5,0.7
		C3.9,475.4,4.3,472,2.5,469.8z"/>
	
		<ellipse transform="matrix(0.7722 -0.6354 0.6354 0.7722 -299.8881 125.2074)" class="st5" cx="24.7" cy="480.8" rx="2.2" ry="2.2"/>
	
		<ellipse transform="matrix(0.7722 -0.6354 0.6354 0.7722 -273.339 150.4013)" class="st5" cx="73.1" cy="456.4" rx="2.2" ry="2.2"/>
	
		<ellipse transform="matrix(0.7722 -0.6354 0.6354 0.7722 -284.3272 162.423)" class="st5" cx="84.3" cy="477.7" rx="2.2" ry="2.2"/>
	<ellipse transform="matrix(0.7722 -0.6354 0.6354 0.7722 -286.9896 133.0437)" class="st5" cx="42" cy="466.7" rx="2.2" ry="2.2"/>
	<ellipse transform="matrix(0.974 -0.2267 0.2267 0.974 -70.8122 15.7845)" class="st5" cx="33.3" cy="316.2" rx="2.2" ry="2.2"/>
	<ellipse transform="matrix(0.974 -0.2267 0.2267 0.974 -68.4977 2.5416)" class="st8" cx="-23.2" cy="299.5" rx="2.2" ry="2.2"/>
	<ellipse transform="matrix(0.974 -0.2267 0.2267 0.974 -38.2816 10.8678)" class="st5" cx="28.2" cy="172.1" rx="5.2" ry="5.2"/>
	<ellipse transform="matrix(0.974 -0.2267 0.2267 0.974 -41.8885 9.6309)" class="st8" cx="21" cy="187.2" rx="2.2" ry="2.2"/>
	<ellipse transform="matrix(0.974 -0.2267 0.2267 0.974 -78.3128 9.5007)" class="st5" cx="2.2" cy="345.7" rx="2.2" ry="2.2"/>
	<ellipse transform="matrix(0.974 -0.2267 0.2267 0.974 -72.1007 10.6014)" class="st5" cx="10.1" cy="319.2" rx="2.2" ry="2.2"/>
	<ellipse transform="matrix(0.974 -0.2267 0.2267 0.974 -56.263 19.6706)" class="st7" cx="57.5" cy="254.8" rx="3.3" ry="3.3"/>
	<ellipse transform="matrix(0.974 -0.2267 0.2267 0.974 -45.8205 9.0645)" class="st7" cx="16.6" cy="204" rx="3.3" ry="3.3"/>
	<path class="st10" d="M2.7,218c-2.7,0.7-5.1,4.7-4.3,7.6c1,3.4,3.7,3.2,6.4,2.5c3.9-0.9,5.7-3.2,5-6.3C9.4,218.9,6,217.1,2.7,218z"
		/>
	<path class="st10" d="M4.3,192.6c-4,1-4.8,4.3-3.5,7.1c0.9,1.9,3.1,4.7,6.1,4.3c2.9-0.4,6.1-4.2,5.6-7.8
		C12.1,193.1,8.3,191.6,4.3,192.6z"/>
	<path class="st5" d="M12.5,190c3.5-1.7,3.7-4.2,3.5-7c-0.1-2.5-2.4-5.5-5.8-4.7c-8,1.9-6.7,7.5-5.3,9.5C6.2,189.8,9,191.7,12.5,190
		z"/>
	<ellipse transform="matrix(0.974 -0.2267 0.2267 0.974 -51.8832 8.9389)" class="st10" cx="13" cy="230.4" rx="4.7" ry="4.7"/>
	<ellipse transform="matrix(0.974 -0.2267 0.2267 0.974 -49.6561 10.9349)" class="st5" cx="22.8" cy="221.7" rx="3.3" ry="3.3"/>
	<ellipse transform="matrix(0.974 -0.2267 0.2267 0.974 -101.914 40.3868)" class="st5" cx="124.9" cy="463.9" rx="3.3" ry="3.3"/>
	<ellipse transform="matrix(0.974 -0.2267 0.2267 0.974 -51.544 11.7002)" class="st7" cx="25.2" cy="230.3" rx="2.2" ry="2.2"/>
	<ellipse transform="matrix(0.974 -0.2267 0.2267 0.974 -48.2672 8.7306)" class="st5" cx="13.9" cy="214.5" rx="2.2" ry="2.2"/>
	<ellipse transform="matrix(0.974 -0.2267 0.2267 0.974 -47.1903 6.6994)" class="st5" cx="5.6" cy="208.8" rx="2.2" ry="2.2"/>
	<ellipse transform="matrix(0.974 -0.2267 0.2267 0.974 -40.1703 4.824)" class="st7" cx="0.9" cy="177.3" rx="3.3" ry="3.3"/>
	<ellipse transform="matrix(0.9911 -0.1328 0.1328 0.9911 -14.7512 9.619)" class="st5" cx="64.7" cy="115.4" rx="3.3" ry="3.3"/>
	<ellipse transform="matrix(0.9911 -0.1328 0.1328 0.9911 -20.9222 5.495)" class="st5" cx="30.7" cy="159.6" rx="3.3" ry="3.3"/>
	<ellipse transform="matrix(0.974 -0.2267 0.2267 0.974 -93.6554 19.3244)" class="st5" cx="37.3" cy="417.4" rx="5.1" ry="5.1"/>
	<ellipse transform="matrix(0.974 -0.2267 0.2267 0.974 -104.3483 32.9778)" class="st6" cx="91.4" cy="470.8" rx="4.1" ry="4.1"/>
	<ellipse transform="matrix(0.9911 -0.1328 0.1328 0.9911 -19.8935 10.7215)" class="st2" cx="70.4" cy="154.5" rx="4.1" ry="4.1"/>
	<ellipse transform="matrix(0.974 -0.2267 0.2267 0.974 -60.138 8.5389)" class="st2" cx="7.1" cy="266.1" rx="4.1" ry="4.1"/>
	<ellipse transform="matrix(0.9911 -0.1328 0.1328 0.9911 -30.112 6.3621)" class="st7" cx="32.6" cy="228.9" rx="2.4" ry="2.4"/>
	<ellipse transform="matrix(0.9911 -0.1328 0.1328 0.9911 -28.547 6.2309)" class="st5" cx="32.4" cy="217.1" rx="3.3" ry="3.3"/>
	<path class="st2" d="M252.6,57.7c1.9,3.6,7.1,5.2,10.6,3.3c2.3-1.3,3.4-5.4,2.1-7.9c-1.8-3.4-7-4.4-10.9-2.3
		C251.6,52.3,251,54.6,252.6,57.7z"/>
	<ellipse transform="matrix(0.8817 -0.4718 0.4718 0.8817 1.1794 165.8257)" class="st5" cx="331.2" cy="80.6" rx="2.6" ry="2.6"/>
	<ellipse transform="matrix(0.8817 -0.4718 0.4718 0.8817 26.8648 214.8824)" class="st7" cx="441.9" cy="53.9" rx="2.6" ry="2.6"/>
	
		<ellipse transform="matrix(0.8817 -0.4718 0.4718 0.8817 -11.8845 139.2633)" class="st5" cx="271.7" cy="93.3" rx="3.6" ry="3.6"/>
	<ellipse transform="matrix(0.8817 -0.4718 0.4718 0.8817 -7.1748 163.1382)" class="st6" cx="321.7" cy="95.9" rx="4.2" ry="4.2"/>
	<path class="st8" d="M352.4,80.1c1.5,2.8,5.1,3.9,8,2.3c2.3-1.2,3.3-6.7,1.8-9.8c-1.3-2.7-4.2-3.6-6.9-2.2
		C352,72,350.6,76.7,352.4,80.1z"/>
	<ellipse transform="matrix(0.8817 -0.4718 0.4718 0.8817 -1.1861 189.3809)" class="st7" cx="377" cy="97.1" rx="4.1" ry="4.1"/>
	<ellipse transform="matrix(0.8817 -0.4718 0.4718 0.8817 16.0029 185.0875)" class="st7" cx="377.1" cy="60.6" rx="3.7" ry="3.7"/>
	<ellipse transform="matrix(0.8817 -0.4718 0.4718 0.8817 10.1098 160.6108)" class="st5" cx="325.3" cy="60.1" rx="4.6" ry="4.6"/>
	<ellipse transform="matrix(0.8817 -0.4718 0.4718 0.8817 13.6244 190.8056)" class="st5" cx="387.3" cy="68.2" rx="5.6" ry="5.6"/>
	<ellipse transform="matrix(0.8817 -0.4718 0.4718 0.8817 17.9664 222.9707)" class="st5" cx="453.6" cy="75.7" rx="2.6" ry="2.6"/>
	<ellipse transform="matrix(0.8817 -0.4718 0.4718 0.8817 14.302 212.2618)" class="st7" cx="430.4" cy="77.6" rx="2.6" ry="2.6"/>
	<ellipse transform="matrix(0.8817 -0.4718 0.4718 0.8817 24.9949 140.773)" class="st5" cx="293.2" cy="20.5" rx="2.6" ry="2.6"/>
	<ellipse transform="matrix(0.8817 -0.4718 0.4718 0.8817 16.0328 205.6904)" class="st5" cx="418.2" cy="70.9" rx="2.6" ry="2.6"/>
	<ellipse transform="matrix(0.8817 -0.4718 0.4718 0.8817 21.9508 155.1609)" class="st7" cx="320.4" cy="33.8" rx="2.6" ry="2.6"/>
	<ellipse transform="matrix(0.8817 -0.4718 0.4718 0.8817 -3.5146 147.1993)" class="st7" cx="291.8" cy="80.6" rx="5.8" ry="5.8"/>
	<ellipse transform="matrix(0.8817 -0.4718 0.4718 0.8817 11.5416 198.1517)" class="st6" cx="400.9" cy="76.1" rx="3.4" ry="3.4"/>
	<ellipse transform="matrix(0.8817 -0.4718 0.4718 0.8817 4.207 149.1413)" class="st5" cx="299.5" cy="66.2" rx="2.4" ry="2.4"/>
	<ellipse transform="matrix(0.9911 -0.1328 0.1328 0.9911 -7.5632 35.6838)" class="st5" cx="263.7" cy="74.5" rx="2.4" ry="2.4"/>
	<ellipse transform="matrix(0.8817 -0.4718 0.4718 0.8817 18.954 213.78)" class="st8" cx="435.8" cy="69.1" rx="2.4" ry="2.4"/>
	<ellipse transform="matrix(0.8817 -0.4718 0.4718 0.8817 9.0792 169.6537)" class="st7" cx="342.8" cy="66.7" rx="2.4" ry="2.4"/>
	<ellipse transform="matrix(0.8817 -0.4718 0.4718 0.8817 -6.6715 156.5862)" class="st5" cx="308.9" cy="91.6" rx="3.6" ry="3.6"/>
	<ellipse transform="matrix(0.8817 -0.4718 0.4718 0.8817 5.4979 135.2503)" class="st5" cx="272.4" cy="56.7" rx="3.6" ry="3.6"/>
	<ellipse transform="matrix(0.8817 -0.4718 0.4718 0.8817 19.4043 202.1828)" class="st2" cx="412.9" cy="62.4" rx="4.2" ry="4.2"/>
	<ellipse transform="matrix(0.8817 -0.4718 0.4718 0.8817 4.2793 191.9928)" class="st2" cx="385" cy="87.5" rx="4.4" ry="4.4"/>
	<ellipse transform="matrix(0.9911 -0.1328 0.1328 0.9911 -6.1257 70.4155)" class="st7" cx="524.8" cy="81.1" rx="2.4" ry="2.4"/>
	<ellipse transform="matrix(0.9911 -0.1328 0.1328 0.9911 -4.6215 62.5635)" class="st7" cx="466.7" cy="65.9" rx="3.4" ry="3.4"/>
	<ellipse transform="matrix(0.9911 -0.1328 0.1328 0.9911 -5.8813 63.4887)" class="st5" cx="473" cy="75.8" rx="5.2" ry="5.2"/>
	<ellipse transform="matrix(0.9911 -0.1328 0.1328 0.9911 -9.088 71.012)" class="st5" cx="527.8" cy="103.6" rx="2.4" ry="2.4"/>
	<ellipse transform="matrix(0.9911 -0.1328 0.1328 0.9911 -8.4996 68.225)" class="st7" cx="507.2" cy="97.8" rx="2.4" ry="2.4"/>
	<ellipse transform="matrix(0.9911 -0.1328 0.1328 0.9911 -7.286 67.0247)" class="st5" cx="498.8" cy="88.1" rx="2.4" ry="2.4"/>
	
		<ellipse transform="matrix(0.9911 -0.1328 0.1328 0.9911 -13.7509 45.7208)" class="st7" cx="335.9" cy="125.9" rx="2.4" ry="2.4"/>
	<ellipse transform="matrix(0.9911 -0.1328 0.1328 0.9911 -7.2742 64.808)" class="st6" cx="482.2" cy="86.9" rx="3.1" ry="3.1"/>
	<ellipse transform="matrix(0.9911 -0.1328 0.1328 0.9911 -7.6898 69.1583)" class="st8" cx="514.6" cy="92.2" rx="2.2" ry="2.2"/>
	<ellipse transform="matrix(0.9911 -0.1328 0.1328 0.9911 -6.0929 66.7037)" class="st2" cx="497" cy="79" rx="3.9" ry="3.9"/>
	<ellipse transform="matrix(0.9911 -0.1328 0.1328 0.9911 -8.0523 62.5389)" class="st2" cx="464.8" cy="91.6" rx="4.1" ry="4.1"/>
</g>
</svg>
