<?xml version="1.0" encoding="utf-8"?>
<!-- Generator: Adobe Illustrator 21.0.2, SVG Export Plug-In . SVG Version: 6.00 Build 0)  -->
<svg version="1.1" id="Layer_1" xmlns="http://www.w3.org/2000/svg" xmlns:xlink="http://www.w3.org/1999/xlink" x="0px" y="0px"
	 viewBox="0 0 539 483.4" style="enable-background:new 0 0 539 483.4;" xml:space="preserve">
<style type="text/css">
	.st0{opacity:0.33;}
	.st1{opacity:0.44;fill:#ECECEC;enable-background:new    ;}
	.st2{opacity:0.75;fill:#ECECEC;enable-background:new    ;}
	.st3{opacity:0.35;fill:#ECECEC;enable-background:new    ;}
	.st4{fill:none;stroke:#ECECEC;stroke-miterlimit:10;}
	.st5{fill:#ECECEC;}
	.st6{opacity:0.76;fill:#EEEEEE;enable-background:new    ;}
	.st7{opacity:0.44;fill:#EEEEEE;enable-background:new    ;}
	.st8{fill:#EEEEEE;}
	.st9{opacity:0.35;fill:#EEEEEE;enable-background:new    ;}
	.st10{opacity:0.75;fill:#EEEEEE;enable-background:new    ;}
</style>
<g>
	<g class="st0">
		<path class="st1" d="M573,461.8c-7.7-1-13-8.4-11.8-16.9c0.9-6.6,6.3-10.4,13.4-9.5c7.5,1,12,7.2,11,15.3
			C584.7,457.9,579.4,462.6,573,461.8z"/>
		<path class="st1" d="M897.7,462.9c-7.7-1-13-8.4-11.8-16.9c0.9-6.6,6.3-10.4,13.4-9.5c7.5,1,12,7.2,11,15.3
			C909.4,459,904.2,463.7,897.7,462.9z"/>
		<path class="st1" d="M862.8,431.8c-7.5-0.9-13.8-8.8-12.7-16c0.8-4.7,7.3-9.3,12.4-8.6c7,0.9,12.4,9.1,11.2,17.1
			C872.7,430,869.1,432.5,862.8,431.8z"/>
		<path class="st2" d="M943.5,453.1c-0.4,5.4-6.9,11-12,9.5c-4.6-1.4-7.8-4.8-7.2-10.3c0.7-6.3,6-11.4,11.1-10.9
			C940.3,442,943.9,447.2,943.5,453.1z"/>
		<path class="st3" d="M913.8,401.4c4.2-2.5,11.8-0.8,14.6,3.8c3.1,5.3-0.6,8.3-4.6,11c-5.8,3.7-10.7,3.2-13.8-1.3
			C907,410.7,908.8,404.4,913.8,401.4z"/>
		<path class="st4" d="M829,429.6c5.1,0.5,7.9,4.6,7.3,10.3c-0.7,6.2-5,9.2-11.6,8.1c-5.5-0.8-6.8-4.6-6.5-9.1
			C819,433,823.8,429,829,429.6z"/>
		<path class="st5" d="M788,444.5"/>
		
			<ellipse transform="matrix(0.1328 -0.9911 0.9911 0.1328 253.9953 1173.5625)" class="st1" cx="797.6" cy="441.6" rx="5.8" ry="5.8"/>
		
			<ellipse transform="matrix(0.1328 -0.9911 0.9911 0.1328 359.7325 1250.5247)" class="st5" cx="894.5" cy="419.7" rx="5.3" ry="5.3"/>
		
			<ellipse transform="matrix(0.1328 -0.9911 0.9911 0.1328 281.2492 1165.8827)" class="st5" cx="806.9" cy="422.2" rx="5.3" ry="5.3"/>
		
			<ellipse transform="matrix(0.1328 -0.9911 0.9911 0.1328 263.508 1141.4717)" class="st4" cx="784.1" cy="420.2" rx="2.7" ry="2.7"/>
		<path class="st4" d="M885.2,389c4.9-0.7,8.4,5.2,7.8,10.1c-0.7,4.9-5.2,8.4-10.1,7.8c-4.9-0.7-9-5.3-7.8-10.1
			C876.3,391.9,880.4,389.6,885.2,389z"/>
		
			<ellipse transform="matrix(0.1328 -0.9911 0.9911 0.1328 386.375 1301.4098)" class="st5" cx="936.9" cy="429.9" rx="4.2" ry="4.2"/>
		
			<ellipse transform="matrix(0.1328 -0.9911 0.9911 0.1328 308.8573 1188.814)" class="st5" cx="833.8" cy="417.9" rx="4.2" ry="4.2"/>
		
			<ellipse transform="matrix(0.1328 -0.9911 0.9911 0.1328 381.3156 1337.3643)" class="st5" cx="954.9" cy="450.8" rx="4.2" ry="4.2"/>
		
			<ellipse transform="matrix(0.1328 -0.9911 0.9911 0.1328 302.7683 1234.4298)" class="st5" cx="856.8" cy="444.2" rx="5.8" ry="5.8"/>
	</g>
	<g class="st0">
		<path class="st6" d="M388.7,409.6c3.5,0.7,5.2,3.8,4.4,7.8c-0.7,3.5-4.3,6-7.6,5.3c-3-0.6-4.8-4.3-4-8.1
			C382.3,411,385.3,408.9,388.7,409.6z"/>
		<path class="st7" d="M754.1,427.3c-3.4,0.1-7.2-4-7.2-7.8s3.2-7.2,6.9-7.2c3.6,0,6.4,3.1,6.4,7.2
			C760.1,423.5,757.2,427.2,754.1,427.3z"/>
		<path class="st7" d="M59.4,458.6c-0.7-3.7,2.3-7.9,6-8.4c2.4-0.3,5.6,2.2,6,4.7c0.5,3.5-2.7,7.2-6.8,7.8
			C61.8,463.1,60,461.7,59.4,458.6z"/>
		<path class="st8" d="M616.4,417.7c0.1,3.6-1.8,6.2-4.3,6.3c-2.2,0.1-4.9-2.9-5-5.6c-0.1-2.3,2.4-4.6,5-4.6
			C614.8,413.9,615.9,415.7,616.4,417.7z"/>
		<path class="st7" d="M-84.4,466.8c1.1-1.2,2.7-1.8,4.2-1.8c2.7,0.1,4.4,1.6,5,4.4v0.1c0.1,3.9-2,6.9-5,7c-1.1,0-2.2-0.5-3.3-1.4
			c-1.4-1.3-2.3-3.1-2.4-4.8v-0.1C-85.9,469-85.4,467.8-84.4,466.8z M-76.6,469.6c-0.5-2.2-1.7-3.3-3.7-3.3c-1.1,0-2.3,0.5-3.2,1.4
			c-0.7,0.8-1.2,1.7-1.1,2.5c0.1,1.3,0.8,2.9,2,3.9c0.8,0.7,1.6,1.1,2.3,1.1c2.1-0.1,3.7-2.4,3.7-5.4
			C-76.6,469.7-76.6,469.7-76.6,469.6z"/>
		<path class="st8" d="M769.1,420.9c-3.6,0.3-6.3-1.5-6.5-4c-0.2-2.2,2.6-5,5.3-5.3c2.3-0.2,4.8,2.2,4.9,4.7
			C772.9,419.1,771.2,420.3,769.1,420.9z"/>
		<path class="st8" d="M342.2,427.7c-3.6,0.3-6.3-1.5-6.5-4c-0.2-2.2,2.6-5,5.3-5.3c2.3-0.2,4.8,2.2,4.9,4.7
			C345.9,425.9,344.2,427.2,342.2,427.7z"/>
		<path class="st8" d="M20.8,459.3c0.1,3.6-1.8,6.2-4.3,6.3c-2.2,0.1-4.9-2.9-5-5.6c-0.1-2.3,2.4-4.6,5-4.6
			C19.3,455.5,20.4,457.3,20.8,459.3z"/>
		<path class="st8" d="M142.1,457.6c0.1,3.6-1.8,6.2-4.3,6.3c-2.2,0.1-4.9-2.9-5-5.6c-0.1-2.3,2.4-4.6,5-4.6
			C140.5,453.7,141.7,455.5,142.1,457.6z"/>
		<path class="st8" d="M14.4,388.9c0.1,3.6-1.8,6.2-4.3,6.3c-2.2,0.1-4.9-2.9-5-5.6c-0.1-2.3,2.4-4.6,5-4.6
			C12.8,385,14,386.8,14.4,388.9z"/>
		<path class="st7" d="M-174.3,460c0.1,3.6-1.8,6.2-4.3,6.3c-2.2,0.1-4.9-2.9-5-5.6c-0.1-2.3,2.4-4.6,5-4.6
			C-175.8,456.1-174.7,457.9-174.3,460z"/>
		<path class="st9" d="M-14.5,431.8c-0.1,2.9-3.4,6.1-6.6,6c-3.6-0.1-3.9-3-3.9-5.8c0-4.1,1.8-6.3,5.1-6.4
			C-16.9,425.5-14.3,428.4-14.5,431.8z"/>
		<path class="st7" d="M850.2,450.7c4.9,0.1,8.4,3.7,8,8.7c-0.3,4.4-2.6,7.2-7.4,7c-5-0.2-8.7-3.8-8.6-8.8
			C842.9,453.4,845.3,450.7,850.2,450.7z"/>
		<path class="st10" d="M308.7,414.8c3.5-0.1,6.3,2.4,6.4,5.6c0.1,3.1-2.8,5.5-6.8,5.7c-1.9,0.1-3.3-0.3-4.2-1.2
			c-0.9-0.8-1.3-2-1.3-3.7v-0.1C302.7,417.4,305,414.9,308.7,414.8z M313.7,420.5c-0.1-2.5-2.3-4.4-5-4.3c-2.9,0.1-4.7,1.9-4.7,4.9
			v0.1l0,0c0,1.3,0.3,2.2,0.9,2.8c0.7,0.6,1.7,0.9,3.3,0.9c3.2-0.1,5.5-1.9,5.5-4.2C313.7,420.6,313.7,420.5,313.7,420.5z"/>
		<path class="st8" d="M731.7,454.7c-5-0.1-8-3-7.7-7.9c0.2-4.1,1.3-7.7,4.8-7.8c6.3,0.1,9.7,4.2,9.5,9.6
			C738.1,452.8,735.9,454.7,731.7,454.7z"/>
		<path class="st8" d="M300.1,343.5c2-1.6,4.1-2.2,6-1.7l0,0c0.3,0.1,6.9,2.1,6.9,9.6v0.1c0,1.9-0.7,3.6-2.1,4.9
			c-2.1,2.1-5.2,2.8-6.8,2.7c-6.1-0.1-7-4.7-7.3-9c0-0.1,0-0.3,0-0.4C296.7,347.6,298,345.2,300.1,343.5z M305.6,343.1L305.6,343.1
			c-1.4-0.4-3.1,0.1-4.7,1.4c-1.9,1.5-3,3.7-2.9,5.4c0.4,4.1,1.1,7.7,6.1,7.8c1.4,0,4.1-0.7,5.8-2.4c1.1-1.1,1.7-2.4,1.7-4l0,0
			C311.6,345,305.9,343.2,305.6,343.1z"/>
		<path class="st6" d="M732.9,401.5c1.5-1.4,3.1-2,4.8-1.9c4.8,0.5,7.7,3.4,7.8,8.1c0,2.1-1.3,4.6-3.5,6.4c-2,1.6-4.1,2.3-6,1.9
			c-3.1-0.7-6.4-3.4-6.5-6.6c0-0.1,0-0.1,0-0.2C729.5,406.5,730.8,403.5,732.9,401.5z M744.1,407.8L744.1,407.8
			c-0.1-4.1-2.4-6.5-6.6-6.9c-1.6-0.2-2.9,0.7-3.7,1.5c-1.8,1.7-3.1,4.6-3,6.9c0.1,2.6,2.9,4.8,5.5,5.4c1.4,0.3,3.2-0.3,4.8-1.6
			C742.9,411.7,744.1,409.6,744.1,407.8C744.1,407.9,744.1,407.9,744.1,407.8z"/>
		<path class="st8" d="M603.1,461.7c-0.1,5.2-3.8,7.1-7.7,6.3c-2.7-0.5-6.7-2.5-7-6.2c-0.4-3.8,3.4-8.7,8-9.2
			C600.2,452.2,603.2,456.5,603.1,461.7z"/>
		<path class="st7" d="M433.2,423.9c1.6-0.2,3.2,0.4,4.5,1.5c2,1.8,3.1,4.9,3,8.2l0,0c-0.1,2.5-0.9,4.5-2.5,5.7
			c-1.5,1.2-3.7,1.7-6,1.2c-2.6-0.5-7.1-2.5-7.6-6.8c0-0.2,0-0.4,0-0.6C424.7,429.3,428.5,424.4,433.2,423.9z M439.4,433.6
			c0.1-3-0.9-5.7-2.6-7.2c-1-0.9-2.2-1.3-3.4-1.2c-4.2,0.4-7.7,5.1-7.4,8.5c0.4,3.5,4.3,5.2,6.5,5.7c1.9,0.4,3.7,0,4.9-1
			C438.7,437.3,439.4,435.7,439.4,433.6L439.4,433.6z"/>
		<circle class="st8" cx="373.6" cy="419.7" r="4.3"/>
		<circle class="st8" cx="288.2" cy="319.6" r="4.3"/>
		<circle class="st8" cx="-213.7" cy="434.6" r="4.3"/>
		<circle class="st8" cx="-167.1" cy="439.7" r="4.3"/>
		<circle class="st8" cx="529.9" cy="426.2" r="4.6"/>
		
			<ellipse transform="matrix(0.4523 -0.8919 0.8919 0.4523 -160.727 668.2809)" class="st8" cx="463.7" cy="465" rx="4.1" ry="5.3"/>
		
			<ellipse transform="matrix(0.9925 -0.1226 0.1226 0.9925 -47.3826 80.9151)" class="st7" cx="633.8" cy="425.5" rx="5.7" ry="4.6"/>
		<path class="st8" d="M837.2,386.8c2.8,0,5,2.6,5,5.7s-2.3,5.6-5,5.6s-5-2.6-5-5.7S834.5,386.8,837.2,386.8z M837.2,388.1
			c-2,0-3.7,1.9-3.7,4.3s1.6,4.3,3.7,4.4c2,0,3.7-1.9,3.7-4.3S839.3,388.1,837.2,388.1z"/>
		<circle class="st8" cx="693.6" cy="401.6" r="5.6"/>
		<circle class="st8" cx="-65.6" cy="341.7" r="3.5"/>
		<circle class="st7" cx="695.9" cy="431.1" r="5.1"/>
		<circle class="st7" cx="599.6" cy="430.1" r="5.1"/>
		<path class="st8" d="M644.3,439.1c2.6,0,4.7,2.1,4.7,4.7s-2.1,4.7-4.7,4.7s-4.7-2.1-4.7-4.7S641.7,439.1,644.3,439.1z
			 M644.3,440.4c-1.9,0-3.4,1.5-3.4,3.4s1.5,3.4,3.4,3.4s3.4-1.5,3.4-3.4S646.2,440.4,644.3,440.4z"/>
		<circle class="st8" cx="570.5" cy="421.3" r="4.3"/>
		<circle class="st8" cx="-46.1" cy="457.2" r="4.3"/>
		<path class="st8" d="M-280.6,469.8c2.7,0,4.9,2.2,4.9,4.9c0,2.7-2.2,4.9-4.9,4.9s-4.9-2.2-4.9-4.9S-283.3,469.8-280.6,469.8z
			 M-280.6,471.1c-2,0-3.6,1.6-3.6,3.6s1.6,3.6,3.6,3.6s3.6-1.6,3.6-3.6C-277,472.8-278.6,471.1-280.6,471.1z"/>
		<path class="st7" d="M-3.2,399.7c3.2,0,5.8,2.6,5.8,5.8c0,3.2-2.6,5.8-5.8,5.8s-5.8-2.6-5.8-5.8C-9,402.3-6.4,399.7-3.2,399.7z
			 M-3.2,401.1c-2.5,0-4.5,2-4.5,4.5s2,4.5,4.5,4.5s4.5-2,4.5-4.5C1.3,403.1-0.7,401.1-3.2,401.1z"/>
		<path class="st7" d="M158.6,365.8c3.2-0.1,5.9,2.4,6,5.6s-2.4,5.9-5.6,6c-3.2,0.1-5.9-2.4-6-5.6
			C152.9,368.6,155.4,365.9,158.6,365.8z M158.6,367.1c-2.5,0.1-4.4,2.1-4.3,4.6c0.1,2.5,2.1,4.4,4.6,4.3s4.4-2.1,4.3-4.6
			C163.1,369,161.1,367.1,158.6,367.1z"/>
		<path class="st8" d="M609.3,441.9c2.8,0,5,2.3,5,5c0,2.8-2.3,5-5,5c-2.8,0-5-2.3-5-5C604.3,444.2,606.6,441.9,609.3,441.9z
			 M609.3,443.2c-2.1,0-3.7,1.7-3.7,3.7s1.7,3.7,3.7,3.7c2.1,0,3.7-1.7,3.7-3.7S611.4,443.2,609.3,443.2z"/>
		<circle class="st8" cx="834.6" cy="340.1" r="4.4"/>
		<path class="st8" d="M-98,353.9c3.1,0,5.6,2.5,5.6,5.6s-2.5,5.6-5.6,5.6s-5.6-2.5-5.6-5.6S-101.1,353.9-98,353.9z M-98,355.2
			c-2.4,0-4.3,1.9-4.3,4.3s1.9,4.3,4.3,4.3s4.3-1.9,4.3-4.3S-95.6,355.2-98,355.2z"/>
		<path class="st8" d="M-326.1,321.9c3.1,0,5.6,2.5,5.6,5.6s-2.5,5.6-5.6,5.6s-5.6-2.5-5.6-5.6S-329.2,321.9-326.1,321.9z
			 M-326.1,323.2c-2.4,0-4.3,1.9-4.3,4.3s1.9,4.3,4.3,4.3s4.3-1.9,4.3-4.3C-321.9,325.2-323.8,323.2-326.1,323.2z"/>
		<path class="st8" d="M130,331c3.1,0,5.6,2.5,5.6,5.6s-2.5,5.6-5.6,5.6c-3.1,0-5.6-2.5-5.6-5.6S126.9,331,130,331z M130,332.3
			c-2.4,0-4.3,1.9-4.3,4.3s1.9,4.3,4.3,4.3c2.4,0,4.3-1.9,4.3-4.3S132.4,332.3,130,332.3z"/>
		<circle class="st8" cx="628.4" cy="389.5" r="4.8"/>
		<circle class="st8" cx="703.7" cy="335.4" r="3.1"/>
		<circle class="st8" cx="50.3" cy="427.2" r="5.2"/>
		<circle class="st8" cx="93.9" cy="464.6" r="5.2"/>
		<circle class="st8" cx="-241.1" cy="466.3" r="5.2"/>
		<circle class="st8" cx="-272.6" cy="411.5" r="4.7"/>
		<circle class="st8" cx="674.4" cy="370.3" r="2.4"/>
		<path class="st9" d="M396.1,387.4c1.7,0,3.1,1.4,3.1,3.1s-1.4,3.1-3.1,3.1s-3.1-1.4-3.1-3.1S394.4,387.4,396.1,387.4z
			 M396.1,388.8c-1,0-1.8,0.8-1.8,1.8s0.8,1.8,1.8,1.8s1.8-0.8,1.8-1.8C397.8,389.6,397,388.8,396.1,388.8z"/>
		<path class="st8" d="M-240.9,417.5c1.7-0.2,3.2,1.1,3.4,2.7c0.2,1.7-1.1,3.2-2.7,3.4c-1.7,0.2-3.2-1.1-3.4-2.7
			C-243.8,419.2-242.5,417.7-240.9,417.5z M-240.7,418.9c-1,0.1-1.7,1-1.6,1.9c0.1,1,1,1.7,1.9,1.6s1.7-1,1.6-1.9
			S-239.8,418.8-240.7,418.9z"/>
		
			<ellipse transform="matrix(0.9985 -5.404770e-02 5.404770e-02 0.9985 -22.875 10.5109)" class="st8" cx="182.9" cy="428.2" rx="2.4" ry="2.4"/>
		<path class="st8" d="M673,440.4c-0.4,1.7-2,2.7-3.7,2.3s-2.7-2-2.3-3.7s2-2.7,3.7-2.3C672.3,437.1,673.4,438.8,673,440.4z
			 M671.7,440.1c0.2-0.9-0.4-1.9-1.3-2.1c-0.9-0.2-1.9,0.4-2.1,1.3c-0.2,0.9,0.4,1.9,1.3,2.1C670.6,441.7,671.5,441.1,671.7,440.1z"
			/>
		<circle class="st8" cx="823.6" cy="404.1" r="7"/>
		<circle class="st7" cx="746.6" cy="372.6" r="7.5"/>
		<path class="st8" d="M100.5,420.1c1.6,0,2.9,1.3,2.9,2.9s-1.3,2.9-2.9,2.9s-2.9-1.3-2.9-2.9C97.5,421.4,98.8,420.1,100.5,420.1z
			 M100.5,421.4c-0.9,0-1.6,0.7-1.6,1.6s0.7,1.6,1.6,1.6s1.6-0.7,1.6-1.6S101.4,421.4,100.5,421.4z"/>
		<path class="st8" d="M63.6,352.7c1.6,0,2.9,1.3,2.9,2.9s-1.3,2.9-2.9,2.9s-2.9-1.3-2.9-2.9C60.7,354,62,352.7,63.6,352.7z
			 M63.6,354c-0.9,0-1.6,0.7-1.6,1.6s0.7,1.6,1.6,1.6c0.9,0,1.6-0.7,1.6-1.6C65.3,354.8,64.5,354,63.6,354z"/>
		<circle class="st8" cx="-1.8" cy="466.3" r="2.3"/>
		<circle class="st8" cx="25.7" cy="369.7" r="2.3"/>
		<path class="st8" d="M-225.4,360c1.6,0,2.9,1.3,2.9,2.9s-1.3,2.9-2.9,2.9c-1.6,0-2.9-1.3-2.9-2.9
			C-228.4,361.3-227.1,360-225.4,360z M-225.4,361.3c-0.9,0-1.6,0.7-1.6,1.6s0.7,1.6,1.6,1.6c0.9,0,1.6-0.7,1.6-1.6
			S-224.5,361.3-225.4,361.3z"/>
		<circle class="st7" cx="748.2" cy="265.7" r="2.3"/>
		<circle class="st8" cx="-293" cy="295.3" r="3.4"/>
		<path class="st8" d="M11,343.5c0.3,2.2-1.2,4.2-3.3,4.6c-2.2,0.3-4.2-1.2-4.6-3.3c-0.3-2.2,1.2-4.2,3.3-4.6
			C8.6,339.8,10.6,341.3,11,343.5z M9.7,343.7c-0.2-1.5-1.6-2.5-3.1-2.2c-1.5,0.2-2.5,1.6-2.2,3.1c0.2,1.5,1.6,2.5,3.1,2.2
			C8.9,346.6,9.9,345.2,9.7,343.7z"/>
		<path class="st8" d="M84.5,259.6c2.2,0,4,1.8,4,4s-1.8,4-4,4s-4-1.8-4-4S82.3,259.6,84.5,259.6z M84.5,260.9
			c-1.5,0-2.7,1.2-2.7,2.7s1.2,2.7,2.7,2.7s2.7-1.2,2.7-2.7S86,260.9,84.5,260.9z"/>
		<circle class="st8" cx="556.9" cy="385.2" r="3.9"/>
		<circle class="st7" cx="-26.4" cy="380.7" r="4.1"/>
		
			<ellipse transform="matrix(0.9878 -0.1557 0.1557 0.9878 -78.4685 -44.1703)" class="st7" cx="-321.2" cy="478.8" rx="4.1" ry="4.1"/>
		
			<ellipse transform="matrix(0.9985 -5.404770e-02 5.404770e-02 0.9985 -22.0411 6.1453)" class="st7" cx="102.6" cy="410.6" rx="4.1" ry="4.1"/>
		<circle class="st7" cx="-111.6" cy="430.4" r="4.1"/>
		<circle class="st7" cx="35.1" cy="317" r="4.1"/>
		<circle class="st7" cx="77.9" cy="343.7" r="4.1"/>
		<path class="st8" d="M760.6,470c-0.5,2.4-2.9,3.9-5.3,3.4c-2.4-0.5-3.9-2.9-3.4-5.3s2.9-3.9,5.3-3.4
			C759.6,465.2,761.1,467.6,760.6,470z M759.3,469.7c0.4-1.7-0.7-3.4-2.4-3.8s-3.4,0.7-3.8,2.4c-0.4,1.7,0.7,3.4,2.4,3.8
			S758.9,471.4,759.3,469.7z"/>
		<path class="st8" d="M117.9,315.1c-0.4,1.7-2,2.7-3.7,2.3c-1.7-0.4-2.7-2-2.3-3.7c0.4-1.7,2-2.7,3.7-2.3
			C117.2,311.8,118.2,313.5,117.9,315.1z M116.6,314.8c0.2-0.9-0.4-1.9-1.3-2.1s-1.9,0.4-2.1,1.3s0.4,1.9,1.3,2.1
			C115.4,316.4,116.4,315.8,116.6,314.8z"/>
		<path class="st8" d="M769.1,438c0.2,4.2-3,7.8-7.2,8.1c-4.2,0.2-7.8-3-8.1-7.2c-0.2-4.2,3-7.8,7.2-8.1
			C765.3,430.5,768.9,433.7,769.1,438z M767.8,438c-0.2-3.5-3.2-6.2-6.7-6s-6.2,3.2-6,6.7s3.2,6.2,6.7,6S768,441.5,767.8,438z"/>
		
			<ellipse transform="matrix(0.9985 -5.404770e-02 5.404770e-02 0.9985 -23.3241 -16.0925)" class="st8" cx="-309.2" cy="423.2" rx="3.5" ry="3.5"/>
		<path class="st7" d="M33.6,358.1c2.6,0,4.7,2.1,4.7,4.7s-2.1,4.7-4.7,4.7s-4.7-2.1-4.7-4.7C28.9,360.2,31,358.1,33.6,358.1z
			 M33.6,359.4c-1.9,0-3.4,1.5-3.4,3.4s1.5,3.4,3.4,3.4c1.9,0,3.4-1.5,3.4-3.4S35.5,359.4,33.6,359.4z"/>
		<path class="st7" d="M-126.1,367.8c2.6,0,4.7,2.1,4.7,4.7s-2.1,4.7-4.7,4.7s-4.7-2.1-4.7-4.7C-130.8,370-128.7,367.8-126.1,367.8z
			 M-126.1,369.1c-1.9,0-3.4,1.5-3.4,3.4s1.5,3.4,3.4,3.4s3.4-1.5,3.4-3.4C-122.7,370.7-124.2,369.1-126.1,369.1z"/>
		<circle class="st7" cx="-215.4" cy="382.4" r="4.1"/>
		<circle class="st7" cx="-145.5" cy="404.3" r="7"/>
		<path class="st8" d="M812.2,452.5c3.3,0,6.1,2.7,6.1,6.1s-2.7,6.1-6.1,6.1s-6.1-2.7-6.1-6.1S808.9,452.5,812.2,452.5z
			 M812.2,453.8c-2.6,0-4.7,2.1-4.7,4.7s2.1,4.7,4.7,4.7c2.6,0,4.7-2.1,4.7-4.7S814.8,453.8,812.2,453.8z"/>
		<circle class="st8" cx="868.6" cy="478.6" r="4.6"/>
		<path class="st9" d="M250,466c0.1,4-4.5,8.2-9,7.9c-4.8-0.4-6.4-3.8-6.6-8c-0.2-4.6,3.8-8.8,8.2-8.8
			C246.3,457.1,249.9,461.4,250,466z"/>
		<path class="st9" d="M425.7,378.8c0.1,4-4.5,8.2-9,7.9c-4.8-0.4-6.4-3.8-6.6-8c-0.2-4.6,3.8-8.8,8.2-8.8
			C422.1,369.9,425.6,374.2,425.7,378.8z"/>
		<path class="st7" d="M285.6,454.3c-0.3,2.4-3.2,6.3-5.6,6.4c-6.3,0.2-8.8-10.1-1.8-13.2C282.2,445.7,286.2,449.8,285.6,454.3z"/>
		
			<ellipse transform="matrix(0.9995 -3.029925e-02 3.029925e-02 0.9995 -10.8619 7.159)" class="st8" cx="230.8" cy="362" rx="3.5" ry="3.5"/>
		
			<ellipse transform="matrix(0.9995 -3.029925e-02 3.029925e-02 0.9995 -13.2355 8.3132)" class="st8" cx="267.7" cy="440.9" rx="3.5" ry="3.5"/>
		<circle class="st8" cx="87.8" cy="409.2" r="5"/>
		<circle class="st7" cx="112.4" cy="390.7" r="4.1"/>
		<circle class="st8" cx="227.7" cy="467" r="4.1"/>
		
			<ellipse transform="matrix(0.9948 -0.1021 0.1021 0.9948 -48.3012 17.9112)" class="st7" cx="150.8" cy="480.8" rx="4.1" ry="4.1"/>
		
			<ellipse transform="matrix(0.9948 -0.1021 0.1021 0.9948 -30.5282 24.3407)" class="st7" cx="222.5" cy="310.4" rx="2.4" ry="2.4"/>
		
			<ellipse transform="matrix(0.9995 -3.029925e-02 3.029925e-02 0.9995 -13.4694 8.0804)" class="st8" cx="259.9" cy="448.5" rx="3.7" ry="3.7"/>
		<path class="st7" d="M253,423.1c4.1-0.2,7.7,3.9,8.2,9.7c0.6,5.4-1.8,9-6.2,9.4c-4.8,0.5-9.3-3.4-10-8.6
			C244.5,428.6,248.4,423.4,253,423.1z"/>
		<path class="st8" d="M-93.7,448.9c1.8-1.8,3.9-2.6,5.8-2.3l0,0c3.2,0.6,5.4,3,6.2,6.8c0.6,2.7,0,5.8-1.6,7.9
			c-1.2,1.6-2.9,2.5-4.8,2.7c-6,0.5-7.4-4-8.2-8.2c0-0.1,0-0.3-0.1-0.4C-96.6,453.3-95.5,450.8-93.7,448.9z M-83,453.7
			c-0.7-3.3-2.5-5.3-5.2-5.8l0,0c-1.4-0.3-3.1,0.5-4.6,1.9c-1.7,1.7-2.6,4-2.3,5.7c0.8,4,1.9,7.6,6.8,7.2c1.6-0.1,2.9-0.9,3.8-2.2
			c1.2-1.6,1.7-3.8,1.5-5.9C-82.9,454.3-82.9,454-83,453.7z"/>
		<path class="st8" d="M82.7,358.7c2.4,0.7,4.1,2.2,4.7,4l0,0c1,3.1-0.2,6.2-3.1,8.7c-2.1,1.8-5.1,2.7-7.7,2.3c-2-0.3-3.6-1.3-4.6-3
			c-3.2-5.1,0.1-8.4,3.4-11.1c0.1-0.1,0.2-0.2,0.3-0.2C77.5,358.2,80.2,357.9,82.7,358.7z M83.5,370.4c2.6-2.2,3.5-4.7,2.7-7.3l0,0
			c-0.4-1.4-1.9-2.5-3.8-3.1c-2.3-0.7-4.7-0.5-6.1,0.6c-3.2,2.5-5.8,5.2-3.2,9.4c0.8,1.3,2.1,2.1,3.7,2.4c1.9,0.3,4.2-0.3,5.9-1.4
			C83,370.8,83.2,370.6,83.5,370.4z"/>
		<path class="st8" d="M-272.9,448.8c-0.3,1-1,1.8-1.7,2.6c-1.9,1.9-4.6,2.8-7.2,2.1c-3.8-1-5.7-3.3-5.2-6.5
			c0.4-2.4,4.1-5.3,6.8-6.2C-276.9,439.9-271.8,445.6-272.9,448.8z"/>
		<path class="st8" d="M507.3,414.1c0.3-3.2,3.7-6,7.4-6.1c3.8-0.1,6.5,2.6,7.2,7.2c0.3,1.8,0,3.3-0.9,4.3c-1,1.2-2.6,1.8-5.2,1.9
			c-2.9,0.1-5.3-0.7-6.9-2.3c-0.9-1-1.5-2.2-1.6-3.5C507.2,415.1,507.2,414.6,507.3,414.1z M520.5,415.4c-0.6-3.9-2.7-6.2-5.8-6.1
			c-3.1,0.1-5.8,2.3-6.1,4.9l0,0c-0.1,1.6,0.3,2.9,1.2,3.9c1.2,1.3,3.4,2,5.9,1.9c2.1-0.1,3.5-0.5,4.2-1.4c0.6-0.7,0.8-1.6,0.6-3
			C520.5,415.7,520.5,415.5,520.5,415.4z"/>
		<path class="st8" d="M-101,457c0.4,0.4,0.8,0.7,1,1.2c0.6,1-1.1,4.9-2.3,5.2c-1.7,0.4-4.8-0.8-5.7-2.2c-0.1-0.2-0.2-0.4-0.2-0.6
			C-109.1,456.7-104,454.4-101,457z"/>
		
			<ellipse transform="matrix(0.9948 -0.1021 0.1021 0.9948 -49.4745 -11.4079)" class="st8" cx="-136.2" cy="477.6" rx="3.8" ry="5.5"/>
		<ellipse transform="matrix(0.9948 -0.1021 0.1021 0.9948 -46.9835 7.4633)" class="st8" cx="49.4" cy="462.7" rx="5.5" ry="5.5"/>
		
			<ellipse transform="matrix(0.9948 -0.1021 0.1021 0.9948 -48.4264 -12.1172)" class="st7" cx="-142.6" cy="467" rx="4.1" ry="4.1"/>
		<ellipse transform="matrix(0.9948 -0.1021 0.1021 0.9948 -44.7647 39.3803)" class="st7" cx="362.3" cy="457" rx="5.1" ry="5.1"/>
		
			<ellipse transform="matrix(0.9948 -0.1021 0.1021 0.9948 -36.0138 18.9708)" class="st8" cx="167.3" cy="361.3" rx="4.1" ry="4.1"/>
		
			<ellipse transform="matrix(0.9948 -0.1021 0.1021 0.9948 -47.1801 38.9824)" class="st8" cx="357.2" cy="480.4" rx="4.3" ry="4.3"/>
		<ellipse transform="matrix(0.9948 -0.1021 0.1021 0.9948 -48.6435 2.0211)" class="st8" cx="-4.6" cy="476.2" rx="4.3" ry="4.3"/>
		<circle class="st7" cx="652.6" cy="414.8" r="5.1"/>
		<path class="st8" d="M726.4,454c3.1,0,5.6,2.5,5.6,5.6s-2.5,5.6-5.6,5.6s-5.6-2.5-5.6-5.6C720.8,456.5,723.3,454,726.4,454z
			 M726.4,455.3c-2.4,0-4.3,1.9-4.3,4.3s1.9,4.3,4.3,4.3c2.4,0,4.3-1.9,4.3-4.3S728.8,455.3,726.4,455.3z"/>
		
			<ellipse transform="matrix(0.9948 -0.1021 0.1021 0.9948 -45.7208 0.3354)" class="st8" cx="-19.6" cy="446.8" rx="4.8" ry="4.8"/>
		<path class="st7" d="M526.9,378.9c2,0,3.6,1.6,3.6,3.6s-1.6,3.6-3.6,3.6s-3.6-1.6-3.6-3.6C523.3,380.5,524.9,378.9,526.9,378.9z
			 M526.9,380.2c-1.2,0-2.2,1-2.2,2.2s1,2.2,2.2,2.2s2.2-1,2.2-2.2C529.1,381.2,528.1,380.2,526.9,380.2z"/>
		
			<ellipse transform="matrix(0.9948 -0.1021 0.1021 0.9948 -36.3506 -24.7741)" class="st8" cx="-260.2" cy="342.7" rx="2.4" ry="2.4"/>
		
			<ellipse transform="matrix(0.9948 -0.1021 0.1021 0.9948 -45.687 -0.8024)" class="st8" cx="-30.7" cy="445.9" rx="2.4" ry="2.4"/>
		
			<ellipse transform="matrix(0.9948 -0.1021 0.1021 0.9948 -47.4919 24.9124)" class="st8" cx="219.6" cy="476.4" rx="2.4" ry="2.4"/>
		<circle class="st8" cx="714" cy="420.6" r="3.7"/>
		<circle class="st8" cx="409.1" cy="471.6" r="3.7"/>
		<path class="st8" d="M-50.1,377.5c1.6,0,2.9,1.3,2.9,2.9s-1.3,2.9-2.9,2.9c-1.6,0-2.9-1.3-2.9-2.9
			C-53.1,378.8-51.8,377.5-50.1,377.5z M-50.1,378.8c-0.9,0-1.6,0.7-1.6,1.6s0.7,1.6,1.6,1.6c0.9,0,1.6-0.7,1.6-1.6
			S-49.3,378.8-50.1,378.8z"/>
		
			<ellipse transform="matrix(0.9948 -0.1021 0.1021 0.9948 -40.2509 -7.7859)" class="st8" cx="-96.2" cy="389.3" rx="2.3" ry="2.3"/>
		
			<ellipse transform="matrix(0.9995 -3.029925e-02 3.029925e-02 0.9995 -13.8425 10.6498)" class="st8" cx="344.5" cy="462.1" rx="5.2" ry="5.2"/>
		<circle class="st7" cx="776.7" cy="451.4" r="4.1"/>
		
			<ellipse transform="matrix(0.9948 -0.1021 0.1021 0.9948 -43.9588 53.9161)" class="st8" cx="504.7" cy="456.4" rx="4.7" ry="4.7"/>
		
			<ellipse transform="matrix(0.9948 -0.1021 0.1021 0.9948 -37.8014 21.6315)" class="st8" cx="192.4" cy="380.1" rx="4.7" ry="4.7"/>
		
			<ellipse transform="matrix(0.9948 -0.1021 0.1021 0.9948 -43.447 22.1461)" class="st8" cx="194.6" cy="435.5" rx="6.2" ry="6.2"/>
		
			<ellipse transform="matrix(0.9948 -0.1021 0.1021 0.9948 -42.7929 -3.6635)" class="st8" cx="-57.2" cy="416.2" rx="6.2" ry="6.2"/>
		
			<ellipse transform="matrix(0.9948 -0.1021 0.1021 0.9948 -42.5625 52.5964)" class="st7" cx="492.5" cy="442.1" rx="8.5" ry="8.5"/>
		<circle class="st8" cx="162.9" cy="454.2" r="2.6"/>
		
			<ellipse transform="matrix(0.9995 -3.029925e-02 3.029925e-02 0.9995 -13.4572 11.4834)" class="st8" cx="372.2" cy="449.8" rx="2.6" ry="2.6"/>
		<circle class="st8" cx="208.9" cy="342.3" r="2.6"/>
		
			<ellipse transform="matrix(0.9948 -0.1021 0.1021 0.9948 -42.0685 24.4705)" class="st10" cx="218" cy="423.2" rx="5.5" ry="5.5"/>
		
			<ellipse transform="matrix(0.9948 -0.1021 0.1021 0.9948 -36.5652 24.5881)" class="st8" cx="221.9" cy="369.5" rx="4.6" ry="4.6"/>
		
			<ellipse transform="matrix(0.9948 -0.1021 0.1021 0.9948 -45.6673 22.7513)" class="st8" cx="199.4" cy="457.5" rx="4.6" ry="4.6"/>
		<circle class="st8" cx="835.6" cy="283.7" r="4.3"/>
		<path class="st8" d="M777.7,341.5c0-2.7,2.2-4.9,4.9-4.9s4.9,2.2,4.9,4.9c0,2.7-2.2,4.9-4.9,4.9S777.7,344.2,777.7,341.5z
			 M786.2,341.5c0-2-1.6-3.6-3.6-3.6s-3.6,1.6-3.6,3.6s1.6,3.6,3.6,3.6C784.6,345.1,786.2,343.5,786.2,341.5z"/>
		<path class="st8" d="M609.1,328.2c0-3.1,2.5-5.6,5.6-5.6s5.6,2.5,5.6,5.6s-2.5,5.6-5.6,5.6C611.6,333.8,609.1,331.3,609.1,328.2z
			 M619,328.2c0-2.4-1.9-4.3-4.3-4.3c-2.4,0-4.3,1.9-4.3,4.3s1.9,4.3,4.3,4.3S619,330.5,619,328.2z"/>
		<path class="st8" d="M864.6,298.6c0-3.1,2.5-5.6,5.6-5.6s5.6,2.5,5.6,5.6s-2.5,5.6-5.6,5.6S864.6,301.7,864.6,298.6z M874.5,298.6
			c0-2.4-1.9-4.3-4.3-4.3c-2.4,0-4.3,1.9-4.3,4.3s1.9,4.3,4.3,4.3S874.5,301,874.5,298.6z"/>
		<circle class="st8" cx="787.1" cy="289" r="5.2"/>
		<circle class="st7" cx="462.4" cy="422.7" r="7"/>
		<path class="st9" d="M698.1,354.9c0.5-4-3.7-8.6-8.2-8.7c-4.8-0.1-6.8,3.1-7.4,7.3c-0.7,4.6,2.9,9.1,7.3,9.6
			C693.6,363.4,697.6,359.5,698.1,354.9z"/>
		<path class="st8" d="M466.7,400.3c0-0.1,0-0.3,0.1-0.4c0.8-4.2,2.2-8.7,8.2-8.2c1.9,0.2,3.6,1.1,4.8,2.7c1.6,2.1,2.2,5.2,1.6,7.9
			c-0.8,3.8-3,6.2-6.2,6.8l0,0c-1.9,0.4-4-0.5-5.8-2.3C467.5,404.9,466.5,402.4,466.7,400.3z M480.2,401.1c0.2-2.1-0.3-4.4-1.5-5.9
			c-1-1.3-2.3-2-3.8-2.2c-5-0.4-6.1,3.2-6.8,7.2c-0.3,1.7,0.6,4,2.3,5.7c1.5,1.5,3.2,2.2,4.6,1.9l0,0c2.7-0.5,4.5-2.5,5.2-5.8
			C480.1,401.7,480.2,401.4,480.2,401.1z"/>
		<path class="st8" d="M406.8,456.1c-0.3-1-1-1.8-1.7-2.6c-1.9-1.9-4.6-2.8-7.2-2.1c-3.8,1-5.7,3.3-5.2,6.5c0.4,2.4,4.1,5.3,6.8,6.2
			C402.7,465,407.9,459.3,406.8,456.1z"/>
		
			<ellipse transform="matrix(0.1021 -0.9948 0.9948 0.1021 -143.1333 636.084)" class="st8" cx="280.8" cy="397.3" rx="8.4" ry="8.4"/>
		<path class="st8" d="M787,396.6c0.3-2.6,2.6-4.5,5.2-4.2c2.6,0.3,4.5,2.6,4.2,5.2s-2.6,4.5-5.2,4.2
			C788.7,401.6,786.8,399.2,787,396.6z M795.2,397.4c0.2-1.9-1.2-3.6-3.1-3.8c-1.9-0.2-3.6,1.2-3.8,3.1s1.2,3.6,3.1,3.8
			C793.3,400.7,795,399.3,795.2,397.4z"/>
		<path class="st8" d="M329.7,373c0.2-2.2,2.2-3.8,4.4-3.6c2.2,0.2,3.8,2.2,3.6,4.4c-0.2,2.2-2.2,3.8-4.4,3.6
			C331.1,377.2,329.5,375.2,329.7,373z M336.4,373.7c0.2-1.5-0.9-2.8-2.4-3s-2.8,0.9-3,2.4s0.9,2.8,2.4,3
			C334.9,376.2,336.2,375.2,336.4,373.7z"/>
		<path class="st8" d="M166.6,399.7c0.1,4.7,3.5,6.2,7.5,6.2c4.5,0,7.2-3.4,6.6-7.1c-0.2-1.3-1.2-2.5-2.3-3.6c-2.4-2.3-6.2-3-9-1.2
			C167.4,395.3,166.5,397.2,166.6,399.7z"/>
		<circle class="st8" cx="810.7" cy="389.8" r="3.1"/>
		<circle class="st8" cx="678.4" cy="415.7" r="3.9"/>
		<circle class="st8" cx="778.5" cy="393" r="3.7"/>
		<path class="st9" d="M-283.6,392.8c-0.1-4.6-4.4-8.2-9.6-8.2c-4.4,0-11.2,5.9-11.2,9.7c0,3.8,7.1,8.3,12.9,8.1
			C-286.7,402.3-283.5,398.4-283.6,392.8z"/>
		<circle class="st8" cx="141.7" cy="324" r="2.4"/>
		<path class="st8" d="M222.7,270.8c-1.6-0.3-2.7-1.8-2.5-3.4c0.3-1.6,1.8-2.7,3.4-2.5c1.6,0.3,2.7,1.8,2.5,3.4
			C225.8,270,224.3,271.1,222.7,270.8z M223.4,266.3c-0.9-0.1-1.7,0.5-1.9,1.4c-0.1,0.9,0.5,1.7,1.4,1.9c0.9,0.1,1.7-0.5,1.9-1.4
			C224.9,267.3,224.3,266.5,223.4,266.3z"/>
		
			<ellipse transform="matrix(3.029925e-02 -0.9995 0.9995 3.029925e-02 -246.7712 548.7114)" class="st8" cx="159.4" cy="401.5" rx="3.5" ry="3.5"/>
		
			<ellipse transform="matrix(0.1021 -0.9948 0.9948 0.1021 -409.0954 387.6308)" class="st10" cx="10.2" cy="420.4" rx="5.5" ry="5.5"/>
		<path class="st8" d="M-184.7,453.6c0.1-3.6-1.8-6.2-4.3-6.3c-2.2-0.1-4.9,2.9-5,5.6c-0.1,2.3,2.4,4.6,5,4.6
			C-186.3,457.5-185.1,455.7-184.7,453.6z"/>
		<path class="st8" d="M-263.6,372c0.1-3.6-1.8-6.2-4.3-6.3c-2.2-0.1-4.9,2.9-5,5.6c-0.1,2.3,2.4,4.6,5,4.6
			C-265.1,375.9-264,374.1-263.6,372z"/>
		<path class="st9" d="M-100,330.1c-0.1-2.9-3.4-6.1-6.6-6c-3.6,0.1-3.9,3-3.9,5.8c0,4.1,1.8,6.3,5.1,6.4
			C-102.4,336.4-99.9,333.5-100,330.1z"/>
		<path class="st7" d="M-157.3,318.8c0-3.2,2.6-5.8,5.8-5.8s5.8,2.6,5.8,5.8c0,3.2-2.6,5.8-5.8,5.8
			C-154.7,324.6-157.3,322-157.3,318.8z M-147.1,318.8c0-2.5-2-4.5-4.5-4.5s-4.5,2-4.5,4.5s2,4.5,4.5,4.5S-147.1,321.3-147.1,318.8z
			"/>
		<circle class="st8" cx="-209.9" cy="318.4" r="2.3"/>
		<circle class="st7" cx="-147.9" cy="388.9" r="4.1"/>
		<circle class="st7" cx="-319.6" cy="336.7" r="4.1"/>
		
			<ellipse transform="matrix(3.029925e-02 -0.9995 0.9995 3.029925e-02 -366.5793 257.1779)" class="st8" cx="-50.7" cy="317.5" rx="3.5" ry="3.5"/>
		<circle class="st8" cx="-333.1" cy="454.2" r="5.5"/>
		<path class="st9" d="M-349.7,395.2c0-2.8,2.1-5.4,4.2-7c2.3-1.8,4.9-2.6,6.8-2c4.3,1.2,5.3,4.4,5.7,7c0.4,2.4-1.4,5.3-3.1,7.1
			c-1.6,1.7-4.2,3.4-6.3,3.1c-4.5-0.6-7.1-3.5-7.2-8C-349.7,395.3-349.7,395.3-349.7,395.2z M-334.4,393.8c0-0.2,0-0.3,0-0.5
			c-0.4-2.4-1.2-4.9-4.8-5.9c-1.5-0.4-3.6,0.3-5.6,1.8c-2.3,1.8-3.7,4.1-3.7,6.1l0,0c0.1,3.9,2.3,6.3,6.1,6.7
			c1.4,0.2,3.4-0.9,5.2-2.8C-335.4,397.5-334.4,395.4-334.4,393.8z"/>
		<path class="st8" d="M-172.5,357.7c0.2-1.8,0.9-3.9,2.4-5.1c1.2-1,2.8-1.2,4.5-0.8c1.6,0.4,3.7,1.8,4.7,4.1c0.6,1.4,1,3.6-0.5,6.3
			l0,0c-1.1,1.9-3.2,2.9-5.6,2.5c-2.3-0.3-4.8-2-5.4-4.8c-0.1-0.4-0.1-0.7-0.1-1.1C-172.6,358.4-172.5,358.1-172.5,357.7z
			 M-161.7,358.9c0.1-0.9,0-1.7-0.4-2.5c-0.8-1.8-2.5-3-3.8-3.3s-2.5-0.1-3.4,0.6c-1.5,1.2-2,3.4-2,5.1c0,0.3,0,0.5,0.1,0.8
			c0.5,2.2,2.5,3.5,4.3,3.8c1.9,0.3,3.5-0.4,4.3-1.8C-162.1,360.6-161.8,359.7-161.7,358.9z"/>
		
			<ellipse transform="matrix(0.1021 -0.9948 0.9948 0.1021 -645.6363 22.2955)" class="st8" cx="-310.5" cy="368.8" rx="5.5" ry="5.5"/>
		
			<ellipse transform="matrix(0.1021 -0.9948 0.9948 0.1021 -523.2301 37.3488)" class="st8" cx="-240.9" cy="308.5" rx="5.5" ry="5.5"/>
		
			<ellipse transform="matrix(0.1021 -0.9948 0.9948 0.1021 -743.7307 54.9609)" class="st8" cx="-341.4" cy="439.5" rx="4.1" ry="4.1"/>
		
			<ellipse transform="matrix(0.1021 -0.9948 0.9948 0.1021 -557.6816 258.6813)" class="st8" cx="-135.5" cy="438.3" rx="4.8" ry="4.8"/>
		
			<ellipse transform="matrix(0.1021 -0.9948 0.9948 0.1021 -510.2494 136.7401)" class="st8" cx="-179.4" cy="351" rx="2.4" ry="2.4"/>
		<path class="st8" d="M-255.6,332.4c0-1.6,1.3-2.9,2.9-2.9c1.6,0,2.9,1.3,2.9,2.9s-1.3,2.9-2.9,2.9
			C-254.3,335.4-255.6,334.1-255.6,332.4z M-251,332.4c0-0.9-0.7-1.6-1.6-1.6c-0.9,0-1.6,0.7-1.6,1.6s0.7,1.6,1.6,1.6
			C-251.8,334.1-251,333.3-251,332.4z"/>
		
			<ellipse transform="matrix(0.1021 -0.9948 0.9948 0.1021 -113.3569 667.5344)" class="st8" cx="313.1" cy="396.6" rx="6.5" ry="6.5"/>
		
			<ellipse transform="matrix(0.1021 -0.9948 0.9948 0.1021 -469.1587 271.9364)" class="st8" cx="-83.9" cy="395.9" rx="4.7" ry="4.7"/>
		
			<ellipse transform="matrix(0.1021 -0.9948 0.9948 0.1021 -615.4005 141.868)" class="st8" cx="-229.1" cy="411.8" rx="6.2" ry="6.2"/>
		<circle class="st8" cx="-95.9" cy="278.9" r="2.6"/>
		
			<ellipse transform="matrix(0.1021 -0.9948 0.9948 0.1021 -562.0563 168.7513)" class="st8" cx="-187.5" cy="395.7" rx="4.6" ry="4.6"/>
	</g>
	<g class="st0">
		<path class="st5" d="M-229.1,444.5"/>
		
			<ellipse transform="matrix(0.9911 -0.1328 0.1328 0.9911 -60.4265 -46.3901)" class="st5" cx="-378" cy="429.8" rx="4.2" ry="4.2"/>
		
			<ellipse transform="matrix(0.9911 -0.1328 0.1328 0.9911 -61.6156 -35.6259)" class="st5" cx="-297.9" cy="444.1" rx="5.8" ry="5.8"/>
	</g>
</g>
</svg>
