<?xml version="1.0" encoding="utf-8"?>
<!-- Generator: Adobe Illustrator 21.0.2, SVG Export Plug-In . SVG Version: 6.00 Build 0)  -->
<svg version="1.1" id="Layer_1" xmlns="http://www.w3.org/2000/svg" xmlns:xlink="http://www.w3.org/1999/xlink" x="0px" y="0px"
	 viewBox="0 0 539 483.4" style="enable-background:new 0 0 539 483.4;" xml:space="preserve">
<style type="text/css">
	.st0{opacity:0.33;}
	.st1{opacity:0.44;fill:#EFEFEF;enable-background:new    ;}
	.st2{opacity:0.76;fill:#EFEFEF;enable-background:new    ;}
	.st3{opacity:0.75;fill:none;stroke:#EFEFEF;stroke-miterlimit:10;enable-background:new    ;}
	.st4{fill:#EFEFEF;}
	.st5{opacity:0.44;fill:none;stroke:#EFEFEF;stroke-miterlimit:10;enable-background:new    ;}
	.st6{fill:none;stroke:#EFEFEF;stroke-miterlimit:10;}
	.st7{opacity:0.75;fill:#EFEFEF;enable-background:new    ;}
	.st8{opacity:0.76;fill:none;stroke:#EFEFEF;stroke-miterlimit:10;enable-background:new    ;}
	.st9{opacity:0.35;fill:#EFEFEF;enable-background:new    ;}
	.st10{opacity:0.35;fill:none;stroke:#EFEFEF;stroke-miterlimit:10;enable-background:new    ;}
	.st11{fill:#FFFFFF;}
</style>
<g class="st0">
	<path class="st1" d="M-52.5-51.9c0.9,7.4,8.1,12.4,16.1,11.3c6.3-0.9,10-6,9.1-12.8c-0.9-7.2-6.9-11.4-14.6-10.5
		C-48.8-63-53.3-58-52.5-51.9z"/>
	<path class="st1" d="M14.7-18.3C15.6-10.9,22.8-5.9,30.8-7c6.3-0.9,10-6,9.1-12.8C39-27,33-31.2,25.3-30.3
		C18.4-29.5,14-24.4,14.7-18.3z"/>
	<path class="st2" d="M-10.2-46.4c-1.3-3.6-4.7-5-8.9-3.5c-3.7,1.2-5.8,5.3-4.6,8.8c1.1,3.1,5.2,4.5,9.2,3.1
		C-10.8-39.4-9-42.9-10.2-46.4z"/>
	<path class="st1" d="M21.7,65.7c1-1.9,1.6-4.4,1.3-6.5c-0.6-4.9-5-8.1-11.5-8.1c-8.1,0.1-9.7,2.5-9.3,9.6c0.5,4.5,2.9,7.1,7.8,8.3
		C15,70.4,19.6,69.3,21.7,65.7z"/>
	<path class="st1" d="M242.4-14.6c0.5,4,4.8,7.4,8.8,6.8c2.6-0.4,5.1-3.9,4.7-6.7c-0.5-3.8-5-6.6-9.4-6C243.4-20,242-18,242.4-14.6z
		"/>
	<path class="st3" d="M22.2,13.7c0.7,5.5,6.1,9.6,11.8,8.9c4.6-0.5,9.6-9,8.9-15.2c-0.6-5.3-4.7-8.6-10-7.9
		C26.4,0.4,21.4,7.1,22.2,13.7z"/>
	<path class="st1" d="M66.1,18.8c0.7,5.1,5.6,8.9,10.9,8.2c4.3-0.5,8.9-8.3,8.2-14c-0.5-4.9-4.4-7.9-9.3-7.3
		C70,6.4,65.4,12.6,66.1,18.8z"/>
	<path class="st4" d="M-18.5-65.1c-3.8,0.4-6.3,2.8-6.1,5.5c0.2,2.4,3.7,4.8,6.7,4.5c2.4-0.2,4.6-3.2,4.2-6
		C-14.2-64-16.3-65-18.5-65.1z"/>
	<path class="st4" d="M52.9,1.6c-3.8,0.4-6.3,2.8-6.1,5.5c0.2,2.4,3.7,4.8,6.7,4.5c2.4-0.2,4.6-3.2,4.2-6
		C57.3,2.7,55.2,1.7,52.9,1.6z"/>
	<path class="st5" d="M-16.5-32c-3.8,0.4-6.3,2.8-6.1,5.5c0.2,2.4,3.7,4.8,6.7,4.5c2.4-0.2,4.6-3.2,4.2-6
		C-12.2-30.9-14.3-31.8-16.5-32z"/>
	<path class="st4" d="M141.9,11.1c-3.8,0.4-6.3,2.8-6.1,5.5c0.2,2.4,3.7,4.8,6.7,4.5c2.4-0.2,4.6-3.2,4.2-6
		C146.2,12.2,144.1,11.2,141.9,11.1z"/>
	<path class="st4" d="M-1.4-41.2c-3.8,0.4-6.3,2.8-6.1,5.5c0.2,2.4,3.7,4.8,6.7,4.5c2.4-0.2,4.6-3.2,4.2-6
		C2.9-40.1,0.8-41.1-1.4-41.2z"/>
	<path class="st4" d="M69.9,0.6c4.7-0.3,7.9-4.7,7.1-10.7c-0.8-4-3.7-6.8-8.7-6.8c-4.1,0-7,5.5-6.4,11.1C62.5-0.9,65.4,0.9,69.9,0.6
		z"/>
	<path class="st4" d="M-32.5-25.6c2.9-0.2,4.8-2.9,4.3-6.5c-0.5-2.4-2.3-4.1-5.3-4.1c-2.5,0-4.2,3.3-3.9,6.7
		C-37-26.5-35.3-25.4-32.5-25.6z"/>
	<path class="st5" d="M195.7,18.6c2.4-0.4,3.7-1.8,3.7-4c0-1.8-3.7-4.5-5.9-3.8c-1.4,0.4-3,2.2-3.1,3.9
		C190.3,16.3,193.2,19,195.7,18.6z"/>
	<path class="st1" d="M118,59.5c4.5-0.3,6.9-3.6,6.9-8.1c0-3.7-7.2-9.1-11.3-7.9C110.9,44.3,103.1,60.5,118,59.5z"/>
	<ellipse transform="matrix(0.9911 -0.1328 0.1328 0.9911 0.2532 0.3596)" class="st4" cx="2.8" cy="-1.7" rx="4.6" ry="4.6"/>
	<ellipse transform="matrix(0.9911 -0.1328 0.1328 0.9911 -2.2247 7.6078)" class="st4" cx="55.9" cy="20.5" rx="3.7" ry="3.7"/>
	<ellipse transform="matrix(0.9911 -0.1328 0.1328 0.9911 4.7073 1.5431)" class="st4" cx="13.9" cy="-34.5" rx="3.7" ry="3.7"/>
	<ellipse transform="matrix(0.9911 -0.1328 0.1328 0.9911 -1.7008 0.4631)" class="st6" cx="2.6" cy="13" rx="4.6" ry="4.6"/>
	<ellipse transform="matrix(0.9911 -0.1328 0.1328 0.9911 -3.2 15.7831)" class="st6" cx="116.7" cy="31.9" rx="5.6" ry="5.6"/>
	<ellipse transform="matrix(0.9911 -0.1328 0.1328 0.9911 2.5381 -0.3799)" class="st6" cx="-1.6" cy="-19.2" rx="2.6" ry="2.6"/>
	<ellipse transform="matrix(0.9911 -0.1328 0.1328 0.9911 -6.2926 13.415)" class="st6" cx="97.4" cy="53.9" rx="2.6" ry="2.6"/>
	<ellipse transform="matrix(0.9911 -0.1328 0.1328 0.9911 -1.8366 41.2233)" class="st4" cx="308.1" cy="34.4" rx="2.6" ry="2.6"/>
	<ellipse transform="matrix(0.9911 -0.1328 0.1328 0.9911 -0.4187 2.2852)" class="st4" cx="16.9" cy="4.3" rx="2.6" ry="2.6"/>
	<ellipse transform="matrix(0.9911 -0.1328 0.1328 0.9911 -7.7429 9.0697)" class="st6" cx="64.1" cy="62.6" rx="2.6" ry="2.6"/>
	<ellipse transform="matrix(0.9911 -0.1328 0.1328 0.9911 1.2773 26.3159)" class="st4" cx="197.9" cy="3.6" rx="2.6" ry="2.6"/>
	<ellipse transform="matrix(0.9911 -0.1328 0.1328 0.9911 2.3086 18.577)" class="st4" cx="140.4" cy="-8" rx="2.6" ry="2.6"/>
	<ellipse transform="matrix(0.9911 -0.1328 0.1328 0.9911 -2.6685 56.3519)" class="st6" cx="421.1" cy="48.2" rx="2.6" ry="2.6"/>
	<ellipse transform="matrix(0.9911 -0.1328 0.1328 0.9911 5.7043 4.2911)" class="st4" cx="35" cy="-40.6" rx="2.6" ry="2.6"/>
	<ellipse transform="matrix(0.9911 -0.1328 0.1328 0.9911 -4.0881 18.07)" class="st4" cx="133.4" cy="39.7" rx="2.6" ry="2.6"/>
	<ellipse transform="matrix(0.9911 -0.1328 0.1328 0.9911 -5.9302 20.047)" class="st4" cx="147.3" cy="54.5" rx="2.6" ry="2.6"/>
	<ellipse transform="matrix(0.9911 -0.1328 0.1328 0.9911 0.8113 11.9273)" class="st4" cx="89.8" cy="-0.1" rx="2.6" ry="2.6"/>
	<ellipse transform="matrix(0.9911 -0.1328 0.1328 0.9911 -3.0254 -4.5974)" class="st4" cx="-36" cy="20.4" rx="5.8" ry="5.8"/>
	<ellipse transform="matrix(0.9911 -0.1328 0.1328 0.9911 -4.7912 8.126)" class="st1" cx="58.5" cy="40" rx="8.1" ry="8.1"/>
	<ellipse transform="matrix(0.9911 -0.1328 0.1328 0.9911 -4.731 4.1855)" class="st4" cx="29" cy="37.6" rx="7.5" ry="7.5"/>
	<ellipse transform="matrix(0.9911 -0.1328 0.1328 0.9911 1.6092 -5.3066)" class="st5" cx="-39" cy="-14.7" rx="2.4" ry="2.4"/>
	<ellipse transform="matrix(0.9911 -0.1328 0.1328 0.9911 6.4107 -0.9183)" class="st5" cx="-3.7" cy="-48.5" rx="2.4" ry="2.4"/>
	<ellipse transform="matrix(0.9911 -0.1328 0.1328 0.9911 -1.4822 -3.0595)" class="st6" cx="-23.7" cy="9.6" rx="2.4" ry="2.4"/>
	<ellipse transform="matrix(0.9911 -0.1328 0.1328 0.9911 -8.1112 11.7487)" class="st7" cx="84" cy="66.7" rx="2.4" ry="2.4"/>
	<ellipse transform="matrix(0.9911 -0.1328 0.1328 0.9911 -0.9856 -5.0136)" class="st4" cx="-38.1" cy="4.9" rx="2.4" ry="2.4"/>
	<ellipse transform="matrix(0.9911 -0.1328 0.1328 0.9911 -3.196 2.4438)" class="st4" cx="16.7" cy="25.2" rx="2.4" ry="2.4"/>
	<ellipse transform="matrix(0.9911 -0.1328 0.1328 0.9911 -0.6526 29.1791)" class="st6" cx="218.4" cy="19.5" rx="3.6" ry="3.6"/>
	<ellipse transform="matrix(0.9911 -0.1328 0.1328 0.9911 -1.1881 33.1498)" class="st4" cx="247.9" cy="25.5" rx="3.6" ry="3.6"/>
	<ellipse transform="matrix(0.9911 -0.1328 0.1328 0.9911 -4.5947 13.2749)" class="st4" cx="97.2" cy="41.1" rx="3.6" ry="3.6"/>
	<ellipse transform="matrix(0.9911 -0.1328 0.1328 0.9911 -4.1758 11.1527)" class="st5" cx="81.5" cy="36.9" rx="4.2" ry="4.2"/>
	<ellipse transform="matrix(0.9911 -0.1328 0.1328 0.9911 2.5852 29.1232)" class="st1" cx="219.6" cy="-4.8" rx="4.2" ry="4.2"/>
	<ellipse transform="matrix(0.9911 -0.1328 0.1328 0.9911 -0.3484 16.34)" class="st1" cx="122.3" cy="10.8" rx="4.2" ry="4.2"/>
	<ellipse transform="matrix(0.9911 -0.1328 0.1328 0.9911 -3.4243 39.4218)" class="st5" cx="293.8" cy="45.4" rx="4.2" ry="4.2"/>
	<ellipse transform="matrix(0.9911 -0.1328 0.1328 0.9911 -6.7815 5.8844)" class="st1" cx="40.7" cy="53.8" rx="4.4" ry="4.4"/>
	<ellipse transform="matrix(0.9911 -0.1328 0.1328 0.9911 1.5784 24.8285)" class="st1" cx="186.9" cy="0.6" rx="4.4" ry="4.4"/>
	<ellipse transform="matrix(0.9911 -0.1328 0.1328 0.9911 -1.8147 13.9566)" class="st1" cx="103.7" cy="20.6" rx="4.4" ry="4.4"/>
	<ellipse transform="matrix(0.9911 -0.1328 0.1328 0.9911 -3.0361 18.6402)" class="st1" cx="138.2" cy="32.1" rx="4.4" ry="4.4"/>
	<path class="st4" d="M169.2,0c-5,0.6-10.5,7.2-10,12c0.6,5.6,6.4,10.4,12,9.8c5.5-0.6,12-7.7,11.4-12.5C182,4.5,174.6-0.7,169.2,0z
		"/>
	<path class="st7" d="M328.1,41.4c0.4,3.1,3.4,5.4,6.7,5c2.6-0.3,5.4-5.1,5.1-8.6c-0.3-3-2.7-4.9-5.7-4.5
		C330.5,33.7,327.6,37.6,328.1,41.4z"/>
	<path class="st1" d="M227.9,30.7c0.5,3.7,4,6.3,7.8,5.9c3-0.4,6.3-5.9,5.9-10c-0.4-3.5-3.1-5.6-6.6-5.2
		C230.7,21.8,227.3,26.3,227.9,30.7z"/>
	<ellipse transform="matrix(0.9911 -0.1328 0.1328 0.9911 -5.6913 46.4292)" class="st6" cx="345.2" cy="65.9" rx="4.1" ry="4.1"/>
	<ellipse transform="matrix(0.9911 -0.1328 0.1328 0.9911 -1.0494 47.827)" class="st6" cx="358" cy="31.8" rx="3.7" ry="3.7"/>
	<ellipse transform="matrix(0.9911 -0.1328 0.1328 0.9911 0.9928 41.2479)" class="st4" cx="309.7" cy="13.2" rx="4.6" ry="4.6"/>
	<ellipse transform="matrix(0.9911 -0.1328 0.1328 0.9911 -2.4093 48.8382)" class="st4" cx="364.9" cy="42.5" rx="5.6" ry="5.6"/>
	<ellipse transform="matrix(0.9911 -0.1328 0.1328 0.9911 -5.8929 57.0073)" class="st4" cx="424.4" cy="72.7" rx="2.6" ry="2.6"/>
	<ellipse transform="matrix(0.9911 -0.1328 0.1328 0.9911 -5.2545 53.9768)" class="st6" cx="402" cy="66.4" rx="2.6" ry="2.6"/>
	<ellipse transform="matrix(0.9911 -0.1328 0.1328 0.9911 -7.4799 42.6135)" class="st4" cx="315.7" cy="77.4" rx="2.6" ry="2.6"/>
	<ellipse transform="matrix(0.9911 -0.1328 0.1328 0.9911 -3.9275 52.6744)" class="st4" cx="392.9" cy="55.8" rx="2.6" ry="2.6"/>
	<ellipse transform="matrix(0.9911 -0.1328 0.1328 0.9911 4.5395 41.625)" class="st6" cx="314.3" cy="-13.2" rx="2.6" ry="2.6"/>
	<ellipse transform="matrix(0.9911 -0.1328 0.1328 0.9911 -0.3318 36.1875)" class="st6" cx="271.1" cy="20.6" rx="5.8" ry="5.8"/>
	<ellipse transform="matrix(0.9911 -0.1328 0.1328 0.9911 -3.9276 50.2734)" class="st5" cx="374.9" cy="54.6" rx="3.4" ry="3.4"/>
	<ellipse transform="matrix(0.9911 -0.1328 0.1328 0.9911 -2.6112 21.0129)" class="st6" cx="156.2" cy="30.1" rx="7.5" ry="7.5"/>
	<ellipse transform="matrix(0.9911 -0.1328 0.1328 0.9911 2.8321 27.026)" class="st4" cx="204" cy="-7.7" rx="7.5" ry="7.5"/>
	<ellipse transform="matrix(0.9911 -0.1328 0.1328 0.9911 1.2115 37.7253)" class="st4" cx="283.4" cy="9.8" rx="2.4" ry="2.4"/>
	<ellipse transform="matrix(0.9911 -0.1328 0.1328 0.9911 0.9545 31.4729)" class="st6" cx="236.4" cy="8.6" rx="2.4" ry="2.4"/>
	<ellipse transform="matrix(0.9911 -0.1328 0.1328 0.9911 5.0134 24.3326)" class="st6" cx="184.9" cy="-25.4" rx="2.4" ry="2.4"/>
	<ellipse transform="matrix(0.9911 -0.1328 0.1328 0.9911 -2.642 27.7511)" class="st4" cx="206.7" cy="33.7" rx="2.4" ry="2.4"/>
	<ellipse transform="matrix(0.9911 -0.1328 0.1328 0.9911 -4.3737 54.9851)" class="st7" cx="410" cy="60.3" rx="2.4" ry="2.4"/>
	<ellipse transform="matrix(0.9911 -0.1328 0.1328 0.9911 -0.5158 43.2295)" class="st6" cx="323.8" cy="25.5" rx="2.4" ry="2.4"/>
	<ellipse transform="matrix(0.9911 -0.1328 0.1328 0.9911 -3.6086 30.857)" class="st6" cx="229.5" cy="42.5" rx="2.4" ry="2.4"/>
	<ellipse transform="matrix(0.9911 -0.1328 0.1328 0.9911 -2.3885 37.9519)" class="st4" cx="283.3" cy="36.9" rx="3.6" ry="3.6"/>
	<ellipse transform="matrix(0.9911 -0.1328 0.1328 0.9911 3.4601 34.6407)" class="st4" cx="261.4" cy="-8.6" rx="3.6" ry="3.6"/>
	<ellipse transform="matrix(0.9911 -0.1328 0.1328 0.9911 -2.6437 52.3219)" class="st1" cx="390.9" cy="46" rx="4.2" ry="4.2"/>
	<ellipse transform="matrix(0.9911 -0.1328 0.1328 0.9911 -4.7724 47.8086)" class="st1" cx="356" cy="59.7" rx="4.4" ry="4.4"/>
	<ellipse transform="matrix(0.9911 -0.1328 0.1328 0.9911 -4.6492 21.0555)" class="st1" cx="155.5" cy="45.4" rx="4.4" ry="4.4"/>
	<path class="st8" d="M33.8,175.7c-6.9,1-9.8,4.9-9.2,11.3c0.8,9,13.9,14,20.3,10.9c3.3-1.6,5.6-4.5,5.6-8.2
		C50.5,181.8,41.7,174.5,33.8,175.7z"/>
	<path class="st1" d="M-2.8,323.4c1.6,7.3,9.2,11.6,17.1,9.7c6.2-1.5,9.4-6.9,7.8-13.6c-1.6-7.1-8-10.7-15.5-9.1
		C-0.2,311.9-4.2,317.3-2.8,323.4z"/>
	<path class="st9" d="M92.7,245.3c-8.8,2.1-13.2,8.6-11.4,16.8c1.6,7.2,10.4,11.7,18.8,9.6c7.6-1.8,12.2-9.5,10.4-17.3
		C108.7,247.1,101.3,243.3,92.7,245.3z"/>
	<path class="st8" d="M101.1,199.1c-6.1-3.5-12-2.2-15.2,3.5c-2.8,4.9-0.3,12.1,5.4,15.5c5.2,3,12,1.1,15-4.2
		C109.1,208.7,107,202.5,101.1,199.1z"/>
	<path class="st4" d="M44.8,147.9c8.1-0.8,11.7-4.9,10.9-12.6c-0.7-6.4-4.4-9.9-9.9-9.2c-6.1,0.8-11.5,7.1-10.9,12.7
		C35.6,144.2,40.1,148.3,44.8,147.9z"/>
	<path class="st2" d="M63.8,276.8c-7.1,1.8-12.5,9.1-10.9,14.9c1.9,6.8,10.7,11.6,17.8,9.9c6.9-1.7,12.4-9.4,10.9-15.7
		C80,278.7,72.2,274.7,63.8,276.8z"/>
	<path class="st4" d="M4.8,163.3c0.8,8.2,7.4,13.8,15.2,12.9c6.4-0.7,10.5-5.7,9.7-11.7c-0.8-6.2-8.7-11.6-15.9-10.9
		C7.6,154.3,4.2,157.9,4.8,163.3z"/>
	<path class="st10" d="M-55.8,210.9c1.6,8.1,8.7,13,16.4,11.4c6.3-1.3,9.9-6.7,8.5-12.6c-1.4-6.1-9.8-10.7-16.9-9.3
		C-53.9,201.6-56.9,205.5-55.8,210.9z"/>
	<path class="st1" d="M29.9,322.3c1.5,7.1,9.6,12.3,16.4,10.6c4.4-1.1,8.2-7.8,7-12.5c-1.5-6.6-9.8-10.9-17.2-9.1
		C30.7,312.6,28.6,316.3,29.9,322.3z"/>
	<path class="st6" d="M66.8,74.3c-5,0.6-10.5,7.2-10,12c0.6,5.6,6.4,10.4,12,9.8c5.5-0.6,12-7.7,11.4-12.5
		C79.5,78.8,72.2,73.6,66.8,74.3z"/>
	<path class="st9" d="M71.2,349.9c-5.8,1.3-8,5.1-6.3,11.5c1.8,7.3,5.6,9.1,14.3,7.1c8.3-2,10.3-4,8.9-9.6
		C86.5,352.4,78.6,348.2,71.2,349.9z"/>
	<path class="st1" d="M24.8,83.1c0.7,5.1,5.6,8.9,10.9,8.2c4.3-0.5,8.9-8.3,8.2-14c-0.5-4.9-4.3-7.9-9.2-7.3
		C28.7,70.8,24,77,24.8,83.1z"/>
	<path class="st2" d="M-17.8,346.5c-4.5,1.1-7.2,6-6,11.3c1.1,5.5,6.8,8.8,12.5,7.2c4.8-1.3,7.5-5.7,6.3-10.6
		C-6.3,348.5-11.9,345-17.8,346.5z"/>
	<path class="st7" d="M3.7,410.5c-5.1,0.9-9.8,7.6-8,12.3c1.7,4.3,5.3,6.9,10.4,5.9c5.9-1.3,10.3-6.7,9.3-11.5
		C14.7,412.5,9.2,409.5,3.7,410.5z"/>
	<path class="st8" d="M-0.7,274.6c-1-5-6.5-8.2-12.3-7c-5,1.1-8.9,6.3-8,10.4c0.9,4,7.4,6.8,13.3,5.7
		C-2.3,282.6,0.2,279.4-0.7,274.6z"/>
	<path class="st4" d="M44.3,253.3c-3.7,0.8-6,3.4-5.5,6.1c0.4,2.4,4.1,4.4,7.1,3.8c2.4-0.4,4.3-3.6,3.6-6.4
		C48.8,253.9,46.6,253.1,44.3,253.3z"/>
	<path class="st1" d="M29.9,108c-5,0.5-8.2,3.7-7.9,7.2c0.3,3.1,4.9,6.2,8.7,5.9c3.2-0.3,6-4.2,5.4-7.8
		C35.5,109.5,32.8,108.2,29.9,108z"/>
	<path class="st4" d="M23.7,300.1c-3.7,0.8-6,3.4-5.5,6.1c0.4,2.4,4.1,4.4,7.1,3.8c2.4-0.4,4.3-3.6,3.6-6.4
		C28.1,300.8,25.9,300,23.7,300.1z"/>
	<path class="st4" d="M-19.2,203.2c-3.7,0.8-6,3.4-5.5,6.1c0.4,2.4,4.1,4.4,7.1,3.8c2.4-0.4,4.3-3.6,3.6-6.4
		C-14.8,203.9-17,203.2-19.2,203.2z"/>
	<path class="st1" d="M29.1,143c-3.8,0.4-6.3,2.8-6.1,5.5c0.2,2.4,3.7,4.8,6.7,4.5c2.4-0.2,4.6-3.2,4.2-6
		C33.4,144.1,31.4,143.1,29.1,143z"/>
	<path class="st4" d="M68.4,261.9c-3.7,0.8-6,3.4-5.5,6.1c0.4,2.4,4.1,4.4,7.1,3.8c2.4-0.4,4.3-3.6,3.6-6.4
		C72.8,262.6,70.6,261.8,68.4,261.9z"/>
	<path class="st9" d="M33.7,282.2c-4.5,1.2-8.4,7.5-7,12.5c1.5,5.7,6.1,5.1,10.6,4.1c6.4-1.5,9.3-5.2,8.2-10.4
		C44.6,283.7,39.1,280.8,33.7,282.2z"/>
	<path class="st9" d="M27.8,217.8c2-4.2-0.3-11.3-4.9-13.5c-5.4-2.5-7.9,1.4-10,5.4c-3,5.8-2.1,10.4,2.6,13
		C19.6,225.2,25.4,222.8,27.8,217.8z"/>
	<path class="st9" d="M58.6,250.2c-2.9,0.8-5.5,5.1-4.6,8.3c1.1,3.7,4,3.4,7,2.7c4.2-1,6.2-3.5,5.5-6.9
		C65.8,251.1,62.1,249.1,58.6,250.2z"/>
	<path class="st7" d="M16.1,284.1c5.3-1.2,7.9-5.4,6.7-10.8c-1.5-6.1-4.9-8.7-10.2-7.6c-5.4,1.1-8.9,5.8-7.7,10.4
		C6.2,281.2,11.5,285,16.1,284.1z"/>
	<path class="st4" d="M-36.2,275.5c-5.4,1.1-8.1,5.5-7.1,11.2c1.1,5.5,5.4,8.3,11,7.2c4.7-1,7-5.5,5.7-11.3
		C-27.7,277.2-31.4,274.6-36.2,275.5z"/>
	<path class="st4" d="M26,251.3c-4.4,0.9-6.7,4.6-5.7,9.2c0.9,4.5,4.5,6.9,9,5.9c3.8-0.8,5.7-4.5,4.7-9.3
		C33,252.7,30,250.5,26,251.3z"/>
	<path class="st4" d="M-29.2,226.7c-5.4,1.1-8.1,5.5-7.1,11.2c1.1,5.5,5.4,8.3,11,7.2c4.7-1,7-5.5,5.7-11.3
		C-20.6,228.5-24.2,225.8-29.2,226.7z"/>
	<path class="st6" d="M16.1,344.7c-1-4.7-5.1-7.1-10.5-5.9c-5.8,1.3-8.3,5.5-6.7,11.8c1.3,5.1,5,6.1,9.3,5.3
		C13.7,354.5,17.1,349.7,16.1,344.7z"/>
	<path class="st4" d="M86,298.9c1.2,4.8,5.9,7.5,11.2,6.2c5.2-1.3,7.6-4.9,6.3-9.6c-1.3-4.9-6.5-8-11.3-6.5
		C87.9,290.6,84.8,293.5,86,298.9z"/>
	<path class="st4" d="M-23,256.5c1.6,5.4,6.2,4.2,9.4,4.1c7-1.5,10.3-5.6,8.9-10.5c-1.6-5.9-6.3-5.2-10.6-4.6
		C-20.7,246.5-24.5,251.8-23,256.5z"/>
	<path class="st6" d="M82.1,243.4c4.6-0.7,7.4-5.4,6-11.3c-1.2-3.9-4.3-6.4-9.3-5.9c-4.1,0.4-6.4,6.1-5.3,11.7
		C74.6,242.6,77.6,244.1,82.1,243.4z"/>
	<path class="st10" d="M71.5,340.6c4.3-1.1,6.5-4.2,6.1-8.7c-0.4-3.7-8-8.4-12-6.8c-2.6,1.1-5.3,2.8-5.5,7.1
		C59.9,336.3,66.9,341.7,71.5,340.6z"/>
	<path class="st9" d="M60.2,222.6c-4.3,1.1-5.2,4.6-3.8,7.7c1,2.1,3.4,5.1,6.6,4.7c3.2-0.4,6.6-4.5,6.1-8.4
		C68.7,223.1,64.7,221.5,60.2,222.6z"/>
	<path class="st4" d="M-6,308.8c-0.9-4.8-3.8-7.7-9-7.4c-4.4,0.7-7.7,5.6-6.7,10.4c1,4.9,4.9,5,8.6,4.3
		C-9.2,315.4-5.1,314.2-6,308.8z"/>
	<path class="st4" d="M59.2,217.7c3.8-1.9,4-4.6,3.8-7.6c-0.2-2.7-2.6-6-6.3-5.1c-8.6,2-7.3,8.1-5.7,10.3
		C52.3,217.4,55.4,219.5,59.2,217.7z"/>
	<ellipse transform="matrix(0.9911 -0.1328 0.1328 0.9911 -14.128 14.914)" class="st6" cx="104.7" cy="113.4" rx="4.6" ry="4.6"/>
	<ellipse transform="matrix(0.9911 -0.1328 0.1328 0.9911 -12.6762 10.8822)" class="st4" cx="75.2" cy="100.5" rx="3.7" ry="3.7"/>
	<path class="st4" d="M-32.8,463.5"/>
	<ellipse transform="matrix(0.974 -0.2267 0.2267 0.974 -84.0384 21.1326)" class="st4" cx="50" cy="376.4" rx="4.6" ry="4.6"/>
	<ellipse transform="matrix(0.974 -0.2267 0.2267 0.974 -68.4298 7.8665)" class="st1" cx="0" cy="301.8" rx="5.5" ry="5.5"/>
	<ellipse transform="matrix(0.974 -0.2267 0.2267 0.974 -60.9101 16.7653)" class="st5" cx="42.5" cy="273.5" rx="5.5" ry="5.5"/>
	<ellipse transform="matrix(0.974 -0.2267 0.2267 0.974 -76.9525 4.6649)" class="st6" cx="-18.2" cy="337.3" rx="5.3" ry="5.3"/>
	<ellipse transform="matrix(0.974 -0.2267 0.2267 0.974 -50.4753 2.8742)" class="st6" cx="-12.7" cy="221.1" rx="5.3" ry="5.3"/>
	<ellipse transform="matrix(0.974 -0.2267 0.2267 0.974 -54.7186 15.0494)" class="st9" cx="38.1" cy="245.7" rx="5.1" ry="5.1"/>
	<ellipse transform="matrix(0.974 -0.2267 0.2267 0.974 -87.0544 15.5211)" class="st4" cx="24" cy="386.7" rx="5.1" ry="5.1"/>
	<ellipse transform="matrix(0.974 -0.2267 0.2267 0.974 -73.9231 1.3591)" class="st4" cx="-31" cy="322.4" rx="7.5" ry="7.5"/>
	<ellipse transform="matrix(0.974 -0.2267 0.2267 0.974 -59.1145 -1.4222)" class="st4" cx="-35.7" cy="256.6" rx="5.6" ry="5.6"/>
	<ellipse transform="matrix(0.9911 -0.1328 0.1328 0.9911 -9.942 14.0747)" class="st4" cx="100.5" cy="81.6" rx="5.6" ry="5.6"/>
	<ellipse transform="matrix(0.9911 -0.1328 0.1328 0.9911 -21.2057 7.5962)" class="st4" cx="46.3" cy="162.8" rx="5.6" ry="5.6"/>
	<ellipse transform="matrix(0.974 -0.2267 0.2267 0.974 -52.2965 17.2172)" class="st4" cx="48.8" cy="236.2" rx="3.6" ry="3.6"/>
	<ellipse transform="matrix(0.974 -0.2267 0.2267 0.974 -61.9498 0.9319)" class="st4" cx="-26.9" cy="270.1" rx="3.1" ry="3.1"/>
	<ellipse transform="matrix(0.974 -0.2267 0.2267 0.974 -76.4205 15.706)" class="st4" cx="30.2" cy="340.5" rx="5.1" ry="5.1"/>
	<ellipse transform="matrix(0.974 -0.2267 0.2267 0.974 -68.3798 27.5976)" class="st4" cx="85.9" cy="311.4" rx="2.6" ry="2.6"/>
	<ellipse transform="matrix(0.974 -0.2267 0.2267 0.974 -38.2996 18.9486)" class="st6" cx="63.3" cy="176.2" rx="2.6" ry="2.6"/>
	<ellipse transform="matrix(0.974 -0.2267 0.2267 0.974 -67.635 10.9405)" class="st6" cx="13.8" cy="299.9" rx="2.6" ry="2.6"/>
	<ellipse transform="matrix(0.974 -0.2267 0.2267 0.974 -66.2507 3.8551)" class="st6" cx="-16.3" cy="290.3" rx="2.6" ry="2.6"/>
	<ellipse transform="matrix(0.9911 -0.1328 0.1328 0.9911 -17.4987 4.5743)" class="st6" cx="25.5" cy="133.5" rx="2.6" ry="2.6"/>
	<ellipse transform="matrix(0.974 -0.2267 0.2267 0.974 -42.7581 20.3653)" class="st4" cx="67.3" cy="196.3" rx="2.6" ry="2.6"/>
	<ellipse transform="matrix(0.9911 -0.1328 0.1328 0.9911 -14.3371 12.1801)" class="st4" cx="84.1" cy="113.6" rx="2.6" ry="2.6"/>
	<ellipse transform="matrix(0.9911 -0.1328 0.1328 0.9911 -15.7652 6.3662)" class="st4" cx="39.8" cy="121.4" rx="2.6" ry="2.6"/>
	<ellipse transform="matrix(0.974 -0.2267 0.2267 0.974 -69.1539 22.9786)" class="st4" cx="65.4" cy="312.5" rx="7.2" ry="7.2"/>
	<ellipse transform="matrix(0.974 -0.2267 0.2267 0.974 -85.8089 9.8653)" class="st4" cx="0" cy="378.4" rx="6.1" ry="6.1"/>
	<ellipse transform="matrix(0.9911 -0.1328 0.1328 0.9911 -13.3872 6.821)" class="st1" cx="44.4" cy="103.8" rx="8.1" ry="8.1"/>
	<path class="st4" d="M13.7,254.5c-0.7-3.1-3.3-4-6.9-4.4c-3.1-0.3-5.1,3.8-4.4,6.9c0.7,3.1,3.8,5.1,6.9,4.4
		C12.5,260.6,14.4,257.5,13.7,254.5z"/>
	<path class="st6" d="M13.5,232.7c0.2-4.7-5.7-7.5-10.4-6.4c-4.6,1-7.5,5.7-6.4,10.4s5.9,8.1,10.4,6.4
		C11.5,241.5,13.2,237.4,13.5,232.7z"/>
	<ellipse transform="matrix(0.974 -0.2267 0.2267 0.974 -51.8509 12.4083)" class="st4" cx="28.1" cy="231.9" rx="7.5" ry="7.5"/>
	<ellipse transform="matrix(0.9911 -0.1328 0.1328 0.9911 -12.3564 12.6749)" class="st4" cx="88.8" cy="99" rx="7.5" ry="7.5"/>
	<ellipse transform="matrix(0.974 -0.2267 0.2267 0.974 -82.0444 14.5006)" class="st4" cx="22.1" cy="364.4" rx="8" ry="8"/>
	<ellipse transform="matrix(0.974 -0.2267 0.2267 0.974 -93.3138 16.8082)" class="st4" cx="26.5" cy="414.6" rx="4" ry="4"/>
	<ellipse transform="matrix(0.974 -0.2267 0.2267 0.974 -65.4158 7.9944)" class="st4" cx="2.1" cy="288.7" rx="4" ry="4"/>
	<ellipse transform="matrix(0.974 -0.2267 0.2267 0.974 -90.448 11.5306)" class="st4" cx="5" cy="399.5" rx="4" ry="4"/>
	<ellipse transform="matrix(0.974 -0.2267 0.2267 0.974 -67.8008 19.1435)" class="st6" cx="49.4" cy="304.7" rx="2.4" ry="2.4"/>
	<ellipse transform="matrix(0.974 -0.2267 0.2267 0.974 -47.1026 6.2163)" class="st6" cx="3.5" cy="208.1" rx="2.4" ry="2.4"/>
	<ellipse transform="matrix(0.974 -0.2267 0.2267 0.974 -54.3585 18.053)" class="st6" cx="51.4" cy="245.6" rx="2.4" ry="2.4"/>
	<ellipse transform="matrix(0.974 -0.2267 0.2267 0.974 -54.0034 22.4579)" class="st4" cx="70.8" cy="246.3" rx="2.4" ry="2.4"/>
	<ellipse transform="matrix(0.974 -0.2267 0.2267 0.974 -43.2867 21.0614)" class="st4" cx="70" cy="198.9" rx="2.4" ry="2.4"/>
	<ellipse transform="matrix(0.974 -0.2267 0.2267 0.974 -49.3921 6.4238)" class="st4" cx="3.3" cy="218.2" rx="2.4" ry="2.4"/>
	<ellipse transform="matrix(0.974 -0.2267 0.2267 0.974 -55.2376 10.4227)" class="st5" cx="17.7" cy="245.6" rx="2.4" ry="2.4"/>
	<ellipse transform="matrix(0.974 -0.2267 0.2267 0.974 -76.2787 7.7182)" class="st4" cx="-4.5" cy="335.9" rx="2.4" ry="2.4"/>
	<ellipse transform="matrix(0.974 -0.2267 0.2267 0.974 -61.782 13.9874)" class="st4" cx="30" cy="275.9" rx="2.4" ry="2.4"/>
	<ellipse transform="matrix(0.974 -0.2267 0.2267 0.974 -52.7969 -3.095)" class="st4" cx="-39.9" cy="228.3" rx="2.4" ry="2.4"/>
	<ellipse transform="matrix(0.974 -0.2267 0.2267 0.974 -75.3799 29.4622)" class="st4" cx="90.6" cy="342.8" rx="2.4" ry="2.4"/>
	<ellipse transform="matrix(0.974 -0.2267 0.2267 0.974 -60.1336 27.3109)" class="st4" cx="88.8" cy="275.4" rx="2.4" ry="2.4"/>
	<ellipse transform="matrix(0.9911 -0.1328 0.1328 0.9911 -20.9515 6.005)" class="st4" cx="34.5" cy="160.1" rx="2.4" ry="2.4"/>
	<ellipse transform="matrix(0.974 -0.2267 0.2267 0.974 -52.8403 20.2496)" class="st4" cx="61.7" cy="240.1" rx="2.4" ry="2.4"/>
	<ellipse transform="matrix(0.974 -0.2267 0.2267 0.974 -78.2774 19.6954)" class="st4" cx="46.6" cy="350.6" rx="2.4" ry="2.4"/>
	<ellipse transform="matrix(0.974 -0.2267 0.2267 0.974 -59.9439 19.2197)" class="st4" cx="53.7" cy="270.5" rx="2.4" ry="2.4"/>
	<ellipse transform="matrix(0.974 -0.2267 0.2267 0.974 -65.5361 11.5903)" class="st4" cx="17.7" cy="291.1" rx="2.4" ry="2.4"/>
	<ellipse transform="matrix(0.974 -0.2267 0.2267 0.974 -63.0214 -2.7835)" class="st7" cx="-43.6" cy="272.9" rx="2.4" ry="2.4"/>
	<ellipse transform="matrix(0.974 -0.2267 0.2267 0.974 -73.6833 4.7852)" class="st4" cx="-16" cy="323.1" rx="2.4" ry="2.4"/>
	<ellipse transform="matrix(0.974 -0.2267 0.2267 0.974 -66.9404 5.9854)" class="st4" cx="-7.4" cy="294.4" rx="2.4" ry="2.4"/>
	<ellipse transform="matrix(0.974 -0.2267 0.2267 0.974 -49.749 15.8108)" class="st6" cx="43.9" cy="224.4" rx="3.6" ry="3.6"/>
	<ellipse transform="matrix(0.9911 -0.1328 0.1328 0.9911 -9.2448 7.532)" class="st4" cx="51.8" cy="73.1" rx="3.6" ry="3.6"/>
	<ellipse transform="matrix(0.9911 -0.1328 0.1328 0.9911 -15.946 3.0567)" class="st4" cx="14.9" cy="121.1" rx="3.6" ry="3.6"/>
	<ellipse transform="matrix(0.974 -0.2267 0.2267 0.974 -111.0419 17.388)" class="st4" cx="20.2" cy="492" rx="5.5" ry="5.5"/>
	<ellipse transform="matrix(0.974 -0.2267 0.2267 0.974 -40.8066 22.5164)" class="st5" cx="77.6" cy="188.9" rx="4.4" ry="4.4"/>
	<ellipse transform="matrix(0.974 -0.2267 0.2267 0.974 -47.2994 22.7095)" class="st5" cx="75.2" cy="217.2" rx="4.4" ry="4.4"/>
	<ellipse transform="matrix(0.9911 -0.1328 0.1328 0.9911 -14.8337 8.7317)" class="st1" cx="58" cy="115.6" rx="4.4" ry="4.4"/>
	<ellipse transform="matrix(0.974 -0.2267 0.2267 0.974 -53.956 3.7324)" class="st1" cx="-10.7" cy="236.7" rx="4.4" ry="4.4"/>
	<path class="st7" d="M82.1,177.9c-5.1,0.9-9.8,7.6-8,12.3c1.7,4.3,5.3,6.9,10.4,5.9c5.9-1.3,10.3-6.7,9.3-11.5
		C93,179.9,87.6,176.9,82.1,177.9z"/>
</g>
<g>
	<path class="st11" d="M486.7,73.1c-2.7-0.1-2.5-2-1.5-2.2c0.7-0.1,1.6-0.4,1.8-0.5s0.5-0.5,0.5-0.9c-0.1-0.4-0.4-0.7-0.7-0.6l0,0
		c-0.6-4.7-2.8-9-6.3-12.2c-0.1,0-0.1-0.1-0.2-0.1c0-1,0.1-2,0.4-3l0.7-2l-1.7,1.3c-0.8,0.6-1.7,1.1-2.6,1.3
		c-2.5-1.5-5.3-2.5-8.3-2.8c-0.6-0.7-1-1.6-1.3-2.5l-0.6-2.1l-0.6,2.1c-0.3,0.9-0.7,1.8-1.2,2.5c-3.1,0.2-6,1.2-8.6,2.7
		c-0.8-0.3-1.6-0.7-2.4-1.2l-1.7-1.3l0.7,2c0.3,0.9,0.5,1.7,0.5,2.6c-0.2,0.2-0.4,0.4-0.6,0.5c-2.1,2-3.8,4.3-4.9,6.9
		c-0.8,0.2-1.6,0.4-2.5,0.3l-2.1-0.1l1.8,1.2c0.7,0.5,1.3,1.1,1.8,1.7c-0.2,0.8-0.3,1.6-0.4,2.4l-0.4-0.4c-1.2-1.2-3.6-1.7-4.6-1.2
		c-0.6,0.3-0.9,0.7-0.9,1.4c0,0.5,0,1.2,0,2c0,1,0,2.1,0,2.9c0,0.6,0.4,1.1,1,1.4c1.2,0.5,3.4-0.1,4.5-1.2l0.4-0.4
		c0.1,0.8,0.2,1.6,0.4,2.4c-0.5,0.7-1.1,1.2-1.8,1.7l-1.8,1.2l0,0l2.1-0.1c0.9,0,1.7,0.1,2.5,0.3c1.1,2.6,2.8,5,4.9,6.9
		c0.2,0.2,0.4,0.4,0.6,0.5c0,0.8-0.1,1.7-0.5,2.6l-0.7,2l1.7-1.3c0.7-0.6,1.5-1,2.4-1.2c2.6,1.5,5.6,2.5,8.6,2.7
		c0.5,0.7,1,1.6,1.2,2.5l0.6,2.1l0.6-2.1c0.3-1,0.7-1.8,1.3-2.5c2.9-0.3,5.8-1.3,8.3-2.8c0.9,0.3,1.8,0.7,2.6,1.3l1.7,1.3l-0.7-2
		c-0.4-1-0.5-2-0.4-3c0.1,0,0.1-0.1,0.2-0.1c3.4-3.1,5.5-7.2,6.2-11.7h0.1c0.3,0,0.6-0.4,0.6-0.8C487.3,73.4,487.1,73.1,486.7,73.1z
		 M478.8,68.3c-1,0-1.9-0.8-1.9-1.9s0.8-1.9,1.9-1.9s1.9,0.8,1.9,1.9S479.8,68.3,478.8,68.3z"/>
</g>
</svg>
