<?xml version="1.0" encoding="utf-8"?>
<!-- Generator: Adobe Illustrator 21.0.2, SVG Export Plug-In . SVG Version: 6.00 Build 0)  -->
<svg version="1.1" id="Layer_1" xmlns="http://www.w3.org/2000/svg" xmlns:xlink="http://www.w3.org/1999/xlink" x="0px" y="0px"
	 viewBox="0 0 523.6 929.9" style="enable-background:new 0 0 523.6 929.9;" xml:space="preserve">
<style type="text/css">
	.st0{fill:#FFFFFF;}
	.st1{fill:#F2CB31;}
	.st2{opacity:0.33;}
	.st3{opacity:0.76;fill:none;stroke:#EFEFEF;stroke-miterlimit:10;}
	.st4{opacity:0.44;fill:#EFEFEF;}
	.st5{fill:#EFEFEF;}
	.st6{opacity:0.35;fill:none;stroke:#EFEFEF;stroke-miterlimit:10;}
	.st7{fill:none;stroke:#EFEFEF;stroke-miterlimit:10;}
	.st8{opacity:0.75;fill:none;stroke:#EFEFEF;stroke-miterlimit:10;}
	.st9{opacity:0.76;fill:#EFEFEF;}
	.st10{opacity:0.75;fill:#EFEFEF;}
	.st11{opacity:0.35;fill:#EFEFEF;}
	.st12{opacity:0.44;fill:none;stroke:#EFEFEF;stroke-miterlimit:10;}
</style>
<g>
	<path class="st0" d="M3048,721.4c-4.3-0.2-3.9-3.2-2.4-3.4c1.1-0.2,2.6-0.6,2.8-0.8c0.3-0.2,0.9-0.8,0.7-1.5
		c-0.1-0.7-0.6-1.1-1.2-0.9c0,0,0,0-0.1,0c-1-7.4-4.4-14.2-9.9-19.3c-0.1-0.1-0.2-0.2-0.3-0.2c-0.1-1.5,0.1-3.1,0.7-4.7l1.1-3.2
		l-2.7,2.1c-1.3,1-2.7,1.7-4.2,2.1c-4-2.4-8.4-3.9-13.1-4.4c-0.9-1.2-1.6-2.5-2-4l-1-3.2l-1,3.2c-0.4,1.5-1.1,2.8-2,3.9
		c-4.8,0.4-9.4,1.9-13.6,4.3c-1.3-0.4-2.5-1.1-3.7-2l-2.7-2.1l1.1,3.2c0.5,1.4,0.7,2.7,0.7,4.1c-0.3,0.3-0.6,0.6-1,0.9
		c-3.3,3.1-5.9,6.8-7.7,10.9c-1.2,0.4-2.6,0.6-4,0.5l-3.4-0.1l2.8,1.9c1.1,0.8,2.1,1.7,2.9,2.7c-0.3,1.3-0.5,2.6-0.7,3.9l-0.6-0.6
		c-1.9-1.9-5.6-2.6-7.3-1.9c-0.9,0.4-1.4,1.2-1.4,2.2c0,0.8,0,2,0,3.1c0,1.6,0,3.3,0,4.6c0,1,0.6,1.8,1.6,2.2
		c1.9,0.7,5.4-0.2,7.1-1.9l0.6-0.6c0.1,1.3,0.4,2.6,0.7,3.9c-0.8,1-1.7,2-2.9,2.7l-2.8,1.9v0l3.4-0.1c1.4,0,2.7,0.2,4,0.5
		c1.7,4.1,4.3,7.8,7.7,10.9c0.3,0.3,0.6,0.6,1,0.9c0,1.3-0.2,2.7-0.7,4.1l-1.1,3.2l2.7-2.1c1.2-0.9,2.4-1.5,3.7-2
		c4.1,2.4,8.8,3.9,13.6,4.3c0.9,1.1,1.5,2.4,2,3.9l1,3.2l1-3.2c0.4-1.5,1.1-2.8,2-4c4.6-0.5,9.1-2,13.1-4.4c1.5,0.4,2.9,1.1,4.2,2.1
		l2.7,2.1l-1.1-3.2c-0.6-1.6-0.8-3.2-0.7-4.7c0.1-0.1,0.2-0.2,0.3-0.2c5.3-4.9,8.7-11.4,9.8-18.4c0.1,0,0.1,0,0.2,0
		c0.5,0,1-0.6,1-1.2C3049,722,3048.6,721.5,3048,721.4z M3035.5,714c-1.6,0-2.9-1.3-2.9-2.9c0-1.6,1.3-2.9,2.9-2.9
		c1.6,0,2.9,1.3,2.9,2.9C3038.5,712.7,3037.2,714,3035.5,714z"/>
	<path class="st1" d="M3050.6,709.4l-3.4-9.1l-11.3,2.2c-2.5,0-4.9,1.1-6.5,3c-1.7,1.9-2.5,4.4-2.2,7c0.4,4,3.6,7.3,7.6,7.9
		c0.4,0.1,0.9,0.1,1.3,0.1c1.8,0,3.5-0.5,5-1.5l1.2-0.9c0.9-0.9,1.7-2,2.2-3.2c2-2.4,3.6-2.8,4.3-2.7c0.7,0,1.3-0.3,1.7-0.8
		C3050.7,710.8,3050.8,710.1,3050.6,709.4z M3045.4,703.6l2.2,5.8c-1.5,0.3-3.5,1.2-5.6,3.9l-0.1,0.2l-0.1,0.2
		c-0.3,0.9-0.9,1.7-1.6,2.4l0,0c-1.4,1.2-3.2,1.8-5,1.5c-2.7-0.4-4.9-2.7-5.2-5.4c-0.2-1.8,0.3-3.5,1.5-4.8c1.2-1.3,2.8-2,4.6-2
		L3045.4,703.6z"/>
	<g>
		<path class="st1" d="M3004.8,718.1c-7,0-14.3-1.1-20.2-4.7l0.5-0.8c15.9,9.7,42.8,1.1,43,1l0.3,0.9
			C3028.2,714.5,3017.1,718.1,3004.8,718.1z"/>
	</g>
</g>
<g class="st2">
	<path class="st3" d="M2298.9,815.7c-9.6,1.4-13.7,6.8-12.9,15.8c1.2,12.5,19.4,19.6,28.3,15.2c4.7-2.3,7.8-6.2,7.9-11.4
		C2322.2,824.2,2309.9,814.1,2298.9,815.7z"/>
	<path class="st4" d="M2177.6,1051c1.3,10.3,11.3,17.3,22.5,15.8c8.8-1.2,13.9-8.4,12.7-17.9c-1.3-10-9.6-16-20.4-14.7
		C2182.7,1035.4,2176.5,1042.4,2177.6,1051z"/>
	<path class="st4" d="M2344.7,618.5c1.5-2.6,2.2-6.1,1.9-9.1c-0.8-6.8-7-11.4-16.1-11.3c-11.3,0.1-13.6,3.4-13,13.5
		c0.7,6.3,4,9.9,10.9,11.6C2335.4,625,2341.8,623.5,2344.7,618.5z"/>
	<path class="st5" d="M2314.3,776.9c11.4-1.1,16.4-6.9,15.3-17.6c-0.9-8.9-6.1-13.8-13.8-12.8c-8.5,1.1-16,10-15.2,17.7
		C2301.4,771.7,2307.7,777.5,2314.3,776.9z"/>
	<path class="st5" d="M2258.4,798.5c1.1,11.4,10.3,19.3,21.2,18c8.9-1,14.7-8,13.6-16.3c-1.2-8.7-12.1-16.2-22.2-15.2
		C2262.3,785.8,2257.6,790.9,2258.4,798.5z"/>
	<path class="st6" d="M2118.9,887.7c1.1,11.4,10.3,19.3,21.2,18c8.9-1,14.7-8,13.6-16.3c-1.2-8.7-12.1-16.2-22.2-15.2
		C2122.9,875.1,2118.2,880.1,2118.9,887.7z"/>
	<path class="st4" d="M2223.3,1054c1.1,10.1,11.7,18.5,21.3,16.9c6.3-1,12.4-9.8,11.5-16.5c-1.3-9.3-12.2-16.5-22.8-14.9
		C2225.7,1040.7,2222.3,1045.6,2223.3,1054z"/>
	<path class="st4" d="M2695.6,600.8c0.6,5.6,6.7,10.4,12.2,9.5c3.6-0.6,7.1-5.5,6.6-9.3c-0.7-5.2-7-9.2-13.1-8.3
		C2697,593.3,2695,596.1,2695.6,600.8z"/>
	<path class="st7" d="M2345,674.1c-7,0.9-14.7,10.1-14,16.8c0.8,7.8,9,14.5,16.7,13.7c7.7-0.8,16.8-10.8,15.9-17.4
		C2362.8,680.4,2352.5,673.2,2345,674.1z"/>
	<path class="st8" d="M2388.2,640.4c1,7.7,8.5,13.3,16.5,12.4c6.4-0.8,13.4-12.5,12.4-21.2c-0.8-7.4-6.6-11.9-14-11
		C2394,621.7,2387,631.1,2388.2,640.4z"/>
	<path class="st4" d="M2286.3,686.5c0.9,7.2,7.8,12.4,15.3,11.5c6-0.7,12.4-11.6,11.5-19.6c-0.7-6.8-6.1-11.1-12.9-10.2
		C2291.8,669.2,2285.2,677.8,2286.3,686.5z"/>
	<path class="st4" d="M2449.5,647.5c0.9,7.2,7.8,12.4,15.3,11.5c6-0.7,12.4-11.6,11.5-19.6c-0.7-6.8-6.1-11.1-12.9-10.2
		C2454.9,630.2,2448.4,638.9,2449.5,647.5z"/>
	<path class="st5" d="M2241.6,900.1c0.7,5.2,5.7,9,11.1,8.3c4.3-0.5,9-8.4,8.4-14.2c-0.5-5-4.4-8-9.4-7.4
		C2245.6,887.6,2240.8,893.9,2241.6,900.1z"/>
	<path class="st9" d="M2153.7,1081.2c-6.4,0.9-10.8,7.5-9.9,14.9c0.9,7.8,8.3,13.1,16.5,11.8c6.8-1.1,11.2-7,10.2-13.8
		C2169.4,1085.6,2162.1,1080,2153.7,1081.2z"/>
	<path class="st10" d="M2175.1,1173.1c-7.2,0.6-14.7,9.2-12.7,16.1c1.8,6.2,6.4,10.4,13.7,9.6c8.4-0.9,15.2-7.9,14.5-14.8
		C2190,1177.4,2182.9,1172.5,2175.1,1173.1z"/>
	<path class="st3" d="M2187,983.6c-0.6-7.2-8-12.3-16.2-11.3c-7.1,0.9-13.3,7.5-12.6,13.4c0.7,5.8,9.3,10.5,17.7,9.6
		C2183.7,994.6,2187.6,990.4,2187,983.6z"/>
	<path class="st5" d="M2431.1,623.4c-5.3,0.6-8.8,3.9-8.5,7.7c0.3,3.3,5.2,6.7,9.3,6.3c3.4-0.3,6.4-4.5,5.8-8.3
		C2437.1,625,2434.2,623.6,2431.1,623.4z"/>
	<path class="st4" d="M2293.5,721.2c-7,0.7-11.5,5.1-11.1,10c0.4,4.3,6.8,8.7,12.1,8.2c4.4-0.4,8.4-5.9,7.6-10.9
		C2301.3,723.3,2297.5,721.5,2293.5,721.2z"/>
	<path class="st5" d="M2555.3,636.7c-5.3,0.6-8.8,3.9-8.5,7.7c0.3,3.3,5.2,6.7,9.3,6.3c3.4-0.3,6.4-4.5,5.8-8.3
		C2561.3,638.2,2558.4,636.9,2555.3,636.7z"/>
	<path class="st5" d="M2217.5,1022.3c-5.3,0.6-8.8,3.9-8.5,7.7c0.3,3.3,5.2,6.7,9.3,6.3c3.4-0.3,6.4-4.5,5.8-8.3
		C2223.5,1023.9,2220.6,1022.5,2217.5,1022.3z"/>
	<path class="st5" d="M2170.9,881.9c-5.3,0.6-8.8,3.9-8.5,7.7c0.3,3.3,5.2,6.7,9.3,6.3c3.4-0.3,6.4-4.5,5.8-8.3
		C2176.9,883.5,2174,882.1,2170.9,881.9z"/>
	<path class="st4" d="M2292.4,770c-5.3,0.6-8.8,3.9-8.5,7.7c0.3,3.3,5.2,6.7,9.3,6.3c3.4-0.3,6.4-4.5,5.8-8.3
		C2298.4,771.6,2295.5,770.2,2292.4,770z"/>
	<path class="st5" d="M2213.1,870.7c-5.3,0.6-8.8,3.9-8.5,7.7c0.3,3.3,5.2,6.7,9.3,6.3c3.4-0.3,6.4-4.5,5.8-8.3
		C2219.1,872.3,2216.2,870.9,2213.1,870.7z"/>
	<path class="st11" d="M2234.2,908.5c3.3-5.6,1.1-15.8-5.1-19.4c-7.1-4.2-11.1,0.8-14.6,6.2c-4.9,7.7-4.3,14.3,1.8,18.5
		C2221.9,917.6,2230.2,915.1,2234.2,908.5z"/>
	<path class="st11" d="M2213.4,847.5c-4.3,0.7-8.4,6.2-7.6,10.9c0.9,5.4,5.2,5.2,9.4,4.7c6-0.9,9-4,8.5-8.8
		C2223.3,849.8,2218.5,846.6,2213.4,847.5z"/>
	<path class="st10" d="M2209.1,999c7.6-0.9,11.8-6.4,10.7-14.1c-1.2-8.7-5.7-12.7-13.1-11.8c-7.7,0.9-13.1,6.9-12.1,13.4
		C2195.7,993.8,2202.6,999.8,2209.1,999z"/>
	<path class="st5" d="M2137.5,980.2c-7.6,0.8-12.1,6.6-11.3,14.6c0.8,7.9,6.4,12.4,14.4,11.5c6.7-0.7,10.4-6.7,9.5-14.9
		C2149.1,983.7,2144.3,979.4,2137.5,980.2z"/>
	<path class="st5" d="M2153.9,913.4c-7.6,0.8-12.1,6.6-11.3,14.6c0.8,7.9,6.4,12.4,14.4,11.5c6.7-0.7,10.4-6.7,9.5-14.9
		C2165.6,916.9,2160.8,912.6,2153.9,913.4z"/>
	<path class="st7" d="M2201,1083.3c-0.7-6.7-6.1-10.6-13.8-9.7c-8.2,0.9-12.2,6.6-10.9,15.5c1.1,7.3,6.1,9,12.2,8.7
		C2196.5,1096.6,2201.8,1090.3,2201,1083.3z"/>
	<path class="st5" d="M2158.4,955.5c1.5,7.7,8,6.7,12.6,7c9.9-1.2,15.1-6.4,13.9-13.4c-1.4-8.3-8.2-8.2-14.1-7.8
		C2163,941.9,2157.1,948.8,2158.4,955.5z"/>
	<path class="st5" d="M2454.8,622c6.6-0.5,11-6.6,10-15c-1.1-5.6-5.2-9.5-12.2-9.5c-5.8,0-9.8,7.7-8.9,15.5
		C2444.5,619.9,2448.5,622.5,2454.8,622z"/>
	<path class="st6" d="M2278.8,888.3c6.2-1,9.7-5.1,9.6-11.3c0-5.2-10-12.7-15.8-11c-3.8,1.1-7.6,3.2-8.5,9.1
		C2263.3,880.9,2272.3,889.3,2278.8,888.3z"/>
	<path class="st12" d="M2630.3,647.2c3.3-0.5,5.1-2.6,5.1-5.7c0-2.6-5.2-6.2-8.3-5.4c-2,0.6-4.2,3.1-4.3,5.5
		C2622.9,644,2626.9,647.7,2630.3,647.2z"/>
	<path class="st4" d="M2521.9,704.3c6.3-0.4,9.7-5.1,9.6-11.3c0-5.2-10-12.7-15.8-11C2512,683.1,2501.1,705.6,2521.9,704.3z"/>
	<path class="st5" d="M2175,1030.4c-0.5-6.9-4.3-11.1-11.6-11.5c-6.1,0.4-11.4,6.8-10.7,13.6c0.7,7,6.1,7.5,11.5,7.1
		C2169.8,1039.2,2175.6,1038.1,2175,1030.4z"/>
	
		<ellipse transform="matrix(0.9911 -0.1328 0.1328 0.9911 -75.5256 324.8302)" class="st7" cx="2397.9" cy="728.7" rx="6.4" ry="6.4"/>
	
		<ellipse transform="matrix(0.9911 -0.1328 0.1328 0.9911 -61.2647 318.9564)" class="st5" cx="2361" cy="618.9" rx="6.4" ry="6.4"/>
	
		<ellipse transform="matrix(0.9911 -0.1328 0.1328 0.9911 -64.7251 329.0856)" class="st5" cx="2435.2" cy="649.9" rx="5.2" ry="5.2"/>
	
		<ellipse transform="matrix(0.9911 -0.1328 0.1328 0.9911 -73.4929 319.1946)" class="st5" cx="2356.7" cy="710.7" rx="5.2" ry="5.2"/>
	<path class="st5" d="M2117.3,1241.8"/>
	
		<ellipse transform="matrix(0.9911 -0.1328 0.1328 0.9911 -130.4108 307.9486)" class="st5" cx="2243.9" cy="1131.8" rx="6.4" ry="6.4"/>
	
		<ellipse transform="matrix(0.9911 -0.1328 0.1328 0.9911 -63.9895 319.1113)" class="st7" cx="2360.8" cy="639.4" rx="6.4" ry="6.4"/>
	
		<ellipse transform="matrix(0.9911 -0.1328 0.1328 0.9911 -116.2875 299.0655)" class="st4" cx="2184.4" cy="1021.5" rx="7.7" ry="7.7"/>
	
		<ellipse transform="matrix(0.9911 -0.1328 0.1328 0.9911 -122.7887 295.5071)" class="st7" cx="2154.4" cy="1068.5" rx="7.4" ry="7.4"/>
	
		<ellipse transform="matrix(0.9911 -0.1328 0.1328 0.9911 -101.2334 297.1454)" class="st7" cx="2177.5" cy="907.7" rx="7.4" ry="7.4"/>
	
		<ellipse transform="matrix(0.9911 -0.1328 0.1328 0.9911 -132.175 303.0828)" class="st5" cx="2206.5" cy="1142.6" rx="7.1" ry="7.1"/>
	
		<ellipse transform="matrix(0.9911 -0.1328 0.1328 0.9911 -119.9644 293.1993)" class="st5" cx="2138.5" cy="1046.1" rx="10.5" ry="10.5"/>
	
		<ellipse transform="matrix(0.9911 -0.1328 0.1328 0.9911 -107.6985 292.6682)" class="st5" cx="2140.7" cy="953.9" rx="7.8" ry="7.8"/>
	
		<ellipse transform="matrix(0.9911 -0.1328 0.1328 0.9911 -69.6865 323.6481)" class="st5" cx="2392" cy="684.4" rx="7.8" ry="7.8"/>
	
		<ellipse transform="matrix(0.9911 -0.1328 0.1328 0.9911 -85.3951 314.6038)" class="st5" cx="2316.3" cy="797.6" rx="7.8" ry="7.8"/>
	<ellipse transform="matrix(0.9911 -0.1328 0.1328 0.9911 -83.8258 294.806)" class="st5" cx="2168.7" cy="776" rx="7.8" ry="7.8"/>
	
		<ellipse transform="matrix(0.9911 -0.1328 0.1328 0.9911 -66.0885 340.4907)" class="st7" cx="2520.1" cy="665.8" rx="7.8" ry="7.8"/>
	
		<ellipse transform="matrix(0.9911 -0.1328 0.1328 0.9911 -110.2644 294.2415)" class="st5" cx="2151.2" cy="973.9" rx="4.3" ry="4.3"/>
	
		<ellipse transform="matrix(0.9911 -0.1328 0.1328 0.9911 -123.6396 304.4597)" class="st5" cx="2221.1" cy="1079.3" rx="7.1" ry="7.1"/>
	
		<ellipse transform="matrix(0.9911 -0.1328 0.1328 0.9911 -93.3025 311.508)" class="st7" cx="2289.2" cy="855.4" rx="3.6" ry="3.6"/>
	
		<ellipse transform="matrix(0.9911 -0.1328 0.1328 0.9911 -116.0044 301.6499)" class="st7" cx="2203.9" cy="1020.7" rx="3.6" ry="3.6"/>
	
		<ellipse transform="matrix(0.9911 -0.1328 0.1328 0.9911 -114.0727 296.0934)" class="st7" cx="2163.2" cy="1003.4" rx="3.6" ry="3.6"/>
	
		<ellipse transform="matrix(0.9911 -0.1328 0.1328 0.9911 -80.2336 310.3892)" class="st7" cx="2287.3" cy="756.8" rx="3.6" ry="3.6"/>
	
		<ellipse transform="matrix(0.9911 -0.1328 0.1328 0.9911 -82.0808 300.688)" class="st7" cx="2213.6" cy="765.8" rx="3.6" ry="3.6"/>
	
		<ellipse transform="matrix(0.9911 -0.1328 0.1328 0.9911 -70.404 337.1814)" class="st7" cx="2493.1" cy="696.5" rx="3.6" ry="3.6"/>
	
		<ellipse transform="matrix(0.9911 -0.1328 0.1328 0.9911 -64.1882 375.9993)" class="st5" cx="2787.3" cy="669.3" rx="3.6" ry="3.6"/>
	
		<ellipse transform="matrix(0.9911 -0.1328 0.1328 0.9911 -62.2062 321.6487)" class="st5" cx="2380.7" cy="627.3" rx="3.6" ry="3.6"/>
	
		<ellipse transform="matrix(0.9911 -0.1328 0.1328 0.9911 -72.4297 331.1186)" class="st7" cx="2446.6" cy="708.7" rx="3.6" ry="3.6"/>
	
		<ellipse transform="matrix(0.9911 -0.1328 0.1328 0.9911 -59.8237 355.1895)" class="st5" cx="2633.4" cy="626.2" rx="3.6" ry="3.6"/>
	
		<ellipse transform="matrix(0.9911 -0.1328 0.1328 0.9911 -58.3918 344.3984)" class="st5" cx="2553.2" cy="610" rx="3.6" ry="3.6"/>
	
		<ellipse transform="matrix(0.9911 -0.1328 0.1328 0.9911 -65.3412 397.1238)" class="st7" cx="2945.1" cy="688.5" rx="3.6" ry="3.6"/>
	
		<ellipse transform="matrix(0.9911 -0.1328 0.1328 0.9911 -75.808 321.0138)" class="st5" cx="2369.2" cy="728.9" rx="3.6" ry="3.6"/>
	
		<ellipse transform="matrix(0.9911 -0.1328 0.1328 0.9911 -53.6539 324.4543)" class="st5" cx="2406.1" cy="564.5" rx="3.6" ry="3.6"/>
	
		<ellipse transform="matrix(0.9911 -0.1328 0.1328 0.9911 -77.8084 312.8923)" class="st5" cx="2307.3" cy="739.9" rx="3.6" ry="3.6"/>
	
		<ellipse transform="matrix(0.9911 -0.1328 0.1328 0.9911 -50.0004 293.3057)" class="st5" cx="2174.3" cy="521.6" rx="3.6" ry="3.6"/>
	
		<ellipse transform="matrix(0.9911 -0.1328 0.1328 0.9911 -67.3117 343.6866)" class="st5" cx="2543.4" cy="676.6" rx="3.6" ry="3.6"/>
	
		<ellipse transform="matrix(0.9911 -0.1328 0.1328 0.9911 -69.9004 346.4406)" class="st5" cx="2562.8" cy="697.4" rx="3.6" ry="3.6"/>
	
		<ellipse transform="matrix(0.9911 -0.1328 0.1328 0.9911 -60.4877 335.1118)" class="st5" cx="2482.6" cy="621.1" rx="3.6" ry="3.6"/>
	
		<ellipse transform="matrix(0.9911 -0.1328 0.1328 0.9911 -130.5276 298.6689)" class="st5" cx="2174.3" cy="1128.1" rx="8.6" ry="8.6"/>
	
		<ellipse transform="matrix(0.9911 -0.1328 0.1328 0.9911 -65.8376 312.0423)" class="st5" cx="2306.9" cy="649.7" rx="8.1" ry="8.1"/>
	
		<ellipse transform="matrix(0.9911 -0.1328 0.1328 0.9911 -68.3105 329.7946)" class="st4" cx="2438.8" cy="677.1" rx="11.3" ry="11.3"/>
	
		<ellipse transform="matrix(0.9911 -0.1328 0.1328 0.9911 -74.4944 313.5371)" class="st4" cx="2313.8" cy="715.4" rx="11.3" ry="11.3"/>
	
		<ellipse transform="matrix(0.9911 -0.1328 0.1328 0.9911 -81.5994 292.3173)" class="st4" cx="2151.1" cy="758" rx="11.3" ry="11.3"/>
	<path class="st5" d="M2209.7,957.5c-0.6-4.4-4-5.9-9.1-6.9c-4.4-0.9-7.5,4.7-6.9,9.1c0.6,4.4,4.7,7.5,9.1,6.9
		C2207.2,966,2210.3,961.9,2209.7,957.5z"/>
	<path class="st7" d="M2212.3,927.3c0.9-6.6-6.9-11.2-13.5-10.3c-6.6,0.9-11.2,6.9-10.3,13.5c0.9,6.6,7.1,12,13.5,10.3
		C2208.4,939.2,2211.4,933.8,2212.3,927.3z"/>
	
		<ellipse transform="matrix(0.9911 -0.1328 0.1328 0.9911 -66.1105 316.3713)" class="st5" cx="2339.2" cy="653.9" rx="10.5" ry="10.5"/>
	
		<ellipse transform="matrix(0.9911 -0.1328 0.1328 0.9911 -103.4541 304.6587)" class="st5" cx="2232.7" cy="928.1" rx="10.5" ry="10.5"/>
	
		<ellipse transform="matrix(0.9911 -0.1328 0.1328 0.9911 -73.0558 321.7047)" class="st5" cx="2375.7" cy="708.7" rx="10.5" ry="10.5"/>
	
		<ellipse transform="matrix(0.9911 -0.1328 0.1328 0.9911 -76.7597 330.0619)" class="st5" cx="2436.6" cy="740.6" rx="10.5" ry="10.5"/>
	
		<ellipse transform="matrix(0.9911 -0.1328 0.1328 0.9911 -128.0337 302.8358)" class="st5" cx="2206.8" cy="1111.5" rx="11.2" ry="11.2"/>
	
		<ellipse transform="matrix(0.9911 -0.1328 0.1328 0.9911 -137.3813 303.3811)" class="st5" cx="2206.2" cy="1181.8" rx="5.6" ry="5.6"/>
	
		<ellipse transform="matrix(0.9911 -0.1328 0.1328 0.9911 -113.8694 299.5188)" class="st5" cx="2189" cy="1003.6" rx="5.6" ry="5.6"/>
	
		<ellipse transform="matrix(0.9911 -0.1328 0.1328 0.9911 -134.4523 299.4634)" class="st5" cx="2178.3" cy="1157.9" rx="5.6" ry="5.6"/>
	
		<ellipse transform="matrix(0.9911 -0.1328 0.1328 0.9911 -117.0892 308.2245)" class="st7" cx="2252.6" cy="1032.1" rx="3.4" ry="3.4"/>
	
		<ellipse transform="matrix(0.9911 -0.1328 0.1328 0.9911 -98.9224 300.2158)" class="st7" cx="2201.7" cy="891.9" rx="3.4" ry="3.4"/>
	
		<ellipse transform="matrix(0.9911 -0.1328 0.1328 0.9911 -95.474 303.298)" class="st5" cx="2226.5" cy="867.5" rx="3.4" ry="3.4"/>
	
		<ellipse transform="matrix(0.9911 -0.1328 0.1328 0.9911 -100.7851 300.1287)" class="st5" cx="2200.1" cy="905.8" rx="3.4" ry="3.4"/>
	
		<ellipse transform="matrix(0.9911 -0.1328 0.1328 0.9911 -59.3641 311.0483)" class="st12" cx="2302.7" cy="600.7" rx="3.4" ry="3.4"/>
	
		<ellipse transform="matrix(0.9911 -0.1328 0.1328 0.9911 -105.9526 302.6758)" class="st12" cx="2216.6" cy="945.8" rx="3.4" ry="3.4"/>
	
		<ellipse transform="matrix(0.9911 -0.1328 0.1328 0.9911 -122.5988 298.0487)" class="st5" cx="2173.6" cy="1068.3" rx="3.4" ry="3.4"/>
	
		<ellipse transform="matrix(0.9911 -0.1328 0.1328 0.9911 -111.6415 304.7783)" class="st5" cx="2229.5" cy="989.5" rx="3.4" ry="3.4"/>
	
		<ellipse transform="matrix(0.9911 -0.1328 0.1328 0.9911 -102.4178 292.0636)" class="st5" cx="2138.8" cy="914" rx="3.4" ry="3.4"/>
	
		<ellipse transform="matrix(0.9911 -0.1328 0.1328 0.9911 -63.6886 314.1812)" class="st7" cx="2324" cy="634.7" rx="3.4" ry="3.4"/>
	
		<ellipse transform="matrix(0.9911 -0.1328 0.1328 0.9911 -57.3435 306.3356)" class="st7" cx="2268.4" cy="583.2" rx="3.4" ry="3.4"/>
	
		<ellipse transform="matrix(0.9911 -0.1328 0.1328 0.9911 -91.721 302.2476)" class="st5" cx="2220.5" cy="838.9" rx="3.4" ry="3.4"/>
	
		<ellipse transform="matrix(0.9911 -0.1328 0.1328 0.9911 -72.9393 334.8665)" class="st10" cx="2474.5" cy="714.4" rx="3.4" ry="3.4"/>
	
		<ellipse transform="matrix(0.9911 -0.1328 0.1328 0.9911 -62.9928 311.4664)" class="st5" cx="2304" cy="628.1" rx="3.4" ry="3.4"/>
	
		<ellipse transform="matrix(0.9911 -0.1328 0.1328 0.9911 -85.0547 312.3937)" class="st5" cx="2299.9" cy="794" rx="3.4" ry="3.4"/>
	
		<ellipse transform="matrix(0.9911 -0.1328 0.1328 0.9911 -96.9684 305.1878)" class="st5" cx="2239.9" cy="879.7" rx="3.4" ry="3.4"/>
	
		<ellipse transform="matrix(0.9911 -0.1328 0.1328 0.9911 -125.6016 307.452)" class="st5" cx="2242.6" cy="1095.5" rx="3.4" ry="3.4"/>
	
		<ellipse transform="matrix(0.9911 -0.1328 0.1328 0.9911 -95.8924 307.2959)" class="st7" cx="2256.3" cy="872.7" rx="3.4" ry="3.4"/>
	
		<ellipse transform="matrix(0.9911 -0.1328 0.1328 0.9911 -114.3983 302.4046)" class="st5" cx="2210.3" cy="1009" rx="3.4" ry="3.4"/>
	
		<ellipse transform="matrix(0.9911 -0.1328 0.1328 0.9911 -110.6946 291.124)" class="st10" cx="2127.6" cy="975.6" rx="3.4" ry="3.4"/>
	
		<ellipse transform="matrix(0.9911 -0.1328 0.1328 0.9911 -120.1688 295.9806)" class="st5" cx="2159.3" cy="1049.1" rx="3.4" ry="3.4"/>
	
		<ellipse transform="matrix(0.9911 -0.1328 0.1328 0.9911 -114.8712 297.7367)" class="st5" cx="2175.1" cy="1010.2" rx="3.4" ry="3.4"/>
	
		<ellipse transform="matrix(0.9911 -0.1328 0.1328 0.9911 -66.0838 321.8648)" class="st5" cx="2380.4" cy="656.5" rx="3.4" ry="3.4"/>
	<ellipse transform="matrix(0.9911 -0.1328 0.1328 0.9911 -102.1673 307.6482)" class="st7" cx="2255.8" cy="919.9" rx="5" ry="5"/>
	<ellipse transform="matrix(0.9911 -0.1328 0.1328 0.9911 -68.698 314.5136)" class="st5" cx="2324" cy="672.4" rx="5" ry="5"/>
	<ellipse transform="matrix(0.9911 -0.1328 0.1328 0.9911 -78.0605 308.2801)" class="st5" cx="2272.6" cy="739.5" rx="5" ry="5"/>
	<ellipse transform="matrix(0.9911 -0.1328 0.1328 0.9911 -80.726 299.5627)" class="st5" cx="2205.9" cy="755.1" rx="5" ry="5"/>
	<ellipse transform="matrix(0.9911 -0.1328 0.1328 0.9911 -62.5189 359.1888)" class="st7" cx="2662.1" cy="648.4" rx="5" ry="5"/>
	<ellipse transform="matrix(0.9911 -0.1328 0.1328 0.9911 -63.2663 364.735)" class="st5" cx="2703.3" cy="656.8" rx="5" ry="5"/>
	<ellipse transform="matrix(0.9911 -0.1328 0.1328 0.9911 -68.0188 336.9961)" class="st5" cx="2492.9" cy="678.5" rx="5" ry="5"/>
	
		<ellipse transform="matrix(0.9911 -0.1328 0.1328 0.9911 -151.7357 301.7973)" class="st5" cx="2187.1" cy="1288.7" rx="7.7" ry="7.7"/>
	
		<ellipse transform="matrix(0.9911 -0.1328 0.1328 0.9911 -67.452 334.0354)" class="st12" cx="2471" cy="672.8" rx="5.9" ry="5.9"/>
	
		<ellipse transform="matrix(0.9911 -0.1328 0.1328 0.9911 -58.0124 359.113)" class="st4" cx="2663.8" cy="614.6" rx="5.9" ry="5.9"/>
	
		<ellipse transform="matrix(0.9911 -0.1328 0.1328 0.9911 -62.1032 341.2579)" class="st4" cx="2527.8" cy="636.3" rx="5.9" ry="5.9"/>
	
		<ellipse transform="matrix(0.9911 -0.1328 0.1328 0.9911 -66.387 373.4817)" class="st12" cx="2767.3" cy="684.5" rx="5.9" ry="5.9"/>
	
		<ellipse transform="matrix(0.9911 -0.1328 0.1328 0.9911 -71.084 326.6648)" class="st4" cx="2413.9" cy="696.3" rx="6.1" ry="6.1"/>
	
		<ellipse transform="matrix(0.9911 -0.1328 0.1328 0.9911 -59.4163 353.1117)" class="st4" cx="2618.1" cy="622.1" rx="6.1" ry="6.1"/>
	
		<ellipse transform="matrix(0.9911 -0.1328 0.1328 0.9911 -64.1431 337.9438)" class="st4" cx="2502" cy="649.9" rx="6.1" ry="6.1"/>
	
		<ellipse transform="matrix(0.9911 -0.1328 0.1328 0.9911 -65.8581 344.4713)" class="st4" cx="2550" cy="666.1" rx="6.1" ry="6.1"/>
	<path class="st5" d="M2593.4,621.2c-7,0.9-14.7,10.1-14,16.8c0.8,7.8,9,14.5,16.7,13.7c7.7-0.8,16.8-10.8,15.9-17.4
		C2611.2,627.5,2600.9,620.3,2593.4,621.2z"/>
	<path class="st10" d="M2815.2,678.9c0.6,4.4,4.8,7.6,9.4,7c3.7-0.4,7.6-7.1,7.1-12c-0.5-4.2-3.7-6.8-7.9-6.3
		C2818.6,668.3,2814.6,673.6,2815.2,678.9z"/>
	<path class="st4" d="M2675.3,664c0.7,5.1,5.6,8.8,10.9,8.2c4.2-0.5,8.8-8.3,8.2-14c-0.5-4.9-4.3-7.9-9.2-7.3
		C2679.2,651.7,2674.6,657.9,2675.3,664z"/>
	
		<ellipse transform="matrix(0.9911 -0.1328 0.1328 0.9911 -69.5654 383.2722)" class="st7" cx="2839.1" cy="713.3" rx="5.7" ry="5.7"/>
	
		<ellipse transform="matrix(0.9911 -0.1328 0.1328 0.9911 -63.0865 385.2174)" class="st7" cx="2857" cy="665.7" rx="5.2" ry="5.2"/>
	
		<ellipse transform="matrix(0.9911 -0.1328 0.1328 0.9911 -60.233 376.0406)" class="st5" cx="2789.6" cy="639.7" rx="6.4" ry="6.4"/>
	
		<ellipse transform="matrix(0.9911 -0.1328 0.1328 0.9911 -64.9761 386.625)" class="st5" cx="2866.6" cy="680.5" rx="7.8" ry="7.8"/>
	
		<ellipse transform="matrix(0.9911 -0.1328 0.1328 0.9911 -69.8327 398.0331)" class="st5" cx="2949.7" cy="722.6" rx="3.6" ry="3.6"/>
	
		<ellipse transform="matrix(0.9911 -0.1328 0.1328 0.9911 -68.9553 393.7966)" class="st7" cx="2918.4" cy="714" rx="3.6" ry="3.6"/>
	
		<ellipse transform="matrix(0.9911 -0.1328 0.1328 0.9911 -72.0516 377.9431)" class="st5" cx="2797.9" cy="729.2" rx="3.6" ry="3.6"/>
	
		<ellipse transform="matrix(0.9911 -0.1328 0.1328 0.9911 -67.1013 391.9826)" class="st5" cx="2905.7" cy="699.1" rx="3.6" ry="3.6"/>
	
		<ellipse transform="matrix(0.9911 -0.1328 0.1328 0.9911 -55.2772 376.5691)" class="st7" cx="2796" cy="602.8" rx="3.6" ry="3.6"/>
	
		<ellipse transform="matrix(0.9911 -0.1328 0.1328 0.9911 -62.0811 368.9717)" class="st7" cx="2735.7" cy="650" rx="8.1" ry="8.1"/>
	
		<ellipse transform="matrix(0.9911 -0.1328 0.1328 0.9911 -67.0981 388.6258)" class="st12" cx="2880.5" cy="697.4" rx="4.8" ry="4.8"/>
	
		<ellipse transform="matrix(0.9911 -0.1328 0.1328 0.9911 -65.2592 347.7848)" class="st7" cx="2575.2" cy="663.2" rx="10.5" ry="10.5"/>
	
		<ellipse transform="matrix(0.9911 -0.1328 0.1328 0.9911 -57.6623 356.1744)" class="st5" cx="2641.9" cy="610.5" rx="10.5" ry="10.5"/>
	
		<ellipse transform="matrix(0.9911 -0.1328 0.1328 0.9911 -59.9321 371.1105)" class="st5" cx="2752.8" cy="634.9" rx="3.4" ry="3.4"/>
	
		<ellipse transform="matrix(0.9911 -0.1328 0.1328 0.9911 -60.2864 362.3991)" class="st7" cx="2687.3" cy="633.3" rx="3.4" ry="3.4"/>
	
		<ellipse transform="matrix(0.9911 -0.1328 0.1328 0.9911 -54.6087 352.4262)" class="st7" cx="2615.3" cy="585.7" rx="3.4" ry="3.4"/>
	
		<ellipse transform="matrix(0.9911 -0.1328 0.1328 0.9911 -65.2952 357.2006)" class="st5" cx="2645.8" cy="668.2" rx="3.4" ry="3.4"/>
	
		<ellipse transform="matrix(0.9911 -0.1328 0.1328 0.9911 -67.7153 395.2073)" class="st10" cx="2929.6" cy="705.4" rx="3.4" ry="3.4"/>
	
		<ellipse transform="matrix(0.9911 -0.1328 0.1328 0.9911 -62.3273 378.7941)" class="st7" cx="2809.2" cy="656.8" rx="3.4" ry="3.4"/>
	
		<ellipse transform="matrix(0.9911 -0.1328 0.1328 0.9911 -66.6534 361.5293)" class="st7" cx="2677.6" cy="680.6" rx="3.4" ry="3.4"/>
	<ellipse transform="matrix(0.9911 -0.1328 0.1328 0.9911 -64.9416 371.443)" class="st5" cx="2752.8" cy="672.7" rx="5" ry="5"/>
	<ellipse transform="matrix(0.9911 -0.1328 0.1328 0.9911 -56.7906 366.8049)" class="st5" cx="2722" cy="609.2" rx="5" ry="5"/>
	
		<ellipse transform="matrix(0.9911 -0.1328 0.1328 0.9911 -65.3124 391.4945)" class="st4" cx="2902.9" cy="685.5" rx="5.9" ry="5.9"/>
	
		<ellipse transform="matrix(0.9911 -0.1328 0.1328 0.9911 -68.2696 385.1876)" class="st4" cx="2854.2" cy="704.5" rx="6.1" ry="6.1"/>
	
		<ellipse transform="matrix(0.9911 -0.1328 0.1328 0.9911 -68.1054 347.8427)" class="st4" cx="2574.2" cy="684.6" rx="6.1" ry="6.1"/>
	
		<ellipse transform="matrix(0.9911 -0.1328 0.1328 0.9911 -76.5125 316.2008)" class="st4" cx="2332.7" cy="731.8" rx="6.1" ry="6.1"/>
	
		<ellipse transform="matrix(0.9911 -0.1328 0.1328 0.9911 -104.1436 297.4351)" class="st4" cx="2178.2" cy="929.6" rx="6.1" ry="6.1"/>
	<path class="st5" d="M2258.2,624.1c0.9,11.4,9.9,19.5,20.8,18.5c8.9-0.8,14.9-7.7,13.9-16c-1-8.7-11.8-16.5-21.9-15.7
		C2262.4,611.6,2257.6,616.5,2258.2,624.1z"/>
	<path class="st6" d="M2111.3,667.1c1.1,11.4,10.3,19.3,21.2,18c8.9-1,14.7-8,13.6-16.3c-1.2-8.7-12.1-16.2-22.2-15.2
		C2115.3,654.5,2110.6,659.5,2111.3,667.1z"/>
	<path class="st5" d="M2234.1,679.5c0.7,5.2,5.7,9,11.1,8.3c4.3-0.5,9-8.4,8.4-14.2c-0.5-5-4.4-8-9.4-7.4
		C2238,667,2233.3,673.3,2234.1,679.5z"/>
	<path class="st5" d="M2163.3,661.3c-5.3,0.6-8.8,3.9-8.5,7.7c0.3,3.3,5.2,6.7,9.3,6.3c3.4-0.3,6.4-4.5,5.8-8.3
		C2169.3,662.9,2166.4,661.5,2163.3,661.3z"/>
	<path class="st11" d="M2226.6,687.9c3.3-5.6,1.1-15.8-5.1-19.4c-7.1-4.2-11.1,0.8-14.6,6.2c-4.9,7.7-4.3,14.3,1.8,18.5
		C2214.3,696.9,2222.7,694.5,2226.6,687.9z"/>
	<path class="st5" d="M2146.4,692.7c-7.6,0.8-12.1,6.6-11.3,14.6c0.8,7.9,6.4,12.4,14.4,11.5c6.7-0.7,10.4-6.7,9.5-14.9
		C2158,696.3,2153.2,692,2146.4,692.7z"/>
	<path class="st5" d="M2150.8,734.9c1.5,7.7,8,6.7,12.6,7c9.9-1.2,15.1-6.4,13.9-13.4c-1.4-8.3-8.2-8.2-14.1-7.8
		C2155.4,721.3,2149.5,728.2,2150.8,734.9z"/>
	<path class="st6" d="M2271.2,667.6c6.2-1,9.7-5.1,9.6-11.3c0-5.2-10-12.7-15.8-11c-3.8,1.1-7.6,3.2-8.5,9.1
		C2255.7,660.3,2264.7,668.7,2271.2,667.6z"/>
	<path class="st11" d="M2271.1,698.8c-6.1,0.9-7.8,5.7-6.3,10.1c1,3.1,4,7.5,8.6,7.4s9.8-5.5,9.7-10.9
		C2282.9,700.7,2277.3,697.9,2271.1,698.8z"/>
	<path class="st5" d="M2270.3,691.8c5.5-2.1,6.1-5.9,6.2-10c0.1-3.8-2.8-8.6-8.2-7.9c-12.3,1.7-11.2,10.3-9.4,13.5
		C2260.8,690.5,2264.8,693.9,2270.3,691.8z"/>
	
		<ellipse transform="matrix(0.9911 -0.1328 0.1328 0.9911 -72.0094 294.1881)" class="st7" cx="2169.9" cy="687" rx="7.4" ry="7.4"/>
	
		<ellipse transform="matrix(0.9911 -0.1328 0.1328 0.9911 -76.8437 303.5001)" class="st11" cx="2237.3" cy="728" rx="7.1" ry="7.1"/>
	
		<ellipse transform="matrix(0.9911 -0.1328 0.1328 0.9911 -84.8535 292.0478)" class="st5" cx="2147.5" cy="782.3" rx="7.8" ry="7.8"/>
	<ellipse transform="matrix(0.9911 -0.1328 0.1328 0.9911 -75.1485 305.5168)" class="st5" cx="2253.3" cy="716.3" rx="5" ry="5"/>
	<path class="st5" d="M2202.1,736.9c-0.6-4.4-4-5.9-9.1-6.9c-4.4-0.9-7.5,4.7-6.9,9.1c0.6,4.4,4.7,7.5,9.1,6.9
		C2199.6,745.4,2202.7,741.3,2202.1,736.9z"/>
	<path class="st7" d="M2204.8,706.7c0.9-6.6-6.9-11.2-13.5-10.3s-11.2,6.9-10.3,13.5c0.9,6.6,7.1,12,13.5,10.3
		C2200.8,718.6,2203.8,713.2,2204.8,706.7z"/>
	
		<ellipse transform="matrix(0.9911 -0.1328 0.1328 0.9911 -74.2302 301.7014)" class="st5" cx="2225.2" cy="707.5" rx="10.5" ry="10.5"/>
	
		<ellipse transform="matrix(0.9911 -0.1328 0.1328 0.9911 -69.6985 297.2585)" class="st7" cx="2194.1" cy="671.3" rx="3.4" ry="3.4"/>
	
		<ellipse transform="matrix(0.9911 -0.1328 0.1328 0.9911 -76.9138 305.9589)" class="st7" cx="2255.7" cy="729.7" rx="3.4" ry="3.4"/>
	
		<ellipse transform="matrix(0.9911 -0.1328 0.1328 0.9911 -71.5611 297.1714)" class="st5" cx="2192.5" cy="685.2" rx="3.4" ry="3.4"/>
	
		<ellipse transform="matrix(0.9911 -0.1328 0.1328 0.9911 -76.7287 299.7185)" class="st12" cx="2209" cy="725.2" rx="3.4" ry="3.4"/>
	
		<ellipse transform="matrix(0.9911 -0.1328 0.1328 0.9911 -88.6837 295.0003)" class="st5" cx="2167.7" cy="812.5" rx="3.4" ry="3.4"/>
	
		<ellipse transform="matrix(0.9911 -0.1328 0.1328 0.9911 -67.7445 302.2305)" class="st5" cx="2232.4" cy="659.1" rx="3.4" ry="3.4"/>
	
		<ellipse transform="matrix(0.9911 -0.1328 0.1328 0.9911 -66.6685 304.3386)" class="st7" cx="2248.7" cy="652.1" rx="3.4" ry="3.4"/>
	<ellipse transform="matrix(0.9911 -0.1328 0.1328 0.9911 -72.9433 304.6909)" class="st7" cx="2248.2" cy="699.3" rx="5" ry="5"/>
	<ellipse transform="matrix(0.9911 -0.1328 0.1328 0.9911 -48.8366 305.3228)" class="st5" cx="2265" cy="518.9" rx="5" ry="5"/>
	<path class="st4" d="M2147,468.7c1.3,10.3,11.3,17.3,22.5,15.8c8.8-1.2,13.9-8.4,12.7-17.9c-1.3-10-9.6-16-20.4-14.7
		C2152.1,453.1,2145.9,460.1,2147,468.7z"/>
	<path class="st4" d="M2147.9,553.3c1.3,10.3,11.3,17.3,22.5,15.8c8.8-1.2,13.9-8.4,12.7-17.9c-1.3-10-9.6-16-20.4-14.7
		C2153.1,537.7,2146.9,544.7,2147.9,553.3z"/>
	<path class="st9" d="M2206.1,476.3c-1.8-5-6.6-7-12.5-4.9c-5.1,1.8-8.1,7.5-6.4,12.3c1.5,4.3,7.3,6.3,12.8,4.3
		C2205.3,486.1,2207.8,481.2,2206.1,476.3z"/>
	<path class="st4" d="M2114.9,576.1c1.5-2.6,2.2-6.1,1.9-9.1c-0.8-6.8-7-11.4-16.1-11.3c-11.3,0.1-13.6,3.4-13,13.5
		c0.7,6.3,4,9.9,10.9,11.6C2105.7,582.6,2112.1,581.1,2114.9,576.1z"/>
	<path class="st7" d="M2129.9,616.7c-7,0.9-14.7,10.1-14,16.8c0.8,7.8,9,14.5,16.7,13.7c7.7-0.8,16.8-10.8,15.9-17.4
		C2147.7,623,2137.4,615.8,2129.9,616.7z"/>
	<path class="st8" d="M2158.4,598c1,7.7,8.5,13.3,16.5,12.4c6.4-0.8,13.4-12.5,12.4-21.2c-0.8-7.4-6.6-11.9-14-11
		C2164.3,579.4,2157.2,588.7,2158.4,598z"/>
	<path class="st4" d="M2174.5,864.5c0.9,7.2,7.8,12.4,15.3,11.5c6-0.7,12.4-11.6,11.5-19.6c-0.7-6.8-6.1-11.1-12.9-10.2
		C2179.9,847.3,2173.4,855.9,2174.5,864.5z"/>
	<path class="st4" d="M2219.7,605.1c0.9,7.2,7.8,12.4,15.3,11.5c6-0.7,12.4-11.6,11.5-19.6c-0.7-6.8-6.1-11.1-12.9-10.2
		C2225.1,587.8,2218.6,596.5,2219.7,605.1z"/>
	<path class="st5" d="M2194.5,450.1c-5.3,0.6-8.8,3.9-8.5,7.7c0.3,3.3,5.2,6.7,9.3,6.3c3.4-0.3,6.4-4.5,5.8-8.3
		C2200.5,451.7,2197.6,450.3,2194.5,450.1z"/>
	<path class="st5" d="M2201.3,581.1c-5.3,0.6-8.8,3.9-8.5,7.7c0.3,3.3,5.2,6.7,9.3,6.3c3.4-0.3,6.4-4.5,5.8-8.3
		C2207.3,582.6,2204.4,581.3,2201.3,581.1z"/>
	<path class="st12" d="M2104.3,534.2c-5.3,0.6-8.8,3.9-8.5,7.7c0.3,3.3,5.2,6.7,9.3,6.3c3.4-0.3,6.4-4.5,5.8-8.3
		C2110.3,535.7,2107.4,534.4,2104.3,534.2z"/>
	<path class="st5" d="M2218.4,483.5c-5.3,0.6-8.8,3.9-8.5,7.7c0.3,3.3,5.2,6.7,9.3,6.3c3.4-0.3,6.4-4.5,5.8-8.3
		C2224.4,485.1,2221.5,483.7,2218.4,483.5z"/>
	<path class="st5" d="M2225,579.6c6.6-0.5,11-6.6,10-15c-1.1-5.6-5.2-9.5-12.2-9.5c-5.8,0-9.8,7.7-8.9,15.5
		C2214.7,577.6,2218.7,580.1,2225,579.6z"/>
	<path class="st5" d="M2174.9,505.4c4-0.3,6.7-4,6-9c-0.6-3.4-3.2-5.7-7.4-5.7c-3.5,0-5.9,4.7-5.4,9.4
		C2168.6,504.1,2171.1,505.6,2174.9,505.4z"/>
	
		<ellipse transform="matrix(0.9911 -0.1328 0.1328 0.9911 -57.6735 288.0743)" class="st5" cx="2131.3" cy="576.5" rx="6.4" ry="6.4"/>
	
		<ellipse transform="matrix(0.9911 -0.1328 0.1328 0.9911 -61.1339 298.2036)" class="st5" cx="2205.5" cy="607.5" rx="5.2" ry="5.2"/>
	
		<ellipse transform="matrix(0.9911 -0.1328 0.1328 0.9911 -45.6194 301.7367)" class="st5" cx="2239.7" cy="492.9" rx="5.2" ry="5.2"/>
	
		<ellipse transform="matrix(0.9911 -0.1328 0.1328 0.9911 -60.3983 288.2292)" class="st7" cx="2131.1" cy="597" rx="6.4" ry="6.4"/>
	<ellipse transform="matrix(0.9911 -0.1328 0.1328 0.9911 -66.0953 292.766)" class="st5" cx="2162.2" cy="642" rx="7.8" ry="7.8"/>
	
		<ellipse transform="matrix(0.9911 -0.1328 0.1328 0.9911 -54.4757 287.0513)" class="st7" cx="2125.2" cy="552" rx="3.6" ry="3.6"/>
	<ellipse transform="matrix(0.9911 -0.1328 0.1328 0.9911 -58.615 290.7666)" class="st5" cx="2151" cy="584.9" rx="3.6" ry="3.6"/>
	
		<ellipse transform="matrix(0.9911 -0.1328 0.1328 0.9911 -59.3182 306.7874)" class="st5" cx="2270.8" cy="598.2" rx="3.6" ry="3.6"/>
	
		<ellipse transform="matrix(0.9911 -0.1328 0.1328 0.9911 -44.2282 305.5784)" class="st5" cx="2269.2" cy="484.4" rx="3.6" ry="3.6"/>
	
		<ellipse transform="matrix(0.9911 -0.1328 0.1328 0.9911 -51.7178 305.0989)" class="st5" cx="2261.9" cy="540.3" rx="3.6" ry="3.6"/>
	
		<ellipse transform="matrix(0.9911 -0.1328 0.1328 0.9911 -79.3879 305.7836)" class="st5" cx="2253.2" cy="748.2" rx="8.1" ry="8.1"/>
	
		<ellipse transform="matrix(0.9911 -0.1328 0.1328 0.9911 -47.7003 296.6383)" class="st5" cx="2200.5" cy="506" rx="8.1" ry="8.1"/>
	
		<ellipse transform="matrix(0.9911 -0.1328 0.1328 0.9911 -64.7193 298.9125)" class="st4" cx="2209" cy="634.7" rx="11.3" ry="11.3"/>
	
		<ellipse transform="matrix(0.9911 -0.1328 0.1328 0.9911 -62.5193 285.4892)" class="st5" cx="2109.4" cy="611.5" rx="10.5" ry="10.5"/>
	
		<ellipse transform="matrix(0.9911 -0.1328 0.1328 0.9911 -90.1536 309.2705)" class="st12" cx="2274" cy="830.6" rx="3.4" ry="3.4"/>
	
		<ellipse transform="matrix(0.9911 -0.1328 0.1328 0.9911 -43.2464 298.3066)" class="st12" cx="2215.2" cy="473.4" rx="3.4" ry="3.4"/>
	
		<ellipse transform="matrix(0.9911 -0.1328 0.1328 0.9911 -60.0974 283.2991)" class="st7" cx="2094.2" cy="592.3" rx="3.4" ry="3.4"/>
	
		<ellipse transform="matrix(0.9911 -0.1328 0.1328 0.9911 -50.775 297.9527)" class="st5" cx="2208.8" cy="529.7" rx="3.4" ry="3.4"/>
	
		<ellipse transform="matrix(0.9911 -0.1328 0.1328 0.9911 -62.4926 290.9827)" class="st5" cx="2150.7" cy="614.1" rx="3.4" ry="3.4"/>
	<ellipse transform="matrix(0.9911 -0.1328 0.1328 0.9911 -80.4807 295.2406)" class="st5" cx="2173.6" cy="751.1" rx="5" ry="5"/>
	<ellipse transform="matrix(0.9911 -0.1328 0.1328 0.9911 -56.6642 308.4112)" class="st5" cx="2284.3" cy="579.1" rx="5" ry="5"/>
	
		<ellipse transform="matrix(0.9911 -0.1328 0.1328 0.9911 -63.8608 303.1534)" class="st12" cx="2241.2" cy="630.4" rx="5.9" ry="5.9"/>
	
		<ellipse transform="matrix(0.9911 -0.1328 0.1328 0.9911 -67.4928 295.7827)" class="st4" cx="2184.1" cy="654" rx="6.1" ry="6.1"/>
	
		<ellipse transform="matrix(0.9911 -0.1328 0.1328 0.9911 -54.5679 306.4265)" class="st4" cx="2270.4" cy="562.4" rx="6.1" ry="6.1"/>
	<path class="st5" d="M2213.1,516.4c0.9,11.4,9.9,19.5,20.8,18.5c8.9-0.8,14.9-7.7,13.9-16c-1-8.7-11.8-16.5-21.9-15.7
		C2217.3,503.9,2212.5,508.8,2213.1,516.4z"/>
	<path class="st5" d="M2143.6,523.5c0.7,5.2,5.7,9,11.1,8.3c4.3-0.5,9-8.4,8.4-14.2c-0.5-5-4.4-8-9.4-7.4
		C2147.5,511,2142.8,517.3,2143.6,523.5z"/>
	<path class="st5" d="M2192.5,522c-5.3,0.6-8.8,3.9-8.5,7.7c0.3,3.3,5.2,6.7,9.3,6.3c3.4-0.3,6.4-4.5,5.8-8.3
		C2198.5,523.6,2195.6,522.2,2192.5,522z"/>
	<path class="st11" d="M2136.2,531.9c3.3-5.6,1.1-15.8-5.1-19.4c-7.1-4.2-11.1,0.8-14.6,6.2c-4.9,7.7-4.3,14.3,1.8,18.5
		C2123.9,541,2132.2,538.5,2136.2,531.9z"/>
	<path class="st4" d="M2153.4,820.5c-3,0.3-6.3,1.7-8.5,3.6c-5.1,4.5-5.3,12.3-0.1,19.6c6.5,9.2,10.6,9.2,18.5,3
		c4.8-4.1,5.8-9,3.3-15.6C2164,824.4,2159.1,820,2153.4,820.5z"/>
	<path class="st4" d="M2242.5,829.5c5.4-4.8,5.7-13.5,0.7-19.1c-4-4.5-16.6-3.5-22.7,1.8c-5.2,4.5-5.6,11.3-1,16.4
		C2225.2,834.9,2236.1,835.4,2242.5,829.5z"/>
	<path class="st12" d="M2266.4,855.9c4.8,2.3,9.6,1.2,11.3-2.1c1.5-3-1-8.4-4.7-10.2c-3-1.5-7.8,0.5-9.3,4.1
		C2262.1,851.4,2263.8,854.1,2266.4,855.9z"/>
	
		<ellipse transform="matrix(0.7375 -0.6754 0.6754 0.7375 18.0469 1660.1182)" class="st5" cx="2144.4" cy="806.8" rx="6.4" ry="6.4"/>
	
		<ellipse transform="matrix(0.7375 -0.6754 0.6754 0.7375 30.3004 1668.5283)" class="st7" cx="2161.3" cy="795.3" rx="6.4" ry="6.4"/>
	
		<ellipse transform="matrix(0.4034 -0.915 0.915 0.4034 587.6847 2560.9841)" class="st7" cx="2257.8" cy="829.8" rx="3.6" ry="3.6"/>
	
		<ellipse transform="matrix(0.9911 -0.1328 0.1328 0.9911 -79.6856 303.3203)" class="st12" cx="2234.6" cy="749.2" rx="3.4" ry="3.4"/>
	<path class="st12" d="M2227,774.4c4.8,2.3,9.6,1.2,11.3-2.1c1.5-3-1-8.4-4.7-10.2c-3-1.5-7.8,0.5-9.3,4.1
		C2222.7,770,2224.4,772.6,2227,774.4z"/>
	
		<ellipse transform="matrix(0.4034 -0.915 0.915 0.4034 638.7348 2476.3457)" class="st7" cx="2218.4" cy="748.3" rx="3.6" ry="3.6"/>
	
		<ellipse transform="matrix(0.7375 -0.6754 0.6754 0.7375 14.7115 1705.1361)" class="st5" cx="2200.6" cy="833.6" rx="8.1" ry="8.1"/>
	
		<ellipse transform="matrix(0.7375 -0.6754 0.6754 0.7375 30.3086 1687.3975)" class="st5" cx="2185.6" cy="804.7" rx="10.5" ry="10.5"/>
	
		<ellipse transform="matrix(0.7375 -0.6754 0.6754 0.7375 -16.4855 1687.8518)" class="st12" cx="2162.8" cy="865.1" rx="3.4" ry="3.4"/>
	
		<ellipse transform="matrix(0.7375 -0.6754 0.6754 0.7375 74.9206 1714.2115)" class="st12" cx="2242.4" cy="760.7" rx="3.4" ry="3.4"/>
	
		<ellipse transform="matrix(0.7375 -0.6754 0.6754 0.7375 12.5797 1688.7634)" class="st7" cx="2178.5" cy="828.2" rx="3.4" ry="3.4"/>
	<ellipse transform="matrix(0.7375 -0.6754 0.6754 0.7375 30.4764 1703.0311)" class="st5" cx="2205.8" cy="812.3" rx="5" ry="5"/>
	<path class="st11" d="M2238,841.3c-5.8,3-9.2,12.9-5.8,19.2c3.9,7.3,9.9,5.1,15.7,2.4c8.2-4,11.1-10,8.1-16.7
		C2253.2,839.9,2244.8,837.6,2238,841.3z"/>
	<path class="st6" d="M2183.5,640.6c6.2-1,9.7-5.1,9.6-11.3c0-5.2-10-12.7-15.8-11c-3.8,1.1-7.6,3.2-8.5,9.1
		C2167.9,633.2,2177,641.7,2183.5,640.6z"/>
	<path class="st5" d="M2246.6,553.8c5.5-2.1,6.1-5.9,6.2-10c0.1-3.8-2.8-8.6-8.2-7.9c-12.3,1.7-11.2,10.3-9.4,13.5
		C2237,552.5,2241,555.9,2246.6,553.8z"/>
	
		<ellipse transform="matrix(0.9911 -0.1328 0.1328 0.9911 -53.2587 296.8287)" class="st7" cx="2199.1" cy="547.8" rx="7.4" ry="7.4"/>
	
		<ellipse transform="matrix(0.9911 -0.1328 0.1328 0.9911 -55.4442 303.133)" class="st7" cx="2245.3" cy="567.3" rx="3.4" ry="3.4"/>
	
		<ellipse transform="matrix(0.9911 -0.1328 0.1328 0.9911 -52.8104 299.8121)" class="st5" cx="2221.7" cy="545.9" rx="3.4" ry="3.4"/>
	
		<ellipse transform="matrix(0.9911 -0.1328 0.1328 0.9911 -47.8339 288.8374)" class="st5" cx="2141.9" cy="503.1" rx="3.4" ry="3.4"/>
	
		<ellipse transform="matrix(0.9911 -0.1328 0.1328 0.9911 -46.758 290.9454)" class="st7" cx="2158.2" cy="496.1" rx="3.4" ry="3.4"/>
	<ellipse transform="matrix(0.9911 -0.1328 0.1328 0.9911 -56.1628 297.2643)" class="st5" cx="2200.9" cy="569.8" rx="5" ry="5"/>
	
		<ellipse transform="matrix(0.9911 -0.1328 0.1328 0.9911 -74.9197 294.4778)" class="st4" cx="2170.6" cy="709" rx="6.1" ry="6.1"/>
	<path class="st5" d="M2240.2,792.4c0.1-5.4-2.9-9.2-6.6-9.3c-3.3-0.1-7.2,4.4-7.3,8.5c-0.1,3.4,3.7,6.9,7.6,6.8
		C2237.9,798.2,2239.6,795.5,2240.2,792.4z"/>
	<path class="st11" d="M2203.8,769.3c-0.3-6.5-7.8-13.7-15-13.3c-8.2,0.5-8.8,6.8-8.7,13.3c0.2,9.2,4.4,14.3,11.7,14.4
		C2198.6,783.7,2204.2,777.1,2203.8,769.3z"/>
	<path class="st5" d="M2264.5,775.3c0.1-6.3-4.2-10.5-10.8-10.6c-6.5-0.1-10.7,4-10.7,10.6c0,5.5,4.4,9.1,11.2,9.2
		C2260.5,784.4,2264.5,780.9,2264.5,775.3z"/>
	
		<ellipse transform="matrix(0.9999 -1.402049e-02 1.402049e-02 0.9999 -10.7724 31.105)" class="st12" cx="2213" cy="783.8" rx="7.7" ry="7.7"/>
	
		<ellipse transform="matrix(0.9999 -1.402049e-02 1.402049e-02 0.9999 -10.4261 31.9105)" class="st11" cx="2270.7" cy="759.5" rx="7.1" ry="7.1"/>
	
		<ellipse transform="matrix(0.9999 -1.402049e-02 1.402049e-02 0.9999 -11.0554 31.6027)" class="st7" cx="2248.4" cy="804.3" rx="3.4" ry="3.4"/>
	
		<ellipse transform="matrix(0.9999 -1.402049e-02 1.402049e-02 0.9999 -10.9984 31.1171)" class="st5" cx="2213.8" cy="800" rx="3.4" ry="3.4"/>
	<path class="st4" d="M2065.8,445.7c1.3,10.3,11.3,17.3,22.5,15.8c8.8-1.2,13.9-8.4,12.7-17.9c-1.3-10-9.6-16-20.4-14.7
		C2070.9,430.1,2064.7,437.1,2065.8,445.7z"/>
	<path class="st4" d="M2152.4,430.6c1.3,10.3,11.3,17.3,22.5,15.8c8.8-1.2,13.9-8.4,12.7-17.9c-1.3-10-9.6-16-20.4-14.7
		C2157.5,415,2151.3,422,2152.4,430.6z"/>
	<path class="st9" d="M2159.6,381.9c-1.8-5-6.6-7-12.5-4.9c-5.1,1.8-8.1,7.5-6.4,12.3c1.5,4.3,7.3,6.3,12.8,4.3
		C2158.7,391.7,2161.3,386.9,2159.6,381.9z"/>
	<path class="st5" d="M2106,365.1c-5.3,0.6-8.8,3.9-8.5,7.7c0.3,3.3,5.2,6.7,9.3,6.3c3.4-0.3,6.4-4.5,5.8-8.3
		C2112,366.7,2109.1,365.3,2106,365.1z"/>
	<path class="st12" d="M2175.4,370.8c-5.3,0.6-8.8,3.9-8.5,7.7c0.3,3.3,5.2,6.7,9.3,6.3c3.4-0.3,6.4-4.5,5.8-8.3
		C2181.4,372.3,2178.5,371,2175.4,370.8z"/>
	<path class="st5" d="M2173.3,392.1c-5.3,0.6-8.8,3.9-8.5,7.7c0.3,3.3,5.2,6.7,9.3,6.3c3.4-0.3,6.4-4.5,5.8-8.3
		C2179.3,393.7,2176.4,392.3,2173.3,392.1z"/>
	<path class="st5" d="M2076.5,442.8c4-0.3,6.7-4,6-9c-0.6-3.4-3.2-5.7-7.4-5.7c-3.5,0-5.9,4.7-5.4,9.4
		C2070.3,441.6,2072.7,443.1,2076.5,442.8z"/>
	
		<ellipse transform="matrix(0.9911 -0.1328 0.1328 0.9911 -35.1162 289.2307)" class="st5" cx="2151.2" cy="407.9" rx="5.2" ry="5.2"/>
	
		<ellipse transform="matrix(0.9911 -0.1328 0.1328 0.9911 -56.1548 314.3427)" class="st7" cx="2329" cy="578.2" rx="3.6" ry="3.6"/>
	
		<ellipse transform="matrix(0.9911 -0.1328 0.1328 0.9911 -29.6194 289.5714)" class="st12" cx="2156.5" cy="366.9" rx="3.4" ry="3.4"/>
</g>
<g class="st2">
	<path class="st4" d="M95.3,534.2c1.3,10.7,11.7,17.9,23.3,16.4c9.1-1.2,14.4-8.8,13.1-18.5c-1.4-10.4-10-16.6-21.1-15.2
		C100.7,518,94.2,525.3,95.3,534.2z"/>
	<path class="st6" d="M-51.2,439c1.1,11.8,10.7,20,21.9,18.7c9.2-1.1,15.2-8.3,14.1-16.9c-1.2-9-12.5-16.8-23-15.8
		C-47.1,425.9-52,431.1-51.2,439z"/>
	<path class="st4" d="M142.7,537.2c1.2,10.4,12.2,19.1,22.1,17.5c6.5-1.1,12.8-10.1,11.9-17.1c-1.3-9.7-12.6-17.1-23.6-15.4
		C145.2,523.4,141.7,528.5,142.7,537.2z"/>
	<path class="st8" d="M-34.1,261.6c1,8,8.8,13.8,17.1,12.8c6.7-0.8,13.8-13,12.9-21.9c-0.8-7.6-6.8-12.4-14.5-11.4
		C-28,242.3-35.4,252-34.1,261.6z"/>
	<path class="st5" d="M76,451.9c0.7,5.4,5.9,9.3,11.5,8.6c4.5-0.5,9.3-8.7,8.7-14.8c-0.6-5.1-4.6-8.3-9.7-7.7
		C80,438.9,75.1,445.4,76,451.9z"/>
	<path class="st9" d="M70.6,565.4c-6.6,0.9-11.2,7.7-10.3,15.4c0.9,8.1,8.6,13.6,17.1,12.2c7-1.1,11.6-7.2,10.6-14.3
		C86.8,570,79.2,564.2,70.6,565.4z"/>
	<path class="st10" d="M92.7,660.7c-7.5,0.6-15.2,9.6-13.1,16.6c1.9,6.4,6.6,10.8,14.2,9.9c8.7-1,15.8-8.2,15.1-15.3
		C108.2,665.1,100.9,660,92.7,660.7z"/>
	<path class="st5" d="M10.3,244c-5.5,0.6-9.1,4.1-8.8,8c0.3,3.5,5.4,6.9,9.6,6.5c3.5-0.3,6.6-4.7,6-8.6
		C16.6,245.7,13.6,244.3,10.3,244z"/>
	<path class="st5" d="M136.7,504.4c-5.5,0.6-9.1,4.1-8.8,8c0.3,3.5,5.4,6.9,9.6,6.5c3.5-0.3,6.6-4.7,6-8.6
		C142.9,506,139.9,504.6,136.7,504.4z"/>
	<path class="st5" d="M2.6,433c-5.5,0.6-9.1,4.1-8.8,8c0.3,3.5,5.4,6.9,9.6,6.5c3.5-0.3,6.6-4.7,6-8.6C8.8,434.6,5.8,433.2,2.6,433z
		"/>
	<path class="st5" d="M46.3,421.4c-5.5,0.6-9.1,4.1-8.8,8c0.3,3.5,5.4,6.9,9.6,6.5c3.5-0.3,6.6-4.7,6-8.6
		C52.6,423,49.6,421.6,46.3,421.4z"/>
	<path class="st11" d="M68.3,460.5c3.5-5.8,1.1-16.3-5.3-20.1c-7.3-4.3-11.5,0.8-15.2,6.4c-5.1,8-4.4,14.8,1.8,19.1
		C55.5,469.9,64.1,467.4,68.3,460.5z"/>
	<path class="st11" d="M46.7,397.3c-4.4,0.8-8.7,6.5-7.8,11.3c1,5.5,5.4,5.4,9.7,4.9c6.2-0.9,9.4-4.1,8.8-9.1
		C56.9,399.7,52,396.4,46.7,397.3z"/>
	<path class="st10" d="M42.3,554.3c7.9-1,12.2-6.7,11.1-14.6c-1.2-9-5.9-13.2-13.6-12.3c-7.9,0.9-13.6,7.1-12.6,13.9
		C28.3,548.9,35.5,555.1,42.3,554.3z"/>
	<path class="st5" d="M-14.9,465.6c-7.9,0.8-12.5,6.8-11.7,15.2c0.8,8.1,6.6,12.8,14.9,11.9c6.9-0.8,10.8-6.9,9.8-15.5
		C-2.8,469.2-7.8,464.8-14.9,465.6z"/>
	<path class="st7" d="M119.6,567.6c-0.7-7-6.4-10.9-14.3-10c-8.5,1-12.7,6.9-11.3,16c1.2,7.6,6.3,9.4,12.6,9
		C114.9,581.4,120.4,574.9,119.6,567.6z"/>
	<path class="st5" d="M-10.3,509.3c1.6,8,8.3,7,13,7.3c10.3-1.2,15.6-6.6,14.4-13.9c-1.5-8.6-8.5-8.5-14.6-8
		C-5.5,495.2-11.6,502.3-10.3,509.3z"/>
	<path class="st6" d="M114.5,439.6c6.4-1.1,10-5.3,10-11.8c0-5.4-10.4-13.2-16.3-11.4c-3.9,1.2-7.9,3.3-8.8,9.4
		S107.7,440.7,114.5,439.6z"/>
	<ellipse transform="matrix(0.9911 -0.1328 0.1328 0.9911 -35.91 4.3498)" class="st5" cx="14.7" cy="271.4" rx="5.4" ry="5.4"/>
	
		<ellipse transform="matrix(0.9911 -0.1328 0.1328 0.9911 -80.5871 27.2529)" class="st5" cx="164.1" cy="617.9" rx="6.6" ry="6.6"/>
	<ellipse transform="matrix(0.9911 -0.1328 0.1328 0.9911 -72.6888 14.3604)" class="st7" cx="71.3" cy="552.2" rx="7.7" ry="7.7"/>
	<ellipse transform="matrix(0.9911 -0.1328 0.1328 0.9911 -60.9495 5.3311)" class="st7" cx="9.5" cy="459.7" rx="7.7" ry="7.7"/>
	
		<ellipse transform="matrix(0.9911 -0.1328 0.1328 0.9911 -82.4153 22.2108)" class="st5" cx="125.3" cy="629.1" rx="7.4" ry="7.4"/>
	<ellipse transform="matrix(0.9911 -0.1328 0.1328 0.9911 -67.649 0.6916)" class="st5" cx="-28.6" cy="507.6" rx="8" ry="8"/>
	<ellipse transform="matrix(0.9911 -0.1328 0.1328 0.9911 -41.0513 -1.2849)" class="st5" cx="-30.2" cy="307.2" rx="8" ry="8"/>
	<ellipse transform="matrix(0.9911 -0.1328 0.1328 0.9911 -70.3079 2.322)" class="st5" cx="-17.7" cy="528.4" rx="4.5" ry="4.5"/>
	
		<ellipse transform="matrix(0.9911 -0.1328 0.1328 0.9911 -73.5704 23.6376)" class="st5" cx="140.5" cy="563.5" rx="7.3" ry="7.3"/>
	
		<ellipse transform="matrix(0.9911 -0.1328 0.1328 0.9911 -52.7311 20.2145)" class="st7" cx="125.2" cy="405.5" rx="3.7" ry="3.7"/>
	<ellipse transform="matrix(0.9911 -0.1328 0.1328 0.9911 -76.256 9.9989)" class="st7" cx="36.8" cy="576.8" rx="3.7" ry="3.7"/>
	<ellipse transform="matrix(0.9911 -0.1328 0.1328 0.9911 -37.7505 17.019)" class="st5" cx="108.7" cy="291.6" rx="3.7" ry="3.7"/>
	<ellipse transform="matrix(0.9911 -0.1328 0.1328 0.9911 -33.2998 -3.3568)" class="st5" cx="-41.8" cy="248" rx="3.7" ry="3.7"/>
	<ellipse transform="matrix(0.9911 -0.1328 0.1328 0.9911 -24.4375 -0.4494)" class="st5" cx="-15.6" cy="183" rx="3.7" ry="3.7"/>
	<ellipse transform="matrix(0.9911 -0.1328 0.1328 0.9911 -80.7082 17.6368)" class="st5" cx="91.9" cy="614" rx="8.9" ry="8.9"/>
	
		<ellipse transform="matrix(0.9911 -0.1328 0.1328 0.9911 -39.6254 5.0844)" class="st4" cx="18.3" cy="299.7" rx="11.7" ry="11.7"/>
	<path class="st5" d="M42.8,511.3c-0.6-4.6-4.2-6.2-9.4-7.2c-4.5-0.9-7.8,4.8-7.2,9.4c0.6,4.6,4.8,7.8,9.4,7.2
		C40.2,520.1,43.5,515.9,42.8,511.3z"/>
	<path class="st7" d="M45.6,480c1-6.8-7.2-11.6-14-10.7s-11.6,7.2-10.7,14c0.9,6.8,7.3,12.4,14,10.7C41.5,492.4,44.6,486.8,45.6,480
		z"/>
	
		<ellipse transform="matrix(0.9911 -0.1328 0.1328 0.9911 -63.2507 13.1168)" class="st5" cx="66.7" cy="480.8" rx="10.9" ry="10.9"/>
	
		<ellipse transform="matrix(0.9911 -0.1328 0.1328 0.9911 -78.1239 21.9548)" class="st5" cx="125.6" cy="596.8" rx="11.6" ry="11.6"/>
	<ellipse transform="matrix(0.9911 -0.1328 0.1328 0.9911 -87.8103 22.5199)" class="st5" cx="125" cy="669.7" rx="5.8" ry="5.8"/>
	<ellipse transform="matrix(0.9911 -0.1328 0.1328 0.9911 -84.7751 18.4602)" class="st5" cx="96" cy="644.9" rx="5.8" ry="5.8"/>
	
		<ellipse transform="matrix(0.9911 -0.1328 0.1328 0.9911 -66.7826 27.5388)" class="st7" cx="173.1" cy="514.5" rx="3.5" ry="3.5"/>
	<ellipse transform="matrix(0.9911 -0.1328 0.1328 0.9911 -58.5548 8.5129)" class="st7" cx="34.6" cy="443.3" rx="3.5" ry="3.5"/>
	<ellipse transform="matrix(0.9911 -0.1328 0.1328 0.9911 -54.9813 11.7068)" class="st5" cx="60.3" cy="418.1" rx="3.5" ry="3.5"/>
	<ellipse transform="matrix(0.9911 -0.1328 0.1328 0.9911 -60.4849 8.4226)" class="st5" cx="32.9" cy="457.8" rx="3.5" ry="3.5"/>
	<ellipse transform="matrix(0.9911 -0.1328 0.1328 0.9911 -65.8398 11.0621)" class="st12" cx="50" cy="499.2" rx="3.5" ry="3.5"/>
	<ellipse transform="matrix(0.9911 -0.1328 0.1328 0.9911 -72.4919 16.9942)" class="st5" cx="91.2" cy="552.1" rx="3.5" ry="3.5"/>
	<ellipse transform="matrix(0.9911 -0.1328 0.1328 0.9911 -71.735 13.2407)" class="st5" cx="63.4" cy="544.5" rx="3.5" ry="3.5"/>
	
		<ellipse transform="matrix(0.9911 -0.1328 0.1328 0.9911 -62.1769 6.514174e-02)" class="st5" cx="-30.6" cy="466.3" rx="3.5" ry="3.5"/>
	<ellipse transform="matrix(0.9911 -0.1328 0.1328 0.9911 -51.0923 10.6183)" class="st5" cx="54.1" cy="388.4" rx="3.5" ry="3.5"/>
	<ellipse transform="matrix(0.9911 -0.1328 0.1328 0.9911 -56.5299 13.6651)" class="st5" cx="74.2" cy="430.7" rx="3.5" ry="3.5"/>
	<ellipse transform="matrix(0.9911 -0.1328 0.1328 0.9911 -41.054 46.9888)" class="st5" cx="331.8" cy="331.3" rx="3.5" ry="3.5"/>
	
		<ellipse transform="matrix(0.9911 -0.1328 0.1328 0.9911 -75.6036 26.7384)" class="st5" cx="162.7" cy="580.3" rx="3.5" ry="3.5"/>
	<ellipse transform="matrix(0.9911 -0.1328 0.1328 0.9911 -55.4149 15.8496)" class="st7" cx="91.1" cy="423.4" rx="3.5" ry="3.5"/>
	<ellipse transform="matrix(0.9911 -0.1328 0.1328 0.9911 -74.5916 10.7811)" class="st5" cx="43.5" cy="564.7" rx="3.5" ry="3.5"/>
	<ellipse transform="matrix(0.9911 -0.1328 0.1328 0.9911 -40.395 9.458)" class="st10" cx="50.7" cy="307.6" rx="3.5" ry="3.5"/>
	<ellipse transform="matrix(0.9911 -0.1328 0.1328 0.9911 -69.9738 14.8511)" class="st5" cx="76.4" cy="532.1" rx="3.5" ry="3.5"/>
	
		<ellipse transform="matrix(0.9911 -0.1328 0.1328 0.9911 -37.3179 -3.1328)" class="st5" cx="-42.2" cy="278.3" rx="3.5" ry="3.5"/>
	<ellipse transform="matrix(0.9911 -0.1328 0.1328 0.9911 -61.9172 16.2147)" class="st7" cx="90.6" cy="472.4" rx="5.2" ry="5.2"/>
	<ellipse transform="matrix(0.9911 -0.1328 0.1328 0.9911 -40.029 14.4101)" class="st12" cx="88" cy="307.4" rx="6.1" ry="6.1"/>
	<ellipse transform="matrix(0.9911 -0.1328 0.1328 0.9911 -42.4994 1.8412)" class="st4" cx="-7.4" cy="319.6" rx="6.3" ry="6.3"/>
	<path class="st10" d="M137.7,301.6c0.6,4.6,5,7.9,9.7,7.3c3.8-0.4,7.9-7.4,7.3-12.5c-0.5-4.3-3.9-7-8.2-6.5
		C141.1,290.6,137,296.1,137.7,301.6z"/>
	
		<ellipse transform="matrix(0.9911 -0.1328 0.1328 0.9911 -43.3227 24.5555)" class="st7" cx="162.5" cy="337.1" rx="5.9" ry="5.9"/>
	
		<ellipse transform="matrix(0.9911 -0.1328 0.1328 0.9911 -36.6089 26.5712)" class="st7" cx="180.9" cy="287.8" rx="5.4" ry="5.4"/>
	<ellipse transform="matrix(0.9911 -0.1328 0.1328 0.9911 -38.567 28.0299)" class="st5" cx="190.9" cy="303.2" rx="8" ry="8"/>
	<ellipse transform="matrix(0.9911 -0.1328 0.1328 0.9911 -38.2498 46.3219)" class="st5" cx="328.2" cy="310" rx="8" ry="8"/>
	
		<ellipse transform="matrix(0.9911 -0.1328 0.1328 0.9911 -42.8759 21.7489)" class="st7" cx="141.6" cy="332.4" rx="3.7" ry="3.7"/>
	<ellipse transform="matrix(0.9911 -0.1328 0.1328 0.9911 -45.899 19.0333)" class="st5" cx="119.8" cy="353.7" rx="3.7" ry="3.7"/>
	
		<ellipse transform="matrix(0.9911 -0.1328 0.1328 0.9911 -40.7693 33.5817)" class="st5" cx="231.4" cy="322.5" rx="3.7" ry="3.7"/>
	<ellipse transform="matrix(0.9911 -0.1328 0.1328 0.9911 -35.5671 9.7366)" class="st7" cx="55.2" cy="271.6" rx="8.4" ry="8.4"/>
	
		<ellipse transform="matrix(0.9911 -0.1328 0.1328 0.9911 -40.7659 30.1032)" class="st12" cx="205.3" cy="320.7" rx="4.9" ry="4.9"/>
	<ellipse transform="matrix(0.9911 -0.1328 0.1328 0.9911 -33.3401 11.9529)" class="st5" cx="73" cy="256" rx="3.5" ry="3.5"/>
	
		<ellipse transform="matrix(0.9911 -0.1328 0.1328 0.9911 -41.4055 36.9233)" class="st10" cx="256.2" cy="328.9" rx="3.5" ry="3.5"/>
	<ellipse transform="matrix(0.9911 -0.1328 0.1328 0.9911 -38.5312 12.2975)" class="st5" cx="72.9" cy="295.1" rx="5.2" ry="5.2"/>
	
		<ellipse transform="matrix(0.5508 -0.8347 0.8347 0.5508 -142.7388 335.9236)" class="st4" cx="240.7" cy="300.6" rx="6.1" ry="6.1"/>
	<ellipse transform="matrix(0.9911 -0.1328 0.1328 0.9911 -41.9799 26.5403)" class="st4" cx="178" cy="328.1" rx="6.3" ry="6.3"/>
	
		<ellipse transform="matrix(0.9911 -0.1328 0.1328 0.9911 -41.0699 49.5068)" class="st4" cx="350.7" cy="332.7" rx="6.3" ry="6.3"/>
	<ellipse transform="matrix(0.9911 -0.1328 0.1328 0.9911 -63.9652 5.6314)" class="st4" cx="10.2" cy="482.5" rx="6.3" ry="6.3"/>
	<path class="st4" d="M233.5,825.4c7.7,7.6,20.2,7,28.5-1.5c6.4-6.6,6-15.8-1.1-22.7c-7.5-7.3-18-6.9-26,1
		C227.7,809.4,227.1,819.1,233.5,825.4z"/>
	<path class="st6" d="M81.3,729.6c8.2,8.6,20.7,9.1,28.8,1.2c6.6-6.5,6.9-15.9,0.7-22c-6.5-6.4-20.2-5.5-27.8,1.7
		C76.5,716.7,75.9,723.8,81.3,729.6z"/>
	<path class="st4" d="M272.7,798.7c7.4,7.5,21.4,7.6,28.2,0.2c4.5-4.8,3.9-15.9-1.2-20.8c-7-6.8-20.5-5.7-28.1,2.4
		C266.2,786.3,266.5,792.4,272.7,798.7z"/>
	<path class="st5" d="M189.4,661.4c3.9,3.8,10.4,3.7,14.4-0.3c3.2-3.2,1.9-12.6-2.3-17c-3.6-3.7-8.7-3.7-12.4-0.1
		C184.6,648.6,184.8,656.7,189.4,661.4z"/>
	<path class="st9" d="M233.3,865.3c-4.6,4.8-4,13,1.4,18.5c5.7,5.8,15.1,5.4,21-0.9c4.8-5.2,4.7-12.8-0.4-17.8
		C248.9,858.9,239.3,859,233.3,865.3z"/>
	<path class="st10" d="M152.6,831.7c-5.5,5.1-6.1,16.9-0.1,21.2c5.4,3.9,11.9,4.4,17.3-0.9c6.3-6.1,7.4-16.2,2.4-21.3
		C167.5,825.7,158.6,826.2,152.6,831.7z"/>
	<path class="st3" d="M198.2,764.4c-5.1-5.5-14.4-5-20.4,1.1c-5.2,5.2-6.1,14.6-1.7,19c4.3,4.3,14.3,2.6,20.6-3.4
		C202.5,775.4,203,769.5,198.2,764.4z"/>
	<path class="st5" d="M247.7,776.5c-4,3.9-4.7,8.9-2,11.7c2.4,2.5,8.5,2.1,11.6-0.8c2.6-2.4,2.4-7.8-0.6-10.5
		C253.7,773.9,250.4,774.7,247.7,776.5z"/>
	<path class="st5" d="M133.4,824.9c-4,3.9-4.7,8.9-2,11.7c2.4,2.5,8.5,2.1,11.6-0.8c2.6-2.4,2.4-7.8-0.6-10.5
		C139.3,822.4,136.1,823.1,133.4,824.9z"/>
	<path class="st5" d="M120,691.7c-4,3.9-4.7,8.9-2,11.7c2.4,2.5,8.5,2.1,11.6-0.8c2.6-2.4,2.4-7.8-0.6-10.5
		C125.9,689.1,122.7,689.8,120,691.7z"/>
	<path class="st5" d="M147.3,655.6c-4,3.9-4.7,8.9-2,11.7c2.4,2.5,8.5,2.1,11.6-0.8c2.6-2.4,2.4-7.8-0.6-10.5
		C153.3,653,150,653.8,147.3,655.6z"/>
	<path class="st11" d="M188.7,672.9c-0.9-6.7-9.2-13.6-16.6-12.6c-8.4,1.1-8.6,7.8-8,14.4c0.9,9.5,5.6,14.4,13.2,14
		C184.4,688.2,189.7,680.9,188.7,672.9z"/>
	<path class="st10" d="M226,762.8c5.6-5.6,5.5-12.8-0.3-18.3c-6.5-6.3-12.7-6.8-18.3-1.3c-5.7,5.6-6.3,14-1.3,18.7
		C211.7,767.1,221.2,767.6,226,762.8z"/>
	<path class="st5" d="M155.5,793.2c-5.7,5.5-5.6,13.1,0.1,19.1c5.7,5.9,13.1,6,19,0.2c5-4.9,4.3-12.1-1.8-18.2
		C167.3,788.6,160.6,788.2,155.5,793.2z"/>
	<path class="st5" d="M126.3,728.1c-5.7,5.5-5.6,13.1,0.1,19.1c5.7,5.9,13.1,6,19,0.2c5-4.9,4.3-12.1-1.8-18.2
		C138.1,723.6,131.4,723.1,126.3,728.1z"/>
	<path class="st7" d="M273.2,836.8c-4.9-5.1-11.8-4.7-17.4,0.9c-6.1,6-5.8,13.2,1,19.6c5.6,5.2,10.8,3.5,15.5-0.7
		C278,850.6,278.3,842,273.2,836.8z"/>
	<path class="st5" d="M156.9,759.7c6.2,5.3,10.8,0.4,14.7-2.3c7.4-7.3,8.2-14.8,2.8-19.8c-6.5-5.9-11.9-1.4-16.5,2.7
		C151.9,745.6,151.5,755.1,156.9,759.7z"/>
	<path class="st6" d="M212.2,627.9c4.4-4.8,4.6-10.3,0.6-15.4c-3.3-4.2-16.3-4-19.9,1.1c-2.4,3.3-4.2,7.5-1.2,12.8
		S207.6,632.9,212.2,627.9z"/>
	<path class="st5" d="M218.3,810.3c-4.8-5.3-10.6-6.3-16.8-1.9c-4.8,4.2-5,12.8-0.1,17.9c5.1,5.3,9.8,2.2,13.9-1.5
		C219.6,820.7,223.6,816.1,218.3,810.3z"/>
	<path class="st5" d="M306.1,1019.6"/>
	
		<ellipse transform="matrix(0.6989 -0.7152 0.7152 0.6989 -424.2115 395.5818)" class="st5" cx="257.8" cy="701.7" rx="6.6" ry="6.6"/>
	<ellipse transform="matrix(0.6989 -0.7152 0.7152 0.6989 -503.6972 397.4099)" class="st4" cx="220.2" cy="797" rx="8" ry="8"/>
	
		<ellipse transform="matrix(0.6989 -0.7152 0.7152 0.6989 -543.1118 418.6757)" class="st7" cx="225.7" cy="854.4" rx="7.7" ry="7.7"/>
	
		<ellipse transform="matrix(0.6989 -0.7152 0.7152 0.6989 -463.9443 314.7667)" class="st7" cx="141.9" cy="708.4" rx="7.7" ry="7.7"/>
	
		<ellipse transform="matrix(0.6989 -0.7152 0.7152 0.6989 -545.5287 396.7683)" class="st5" cx="198.5" cy="846.3" rx="10.9" ry="10.9"/>
	<ellipse transform="matrix(0.6989 -0.7152 0.7152 0.6989 -507.8989 332.8292)" class="st5" cx="141.4" cy="769.7" rx="8" ry="8"/>
	<ellipse transform="matrix(0.6989 -0.7152 0.7152 0.6989 -576.1902 249.6017)" class="st5" cx="8.4" cy="809.2" rx="8" ry="8"/>
	
		<ellipse transform="matrix(0.6989 -0.7152 0.7152 0.6989 -508.3564 351.0116)" class="st5" cx="162.7" cy="779.3" rx="4.5" ry="4.5"/>
	
		<ellipse transform="matrix(0.6989 -0.7152 0.7152 0.6989 -500.5154 452.4203)" class="st5" cx="287.1" cy="820.7" rx="7.3" ry="7.3"/>
	
		<ellipse transform="matrix(0.6989 -0.7152 0.7152 0.6989 -489.6628 404.4699)" class="st7" cx="235.6" cy="783.8" rx="3.7" ry="3.7"/>
	
		<ellipse transform="matrix(0.6989 -0.7152 0.7152 0.6989 -511.4863 376.409)" class="st7" cx="191.3" cy="795.7" rx="3.7" ry="3.7"/>
	
		<ellipse transform="matrix(0.6989 -0.7152 0.7152 0.6989 -552.5208 468.3088)" class="st5" cx="280" cy="890.4" rx="8.9" ry="8.9"/>
	<path class="st5" d="M200,728.6c-3.3-3.2-7.1-2.3-11.8,0.1c-4.1,2.1-3.2,8.6,0.1,11.8c3.3,3.2,8.6,3.2,11.8-0.1
		C203.3,737.1,203.3,731.8,200,728.6z"/>
	<path class="st7" d="M182.9,702.2c-3.4-6-12.8-4.7-17.6,0.2c-4.8,4.9-4.7,12.8,0.2,17.6c4.9,4.8,13.4,5.2,17.6-0.2
		C187.3,714.5,186.3,708.1,182.9,702.2z"/>
	
		<ellipse transform="matrix(0.6989 -0.7152 0.7152 0.6989 -433.1491 350.726)" class="st5" cx="200" cy="689.8" rx="10.9" ry="10.9"/>
	
		<ellipse transform="matrix(0.6989 -0.7152 0.7152 0.6989 -523.1947 469.3618)" class="st5" cx="295.9" cy="856.1" rx="11.6" ry="11.6"/>
	
		<ellipse transform="matrix(0.6989 -0.7152 0.7152 0.6989 -514.5937 314.5467)" class="st5" cx="116.3" cy="768.5" rx="5.8" ry="5.8"/>
	
		<ellipse transform="matrix(0.6989 -0.7152 0.7152 0.6989 -507.3282 301.8062)" class="st5" cx="104.8" cy="753.5" rx="5.8" ry="5.8"/>
	<ellipse transform="matrix(0.6989 -0.7152 0.7152 0.6989 -469.4916 241.4682)" class="st5" cx="52.1" cy="678.4" rx="8" ry="8"/>
	<ellipse transform="matrix(0.6989 -0.7152 0.7152 0.6989 -476.1865 223.1857)" class="st5" cx="27" cy="677.2" rx="5.8" ry="5.8"/>
	
		<ellipse transform="matrix(0.6989 -0.7152 0.7152 0.6989 -493.4497 386.6386)" class="st5" cx="212.5" cy="779.4" rx="5.8" ry="5.8"/>
	
		<ellipse transform="matrix(0.6989 -0.7152 0.7152 0.6989 -343.0619 336.5577)" class="st5" cx="228.2" cy="575.8" rx="5.8" ry="5.8"/>
	
		<ellipse transform="matrix(0.6989 -0.7152 0.7152 0.6989 -459.8931 431.5835)" class="st7" cx="282.7" cy="762" rx="3.5" ry="3.5"/>
	
		<ellipse transform="matrix(0.6989 -0.7152 0.7152 0.6989 -539.9335 345.2942)" class="st7" cx="140.2" cy="814" rx="3.5" ry="3.5"/>
	
		<ellipse transform="matrix(0.6989 -0.7152 0.7152 0.6989 -440.7791 313.1431)" class="st7" cx="151.5" cy="680.1" rx="3.5" ry="3.5"/>
	<path class="st5" d="M6.6,661c-4,3.9-4.7,8.9-2,11.7c2.4,2.5,8.5,2.1,11.6-0.8c2.6-2.4,2.4-7.8-0.6-10.5
		C12.5,658.5,9.3,659.2,6.6,661z"/>
	
		<ellipse transform="matrix(0.6989 -0.7152 0.7152 0.6989 -487.0206 214.1404)" class="st7" cx="10.8" cy="685.5" rx="3.5" ry="3.5"/>
	
		<ellipse transform="matrix(0.6989 -0.7152 0.7152 0.6989 -447.3439 322.301)" class="st5" cx="159.1" cy="692.5" rx="3.5" ry="3.5"/>
	
		<ellipse transform="matrix(0.6989 -0.7152 0.7152 0.6989 -451.4167 356.876)" class="st12" cx="198.2" cy="714.6" rx="3.5" ry="3.5"/>
	
		<ellipse transform="matrix(0.6989 -0.7152 0.7152 0.6989 -529.6005 426.0678)" class="st5" cx="241.3" cy="842.1" rx="3.5" ry="3.5"/>
	<path class="st4" d="M289,979c-6.1-8.9-18.6-10.6-28.2-3.9c-7.5,5.3-8.8,14.4-3.2,22.5c6,8.6,16.4,10.2,25.7,3.9
		C291.7,995.8,294.1,986.4,289,979z"/>
	<path class="st9" d="M296.7,939.9c5.5-3.9,6.4-12,2.1-18.4c-4.5-6.8-13.8-8.2-20.8-3c-5.7,4.2-7,11.7-2.9,17.6
		C280.2,943.2,289.6,944.9,296.7,939.9z"/>
	<path class="st7" d="M252.1,960.4c3.9,5.9,10.7,6.8,17.3,2.4c7.1-4.8,8.1-11.9,2.7-19.4c-4.5-6.2-9.9-5.4-15.3-2.2
		C250,946,248.1,954.3,252.1,960.4z"/>
	
		<ellipse transform="matrix(0.8204 -0.5718 0.5718 0.8204 -514.42 309.5204)" class="st5" cx="235.5" cy="973.6" rx="7.3" ry="7.3"/>
	
		<ellipse transform="matrix(0.8204 -0.5718 0.5718 0.8204 -463.4509 284.1899)" class="st5" cx="220.6" cy="879.8" rx="7.3" ry="7.3"/>
	
		<ellipse transform="matrix(0.8204 -0.5718 0.5718 0.8204 -472.4217 308.9212)" class="st5" cx="255.5" cy="906.4" rx="8.9" ry="8.9"/>
	
		<ellipse transform="matrix(0.8204 -0.5718 0.5718 0.8204 -493.9508 301.8313)" class="st5" cx="233.5" cy="937.2" rx="11.6" ry="11.6"/>
	
		<ellipse transform="matrix(0.8204 -0.5718 0.5718 0.8204 -498.5124 335.3271)" class="st5" cx="284.5" cy="961.2" rx="3.5" ry="3.5"/>
	
		<ellipse transform="matrix(0.8204 -0.5718 0.5718 0.8204 -524.6589 402.9608)" class="st5" cx="379.1" cy="1036.6" rx="3.5" ry="3.5"/>
	
		<ellipse transform="matrix(0.8204 -0.5718 0.5718 0.8204 -479.8781 300.5754)" class="st5" cx="238.5" cy="914.1" rx="3.5" ry="3.5"/>
	
		<ellipse transform="matrix(0.8204 -0.5718 0.5718 0.8204 -534.7657 338.4688)" class="st5" cx="271.4" cy="1020.4" rx="3.5" ry="3.5"/>
	
		<ellipse transform="matrix(0.6989 -0.7152 0.7152 0.6989 -459.4582 392.6327)" class="st5" cx="236.6" cy="742" rx="3.5" ry="3.5"/>
	
		<ellipse transform="matrix(0.6989 -0.7152 0.7152 0.6989 -493.6048 304.0667)" class="st5" cx="114.4" cy="738.3" rx="3.5" ry="3.5"/>
	
		<ellipse transform="matrix(0.6989 -0.7152 0.7152 0.6989 -409.1453 319.5799)" class="st5" cx="175" cy="645.8" rx="3.5" ry="3.5"/>
	
		<ellipse transform="matrix(0.6989 -0.7152 0.7152 0.6989 -432.6273 454.5694)" class="st5" cx="323.6" cy="741.1" rx="3.5" ry="3.5"/>
	
		<ellipse transform="matrix(0.6989 -0.7152 0.7152 0.6989 -591.6728 434.9295)" class="st5" cx="220.8" cy="920.2" rx="3.5" ry="3.5"/>
	
		<ellipse transform="matrix(0.6989 -0.7152 0.7152 0.6989 -646.0276 453.1957)" class="st5" cx="215.3" cy="993.9" rx="3.5" ry="3.5"/>
	
		<ellipse transform="matrix(0.6989 -0.7152 0.7152 0.6989 -687.4556 455.4441)" class="st5" cx="197.2" cy="1044.3" rx="3.5" ry="3.5"/>
	
		<ellipse transform="matrix(0.6989 -0.7152 0.7152 0.6989 -547.1875 334.9704)" class="st5" cx="124.3" cy="817.4" rx="3.5" ry="3.5"/>
	<ellipse transform="matrix(0.6989 -0.7152 0.7152 0.6989 -538.5466 286.7185)" class="st5" cx="71.3" cy="783" rx="3.5" ry="3.5"/>
	
		<ellipse transform="matrix(0.6989 -0.7152 0.7152 0.6989 -570.2416 375.3062)" class="st5" cx="160.7" cy="865" rx="3.5" ry="3.5"/>
	
		<ellipse transform="matrix(0.6989 -0.7152 0.7152 0.6989 -480.5558 398.8073)" class="st5" cx="233.4" cy="770.2" rx="3.5" ry="3.5"/>
	
		<ellipse transform="matrix(0.6989 -0.7152 0.7152 0.6989 -525.5781 342.9447)" class="st10" cx="144.5" cy="795.7" rx="3.5" ry="3.5"/>
	
		<ellipse transform="matrix(0.6989 -0.7152 0.7152 0.6989 -559.0211 407.3723)" class="st10" cx="204.4" cy="867.7" rx="3.5" ry="3.5"/>
	
		<ellipse transform="matrix(0.6989 -0.7152 0.7152 0.6989 -532.0983 406.9479)" class="st5" cx="217.3" cy="835.5" rx="3.5" ry="3.5"/>
	
		<ellipse transform="matrix(0.6989 -0.7152 0.7152 0.6989 -505.7789 385.8597)" class="st5" cx="205.4" cy="793.7" rx="3.5" ry="3.5"/>
	<path class="st4" d="M142.9,929.7c7.7,7.6,20.2,7,28.5-1.5c6.4-6.6,6-15.8-1.1-22.7c-7.5-7.3-18-6.9-26,1
		C137.2,913.6,136.6,923.3,142.9,929.7z"/>
	<path class="st4" d="M182.1,902.9c7.4,7.5,21.4,7.6,28.2,0.2c4.5-4.8,3.9-15.9-1.2-20.8c-7-6.8-20.5-5.7-28.1,2.4
		C175.6,890.5,176,896.6,182.1,902.9z"/>
	<path class="st9" d="M142.7,969.5c-4.6,4.8-4,13,1.4,18.5c5.7,5.8,15.1,5.4,21-0.9c4.8-5.2,4.7-12.8-0.4-17.8
		C158.3,963.1,148.8,963.2,142.7,969.5z"/>
	<path class="st5" d="M157.2,880.7c-4,3.9-4.7,8.9-2,11.7c2.4,2.5,8.5,2.1,11.6-0.8c2.6-2.4,2.4-7.8-0.6-10.5
		C163.1,878.2,159.9,878.9,157.2,880.7z"/>
	<path class="st10" d="M135.5,867c5.6-5.6,5.5-12.8-0.3-18.3c-6.5-6.3-12.7-6.8-18.3-1.3c-5.7,5.6-6.3,14-1.3,18.7
		C121.2,871.4,130.7,871.8,135.5,867z"/>
	<path class="st7" d="M182.6,941c-4.9-5.1-11.8-4.7-17.4,0.9c-6.1,6-5.8,13.2,1,19.6c5.6,5.2,10.8,3.5,15.5-0.7
		C187.5,954.8,187.8,946.3,182.6,941z"/>
	<path class="st5" d="M127.7,914.5c-4.8-5.3-10.6-6.3-16.8-1.9c-4.8,4.2-5,12.8-0.1,17.9c5.1,5.3,9.8,2.2,13.9-1.5
		C129.1,925,133,920.3,127.7,914.5z"/>
	<ellipse transform="matrix(0.6989 -0.7152 0.7152 0.6989 -605.5188 364.0309)" class="st4" cx="129.6" cy="901.2" rx="8" ry="8"/>
	
		<ellipse transform="matrix(0.6989 -0.7152 0.7152 0.6989 -644.9335 385.2968)" class="st7" cx="135.2" cy="958.7" rx="7.7" ry="7.7"/>
	
		<ellipse transform="matrix(0.6989 -0.7152 0.7152 0.6989 -646.7637 436.1181)" class="st7" cx="194.6" cy="986.3" rx="7.7" ry="7.7"/>
	
		<ellipse transform="matrix(0.6989 -0.7152 0.7152 0.6989 -647.3503 363.3894)" class="st5" cx="107.9" cy="950.6" rx="10.9" ry="10.9"/>
	
		<ellipse transform="matrix(0.6989 -0.7152 0.7152 0.6989 -528.4189 329.0076)" class="st5" cx="126.6" cy="792.1" rx="4.5" ry="4.5"/>
	<ellipse transform="matrix(0.6989 -0.7152 0.7152 0.6989 -602.337 419.0414)" class="st5" cx="196.6" cy="925" rx="7.3" ry="7.3"/>
	
		<ellipse transform="matrix(0.6989 -0.7152 0.7152 0.6989 -677.103 408.2717)" class="st5" cx="146.4" cy="1008.4" rx="7.3" ry="7.3"/>
	<ellipse transform="matrix(0.6989 -0.7152 0.7152 0.6989 -591.4844 371.091)" class="st7" cx="145" cy="888.1" rx="3.7" ry="3.7"/>
	
		<ellipse transform="matrix(0.6989 -0.7152 0.7152 0.6989 -613.3079 343.0301)" class="st7" cx="100.8" cy="900" rx="3.7" ry="3.7"/>
	
		<ellipse transform="matrix(0.6989 -0.7152 0.7152 0.6989 -566.3594 389.7661)" class="st5" cx="179.8" cy="867.6" rx="8.9" ry="8.9"/>
	
		<ellipse transform="matrix(0.6989 -0.7152 0.7152 0.6989 -685.735 468.4229)" class="st5" cx="213.5" cy="1048.7" rx="8.9" ry="8.9"/>
	
		<ellipse transform="matrix(0.6989 -0.7152 0.7152 0.6989 -625.0164 435.9829)" class="st5" cx="205.3" cy="960.4" rx="11.6" ry="11.6"/>
	
		<ellipse transform="matrix(0.6989 -0.7152 0.7152 0.6989 -595.2713 353.2597)" class="st5" cx="122" cy="883.7" rx="5.8" ry="5.8"/>
	
		<ellipse transform="matrix(0.6989 -0.7152 0.7152 0.6989 -631.4221 392.6889)" class="st5" cx="150.7" cy="946.3" rx="3.5" ry="3.5"/>
	
		<ellipse transform="matrix(0.6989 -0.7152 0.7152 0.6989 -697.7021 423.1643)" class="st5" cx="153.8" cy="1040.3" rx="3.5" ry="3.5"/>
	
		<ellipse transform="matrix(0.6989 -0.7152 0.7152 0.6989 -582.3774 365.4284)" class="st5" cx="142.9" cy="874.4" rx="3.5" ry="3.5"/>
	
		<ellipse transform="matrix(0.6989 -0.7152 0.7152 0.6989 -640.8371 424.5384)" class="st5" cx="183.8" cy="973.4" rx="3.5" ry="3.5"/>
	
		<ellipse transform="matrix(0.6989 -0.7152 0.7152 0.6989 -608.9017 432.4484)" class="st5" cx="209.2" cy="939.5" rx="3.5" ry="3.5"/>
	
		<ellipse transform="matrix(0.6989 -0.7152 0.7152 0.6989 -532.9735 380.3633)" class="st10" cx="185.3" cy="823.2" rx="3.5" ry="3.5"/>
	<path class="st3" d="M53.4,601.3c-5.1-5.5-14.4-5-20.4,1.1c-5.2,5.2-6.1,14.6-1.7,19c4.3,4.3,14.3,2.6,20.6-3.4
		C57.7,612.4,58.3,606.5,53.4,601.3z"/>
	<path class="st5" d="M10.8,630.1c-5.7,5.5-5.6,13.1,0.1,19.1c5.7,5.9,13.1,6,19,0.2c5-4.9,4.3-12.1-1.8-18.2
		C22.5,625.6,15.9,625.1,10.8,630.1z"/>
	<path class="st5" d="M73.5,647.2c-4.8-5.3-10.6-6.3-16.8-1.9c-4.8,4.2-5,12.8-0.1,17.9c5.1,5.3,9.8,2.2,13.9-1.5
		C74.9,657.7,78.8,653.1,73.5,647.2z"/>
	
		<ellipse transform="matrix(0.6989 -0.7152 0.7152 0.6989 -460.382 158.9625)" class="st5" cx="-41.4" cy="626.3" rx="7.4" ry="7.4"/>
	<ellipse transform="matrix(0.6989 -0.7152 0.7152 0.6989 -434.8828 180.2318)" class="st5" cx="-3.4" cy="606.7" rx="8" ry="8"/>
	<ellipse transform="matrix(0.6989 -0.7152 0.7152 0.6989 -435.3402 198.4142)" class="st5" cx="18" cy="616.3" rx="4.5" ry="4.5"/>
	
		<ellipse transform="matrix(0.6989 -0.7152 0.7152 0.6989 -438.4701 223.8116)" class="st7" cx="46.6" cy="632.7" rx="3.7" ry="3.7"/>
	
		<ellipse transform="matrix(0.6989 -0.7152 0.7152 0.6989 -441.5776 161.9494)" class="st5" cx="-28.4" cy="605.5" rx="5.8" ry="5.8"/>
	
		<ellipse transform="matrix(0.6989 -0.7152 0.7152 0.6989 -466.9173 192.6968)" class="st7" cx="-4.6" cy="650.9" rx="3.5" ry="3.5"/>
	
		<ellipse transform="matrix(0.6989 -0.7152 0.7152 0.6989 -474.1714 182.373)" class="st5" cx="-20.5" cy="654.4" rx="3.5" ry="3.5"/>
	
		<ellipse transform="matrix(0.6989 -0.7152 0.7152 0.6989 -452.562 190.3473)" class="st10" cx="-0.2" cy="632.7" rx="3.5" ry="3.5"/>
	<path class="st4" d="M-8.7,582.6c7.4,7.5,21.4,7.6,28.2,0.2c4.5-4.8,3.9-15.9-1.2-20.8c-7-6.8-20.5-5.7-28.1,2.4
		C-15.2,570.2-14.9,576.3-8.7,582.6z"/>
	
		<ellipse transform="matrix(0.6989 -0.7152 0.7152 0.6989 -455.4028 176.4103)" class="st5" cx="-18.2" cy="629.1" rx="4.5" ry="4.5"/>
	
		<ellipse transform="matrix(0.6989 -0.7152 0.7152 0.6989 -459.9574 227.7659)" class="st10" cx="40.6" cy="660.2" rx="3.5" ry="3.5"/>
	
		<ellipse transform="matrix(0.6989 -0.7152 0.7152 0.6989 -633.9199 373.569)" class="st5" cx="126.8" cy="939.7" rx="3.5" ry="3.5"/>
	
		<ellipse transform="matrix(0.6989 -0.7152 0.7152 0.6989 -665.8571 388.6249)" class="st5" cx="128.7" cy="985.2" rx="3.5" ry="3.5"/>
	
		<ellipse transform="matrix(0.6989 -0.7152 0.7152 0.6989 -607.6005 352.4808)" class="st5" cx="114.9" cy="897.9" rx="3.5" ry="3.5"/>
	<path class="st10" d="M37.2,867.4c-5.8,4.8-6.9,16.6-1.2,21.2c5.2,4.1,11.6,5,17.4-0.1c6.6-5.8,8.2-15.8,3.5-21.2
		C52.4,862.1,43.5,862.2,37.2,867.4z"/>
	<path class="st5" d="M18.4,859.6c-4.2,3.7-5.1,8.6-2.6,11.6c2.2,2.6,8.4,2.5,11.6-0.2c2.7-2.3,2.7-7.6,0-10.5
		C24.4,857.4,21.2,857.9,18.4,859.6z"/>
	<path class="st5" d="M42.1,829c-6,5.2-6.3,12.8-0.8,19.1c5.3,6.2,12.8,6.7,19,1.2c5.2-4.6,4.9-11.8-0.9-18.3
		C54.1,825,47.5,824.3,42.1,829z"/>
	<path class="st5" d="M103.9,849.3c-4.6-5.5-10.3-6.9-16.7-2.8c-5,4-5.6,12.5-1,17.9c4.8,5.5,9.7,2.7,14-0.8
		C104.7,859.8,108.9,855.4,103.9,849.3z"/>
	<ellipse transform="matrix(0.7346 -0.6785 0.6785 0.7346 -539.0712 294.1544)" class="st4" cx="106.5" cy="836.1" rx="8" ry="8"/>
	<path class="st4" d="M76.7,810.6c6.5,8.6,19.1,9.7,28.4,2.4c7.3-5.6,8.1-14.8,2.1-22.6c-6.4-8.3-16.9-9.3-25.9-2.6
		C73.2,794,71.3,803.5,76.7,810.6z"/>
	<path class="st10" d="M-22.8,749.9c-6.2,4.3-8.4,15.9-3,21c4.8,4.6,11.1,6,17.3,1.4c7-5.2,9.5-15,5.3-20.8
		C-7.2,745.9-16.1,745.2-22.8,749.9z"/>
	<path class="st5" d="M-22.3,796.4c-4.5,3.3-5.8,8.1-3.6,11.3c2,2.8,8.1,3.2,11.6,0.8c2.9-2,3.4-7.4,0.9-10.5
		C-16.1,794.7-19.4,795-22.3,796.4z"/>
	<path class="st5" d="M3.9,768c-6.4,4.7-7.4,12.2-2.5,19c4.8,6.6,12.2,7.7,18.8,2.8c5.6-4.1,5.9-11.4,0.7-18.3
		C16.2,765.1,9.7,763.7,3.9,768z"/>
	<path class="st5" d="M63.7,793.5c-4.1-5.9-9.7-7.7-16.4-4.2c-5.3,3.5-6.7,12-2.5,17.7c4.3,5.9,9.4,3.5,14,0.4
		C63.6,804.1,68.2,800,63.7,793.5z"/>
	
		<ellipse transform="matrix(0.7903 -0.6127 0.6127 0.7903 -484.8696 156.2545)" class="st7" cx="-14.2" cy="786.5" rx="3.5" ry="3.5"/>
	
		<ellipse transform="matrix(0.7903 -0.6127 0.6127 0.7903 -489.0326 146.5819)" class="st5" cx="-30.4" cy="787.7" rx="3.5" ry="3.5"/>
	
		<ellipse transform="matrix(0.7903 -0.6127 0.6127 0.7903 -488.9978 207.9593)" class="st5" cx="59.3" cy="818.4" rx="3.5" ry="3.5"/>
	
		<ellipse transform="matrix(0.7903 -0.6127 0.6127 0.7903 -485.1728 186.0921)" class="st10" cx="29.3" cy="801.9" rx="3.5" ry="3.5"/>
	<ellipse transform="matrix(0.8206 -0.5715 0.5715 0.8206 -468.4812 115.3105)" class="st4" cx="-50.6" cy="803.8" rx="8" ry="8"/>
	
		<ellipse transform="matrix(0.7346 -0.6785 0.6785 0.7346 -578.1865 290.5435)" class="st5" cx="82.3" cy="884.3" rx="10.9" ry="10.9"/>
	
		<ellipse transform="matrix(0.7346 -0.6785 0.6785 0.7346 -544.8519 273.9334)" class="st7" cx="77.7" cy="833.4" rx="3.7" ry="3.7"/>
	<ellipse transform="matrix(0.7346 -0.6785 0.6785 0.7346 -569.2443 242.7576)" class="st7" cx="25.7" cy="849" rx="3.5" ry="3.5"/>
	<ellipse transform="matrix(0.8204 -0.5718 0.5718 0.8204 -507.7991 221.5086)" class="st5" cx="98.7" cy="919" rx="7.3" ry="7.3"/>
	
		<ellipse transform="matrix(0.7346 -0.6785 0.6785 0.7346 -575.2924 232.5708)" class="st5" cx="9.6" cy="851.6" rx="3.5" ry="3.5"/>
	
		<ellipse transform="matrix(0.6989 -0.7152 0.7152 0.6989 -635.0262 299.9089)" class="st5" cx="38.7" cy="904.2" rx="3.5" ry="3.5"/>
	<ellipse transform="matrix(0.7346 -0.6785 0.6785 0.7346 -555.6361 241.5911)" class="st10" cx="31" cy="831" rx="3.5" ry="3.5"/>
	
		<ellipse transform="matrix(0.6989 -0.7152 0.7152 0.6989 -623.8057 331.975)" class="st10" cx="82.4" cy="906.9" rx="3.5" ry="3.5"/>
	
		<ellipse transform="matrix(0.7346 -0.6785 0.6785 0.7346 -566.3458 301.0399)" class="st5" cx="101.6" cy="874.4" rx="3.5" ry="3.5"/>
	
		<ellipse transform="matrix(0.7346 -0.6785 0.6785 0.7346 -540.1888 283.1917)" class="st5" cx="91.9" cy="832.1" rx="3.5" ry="3.5"/>
	
		<ellipse transform="matrix(0.7346 -0.6785 0.6785 0.7346 -544.2031 240.5788)" class="st5" cx="35.4" cy="815.9" rx="3.5" ry="3.5"/>
	<path class="st4" d="M21,968.9c7.7,7.6,20.2,7,28.5-1.5c6.4-6.6,6-15.8-1.1-22.7c-7.5-7.3-18-6.9-26,1
		C15.2,952.9,14.6,962.6,21,968.9z"/>
	<path class="st4" d="M60.2,942.2c7.4,7.5,21.4,7.6,28.2,0.2c4.5-4.8,3.9-15.9-1.2-20.8c-7-6.8-20.5-5.7-28.1,2.4
		C53.6,929.8,54,935.9,60.2,942.2z"/>
	<path class="st5" d="M35.2,920c-4,3.9-4.7,8.9-2,11.7c2.4,2.5,8.5,2.1,11.6-0.8c2.6-2.4,2.4-7.8-0.6-10.5
		C41.2,917.4,37.9,918.2,35.2,920z"/>
	<path class="st10" d="M18.3,901.8c5.9-5.3,6.1-12.5,0.7-18.3c-6.2-6.7-12.4-7.4-18.2-2.2c-6,5.3-7,13.6-2.3,18.6
		C3.8,905.4,13.2,906.3,18.3,901.8z"/>
	<ellipse transform="matrix(0.6989 -0.7152 0.7152 0.6989 -670.3034 288.6336)" class="st4" cx="7.7" cy="940.5" rx="8" ry="8"/>
	
		<ellipse transform="matrix(0.7346 -0.6785 0.6785 0.7346 -557.2927 228.3392)" class="st5" cx="13.2" cy="826.5" rx="4.5" ry="4.5"/>
	
		<ellipse transform="matrix(0.6989 -0.7152 0.7152 0.6989 -656.269 295.6937)" class="st7" cx="23.1" cy="927.3" rx="3.7" ry="3.7"/>
	
		<ellipse transform="matrix(0.6989 -0.7152 0.7152 0.6989 -678.0924 267.6328)" class="st7" cx="-21.2" cy="939.2" rx="3.7" ry="3.7"/>
	
		<ellipse transform="matrix(0.6989 -0.7152 0.7152 0.6989 -631.1439 314.3688)" class="st5" cx="57.8" cy="906.8" rx="8.9" ry="8.9"/>
	<ellipse transform="matrix(0.6989 -0.7152 0.7152 0.6989 -660.0558 277.8624)" class="st5" cx="0" cy="922.9" rx="5.8" ry="5.8"/>
	
		<ellipse transform="matrix(0.6989 -0.7152 0.7152 0.6989 -647.1619 290.0311)" class="st5" cx="20.9" cy="913.7" rx="3.5" ry="3.5"/>
	
		<ellipse transform="matrix(0.7346 -0.6785 0.6785 0.7346 -565.2522 276.0891)" class="st10" cx="70.3" cy="860.6" rx="3.5" ry="3.5"/>
	
		<ellipse transform="matrix(0.6989 -0.7152 0.7152 0.6989 -672.3851 277.0835)" class="st5" cx="-7.1" cy="937.2" rx="3.5" ry="3.5"/>
	
		<ellipse transform="matrix(0.6989 -0.7152 0.7152 0.6989 -413.761 354.0285)" class="st7" cx="213.6" cy="668.5" rx="5.2" ry="5.2"/>
	
		<ellipse transform="matrix(0.6989 -0.7152 0.7152 0.6989 -472.0424 330.4751)" class="st4" cx="156.5" cy="725.9" rx="6.3" ry="6.3"/>
	<path class="st6" d="M-24.2,715.1c8.2,8.6,20.7,9.1,28.8,1.2c6.6-6.5,6.9-15.9,0.7-22c-6.5-6.4-20.2-5.5-27.8,1.7
		C-29,702.2-29.6,709.3-24.2,715.1z"/>
	<path class="st3" d="M92.7,749.9c-5.1-5.5-14.4-5-20.4,1.1c-5.2,5.2-6.1,14.6-1.7,19c4.3,4.3,14.3,2.6,20.6-3.4
		C97,760.9,97.5,755,92.7,749.9z"/>
	<path class="st5" d="M20.8,713.6c-5.7,5.5-5.6,13.1,0.1,19.1c5.7,5.9,13.1,6,19,0.2c5-4.9,4.3-12.1-1.8-18.2
		C32.6,709.1,25.9,708.6,20.8,713.6z"/>
	<path class="st5" d="M51.4,745.2c6.2,5.3,10.8,0.4,14.7-2.3c7.4-7.3,8.2-14.8,2.8-19.8c-6.5-5.9-11.9-1.4-16.5,2.7
		C46.4,731.1,46,740.6,51.4,745.2z"/>
	<ellipse transform="matrix(0.6989 -0.7152 0.7152 0.6989 -529.291 253.0118)" class="st5" cx="35.9" cy="755.2" rx="8" ry="8"/>
	<ellipse transform="matrix(0.6989 -0.7152 0.7152 0.6989 -486.1354 236.5288)" class="st5" cx="37.9" cy="695.7" rx="8" ry="8"/>
	<ellipse transform="matrix(0.6989 -0.7152 0.7152 0.6989 -544.0803 262.0321)" class="st5" cx="39.2" cy="777.3" rx="8" ry="8"/>
	
		<ellipse transform="matrix(0.6989 -0.7152 0.7152 0.6989 -529.7485 271.1942)" class="st5" cx="57.2" cy="764.8" rx="4.5" ry="4.5"/>
	
		<ellipse transform="matrix(0.6989 -0.7152 0.7152 0.6989 -524.0668 302.7794)" class="st5" cx="97.6" cy="773.9" rx="4.5" ry="4.5"/>
	
		<ellipse transform="matrix(0.6989 -0.7152 0.7152 0.6989 -493.911 224.4152)" class="st5" cx="19.6" cy="698.9" rx="4.5" ry="4.5"/>
	<path class="st7" d="M77.4,687.7c-3.4-6-12.8-4.7-17.6,0.2c-4.8,4.9-4.7,12.8,0.2,17.6c4.9,4.8,13.4,5.2,17.6-0.2
		C81.8,700,80.8,693.6,77.4,687.7z"/>
	<ellipse transform="matrix(0.6989 -0.7152 0.7152 0.6989 -535.9858 234.7293)" class="st5" cx="10.8" cy="754" rx="5.8" ry="5.8"/>
	
		<ellipse transform="matrix(0.6989 -0.7152 0.7152 0.6989 -514.9969 224.2493)" class="st5" cx="8.9" cy="723.8" rx="3.5" ry="3.5"/>
	<ellipse transform="matrix(0.6989 -0.7152 0.7152 0.6989 -493.4345 250.6577)" class="st4" cx="51" cy="711.4" rx="6.3" ry="6.3"/>
	<ellipse transform="matrix(0.9911 -0.1328 0.1328 0.9911 -47.9449 3.1083)" class="st5" cx="-0.7" cy="361.1" rx="3.5" ry="3.5"/>
	<path class="st4" d="M6.4,415c0.9,7.4,8.1,12.8,15.8,11.9c6.2-0.7,12.8-12,11.9-20.3c-0.8-7.1-6.3-11.5-13.4-10.6
		C12,397.1,5.2,406.1,6.4,415z"/>
	<path class="st4" d="M-15.5,369.4c-3.1,0.3-6.5,1.7-8.8,3.8c-5.3,4.7-5.5,12.7-0.1,20.4c6.8,9.5,10.9,9.5,19.1,3.1
		c4.9-4.3,6-9.3,3.4-16.1C-4.5,373.4-9.5,368.8-15.5,369.4z"/>
	<path class="st4" d="M76.9,378.7c5.5-5,5.9-14,0.7-19.8c-4.1-4.7-17.2-3.6-23.5,1.8c-5.4,4.7-5.8,11.7-1,17
		C59,384.3,70.2,384.8,76.9,378.7z"/>
	<path class="st12" d="M101.6,406.1c5,2.4,9.9,1.3,11.7-2.2c1.5-3.1-1-8.7-4.8-10.6c-3.2-1.5-8.1,0.5-9.6,4.2
		C97.1,401.4,99,404.2,101.6,406.1z"/>
	
		<ellipse transform="matrix(0.7375 -0.6754 0.6754 0.7375 -246.4332 76.4875)" class="st5" cx="-24.8" cy="355.2" rx="6.6" ry="6.6"/>
	
		<ellipse transform="matrix(0.7375 -0.6754 0.6754 0.7375 -233.7355 85.2026)" class="st7" cx="-7.3" cy="343.2" rx="6.6" ry="6.6"/>
	<ellipse transform="matrix(0.4034 -0.915 0.915 0.4034 -291.469 310.973)" class="st7" cx="92.7" cy="379" rx="3.7" ry="3.7"/>
	<ellipse transform="matrix(0.7375 -0.6754 0.6754 0.7375 -249.8896 123.1375)" class="st5" cx="33.4" cy="383" rx="8.4" ry="8.4"/>
	
		<ellipse transform="matrix(0.7375 -0.6754 0.6754 0.7375 -233.727 104.7557)" class="st5" cx="17.9" cy="353" rx="10.9" ry="10.9"/>
	
		<ellipse transform="matrix(0.7375 -0.6754 0.6754 0.7375 -282.2175 105.2265)" class="st12" cx="-5.8" cy="415.6" rx="3.5" ry="3.5"/>
	
		<ellipse transform="matrix(0.7375 -0.6754 0.6754 0.7375 -252.0987 106.1712)" class="st7" cx="10.5" cy="377.3" rx="3.5" ry="3.5"/>
	
		<ellipse transform="matrix(0.7375 -0.6754 0.6754 0.7375 -233.5532 120.9562)" class="st5" cx="38.8" cy="360.9" rx="5.2" ry="5.2"/>
	<path class="st11" d="M72.2,390.9c-6,3.2-9.5,13.3-6,19.9c4,7.5,10.3,5.3,16.3,2.5c8.5-4.2,11.5-10.3,8.4-17.3
		C88,389.5,79.3,387.1,72.2,390.9z"/>
	<path class="st5" d="M74.5,340.3c0.1-5.6-3-9.6-6.9-9.7c-3.5-0.1-7.5,4.6-7.6,8.8c-0.1,3.5,3.8,7.1,7.8,7
		C72.1,346.2,73.9,343.4,74.5,340.3z"/>
	
		<ellipse transform="matrix(0.9999 -1.402049e-02 1.402049e-02 0.9999 -4.6417 0.6823)" class="st12" cx="46.3" cy="331.4" rx="8" ry="8"/>
	
		<ellipse transform="matrix(0.9999 -1.402049e-02 1.402049e-02 0.9999 -4.9349 1.198)" class="st7" cx="83" cy="352.6" rx="3.5" ry="3.5"/>
	
		<ellipse transform="matrix(0.9999 -1.402049e-02 1.402049e-02 0.9999 -4.8758 0.6948)" class="st5" cx="47.1" cy="348.1" rx="3.5" ry="3.5"/>
	<path class="st4" d="M127.7,142.4c1.5-2.7,2.3-6.4,2-9.4c-0.8-7-7.3-11.8-16.7-11.7c-11.7,0.1-14.1,3.6-13.5,13.9
		c0.7,6.5,4.2,10.2,11.3,12.1C118.1,149.2,124.7,147.6,127.7,142.4z"/>
	<path class="st5" d="M339.6,993.1c-2.4-11.6-8.9-16.1-19.9-13.7c-9.1,2-13.5,7.9-11.6,15.6c2.1,8.6,12.1,15.4,19.9,13.6
		C335.7,1006.9,341,999.9,339.6,993.1z"/>
	<path class="st7" d="M-50.9,196.3c-7.3,0.9-15.2,10.5-14.5,17.4c0.8,8.1,9.3,15,17.3,14.2c7.9-0.8,17.4-11.1,16.5-18.1
		C-32.5,202.8-43.1,195.4-50.9,196.3z"/>
	<path class="st4" d="M284.6,1020.9c1.5,7.1,6.6,11.3,11.6,10.3c4.4-0.9,8.2-8,7.1-13.4c-0.9-4.5-7-7.9-12-6.6
		C285.8,1012.6,284.4,1016.7,284.6,1020.9z"/>
	<path class="st4" d="M335,1016.4c1.2,5.4,5.1,8.6,8.9,7.9c3.4-0.7,6.3-6.1,5.4-10.3c-0.7-3.4-5.4-6.1-9.2-5.1
		C335.9,1010.1,334.9,1013.2,335,1016.4z"/>
	<ellipse transform="matrix(0.9911 -0.1328 0.1328 0.9911 -29.2952 7.4314)" class="st5" cx="41.1" cy="223.4" rx="8" ry="8"/>
	
		<ellipse transform="matrix(0.9707 -0.2404 0.2404 0.9707 -236.5555 107.4233)" class="st7" cx="322" cy="1023.2" rx="3.7" ry="3.7"/>
	
		<ellipse transform="matrix(0.9707 -0.2404 0.2404 0.9707 -215.4645 89.4605)" class="st7" cx="258.9" cy="927.8" rx="3.7" ry="3.7"/>
	
		<ellipse transform="matrix(0.9707 -0.2404 0.2404 0.9707 -235.9298 70.8508)" class="st7" cx="172.4" cy="1002.3" rx="3.7" ry="3.7"/>
	
		<ellipse transform="matrix(0.9707 -0.2404 0.2404 0.9707 -254.0364 113.856)" class="st7" cx="339.6" cy="1098" rx="3.7" ry="3.7"/>
	<ellipse transform="matrix(0.9911 -0.1328 0.1328 0.9911 -35.9117 -9.6021)" class="st5" cx="-90" cy="264.5" rx="3.7" ry="3.7"/>
	<ellipse transform="matrix(0.9911 -0.1328 0.1328 0.9911 -6.0108 -6.1151)" class="st5" cx="-48.9" cy="42" rx="3.7" ry="3.7"/>
	
		<ellipse transform="matrix(0.9911 -0.1328 0.1328 0.9911 -32.4775 -8.9339)" class="st4" cx="-83.2" cy="239.1" rx="11.7" ry="11.7"/>
	<ellipse transform="matrix(0.9911 -0.1328 0.1328 0.9911 -15.7139 12.2708)" class="st12" cx="84.2" cy="124" rx="3.5" ry="3.5"/>
	
		<ellipse transform="matrix(0.9911 -0.1328 0.1328 0.9911 -20.1952 15.5171)" class="st7" cx="106.3" cy="159.2" rx="3.5" ry="3.5"/>
	<ellipse transform="matrix(0.9911 -0.1328 0.1328 0.9911 -13.6201 7.3872)" class="st7" cx="48.6" cy="105.8" rx="3.5" ry="3.5"/>
	<ellipse transform="matrix(0.9911 -0.1328 0.1328 0.9911 -19.4741 12.704)" class="st5" cx="85.5" cy="152.4" rx="3.5" ry="3.5"/>
	
		<ellipse transform="matrix(0.9707 -0.2404 0.2404 0.9707 -241.151 104.0309)" class="st5" cx="305.8" cy="1040.3" rx="5.2" ry="5.2"/>
	<ellipse transform="matrix(0.9911 -0.1328 0.1328 0.9911 -31.017 -1.1232)" class="st5" cx="-23.9" cy="232" rx="5.2" ry="5.2"/>
	
		<ellipse transform="matrix(0.9911 -0.1328 0.1328 0.9911 -34.5688 -6.1736)" class="st4" cx="-63.6" cy="256.1" rx="6.3" ry="6.3"/>
	<path class="st5" d="M38,148.3c0.9,11.8,10.3,20.2,21.5,19.1c9.2-0.9,15.4-8,14.4-16.6c-1-9.1-12.2-17.1-22.6-16.2
		C42.4,135.3,37.4,140.4,38,148.3z"/>
	<path class="st6" d="M233.7,1036.4c11.6-2.4,18.7-12.8,16.2-23.8c-2-9-9.9-14.2-18.3-12.1c-8.8,2.2-15.3,14.3-13.2,24.6
		C220.2,1033.8,225.9,1038,233.7,1036.4z"/>
	<path class="st5" d="M13.1,205.7c0.7,5.4,5.9,9.3,11.5,8.6c4.5-0.5,9.3-8.7,8.7-14.8c-0.6-5.1-4.6-8.3-9.7-7.7
		C17.1,192.7,12.2,199.2,13.1,205.7z"/>
	<path class="st5" d="M-60.3,186.8c-5.5,0.6-9.1,4.1-8.8,8c0.3,3.5,5.4,6.9,9.6,6.5c3.5-0.3,6.6-4.7,6-8.6
		C-54.1,188.4-57.1,187-60.3,186.8z"/>
	<path class="st11" d="M5.4,214.3c3.5-5.8,1.1-16.3-5.3-20.1c-7.3-4.3-11.5,0.8-15.2,6.4c-5.1,8-4.4,14.8,1.8,19.1
		C-7.4,223.7,1.2,221.2,5.4,214.3z"/>
	<path class="st5" d="M101.2,317.1c-7.9,0.8-12.5,6.8-11.7,15.2c0.8,8.1,6.6,12.8,14.9,11.9c6.9-0.8,10.8-6.9,9.8-15.5
		C113.3,320.7,108.4,316.3,101.2,317.1z"/>
	<path class="st6" d="M40.1,262.3c6.4-1.1,10-5.3,10-11.8c0-5.4-10.4-13.2-16.3-11.4c-3.9,1.2-7.9,3.3-8.8,9.4
		C24,254.6,33.4,263.4,40.1,262.3z"/>
	<path class="st11" d="M264.1,1046.4c1.7,6.2,6.8,7.4,11.2,5.4c3-1.4,7.3-5,6.6-9.6c-0.7-4.7-6.8-9.5-12.4-8.7
		C264.7,1034.1,262.4,1040.1,264.1,1046.4z"/>
	<path class="st11" d="M222.4,902.9c1.7,6.2,6.8,7.4,11.2,5.4c3-1.4,7.3-5,6.6-9.6s-6.8-9.5-12.4-8.7
		C223,890.5,220.8,896.6,222.4,902.9z"/>
	<path class="st5" d="M256.9,1048.1c-2.8-5.4-6.8-5.6-11-5.3c-4,0.3-8.6,3.8-7.2,9.3c3.1,12.5,11.9,10.4,15,8.2
		C256.7,1058,259.7,1053.5,256.9,1048.1z"/>
	
		<ellipse transform="matrix(0.9707 -0.2404 0.2404 0.9707 -269.2409 97.1231)" class="st7" cx="263.4" cy="1152" rx="7.7" ry="7.7"/>
	
		<ellipse transform="matrix(0.9707 -0.2404 0.2404 0.9707 -250.421 103.2429)" class="st11" cx="297.9" cy="1077.9" rx="7.4" ry="7.4"/>
	<ellipse transform="matrix(0.9911 -0.1328 0.1328 0.9911 -24.3961 9.7916)" class="st5" cx="61.2" cy="187.8" rx="8" ry="8"/>
	<ellipse transform="matrix(0.9911 -0.1328 0.1328 0.9911 -39.5243 -3.8953)" class="st5" cx="-49" cy="294.4" rx="5.2" ry="5.2"/>
	<path class="st5" d="M379.7,989.5c-4.5,1.1-5.7,4.8-6.1,10.1c-0.4,4.6,5.6,7.2,10.1,6.1c4.5-1.1,7.2-5.6,6.1-10.1
		S384.1,988.4,379.7,989.5z"/>
	
		<ellipse transform="matrix(0.9707 -0.2404 0.2404 0.9707 -254.5749 98.9352)" class="st5" cx="278.2" cy="1092.8" rx="10.9" ry="10.9"/>
	<ellipse transform="matrix(0.9911 -0.1328 0.1328 0.9911 -26.423 -2.0189)" class="st7" cx="-28.4" cy="197.1" rx="3.5" ry="3.5"/>
	
		<ellipse transform="matrix(0.9707 -0.2404 0.2404 0.9707 -245.8242 102.614)" class="st7" cx="297.6" cy="1058.8" rx="3.5" ry="3.5"/>
	<ellipse transform="matrix(0.9911 -0.1328 0.1328 0.9911 -27.4033 9.6777)" class="st5" cx="58.9" cy="210.3" rx="3.5" ry="3.5"/>
	<ellipse transform="matrix(0.9911 -0.1328 0.1328 0.9911 -25.7052 7.7126)" class="st12" cx="45" cy="196.6" rx="3.5" ry="3.5"/>
	<ellipse transform="matrix(0.9911 -0.1328 0.1328 0.9911 -24.3981 3.1333)" class="st5" cx="11.3" cy="184.5" rx="3.5" ry="3.5"/>
	<ellipse transform="matrix(0.9911 -0.1328 0.1328 0.9911 -23.2831 5.3178)" class="st7" cx="28.2" cy="177.2" rx="3.5" ry="3.5"/>
	
		<ellipse transform="matrix(0.9707 -0.2404 0.2404 0.9707 -249.4097 95.6176)" class="st7" cx="267.2" cy="1070" rx="5.2" ry="5.2"/>
	<ellipse transform="matrix(0.9911 -0.1328 0.1328 0.9911 -4.8048 6.3377)" class="st5" cx="45.1" cy="39.2" rx="5.2" ry="5.2"/>
	<path class="st4" d="M-77.2-12.8C-75.8-2.1-65.5,5.2-53.8,3.6c9.1-1.2,14.4-8.8,13.1-18.5c-1.4-10.4-10-16.6-21.1-15.2
		C-71.8-29-78.3-21.7-77.2-12.8z"/>
	<path class="st4" d="M-76.2,74.9c1.3,10.7,11.7,17.9,23.3,16.4c9.1-1.2,14.4-8.8,13.1-18.5c-1.4-10.4-10-16.6-21.1-15.2
		C-70.9,58.7-77.3,66-76.2,74.9z"/>
	<path class="st9" d="M-15.9-4.9c-1.8-5.2-6.8-7.2-12.9-5.1c-5.3,1.8-8.4,7.8-6.6,12.8c1.6,4.5,7.6,6.5,13.2,4.5
		C-16.8,5.2-14.2,0.2-15.9-4.9z"/>
	<path class="st4" d="M-110.4,98.5c1.5-2.7,2.3-6.4,2-9.4c-0.8-7-7.3-11.8-16.7-11.7c-11.7,0.1-14.1,3.6-13.5,13.9
		c0.7,6.5,4.2,10.2,11.3,12.1C-120,105.3-113.4,103.7-110.4,98.5z"/>
	<path class="st7" d="M179.7,1023c1.7,7.1,12.1,14,18.9,12.5c7.9-1.7,13.9-10.9,12.2-18.8c-1.7-7.8-13-16-19.8-14.4
		C184.1,1003.9,177.9,1015.3,179.7,1023z"/>
	<path class="st8" d="M-65.4,121.2c1,8,8.8,13.8,17.1,12.8c6.7-0.8,13.8-13,12.9-21.9c-0.8-7.6-6.8-12.4-14.5-11.4
		C-59.3,101.9-66.6,111.6-65.4,121.2z"/>
	<path class="st4" d="M-1.8,128.6c0.9,7.4,8.1,12.8,15.8,11.9c6.2-0.7,12.8-12,11.9-20.3c-0.8-7.1-6.3-11.5-13.4-10.6
		C3.8,110.7-3,119.7-1.8,128.6z"/>
	<path class="st5" d="M-28-32c-5.5,0.6-9.1,4.1-8.8,8c0.3,3.5,5.4,6.9,9.6,6.5c3.5-0.3,6.6-4.7,6-8.6C-21.7-30.4-24.7-31.8-28-32z"
		/>
	<path class="st5" d="M-20.9,103.7c-5.5,0.6-9.1,4.1-8.8,8c0.3,3.5,5.4,6.9,9.6,6.5c3.5-0.3,6.6-4.7,6-8.6
		C-14.7,105.3-17.7,103.9-20.9,103.7z"/>
	<path class="st12" d="M-121.4,55.1c-5.5,0.6-9.1,4.1-8.8,8c0.3,3.5,5.4,6.9,9.6,6.5c3.5-0.3,6.6-4.7,6-8.6
		C-115.2,56.7-118.2,55.3-121.4,55.1z"/>
	<path class="st5" d="M-3.2,2.6c-5.5,0.6-9.1,4.1-8.8,8c0.3,3.5,5.4,6.9,9.6,6.5c3.5-0.3,6.6-4.7,6-8.6C3,4.2,0,2.8-3.2,2.6z"/>
	<path class="st5" d="M3.7,102.2c6.8-0.5,11.4-6.9,10.3-15.5c-1.1-5.8-5.4-9.8-12.6-9.8c-6,0-10.1,8-9.2,16
		C-7,100-2.9,102.6,3.7,102.2z"/>
	<path class="st5" d="M-48.3,25.2c4.1-0.3,6.9-4.2,6.3-9.4c-0.7-3.5-3.3-6-7.6-6c-3.6,0-6.1,4.8-5.6,9.7
		C-54.7,23.9-52.2,25.5-48.3,25.2z"/>
	<ellipse transform="matrix(0.9911 -0.1328 0.1328 0.9911 -13.962 -11.5361)" class="st5" cx="-93.5" cy="98.9" rx="6.6" ry="6.6"/>
	
		<ellipse transform="matrix(0.9911 -0.1328 0.1328 0.9911 -17.5479 -1.0397)" class="st5" cx="-16.6" cy="131.1" rx="5.4" ry="5.4"/>
	<ellipse transform="matrix(0.9911 -0.1328 0.1328 0.9911 -1.4709 2.6216)" class="st5" cx="18.9" cy="12.3" rx="5.4" ry="5.4"/>
	
		<ellipse transform="matrix(0.9707 -0.2404 0.2404 0.9707 -241.5308 68.3227)" class="st7" cx="159.2" cy="1024" rx="6.6" ry="6.6"/>
	<ellipse transform="matrix(0.9911 -0.1328 0.1328 0.9911 -22.6892 -6.6744)" class="st5" cx="-61.4" cy="166.8" rx="8" ry="8"/>
	
		<ellipse transform="matrix(0.9911 -0.1328 0.1328 0.9911 -10.6483 -12.5962)" class="st7" cx="-99.8" cy="73.5" rx="3.7" ry="3.7"/>
	
		<ellipse transform="matrix(0.9911 -0.1328 0.1328 0.9911 -14.9377 -8.7462)" class="st5" cx="-73.1" cy="107.6" rx="3.7" ry="3.7"/>
	<ellipse transform="matrix(0.9911 -0.1328 0.1328 0.9911 -15.6664 7.8553)" class="st5" cx="51.1" cy="121.4" rx="3.7" ry="3.7"/>
	
		<ellipse transform="matrix(0.9911 -0.1328 0.1328 0.9911 -2.932019e-02 6.6025)" class="st5" cx="49.5" cy="3.5" rx="3.7" ry="3.7"/>
	<ellipse transform="matrix(0.9911 -0.1328 0.1328 0.9911 -7.7904 6.1056)" class="st5" cx="41.9" cy="61.5" rx="3.7" ry="3.7"/>
	<ellipse transform="matrix(0.9911 -0.1328 0.1328 0.9911 -38.6408 0.8229)" class="st5" cx="-13.2" cy="290.2" rx="8.4" ry="8.4"/>
	<ellipse transform="matrix(0.9911 -0.1328 0.1328 0.9911 -3.6273 -2.6617)" class="st5" cx="-21.8" cy="25.9" rx="8.4" ry="8.4"/>
	
		<ellipse transform="matrix(0.9911 -0.1328 0.1328 0.9911 -21.2633 -0.305)" class="st4" cx="-12.9" cy="159.3" rx="11.7" ry="11.7"/>
	
		<ellipse transform="matrix(0.9707 -0.2404 0.2404 0.9707 -245.9743 73.1154)" class="st5" cx="176.7" cy="1044.6" rx="10.9" ry="10.9"/>
	<ellipse transform="matrix(0.9911 -0.1328 0.1328 0.9911 0.9881 -0.9329)" class="st12" cx="-6.5" cy="-7.9" rx="3.5" ry="3.5"/>
	
		<ellipse transform="matrix(0.9707 -0.2404 0.2404 0.9707 -250.7974 69.2852)" class="st7" cx="158.6" cy="1062.5" rx="3.5" ry="3.5"/>
	<ellipse transform="matrix(0.9911 -0.1328 0.1328 0.9911 -6.8135 -1.2997)" class="st5" cx="-13.2" cy="50.4" rx="3.5" ry="3.5"/>
	
		<ellipse transform="matrix(0.9911 -0.1328 0.1328 0.9911 -18.9558 -8.5223)" class="st5" cx="-73.4" cy="137.9" rx="3.5" ry="3.5"/>
	<ellipse transform="matrix(0.9911 -0.1328 0.1328 0.9911 -30.8042 10.8962)" class="st5" cx="66.3" cy="236.4" rx="5.2" ry="5.2"/>
	<ellipse transform="matrix(0.9911 -0.1328 0.1328 0.9911 -12.9162 9.538)" class="st5" cx="65.1" cy="101.6" rx="5.2" ry="5.2"/>
	<ellipse transform="matrix(0.9911 -0.1328 0.1328 0.9911 -20.3736 4.0896)" class="st12" cx="20.5" cy="154.8" rx="6.1" ry="6.1"/>
	
		<ellipse transform="matrix(0.9911 -0.1328 0.1328 0.9911 -24.1373 -3.5483)" class="st4" cx="-38.7" cy="179.2" rx="6.3" ry="6.3"/>
	<ellipse transform="matrix(0.9911 -0.1328 0.1328 0.9911 -10.7438 7.4814)" class="st4" cx="50.7" cy="84.3" rx="6.3" ry="6.3"/>
	<path class="st5" d="M-8.7,36.7c0.9,11.8,10.3,20.2,21.5,19.1c9.2-0.9,15.4-8,14.4-16.6c-1-9.1-12.2-17.1-22.6-16.2
		C-4.3,23.7-9.3,28.8-8.7,36.7z"/>
	<path class="st5" d="M-80.7,44c0.7,5.4,5.9,9.3,11.5,8.6c4.5-0.5,9.3-8.7,8.7-14.8c-0.6-5.1-4.6-8.3-9.7-7.7
		C-76.6,31-81.5,37.5-80.7,44z"/>
	<path class="st5" d="M-30.1,42.5c-5.5,0.6-9.1,4.1-8.8,8c0.3,3.5,5.4,6.9,9.6,6.5c3.5-0.3,6.6-4.7,6-8.6
		C-23.8,44.1-26.8,42.7-30.1,42.5z"/>
	<path class="st11" d="M-88.4,52.7c3.5-5.8,1.1-16.3-5.3-20.1c-7.3-4.3-11.5,0.8-15.2,6.4c-5.1,8-4.4,14.8,1.8,19.1
		C-101.2,62.1-92.5,59.6-88.4,52.7z"/>
	
		<ellipse transform="matrix(0.3009 -0.9537 0.9537 0.3009 -819.8814 1071.7566)" class="st7" cx="321" cy="1095.1" rx="3.7" ry="3.7"/>
	
		<ellipse transform="matrix(0.3009 -0.9537 0.9537 0.3009 -621.3105 969.1713)" class="st7" cx="350.4" cy="908.3" rx="3.7" ry="3.7"/>
	
		<ellipse transform="matrix(0.7375 -0.6754 0.6754 0.7375 -227.9276 42.1359)" class="st12" cx="-59.8" cy="314.2" rx="3.5" ry="3.5"/>
	<path class="st6" d="M-39.4,165.4c6.4-1.1,10-5.3,10-11.8c0-5.4-10.4-13.2-16.3-11.4c-3.9,1.2-7.9,3.3-8.8,9.4
		C-55.5,157.7-46.1,166.5-39.4,165.4z"/>
	<path class="st5" d="M26,75.4c5.7-2.2,6.3-6.1,6.5-10.4c0.1-4-2.9-8.9-8.4-8.2c-12.8,1.7-11.6,10.7-9.8,14S20.3,77.5,26,75.4z"/>
	<ellipse transform="matrix(0.9911 -0.1328 0.1328 0.9911 -9.3871 -2.4643)" class="st7" cx="-23.2" cy="69.2" rx="7.7" ry="7.7"/>
	<ellipse transform="matrix(0.9911 -0.1328 0.1328 0.9911 -11.6519 4.0685)" class="st7" cx="24.7" cy="89.4" rx="3.5" ry="3.5"/>
	<ellipse transform="matrix(0.9911 -0.1328 0.1328 0.9911 -8.9226 0.6272)" class="st5" cx="0.2" cy="67.2" rx="3.5" ry="3.5"/>
	<ellipse transform="matrix(0.9911 -0.1328 0.1328 0.9911 -3.7658 -10.7454)" class="st5" cx="-82.5" cy="22.9" rx="3.5" ry="3.5"/>
	<ellipse transform="matrix(0.9911 -0.1328 0.1328 0.9911 -2.6508 -8.5609)" class="st7" cx="-65.5" cy="15.6" rx="3.5" ry="3.5"/>
	<ellipse transform="matrix(0.9911 -0.1328 0.1328 0.9911 -12.3966 -2.013)" class="st5" cx="-21.3" cy="91.9" rx="5.2" ry="5.2"/>
	<ellipse transform="matrix(0.9911 -0.1328 0.1328 0.9911 -38.1585 8.543)" class="st4" cx="45" cy="290.4" rx="6.3" ry="6.3"/>
	<path class="st11" d="M87.7,512.8c-0.3-6.8-8.1-14.2-15.6-13.8c-8.5,0.5-9.1,7.1-9.1,13.7c0.2,9.5,4.5,14.8,12.2,14.9
		C82.3,527.7,88.1,520.8,87.7,512.8z"/>
	<path class="st5" d="M343.6,1044.5c-6.5,0.6-10.3,5.5-9.7,12.4c0.6,6.7,5.3,10.5,12.1,9.9c5.7-0.6,8.9-5.6,8.2-12.6
		C353.4,1047.6,349.4,1044,343.6,1044.5z"/>
	
		<ellipse transform="matrix(0.9999 -1.402049e-02 1.402049e-02 0.9999 -4.4983 -1.1747)" class="st11" cx="-86" cy="320.2" rx="7.4" ry="7.4"/>
	<path class="st4" d="M-161.3-36.6c1.3,10.7,11.7,17.9,23.3,16.4c9.1-1.2,14.4-8.8,13.1-18.5c-1.4-10.4-10-16.6-21.1-15.2
		C-156-52.8-162.4-45.5-161.3-36.6z"/>
	<path class="st4" d="M-71.6-52.3c1.3,10.7,11.7,17.9,23.3,16.4c9.1-1.2,14.4-8.8,13.1-18.5c-1.4-10.4-10-16.6-21.1-15.2
		C-66.3-68.5-72.7-61.2-71.6-52.3z"/>
	<path class="st9" d="M-64.2-102.7c-1.8-5.2-6.8-7.2-12.9-5.1c-5.3,1.8-8.4,7.8-6.6,12.8c1.6,4.5,7.6,6.5,13.2,4.5
		C-65-92.6-62.4-97.6-64.2-102.7z"/>
	<path class="st5" d="M-119.7-120.1c-5.5,0.6-9.1,4.1-8.8,8c0.3,3.5,5.4,6.9,9.6,6.5c3.5-0.3,6.6-4.7,6-8.6
		C-113.5-118.5-116.5-119.9-119.7-120.1z"/>
	<path class="st12" d="M-47.8-114.3c-5.5,0.6-9.1,4.1-8.8,8c0.3,3.5,5.4,6.9,9.6,6.5c3.5-0.3,6.6-4.7,6-8.6
		C-41.5-112.6-44.5-114.1-47.8-114.3z"/>
	<path class="st5" d="M-50-92.1c-5.5,0.6-9.1,4.1-8.8,8c0.3,3.5,5.4,6.9,9.6,6.5c3.5-0.3,6.6-4.7,6-8.6
		C-43.7-90.5-46.7-91.9-50-92.1z"/>
	<path class="st5" d="M-150.2-39.6c4.1-0.3,6.9-4.2,6.3-9.4c-0.7-3.5-3.3-6-7.6-6c-3.6,0-6.1,4.8-5.6,9.7
		C-156.7-40.9-154.2-39.3-150.2-39.6z"/>
	<ellipse transform="matrix(0.9911 -0.1328 0.1328 0.9911 9.413 -10.3378)" class="st5" cx="-72.8" cy="-75.8" rx="5.4" ry="5.4"/>
	
		<ellipse transform="matrix(0.9911 -0.1328 0.1328 0.9911 -12.3883 15.6846)" class="st7" cx="111.4" cy="100.7" rx="3.7" ry="3.7"/>
	
		<ellipse transform="matrix(0.9911 -0.1328 0.1328 0.9911 15.1091 -9.9848)" class="st12" cx="-67.3" cy="-118.3" rx="3.5" ry="3.5"/>
	<path class="st10" d="M261.5,316.5c0.5,4.1,4.5,7.1,8.8,6.6c3.4-0.4,7.1-6.7,6.6-11.3c-0.4-3.9-3.5-6.4-7.5-5.9
		C264.7,306.5,260.9,311.5,261.5,316.5z"/>
	<ellipse transform="matrix(0.9911 -0.1328 0.1328 0.9911 -43.7996 40.7994)" class="st7" cx="284" cy="348.8" rx="5.4" ry="5.4"/>
	<ellipse transform="matrix(0.9911 -0.1328 0.1328 0.9911 -37.6994 42.6309)" class="st7" cx="300.8" cy="304" rx="4.9" ry="4.9"/>
	<ellipse transform="matrix(0.5508 -0.8347 0.8347 0.5508 -128.5638 311.1368)" class="st5" cx="224.8" cy="275" rx="6" ry="6"/>
	
		<ellipse transform="matrix(0.9911 -0.1328 0.1328 0.9911 -36.0946 38.5191)" class="st5" cx="270.8" cy="289.9" rx="7.3" ry="7.3"/>
	
		<ellipse transform="matrix(0.9911 -0.1328 0.1328 0.9911 -44.7895 34.9686)" class="st5" cx="239.8" cy="353.3" rx="3.4" ry="3.4"/>
	
		<ellipse transform="matrix(0.5508 -0.8347 0.8347 0.5508 -115.6854 280.2905)" class="st7" cx="202.5" cy="247.6" rx="3.4" ry="3.4"/>
	
		<ellipse transform="matrix(0.9911 -0.1328 0.1328 0.9911 -43.0665 44.6641)" class="st12" cx="313.4" cy="345.3" rx="4.5" ry="4.5"/>
	
		<ellipse transform="matrix(0.5508 -0.8347 0.8347 0.5508 -114.8706 329.8675)" class="st7" cx="249" cy="271.6" rx="3.2" ry="3.2"/>
	
		<ellipse transform="matrix(0.9911 -0.1328 0.1328 0.9911 -40.8457 42.3039)" class="st4" cx="296.8" cy="327.4" rx="5.7" ry="5.7"/>
</g>
</svg>
