<?xml version="1.0" encoding="utf-8"?>
<!-- Generator: Adobe Illustrator 21.0.2, SVG Export Plug-In . SVG Version: 6.00 Build 0)  -->
<svg version="1.1" id="Layer_1" xmlns="http://www.w3.org/2000/svg" xmlns:xlink="http://www.w3.org/1999/xlink" x="0px" y="0px"
	 viewBox="0 0 1533 483.4" style="enable-background:new 0 0 1533 483.4;" xml:space="preserve">
<style type="text/css">
	.st0{opacity:0.33;}
	.st1{opacity:0.76;fill:none;stroke:#EFEFEF;stroke-miterlimit:10;enable-background:new    ;}
	.st2{opacity:0.44;fill:#EFEFEF;enable-background:new    ;}
	.st3{opacity:0.35;fill:#EFEFEF;enable-background:new    ;}
	.st4{opacity:0.76;fill:#EFEFEF;enable-background:new    ;}
	.st5{fill:#EFEFEF;}
	.st6{opacity:0.35;fill:none;stroke:#EFEFEF;stroke-miterlimit:10;enable-background:new    ;}
	.st7{fill:none;stroke:#EFEFEF;stroke-miterlimit:10;}
	.st8{opacity:0.75;fill:none;stroke:#EFEFEF;stroke-miterlimit:10;enable-background:new    ;}
	.st9{opacity:0.75;fill:#EFEFEF;enable-background:new    ;}
	.st10{opacity:0.44;fill:none;stroke:#EFEFEF;stroke-miterlimit:10;enable-background:new    ;}
	.st11{fill:#FFFFFF;}
</style>
<g class="st0">
	<path class="st1" d="M-10.7,184.3c-6.9,1-9.8,4.9-9.2,11.3c0.8,9,13.9,14,20.3,10.9c3.3-1.6,5.6-4.5,5.6-8.2
		C6,190.4-2.8,183.1-10.7,184.3z"/>
	<path class="st2" d="M-97.6,352.9c0.9,7.4,8.1,12.4,16.1,11.3c6.3-0.9,10-6,9.1-12.8c-0.9-7.2-6.9-11.4-14.6-10.5
		C-93.9,341.7-98.4,346.7-97.6,352.9z"/>
	<path class="st2" d="M-21.5-6.9c0.9,7.4,8.1,12.4,16.1,11.3c6.3-0.9,10-6,9.1-12.8c-0.9-7.2-6.9-11.4-14.6-10.5
		C-17.8-18-22.3-13-21.5-6.9z"/>
	<path class="st2" d="M45.7,26.7c0.9,7.4,8.1,12.4,16.1,11.3c6.3-0.9,10-6,9.1-12.8C70,18,64,13.8,56.3,14.7
		C49.4,15.5,45,20.6,45.7,26.7z"/>
	<path class="st3" d="M4.9,284.3c-9,1.2-14,7.3-12.9,15.6c0.9,7.3,9.2,12.6,17.8,11.4c7.7-1.1,13.1-8.3,12-16.2
		C20.7,287.6,13.7,283.1,4.9,284.3z"/>
	<path class="st4" d="M20.8-1.4c-1.3-3.6-4.7-5-8.9-3.5C8.2-3.7,6.1,0.4,7.3,3.9C8.4,7,12.5,8.4,16.5,7C20.2,5.6,22,2.1,20.8-1.4z"
		/>
	<path class="st1" d="M17.7,239.1c-5.7-4.1-11.7-3.3-15.5,2c-3.3,4.6-1.5,12,3.9,15.9c4.9,3.5,11.8,2.2,15.3-2.8
		C24.8,249.4,23.3,243.1,17.7,239.1z"/>
	<path class="st2" d="M22.1,43c1-1.9,1.6-4.4,1.3-6.5c-0.6-4.9-5-8.1-11.5-8.1c-8.1,0.1-9.7,2.5-9.3,9.6c0.5,4.5,2.9,7.1,7.8,8.3
		C15.4,47.7,20,46.6,22.1,43z"/>
	<path class="st5" d="M0.3,156.5c8.1-0.8,11.7-4.9,10.9-12.6c-0.7-6.4-4.4-9.9-9.9-9.2c-6.1,0.8-11.5,7.1-10.9,12.7
		C-8.9,152.8-4.4,156.9,0.3,156.5z"/>
	<path class="st4" d="M-26.8,312.9c-7.2,1.1-13.3,7.9-12.3,13.8c1.2,6.9,9.5,12.6,16.8,11.6c7-1,13.2-8.2,12.3-14.6
		C-10.9,316.3-18.3,311.6-26.8,312.9z"/>
	<path class="st5" d="M-39.7,171.9c0.8,8.2,7.4,13.8,15.2,12.9c6.4-0.7,10.5-5.7,9.7-11.7c-0.8-6.2-8.7-11.6-15.9-10.9
		C-36.9,162.9-40.3,166.5-39.7,171.9z"/>
	<path class="st6" d="M-139.6,235.9c0.8,8.2,7.4,13.8,15.2,12.9c6.4-0.7,10.5-5.7,9.7-11.7c-0.8-6.2-8.7-11.6-15.9-10.9
		C-136.8,226.8-140.2,230.4-139.6,235.9z"/>
	<path class="st2" d="M-64.9,355c0.8,7.2,8.4,13.2,15.3,12.1c4.5-0.7,8.9-7,8.2-11.8c-0.9-6.7-8.7-11.8-16.3-10.7
		C-63.2,345.4-65.6,348.9-64.9,355z"/>
	<path class="st2" d="M273.4,30.4c0.5,4,4.8,7.4,8.8,6.8c2.6-0.4,5.1-3.9,4.7-6.7c-0.5-3.8-5-6.6-9.4-6C274.4,25,273,27,273.4,30.4z
		"/>
	<path class="st7" d="M22.3,82.9c-5,0.6-10.5,7.2-10,12c0.6,5.6,6.4,10.4,12,9.8c5.5-0.6,12-7.7,11.4-12.5
		C35,87.4,27.7,82.2,22.3,82.9z"/>
	<path class="st3" d="M-26.4,386.4c-5.9,0.7-8.4,4.3-7.4,10.8c1.1,7.4,4.7,9.6,13.6,8.4c8.5-1.2,10.6-3,9.8-8.7
		C-11.4,390.3-18.9,385.4-26.4,386.4z"/>
	<path class="st8" d="M53.2,58.7c0.7,5.5,6.1,9.6,11.8,8.9c4.6-0.5,9.6-9,8.9-15.2c-0.6-5.3-4.7-8.6-10-7.9
		C57.4,45.4,52.4,52.1,53.2,58.7z"/>
	<path class="st2" d="M-19.7,91.7c0.7,5.1,5.6,8.9,10.9,8.2c4.3-0.5,8.9-8.3,8.2-14C-1.1,81-4.9,78-9.8,78.6
		C-15.8,79.4-20.5,85.6-19.7,91.7z"/>
	<path class="st2" d="M97.1,63.8c0.7,5.1,5.6,8.9,10.9,8.2c4.3-0.5,8.9-8.3,8.2-14c-0.5-4.9-4.4-7.9-9.3-7.3
		C101,51.4,96.4,57.6,97.1,63.8z"/>
	<path class="st5" d="M-51.7,244.8c0.5,3.7,4.1,6.4,7.9,6c3.1-0.4,6.4-6,6-10.2c-0.4-3.6-3.2-5.8-6.7-5.3
		C-48.9,235.8-52.3,240.3-51.7,244.8z"/>
	<path class="st4" d="M-114.7,374.5c-4.6,0.7-7.7,5.3-7.1,10.7c0.6,5.6,5.9,9.4,11.8,8.4c4.9-0.8,8-5,7.3-9.9
		C-103.5,377.6-108.7,373.6-114.7,374.5z"/>
	<path class="st9" d="M-99.4,440.3c-5.2,0.4-10.5,6.6-9.1,11.5c1.3,4.4,4.6,7.4,9.8,6.9c6-0.7,10.9-5.7,10.4-10.6
		C-88.7,443.3-93.8,439.8-99.4,440.3z"/>
	<path class="st1" d="M-90.8,304.6c-0.5-5.1-5.7-8.8-11.6-8.1c-5.1,0.6-9.5,5.4-9,9.6c0.5,4.1,6.7,7.5,12.7,6.9
		C-93.2,312.4-90.4,309.4-90.8,304.6z"/>
	<path class="st5" d="M-30.4,220.7c-3.8,0.4-6.3,2.8-6.1,5.5c0.2,2.4,3.7,4.8,6.7,4.5c2.4-0.2,4.6-3.2,4.2-6
		C-26,221.8-28.1,220.9-30.4,220.7z"/>
	<path class="st5" d="M-44,287.6c-3.8,0.4-6.3,2.8-6.1,5.5c0.2,2.4,3.7,4.8,6.7,4.5c2.4-0.2,4.6-3.2,4.2-6
		C-39.6,288.7-41.7,287.7-44,287.6z"/>
	<path class="st5" d="M12.5-20.1c-3.8,0.4-6.3,2.8-6.1,5.5c0.2,2.4,3.7,4.8,6.7,4.5c2.4-0.2,4.6-3.2,4.2-6
		C16.8-19,14.7-20,12.5-20.1z"/>
	<path class="st5" d="M83.9,46.6c-3.8,0.4-6.3,2.8-6.1,5.5c0.2,2.4,3.7,4.8,6.7,4.5c2.4-0.2,4.6-3.2,4.2-6
		C88.3,47.7,86.2,46.7,83.9,46.6z"/>
	<path class="st10" d="M14.5,13c-3.8,0.4-6.3,2.8-6.1,5.5c0.2,2.4,3.7,4.8,6.7,4.5c2.4-0.2,4.6-3.2,4.2-6
		C18.8,14.1,16.7,13.2,14.5,13z"/>
	<path class="st2" d="M-14.6,116.6c-5,0.5-8.2,3.7-7.9,7.2c0.3,3.1,4.9,6.2,8.7,5.9c3.2-0.3,6-4.2,5.4-7.8
		C-9,118.1-11.7,116.8-14.6,116.6z"/>
	<path class="st5" d="M172.9,56.1c-3.8,0.4-6.3,2.8-6.1,5.5c0.2,2.4,3.7,4.8,6.7,4.5c2.4-0.2,4.6-3.2,4.2-6
		C177.2,57.2,175.1,56.2,172.9,56.1z"/>
	<path class="st5" d="M-69,332.3c-3.8,0.4-6.3,2.8-6.1,5.5c0.2,2.4,3.7,4.8,6.7,4.5c2.4-0.2,4.6-3.2,4.2-6
		C-64.7,333.4-66.8,332.4-69,332.3z"/>
	<path class="st5" d="M-102.4,231.7c-3.8,0.4-6.3,2.8-6.1,5.5c0.2,2.4,3.7,4.8,6.7,4.5c2.4-0.2,4.6-3.2,4.2-6
		C-98.1,232.8-100.2,231.9-102.4,231.7z"/>
	<path class="st5" d="M29.6,3.8c-3.8,0.4-6.3,2.8-6.1,5.5c0.2,2.4,3.7,4.8,6.7,4.5c2.4-0.2,4.6-3.2,4.2-6
		C33.9,4.9,31.8,3.9,29.6,3.8z"/>
	<path class="st2" d="M-15.4,151.6c-3.8,0.4-6.3,2.8-6.1,5.5c0.2,2.4,3.7,4.8,6.7,4.5c2.4-0.2,4.6-3.2,4.2-6
		C-11.1,152.7-13.1,151.7-15.4,151.6z"/>
	<path class="st5" d="M-20.8,298.5c-3.8,0.4-6.3,2.8-6.1,5.5c0.2,2.4,3.7,4.8,6.7,4.5c2.4-0.2,4.6-3.2,4.2-6
		C-16.5,299.6-18.6,298.6-20.8,298.5z"/>
	<path class="st3" d="M-57.3,315.4c-4.6,0.8-9.1,6.7-8.2,11.8c1,5.8,5.6,5.7,10.2,5.1c6.5-0.9,9.8-4.3,9.2-9.6
		C-46.6,317.9-51.8,314.5-57.3,315.4z"/>
	<path class="st3" d="M-57,250.7c2.4-4,0.8-11.3-3.6-13.9c-5.1-3-8,0.6-10.5,4.4c-3.5,5.5-3.1,10.2,1.3,13.2
		C-65.9,257.3-59.9,255.5-57,250.7z"/>
	<path class="st3" d="M-29.5,285.9c-3,0.5-6,4.5-5.4,7.8c0.7,3.8,3.7,3.8,6.7,3.4c4.3-0.6,6.5-2.9,6.1-6.3
		C-22.4,287.5-25.9,285.2-29.5,285.9z"/>
	<path class="st9" d="M-75,315.6c5.4-0.7,8.4-4.6,7.7-10.1c-0.9-6.2-4.1-9.1-9.4-8.5c-5.5,0.6-9.4,4.9-8.7,9.6
		C-84.6,311.8-79.7,316.1-75,315.6z"/>
	<path class="st5" d="M-126.3,302.1c-5.5,0.6-8.6,4.7-8.1,10.5c0.6,5.6,4.6,8.8,10.3,8.2c4.8-0.5,7.5-4.8,6.8-10.7
		C-118,304.6-121.4,301.6-126.3,302.1z"/>
	<path class="st5" d="M-62,283.9c-4.5,0.5-7.1,3.9-6.6,8.6c0.5,4.6,3.8,7.3,8.4,6.7c3.9-0.4,6.1-3.9,5.6-8.8
		C-55.2,286-58,283.5-62,283.9z"/>
	<path class="st5" d="M-114.6,254.2c-5.5,0.6-8.6,4.7-8.1,10.5c0.6,5.6,4.6,8.8,10.3,8.2c4.8-0.5,7.5-4.8,6.8-10.7
		C-106.2,256.8-109.6,253.7-114.6,254.2z"/>
	<path class="st7" d="M-80.8,375.9c-0.5-4.8-4.4-7.6-9.9-6.9c-5.9,0.7-8.8,4.7-7.8,11.1c0.8,5.2,4.4,6.5,8.7,6.2
		C-84.1,385.5-80.3,381-80.8,375.9z"/>
	<path class="st5" d="M-6.8,337c0.7,4.9,5.2,8,10.6,7.2c5.3-0.8,8-4.2,7.2-9c-0.8-5-5.7-8.6-10.6-7.5C-4.2,328.9-7.5,331.5-6.8,337z
		"/>
	<path class="st5" d="M-111.3,284.4c1.1,5.5,5.8,4.8,9,5c7.1-0.8,10.8-4.6,9.9-9.6c-1-6-5.8-5.8-10.1-5.6
		C-108.1,274.7-112.3,279.6-111.3,284.4z"/>
	<path class="st7" d="M-5.4,281.4c4.7-0.3,7.9-4.7,7.1-10.7c-0.8-4-3.7-6.8-8.7-6.8c-4.1,0-7,5.5-6.4,11.1
		C-12.8,279.9-10,281.7-5.4,281.4z"/>
	<path class="st5" d="M100.9,45.6c4.7-0.3,7.9-4.7,7.1-10.7c-0.8-4-3.7-6.8-8.7-6.8c-4.1,0-7,5.5-6.4,11.1
		C93.5,44.1,96.4,45.9,100.9,45.6z"/>
	<path class="st5" d="M-1.5,19.4c2.9-0.2,4.8-2.9,4.3-6.5c-0.5-2.4-2.3-4.1-5.3-4.1c-2.5,0-4.2,3.3-3.9,6.7
		C-6,18.5-4.3,19.6-1.5,19.4z"/>
	<path class="st6" d="M-25.2,377.1c4.4-0.7,6.9-3.6,6.9-8.1c0-3.7-7.2-9.1-11.3-7.9c-2.7,0.8-5.5,2.3-6.1,6.5
		C-36.4,371.8-29.9,377.8-25.2,377.1z"/>
	<path class="st6" d="M-25.1,236.3c4.4-0.7,6.9-3.6,6.9-8.1c0-3.7-7.2-9.1-11.3-7.9c-2.7,0.8-5.5,2.3-6.1,6.5
		C-36.2,231-29.8,237-25.1,236.3z"/>
	<path class="st10" d="M226.7,63.6c2.4-0.4,3.7-1.8,3.7-4c0-1.8-3.7-4.5-5.9-3.8c-1.4,0.4-3,2.2-3.1,3.9
		C221.3,61.3,224.2,64,226.7,63.6z"/>
	<path class="st2" d="M149,104.5c4.5-0.3,6.9-3.6,6.9-8.1c0-3.7-7.2-9.1-11.3-7.9C141.9,89.3,134.1,105.5,149,104.5z"/>
	<path class="st3" d="M-25.2,258.6c-4.4,0.7-5.6,4.1-4.5,7.3c0.8,2.2,2.9,5.4,6.1,5.3s7-3.9,6.9-7.8
		C-16.8,259.9-20.7,257.9-25.2,258.6z"/>
	<path class="st5" d="M-99.4,338.1c-0.4-4.9-3.1-8-8.3-8.2c-4.4,0.3-8.2,4.8-7.7,9.7c0.5,5,4.4,5.4,8.2,5.1
		C-103.2,344.4-99,343.6-99.4,338.1z"/>
	<path class="st5" d="M-25.8,253.6c4-1.5,4.4-4.2,4.5-7.2c0.1-2.7-2-6.2-5.8-5.7c-8.8,1.2-8,7.4-6.7,9.7
		C-32.6,252.7-29.7,255.1-25.8,253.6z"/>
	<ellipse transform="matrix(0.9911 -0.1328 0.1328 0.9911 -15.6685 9.0754)" class="st7" cx="60.2" cy="122" rx="4.6" ry="4.6"/>
	<ellipse transform="matrix(0.9911 -0.1328 0.1328 0.9911 -5.4505 4.8719)" class="st5" cx="33.8" cy="43.3" rx="4.6" ry="4.6"/>
	<ellipse transform="matrix(0.9911 -0.1328 0.1328 0.9911 -7.9291 12.1202)" class="st5" cx="86.9" cy="65.5" rx="3.7" ry="3.7"/>
	<ellipse transform="matrix(0.9911 -0.1328 0.1328 0.9911 -14.216 5.0441)" class="st5" cx="30.7" cy="109.1" rx="3.7" ry="3.7"/>
	<ellipse transform="matrix(0.9911 -0.1328 0.1328 0.9911 -0.9967 6.0555)" class="st5" cx="44.9" cy="10.5" rx="3.7" ry="3.7"/>
	<path class="st5" d="M-140.8,489.5"/>
	
		<ellipse transform="matrix(0.9911 -0.1328 0.1328 0.9911 -54.9847 -3.0144)" class="st5" cx="-50.1" cy="410.7" rx="4.6" ry="4.6"/>
	<ellipse transform="matrix(0.9911 -0.1328 0.1328 0.9911 -7.4053 4.9759)" class="st7" cx="33.6" cy="58" rx="4.6" ry="4.6"/>
	
		<ellipse transform="matrix(0.9911 -0.1328 0.1328 0.9911 -44.8701 -9.3713)" class="st2" cx="-92.7" cy="331.7" rx="5.5" ry="5.5"/>
	
		<ellipse transform="matrix(0.9911 -0.1328 0.1328 0.9911 -41.2713 -3.6088)" class="st10" cx="-47.7" cy="307.6" rx="5.5" ry="5.5"/>
	
		<ellipse transform="matrix(0.9911 -0.1328 0.1328 0.9911 -49.5239 -11.9293)" class="st7" cx="-114.2" cy="365.3" rx="5.3" ry="5.3"/>
	
		<ellipse transform="matrix(0.9911 -0.1328 0.1328 0.9911 -34.0926 -10.7566)" class="st7" cx="-97.7" cy="250.2" rx="5.3" ry="5.3"/>
	
		<ellipse transform="matrix(0.9911 -0.1328 0.1328 0.9911 -37.5553 -4.0828)" class="st3" cx="-49.4" cy="279.5" rx="5.1" ry="5.1"/>
	<ellipse transform="matrix(0.9911 -0.1328 0.1328 0.9911 -56.2585 -6.503)" class="st5" cx="-76.9" cy="418.5" rx="5.1" ry="5.1"/>
	
		<ellipse transform="matrix(0.9911 -0.1328 0.1328 0.9911 -47.5004 -13.585)" class="st5" cx="-125.6" cy="349.3" rx="7.5" ry="7.5"/>
	
		<ellipse transform="matrix(0.9911 -0.1328 0.1328 0.9911 -38.7203 -13.9564)" class="st5" cx="-124" cy="283.3" rx="5.6" ry="5.6"/>
	<ellipse transform="matrix(0.9911 -0.1328 0.1328 0.9911 -11.4817 8.2354)" class="st5" cx="56" cy="90.2" rx="5.6" ry="5.6"/>
	<ellipse transform="matrix(0.9911 -0.1328 0.1328 0.9911 -22.7451 1.7586)" class="st5" cx="1.8" cy="171.4" rx="5.6" ry="5.6"/>
	
		<ellipse transform="matrix(0.9911 -0.1328 0.1328 0.9911 -36.3368 -2.6305)" class="st5" cx="-37.9" cy="271.1" rx="3.6" ry="3.6"/>
	<ellipse transform="matrix(0.9911 -0.1328 0.1328 0.9911 -8.9036 20.2952)" class="st7" cx="147.7" cy="76.9" rx="5.6" ry="5.6"/>
	
		<ellipse transform="matrix(0.9911 -0.1328 0.1328 0.9911 -40.5535 -12.8344)" class="st5" cx="-116.5" cy="297.6" rx="3.1" ry="3.1"/>
	<ellipse transform="matrix(0.9911 -0.1328 0.1328 0.9911 -50.1357 -5.512)" class="st5" cx="-66.4" cy="373.1" rx="5.1" ry="5.1"/>
	<ellipse transform="matrix(0.9911 -0.1328 0.1328 0.9911 -46.4843 2.0208)" class="st5" cx="-8.1" cy="349.5" rx="2.6" ry="2.6"/>
	
		<ellipse transform="matrix(0.9911 -0.1328 0.1328 0.9911 -28.4034 -0.4659)" class="st7" cx="-17.7" cy="212.7" rx="2.6" ry="2.6"/>
	
		<ellipse transform="matrix(0.9911 -0.1328 0.1328 0.9911 -44.6687 -7.5306)" class="st7" cx="-78.8" cy="331.1" rx="2.6" ry="2.6"/>
	
		<ellipse transform="matrix(0.9911 -0.1328 0.1328 0.9911 -43.2791 -11.5056)" class="st7" cx="-107.9" cy="318.7" rx="2.6" ry="2.6"/>
	<ellipse transform="matrix(0.9911 -0.1328 0.1328 0.9911 -3.1663 4.1333)" class="st7" cx="29.4" cy="25.8" rx="2.6" ry="2.6"/>
	<ellipse transform="matrix(0.9911 -0.1328 0.1328 0.9911 -19.0388 -1.2645)" class="st7" cx="-19" cy="142.1" rx="2.6" ry="2.6"/>
	<ellipse transform="matrix(0.9911 -0.1328 0.1328 0.9911 -11.9959 17.9272)" class="st7" cx="128.4" cy="98.9" rx="2.6" ry="2.6"/>
	<ellipse transform="matrix(0.9911 -0.1328 0.1328 0.9911 -7.5392 45.7349)" class="st5" cx="339.1" cy="79.4" rx="2.6" ry="2.6"/>
	<ellipse transform="matrix(0.9911 -0.1328 0.1328 0.9911 -6.1227 6.7972)" class="st5" cx="47.9" cy="49.3" rx="2.6" ry="2.6"/>
	
		<ellipse transform="matrix(0.9911 -0.1328 0.1328 0.9911 -31.0945 -2.005557e-02)" class="st5" cx="-15.7" cy="233.1" rx="2.6" ry="2.6"/>
	<ellipse transform="matrix(0.9911 -0.1328 0.1328 0.9911 -13.4466 13.582)" class="st7" cx="95.1" cy="107.6" rx="2.6" ry="2.6"/>
	<ellipse transform="matrix(0.9911 -0.1328 0.1328 0.9911 -4.4254 30.8291)" class="st5" cx="228.9" cy="48.6" rx="2.6" ry="2.6"/>
	<ellipse transform="matrix(0.9911 -0.1328 0.1328 0.9911 -3.3956 23.0897)" class="st5" cx="171.4" cy="37" rx="2.6" ry="2.6"/>
	<ellipse transform="matrix(0.9911 -0.1328 0.1328 0.9911 -8.3711 60.8643)" class="st7" cx="452.1" cy="93.2" rx="2.6" ry="2.6"/>
	<ellipse transform="matrix(0.9911 -0.1328 0.1328 0.9911 -15.8775 6.3424)" class="st5" cx="39.6" cy="122.2" rx="2.6" ry="2.6"/>
	<ellipse transform="matrix(0.9911 -0.1328 0.1328 0.9911 -1.296035e-04 8.8035)" class="st5" cx="66" cy="4.4" rx="2.6" ry="2.6"/>
	<ellipse transform="matrix(0.9911 -0.1328 0.1328 0.9911 -17.3054 0.5278)" class="st5" cx="-4.7" cy="130" rx="2.6" ry="2.6"/>
	<ellipse transform="matrix(0.9911 -0.1328 0.1328 0.9911 -9.7917 22.5837)" class="st5" cx="164.4" cy="84.7" rx="2.6" ry="2.6"/>
	<ellipse transform="matrix(0.9911 -0.1328 0.1328 0.9911 -11.6335 24.5591)" class="st5" cx="178.3" cy="99.5" rx="2.6" ry="2.6"/>
	<ellipse transform="matrix(0.9911 -0.1328 0.1328 0.9911 -4.8927 16.4395)" class="st5" cx="120.8" cy="44.9" rx="2.6" ry="2.6"/>
	<ellipse transform="matrix(0.9911 -0.1328 0.1328 0.9911 -46.5473 -0.709)" class="st5" cx="-28.6" cy="348.6" rx="7.2" ry="7.2"/>
	<ellipse transform="matrix(0.9911 -0.1328 0.1328 0.9911 -55.0687 -9.665)" class="st5" cx="-100" cy="408" rx="6.1" ry="6.1"/>
	
		<ellipse transform="matrix(0.9911 -0.1328 0.1328 0.9911 -8.7296 -8.450223e-02)" class="st5" cx="-5" cy="65.4" rx="5.8" ry="5.8"/>
	<ellipse transform="matrix(0.9911 -0.1328 0.1328 0.9911 -10.4944 12.6379)" class="st2" cx="89.5" cy="85" rx="8.1" ry="8.1"/>
	<ellipse transform="matrix(0.9911 -0.1328 0.1328 0.9911 -14.9283 0.9823)" class="st2" cx="-0.1" cy="112.4" rx="8.1" ry="8.1"/>
	<path class="st5" d="M-74.6,285.9c-0.4-3.2-2.9-4.3-6.5-5c-3.1-0.6-5.4,3.3-5,6.5s3.3,5.4,6.5,5C-76.4,291.9-74.2,289-74.6,285.9z"
		/>
	<path class="st7" d="M-72.7,264.2c0.7-4.7-5-8-9.7-7.4s-8,5-7.4,9.7s5.1,8.6,9.7,7.4C-75.5,272.8-73.4,268.9-72.7,264.2z"/>
	<ellipse transform="matrix(0.9911 -0.1328 0.1328 0.9911 -8.9216 3.0226)" class="st5" cx="18.2" cy="68.4" rx="7.5" ry="7.5"/>
	
		<ellipse transform="matrix(0.9911 -0.1328 0.1328 0.9911 -35.6798 -5.3688)" class="st5" cx="-58.1" cy="264.8" rx="7.5" ry="7.5"/>
	<ellipse transform="matrix(0.9911 -0.1328 0.1328 0.9911 -13.8971 6.836)" class="st5" cx="44.3" cy="107.6" rx="7.5" ry="7.5"/>
	<ellipse transform="matrix(0.9911 -0.1328 0.1328 0.9911 -16.551 12.8291)" class="st5" cx="87.9" cy="130.5" rx="7.5" ry="7.5"/>
	<ellipse transform="matrix(0.9911 -0.1328 0.1328 0.9911 -53.2814 -6.6763)" class="st5" cx="-76.7" cy="396.1" rx="8" ry="8"/>
	<ellipse transform="matrix(0.9911 -0.1328 0.1328 0.9911 -59.9777 -6.2828)" class="st5" cx="-77.1" cy="446.5" rx="4" ry="4"/>
	<ellipse transform="matrix(0.9911 -0.1328 0.1328 0.9911 -43.141 -9.046)" class="st5" cx="-89.4" cy="318.9" rx="4" ry="4"/>
	<ellipse transform="matrix(0.9911 -0.1328 0.1328 0.9911 -57.8842 -9.0897)" class="st5" cx="-97.1" cy="429.4" rx="4" ry="4"/>
	
		<ellipse transform="matrix(0.9911 -0.1328 0.1328 0.9911 -45.4461 -2.8098)" class="st7" cx="-43.8" cy="339.3" rx="2.4" ry="2.4"/>
	
		<ellipse transform="matrix(0.9911 -0.1328 0.1328 0.9911 -32.4233 -8.5487)" class="st7" cx="-80.3" cy="238.8" rx="2.4" ry="2.4"/>
	
		<ellipse transform="matrix(0.9911 -0.1328 0.1328 0.9911 -37.5974 -2.3203)" class="st7" cx="-36.2" cy="280.7" rx="2.4" ry="2.4"/>
	<ellipse transform="matrix(0.9911 -0.1328 0.1328 0.9911 -37.7587 0.2513)" class="st5" cx="-17" cy="283.2" rx="2.4" ry="2.4"/>
	<ellipse transform="matrix(0.9911 -0.1328 0.1328 0.9911 -31.4569 0.3386)" class="st5" cx="-13.2" cy="236" rx="2.4" ry="2.4"/>
	<ellipse transform="matrix(0.9911 -0.1328 0.1328 0.9911 -33.763 -8.6188)" class="st5" cx="-81.5" cy="248.8" rx="2.4" ry="2.4"/>
	<ellipse transform="matrix(0.9911 -0.1328 0.1328 0.9911 -4.0946 -0.7936)" class="st10" cx="-8" cy="30.3" rx="2.4" ry="2.4"/>
	<ellipse transform="matrix(0.9911 -0.1328 0.1328 0.9911 0.706 3.5938)" class="st10" cx="27.3" cy="-3.5" rx="2.4" ry="2.4"/>
	
		<ellipse transform="matrix(0.9911 -0.1328 0.1328 0.9911 -37.4702 -6.7967)" class="st10" cx="-69.7" cy="277.5" rx="2.4" ry="2.4"/>
	
		<ellipse transform="matrix(0.9911 -0.1328 0.1328 0.9911 -49.3895 -10.1106)" class="st5" cx="-100.5" cy="365.2" rx="2.4" ry="2.4"/>
	
		<ellipse transform="matrix(0.9911 -0.1328 0.1328 0.9911 -41.5436 -5.2846)" class="st5" cx="-60.4" cy="308.8" rx="2.4" ry="2.4"/>
	
		<ellipse transform="matrix(0.9911 -0.1328 0.1328 0.9911 -34.9355 -14.396)" class="st5" cx="-125.4" cy="254.7" rx="2.4" ry="2.4"/>
	<ellipse transform="matrix(0.9911 -0.1328 0.1328 0.9911 -50.6805 2.5142)" class="st5" cx="-6.5" cy="381.2" rx="2.4" ry="2.4"/>
	<ellipse transform="matrix(0.9911 -0.1328 0.1328 0.9911 -7.1857 1.4527)" class="st7" cx="7.3" cy="54.6" rx="2.4" ry="2.4"/>
	<ellipse transform="matrix(0.9911 -0.1328 0.1328 0.9911 -41.701 2.5426)" class="st5" cx="-1.8" cy="313.9" rx="2.4" ry="2.4"/>
	<ellipse transform="matrix(0.9911 -0.1328 0.1328 0.9911 -13.8155 16.2615)" class="st9" cx="115" cy="111.7" rx="2.4" ry="2.4"/>
	<ellipse transform="matrix(0.9911 -0.1328 0.1328 0.9911 -6.6903 -0.5009)" class="st5" cx="-7.1" cy="49.9" rx="2.4" ry="2.4"/>
	<ellipse transform="matrix(0.9911 -0.1328 0.1328 0.9911 -22.4923 0.1663)" class="st5" cx="-10" cy="168.7" rx="2.4" ry="2.4"/>
	
		<ellipse transform="matrix(0.9911 -0.1328 0.1328 0.9911 -36.9047 -0.9263)" class="st5" cx="-25.4" cy="276.2" rx="2.4" ry="2.4"/>
	
		<ellipse transform="matrix(0.9911 -0.1328 0.1328 0.9911 -31.0251 -4.9868)" class="st5" cx="-52.9" cy="230.1" rx="2.4" ry="2.4"/>
	<ellipse transform="matrix(0.9911 -0.1328 0.1328 0.9911 -51.5391 -3.3643)" class="st5" cx="-51" cy="384.7" rx="2.4" ry="2.4"/>
	<ellipse transform="matrix(0.9911 -0.1328 0.1328 0.9911 -30.2575 -3.477)" class="st7" cx="-41.2" cy="225.1" rx="2.4" ry="2.4"/>
	
		<ellipse transform="matrix(0.9911 -0.1328 0.1328 0.9911 -40.9179 -2.1116)" class="st5" cx="-36.3" cy="305.7" rx="2.4" ry="2.4"/>
	
		<ellipse transform="matrix(0.9911 -0.1328 0.1328 0.9911 -43.5104 -6.9818)" class="st5" cx="-74.1" cy="322.7" rx="2.4" ry="2.4"/>
	
		<ellipse transform="matrix(0.9911 -0.1328 0.1328 0.9911 -40.8627 -15.0679)" class="st9" cx="-133.4" cy="298.8" rx="2.4" ry="2.4"/>
	
		<ellipse transform="matrix(0.9911 -0.1328 0.1328 0.9911 -47.6466 -11.5877)" class="st5" cx="-110.7" cy="351.4" rx="2.4" ry="2.4"/>
	
		<ellipse transform="matrix(0.9911 -0.1328 0.1328 0.9911 -43.8551 -10.3329)" class="st5" cx="-99.4" cy="323.6" rx="2.4" ry="2.4"/>
	<ellipse transform="matrix(0.9911 -0.1328 0.1328 0.9911 -8.8995 6.9558)" class="st5" cx="47.7" cy="70.2" rx="2.4" ry="2.4"/>
	
		<ellipse transform="matrix(0.9911 -0.1328 0.1328 0.9911 -34.7505 -3.2309)" class="st7" cx="-41.6" cy="258.9" rx="3.6" ry="3.6"/>
	<ellipse transform="matrix(0.9911 -0.1328 0.1328 0.9911 -10.7842 1.6942)" class="st5" cx="7.3" cy="81.7" rx="3.6" ry="3.6"/>
	
		<ellipse transform="matrix(0.9911 -0.1328 0.1328 0.9911 -17.4869 -2.7815)" class="st5" cx="-29.6" cy="129.7" rx="3.6" ry="3.6"/>
	<ellipse transform="matrix(0.9911 -0.1328 0.1328 0.9911 -6.3555 33.6923)" class="st7" cx="249.4" cy="64.5" rx="3.6" ry="3.6"/>
	<ellipse transform="matrix(0.9911 -0.1328 0.1328 0.9911 -6.8912 37.6631)" class="st5" cx="278.9" cy="70.5" rx="3.6" ry="3.6"/>
	<ellipse transform="matrix(0.9911 -0.1328 0.1328 0.9911 -10.2987 17.7887)" class="st5" cx="128.2" cy="86.1" rx="3.6" ry="3.6"/>
	<ellipse transform="matrix(0.9911 -0.1328 0.1328 0.9911 -70.2593 -7.4245)" class="st5" cx="-90.8" cy="523" rx="5.5" ry="5.5"/>
	<ellipse transform="matrix(0.9911 -0.1328 0.1328 0.9911 -9.8803 15.6649)" class="st10" cx="112.5" cy="81.9" rx="4.2" ry="4.2"/>
	<ellipse transform="matrix(0.9911 -0.1328 0.1328 0.9911 -3.1181 33.6351)" class="st2" cx="250.6" cy="40.2" rx="4.2" ry="4.2"/>
	<ellipse transform="matrix(0.9911 -0.1328 0.1328 0.9911 -6.051 20.8523)" class="st2" cx="153.3" cy="55.8" rx="4.2" ry="4.2"/>
	<ellipse transform="matrix(0.9911 -0.1328 0.1328 0.9911 -9.1264 43.935)" class="st10" cx="324.8" cy="90.4" rx="4.2" ry="4.2"/>
	<ellipse transform="matrix(0.9911 -0.1328 0.1328 0.9911 -12.4846 10.3968)" class="st2" cx="71.7" cy="98.8" rx="4.4" ry="4.4"/>
	<ellipse transform="matrix(0.9911 -0.1328 0.1328 0.9911 -4.1244 29.3405)" class="st2" cx="217.9" cy="45.6" rx="4.4" ry="4.4"/>
	<ellipse transform="matrix(0.9911 -0.1328 0.1328 0.9911 -7.5184 18.4698)" class="st2" cx="134.7" cy="65.6" rx="4.4" ry="4.4"/>
	<ellipse transform="matrix(0.9911 -0.1328 0.1328 0.9911 -8.7389 23.1523)" class="st2" cx="169.2" cy="77.1" rx="4.4" ry="4.4"/>
	<path class="st5" d="M200.2,45c-5,0.6-10.5,7.2-10,12c0.6,5.6,6.4,10.4,12,9.8c5.5-0.6,12-7.7,11.4-12.5
		C213,49.5,205.6,44.3,200.2,45z"/>
	<path class="st9" d="M359.1,86.4c0.4,3.1,3.4,5.4,6.7,5c2.6-0.3,5.4-5.1,5.1-8.6c-0.3-3-2.7-4.9-5.7-4.5
		C361.5,78.7,358.6,82.6,359.1,86.4z"/>
	<path class="st2" d="M258.9,75.7c0.5,3.7,4,6.3,7.8,5.9c3-0.4,6.3-5.9,5.9-10c-0.4-3.5-3.1-5.6-6.6-5.2
		C261.7,66.8,258.3,71.3,258.9,75.7z"/>
	
		<ellipse transform="matrix(0.9911 -0.1328 0.1328 0.9911 -11.3942 50.9413)" class="st7" cx="376.2" cy="110.9" rx="4.1" ry="4.1"/>
	<ellipse transform="matrix(0.9911 -0.1328 0.1328 0.9911 -6.7518 52.3388)" class="st7" cx="389" cy="76.8" rx="3.7" ry="3.7"/>
	<ellipse transform="matrix(0.9911 -0.1328 0.1328 0.9911 -4.7103 45.7601)" class="st5" cx="340.7" cy="58.2" rx="4.6" ry="4.6"/>
	<ellipse transform="matrix(0.9911 -0.1328 0.1328 0.9911 -8.1111 53.3507)" class="st5" cx="395.9" cy="87.5" rx="5.6" ry="5.6"/>
	
		<ellipse transform="matrix(0.9911 -0.1328 0.1328 0.9911 -11.5948 61.5205)" class="st5" cx="455.4" cy="117.7" rx="2.6" ry="2.6"/>
	<ellipse transform="matrix(0.9911 -0.1328 0.1328 0.9911 -10.9562 58.4887)" class="st7" cx="433" cy="111.4" rx="2.6" ry="2.6"/>
	
		<ellipse transform="matrix(0.9911 -0.1328 0.1328 0.9911 -13.1825 47.1266)" class="st5" cx="346.7" cy="122.4" rx="2.6" ry="2.6"/>
	<ellipse transform="matrix(0.9911 -0.1328 0.1328 0.9911 -9.6295 57.1864)" class="st5" cx="423.9" cy="100.8" rx="2.6" ry="2.6"/>
	<ellipse transform="matrix(0.9911 -0.1328 0.1328 0.9911 -1.1638 46.1375)" class="st7" cx="345.3" cy="31.8" rx="2.6" ry="2.6"/>
	<ellipse transform="matrix(0.9911 -0.1328 0.1328 0.9911 -6.0346 40.6996)" class="st7" cx="302.1" cy="65.6" rx="5.8" ry="5.8"/>
	<ellipse transform="matrix(0.9911 -0.1328 0.1328 0.9911 -9.6292 54.7857)" class="st10" cx="405.9" cy="99.6" rx="3.4" ry="3.4"/>
	<ellipse transform="matrix(0.9911 -0.1328 0.1328 0.9911 -8.3139 25.5255)" class="st7" cx="187.2" cy="75.1" rx="7.5" ry="7.5"/>
	<ellipse transform="matrix(0.9911 -0.1328 0.1328 0.9911 -2.8702 31.5382)" class="st5" cx="235" cy="37.3" rx="7.5" ry="7.5"/>
	<ellipse transform="matrix(0.9911 -0.1328 0.1328 0.9911 -4.4907 42.2368)" class="st5" cx="314.4" cy="54.8" rx="2.4" ry="2.4"/>
	<ellipse transform="matrix(0.9911 -0.1328 0.1328 0.9911 -4.7493 35.9851)" class="st7" cx="267.4" cy="53.6" rx="2.4" ry="2.4"/>
	<ellipse transform="matrix(0.9911 -0.1328 0.1328 0.9911 -0.6899 28.8458)" class="st7" cx="215.9" cy="19.6" rx="2.4" ry="2.4"/>
	<ellipse transform="matrix(0.9911 -0.1328 0.1328 0.9911 -8.3454 32.2645)" class="st5" cx="237.7" cy="78.7" rx="2.4" ry="2.4"/>
	<ellipse transform="matrix(0.9911 -0.1328 0.1328 0.9911 -10.0755 59.498)" class="st9" cx="441" cy="105.3" rx="2.4" ry="2.4"/>
	<ellipse transform="matrix(0.9911 -0.1328 0.1328 0.9911 -6.2176 47.7426)" class="st7" cx="354.8" cy="70.5" rx="2.4" ry="2.4"/>
	<ellipse transform="matrix(0.9911 -0.1328 0.1328 0.9911 -9.3114 35.3694)" class="st7" cx="260.5" cy="87.5" rx="2.4" ry="2.4"/>
	<ellipse transform="matrix(0.9911 -0.1328 0.1328 0.9911 -8.0919 42.4653)" class="st5" cx="314.3" cy="81.9" rx="3.6" ry="3.6"/>
	<ellipse transform="matrix(0.9911 -0.1328 0.1328 0.9911 -2.2421 39.1524)" class="st5" cx="292.4" cy="36.4" rx="3.6" ry="3.6"/>
	<ellipse transform="matrix(0.9911 -0.1328 0.1328 0.9911 -8.3462 56.8337)" class="st2" cx="421.9" cy="91" rx="4.2" ry="4.2"/>
	<ellipse transform="matrix(0.9911 -0.1328 0.1328 0.9911 -10.4741 52.3217)" class="st2" cx="387" cy="104.7" rx="4.4" ry="4.4"/>
	<ellipse transform="matrix(0.9911 -0.1328 0.1328 0.9911 -30.1474 1.385)" class="st10" cx="-4.7" cy="226.7" rx="4.4" ry="4.4"/>
	<ellipse transform="matrix(0.9911 -0.1328 0.1328 0.9911 -33.9113 0.9561)" class="st10" cx="-9.8" cy="254.7" rx="4.4" ry="4.4"/>
	<ellipse transform="matrix(0.9911 -0.1328 0.1328 0.9911 -10.3519 25.568)" class="st2" cx="186.5" cy="90.4" rx="4.4" ry="4.4"/>
	<ellipse transform="matrix(0.9911 -0.1328 0.1328 0.9911 -16.3745 2.893)" class="st2" cx="13.5" cy="124.2" rx="4.4" ry="4.4"/>
	
		<ellipse transform="matrix(0.9911 -0.1328 0.1328 0.9911 -36.1735 -10.5517)" class="st2" cx="-97.2" cy="265.9" rx="4.4" ry="4.4"/>
	<path class="st9" d="M0.8,216.2c-5.2,0.4-10.5,6.6-9.1,11.5c1.3,4.4,4.6,7.4,9.8,6.9c6-0.7,10.9-5.7,10.4-10.6
		C11.5,219.2,6.4,215.7,0.8,216.2z"/>
</g>
<g>
	<path class="st11" d="M517.7,118.1c-2.7-0.1-2.5-2-1.5-2.2c0.7-0.1,1.6-0.4,1.8-0.5s0.5-0.5,0.5-0.9c-0.1-0.4-0.4-0.7-0.7-0.6l0,0
		c-0.6-4.7-2.8-9-6.3-12.2c-0.1,0-0.1-0.1-0.2-0.1c0-1,0.1-2,0.4-3l0.7-2l-1.7,1.3c-0.8,0.6-1.7,1.1-2.6,1.3
		c-2.5-1.5-5.3-2.5-8.3-2.8c-0.6-0.7-1-1.6-1.3-2.5l-0.6-2.1l-0.6,2.1c-0.3,0.9-0.7,1.8-1.2,2.5c-3.1,0.2-6,1.2-8.6,2.7
		c-0.8-0.3-1.6-0.7-2.4-1.2l-1.7-1.3l0.7,2c0.3,0.9,0.5,1.7,0.5,2.6c-0.2,0.2-0.4,0.4-0.6,0.5c-2.1,2-3.8,4.3-4.9,6.9
		c-0.8,0.2-1.6,0.4-2.5,0.3l-2.1-0.1l1.8,1.2c0.7,0.5,1.3,1.1,1.8,1.7c-0.2,0.8-0.3,1.6-0.4,2.4l-0.4-0.4c-1.2-1.2-3.6-1.7-4.6-1.2
		c-0.6,0.3-0.9,0.7-0.9,1.4c0,0.5,0,1.2,0,2c0,1,0,2.1,0,2.9c0,0.6,0.4,1.1,1,1.4c1.2,0.5,3.4-0.1,4.5-1.2l0.4-0.4
		c0.1,0.8,0.2,1.6,0.4,2.4c-0.5,0.7-1.1,1.2-1.8,1.7l-1.8,1.2l0,0l2.1-0.1c0.9,0,1.7,0.1,2.5,0.3c1.1,2.6,2.8,5,4.9,6.9
		c0.2,0.2,0.4,0.4,0.6,0.5c0,0.8-0.1,1.7-0.5,2.6l-0.7,2l1.7-1.3c0.7-0.6,1.5-1,2.4-1.2c2.6,1.5,5.6,2.5,8.6,2.7
		c0.5,0.7,1,1.6,1.2,2.5l0.6,2.1l0.6-2.1c0.3-1,0.7-1.8,1.3-2.5c2.9-0.3,5.8-1.3,8.3-2.8c0.9,0.3,1.8,0.7,2.6,1.3l1.7,1.3l-0.7-2
		c-0.4-1-0.5-2-0.4-3c0.1,0,0.1-0.1,0.2-0.1c3.4-3.1,5.5-7.2,6.2-11.7h0.1c0.3,0,0.6-0.4,0.6-0.8
		C518.3,118.4,518.1,118.1,517.7,118.1z M509.8,113.3c-1,0-1.9-0.8-1.9-1.9s0.8-1.9,1.9-1.9s1.9,0.8,1.9,1.9
		S510.8,113.3,509.8,113.3z"/>
</g>
</svg>
