<?xml version="1.0" encoding="utf-8"?>
<!-- Generator: Adobe Illustrator 23.0.6, SVG Export Plug-In . SVG Version: 6.00 Build 0)  -->
<svg version="1.1" id="Layer_1" xmlns="http://www.w3.org/2000/svg" xmlns:xlink="http://www.w3.org/1999/xlink" x="0px" y="0px"
	 viewBox="0 0 887.6 1150.06" style="enable-background:new 0 0 887.6 1150.06;" xml:space="preserve">
<style type="text/css">
	.st0{opacity:0.33;}
	.st1{opacity:0.76;fill:none;stroke:#EFEFEF;stroke-miterlimit:10;enable-background:new    ;}
	.st2{opacity:0.44;fill:#EFEFEF;enable-background:new    ;}
	.st3{fill:#EFEFEF;}
	.st4{opacity:0.35;fill:none;stroke:#EFEFEF;stroke-miterlimit:10;enable-background:new    ;}
	.st5{fill:none;stroke:#EFEFEF;stroke-miterlimit:10;}
	.st6{opacity:0.75;fill:none;stroke:#EFEFEF;stroke-miterlimit:10;enable-background:new    ;}
	.st7{opacity:0.35;fill:#EFEFEF;enable-background:new    ;}
	.st8{opacity:0.75;fill:#EFEFEF;enable-background:new    ;}
	.st9{opacity:0.44;fill:none;stroke:#EFEFEF;stroke-miterlimit:10;enable-background:new    ;}
	.st10{opacity:0.76;fill:#EFEFEF;enable-background:new    ;}
</style>
<g class="st0">
	<path class="st1" d="M131,452.7c-9.6,1.4-13.7,6.8-12.9,15.8c1.2,12.5,19.4,19.6,28.3,15.2c4.7-2.3,7.8-6.2,7.9-11.4
		C154.3,461.2,142,451.1,131,452.7z"/>
	<path class="st2" d="M9.7,688.1c1.3,10.3,11.3,17.3,22.5,15.8c8.8-1.2,13.9-8.4,12.7-17.9c-1.3-10-9.6-16-20.4-14.7
		C14.8,672.5,8.6,679.5,9.7,688.1z"/>
	<path class="st2" d="M176.8,255.5c1.5-2.6,2.2-6.1,1.9-9.1c-0.8-6.8-7-11.4-16.1-11.3c-11.3,0.1-13.6,3.4-13,13.5
		c0.7,6.3,4,9.9,10.9,11.6C167.5,262,173.9,260.5,176.8,255.5z"/>
	<path class="st3" d="M146.4,413.9c11.4-1.1,16.4-6.9,15.3-17.6c-0.9-8.9-6.1-13.8-13.8-12.8c-8.5,1.1-16,10-15.2,17.7
		C133.6,408.8,139.8,414.5,146.4,413.9z"/>
	<path class="st3" d="M90.5,435.5c1.1,11.4,10.3,19.3,21.2,18c8.9-1,14.7-8,13.6-16.3c-1.2-8.7-12.1-16.2-22.2-15.2
		C94.4,422.9,89.7,427.9,90.5,435.5z"/>
	<path class="st4" d="M-49,524.7c1.1,11.4,10.3,19.3,21.2,18c8.9-1,14.7-8,13.6-16.3c-1.2-8.7-12.1-16.2-22.2-15.2
		C-45,512.1-49.7,517.2-49,524.7z"/>
	<path class="st2" d="M55.4,691c1.1,10.1,11.7,18.5,21.3,16.9c6.3-1,12.4-9.8,11.5-16.5c-1.3-9.3-12.2-16.5-22.8-14.9
		C57.8,677.7,54.4,682.6,55.4,691z"/>
	<path class="st2" d="M527.7,237.8c0.6,5.6,6.7,10.4,12.2,9.5c3.6-0.6,7.1-5.5,6.6-9.3c-0.7-5.2-7-9.2-13.1-8.3
		C529.1,230.4,527.2,233.1,527.7,237.8z"/>
	<path class="st5" d="M177.1,311.1c-7,0.9-14.7,10.1-14,16.8c0.8,7.8,9,14.5,16.7,13.7s16.8-10.8,15.9-17.4
		C194.9,317.4,184.6,310.2,177.1,311.1z"/>
	<path class="st6" d="M220.3,277.4c1,7.7,8.5,13.3,16.5,12.4c6.4-0.8,13.4-12.5,12.4-21.2c-0.8-7.4-6.6-11.9-14-11
		C226.1,258.8,219.1,268.1,220.3,277.4z"/>
	<path class="st2" d="M118.4,323.5c0.9,7.2,7.8,12.4,15.3,11.5c6-0.7,12.4-11.6,11.5-19.6c-0.7-6.8-6.1-11.1-12.9-10.2
		C123.9,306.2,117.3,314.9,118.4,323.5z"/>
	<path class="st2" d="M281.6,284.5c0.9,7.2,7.8,12.4,15.3,11.5c6-0.7,12.4-11.6,11.5-19.6c-0.7-6.8-6.1-11.1-12.9-10.2
		C287,267.3,280.5,275.9,281.6,284.5z"/>
	<path class="st3" d="M73.7,537.2c0.7,5.2,5.7,9,11.1,8.3c4.3-0.5,9-8.4,8.4-14.2c-0.5-5-4.4-8-9.4-7.4
		C77.7,524.6,72.9,530.9,73.7,537.2z"/>
	<path class="st1" d="M19.1,620.7c-0.6-7.2-8-12.3-16.2-11.3c-7.1,0.9-13.3,7.5-12.6,13.4c0.7,5.8,9.3,10.5,17.7,9.6
		C15.8,631.6,19.8,627.4,19.1,620.7z"/>
	<path class="st3" d="M263.2,260.5c-5.3,0.6-8.8,3.9-8.5,7.7c0.3,3.3,5.2,6.7,9.3,6.3c3.4-0.3,6.4-4.5,5.8-8.3
		C269.2,262,266.3,260.7,263.2,260.5z"/>
	<path class="st2" d="M125.6,358.3c-7,0.7-11.5,5.1-11.1,10c0.4,4.3,6.8,8.7,12.1,8.2c4.4-0.4,8.4-5.9,7.6-10.9
		C133.4,360.3,129.6,358.5,125.6,358.3z"/>
	<path class="st3" d="M387.4,273.7c-5.3,0.6-8.8,3.9-8.5,7.7c0.3,3.3,5.2,6.7,9.3,6.3c3.4-0.3,6.4-4.5,5.8-8.3
		C393.4,275.3,390.5,273.9,387.4,273.7z"/>
	<path class="st3" d="M49.6,659.3c-5.3,0.6-8.8,3.9-8.5,7.7c0.3,3.3,5.2,6.7,9.3,6.3c3.4-0.3,6.4-4.5,5.8-8.3
		C55.6,660.9,52.7,659.5,49.6,659.3z"/>
	<path class="st3" d="M57.7,594c-5.3,0.6-8.8,3.9-8.5,7.7c0.3,3.3,5.2,6.7,9.3,6.3c3.4-0.3,6.4-4.5,5.8-8.3
		C63.7,595.6,60.8,594.2,57.7,594z"/>
	<path class="st3" d="M3,519c-5.3,0.6-8.8,3.9-8.5,7.7c0.3,3.3,5.2,6.7,9.3,6.3c3.4-0.3,6.4-4.5,5.8-8.3C9,520.5,6.1,519.2,3,519z"
		/>
	<path class="st2" d="M124.5,407.1c-5.3,0.6-8.8,3.9-8.5,7.7c0.3,3.3,5.2,6.7,9.3,6.3c3.4-0.3,6.4-4.5,5.8-8.3
		C130.5,408.6,127.6,407.3,124.5,407.1z"/>
	<path class="st3" d="M45.2,507.8c-5.3,0.6-8.8,3.9-8.5,7.7c0.3,3.3,5.2,6.7,9.3,6.3c3.4-0.3,6.4-4.5,5.8-8.3
		C51.2,509.3,48.3,508,45.2,507.8z"/>
	<path class="st7" d="M66.3,545.5c3.3-5.6,1.1-15.8-5.1-19.4c-7.1-4.2-11.1,0.8-14.6,6.2c-4.9,7.7-4.3,14.3,1.8,18.5
		C54,554.6,62.3,552.2,66.3,545.5z"/>
	<path class="st7" d="M45.5,484.5c-4.3,0.7-8.4,6.2-7.6,10.9c0.9,5.4,5.2,5.2,9.4,4.7c6-0.9,9-4,8.5-8.8
		C55.4,486.8,50.6,483.6,45.5,484.5z"/>
	<path class="st8" d="M41.2,636c7.6-0.9,11.8-6.4,10.7-14.1c-1.2-8.7-5.7-12.7-13.1-11.8c-7.7,0.9-13.1,6.9-12.1,13.4
		C27.8,630.8,34.7,636.8,41.2,636z"/>
	<path class="st3" d="M-30.4,617.2c-7.6,0.8-12.1,6.6-11.3,14.6c0.8,7.9,6.4,12.4,14.4,11.5c6.7-0.7,10.4-6.7,9.5-14.9
		C-18.8,620.7-23.5,616.5-30.4,617.2z"/>
	<path class="st3" d="M-14,550.4c-7.6,0.8-12.1,6.6-11.3,14.6c0.8,7.9,6.4,12.4,14.4,11.5c6.7-0.7,10.4-6.7,9.5-14.9
		C-2.3,553.9-7.1,549.7-14,550.4z"/>
	<path class="st3" d="M-9.5,592.5c1.5,7.7,8,6.7,12.6,7c9.9-1.2,15.1-6.4,13.9-13.4c-1.4-8.3-8.2-8.2-14.1-7.8
		C-4.9,578.9-10.8,585.9-9.5,592.5z"/>
	<path class="st3" d="M71,604.5c1.5,7.7,8,6.7,12.6,7c9.9-1.2,15.1-6.4,13.9-13.4c-1.4-8.3-8.2-8.2-14.1-7.8
		C75.6,590.9,69.7,597.9,71,604.5z"/>
	<path class="st3" d="M286.9,259c6.6-0.5,11-6.6,10-15c-1.1-5.6-5.2-9.5-12.2-9.5c-5.8,0-9.8,7.7-8.9,15.5
		C276.6,257,280.6,259.5,286.9,259z"/>
	<path class="st4" d="M110.9,525.3c6.2-1,9.7-5.1,9.6-11.3c0-5.2-10-12.7-15.8-11c-3.8,1.1-7.6,3.2-8.5,9.1
		C95.4,517.9,104.4,526.4,110.9,525.3z"/>
	<path class="st9" d="M462.4,284.2c3.3-0.5,5.1-2.6,5.1-5.7c0-2.6-5.2-6.2-8.3-5.4c-2,0.6-4.2,3.1-4.3,5.5
		C455,281,459,284.8,462.4,284.2z"/>
	<path class="st2" d="M354,341.3c6.3-0.4,9.7-5.1,9.6-11.3c0-5.2-10-12.7-15.8-11C344.1,320.1,333.2,342.7,354,341.3z"/>
	<path class="st3" d="M7.1,667.5c-0.5-6.9-4.3-11.1-11.6-11.5c-6.1,0.4-11.4,6.8-10.7,13.6c0.7,7,6.1,7.5,11.5,7.1
		C1.9,676.3,7.7,675.1,7.1,667.5z"/>
	<ellipse class="st5" cx="229.99" cy="365.79" rx="6.4" ry="6.4"/>
	<ellipse class="st3" cx="193.09" cy="255.89" rx="6.4" ry="6.4"/>
	<ellipse class="st3" cx="267.39" cy="286.89" rx="5.2" ry="5.2"/>
	
		<ellipse transform="matrix(0.9911 -0.1328 0.1328 0.9911 -44.5022 28.1525)" class="st3" cx="188.79" cy="347.69" rx="5.2" ry="5.2"/>
	<path class="st3" d="M-50.6,878.8"/>
	<ellipse class="st5" cx="192.89" cy="276.39" rx="6.4" ry="6.4"/>
	<ellipse transform="matrix(0.9897 -0.1429 0.1429 0.9897 -93.9336 9.1169)" class="st2" cx="16.5" cy="658.47" rx="7.7" ry="7.7"/>
	<ellipse transform="matrix(0.9915 -0.1304 0.1304 0.9915 -70.9501 5.9035)" class="st5" cx="9.6" cy="544.68" rx="7.4" ry="7.4"/>
	<ellipse class="st3" cx="105.6" cy="663.67" rx="10.5" ry="10.5"/>
	
		<ellipse transform="matrix(0.9911 -0.1328 0.1328 0.9911 -78.7125 1.6218)" class="st3" cx="-27.2" cy="590.88" rx="7.8" ry="7.8"/>
	
		<ellipse transform="matrix(0.9911 -0.1328 0.1328 0.9911 -40.6969 32.6074)" class="st3" cx="224.09" cy="321.39" rx="7.8" ry="7.8"/>
	
		<ellipse transform="matrix(0.9911 -0.1328 0.1328 0.9911 -56.4139 23.558)" class="st3" cx="148.39" cy="434.68" rx="7.8" ry="7.8"/>
	<ellipse transform="matrix(0.9916 -0.1293 0.1293 0.9916 -53.3741 3.568)" class="st3" cx="0.8" cy="412.98" rx="7.8" ry="7.8"/>
	<ellipse class="st5" cx="352.19" cy="302.79" rx="7.8" ry="7.8"/>
	
		<ellipse transform="matrix(0.9924 -0.1231 0.1231 0.9924 -75.3281 2.5903)" class="st3" cx="-16.7" cy="610.98" rx="4.3" ry="4.3"/>
	<ellipse class="st5" cx="121.3" cy="492.38" rx="3.6" ry="3.6"/>
	<ellipse transform="matrix(0.9911 -0.1328 0.1328 0.9911 -87.0238 10.6065)" class="st5" cx="36" cy="657.67" rx="3.6" ry="3.6"/>
	<ellipse transform="matrix(0.9915 -0.1304 0.1304 0.9915 -83.5217 4.8522)" class="st5" cx="-4.7" cy="640.37" rx="3.6" ry="3.6"/>
	<ellipse class="st5" cx="119.4" cy="393.88" rx="3.6" ry="3.6"/>
	<ellipse class="st5" cx="45.7" cy="402.88" rx="3.6" ry="3.6"/>
	<ellipse class="st5" cx="325.19" cy="333.48" rx="3.6" ry="3.6"/>
	
		<ellipse transform="matrix(0.9911 -0.1328 0.1328 0.9911 -35.1901 84.9697)" class="st3" cx="619.38" cy="306.29" rx="3.6" ry="3.6"/>
	<ellipse class="st3" cx="212.89" cy="264.29" rx="3.6" ry="3.6"/>
	<ellipse class="st5" cx="278.69" cy="345.69" rx="3.6" ry="3.6"/>
	<ellipse class="st3" cx="465.48" cy="263.19" rx="3.6" ry="3.6"/>
	<ellipse class="st3" cx="385.28" cy="247.09" rx="3.6" ry="3.6"/>
	<ellipse class="st3" cx="201.29" cy="365.98" rx="3.6" ry="3.6"/>
	<ellipse class="st3" cx="238.19" cy="201.59" rx="3.6" ry="3.6"/>
	<ellipse class="st3" cx="139.39" cy="376.88" rx="3.6" ry="3.6"/>
	<ellipse class="st3" cx="6.4" cy="158.59" rx="3.6" ry="3.6"/>
	<ellipse class="st3" cx="375.48" cy="313.59" rx="3.6" ry="3.6"/>
	<ellipse class="st3" cx="394.88" cy="334.39" rx="3.6" ry="3.6"/>
	<ellipse class="st3" cx="314.69" cy="258.19" rx="3.6" ry="3.6"/>
	<ellipse class="st3" cx="138.99" cy="286.69" rx="8.1" ry="8.1"/>
	<ellipse class="st2" cx="270.89" cy="314.19" rx="11.3" ry="11.3"/>
	
		<ellipse transform="matrix(0.9911 -0.1328 0.1328 0.9911 -45.5064 22.4971)" class="st2" cx="145.89" cy="352.39" rx="11.3" ry="11.3"/>
	
		<ellipse transform="matrix(0.9924 -0.1231 0.1231 0.9924 -48.7561 0.9364)" class="st2" cx="-16.8" cy="395.08" rx="11.3" ry="11.3"/>
	<path class="st3" d="M41.8,594.5c-0.6-4.4-4-5.9-9.1-6.9c-4.4-0.9-7.5,4.7-6.9,9.1c0.6,4.4,4.7,7.5,9.1,6.9S42.4,599,41.8,594.5z"
		/>
	<path class="st5" d="M44.4,564.3c0.9-6.6-6.9-11.2-13.5-10.3s-11.2,6.9-10.3,13.5c0.9,6.6,7.1,12,13.5,10.3
		C40.5,576.3,43.5,570.8,44.4,564.3z"/>
	<ellipse class="st3" cx="171.29" cy="290.89" rx="10.5" ry="10.5"/>
	<ellipse class="st3" cx="64.8" cy="565.08" rx="10.5" ry="10.5"/>
	<ellipse class="st3" cx="207.79" cy="345.69" rx="10.5" ry="10.5"/>
	<ellipse class="st3" cx="268.69" cy="377.58" rx="10.5" ry="10.5"/>
	<ellipse transform="matrix(0.9911 -0.1328 0.1328 0.9911 -84.8848 8.4763)" class="st3" cx="21.1" cy="640.57" rx="5.6" ry="5.6"/>
	
		<ellipse transform="matrix(0.9911 -0.1328 0.1328 0.9911 -81.6602 15.8246)" class="st5" cx="77.8" cy="620.07" rx="3.4" ry="3.4"/>
	
		<ellipse transform="matrix(0.9897 -0.1429 0.1429 0.9897 -75.2355 10.2589)" class="st5" cx="33.8" cy="528.88" rx="3.4" ry="3.4"/>
	<ellipse class="st3" cx="58.6" cy="504.58" rx="3.4" ry="3.4"/>
	
		<ellipse transform="matrix(0.9897 -0.1429 0.1429 0.9897 -77.2383 10.1729)" class="st3" cx="32.2" cy="542.78" rx="3.4" ry="3.4"/>
	<ellipse class="st9" cx="134.8" cy="237.69" rx="3.4" ry="3.4"/>
	
		<ellipse transform="matrix(0.9911 -0.1328 0.1328 0.9911 -76.9645 11.6296)" class="st9" cx="48.7" cy="582.78" rx="3.4" ry="3.4"/>
	<ellipse transform="matrix(0.9908 -0.1353 0.1353 0.9908 -95.3638 7.2544)" class="st3" cx="5.7" cy="705.37" rx="3.4" ry="3.4"/>
	
		<ellipse transform="matrix(0.9911 -0.1328 0.1328 0.9911 -82.6671 13.7307)" class="st3" cx="61.6" cy="626.58" rx="3.4" ry="3.4"/>
	<ellipse transform="matrix(0.9911 -0.1328 0.1328 0.9911 -73.4306 1.016)" class="st3" cx="-29.1" cy="550.98" rx="3.4" ry="3.4"/>
	<ellipse class="st5" cx="156.09" cy="271.69" rx="3.4" ry="3.4"/>
	<ellipse class="st5" cx="100.5" cy="220.19" rx="3.4" ry="3.4"/>
	<ellipse class="st3" cx="52.6" cy="475.88" rx="3.4" ry="3.4"/>
	<ellipse class="st8" cx="306.59" cy="351.39" rx="3.4" ry="3.4"/>
	<ellipse class="st3" cx="136.09" cy="265.09" rx="3.4" ry="3.4"/>
	<ellipse class="st3" cx="131.99" cy="430.98" rx="3.4" ry="3.4"/>
	<ellipse transform="matrix(0.9911 -0.1328 0.1328 0.9911 -67.9801 14.1383)" class="st3" cx="72" cy="516.68" rx="3.4" ry="3.4"/>
	
		<ellipse transform="matrix(0.9911 -0.1328 0.1328 0.9911 -66.9052 16.2543)" class="st5" cx="88.4" cy="509.68" rx="3.4" ry="3.4"/>
	
		<ellipse transform="matrix(0.9911 -0.1328 0.1328 0.9911 -85.4124 11.3661)" class="st3" cx="42.5" cy="645.97" rx="3.4" ry="3.4"/>
	
		<ellipse transform="matrix(0.9911 -0.1328 0.1328 0.9911 -81.7103 0.0743)" class="st8" cx="-40.3" cy="612.57" rx="3.4" ry="3.4"/>
	<ellipse transform="matrix(0.9908 -0.1352 0.1352 0.9908 -92.8515 5.1386)" class="st3" cx="-8.6" cy="686.07" rx="3.4" ry="3.4"/>
	<ellipse transform="matrix(0.9908 -0.1353 0.1353 0.9908 -87.4911 6.9233)" class="st3" cx="7.2" cy="647.27" rx="3.4" ry="3.4"/>
	<ellipse class="st3" cx="212.49" cy="293.49" rx="3.4" ry="3.4"/>
	<ellipse class="st5" cx="87.9" cy="556.88" rx="5" ry="5"/>
	<ellipse class="st3" cx="156.09" cy="309.39" rx="5" ry="5"/>
	<ellipse class="st3" cx="104.7" cy="376.48" rx="5" ry="5"/>
	<ellipse class="st3" cx="38" cy="392.08" rx="5" ry="5"/>
	<ellipse class="st5" cx="494.18" cy="285.39" rx="5" ry="5"/>
	<ellipse class="st3" cx="535.38" cy="293.79" rx="5" ry="5"/>
	<ellipse class="st3" cx="324.99" cy="315.59" rx="5" ry="5"/>
	<ellipse class="st9" cx="303.09" cy="309.79" rx="5.9" ry="5.9"/>
	<ellipse class="st2" cx="495.88" cy="251.59" rx="5.9" ry="5.9"/>
	<ellipse class="st2" cx="359.89" cy="273.29" rx="5.9" ry="5.9"/>
	
		<ellipse transform="matrix(0.9911 -0.1328 0.1328 0.9911 -37.3993 82.4492)" class="st9" cx="599.38" cy="321.59" rx="5.9" ry="5.9"/>
	<ellipse class="st2" cx="245.99" cy="333.39" rx="6.1" ry="6.1"/>
	<ellipse class="st2" cx="450.18" cy="259.09" rx="6.1" ry="6.1"/>
	<ellipse class="st2" cx="334.09" cy="286.99" rx="6.1" ry="6.1"/>
	<ellipse class="st2" cx="382.19" cy="303.09" rx="6.1" ry="6.1"/>
	<path class="st3" d="M425.5,258.2c-7,0.9-14.7,10.1-14,16.8c0.8,7.8,9,14.5,16.7,13.7s16.8-10.8,15.9-17.4
		C443.3,264.5,433,257.3,425.5,258.2z"/>
	<path class="st8" d="M647.3,316c0.6,4.4,4.8,7.6,9.4,7c3.7-0.4,7.6-7.1,7.1-12c-0.5-4.2-3.7-6.8-7.9-6.3
		C650.7,305.4,646.7,310.7,647.3,316z"/>
	<path class="st2" d="M507.5,301.1c0.7,5.1,5.6,8.8,10.9,8.2c4.2-0.5,8.8-8.3,8.2-14c-0.5-4.9-4.3-7.9-9.2-7.3
		C511.3,288.7,506.7,294.9,507.5,301.1z"/>
	<ellipse class="st5" cx="681.28" cy="304.8" rx="5.7" ry="5.7"/>
	
		<ellipse transform="matrix(0.9911 -0.1328 0.1328 0.9911 -31.2389 85.013)" class="st3" cx="621.68" cy="276.69" rx="6.4" ry="6.4"/>
	
		<ellipse transform="matrix(0.9911 -0.1328 0.1328 0.9911 -38.6559 99.2191)" class="st3" cx="724.46" cy="339.39" rx="3.6" ry="3.6"/>
	
		<ellipse transform="matrix(0.9911 -0.1328 0.1328 0.9911 -26.2819 85.5359)" class="st5" cx="628.08" cy="239.79" rx="3.6" ry="3.6"/>
	
		<ellipse transform="matrix(0.9911 -0.1328 0.1328 0.9911 -33.0841 77.9463)" class="st5" cx="567.78" cy="286.99" rx="8.1" ry="8.1"/>
	<ellipse class="st9" cx="699.57" cy="323.49" rx="4.8" ry="4.8"/>
	<ellipse class="st5" cx="407.28" cy="300.29" rx="10.5" ry="10.5"/>
	<ellipse class="st3" cx="473.98" cy="247.49" rx="10.5" ry="10.5"/>
	
		<ellipse transform="matrix(0.9911 -0.1328 0.1328 0.9911 -30.9408 80.0843)" class="st3" cx="584.88" cy="271.99" rx="3.4" ry="3.4"/>
	
		<ellipse transform="matrix(0.9911 -0.1328 0.1328 0.9911 -31.2952 71.3709)" class="st5" cx="519.38" cy="270.29" rx="3.4" ry="3.4"/>
	<ellipse class="st5" cx="447.38" cy="222.69" rx="3.4" ry="3.4"/>
	<ellipse class="st3" cx="477.88" cy="305.19" rx="3.4" ry="3.4"/>
	
		<ellipse transform="matrix(0.9911 -0.1328 0.1328 0.9911 -33.3362 87.7673)" class="st5" cx="641.28" cy="293.79" rx="3.4" ry="3.4"/>
	
		<ellipse transform="matrix(0.0277 -0.9996 0.9996 0.0277 178.1125 818.2838)" class="st5" cx="509.68" cy="317.59" rx="3.4" ry="3.4"/>
	<ellipse class="st3" cx="584.88" cy="309.69" rx="5" ry="5"/>
	<ellipse class="st3" cx="554.18" cy="246.29" rx="5" ry="5"/>
	
		<ellipse transform="matrix(0.9911 -0.1328 0.1328 0.9911 -39.2721 94.1659)" class="st2" cx="686.27" cy="341.48" rx="6.1" ry="6.1"/>
	<ellipse class="st2" cx="406.28" cy="321.59" rx="6.1" ry="6.1"/>
	<ellipse class="st2" cx="164.79" cy="368.89" rx="6.1" ry="6.1"/>
	<ellipse transform="matrix(0.9908 -0.1353 0.1353 0.9908 -76.5602 6.6018)" class="st2" cx="10.3" cy="566.68" rx="6.1" ry="6.1"/>
	<path class="st3" d="M90.3,261.2c0.9,11.4,9.9,19.5,20.8,18.5c8.9-0.8,14.9-7.7,13.9-16c-1-8.7-11.8-16.5-21.9-15.7
		C94.5,248.6,89.7,253.6,90.3,261.2z"/>
	<path class="st4" d="M-56.6,304.1c1.1,11.4,10.3,19.3,21.2,18c8.9-1,14.7-8,13.6-16.3c-1.2-8.7-12.1-16.2-22.2-15.2
		C-52.6,291.5-57.3,296.5-56.6,304.1z"/>
	<path class="st3" d="M66.2,316.6c0.7,5.2,5.7,9,11.1,8.3c4.3-0.5,9-8.4,8.4-14.2c-0.5-5-4.4-8-9.4-7.4
		C70.1,304,65.4,310.3,66.2,316.6z"/>
	<path class="st3" d="M-4.6,298.3c-5.3,0.6-8.8,3.9-8.5,7.7c0.3,3.3,5.2,6.7,9.3,6.3c3.4-0.3,6.4-4.5,5.8-8.3
		C1.4,299.9-1.5,298.5-4.6,298.3z"/>
	<path class="st7" d="M58.8,324.9c3.3-5.6,1.1-15.8-5.1-19.4c-7.1-4.2-11.1,0.8-14.6,6.2c-4.9,7.7-4.3,14.3,1.8,18.5
		C46.4,334,54.8,331.6,58.8,324.9z"/>
	<path class="st3" d="M-21.5,329.8c-7.6,0.8-12.1,6.6-11.3,14.6c0.8,7.9,6.4,12.4,14.4,11.5c6.7-0.7,10.4-6.7,9.5-14.9
		C-9.9,333.3-14.7,329-21.5,329.8z"/>
	<path class="st3" d="M-17.1,371.9c1.5,7.7,8,6.7,12.6,7c9.9-1.2,15.1-6.4,13.9-13.4c-1.4-8.3-8.2-8.2-14.1-7.8
		C-12.5,358.3-18.4,365.3-17.1,371.9z"/>
	<path class="st4" d="M103.3,304.7c6.2-1,9.7-5.1,9.6-11.3c0-5.2-10-12.7-15.8-11c-3.8,1.1-7.6,3.2-8.5,9.1S96.8,305.7,103.3,304.7z
		"/>
	<path class="st7" d="M103.2,335.9c-6.1,0.9-7.8,5.7-6.3,10.1c1,3.1,4,7.5,8.6,7.4c4.5-0.1,9.8-5.5,9.7-10.9
		C115,337.7,109.4,334.9,103.2,335.9z"/>
	<path class="st3" d="M102.4,328.8c5.5-2.1,6.1-5.9,6.2-10c0.1-3.8-2.8-8.6-8.2-7.9c-12.3,1.7-11.2,10.3-9.4,13.5
		C92.9,327.6,96.9,330.9,102.4,328.8z"/>
	<ellipse class="st5" cx="2" cy="324.09" rx="7.4" ry="7.4"/>
	<ellipse class="st7" cx="69.4" cy="364.98" rx="7.1" ry="7.1"/>
	
		<ellipse transform="matrix(0.9898 -0.1421 0.1421 0.9898 -59.8076 1.3581)" class="st3" cx="-20.4" cy="419.28" rx="7.8" ry="7.8"/>
	<ellipse class="st3" cx="85.4" cy="353.29" rx="5" ry="5"/>
	<path class="st3" d="M34.2,373.9c-0.6-4.4-4-5.9-9.1-6.9c-4.4-0.9-7.5,4.7-6.9,9.1s4.7,7.5,9.1,6.9S34.8,378.4,34.2,373.9z"/>
	<path class="st5" d="M36.9,343.7c0.9-6.6-6.9-11.2-13.5-10.3s-11.2,6.9-10.3,13.5s7.1,12,13.5,10.3C33,355.6,35.9,350.2,36.9,343.7
		z"/>
	<ellipse class="st3" cx="57.3" cy="344.49" rx="10.5" ry="10.5"/>
	<ellipse class="st5" cx="26.2" cy="308.29" rx="3.4" ry="3.4"/>
	<ellipse class="st5" cx="87.8" cy="366.68" rx="3.4" ry="3.4"/>
	<ellipse class="st3" cx="24.6" cy="322.19" rx="3.4" ry="3.4"/>
	<ellipse class="st9" cx="41.1" cy="362.18" rx="3.4" ry="3.4"/>
	<ellipse class="st3" cx="-0.2" cy="449.48" rx="3.4" ry="3.4"/>
	<ellipse class="st3" cx="64.5" cy="296.09" rx="3.4" ry="3.4"/>
	<ellipse class="st5" cx="80.8" cy="289.09" rx="3.4" ry="3.4"/>
	<ellipse class="st5" cx="80.3" cy="336.29" rx="5" ry="5"/>
	<ellipse class="st3" cx="97.1" cy="155.89" rx="5" ry="5"/>
	<path class="st2" d="M-20.9,105.7C-19.6,116-9.6,123,1.6,121.5c8.8-1.2,13.9-8.4,12.7-17.9c-1.3-10-9.6-16-20.4-14.7
		C-15.8,90.1-22,97.1-20.9,105.7z"/>
	<path class="st2" d="M-19.9,190.4c1.3,10.3,11.3,17.3,22.5,15.8c8.8-1.2,13.9-8.4,12.7-17.9c-1.3-10-9.6-16-20.4-14.7
		C-14.8,174.7-21,181.8-19.9,190.4z"/>
	<path class="st10" d="M38.2,113.3c-1.8-5-6.6-7-12.5-4.9c-5.1,1.8-8.1,7.5-6.4,12.3c1.5,4.3,7.3,6.3,12.8,4.3
		C37.4,123.1,39.9,118.2,38.2,113.3z"/>
	<path class="st2" d="M-53,213.1c1.5-2.6,2.2-6.1,1.9-9.1c-0.8-6.8-7-11.4-16.1-11.3c-11.3,0.1-13.6,3.4-13,13.5
		c0.7,6.3,4,9.9,10.9,11.6C-62.2,219.7-55.8,218.2-53,213.1z"/>
	<path class="st5" d="M-38,253.7c-7,0.9-14.7,10.1-14,16.8c0.8,7.8,9,14.5,16.7,13.7s16.8-10.8,15.9-17.4
		C-20.2,260-30.5,252.8-38,253.7z"/>
	<path class="st6" d="M-9.5,235.1c1,7.7,8.5,13.3,16.5,12.4c6.4-0.8,13.4-12.5,12.4-21.2c-0.8-7.4-6.6-11.9-14-11
		C-3.6,216.4-10.7,225.7-9.5,235.1z"/>
	<path class="st2" d="M6.6,501.6c0.9,7.2,7.8,12.4,15.3,11.5c6-0.7,12.4-11.6,11.5-19.6c-0.7-6.8-6.1-11.1-12.9-10.2
		C12,484.3,5.5,493,6.6,501.6z"/>
	<path class="st2" d="M51.8,242.2c0.9,7.2,7.8,12.4,15.3,11.5c6-0.7,12.4-11.6,11.5-19.6c-0.7-6.8-6.1-11.1-12.9-10.2
		C57.3,224.9,50.7,233.5,51.8,242.2z"/>
	<path class="st3" d="M26.6,87.2c-5.3,0.6-8.8,3.9-8.5,7.7c0.3,3.3,5.2,6.7,9.3,6.3c3.4-0.3,6.4-4.5,5.8-8.3
		C32.6,88.7,29.7,87.4,26.6,87.2z"/>
	<path class="st3" d="M33.4,218.1c-5.3,0.6-8.8,3.9-8.5,7.7c0.3,3.3,5.2,6.7,9.3,6.3c3.4-0.3,6.4-4.5,5.8-8.3
		C39.4,219.7,36.5,218.3,33.4,218.1z"/>
	<path class="st9" d="M-63.6,171.2c-5.3,0.6-8.8,3.9-8.5,7.7c0.3,3.3,5.2,6.7,9.3,6.3c3.4-0.3,6.4-4.5,5.8-8.3
		C-57.6,172.8-60.5,171.4-63.6,171.2z"/>
	<path class="st3" d="M50.5,120.5c-5.3,0.6-8.8,3.9-8.5,7.7c0.3,3.3,5.2,6.7,9.3,6.3c3.4-0.3,6.4-4.5,5.8-8.3
		C56.5,122.1,53.6,120.8,50.5,120.5z"/>
	<path class="st3" d="M57.1,216.7c6.6-0.5,11-6.6,10-15c-1.1-5.6-5.2-9.5-12.2-9.5c-5.8,0-9.8,7.7-8.9,15.5
		C46.8,214.6,50.8,217.1,57.1,216.7z"/>
	<path class="st3" d="M7,142.4c4-0.3,6.7-4,6-9c-0.6-3.4-3.2-5.7-7.4-5.7c-3.5,0-5.9,4.7-5.4,9.4C0.8,141.1,3.2,142.7,7,142.4z"/>
	<ellipse class="st3" cx="-36.6" cy="213.49" rx="6.4" ry="6.4"/>
	<ellipse class="st3" cx="37.6" cy="244.49" rx="5.2" ry="5.2"/>
	<ellipse class="st3" cx="71.8" cy="129.99" rx="5.2" ry="5.2"/>
	<ellipse class="st5" cx="-36.8" cy="233.99" rx="6.4" ry="6.4"/>
	<ellipse transform="matrix(0.9911 -0.1328 0.1328 0.9911 -37.1016 1.7142)" class="st3" cx="-5.7" cy="278.99" rx="7.8" ry="7.8"/>
	<ellipse class="st5" cx="-42.7" cy="188.99" rx="3.6" ry="3.6"/>
	<ellipse class="st3" cx="-16.9" cy="221.89" rx="3.6" ry="3.6"/>
	<ellipse class="st3" cx="102.9" cy="235.19" rx="3.6" ry="3.6"/>
	<ellipse class="st3" cx="101.3" cy="121.49" rx="3.6" ry="3.6"/>
	<ellipse class="st3" cx="94" cy="177.39" rx="3.6" ry="3.6"/>
	<ellipse class="st3" cx="85.3" cy="385.18" rx="8.1" ry="8.1"/>
	<ellipse class="st3" cx="32.6" cy="142.99" rx="8.1" ry="8.1"/>
	
		<ellipse transform="matrix(0.9911 -0.1328 0.1328 0.9911 -35.731 7.8656)" class="st2" cx="41.1" cy="271.79" rx="11.3" ry="11.3"/>
	<ellipse class="st3" cx="-58.4" cy="248.59" rx="10.5" ry="10.5"/>
	<ellipse class="st9" cx="106.1" cy="467.68" rx="3.4" ry="3.4"/>
	<ellipse class="st9" cx="47.3" cy="110.5" rx="3.4" ry="3.4"/>
	<ellipse class="st5" cx="-73.7" cy="229.29" rx="3.4" ry="3.4"/>
	<ellipse class="st3" cx="40.9" cy="166.69" rx="3.4" ry="3.4"/>
	<ellipse class="st3" cx="-17.2" cy="251.09" rx="3.4" ry="3.4"/>
	<ellipse class="st3" cx="5.7" cy="388.08" rx="5" ry="5"/>
	<ellipse class="st3" cx="116.4" cy="216.09" rx="5" ry="5"/>
	<ellipse class="st9" cx="73.3" cy="267.49" rx="5.9" ry="5.9"/>
	<ellipse class="st2" cx="16.3" cy="290.99" rx="6.1" ry="6.1"/>
	<ellipse class="st2" cx="102.5" cy="199.39" rx="6.1" ry="6.1"/>
	<path class="st3" d="M45.2,153.5C46,164.9,55.1,173,66,172c8.9-0.8,14.9-7.7,13.9-16c-1-8.7-11.8-16.5-21.9-15.7
		C49.4,140.9,44.6,145.9,45.2,153.5z"/>
	<path class="st3" d="M-24.3,160.6c0.7,5.2,5.7,9,11.1,8.3c4.3-0.5,9-8.4,8.4-14.2c-0.5-5-4.4-8-9.4-7.4
		C-20.4,148-25.1,154.3-24.3,160.6z"/>
	<path class="st3" d="M24.6,159.1c-5.3,0.6-8.8,3.9-8.5,7.7c0.3,3.3,5.2,6.7,9.3,6.3c3.4-0.3,6.4-4.5,5.8-8.3
		C30.6,160.6,27.7,159.3,24.6,159.1z"/>
	<path class="st7" d="M-31.7,168.9c3.3-5.6,1.1-15.8-5.1-19.4c-7.1-4.2-11.1,0.8-14.6,6.2c-4.9,7.7-4.3,14.3,1.8,18.5
		C-44,178-35.7,175.6-31.7,168.9z"/>
	<path class="st2" d="M-14.5,457.5c-3,0.3-6.3,1.7-8.5,3.6c-5.1,4.5-5.3,12.3-0.1,19.6c6.5,9.2,10.6,9.2,18.5,3
		c4.8-4.1,5.8-9,3.3-15.6C-3.9,461.4-8.8,457-14.5,457.5z"/>
	<path class="st2" d="M74.6,466.5c5.4-4.8,5.7-13.5,0.7-19.1c-4-4.5-16.6-3.5-22.7,1.8c-5.2,4.5-5.6,11.3-1,16.4
		C57.3,472,68.2,472.4,74.6,466.5z"/>
	<path class="st9" d="M98.5,492.9c4.8,2.3,9.6,1.2,11.3-2.1c1.5-3-1-8.4-4.7-10.2c-3-1.5-7.8,0.5-9.3,4.1
		C94.2,488.5,95.9,491.1,98.5,492.9z"/>
	<ellipse class="st3" cx="-23.49" cy="443.91" rx="6.4" ry="6.4"/>
	<ellipse class="st5" cx="-6.62" cy="432.31" rx="6.4" ry="6.4"/>
	<ellipse class="st5" cx="89.83" cy="466.8" rx="3.6" ry="3.6"/>
	<ellipse class="st9" cx="66.7" cy="386.18" rx="3.4" ry="3.4"/>
	<path class="st9" d="M59.1,411.5c4.8,2.3,9.6,1.2,11.3-2.1c1.5-3-1-8.4-4.7-10.2c-3-1.5-7.8,0.5-9.3,4.1
		C54.8,407,56.5,409.7,59.1,411.5z"/>
	<ellipse class="st5" cx="50.55" cy="385.3" rx="3.6" ry="3.6"/>
	<ellipse class="st3" cx="32.7" cy="470.72" rx="8.1" ry="8.1"/>
	<ellipse class="st3" cx="17.72" cy="441.83" rx="10.5" ry="10.5"/>
	<ellipse class="st9" cx="-5.08" cy="502.22" rx="3.4" ry="3.4"/>
	
		<ellipse transform="matrix(0.7375 -0.6754 0.6754 0.7375 -249.1132 154.7629)" class="st9" cx="74.52" cy="397.82" rx="3.4" ry="3.4"/>
	<ellipse class="st5" cx="10.59" cy="465.19" rx="3.4" ry="3.4"/>
	<ellipse class="st3" cx="37.92" cy="449.43" rx="5" ry="5"/>
	<path class="st7" d="M70.1,478.3c-5.8,3-9.2,12.9-5.8,19.2c3.9,7.3,9.9,5.1,15.7,2.4c8.2-4,11.1-10,8.1-16.7
		C85.3,477,76.9,474.7,70.1,478.3z"/>
	<path class="st7" d="M107.6,541.3c-5.8,3-9.2,12.9-5.8,19.2c3.9,7.3,9.9,5.1,15.7,2.4c8.2-4,11.1-10,8.1-16.7
		C122.8,540,114.4,537.7,107.6,541.3z"/>
	<path class="st4" d="M15.6,277.6c6.2-1,9.7-5.1,9.6-11.3c0-5.2-10-12.7-15.8-11c-3.8,1.1-7.6,3.2-8.5,9.1S9.1,278.7,15.6,277.6z"/>
	<path class="st3" d="M78.7,190.8c5.5-2.1,6.1-5.9,6.2-10c0.1-3.8-2.8-8.6-8.2-7.9c-12.3,1.7-11.2,10.3-9.4,13.5
		C69.2,189.6,73.2,192.9,78.7,190.8z"/>
	<ellipse class="st5" cx="31.2" cy="184.79" rx="7.4" ry="7.4"/>
	<ellipse class="st5" cx="77.4" cy="204.29" rx="3.4" ry="3.4"/>
	<ellipse class="st3" cx="53.8" cy="182.89" rx="3.4" ry="3.4"/>
	<ellipse class="st3" cx="-26" cy="140.09" rx="3.4" ry="3.4"/>
	<ellipse class="st5" cx="-9.6" cy="133.09" rx="3.4" ry="3.4"/>
	<ellipse class="st3" cx="33" cy="206.79" rx="5" ry="5"/>
	<ellipse class="st2" cx="2.8" cy="346.09" rx="6.1" ry="6.1"/>
	<path class="st3" d="M72.3,429.4c0.1-5.4-2.9-9.2-6.6-9.3c-3.3-0.1-7.2,4.4-7.3,8.5c-0.1,3.4,3.7,6.9,7.6,6.8
		C70,435.2,71.7,432.5,72.3,429.4z"/>
	<path class="st7" d="M35.9,406.4c-0.3-6.5-7.8-13.7-15-13.3c-8.2,0.5-8.8,6.8-8.7,13.3c0.2,9.2,4.4,14.3,11.7,14.4
		C30.7,420.8,36.3,414.1,35.9,406.4z"/>
	<path class="st3" d="M96.7,412.3c0.1-6.3-4.2-10.5-10.8-10.6c-6.5-0.1-10.7,4-10.7,10.6c0,5.5,4.4,9.1,11.2,9.2
		C92.7,421.5,96.6,418,96.7,412.3z"/>
	<ellipse transform="matrix(0.9999 -0.014 0.014 0.9999 -5.8968 0.6751)" class="st9" cx="45.2" cy="420.9" rx="7.7" ry="7.7"/>
	<ellipse class="st7" cx="102.8" cy="396.6" rx="7.1" ry="7.1"/>
	<ellipse class="st5" cx="80.5" cy="441.3" rx="3.4" ry="3.4"/>
	<ellipse class="st3" cx="45.9" cy="437" rx="3.4" ry="3.4"/>
	<path class="st2" d="M-102.1,82.7c1.3,10.3,11.3,17.3,22.5,15.8c8.8-1.2,13.9-8.4,12.7-17.9c-1.3-10-9.6-16-20.4-14.7
		C-96.9,67.1-103.2,74.1-102.1,82.7z"/>
	<path class="st2" d="M-15.5,67.6C-14.2,78-4.3,84.9,7,83.4c8.8-1.2,13.9-8.4,12.7-17.9c-1.3-10-9.6-16-20.4-14.7
		C-10.4,52-16.6,59-15.5,67.6z"/>
	<path class="st10" d="M-8.3,18.9c-1.8-5-6.6-7-12.5-4.9c-5.1,1.8-8.1,7.5-6.4,12.3c1.5,4.3,7.3,6.3,12.8,4.3
		C-9.2,28.7-6.6,23.9-8.3,18.9z"/>
	<path class="st3" d="M-61.9,2.2c-5.3,0.6-8.8,3.9-8.5,7.7c0.3,3.3,5.2,6.7,9.3,6.3c3.4-0.3,6.4-4.5,5.8-8.3
		C-55.9,3.7-58.8,2.4-61.9,2.2z"/>
	<path class="st9" d="M7.5,7.8C2.2,8.4-1.3,11.7-1,15.5c0.3,3.3,5.2,6.7,9.3,6.3c3.4-0.3,6.4-4.5,5.8-8.3C13.5,9.4,10.6,8,7.5,7.8z"
		/>
	<path class="st3" d="M5.4,29.2c-5.3,0.6-8.8,3.9-8.5,7.7c0.3,3.3,5.2,6.7,9.3,6.3c3.4-0.3,6.4-4.5,5.8-8.3
		C11.4,30.7,8.5,29.4,5.4,29.2z"/>
	<path class="st3" d="M-91.4,79.8c4-0.3,6.7-4,6-9c-0.6-3.4-3.2-5.7-7.4-5.7c-3.5,0-5.9,4.7-5.4,9.4C-97.6,78.6-95.2,80.1-91.4,79.8
		z"/>
	<ellipse class="st3" cx="-16.7" cy="45" rx="5.2" ry="5.2"/>
	<ellipse class="st5" cx="161.09" cy="215.29" rx="3.6" ry="3.6"/>
	<ellipse class="st9" cx="-11.4" cy="3.9" rx="3.4" ry="3.4"/>
	<path class="st4" d="M191.9,925.5c-5.2,10.7-1.3,22.6,9,27.4c8.4,3.9,17.3,0.9,20.8-7.1c3.7-8.3-1.9-20.9-11.4-25.4
		C202.2,916.5,195.4,918.4,191.9,925.5z"/>
	<path class="st3" d="M152.7,930.3c-2.2,5,0.2,11,5.3,13.4c4.1,1.9,12.5-2.6,15.1-8.1c2.2-4.7,0.4-9.5-4.3-11.6
		C163,921.3,155.4,924.3,152.7,930.3z"/>
	<path class="st3" d="M-20,903c-5-2.4-9.9-1.3-11.7,2.2c-1.5,3.1,1,8.7,4.8,10.6c3.2,1.5,8.1-0.5,9.6-4.2
		C-15.5,907.6-17.4,904.8-20,903z"/>
	<path class="st3" d="M23.4,915.9c-5-2.4-9.9-1.3-11.7,2.2c-1.5,3.1,1,8.7,4.8,10.6c3.2,1.5,8.1-0.5,9.6-4.2
		C27.8,920.5,26,917.7,23.4,915.9z"/>
	<path class="st7" d="M21.7,960.7c6-3.2,9.5-13.3,6-19.9c-4-7.5-10.3-5.3-16.3-2.5c-8.5,4.2-11.5,10.3-8.4,17.3
		C5.9,962.1,14.6,964.4,21.7,960.7z"/>
	<path class="st7" d="M36.2,895.5c-4.2-1.6-10.8,1-12.6,5.6c-2.1,5.2,1.8,7.4,5.8,9.2c5.8,2.5,10.1,1.3,12.3-3.2
		C43.7,902.8,41.2,897.5,36.2,895.5z"/>
	<path class="st3" d="M-52,921.6c-7.2-3.4-14.2-0.7-17.9,6.9c-3.6,7.4-1,14.4,6.5,17.9c6.3,2.9,12.8-0.3,16.4-8.1
		C-43.5,931-45.5,924.7-52,921.6z"/>
	<path class="st3" d="M-70.8,961.3c-2.8,7.7,3.5,10.3,7.3,13c9.4,4.3,16.8,2.5,19.5-4.3c3.2-8.2-2.8-11.6-8.3-14.5
		C-59.4,951.8-68.3,954.7-70.8,961.3z"/>
	<path class="st4" d="M72,966.9c6,2.5,11.3,0.7,14.6-4.8c2.8-4.6-2-16.6-8-18.2c-3.9-1-8.5-1.3-12.4,3.4
		C62.3,952,65.7,964.3,72,966.9z"/>
	
		<ellipse transform="matrix(0.4033 -0.9151 0.9151 0.4033 -706.462 634.6729)" class="st5" cx="133.41" cy="859.03" rx="7.7" ry="7.7"/>
	<ellipse class="st3" cx="214.68" cy="902.32" rx="8" ry="8"/>
	
		<ellipse transform="matrix(0.4033 -0.9151 0.9151 0.4033 -804.1866 653.5211)" class="st5" cx="99" cy="943.38" rx="3.7" ry="3.7"/>
	<path class="st5" d="M195.2,911.5c4.4-5.3-0.1-13.7-6.4-16.5c-6.3-2.8-13.7,0.1-16.5,6.4c-2.8,6.3-0.2,14.4,6.4,16.5
		C185.3,919.9,190.8,916.8,195.2,911.5z"/>
	<ellipse class="st5" cx="1.89" cy="928.42" rx="3.5" ry="3.5"/>
	<ellipse class="st3" cx="36.98" cy="920.32" rx="3.5" ry="3.5"/>
	<ellipse class="st3" cx="-6.98" cy="939.87" rx="3.5" ry="3.5"/>
	<ellipse class="st3" cx="207.06" cy="851.71" rx="3.5" ry="3.5"/>
	<ellipse class="st3" cx="47.16" cy="891.7" rx="3.5" ry="3.5"/>
	<ellipse class="st3" cx="42.29" cy="938.33" rx="3.5" ry="3.5"/>
	<ellipse class="st5" cx="60.59" cy="941.02" rx="3.5" ry="3.5"/>
	
		<ellipse transform="matrix(0.4033 -0.9151 0.9151 0.4033 -671.9531 727.2136)" class="st5" cx="221.62" cy="878.84" rx="5.9" ry="5.9"/>
	
		<ellipse transform="matrix(0.8034 -0.5954 0.5954 0.8034 -497.7749 323.8007)" class="st5" cx="241.48" cy="915.74" rx="5.4" ry="5.4"/>
	<ellipse class="st3" cx="257.61" cy="924.48" rx="8" ry="8"/>
	<ellipse class="st2" cx="258.41" cy="952.44" rx="6.3" ry="6.3"/>
	
		<ellipse transform="matrix(0.4033 -0.9151 0.9151 0.4033 -771.7932 597.132)" class="st2" cx="71.96" cy="890.35" rx="6.3" ry="6.3"/>
	<path class="st2" d="M-7.4,889.6c-3.1,6.8,0.2,15.2,7.3,18.4c5.7,2.6,17.2-3.6,20.8-11.1c3-6.4,0.6-13.1-5.9-16
		C6.7,877.2-3.7,881.3-7.4,889.6z"/>
	<path class="st9" d="M78.5,931.6c3,4.7,7.8,6.3,11.1,4.2c2.9-1.8,3.7-8,1.4-11.6c-1.9-3-7.2-3.8-10.4-1.4
		C77.1,925.3,77.2,928.6,78.5,931.6z"/>
	
		<ellipse transform="matrix(0.8212 -0.5706 0.5706 0.8212 -500.5514 210.1435)" class="st5" cx="85.08" cy="903.87" rx="3.7" ry="3.7"/>
	<ellipse class="st9" cx="-18.13" cy="883.81" rx="3.5" ry="3.5"/>
	<path class="st7" d="M61.3,903.3c-6.8-0.4-15.1,6.4-15.5,13.9c-0.5,8.5,6,9.9,12.6,10.6c9.5,0.9,15.2-2.8,16.2-10.4
		C75.5,910.3,69.3,903.8,61.3,903.3z"/>
	<ellipse class="st5" cx="90.55" cy="876.22" rx="3.5" ry="3.5"/>
	
		<ellipse transform="matrix(0.9755 -0.2201 0.2201 0.9755 -95.4371 63.5994)" class="st3" cx="237.7" cy="460.1" rx="3.7" ry="3.7"/>
	<ellipse class="st9" cx="167.81" cy="599.92" rx="3.5" ry="3.5"/>
	<ellipse class="st5" cx="134.7" cy="625.01" rx="3.5" ry="3.5"/>
	<ellipse class="st5" cx="182.7" cy="562.82" rx="3.5" ry="3.5"/>
	<ellipse class="st3" cx="139.59" cy="603.72" rx="3.5" ry="3.5"/>
	<ellipse class="st3" cx="84.51" cy="724.32" rx="3.5" ry="3.5"/>
	<ellipse class="st3" cx="83.5" cy="576.51" rx="3.5" ry="3.5"/>
	<path class="st3" d="M139.5,556.1c-11.7,1.9-19.2,12-17.2,23.2c1.7,9.1,9.3,14.6,17.8,12.9c8.9-1.8,15.9-13.7,14.2-24
		C152.8,559.3,147.3,554.8,139.5,556.1z"/>
	<path class="st3" d="M76.5,632.1c-11.7,1.9-19.2,12-17.2,23.2c1.7,9.1,9.3,14.6,17.8,12.9c8.9-1.8,15.9-13.7,14.2-24
		C89.8,635.3,84.3,630.8,76.5,632.1z"/>
	<ellipse class="st3" cx="102.2" cy="582.71" rx="8" ry="8"/>
	<ellipse class="st9" cx="165.31" cy="474" rx="3.5" ry="3.5"/>
	
		<ellipse transform="matrix(0.9755 -0.2201 0.2201 0.9755 -115.7236 68.3353)" class="st3" cx="248.81" cy="553.51" rx="5.2" ry="5.2"/>
	<path class="st2" d="M202.4,435.8c-10.5,2.3-16.8,13.2-14.2,24.7c2,9,10,13.6,19.6,11.4c10.2-2.3,15.6-11.4,13.3-22.4
		C219,439.7,211.2,433.9,202.4,435.8z"/>
	<path class="st10" d="M287.3,488.7c5.1-2.3,6.6-7.5,3.9-13.3c-2.3-5.1-8.5-7.7-13.3-5.5c-4.3,2-5.8,8.1-3.3,13.6
		C277.2,488.8,282.4,490.9,287.3,488.7z"/>
	<path class="st2" d="M175.9,403.8c2.8,1.3,6.5,1.7,9.5,1.1c6.9-1.4,11.1-8.3,10.2-17.6c-1.1-11.6-4.8-13.7-15.1-12.2
		c-6.4,1.3-9.8,5.1-11,12.3C168.3,394.8,170.5,401.3,175.9,403.8z"/>
	<path class="st2" d="M155.6,514.6c-7.3,1.6-12,9.2-10.4,16.8c1.3,6.1,13.1,11.7,21.3,10.1c7-1.4,10.8-7.3,9.3-14.3
		C173.9,518.7,164.4,512.7,155.6,514.6z"/>
	<path class="st3" d="M178.7,493.4c-1.1-5.5-4.9-8.7-8.7-8.1c-3.4,0.6-6.4,6-5.6,10.2c0.6,3.5,5.2,6.2,9.1,5.2
		C177.7,499.8,178.8,496.6,178.7,493.4z"/>
	<path class="st3" d="M137.2,511.4c-1.1-5.5-4.9-8.7-8.7-8.1c-3.4,0.6-6.4,6-5.6,10.2c0.6,3.5,5.2,6.2,9.1,5.2
		C136.2,517.8,137.3,514.6,137.2,511.4z"/>
	<path class="st9" d="M218.2,389c-1.1-5.5-4.9-8.7-8.7-8.1c-3.4,0.6-6.4,6-5.6,10.2c0.6,3.5,5.2,6.2,9.1,5.2
		C217.1,395.3,218.3,392.2,218.2,389z"/>
	<path class="st3" d="M281,502.1c-1.1-5.5-4.9-8.7-8.7-8.1c-3.4,0.6-6.4,6-5.6,10.2c0.6,3.5,5.2,6.2,9.1,5.2
		C279.9,508.4,281.1,505.3,281,502.1z"/>
	<path class="st3" d="M182.4,517.8c1.1,6.8,7.8,10.8,16.4,8.9c5.7-1.6,9.3-6.3,8.7-13.5c-0.5-6-8.9-9.4-16.8-7.8
		C183.6,506.9,181.3,511.3,182.4,517.8z"/>
	<path class="st3" d="M254.5,459.2c0.7,4.1,4.7,6.5,9.9,5.4c3.4-1,5.6-3.8,5.3-8.1c-0.3-3.6-5.4-5.7-10.2-4.7
		C255.2,452.6,253.8,455.3,254.5,459.2z"/>
	<ellipse class="st3" cx="177" cy="420.71" rx="6.6" ry="6.6"/>
	<ellipse class="st3" cx="151.81" cy="500.21" rx="5.4" ry="5.4"/>
	
		<ellipse transform="matrix(0.9755 -0.2201 0.2201 0.9755 -108.854 73.0059)" class="st3" cx="273.21" cy="525.02" rx="5.4" ry="5.4"/>
	
		<ellipse transform="matrix(0.9823 -0.1875 0.1875 0.9823 -97.1889 33.1824)" class="st3" cx="126.8" cy="530.3" rx="5.4" ry="5.4"/>
	
		<ellipse transform="matrix(0.9755 -0.2201 0.2201 0.9755 -85.7806 54.5031)" class="st5" cx="201.71" cy="412.22" rx="3.7" ry="3.7"/>
	<ellipse class="st5" cx="282.22" cy="453.4" rx="3.7" ry="3.7"/>
	
		<ellipse transform="matrix(0.9755 -0.2201 0.2201 0.9755 -93.0716 48.272)" class="st3" cx="170.1" cy="441.82" rx="3.7" ry="3.7"/>
	
		<ellipse transform="matrix(0.9755 -0.2201 0.2201 0.9755 -120.6274 50.7427)" class="st3" cx="167.41" cy="566.72" rx="3.7" ry="3.7"/>
	
		<ellipse transform="matrix(0.9755 -0.2201 0.2201 0.9755 -114.8036 35.8067)" class="st3" cx="103.29" cy="533.12" rx="3.7" ry="3.7"/>
	<ellipse class="st3" cx="284.71" cy="554.71" rx="3.7" ry="3.7"/>
	
		<ellipse transform="matrix(0.9755 -0.2201 0.2201 0.9755 -115.9912 63.3488)" class="st3" cx="226.3" cy="552.22" rx="3.7" ry="3.7"/>
	<ellipse class="st3" cx="256.12" cy="485.72" rx="8.4" ry="8.4"/>
	<ellipse class="st9" cx="291.11" cy="497.91" rx="3.5" ry="3.5"/>
	<ellipse class="st3" cx="232.4" cy="496.42" rx="3.5" ry="3.5"/>
	
		<ellipse transform="matrix(0.9755 -0.2201 0.2201 0.9755 -122.7947 55.6641)" class="st3" cx="188.41" cy="578.91" rx="5.2" ry="5.2"/>
	
		<ellipse transform="matrix(0.9755 -0.2201 0.2201 0.9755 -118.9027 58.7914)" class="st2" cx="204.39" cy="563.01" rx="6.3" ry="6.3"/>
	<path class="st3" d="M246.5,499.6c-11.7,1.9-19.2,12-17.2,23.2c1.7,9.1,9.3,14.6,17.8,12.9c8.9-1.8,15.9-13.7,14.2-24
		C259.8,502.9,254.3,498.4,246.5,499.6z"/>
	<path class="st3" d="M232.8,428.6c-5.3,1.2-8.7,6.7-7.6,12.2c0.9,4.4,9.5,8.5,15.5,7.3c5.1-1,7.9-5.3,6.8-10.4
		C246.1,431.5,239.2,427.2,232.8,428.6z"/>
	<path class="st3" d="M238.9,478.9c-1.1-5.5-4.9-8.7-8.7-8.1c-3.4,0.6-6.4,6-5.6,10.2c0.6,3.5,5.2,6.2,9.1,5.2
		C237.8,485.2,238.9,482.1,238.9,478.9z"/>
	<path class="st7" d="M223.5,421.7c6.1,2.9,16.4-0.3,19.6-7c3.7-7.7-1.8-11.4-7.7-14.5c-8.4-4.4-15.1-3.1-18.9,3.5
		C213,409.8,216.3,418.2,223.5,421.7z"/>
	<path class="st3" d="M211.1,537.6c2.7,5.5,6.7,5.8,10.9,5.5c4-0.2,8.7-3.7,7.4-9.1c-2.8-12.6-11.7-10.6-14.8-8.5
		S208.4,532.1,211.1,537.6z"/>
	
		<ellipse transform="matrix(0.9755 -0.2201 0.2201 0.9755 -102.21 58.8284)" class="st5" cx="212.9" cy="488.11" rx="7.7" ry="7.7"/>
	
		<ellipse transform="matrix(0.9755 -0.2201 0.2201 0.9755 -116.3624 43.8042)" class="st5" cx="138.4" cy="544.11" rx="7.7" ry="7.7"/>
	<ellipse class="st5" cx="197.01" cy="537.6" rx="3.5" ry="3.5"/>
	<ellipse class="st3" cx="216.89" cy="511.21" rx="3.5" ry="3.5"/>
	<ellipse transform="matrix(0.9981 -0.061 0.061 0.9981 -25.4474 16.2665)" class="st3" cx="253.7" cy="424.92" rx="3.5" ry="3.5"/>
	<ellipse class="st5" cx="262.51" cy="441.21" rx="3.5" ry="3.5"/>
	<ellipse transform="matrix(0.9755 -0.2201 0.2201 0.9755 -103.6183 53.9718)" class="st3" cx="190.4" cy="492" rx="5.2" ry="5.2"/>
	
		<ellipse transform="matrix(0.0786 -0.9969 0.9969 0.0786 -645.4938 1041.9547)" class="st5" cx="240.95" cy="870.19" rx="3.4" ry="3.4"/>
	<path class="st3" d="M176.5,655.7c-4.4,3.4-5.7,8.2-3.4,11.4c2.1,2.8,8.2,3.1,11.6,0.5c2.8-2.1,3.3-7.4,0.7-10.5
		C182.6,653.8,179.3,654.2,176.5,655.7z"/>
	<path class="st2" d="M128.7,661c6.7,8.5,19.3,9.3,28.4,1.9c7.1-5.8,7.8-15,1.6-22.7c-6.5-8.1-17.1-9-25.9-2.1
		C124.8,644.4,123.1,654,128.7,661z"/>
	<path class="st10" d="M108.9,614c-4.3-3.5-9.6-2.6-13.7,2.4c-3.6,4.3-3.1,11,1,14.3c3.7,3,9.8,1.6,13.6-3.1
		C113.4,623.1,113,617.5,108.9,614z"/>
	<path class="st9" d="M116.9,595.6c-4.4,3.4-5.7,8.2-3.4,11.4c2.1,2.8,8.2,3.1,11.6,0.5c2.8-2.1,3.3-7.4,0.7-10.5
		C123,593.8,119.8,594.1,116.9,595.6z"/>
	
		<ellipse transform="matrix(0.7785 -0.6277 0.6277 0.7785 -377.1239 214.6393)" class="st3" cx="115.52" cy="641.59" rx="5.4" ry="5.4"/>
	<ellipse class="st9" cx="300.7" cy="594.51" rx="3.5" ry="3.5"/>
	<path class="st6" d="M26.2,720.7c-3.3,7.4,0.3,16.4,7.9,19.9c6.1,2.8,18.6-3.9,22.4-12c3.3-7,0.6-14.1-6.4-17.3
		C41.5,707.4,30.2,711.9,26.2,720.7z"/>
	<path class="st3" d="M73.3,728.9c-5-2.4-9.9-1.3-11.7,2.2c-1.5,3.1,1,8.7,4.8,10.6c3.2,1.5,8.1-0.5,9.6-4.2
		C77.8,733.5,75.9,730.8,73.3,728.9z"/>
	
		<ellipse transform="matrix(0.4202 -0.9075 0.9075 0.4202 -648.3842 494.4203)" class="st3" cx="62.69" cy="754.57" rx="5.4" ry="5.4"/>
	<ellipse class="st3" cx="5.86" cy="761.75" rx="8" ry="8"/>
	
		<ellipse transform="matrix(0.4033 -0.9151 0.9151 0.4033 -672.0021 611.0971)" class="st3" cx="132.57" cy="820.81" rx="3.7" ry="3.7"/>
	
		<ellipse transform="matrix(0.4033 -0.9151 0.9151 0.4033 -683.7856 512.5347)" class="st2" cx="51.1" cy="780.57" rx="11.7" ry="11.7"/>
	<ellipse class="st8" cx="74.62" cy="804.27" rx="3.5" ry="3.5"/>
	<ellipse class="st3" cx="10.75" cy="730.78" rx="3.5" ry="3.5"/>
	
		<ellipse transform="matrix(0.4033 -0.9151 0.9151 0.4033 -689.9262 588.9186)" class="st9" cx="106.6" cy="823.47" rx="6.1" ry="6.1"/>
	
		<ellipse transform="matrix(0.3939 -0.9191 0.9191 0.3939 -709.3176 492.4724)" class="st2" cx="18.77" cy="784.1" rx="6.3" ry="6.3"/>
	<path class="st8" d="M152,844.4c-1.9,4.2,0.2,9.3,4.5,11.3c3.5,1.6,10.6-2.2,12.7-6.8c1.9-4,0.4-8-3.6-9.8
		C160.7,836.8,154.3,839.3,152,844.4z"/>
	
		<ellipse transform="matrix(0.4033 -0.9151 0.9151 0.4033 -651.8405 551.9755)" class="st5" cx="97.31" cy="775.79" rx="8.4" ry="8.4"/>
	<ellipse class="st3" cx="120.52" cy="771.77" rx="3.5" ry="3.5"/>
	
		<ellipse transform="matrix(0.4033 -0.9151 0.9151 0.4033 -676.9052 572.0842)" class="st3" cx="100.2" cy="805.07" rx="5.2" ry="5.2"/>
	<ellipse class="st3" cx="2.9" cy="823.08" rx="3.5" ry="3.5"/>
	<path class="st2" d="M-14,822.4c-2.8-1.4-6.5-1.9-9.5-1.4c-7,1.2-11.3,8-10.7,17.3c0.8,11.6,4.4,13.8,14.7,12.6
		c6.4-1.1,10-4.8,11.4-12C-6.7,831.6-8.7,825-14,822.4z"/>
	<path class="st2" d="M59.9,878.5c7.3-1.4,12.3-8.9,10.9-16.5c-1.1-6.1-12.8-12.1-21-10.7c-7,1.2-11.1,7-9.8,14
		C41.7,874,51.1,880.2,59.9,878.5z"/>
	
		<ellipse transform="matrix(0.9814 -0.192 0.192 0.9814 -154.9273 12.1785)" class="st3" cx="-14.62" cy="805.5" rx="6.6" ry="6.6"/>
	<ellipse transform="matrix(0.9814 -0.192 0.192 0.9814 -154.323 16.2275)" class="st5" cx="6.57" cy="804.41" rx="6.6" ry="6.6"/>
	<ellipse transform="matrix(0.9814 -0.192 0.192 0.9814 -164.6435 19.939)" class="st3" cx="20.56" cy="859.51" rx="8.4" ry="8.4"/>
	
		<ellipse transform="matrix(0.9794 -0.202 0.202 0.9794 -166.3405 21.6621)" class="st3" cx="22.96" cy="825.8" rx="10.9" ry="10.9"/>
	<ellipse class="st5" cx="3.97" cy="842.81" rx="3.5" ry="3.5"/>
	
		<ellipse transform="matrix(0.9814 -0.192 0.192 0.9814 -161.2714 22.7352)" class="st3" cx="36.68" cy="843.51" rx="5.2" ry="5.2"/>
	<path class="st3" d="M77.9,844.5c3-4.7,2.4-9.7-0.8-11.8c-2.9-1.9-8.8,0-11.1,3.6c-1.9,2.9-0.4,8.1,3,10.1
		C72.8,848.3,75.8,846.9,77.9,844.5z"/>
	<ellipse class="st9" cx="58.53" cy="822.23" rx="8" ry="8"/>
	<ellipse class="st3" cx="50.54" cy="836.88" rx="3.5" ry="3.5"/>
	<ellipse class="st3" cx="110.33" cy="727.33" rx="8" ry="8"/>
	
		<ellipse transform="matrix(0.4022 -0.9156 0.9156 0.4022 -664.9018 431.6822)" class="st3" cx="-1.89" cy="724.98" rx="3.7" ry="3.7"/>
	<path class="st3" d="M112.8,838.6c-7.2-3.4-14.2-0.7-17.9,6.9c-3.6,7.4-1,14.4,6.5,17.9c6.3,2.9,12.8-0.3,16.4-8.1
		C121.2,848,119.3,841.7,112.8,838.6z"/>
	<path class="st4" d="M89.2,760c6,2.5,11.3,0.7,14.6-4.8c2.8-4.6-2-16.6-8-18.2c-3.9-1-8.5-1.3-12.4,3.4S82.9,757.4,89.2,760z"/>
	
		<ellipse transform="matrix(0.3989 -0.917 0.917 0.3989 -681.6686 442.1715)" class="st3" cx="-3.55" cy="741.05" rx="5.2" ry="5.2"/>
	<ellipse class="st3" cx="132.3" cy="725.44" rx="3.5" ry="3.5"/>
	
		<ellipse transform="matrix(0.4116 -0.9114 0.9114 0.4116 -671.8616 471.5065)" class="st3" cx="29.22" cy="756.07" rx="8.4" ry="8.4"/>
	
		<ellipse transform="matrix(0.4033 -0.9151 0.9151 0.4033 -613.1848 562.9581)" class="st3" cx="125.06" cy="751.65" rx="5.2" ry="5.2"/>
	<ellipse class="st9" cx="-23.12" cy="752.31" rx="3.5" ry="3.5"/>
	
		<ellipse transform="matrix(0.4033 -0.9151 0.9151 0.4033 -672.7874 541.3669)" class="st2" cx="78.71" cy="786.55" rx="6.3" ry="6.3"/>
	
		<ellipse transform="matrix(0.5092 -0.8607 0.8607 0.5092 -663.9096 323.1961)" class="st7" cx="-48.59" cy="743.68" rx="7.4" ry="7.4"/>
	<path class="st8" d="M99.7,922.2c7.2,3.3,13.9,0.7,17.1-6.7c3.6-8.3,1.9-14.3-5.2-17.6c-7.3-3.3-15.3-1-18,5.3
		C90.6,910.4,93.6,919.4,99.7,922.2z"/>
	<path class="st3" d="M122.6,885.8c1.9-4.2-0.3-7.4-4.3-11c-3.4-3.1-9.2,0.1-11,4.3s0.1,9.2,4.3,11
		C115.8,892,120.7,890.1,122.6,885.8z"/>
	
		<ellipse transform="matrix(0.4033 -0.9151 0.9151 0.4033 -703.3536 665.9695)" class="st3" cx="158.96" cy="872.29" rx="10.9" ry="10.9"/>
	<ellipse class="st9" cx="135.06" cy="879.21" rx="3.5" ry="3.5"/>
	<ellipse class="st3" cx="122.94" cy="924.89" rx="3.5" ry="3.5"/>
	<ellipse class="st3" cx="140.22" cy="924.47" rx="3.5" ry="3.5"/>
	<path class="st7" d="M160.2,910.4c3.2-5.9,0.5-16.4-6.1-19.9c-7.5-4-11.5,1.3-14.9,7c-4.8,8.2-3.8,15,2.6,19
		C147.8,920.4,156.3,917.5,160.2,910.4z"/>
	<path class="st3" d="M2.83,1044.59"/>
	<path class="st4" d="M245.33,1091.29c-5.2,10.7-1.3,22.6,9,27.4c8.4,3.9,17.3,0.9,20.8-7.1c3.7-8.3-1.9-20.9-11.4-25.4
		C255.63,1082.29,248.83,1084.19,245.33,1091.29z"/>
	<path class="st3" d="M206.13,1096.09c-2.2,5,0.2,11,5.3,13.4c4.1,1.9,12.5-2.6,15.1-8.1c2.2-4.7,0.4-9.5-4.3-11.6
		C216.43,1087.09,208.83,1090.09,206.13,1096.09z"/>
	<path class="st3" d="M33.43,1068.79c-5-2.4-9.9-1.3-11.7,2.2c-1.5,3.1,1,8.7,4.8,10.6c3.2,1.5,8.1-0.5,9.6-4.2
		C37.93,1073.39,36.03,1070.59,33.43,1068.79z"/>
	<path class="st3" d="M76.83,1081.69c-5-2.4-9.9-1.3-11.7,2.2c-1.5,3.1,1,8.7,4.8,10.6c3.2,1.5,8.1-0.5,9.6-4.2
		C81.23,1086.29,79.43,1083.49,76.83,1081.69z"/>
	<path class="st7" d="M75.13,1126.49c6-3.2,9.5-13.3,6-19.9c-4-7.5-10.3-5.3-16.3-2.5c-8.5,4.2-11.5,10.3-8.4,17.3
		C59.33,1127.89,68.03,1130.19,75.13,1126.49z"/>
	<path class="st7" d="M89.63,1061.29c-4.2-1.6-10.8,1-12.6,5.6c-2.1,5.2,1.8,7.4,5.8,9.2c5.8,2.5,10.1,1.3,12.3-3.2
		C97.13,1068.59,94.63,1063.29,89.63,1061.29z"/>
	<path class="st3" d="M1.43,1087.39c-7.2-3.4-14.2-0.7-17.9,6.9c-3.6,7.4-1,14.4,6.5,17.9c6.3,2.9,12.8-0.3,16.4-8.1
		C9.93,1096.79,7.93,1090.49,1.43,1087.39z"/>
	<path class="st3" d="M-17.37,1127.09c-2.8,7.7,3.5,10.3,7.3,13c9.4,4.3,16.8,2.5,19.5-4.3c3.2-8.2-2.8-11.6-8.3-14.5
		C-5.97,1117.59-14.87,1120.49-17.37,1127.09z"/>
	<path class="st4" d="M125.43,1132.69c6,2.5,11.3,0.7,14.6-4.8c2.8-4.6-2-16.6-8-18.2c-3.9-1-8.5-1.3-12.4,3.4
		S119.13,1130.09,125.43,1132.69z"/>
	
		<ellipse transform="matrix(0.4033 -0.9151 0.9151 0.4033 -826.2946 782.4912)" class="st5" cx="186.84" cy="1024.82" rx="7.7" ry="7.7"/>
	<ellipse class="st3" cx="268.11" cy="1068.11" rx="8" ry="8"/>
	
		<ellipse transform="matrix(0.4033 -0.9151 0.9151 0.4033 -924.0193 801.3394)" class="st5" cx="152.43" cy="1109.17" rx="3.7" ry="3.7"/>
	<path class="st5" d="M248.63,1077.29c4.4-5.3-0.1-13.7-6.4-16.5c-6.3-2.8-13.7,0.1-16.5,6.4s-0.2,14.4,6.4,16.5
		C238.73,1085.69,244.23,1082.59,248.63,1077.29z"/>
	<ellipse class="st5" cx="55.32" cy="1094.21" rx="3.5" ry="3.5"/>
	<ellipse class="st3" cx="90.41" cy="1086.11" rx="3.5" ry="3.5"/>
	<ellipse class="st3" cx="46.44" cy="1105.67" rx="3.5" ry="3.5"/>
	<ellipse class="st3" cx="260.49" cy="1017.5" rx="3.5" ry="3.5"/>
	<ellipse class="st3" cx="100.58" cy="1057.49" rx="3.5" ry="3.5"/>
	<ellipse class="st3" cx="95.72" cy="1104.12" rx="3.5" ry="3.5"/>
	<ellipse class="st5" cx="114.01" cy="1106.81" rx="3.5" ry="3.5"/>
	
		<ellipse transform="matrix(0.4033 -0.9151 0.9151 0.4033 -791.7857 875.0319)" class="st5" cx="275.05" cy="1044.63" rx="5.9" ry="5.9"/>
	
		<ellipse transform="matrix(0.8034 -0.5954 0.5954 0.8034 -585.9876 388.2025)" class="st5" cx="294.91" cy="1081.54" rx="5.4" ry="5.4"/>
	<ellipse class="st3" cx="311.04" cy="1090.27" rx="8" ry="8"/>
	<ellipse class="st3" cx="355.84" cy="1087.57" rx="3.7" ry="3.7"/>
	
		<ellipse transform="matrix(0.8034 -0.5954 0.5954 0.8034 -588.8166 413.7896)" class="st9" cx="332.24" cy="1098.61" rx="4.9" ry="4.9"/>
	<ellipse class="st8" cx="380.64" cy="1081.25" rx="3.5" ry="3.5"/>
	
		<ellipse transform="matrix(0.0786 -0.9969 0.9969 0.0786 -735.0111 1332.488)" class="st2" cx="353.36" cy="1063.88" rx="6.1" ry="6.1"/>
	<ellipse class="st2" cx="311.84" cy="1118.23" rx="6.3" ry="6.3"/>
	
		<ellipse transform="matrix(0.4033 -0.9151 0.9151 0.4033 -891.6259 744.9504)" class="st2" cx="125.39" cy="1056.14" rx="6.3" ry="6.3"/>
	<path class="st2" d="M46.03,1055.39c-3.1,6.8,0.2,15.2,7.3,18.4c5.7,2.6,17.2-3.6,20.8-11.1c3-6.4,0.6-13.1-5.9-16
		C60.13,1042.99,49.73,1047.09,46.03,1055.39z"/>
	<path class="st9" d="M131.93,1097.39c3,4.7,7.8,6.3,11.1,4.2c2.9-1.8,3.7-8,1.4-11.6c-1.9-3-7.2-3.8-10.4-1.4
		C130.53,1091.09,130.63,1094.39,131.93,1097.39z"/>
	
		<ellipse transform="matrix(0.8212 -0.5706 0.5706 0.8212 -585.6033 270.2693)" class="st5" cx="138.51" cy="1069.67" rx="3.7" ry="3.7"/>
	<ellipse class="st9" cx="35.3" cy="1049.6" rx="3.5" ry="3.5"/>
	<path class="st7" d="M114.73,1069.09c-6.8-0.4-15.1,6.4-15.5,13.9c-0.5,8.5,6,9.9,12.6,10.6c9.5,0.9,15.2-2.8,16.2-10.4
		C128.93,1076.09,122.73,1069.59,114.73,1069.09z"/>
	<ellipse class="st5" cx="143.97" cy="1042.01" rx="3.5" ry="3.5"/>
	<path class="st8" d="M379.33,1067.79c2.5,3.4,7.4,4.1,10.9,1.5c2.8-2,3-9.3,0.3-13.1c-2.3-3.2-6.2-3.9-9.4-1.6
		C377.23,1057.59,376.33,1063.79,379.33,1067.79z"/>
	<ellipse class="st3" cx="327.13" cy="1049.21" rx="6" ry="6"/>
	<ellipse class="st3" cx="374.57" cy="1040.06" rx="7.3" ry="7.3"/>
	
		<ellipse transform="matrix(0.8034 -0.5954 0.5954 0.8034 -586.848 443.4219)" class="st3" cx="378.1" cy="1110.45" rx="3.4" ry="3.4"/>
	
		<ellipse transform="matrix(0.0786 -0.9969 0.9969 0.0786 -761.5488 1247.9691)" class="st5" cx="294.37" cy="1035.98" rx="3.4" ry="3.4"/>
	<ellipse class="st5" cx="346.69" cy="1034.55" rx="3.2" ry="3.2"/>
	
		<ellipse transform="matrix(0.6212 -0.7837 0.7837 0.6212 -634.277 649.6483)" class="st2" cx="354.81" cy="980.87" rx="6.1" ry="6.1"/>
	<ellipse class="st3" cx="341.21" cy="954.06" rx="6" ry="6"/>
	<ellipse class="st5" cx="365.62" cy="952.8" rx="3.2" ry="3.2"/>
	
		<ellipse transform="matrix(0.4033 -0.9151 0.9151 0.4033 -791.8348 758.9155)" class="st3" cx="185.99" cy="986.61" rx="3.7" ry="3.7"/>
	<ellipse class="st8" cx="128.05" cy="970.06" rx="3.5" ry="3.5"/>
	
		<ellipse transform="matrix(0.4033 -0.9151 0.9151 0.4033 -809.7589 736.7369)" class="st9" cx="160.02" cy="989.26" rx="6.1" ry="6.1"/>
	<path class="st8" d="M205.43,1010.19c-1.9,4.2,0.2,9.3,4.5,11.3c3.5,1.6,10.6-2.2,12.7-6.8c1.9-4,0.4-8-3.6-9.8
		C214.13,1002.59,207.73,1005.09,205.43,1010.19z"/>
	
		<ellipse transform="matrix(0.4033 -0.9151 0.9151 0.4033 -796.7378 719.9026)" class="st3" cx="153.63" cy="970.86" rx="5.2" ry="5.2"/>
	<ellipse class="st3" cx="56.32" cy="988.87" rx="3.5" ry="3.5"/>
	<path class="st2" d="M39.43,988.19c-2.8-1.4-6.5-1.9-9.5-1.4c-7,1.2-11.3,8-10.7,17.3c0.8,11.6,4.4,13.8,14.7,12.6
		c6.4-1.1,10-4.8,11.4-12C46.73,997.39,44.73,990.79,39.43,988.19z"/>
	<path class="st2" d="M113.33,1044.29c7.3-1.4,12.3-8.9,10.9-16.5c-1.1-6.1-12.8-12.1-21-10.7c-7,1.2-11.1,7-9.8,14
		C95.13,1039.79,104.53,1045.99,113.33,1044.29z"/>
	<ellipse transform="matrix(0.9814 -0.192 0.192 0.9814 -185.7653 25.5207)" class="st3" cx="38.8" cy="971.29" rx="6.6" ry="6.6"/>
	<ellipse transform="matrix(0.9814 -0.192 0.192 0.9814 -185.161 29.5697)" class="st5" cx="60" cy="970.2" rx="6.6" ry="6.6"/>
	
		<ellipse transform="matrix(0.9814 -0.192 0.192 0.9814 -195.4815 33.2812)" class="st3" cx="73.99" cy="1025.31" rx="8.4" ry="8.4"/>
	
		<ellipse transform="matrix(0.9794 -0.202 0.202 0.9794 -198.7295 35.8719)" class="st3" cx="76.39" cy="991.6" rx="10.9" ry="10.9"/>
	<ellipse class="st5" cx="57.4" cy="1008.6" rx="3.5" ry="3.5"/>
	
		<ellipse transform="matrix(0.9814 -0.192 0.192 0.9814 -192.1094 36.0773)" class="st3" cx="90.1" cy="1009.31" rx="5.2" ry="5.2"/>
	<path class="st3" d="M131.33,1010.29c3-4.7,2.4-9.7-0.8-11.8c-2.9-1.9-8.8,0-11.1,3.6c-1.9,2.9-0.4,8.1,3,10.1
		C126.23,1014.09,129.23,1012.69,131.33,1010.29z"/>
	<ellipse class="st9" cx="111.96" cy="988.03" rx="8" ry="8"/>
	<ellipse class="st3" cx="103.97" cy="1002.67" rx="3.5" ry="3.5"/>
	<path class="st3" d="M166.23,1004.39c-7.2-3.4-14.2-0.7-17.9,6.9c-3.6,7.4-1,14.4,6.5,17.9c6.3,2.9,12.8-0.3,16.4-8.1
		C174.63,1013.79,172.73,1007.49,166.23,1004.39z"/>
	<path class="st8" d="M153.13,1087.99c7.2,3.3,13.9,0.7,17.1-6.7c3.6-8.3,1.9-14.3-5.2-17.6c-7.3-3.3-15.3-1-18,5.3
		C144.03,1076.19,147.03,1085.19,153.13,1087.99z"/>
	<path class="st3" d="M176.03,1051.59c1.9-4.2-0.3-7.4-4.3-11c-3.4-3.1-9.2,0.1-11,4.3c-1.8,4.2,0.1,9.2,4.3,11
		C169.23,1057.79,174.13,1055.89,176.03,1051.59z"/>
	
		<ellipse transform="matrix(0.4033 -0.9151 0.9151 0.4033 -823.1862 813.7878)" class="st3" cx="212.39" cy="1038.08" rx="10.9" ry="10.9"/>
	<ellipse class="st9" cx="188.49" cy="1045" rx="3.5" ry="3.5"/>
	<ellipse class="st3" cx="176.36" cy="1090.68" rx="3.5" ry="3.5"/>
	<ellipse class="st3" cx="193.64" cy="1090.26" rx="3.5" ry="3.5"/>
	<path class="st7" d="M213.63,1076.19c3.2-5.9,0.5-16.4-6.1-19.9c-7.5-4-11.5,1.3-14.9,7c-4.8,8.2-3.8,15,2.6,19
		C201.23,1086.19,209.73,1083.29,213.63,1076.19z"/>
</g>
</svg>
