<?xml version="1.0" encoding="utf-8"?>
<!-- Generator: Adobe Illustrator 21.0.2, SVG Export Plug-In . SVG Version: 6.00 Build 0)  -->
<svg version="1.1" id="Capa_1" xmlns="http://www.w3.org/2000/svg" xmlns:xlink="http://www.w3.org/1999/xlink" x="0px" y="0px"
	 viewBox="0 0 313.4 313.4" style="enable-background:new 0 0 313.4 313.4;" xml:space="preserve">
<style type="text/css">
	.st0{fill:#FBD000;}
	.st1{fill:#FFFFFF;}
</style>
<path class="st0" d="M240.6,101.8c-10.4-0.5-9.4-7.4-5.9-7.9c2.5-0.5,5.9-1.5,6.4-2c1-0.5,2-2,2-3.5c-0.5-1.5-1.5-2.5-3-2.5l0,0
	c-2.5-17.8-10.4-33.6-23.7-46l-0.5-0.5c0-3.5,0.5-7.4,1.5-11.4l3-7.4l-6.4,4.9c-3,2.5-6.4,4-9.9,4.9c-9.4-5.9-20.3-9.4-31.1-10.4
	c-2-3-4-5.9-4.9-9.4L166,3l-2.5,7.9c-1,3.5-2.5,6.4-4.4,9.4c-11.9,0.5-22.7,4.4-32.6,9.9c-3-1-5.9-2.5-8.9-4.4l-6.4-4.9l2.5,7.4
	c1,3.5,1.5,6.4,1.5,9.9c0,0.5-1,1.5-1.5,2c-7.9,7.4-14.3,16.3-18.3,26.2c-3,0.5-6.4,1-9.9,1h-7.9l6.4,4.4c3,2,4.9,4,6.9,6.4
	c-0.5,3-1.5,5.9-1.5,9.4L87.9,86c-4.4-4.4-13.3-6.4-17.3-4.4c-2,1-3.5,3-3.5,4.9s0,4.4,0,7.4c0,4,0,7.9,0,10.9c0,2.5,1.5,4.4,4,4.9
	c4.4,2,12.8-0.5,16.8-4.4l1.5-1.5c0.5,3,1,6.4,1.5,9.4c-2,2.5-4,4.4-6.9,6.4l-6.4,4.4l0,0h7.9c3.5,0,6.4,0.5,9.4,1.5
	c4,9.9,10.4,18.8,18.3,26.2c1,0.5,1.5,1.5,2.5,2c0,3-0.5,6.4-1.5,9.9l-3,7.4l6.4-4.9c3-2,5.9-3.5,8.9-4.4
	c9.9,5.9,20.8,9.4,32.1,10.4c2,2.5,3.5,5.9,4.4,9.4l2.5,7.9l2.5-7.9c1-3.5,3-6.9,4.9-9.4c10.9-1,21.7-4.9,31.1-10.4
	c3.5,1,6.9,2.5,9.9,4.9l6.4,4.9l-2.5-7.4c-1.5-4-2-7.4-1.5-11.4l0.5-0.5c12.8-11.9,20.8-27.2,23.2-44h0.5c1.5,0,2.5-1.5,2.5-3
	C243.1,102.8,242.1,101.8,240.6,101.8z M211,84c-4,0-6.9-3-6.9-6.9c0-4,3-6.9,6.9-6.9s6.9,3,6.9,6.9C217.9,80.6,214.4,84,211,84z"/>
<g>
	<path class="st1" d="M266.1,122.5c-1.4-1.8-3.6-2.9-5.9-2.9H69.3L61,87.5c-0.9-3.3-3.8-5.6-7.3-5.6H14.8c-4.1,0-7.5,3.4-7.5,7.5
		c0,4.1,3.4,7.5,7.5,7.5h33.1l8.3,32.1c0,0,0,0,0,0l29.4,113c0.9,3.3,3.8,5.6,7.3,5.6h137.8c3.4,0,6.4-2.3,7.3-5.6l29.4-113
		C268,126.7,267.5,124.3,266.1,122.5z M125.2,232.5H98.7l-5.9-22.7h32.4V232.5z M125.2,194.9H88.9L83,172.2h42.2
		C125.2,172.2,125.2,194.9,125.2,194.9z M125.2,157.2H79.1l-5.9-22.7h52V157.2z M183.4,232.5h-43.2v-22.7h43.2V232.5z M183.4,194.9
		h-43.2v-22.7h43.2V194.9z M183.4,157.2h-43.2v-22.7h43.2V157.2z M224.9,232.5h-26.5v-22.7h32.4L224.9,232.5z M234.7,194.9h-36.3
		v-22.7h42.2L234.7,194.9z M244.5,157.2h-46.1v-22.7h52L244.5,157.2z"/>
	<path class="st1" d="M112.8,253.6c-15.1,0-27.4,12.3-27.4,27.4c0,15.1,12.3,27.4,27.4,27.4c15.1,0,27.4-12.3,27.4-27.4
		C140.2,265.9,127.9,253.6,112.8,253.6z M112.8,293.4c-6.8,0-12.4-5.6-12.4-12.4c0-6.8,5.6-12.4,12.4-12.4c6.8,0,12.4,5.6,12.4,12.4
		C125.2,287.9,119.6,293.4,112.8,293.4z"/>
	<path class="st1" d="M210.8,253.6c-15.1,0-27.4,12.3-27.4,27.4c0,15.1,12.3,27.4,27.4,27.4c15.1,0,27.4-12.3,27.4-27.4
		C238.2,265.9,225.9,253.6,210.8,253.6z M210.8,293.4c-6.8,0-12.4-5.6-12.4-12.4c0-6.8,5.6-12.4,12.4-12.4c6.8,0,12.4,5.6,12.4,12.4
		C223.2,287.9,217.7,293.4,210.8,293.4z"/>
</g>
</svg>
