<?xml version="1.0" encoding="utf-8"?>
<!-- Generator: Adobe Illustrator 21.0.2, SVG Export Plug-In . SVG Version: 6.00 Build 0)  -->
<svg version="1.1" id="Capa_1" xmlns="http://www.w3.org/2000/svg" xmlns:xlink="http://www.w3.org/1999/xlink" x="0px" y="0px"
	 viewBox="0 0 313.4 313.4" style="enable-background:new 0 0 313.4 313.4;" xml:space="preserve">
<style type="text/css">
	.st0{fill:#FFFFFF;}
</style>
<g>
	<path class="st0" d="M266.1,122.5c-1.4-1.8-3.6-2.9-5.9-2.9H69.3L61,87.5c-0.9-3.3-3.8-5.6-7.3-5.6H14.8c-4.1,0-7.5,3.4-7.5,7.5
		c0,4.1,3.4,7.5,7.5,7.5h33.1l8.3,32.1c0,0,0,0,0,0l29.4,113c0.9,3.3,3.8,5.6,7.3,5.6h137.8c3.4,0,6.4-2.3,7.3-5.6l29.4-113
		C268,126.7,267.5,124.3,266.1,122.5z M125.2,232.5H98.7l-5.9-22.7h32.4V232.5z M125.2,194.9H88.9L83,172.2h42.2
		C125.2,172.2,125.2,194.9,125.2,194.9z M125.2,157.2H79.1l-5.9-22.7h52V157.2z M183.4,232.5h-43.2v-22.7h43.2V232.5z M183.4,194.9
		h-43.2v-22.7h43.2V194.9z M183.4,157.2h-43.2v-22.7h43.2V157.2z M224.9,232.5h-26.5v-22.7h32.4L224.9,232.5z M234.7,194.9h-36.3
		v-22.7h42.2L234.7,194.9z M244.5,157.2h-46.1v-22.7h52L244.5,157.2z"/>
	<path class="st0" d="M112.8,253.6c-15.1,0-27.4,12.3-27.4,27.4c0,15.1,12.3,27.4,27.4,27.4c15.1,0,27.4-12.3,27.4-27.4
		C140.2,265.9,127.9,253.6,112.8,253.6z M112.8,293.4c-6.8,0-12.4-5.6-12.4-12.4c0-6.8,5.6-12.4,12.4-12.4c6.8,0,12.4,5.6,12.4,12.4
		C125.2,287.9,119.6,293.4,112.8,293.4z"/>
	<path class="st0" d="M210.8,253.6c-15.1,0-27.4,12.3-27.4,27.4c0,15.1,12.3,27.4,27.4,27.4c15.1,0,27.4-12.3,27.4-27.4
		C238.2,265.9,225.9,253.6,210.8,253.6z M210.8,293.4c-6.8,0-12.4-5.6-12.4-12.4c0-6.8,5.6-12.4,12.4-12.4c6.8,0,12.4,5.6,12.4,12.4
		C223.2,287.9,217.7,293.4,210.8,293.4z"/>
</g>
</svg>
