<?xml version="1.0" encoding="utf-8"?>
<!-- Generator: Adobe Illustrator 21.0.2, SVG Export Plug-In . SVG Version: 6.00 Build 0)  -->
<svg version="1.1" id="Layer_1" xmlns="http://www.w3.org/2000/svg" xmlns:xlink="http://www.w3.org/1999/xlink" x="0px" y="0px"
	 viewBox="0 0 786.5 665.5" style="enable-background:new 0 0 786.5 665.5;" xml:space="preserve">
<style type="text/css">
	.st0{fill:#FFFFFF;}
	.st1{fill:#40B4E5;}
	.st2{fill:#095280;}
	.st3{fill:#0071CE;}
	.st4{fill:#1B89C7;}
	.st5{fill:#FBD000;}
	.st6{fill:#CCCCCC;}
	.st7{font-family:'MuseoSansRounded-500';}
	.st8{font-size:34px;}
	.st9{fill:none;stroke:#095280;stroke-width:3;stroke-miterlimit:10;}
	.st10{fill:#1B89C7;stroke:#095280;stroke-width:2;stroke-miterlimit:10;}
	.st11{fill:#1B89C7;stroke:#095280;stroke-width:3;stroke-miterlimit:10;}
</style>
<g>
	<path class="st0" d="M638.2,49.1c-0.4-4.7-3.5-8.7-7.9-10.2C605.6,30.7,516.1,3.6,398.7,3.6c-87,0-193.7,6.1-232.1,23.2
		c-20.7,9.2-20.1,31-16.8,41.5l76.7,538.4c1.2,8.5,6.3,16.1,13.7,20.3c58,33.2,136.5,34.4,147.4,34.4c0.8,0,1.2,0,1.3,0
		c150.4,0,165.4-52.1,165.9-54.3l0-0.1L637.5,68C638.7,60.3,638.6,53.5,638.2,49.1z"/>
	<path class="st1" d="M186.2,189.7l57.6,384.6c0,0,0,9.2,9.2,12.7c9.2,3.5,146.3,51.8,274.1,0c0,0,11.5-2.3,13.8-16.1
		c2.3-13.8,58.7-376.6,58.7-376.6s-38-41.5-200.9-41.5S206.9,172.4,186.2,189.7z"/>
	<path class="st2" d="M387.5,661.4c-10.9,0-89.4-1.2-147.4-34.4c-7.4-4.2-12.5-11.8-13.7-20.3L149.8,68.3
		c-3.3-10.5-3.9-32.3,16.8-41.5C205,9.7,311.7,3.6,398.7,3.6c117.4,0,207,27.1,231.6,35.4c4.5,1.5,7.6,5.5,7.9,10.2
		c0.3,4.3,0.5,11.2-0.7,18.9l-82.8,538.9l0,0.1c-0.6,2.2-15.5,54.3-165.9,54.3C388.8,661.4,388.3,661.4,387.5,661.4z M398.7,10
		C267,10,193.8,21.7,169.2,32.6c-20.8,9.3-13.6,33-13.2,34l0.1,0.5l76.7,538.7c0.9,6.6,4.9,12.4,10.6,15.7
		c60.6,34.7,144.6,33.6,145.4,33.5c75.8,0,115.3-13.6,135.1-25c20-11.6,24.3-23.2,24.7-24.4l82.7-538.5c1.1-7.1,1-13.4,0.6-17.4
		c-0.2-2.1-1.6-3.9-3.6-4.6C603.9,36.8,515.1,10,398.7,10z"/>
	<path class="st2" d="M637.4,45.3l-6.2,2.3c0,0.1,0.2,0.8-0.3,1.6c-0.5,0.8-1.9,2.2-6.3,3.1c-0.9,0.2-93,17.2-231.2,14.5h-0.1
		c-138.2,2.7-230.3-14.3-231.2-14.5c-4.4-0.9-5.8-2.3-6.3-3.1c-0.5-0.8-0.3-1.5-0.3-1.6l-3.1-1.1l-3.1-1.2c-0.1,0.4-1.3,3.5,0.6,7
		c1.8,3.2,5.4,5.4,10.8,6.4c20.8,4.2,99.1,14.9,203,14.9c9.6,0,19.5-0.1,29.5-0.3c10,0.2,19.9,0.3,29.5,0.3
		c103.9,0,182.2-10.8,203-14.9c5.4-1.1,9.1-3.2,10.8-6.4C638.7,48.8,637.6,45.6,637.4,45.3z"/>
	<path class="st2" d="M397,614.1c-79.4,0-141.2-22.7-145.1-24.1c-10.3-3.9-11.2-13.5-11.3-15.4l-57.8-386.2l1.4-1.1
		c19-15.9,45.1-37.6,214.5-37.6c162.5,0,201.7,40.8,203.3,42.5l1,1.1l-0.2,1.5c-0.6,3.6-56.5,362.9-58.7,376.6
		c-2.4,14.6-13.8,18.1-16,18.6C483.4,608.1,437.9,614.1,397,614.1z M189.6,191L247,574.1v0.2c0,0.3,0.2,7.1,7.2,9.7
		c5.8,2.2,142.7,52.3,271.8,0l0.6-0.2c0.4-0.1,9.4-2.2,11.3-13.5c2.2-13.2,54.3-348.1,58.5-374.9c-7.2-6.2-52.6-39.5-197.5-39.5
		C235.7,156,207.8,175.9,189.6,191z"/>
	<path class="st2" d="M404.4,229c-114.7,0-206.2-26.7-207.5-27.1l1.8-6.1c2,0.6,206.2,60,386.2,0l2,6
		C525.8,222.3,462.1,229,404.4,229z"/>
	<path class="st2" d="M189.9,190.8c0,0,0.9,2.9,8.7,5.1c7.9,2.3,4,8.1-1.8,6.1c-5.8-2.1-12.9-6-12.9-6L189.9,190.8z"/>
	<path class="st0" d="M467.6,463.1c-37,0-67.2-30.1-67.2-67.2s30.1-67.2,67.2-67.2s67.2,30.1,67.2,67.2S504.7,463.1,467.6,463.1z"/>
	<path class="st0" d="M467.6,335.1c-33.5,0-60.8,27.3-60.8,60.8s27.3,60.8,60.8,60.8c33.5,0,60.8-27.3,60.8-60.8
		S501.2,335.1,467.6,335.1z"/>
	<path class="st0" d="M341.2,568.9c-2.9,0-5.8-0.2-8.8-0.6c-17.8-2.3-33.6-11.4-44.6-25.6c-22.6-29.3-17.1-71.6,12.2-94.2
		c29.4-22.6,71.6-17.1,94.2,12.2c11,14.2,15.7,31.8,13.4,49.6c-2.3,17.8-11.4,33.6-25.6,44.6C370.2,564.1,355.9,568.9,341.2,568.9z"
		/>
	<path class="st0" d="M341,440.9c-13,0-26,4.1-37.1,12.6c-12.9,9.9-21.1,24.3-23.2,40.4c-2.1,16.1,2.2,32.1,12.1,45
		c20.5,26.6,58.7,31.5,85.3,11.1c12.9-9.9,21.1-24.3,23.2-40.4c2.1-16.1-2.2-32.1-12.1-45C377.3,449,359.2,440.9,341,440.9z"/>
	
		<ellipse transform="matrix(0.1089 -0.9941 0.9941 0.1089 148.3835 774.5201)" class="st0" cx="506.2" cy="304.5" rx="6.8" ry="6.8"/>
	
		<ellipse transform="matrix(0.1089 -0.9941 0.9941 0.1089 -115.8602 646.1201)" class="st0" cx="302.5" cy="387.7" rx="6.8" ry="6.8"/>
	<ellipse transform="matrix(0.1089 -0.9941 0.9941 0.1089 -123.972 709.613)" class="st0" cx="333.8" cy="424" rx="6.8" ry="6.8"/>
	
		<ellipse transform="matrix(0.1089 -0.9941 0.9941 0.1089 177.6931 702.5099)" class="st0" cx="480.7" cy="252.1" rx="6.8" ry="6.8"/>
	
		<ellipse transform="matrix(0.1089 -0.9941 0.9941 0.1089 214.5855 632.0497)" class="st0" cx="459.8" cy="196.3" rx="6.8" ry="6.8"/>
	
		<ellipse transform="matrix(0.1089 -0.9941 0.9941 0.1089 -4.3065 552.7831)" class="st0" cx="306.2" cy="278.8" rx="6.8" ry="6.8"/>
	
		<ellipse transform="matrix(0.1089 -0.9941 0.9941 0.1089 99.1096 472.8944)" class="st0" cx="313.3" cy="181.2" rx="6.8" ry="6.8"/>
	
		<ellipse transform="matrix(0.1089 -0.9941 0.9941 0.1089 -65.7703 601.218)" class="st0" cx="302.5" cy="337.3" rx="6.8" ry="6.8"/>
	
		<ellipse transform="matrix(0.1089 -0.9941 0.9941 0.1089 140.9674 805.6715)" class="st0" cx="519.9" cy="324.2" rx="5.8" ry="5.8"/>
	<ellipse transform="matrix(0.1089 -0.9941 0.9941 0.1089 -29.3923 605.4144)" class="st0" cx="323" cy="319.1" rx="5.8" ry="5.8"/>
	
		<ellipse transform="matrix(0.1089 -0.9941 0.9941 0.1089 -47.1105 666.3181)" class="st0" cx="348.1" cy="359.4" rx="5.8" ry="5.8"/>
	<g>
		<ellipse transform="matrix(0.1089 -0.9941 0.9941 0.1089 -73.2816 651.1895)" class="st0" cx="326.6" cy="366.5" rx="4" ry="4"/>
	</g>
	<g>
		
			<ellipse transform="matrix(0.1089 -0.9941 0.9941 0.1089 -145.4497 696.6828)" class="st0" cx="315.9" cy="429.5" rx="4.6" ry="4.6"/>
	</g>
	<g>
		
			<ellipse transform="matrix(0.7799 -0.6259 0.6259 0.7799 -184.8401 309.8107)" class="st0" cx="348.1" cy="417.7" rx="3.6" ry="3.6"/>
	</g>
	<g>
		<ellipse transform="matrix(0.7799 -0.6259 0.6259 0.7799 -186.5113 295.5536)" class="st0" cx="327" cy="413" rx="2.8" ry="2.8"/>
	</g>
	<g>
		
			<ellipse transform="matrix(0.7799 -0.6259 0.6259 0.7799 -177.4391 306.2108)" class="st0" cx="346.7" cy="405.4" rx="2.8" ry="2.8"/>
	</g>
	<g>
		
			<ellipse transform="matrix(0.7799 -0.6259 0.6259 0.7799 -172.0966 284.9828)" class="st0" cx="319.2" cy="387.2" rx="2.8" ry="2.8"/>
	</g>
	<g>
		
			<ellipse transform="matrix(0.7799 -0.6259 0.6259 0.7799 -206.2084 287.6604)" class="st0" cx="305.9" cy="437" rx="2.8" ry="2.8"/>
	</g>
	<g>
		
			<ellipse transform="matrix(0.1089 -0.9941 0.9941 0.1089 -118.1558 667.4669)" class="st0" cx="313.2" cy="399.6" rx="5.4" ry="5.4"/>
	</g>
	<g>
		
			<ellipse transform="matrix(0.1089 -0.9941 0.9941 0.1089 -131.3196 679.4579)" class="st0" cx="313.3" cy="413" rx="5.4" ry="5.4"/>
	</g>
	<g>
		
			<ellipse transform="matrix(0.6946 -0.7194 0.7194 0.6946 -64.1414 437.8617)" class="st0" cx="483.7" cy="294.5" rx="5.1" ry="5.1"/>
	</g>
	<g>
		
			<ellipse transform="matrix(0.6946 -0.7194 0.7194 0.6946 3.9725 403.6789)" class="st0" cx="477.5" cy="197.2" rx="5.1" ry="5.1"/>
	</g>
	<g>
		<ellipse transform="matrix(0.6946 -0.7194 0.7194 0.6946 -79.4708 455.6345)" class="st0" cx="497" cy="321.4" rx="4" ry="4"/>
	</g>
	<g>
		<ellipse transform="matrix(0.6946 -0.7194 0.7194 0.6946 -60.6999 403.6777)" class="st0" cx="445.1" cy="273.3" rx="4" ry="4"/>
	</g>
	<g>
		<ellipse transform="matrix(0.6946 -0.7194 0.7194 0.6946 -63.6813 425.4966)" class="st0" cx="469.3" cy="287.8" rx="4" ry="4"/>
	</g>
	<g>
		<ellipse transform="matrix(0.6946 -0.7194 0.7194 0.6946 -150.1215 335.2893)" class="st0" cx="319.9" cy="344.5" rx="4" ry="4"/>
	</g>
	<g>
		<ellipse transform="matrix(0.6946 -0.7194 0.7194 0.6946 -196.0627 312.5048)" class="st0" cx="270.1" cy="387.2" rx="4" ry="4"/>
	</g>
	<g>
		<ellipse transform="matrix(0.6946 -0.7194 0.7194 0.6946 -51.9013 392.7196)" class="st0" cx="436.6" cy="257.5" rx="4" ry="4"/>
	</g>
	<g>
		<ellipse transform="matrix(0.6946 -0.7194 0.7194 0.6946 -9.7398 363.4798)" class="st0" cx="423.3" cy="193.2" rx="4" ry="4"/>
	</g>
	<g>
		<ellipse transform="matrix(0.6946 -0.7194 0.7194 0.6946 -79.1306 307.0491)" class="st0" cx="322.1" cy="246.7" rx="4" ry="4"/>
	</g>
	<g>
		<ellipse transform="matrix(0.6946 -0.7194 0.7194 0.6946 -42.7092 266.6886)" class="st0" cx="292.8" cy="183.7" rx="4" ry="4"/>
	</g>
	<g>
		<ellipse transform="matrix(0.6946 -0.7194 0.7194 0.6946 -111.2721 317.8813)" class="st0" cx="318.8" cy="290" rx="4" ry="4"/>
	</g>
	<g>
		
			<ellipse transform="matrix(0.6946 -0.7194 0.7194 0.6946 -14.6298 455.7745)" class="st0" cx="529.5" cy="245.1" rx="4.6" ry="4.6"/>
	</g>
	<g>
		
			<ellipse transform="matrix(0.6946 -0.7194 0.7194 0.6946 -100.7799 413.4679)" class="st0" cx="436.6" cy="325.4" rx="4.6" ry="4.6"/>
	</g>
	<g>
		
			<ellipse transform="matrix(0.6946 -0.7194 0.7194 0.6946 -227.7748 348.1774)" class="st0" cx="296.2" cy="442.4" rx="4.6" ry="4.6"/>
	</g>
	<g>
		
			<ellipse transform="matrix(0.6946 -0.7194 0.7194 0.6946 -21.7488 417.3205)" class="st0" cx="480.7" cy="234.3" rx="4.6" ry="4.6"/>
	</g>
	<g>
		
			<ellipse transform="matrix(0.9998 -1.747265e-02 1.747265e-02 0.9998 -4.2062 8.8191)" class="st0" cx="502.6" cy="245.1" rx="3.6" ry="3.6"/>
	</g>
	<g>
		
			<ellipse transform="matrix(0.9998 -1.747265e-02 1.747265e-02 0.9998 -5.7092 5.0397)" class="st0" cx="285.6" cy="329.2" rx="3.6" ry="3.6"/>
	</g>
	<g>
		
			<ellipse transform="matrix(0.9998 -1.747265e-02 1.747265e-02 0.9998 -4.482 8.9472)" class="st0" cx="509.8" cy="261" rx="2.8" ry="2.8"/>
	</g>
	<g>
		
			<ellipse transform="matrix(0.9998 -1.747265e-02 1.747265e-02 0.9998 -4.8802 8.5375)" class="st0" cx="486.1" cy="283.5" rx="2.8" ry="2.8"/>
	</g>
	<g>
		
			<ellipse transform="matrix(0.9998 -1.747265e-02 1.747265e-02 0.9998 -6.5495 6.1151)" class="st0" cx="346.7" cy="377.9" rx="2.8" ry="2.8"/>
	</g>
	<g>
		
			<ellipse transform="matrix(0.9998 -1.747265e-02 1.747265e-02 0.9998 -7.5899 6.6593)" class="st0" cx="377.3" cy="437.7" rx="2.8" ry="2.8"/>
	</g>
	<g>
		
			<ellipse transform="matrix(0.9998 -1.747265e-02 1.747265e-02 0.9998 -7.4399 6.1545)" class="st0" cx="348.5" cy="428.8" rx="2.8" ry="2.8"/>
	</g>
	<g>
		
			<ellipse transform="matrix(0.9998 -1.747265e-02 1.747265e-02 0.9998 -4.4238 8.6522)" class="st0" cx="492.9" cy="257.5" rx="2.8" ry="2.8"/>
	</g>
	<g>
		
			<ellipse transform="matrix(0.9998 -1.747265e-02 1.747265e-02 0.9998 -3.1491 8.1642)" class="st0" cx="465.6" cy="184.3" rx="2.8" ry="2.8"/>
	</g>
	<g>
		
			<ellipse transform="matrix(0.9998 -1.747265e-02 1.747265e-02 0.9998 -5.0518 7.3342)" class="st0" cx="417.2" cy="292.8" rx="2.8" ry="2.8"/>
	</g>
	<g>
		
			<ellipse transform="matrix(0.9998 -1.747265e-02 1.747265e-02 0.9998 -6.7906 4.4741)" class="st0" cx="252.6" cy="390.8" rx="2.8" ry="2.8"/>
	</g>
	<g>
		
			<ellipse transform="matrix(0.9998 -1.747265e-02 1.747265e-02 0.9998 -5.0272 4.625)" class="st0" cx="262.2" cy="290" rx="2.8" ry="2.8"/>
	</g>
	<g>
		
			<ellipse transform="matrix(0.9998 -1.747265e-02 1.747265e-02 0.9998 -3.3115 6.1021)" class="st0" cx="347.6" cy="192.6" rx="2.8" ry="2.8"/>
	</g>
	<g>
		
			<ellipse transform="matrix(0.9998 -1.747265e-02 1.747265e-02 0.9998 -5.4947 7.4442)" class="st0" cx="423.3" cy="318.2" rx="2.8" ry="2.8"/>
	</g>
	<g>
		
			<ellipse transform="matrix(0.9998 -1.747265e-02 1.747265e-02 0.9998 -6.4637 5.5811)" class="st0" cx="316.2" cy="372.7" rx="2.8" ry="2.8"/>
	</g>
	<g>
		
			<ellipse transform="matrix(0.9998 -1.747265e-02 1.747265e-02 0.9998 -5.1981 7.0119)" class="st0" cx="398.7" cy="301" rx="2.8" ry="2.8"/>
	</g>
	<g>
		
			<ellipse transform="matrix(0.9998 -1.747265e-02 1.747265e-02 0.9998 -4.4548 5.1066)" class="st0" cx="290" cy="257.5" rx="2.8" ry="2.8"/>
	</g>
	<g>
		
			<ellipse transform="matrix(0.9998 -1.747265e-02 1.747265e-02 0.9998 -3.3886 4.8277)" class="st0" cx="274.6" cy="196.3" rx="2.8" ry="2.8"/>
	</g>
	<g>
		
			<ellipse transform="matrix(0.9998 -1.747265e-02 1.747265e-02 0.9998 -3.3661 5.369)" class="st0" cx="305.6" cy="195.3" rx="2.8" ry="2.8"/>
	</g>
	<g>
		
			<ellipse transform="matrix(0.9998 -1.747265e-02 1.747265e-02 0.9998 -4.6321 5.9354)" class="st0" cx="337.4" cy="268.1" rx="2.8" ry="2.8"/>
	</g>
	<g>
		
			<ellipse transform="matrix(0.9998 -1.747265e-02 1.747265e-02 0.9998 -2.9399 5.6695)" class="st0" cx="323" cy="171.1" rx="2.8" ry="2.8"/>
	</g>
	<g>
		
			<ellipse transform="matrix(0.9998 -1.747265e-02 1.747265e-02 0.9998 -5.958 7.0186)" class="st0" cx="398.7" cy="344.5" rx="2.8" ry="2.8"/>
	</g>
	<g>
		
			<ellipse transform="matrix(0.9998 -1.747265e-02 1.747265e-02 0.9998 -7.1469 5.9874)" class="st0" cx="339.1" cy="412" rx="2.8" ry="2.8"/>
	</g>
	<g>
		
			<ellipse transform="matrix(0.9998 -1.747265e-02 1.747265e-02 0.9998 -6.0476 4.3548)" class="st0" cx="246.2" cy="348.3" rx="2.8" ry="2.8"/>
	</g>
	<g>
		
			<ellipse transform="matrix(0.9998 -1.747265e-02 1.747265e-02 0.9998 -7.2279 4.9041)" class="st0" cx="277" cy="416.1" rx="2.8" ry="2.8"/>
	</g>
	<g>
		
			<ellipse transform="matrix(0.9998 -1.747265e-02 1.747265e-02 0.9998 -4.8785 8.7245)" class="st0" cx="496.8" cy="283.5" rx="2.8" ry="2.8"/>
	</g>
	<g>
		
			<ellipse transform="matrix(0.9998 -1.747265e-02 1.747265e-02 0.9998 -5.5136 5.2789)" class="st0" cx="299.3" cy="318.2" rx="2.8" ry="2.8"/>
	</g>
	<g>
		
			<ellipse transform="matrix(0.9998 -1.747265e-02 1.747265e-02 0.9998 -5.2481 8.3115)" class="st0" cx="473" cy="304.5" rx="2.8" ry="2.8"/>
	</g>
	<g>
		
			<ellipse transform="matrix(0.9998 -1.747265e-02 1.747265e-02 0.9998 -5.5549 8.3142)" class="st0" cx="473" cy="322.1" rx="2.8" ry="2.8"/>
	</g>
	<g>
		
			<ellipse transform="matrix(0.9998 -1.747265e-02 1.747265e-02 0.9998 -5.7419 8.8954)" class="st0" cx="506.2" cy="333" rx="2.8" ry="2.8"/>
	</g>
	<g>
		
			<ellipse transform="matrix(0.9998 -1.747265e-02 1.747265e-02 0.9998 -3.9351 8.9425)" class="st0" cx="509.8" cy="229.7" rx="2.8" ry="2.8"/>
	</g>
	<g>
		
			<ellipse transform="matrix(0.9998 -1.747265e-02 1.747265e-02 0.9998 -3.1988 9.0278)" class="st0" cx="515" cy="187.6" rx="2.8" ry="2.8"/>
	</g>
	<g>
		
			<ellipse transform="matrix(0.9998 -1.747265e-02 1.747265e-02 0.9998 -3.2027 8.5801)" class="st0" cx="489.4" cy="187.6" rx="2.8" ry="2.8"/>
	</g>
	<g>
		
			<ellipse transform="matrix(0.9998 -1.747265e-02 1.747265e-02 0.9998 -4.4377 7.0685)" class="st0" cx="402.3" cy="257.5" rx="2.8" ry="2.8"/>
	</g>
	<g>
		
			<ellipse transform="matrix(0.9998 -1.747265e-02 1.747265e-02 0.9998 -3.1892 7.8062)" class="st0" cx="445.1" cy="186.4" rx="2.8" ry="2.8"/>
	</g>
	<g>
		
			<ellipse transform="matrix(0.9998 -1.747265e-02 1.747265e-02 0.9998 -3.4927 7.7631)" class="st0" cx="442.5" cy="203.8" rx="2.8" ry="2.8"/>
	</g>
	<g>
		
			<ellipse transform="matrix(0.9998 -1.747265e-02 1.747265e-02 0.9998 -3.9074 4.898)" class="st0" cx="278.4" cy="226.1" rx="2.8" ry="2.8"/>
	</g>
	<g>
		
			<ellipse transform="matrix(0.9998 -1.747265e-02 1.747265e-02 0.9998 -3.3681 5.1454)" class="st0" cx="292.8" cy="195.3" rx="2.8" ry="2.8"/>
	</g>
	<g>
		
			<ellipse transform="matrix(0.9998 -1.747265e-02 1.747265e-02 0.9998 -4.5412 5.3897)" class="st0" cx="306.2" cy="262.6" rx="2.8" ry="2.8"/>
	</g>
	<g>
		
			<ellipse transform="matrix(0.9998 -1.747265e-02 1.747265e-02 0.9998 -6.8515 6.3332)" class="st0" cx="359" cy="395.3" rx="4.1" ry="4.1"/>
	</g>
	<g>
		
			<ellipse transform="matrix(0.9998 -1.747265e-02 1.747265e-02 0.9998 -5.1429 7.7067)" class="st0" cx="438.5" cy="298.2" rx="3.8" ry="3.8"/>
	</g>
	<g>
		
			<ellipse transform="matrix(0.9998 -1.747265e-02 1.747265e-02 0.9998 -7.0869 5.347)" class="st0" cx="302.5" cy="408.2" rx="3.8" ry="3.8"/>
	</g>
	<g>
		
			<ellipse transform="matrix(0.6946 -0.7194 0.7194 0.6946 -44.0375 450.9637)" class="st0" cx="509.2" cy="277.4" rx="5.4" ry="5.4"/>
	</g>
	<g>
		
			<ellipse transform="matrix(0.6946 -0.7194 0.7194 0.6946 -90.5975 308.5067)" class="st0" cx="318.1" cy="261" rx="5.4" ry="5.4"/>
	</g>
	<g>
		
			<ellipse transform="matrix(0.6946 -0.7194 0.7194 0.6946 -45.5145 296.9327)" class="st0" cx="327" cy="202.1" rx="5.4" ry="5.4"/>
	</g>
	<g>
		<path class="st0" d="M455.5,297.1c-1.8,0-3.5-0.7-4.9-2c-1.4-1.3-2.1-3.1-2.2-5c0-1.9,0.7-3.7,2-5c1.3-1.4,3.1-2.1,5-2.2
			c1.9,0,3.7,0.7,5,2c1.4,1.3,2.1,3.1,2.2,5c0,1.9-0.7,3.7-2,5C459.2,296.4,457.3,297.1,455.5,297.1z M455.5,286.3
			C455.5,286.3,455.4,286.3,455.5,286.3c-1.1,0-2,0.4-2.7,1.1h0c-0.7,0.7-1.1,1.7-1,2.6c0,1,0.4,1.9,1.1,2.6
			c1.5,1.4,3.8,1.4,5.3-0.1c0.7-0.7,1.1-1.7,1-2.6c0-1-0.4-1.9-1.1-2.6C457.4,286.7,456.4,286.3,455.5,286.3z"/>
	</g>
	<g>
		<path class="st0" d="M313.3,311.6c-1.8,0-3.6-0.7-4.9-2c-1.4-1.3-2.1-3.1-2.2-5c0-1.9,0.7-3.7,2-5c1.3-1.4,3.1-2.1,5-2.2
			c1.8,0,3.7,0.7,5,2c1.4,1.3,2.1,3.1,2.2,5c0,1.9-0.7,3.7-2,5c-1.3,1.4-3.1,2.1-5,2.2C313.4,311.6,313.4,311.6,313.3,311.6z
			 M313.3,300.8C313.3,300.8,313.3,300.8,313.3,300.8c-1.1,0-2,0.4-2.7,1.1h0c-0.7,0.7-1.1,1.7-1,2.6c0,1,0.4,1.9,1.1,2.6
			c0.7,0.7,1.6,1,2.6,1c1,0,1.9-0.4,2.6-1.1c0.7-0.7,1.1-1.7,1-2.6c0-1-0.4-1.9-1.1-2.6C315.2,301.1,314.3,300.8,313.3,300.8z"/>
	</g>
	<g>
		<path class="st0" d="M328.6,194.6c-1.8,0-3.5-0.7-4.9-2c-2.8-2.7-2.9-7.2-0.2-10h0c2.7-2.8,7.2-2.9,10-0.2c1.4,1.3,2.1,3.1,2.2,5
			c0,1.9-0.7,3.7-2,5C332.3,193.9,330.4,194.6,328.6,194.6z M325.9,185c-1.4,1.5-1.4,3.8,0.1,5.3c1.5,1.4,3.8,1.4,5.3-0.1
			c0.7-0.7,1.1-1.7,1-2.6c0-1-0.4-1.9-1.1-2.6C329.7,183.5,327.3,183.5,325.9,185L325.9,185z"/>
	</g>
	<g>
		<path class="st0" d="M331.6,404.2c-1.8,0-3.6-0.7-4.9-2c-1.4-1.3-2.1-3.1-2.2-5c0-1.9,0.7-3.7,2-5c1.3-1.4,3.1-2.1,5-2.2
			c1.8,0,3.7,0.7,5,2c1.4,1.3,2.1,3.1,2.2,5c0,1.9-0.7,3.7-2,5c-1.3,1.4-3.1,2.1-5,2.2C331.6,404.2,331.6,404.2,331.6,404.2z
			 M331.6,393.4C331.5,393.4,331.5,393.4,331.6,393.4c-1.1,0-2,0.4-2.7,1.1h0c-0.7,0.7-1.1,1.7-1,2.6c0,1,0.4,1.9,1.1,2.6
			c0.7,0.7,1.6,1,2.6,1c1,0,1.9-0.4,2.6-1.1c0.7-0.7,1.1-1.7,1-2.6c0-1-0.4-1.9-1.1-2.6C333.4,393.8,332.5,393.4,331.6,393.4z"/>
	</g>
	<path class="st0" d="M453,324.5c-5.5,0-10-4.5-10-10c0-5.5,4.5-10,10-10s10,4.5,10,10C463,320,458.5,324.5,453,324.5z M453,308.8
		c-3.2,0-5.7,2.6-5.7,5.7c0,3.2,2.6,5.7,5.7,5.7c3.2,0,5.7-2.6,5.7-5.7C458.8,311.3,456.2,308.8,453,308.8z"/>
	<path class="st0" d="M366.7,433.9c-5.5,0-10-4.5-10-10c0-5.5,4.5-10,10-10s10,4.5,10,10C376.7,429.5,372.2,433.9,366.7,433.9z
		 M366.7,418.2c-3.2,0-5.7,2.6-5.7,5.7c0,3.2,2.6,5.7,5.7,5.7s5.7-2.6,5.7-5.7C372.4,420.8,369.8,418.2,366.7,418.2z"/>
	<path class="st0" d="M475.6,280.5c-4.4,0-7.9-3.5-7.9-7.9c0-4.4,3.5-7.9,7.9-7.9c4.4,0,7.9,3.5,7.9,7.9
		C483.5,276.9,479.9,280.5,475.6,280.5z M475.6,268c-2.5,0-4.6,2-4.6,4.6c0,2.5,2,4.6,4.6,4.6c2.5,0,4.6-2,4.6-4.6
		C480.1,270.1,478.1,268,475.6,268z"/>
	<path class="st0" d="M302.5,431.9c-4.4,0-7.9-3.5-7.9-7.9c0-4.4,3.5-7.9,7.9-7.9c4.4,0,7.9,3.5,7.9,7.9
		C310.4,428.3,306.8,431.9,302.5,431.9z M302.5,419.4c-2.5,0-4.6,2-4.6,4.6c0,2.5,2,4.6,4.6,4.6c2.5,0,4.6-2,4.6-4.6
		C307,421.4,305,419.4,302.5,419.4z"/>
	<path class="st0" d="M485.5,320.8c-4.4,0-7.9-3.5-7.9-7.9c0-4.4,3.5-7.9,7.9-7.9c4.4,0,7.9,3.5,7.9,7.9
		C493.4,317.2,489.8,320.8,485.5,320.8z M485.5,308.3c-2.5,0-4.6,2-4.6,4.6s2,4.6,4.6,4.6c2.5,0,4.6-2,4.6-4.6
		S488,308.3,485.5,308.3z"/>
	<path class="st0" d="M299.3,374.8c-6.3,0-11.5-5.1-11.5-11.5s5.1-11.5,11.5-11.5c6.3,0,11.5,5.1,11.5,11.5S305.7,374.8,299.3,374.8
		z M299.3,356.1c-4,0-7.2,3.2-7.2,7.2c0,4,3.2,7.2,7.2,7.2c4,0,7.2-3.2,7.2-7.2C306.6,359.4,303.3,356.1,299.3,356.1z"/>
	<path class="st0" d="M455.5,253c-4.4,0-7.9-3.5-7.9-7.9s3.5-7.9,7.9-7.9c4.4,0,7.9,3.5,7.9,7.9S459.8,253,455.5,253z M455.5,240.6
		c-2.5,0-4.6,2-4.6,4.6c0,2.5,2,4.6,4.6,4.6c2.5,0,4.6-2,4.6-4.6C460,242.6,458,240.6,455.5,240.6z"/>
	<path class="st0" d="M305.6,248.4c-4.4,0-7.9-3.5-7.9-7.9c0-4.4,3.5-7.9,7.9-7.9c4.4,0,7.9,3.5,7.9,7.9
		C313.5,244.9,309.9,248.4,305.6,248.4z M305.6,236c-2.5,0-4.6,2-4.6,4.6c0,2.5,2,4.6,4.6,4.6c2.5,0,4.6-2,4.6-4.6
		C310.1,238,308.1,236,305.6,236z"/>
	<path class="st1" d="M469.3,452.4c-29.1,0-44.4-17.4-45.1-18.1l3.2-2.8c0.2,0.2,16.1,18.1,45.5,16.6c29.3-1.5,44.9-31.1,45.1-31.4
		l3.8,1.9c-0.7,1.3-16.9,32-48.6,33.6C471.8,452.4,470.6,452.4,469.3,452.4z"/>
	<path class="st1" d="M341.7,558.3c-11.5,0-25.8-2.7-37.7-13.4c-23.5-21.2-21.9-46.3-21.8-47.3l4.2,0.3c0,0.2-1.4,24.2,20.4,43.9
		c21.8,19.7,53.7,9.8,54,9.7l1.3,4C361.5,555.7,353,558.3,341.7,558.3z"/>
	<path class="st2" d="M594.1,190.6c0,0-0.9,2.9-8.7,5.1c-7.9,2.3-4,8.1,1.8,6.1c5.8-2.1,12.9-6,12.9-6L594.1,190.6z"/>
</g>
<rect x="868.8" y="-7.8" class="st3" width="1233.3" height="257.8"/>
<rect x="868.8" y="148.2" class="st1" width="1233.3" height="257.8"/>
<rect x="868.8" y="265.2" class="st4" width="1233.3" height="257.8"/>
<rect x="868.8" y="350.7" class="st2" width="1233.3" height="257.8"/>
<rect x="868.8" y="430.2" class="st5" width="1233.3" height="257.8"/>
<rect x="868.8" y="518.7" class="st6" width="1233.3" height="257.8"/>
<text transform="matrix(1 0 0 1 659.392 180.2598)" class="st1 st7 st8">Bubbles</text>
<text transform="matrix(1 0 0 1 7.0911 243.0086)" class="st1 st7 st8">H2O</text>
<g>
	<text transform="matrix(1 0 0 1 37.2449 498.6982)" class="st1 st7 st8">Caffeine</text>
	<line class="st9" x1="39.6" y1="515.7" x2="320.9" y2="515.7"/>
	<circle class="st10" cx="320.7" cy="516.6" r="11.5"/>
</g>
<g>
	<text transform="matrix(1 0 0 1 608.4296 472.417)" class="st1 st7 st8">Aspirin</text>
	<line class="st9" x1="375.6" y1="489.5" x2="711" y2="489.5"/>
	<circle class="st10" cx="376.1" cy="489.8" r="11.5"/>
</g>
<g>
	<line class="st9" x1="502.4" y1="194" x2="782" y2="194"/>
	<circle class="st11" cx="498.4" cy="194.4" r="11.5"/>
</g>
<g>
	<line class="st9" x1="210.6" y1="259.1" x2="8.5" y2="259.1"/>
	<circle class="st11" cx="223.6" cy="258.7" r="11.5"/>
</g>
</svg>
