<?xml version="1.0" encoding="utf-8"?>
<!-- Generator: Adobe Illustrator 21.0.2, SVG Export Plug-In . SVG Version: 6.00 Build 0)  -->
<svg version="1.1" id="Layer_1" xmlns="http://www.w3.org/2000/svg" xmlns:xlink="http://www.w3.org/1999/xlink" x="0px" y="0px"
	 viewBox="0 0 840.5 474" style="enable-background:new 0 0 840.5 474;" xml:space="preserve">
<style type="text/css">
	.st0{fill:#FFFFFF;}
	.st1{fill:#B22234;}
	.st2{fill:#3C3B6E;}
</style>
<rect class="st0" width="840.5" height="474"/>
<g>
	<rect id="stripe" class="st1" width="840.5" height="36.5"/>
</g>
<g>
	<rect id="stripe_1_" y="72.9" class="st1" width="840.5" height="36.5"/>
</g>
<g>
	<rect id="stripe_2_" y="145.8" class="st1" width="840.5" height="36.5"/>
</g>
<g>
	<rect id="stripe_3_" y="218.8" class="st1" width="840.5" height="36.5"/>
</g>
<g>
	<rect id="stripe_4_" y="291.7" class="st1" width="840.5" height="36.5"/>
</g>
<g>
	<rect id="stripe_5_" y="364.6" class="st1" width="840.5" height="36.5"/>
</g>
<g>
	<rect id="stripe_6_" y="437.5" class="st1" width="840.5" height="36.5"/>
</g>
<rect class="st2" width="360.2" height="255.2"/>
<g id="_x3C_Group_x3E_">
	<g>
		<g>
			<g>
				<g>
					<g>
						<g>
							<g>
								<g>
									<g id="star">
										<g transform="rotate(-144)">
											<polygon id="pt" class="st0" points="34.6,28 22.2,37 27,22.4 											"/>
										</g>
										<g transform="rotate(-72)">
											<polygon id="pt_1_" class="st0" points="29.3,29.7 16.9,20.7 32.3,20.7 											"/>
										</g>
										<g>
											<polygon id="pt_2_" class="st0" points="26.1,25.2 30.8,10.6 35.6,25.2 											"/>
										</g>
										<g transform="rotate(72)">
											<polygon id="pt_3_" class="st0" points="29.3,20.7 44.7,20.7 32.3,29.7 											"/>
										</g>
										<g transform="rotate(144)">
											<polygon id="pt_4_" class="st0" points="34.6,22.4 39.4,37 27,28 											"/>
										</g>
									</g>
									<g>
										<g id="star_1_">
											<g transform="rotate(-144)">
												<polygon id="pt_5_" class="st0" points="94.4,28 82,37 86.7,22.4 												"/>
											</g>
											<g transform="rotate(-72)">
												<polygon id="pt_6_" class="st0" points="89.1,29.7 76.6,20.7 92,20.7 												"/>
											</g>
											<g>
												<polygon id="pt_7_" class="st0" points="85.8,25.2 90.5,10.6 95.3,25.2 												"/>
											</g>
											<g transform="rotate(72)">
												<polygon id="pt_8_" class="st0" points="89.1,20.7 104.4,20.7 92,29.7 												"/>
											</g>
											<g transform="rotate(144)">
												<polygon id="pt_9_" class="st0" points="94.4,22.4 99.1,37 86.7,28 												"/>
											</g>
										</g>
										<g>
											<g id="star_2_">
												<g transform="rotate(-144)">
													<polygon id="pt_10_" class="st0" points="154.1,28 141.7,37 146.4,22.4 													"/>
												</g>
												<g transform="rotate(-72)">
													<polygon id="pt_11_" class="st0" points="148.8,29.7 136.4,20.7 151.7,20.7 													"/>
												</g>
												<g>
													<polygon id="pt_12_" class="st0" points="145.5,25.2 150.3,10.6 155,25.2 													"/>
												</g>
												<g transform="rotate(72)">
													<polygon id="pt_13_" class="st0" points="148.8,20.7 164.1,20.7 151.7,29.7 													"/>
												</g>
												<g transform="rotate(144)">
													<polygon id="pt_14_" class="st0" points="154.1,22.4 158.8,37 146.4,28 													"/>
												</g>
											</g>
											<g>
												<g id="star_3_">
													<g transform="rotate(-144)">
														<polygon id="pt_15_" class="st0" points="213.8,28 201.4,37 206.1,22.4 														"/>
													</g>
													<g transform="rotate(-72)">
														<polygon id="pt_16_" class="st0" points="208.5,29.7 196.1,20.7 211.4,20.7 														"/>
													</g>
													<g>
														<polygon id="pt_17_" class="st0" points="205.2,25.2 210,10.6 214.7,25.2 														"/>
													</g>
													<g transform="rotate(72)">
														<polygon id="pt_18_" class="st0" points="208.5,20.7 223.9,20.7 211.4,29.7 														"/>
													</g>
													<g transform="rotate(144)">
														<polygon id="pt_19_" class="st0" points="213.8,22.4 218.6,37 206.1,28 														"/>
													</g>
												</g>
												<g id="s5">
													<g id="star_4_">
														<g transform="rotate(-144)">
															<polygon id="pt_20_" class="st0" points="273.5,28 261.1,37 265.9,22.4 															"/>
														</g>
														<g transform="rotate(-72)">
															<polygon id="pt_21_" class="st0" points="268.2,29.7 255.8,20.7 271.2,20.7 															"/>
														</g>
														<g>
															<polygon id="pt_22_" class="st0" points="265,25.2 269.7,10.6 274.4,25.2 															"/>
														</g>
														<g transform="rotate(72)">
															<polygon id="pt_23_" class="st0" points="268.2,20.7 283.6,20.7 271.2,29.7 															"/>
														</g>
														<g transform="rotate(144)">
															<polygon id="pt_24_" class="st0" points="273.5,22.4 278.3,37 265.9,28 															"/>
														</g>
													</g>
												</g>
												<g id="s6">
													<g id="star_5_">
														<g transform="rotate(-144)">
															<polygon id="pt_25_" class="st0" points="333.3,28 320.8,37 325.6,22.4 															"/>
														</g>
														<g transform="rotate(-72)">
															<polygon id="pt_26_" class="st0" points="328,29.7 315.5,20.7 330.9,20.7 															"/>
														</g>
														<g>
															<polygon id="pt_27_" class="st0" points="324.7,25.2 329.4,10.6 334.2,25.2 															"/>
														</g>
														<g transform="rotate(72)">
															<polygon id="pt_28_" class="st0" points="328,20.7 343.3,20.7 330.9,29.7 															"/>
														</g>
														<g transform="rotate(144)">
															<polygon id="pt_29_" class="st0" points="333.3,22.4 338,37 325.6,28 															"/>
														</g>
													</g>
												</g>
											</g>
										</g>
									</g>
								</g>
							</g>
						</g>
					</g>
				</g>
			</g>
		</g>
	</g>
	<g id="_x3C_star_b2_x3E_">
		<g>
			<g>
				<g id="star_6_">
					<g transform="rotate(-144)">
						<polygon id="pt_30_" class="st0" points="64.5,53.6 52.1,62.6 56.8,48 						"/>
					</g>
					<g transform="rotate(-72)">
						<polygon id="pt_31_" class="st0" points="59.2,55.3 46.8,46.3 62.1,46.3 						"/>
					</g>
					<g>
						<polygon id="pt_32_" class="st0" points="55.9,50.8 60.7,36.2 65.4,50.8 						"/>
					</g>
					<g transform="rotate(72)">
						<polygon id="pt_33_" class="st0" points="59.2,46.3 74.6,46.3 62.1,55.3 						"/>
					</g>
					<g transform="rotate(144)">
						<polygon id="pt_34_" class="st0" points="64.5,48 69.3,62.6 56.8,53.6 						"/>
					</g>
				</g>
				<g>
					<g id="star_7_">
						<g transform="rotate(-144)">
							<polygon id="pt_35_" class="st0" points="124.2,53.6 111.8,62.6 116.6,48 							"/>
						</g>
						<g transform="rotate(-72)">
							<polygon id="pt_36_" class="st0" points="118.9,55.3 106.5,46.3 121.9,46.3 							"/>
						</g>
						<g>
							<polygon id="pt_37_" class="st0" points="115.6,50.8 120.4,36.2 125.1,50.8 							"/>
						</g>
						<g transform="rotate(72)">
							<polygon id="pt_38_" class="st0" points="118.9,46.3 134.3,46.3 121.9,55.3 							"/>
						</g>
						<g transform="rotate(144)">
							<polygon id="pt_39_" class="st0" points="124.2,48 129,62.6 116.6,53.6 							"/>
						</g>
					</g>
					<g>
						<g id="star_8_">
							<g transform="rotate(-144)">
								<polygon id="pt_40_" class="st0" points="184,53.6 171.5,62.6 176.3,48 								"/>
							</g>
							<g transform="rotate(-72)">
								<polygon id="pt_41_" class="st0" points="178.6,55.3 166.2,46.3 181.6,46.3 								"/>
							</g>
							<g>
								<polygon id="pt_42_" class="st0" points="175.4,50.8 180.1,36.2 184.9,50.8 								"/>
							</g>
							<g transform="rotate(72)">
								<polygon id="pt_43_" class="st0" points="178.6,46.3 194,46.3 181.6,55.3 								"/>
							</g>
							<g transform="rotate(144)">
								<polygon id="pt_44_" class="st0" points="184,48 188.7,62.6 176.3,53.6 								"/>
							</g>
						</g>
						<g>
							<g id="star_9_">
								<g transform="rotate(-144)">
									<polygon id="pt_45_" class="st0" points="243.7,53.6 231.3,62.6 236,48 									"/>
								</g>
								<g transform="rotate(-72)">
									<polygon id="pt_46_" class="st0" points="238.4,55.3 226,46.3 241.3,46.3 									"/>
								</g>
								<g>
									<polygon id="pt_47_" class="st0" points="235.1,50.8 239.8,36.2 244.6,50.8 									"/>
								</g>
								<g transform="rotate(72)">
									<polygon id="pt_48_" class="st0" points="238.4,46.3 253.7,46.3 241.3,55.3 									"/>
								</g>
								<g transform="rotate(144)">
									<polygon id="pt_49_" class="st0" points="243.7,48 248.4,62.6 236,53.6 									"/>
								</g>
							</g>
							<g id="s5_1_">
								<g id="star_10_">
									<g transform="rotate(-144)">
										<polygon id="pt_50_" class="st0" points="303.4,53.6 291,62.6 295.7,48 										"/>
									</g>
									<g transform="rotate(-72)">
										<polygon id="pt_51_" class="st0" points="298.1,55.3 285.7,46.3 301,46.3 										"/>
									</g>
									<g>
										<polygon id="pt_52_" class="st0" points="294.8,50.8 299.6,36.2 304.3,50.8 										"/>
									</g>
									<g transform="rotate(72)">
										<polygon id="pt_53_" class="st0" points="298.1,46.3 313.4,46.3 301,55.3 										"/>
									</g>
									<g transform="rotate(144)">
										<polygon id="pt_54_" class="st0" points="303.4,48 308.1,62.6 295.7,53.6 										"/>
									</g>
								</g>
							</g>
						</g>
					</g>
				</g>
			</g>
		</g>
	</g>
	<g id="_x3C_star_b3_x3E_">
		<g id="star_11_">
			<g transform="rotate(-144)">
				<polygon id="pt_55_" class="st0" points="34.6,79.2 22.2,88.2 27,73.6 				"/>
			</g>
			<g transform="rotate(-72)">
				<polygon id="pt_56_" class="st0" points="29.3,80.9 16.9,71.9 32.3,71.9 				"/>
			</g>
			<g>
				<polygon id="pt_57_" class="st0" points="26.1,76.4 30.8,61.8 35.6,76.4 				"/>
			</g>
			<g transform="rotate(72)">
				<polygon id="pt_58_" class="st0" points="29.3,71.9 44.7,71.9 32.3,80.9 				"/>
			</g>
			<g transform="rotate(144)">
				<polygon id="pt_59_" class="st0" points="34.6,73.6 39.4,88.2 27,79.2 				"/>
			</g>
		</g>
		<g>
			<g id="star_12_">
				<g transform="rotate(-144)">
					<polygon id="pt_60_" class="st0" points="94.4,79.2 82,88.2 86.7,73.6 					"/>
				</g>
				<g transform="rotate(-72)">
					<polygon id="pt_61_" class="st0" points="89.1,80.9 76.6,71.9 92,71.9 					"/>
				</g>
				<g>
					<polygon id="pt_62_" class="st0" points="85.8,76.4 90.5,61.8 95.3,76.4 					"/>
				</g>
				<g transform="rotate(72)">
					<polygon id="pt_63_" class="st0" points="89.1,71.9 104.4,71.9 92,80.9 					"/>
				</g>
				<g transform="rotate(144)">
					<polygon id="pt_64_" class="st0" points="94.4,73.6 99.1,88.2 86.7,79.2 					"/>
				</g>
			</g>
			<g>
				<g id="star_13_">
					<g transform="rotate(-144)">
						<polygon id="pt_65_" class="st0" points="154.1,79.2 141.7,88.2 146.4,73.6 						"/>
					</g>
					<g transform="rotate(-72)">
						<polygon id="pt_66_" class="st0" points="148.8,80.9 136.4,71.9 151.7,71.9 						"/>
					</g>
					<g>
						<polygon id="pt_67_" class="st0" points="145.5,76.4 150.3,61.8 155,76.4 						"/>
					</g>
					<g transform="rotate(72)">
						<polygon id="pt_68_" class="st0" points="148.8,71.9 164.1,71.9 151.7,80.9 						"/>
					</g>
					<g transform="rotate(144)">
						<polygon id="pt_69_" class="st0" points="154.1,73.6 158.8,88.2 146.4,79.2 						"/>
					</g>
				</g>
				<g>
					<g id="star_14_">
						<g transform="rotate(-144)">
							<polygon id="pt_70_" class="st0" points="213.8,79.2 201.4,88.2 206.1,73.6 							"/>
						</g>
						<g transform="rotate(-72)">
							<polygon id="pt_71_" class="st0" points="208.5,80.9 196.1,71.9 211.4,71.9 							"/>
						</g>
						<g>
							<polygon id="pt_72_" class="st0" points="205.2,76.4 210,61.8 214.7,76.4 							"/>
						</g>
						<g transform="rotate(72)">
							<polygon id="pt_73_" class="st0" points="208.5,71.9 223.9,71.9 211.4,80.9 							"/>
						</g>
						<g transform="rotate(144)">
							<polygon id="pt_74_" class="st0" points="213.8,73.6 218.6,88.2 206.1,79.2 							"/>
						</g>
					</g>
					<g id="s5_2_">
						<g id="star_15_">
							<g transform="rotate(-144)">
								<polygon id="pt_75_" class="st0" points="273.5,79.2 261.1,88.2 265.9,73.6 								"/>
							</g>
							<g transform="rotate(-72)">
								<polygon id="pt_76_" class="st0" points="268.2,80.9 255.8,71.9 271.2,71.9 								"/>
							</g>
							<g>
								<polygon id="pt_77_" class="st0" points="265,76.4 269.7,61.8 274.4,76.4 								"/>
							</g>
							<g transform="rotate(72)">
								<polygon id="pt_78_" class="st0" points="268.2,71.9 283.6,71.9 271.2,80.9 								"/>
							</g>
							<g transform="rotate(144)">
								<polygon id="pt_79_" class="st0" points="273.5,73.6 278.3,88.2 265.9,79.2 								"/>
							</g>
						</g>
					</g>
					<g id="s6_1_">
						<g id="star_16_">
							<g transform="rotate(-144)">
								<polygon id="pt_80_" class="st0" points="333.3,79.2 320.8,88.2 325.6,73.6 								"/>
							</g>
							<g transform="rotate(-72)">
								<polygon id="pt_81_" class="st0" points="328,80.9 315.5,71.9 330.9,71.9 								"/>
							</g>
							<g>
								<polygon id="pt_82_" class="st0" points="324.7,76.4 329.4,61.8 334.2,76.4 								"/>
							</g>
							<g transform="rotate(72)">
								<polygon id="pt_83_" class="st0" points="328,71.9 343.3,71.9 330.9,80.9 								"/>
							</g>
							<g transform="rotate(144)">
								<polygon id="pt_84_" class="st0" points="333.3,73.6 338,88.2 325.6,79.2 								"/>
							</g>
						</g>
					</g>
					<g>
						<g>
							<g id="star_17_">
							</g>
							<g id="star_18_">
							</g>
							<g id="star_19_">
							</g>
							<g id="star_20_">
							</g>
							<g id="star_21_">
							</g>
						</g>
					</g>
					<g>
						<g>
							<g id="s6_2_">
							</g>
							<g id="s5_3_">
							</g>
							<g id="s6_3_">
							</g>
							<g id="s5_4_">
							</g>
						</g>
						<g id="s6_4_">
						</g>
					</g>
				</g>
			</g>
		</g>
	</g>
	<g id="_x3C_star_b4_x3E_">
		<g>
			<g>
				<g id="star_26_">
					<g transform="rotate(-144)">
						<polygon id="pt_109_" class="st0" points="65.2,104.9 52.8,113.9 57.6,99.3 						"/>
					</g>
					<g transform="rotate(-72)">
						<polygon id="pt_108_" class="st0" points="59.9,106.6 47.5,97.6 62.9,97.6 						"/>
					</g>
					<g>
						<polygon id="pt_107_" class="st0" points="56.7,102.1 61.4,87.5 66.2,102.1 						"/>
					</g>
					<g transform="rotate(72)">
						<polygon id="pt_106_" class="st0" points="59.9,97.6 75.3,97.6 62.9,106.6 						"/>
					</g>
					<g transform="rotate(144)">
						<polygon id="pt_105_" class="st0" points="65.2,99.3 70,113.9 57.6,104.9 						"/>
					</g>
				</g>
				<g>
					<g id="star_25_">
						<g transform="rotate(-144)">
							<polygon id="pt_104_" class="st0" points="125,104.9 112.5,113.9 117.3,99.3 							"/>
						</g>
						<g transform="rotate(-72)">
							<polygon id="pt_103_" class="st0" points="119.7,106.6 107.2,97.6 122.6,97.6 							"/>
						</g>
						<g>
							<polygon id="pt_102_" class="st0" points="116.4,102.1 121.1,87.5 125.9,102.1 							"/>
						</g>
						<g transform="rotate(72)">
							<polygon id="pt_101_" class="st0" points="119.7,97.6 135,97.6 122.6,106.6 							"/>
						</g>
						<g transform="rotate(144)">
							<polygon id="pt_100_" class="st0" points="125,99.3 129.7,113.9 117.3,104.9 							"/>
						</g>
					</g>
					<g>
						<g id="star_24_">
							<g transform="rotate(-144)">
								<polygon id="pt_99_" class="st0" points="184.7,104.9 172.3,113.9 177,99.3 								"/>
							</g>
							<g transform="rotate(-72)">
								<polygon id="pt_98_" class="st0" points="179.4,106.6 167,97.6 182.3,97.6 								"/>
							</g>
							<g>
								<polygon id="pt_97_" class="st0" points="176.1,102.1 180.9,87.5 185.6,102.1 								"/>
							</g>
							<g transform="rotate(72)">
								<polygon id="pt_96_" class="st0" points="179.4,97.6 194.7,97.6 182.3,106.6 								"/>
							</g>
							<g transform="rotate(144)">
								<polygon id="pt_95_" class="st0" points="184.7,99.3 189.4,113.9 177,104.9 								"/>
							</g>
						</g>
						<g>
							<g id="star_23_">
								<g transform="rotate(-144)">
									<polygon id="pt_94_" class="st0" points="244.4,104.9 232,113.9 236.7,99.3 									"/>
								</g>
								<g transform="rotate(-72)">
									<polygon id="pt_93_" class="st0" points="239.1,106.6 226.7,97.6 242,97.6 									"/>
								</g>
								<g>
									<polygon id="pt_92_" class="st0" points="235.8,102.1 240.6,87.5 245.3,102.1 									"/>
								</g>
								<g transform="rotate(72)">
									<polygon id="pt_91_" class="st0" points="239.1,97.6 254.5,97.6 242,106.6 									"/>
								</g>
								<g transform="rotate(144)">
									<polygon id="pt_90_" class="st0" points="244.4,99.3 249.2,113.9 236.7,104.9 									"/>
								</g>
							</g>
							<g id="s5_5_">
								<g id="star_22_">
									<g transform="rotate(-144)">
										<polygon id="pt_89_" class="st0" points="304.1,104.9 291.7,113.9 296.5,99.3 										"/>
									</g>
									<g transform="rotate(-72)">
										<polygon id="pt_88_" class="st0" points="298.8,106.6 286.4,97.6 301.8,97.6 										"/>
									</g>
									<g>
										<polygon id="pt_87_" class="st0" points="295.6,102.1 300.3,87.5 305,102.1 										"/>
									</g>
									<g transform="rotate(72)">
										<polygon id="pt_86_" class="st0" points="298.8,97.6 314.2,97.6 301.8,106.6 										"/>
									</g>
									<g transform="rotate(144)">
										<polygon id="pt_85_" class="st0" points="304.1,99.3 308.9,113.9 296.5,104.9 										"/>
									</g>
								</g>
							</g>
						</g>
					</g>
				</g>
			</g>
		</g>
	</g>
	<g id="_x3C_star_b3_x3E__1_">
		<g id="star_37_">
			<g transform="rotate(-144)">
				<polygon id="pt_139_" class="st0" points="35.6,130.3 23.1,139.3 27.9,124.7 				"/>
			</g>
			<g transform="rotate(-72)">
				<polygon id="pt_138_" class="st0" points="30.2,132 17.8,123 33.2,123 				"/>
			</g>
			<g>
				<polygon id="pt_137_" class="st0" points="27,127.5 31.7,112.9 36.5,127.5 				"/>
			</g>
			<g transform="rotate(72)">
				<polygon id="pt_136_" class="st0" points="30.2,123 45.6,123 33.2,132 				"/>
			</g>
			<g transform="rotate(144)">
				<polygon id="pt_135_" class="st0" points="35.6,124.7 40.3,139.3 27.9,130.3 				"/>
			</g>
		</g>
		<g>
			<g id="star_36_">
				<g transform="rotate(-144)">
					<polygon id="pt_134_" class="st0" points="95.3,130.3 82.9,139.3 87.6,124.7 					"/>
				</g>
				<g transform="rotate(-72)">
					<polygon id="pt_133_" class="st0" points="90,132 77.6,123 92.9,123 					"/>
				</g>
				<g>
					<polygon id="pt_132_" class="st0" points="86.7,127.5 91.4,112.9 96.2,127.5 					"/>
				</g>
				<g transform="rotate(72)">
					<polygon id="pt_131_" class="st0" points="90,123 105.3,123 92.9,132 					"/>
				</g>
				<g transform="rotate(144)">
					<polygon id="pt_130_" class="st0" points="95.3,124.7 100,139.3 87.6,130.3 					"/>
				</g>
			</g>
			<g>
				<g id="star_35_">
					<g transform="rotate(-144)">
						<polygon id="pt_129_" class="st0" points="155,130.3 142.6,139.3 147.3,124.7 						"/>
					</g>
					<g transform="rotate(-72)">
						<polygon id="pt_128_" class="st0" points="149.7,132 137.3,123 152.6,123 						"/>
					</g>
					<g>
						<polygon id="pt_127_" class="st0" points="146.4,127.5 151.2,112.9 155.9,127.5 						"/>
					</g>
					<g transform="rotate(72)">
						<polygon id="pt_126_" class="st0" points="149.7,123 165,123 152.6,132 						"/>
					</g>
					<g transform="rotate(144)">
						<polygon id="pt_125_" class="st0" points="155,124.7 159.7,139.3 147.3,130.3 						"/>
					</g>
				</g>
				<g>
					<g id="star_34_">
						<g transform="rotate(-144)">
							<polygon id="pt_124_" class="st0" points="214.7,130.3 202.3,139.3 207,124.7 							"/>
						</g>
						<g transform="rotate(-72)">
							<polygon id="pt_123_" class="st0" points="209.4,132 197,123 212.3,123 							"/>
						</g>
						<g>
							<polygon id="pt_122_" class="st0" points="206.1,127.5 210.9,112.9 215.6,127.5 							"/>
						</g>
						<g transform="rotate(72)">
							<polygon id="pt_121_" class="st0" points="209.4,123 224.8,123 212.3,132 							"/>
						</g>
						<g transform="rotate(144)">
							<polygon id="pt_120_" class="st0" points="214.7,124.7 219.5,139.3 207,130.3 							"/>
						</g>
					</g>
					<g id="s5_8_">
						<g id="star_33_">
							<g transform="rotate(-144)">
								<polygon id="pt_119_" class="st0" points="274.4,130.3 262,139.3 266.8,124.7 								"/>
							</g>
							<g transform="rotate(-72)">
								<polygon id="pt_118_" class="st0" points="269.1,132 256.7,123 272.1,123 								"/>
							</g>
							<g>
								<polygon id="pt_117_" class="st0" points="265.9,127.5 270.6,112.9 275.3,127.5 								"/>
							</g>
							<g transform="rotate(72)">
								<polygon id="pt_116_" class="st0" points="269.1,123 284.5,123 272.1,132 								"/>
							</g>
							<g transform="rotate(144)">
								<polygon id="pt_115_" class="st0" points="274.4,124.7 279.2,139.3 266.8,130.3 								"/>
							</g>
						</g>
					</g>
					<g id="s6_8_">
						<g id="star_32_">
							<g transform="rotate(-144)">
								<polygon id="pt_114_" class="st0" points="334.2,130.3 321.7,139.3 326.5,124.7 								"/>
							</g>
							<g transform="rotate(-72)">
								<polygon id="pt_113_" class="st0" points="328.9,132 316.4,123 331.8,123 								"/>
							</g>
							<g>
								<polygon id="pt_112_" class="st0" points="325.6,127.5 330.3,112.9 335.1,127.5 								"/>
							</g>
							<g transform="rotate(72)">
								<polygon id="pt_111_" class="st0" points="328.9,123 344.2,123 331.8,132 								"/>
							</g>
							<g transform="rotate(144)">
								<polygon id="pt_110_" class="st0" points="334.2,124.7 338.9,139.3 326.5,130.3 								"/>
							</g>
						</g>
					</g>
					<g>
						<g>
							<g id="star_31_">
							</g>
							<g id="star_30_">
							</g>
							<g id="star_29_">
							</g>
							<g id="star_28_">
							</g>
							<g id="star_27_">
							</g>
						</g>
					</g>
					<g>
						<g>
							<g id="s6_7_">
							</g>
							<g id="s5_7_">
							</g>
							<g id="s6_6_">
							</g>
							<g id="s5_6_">
							</g>
						</g>
						<g id="s6_5_">
						</g>
					</g>
				</g>
			</g>
		</g>
	</g>
	<g id="_x3C_star_b4_x3E__1_">
		<g>
			<g>
				<g id="star_42_">
					<g transform="rotate(-144)">
						<polygon id="pt_164_" class="st0" points="65.4,155.2 53,164.2 57.7,149.6 						"/>
					</g>
					<g transform="rotate(-72)">
						<polygon id="pt_163_" class="st0" points="60.1,156.9 47.7,147.9 63,147.9 						"/>
					</g>
					<g>
						<polygon id="pt_162_" class="st0" points="56.8,152.4 61.6,137.8 66.3,152.4 						"/>
					</g>
					<g transform="rotate(72)">
						<polygon id="pt_161_" class="st0" points="60.1,147.9 75.5,147.9 63,156.9 						"/>
					</g>
					<g transform="rotate(144)">
						<polygon id="pt_160_" class="st0" points="65.4,149.6 70.2,164.2 57.7,155.2 						"/>
					</g>
				</g>
				<g>
					<g id="star_41_">
						<g transform="rotate(-144)">
							<polygon id="pt_159_" class="st0" points="125.1,155.2 112.7,164.2 117.5,149.6 							"/>
						</g>
						<g transform="rotate(-72)">
							<polygon id="pt_158_" class="st0" points="119.8,156.9 107.4,147.9 122.8,147.9 							"/>
						</g>
						<g>
							<polygon id="pt_157_" class="st0" points="116.6,152.4 121.3,137.8 126,152.4 							"/>
						</g>
						<g transform="rotate(72)">
							<polygon id="pt_156_" class="st0" points="119.8,147.9 135.2,147.9 122.8,156.9 							"/>
						</g>
						<g transform="rotate(144)">
							<polygon id="pt_155_" class="st0" points="125.1,149.6 129.9,164.2 117.5,155.2 							"/>
						</g>
					</g>
					<g>
						<g id="star_40_">
							<g transform="rotate(-144)">
								<polygon id="pt_154_" class="st0" points="184.9,155.2 172.4,164.2 177.2,149.6 								"/>
							</g>
							<g transform="rotate(-72)">
								<polygon id="pt_153_" class="st0" points="179.6,156.9 167.1,147.9 182.5,147.9 								"/>
							</g>
							<g>
								<polygon id="pt_152_" class="st0" points="176.3,152.4 181,137.8 185.8,152.4 								"/>
							</g>
							<g transform="rotate(72)">
								<polygon id="pt_151_" class="st0" points="179.6,147.9 194.9,147.9 182.5,156.9 								"/>
							</g>
							<g transform="rotate(144)">
								<polygon id="pt_150_" class="st0" points="184.9,149.6 189.6,164.2 177.2,155.2 								"/>
							</g>
						</g>
						<g>
							<g id="star_39_">
								<g transform="rotate(-144)">
									<polygon id="pt_149_" class="st0" points="244.6,155.2 232.2,164.2 236.9,149.6 									"/>
								</g>
								<g transform="rotate(-72)">
									<polygon id="pt_148_" class="st0" points="239.3,156.9 226.9,147.9 242.2,147.9 									"/>
								</g>
								<g>
									<polygon id="pt_147_" class="st0" points="236,152.4 240.8,137.8 245.5,152.4 									"/>
								</g>
								<g transform="rotate(72)">
									<polygon id="pt_146_" class="st0" points="239.3,147.9 254.6,147.9 242.2,156.9 									"/>
								</g>
								<g transform="rotate(144)">
									<polygon id="pt_145_" class="st0" points="244.6,149.6 249.3,164.2 236.9,155.2 									"/>
								</g>
							</g>
							<g id="s5_9_">
								<g id="star_38_">
									<g transform="rotate(-144)">
										<polygon id="pt_144_" class="st0" points="304.3,155.2 291.9,164.2 296.6,149.6 										"/>
									</g>
									<g transform="rotate(-72)">
										<polygon id="pt_143_" class="st0" points="299,156.9 286.6,147.9 301.9,147.9 										"/>
									</g>
									<g>
										<polygon id="pt_142_" class="st0" points="295.7,152.4 300.5,137.8 305.2,152.4 										"/>
									</g>
									<g transform="rotate(72)">
										<polygon id="pt_141_" class="st0" points="299,147.9 314.4,147.9 301.9,156.9 										"/>
									</g>
									<g transform="rotate(144)">
										<polygon id="pt_140_" class="st0" points="304.3,149.6 309.1,164.2 296.6,155.2 										"/>
									</g>
								</g>
							</g>
						</g>
					</g>
				</g>
			</g>
		</g>
	</g>
	<g id="_x3C_star_b3_x3E__2_">
		<g id="star_53_">
			<g transform="rotate(-144)">
				<polygon id="pt_194_" class="st0" points="36.1,180.7 23.7,189.7 28.4,175.1 				"/>
			</g>
			<g transform="rotate(-72)">
				<polygon id="pt_193_" class="st0" points="30.8,182.4 18.4,173.4 33.7,173.4 				"/>
			</g>
			<g>
				<polygon id="pt_192_" class="st0" points="27.5,177.9 32.3,163.3 37,177.9 				"/>
			</g>
			<g transform="rotate(72)">
				<polygon id="pt_191_" class="st0" points="30.8,173.4 46.2,173.4 33.7,182.4 				"/>
			</g>
			<g transform="rotate(144)">
				<polygon id="pt_190_" class="st0" points="36.1,175.1 40.9,189.7 28.4,180.7 				"/>
			</g>
		</g>
		<g>
			<g id="star_52_">
				<g transform="rotate(-144)">
					<polygon id="pt_189_" class="st0" points="95.8,180.7 83.4,189.7 88.2,175.1 					"/>
				</g>
				<g transform="rotate(-72)">
					<polygon id="pt_188_" class="st0" points="90.5,182.4 78.1,173.4 93.5,173.4 					"/>
				</g>
				<g>
					<polygon id="pt_187_" class="st0" points="87.3,177.9 92,163.3 96.7,177.9 					"/>
				</g>
				<g transform="rotate(72)">
					<polygon id="pt_186_" class="st0" points="90.5,173.4 105.9,173.4 93.5,182.4 					"/>
				</g>
				<g transform="rotate(144)">
					<polygon id="pt_185_" class="st0" points="95.8,175.1 100.6,189.7 88.2,180.7 					"/>
				</g>
			</g>
			<g>
				<g id="star_51_">
					<g transform="rotate(-144)">
						<polygon id="pt_184_" class="st0" points="155.6,180.7 143.1,189.7 147.9,175.1 						"/>
					</g>
					<g transform="rotate(-72)">
						<polygon id="pt_183_" class="st0" points="150.3,182.4 137.8,173.4 153.2,173.4 						"/>
					</g>
					<g>
						<polygon id="pt_182_" class="st0" points="147,177.9 151.7,163.3 156.5,177.9 						"/>
					</g>
					<g transform="rotate(72)">
						<polygon id="pt_181_" class="st0" points="150.3,173.4 165.6,173.4 153.2,182.4 						"/>
					</g>
					<g transform="rotate(144)">
						<polygon id="pt_180_" class="st0" points="155.6,175.1 160.3,189.7 147.9,180.7 						"/>
					</g>
				</g>
				<g>
					<g id="star_50_">
						<g transform="rotate(-144)">
							<polygon id="pt_179_" class="st0" points="215.3,180.7 202.9,189.7 207.6,175.1 							"/>
						</g>
						<g transform="rotate(-72)">
							<polygon id="pt_178_" class="st0" points="210,182.4 197.6,173.4 212.9,173.4 							"/>
						</g>
						<g>
							<polygon id="pt_177_" class="st0" points="206.7,177.9 211.4,163.3 216.2,177.9 							"/>
						</g>
						<g transform="rotate(72)">
							<polygon id="pt_176_" class="st0" points="210,173.4 225.3,173.4 212.9,182.4 							"/>
						</g>
						<g transform="rotate(144)">
							<polygon id="pt_175_" class="st0" points="215.3,175.1 220,189.7 207.6,180.7 							"/>
						</g>
					</g>
					<g id="s5_12_">
						<g id="star_49_">
							<g transform="rotate(-144)">
								<polygon id="pt_174_" class="st0" points="275,180.7 262.6,189.7 267.3,175.1 								"/>
							</g>
							<g transform="rotate(-72)">
								<polygon id="pt_173_" class="st0" points="269.7,182.4 257.3,173.4 272.6,173.4 								"/>
							</g>
							<g>
								<polygon id="pt_172_" class="st0" points="266.4,177.9 271.2,163.3 275.9,177.9 								"/>
							</g>
							<g transform="rotate(72)">
								<polygon id="pt_171_" class="st0" points="269.7,173.4 285,173.4 272.6,182.4 								"/>
							</g>
							<g transform="rotate(144)">
								<polygon id="pt_170_" class="st0" points="275,175.1 279.7,189.7 267.3,180.7 								"/>
							</g>
						</g>
					</g>
					<g id="s6_12_">
						<g id="star_48_">
							<g transform="rotate(-144)">
								<polygon id="pt_169_" class="st0" points="334.7,180.7 322.3,189.7 327,175.1 								"/>
							</g>
							<g transform="rotate(-72)">
								<polygon id="pt_168_" class="st0" points="329.4,182.4 317,173.4 332.4,173.4 								"/>
							</g>
							<g>
								<polygon id="pt_167_" class="st0" points="326.1,177.9 330.9,163.3 335.6,177.9 								"/>
							</g>
							<g transform="rotate(72)">
								<polygon id="pt_166_" class="st0" points="329.4,173.4 344.8,173.4 332.4,182.4 								"/>
							</g>
							<g transform="rotate(144)">
								<polygon id="pt_165_" class="st0" points="334.7,175.1 339.5,189.7 327,180.7 								"/>
							</g>
						</g>
					</g>
					<g>
						<g>
							<g id="star_47_">
							</g>
							<g id="star_46_">
							</g>
							<g id="star_45_">
							</g>
							<g id="star_44_">
							</g>
							<g id="star_43_">
							</g>
						</g>
					</g>
					<g>
						<g>
							<g id="s6_11_">
							</g>
							<g id="s5_11_">
							</g>
							<g id="s6_10_">
							</g>
							<g id="s5_10_">
							</g>
						</g>
						<g id="s6_9_">
						</g>
					</g>
				</g>
			</g>
		</g>
	</g>
	<g id="_x3C_star_b4_x3E__2_">
		<g>
			<g>
				<g id="star_58_">
					<g transform="rotate(-144)">
						<polygon id="pt_219_" class="st0" points="65.2,206.1 52.8,215.1 57.6,200.5 						"/>
					</g>
					<g transform="rotate(-72)">
						<polygon id="pt_218_" class="st0" points="59.9,207.8 47.5,198.8 62.9,198.8 						"/>
					</g>
					<g>
						<polygon id="pt_217_" class="st0" points="56.7,203.3 61.4,188.7 66.2,203.3 						"/>
					</g>
					<g transform="rotate(72)">
						<polygon id="pt_216_" class="st0" points="59.9,198.8 75.3,198.8 62.9,207.8 						"/>
					</g>
					<g transform="rotate(144)">
						<polygon id="pt_215_" class="st0" points="65.2,200.5 70,215.1 57.6,206.1 						"/>
					</g>
				</g>
				<g>
					<g id="star_57_">
						<g transform="rotate(-144)">
							<polygon id="pt_214_" class="st0" points="125,206.1 112.5,215.1 117.3,200.5 							"/>
						</g>
						<g transform="rotate(-72)">
							<polygon id="pt_213_" class="st0" points="119.7,207.8 107.2,198.8 122.6,198.8 							"/>
						</g>
						<g>
							<polygon id="pt_212_" class="st0" points="116.4,203.3 121.1,188.7 125.9,203.3 							"/>
						</g>
						<g transform="rotate(72)">
							<polygon id="pt_211_" class="st0" points="119.7,198.8 135,198.8 122.6,207.8 							"/>
						</g>
						<g transform="rotate(144)">
							<polygon id="pt_210_" class="st0" points="125,200.5 129.7,215.1 117.3,206.1 							"/>
						</g>
					</g>
					<g>
						<g id="star_56_">
							<g transform="rotate(-144)">
								<polygon id="pt_209_" class="st0" points="184.7,206.1 172.3,215.1 177,200.5 								"/>
							</g>
							<g transform="rotate(-72)">
								<polygon id="pt_208_" class="st0" points="179.4,207.8 167,198.8 182.3,198.8 								"/>
							</g>
							<g>
								<polygon id="pt_207_" class="st0" points="176.1,203.3 180.9,188.7 185.6,203.3 								"/>
							</g>
							<g transform="rotate(72)">
								<polygon id="pt_206_" class="st0" points="179.4,198.8 194.7,198.8 182.3,207.8 								"/>
							</g>
							<g transform="rotate(144)">
								<polygon id="pt_205_" class="st0" points="184.7,200.5 189.4,215.1 177,206.1 								"/>
							</g>
						</g>
						<g>
							<g id="star_55_">
								<g transform="rotate(-144)">
									<polygon id="pt_204_" class="st0" points="244.4,206.1 232,215.1 236.7,200.5 									"/>
								</g>
								<g transform="rotate(-72)">
									<polygon id="pt_203_" class="st0" points="239.1,207.8 226.7,198.8 242,198.8 									"/>
								</g>
								<g>
									<polygon id="pt_202_" class="st0" points="235.8,203.3 240.6,188.7 245.3,203.3 									"/>
								</g>
								<g transform="rotate(72)">
									<polygon id="pt_201_" class="st0" points="239.1,198.8 254.5,198.8 242,207.8 									"/>
								</g>
								<g transform="rotate(144)">
									<polygon id="pt_200_" class="st0" points="244.4,200.5 249.2,215.1 236.7,206.1 									"/>
								</g>
							</g>
							<g id="s5_13_">
								<g id="star_54_">
									<g transform="rotate(-144)">
										<polygon id="pt_199_" class="st0" points="304.1,206.1 291.7,215.1 296.5,200.5 										"/>
									</g>
									<g transform="rotate(-72)">
										<polygon id="pt_198_" class="st0" points="298.8,207.8 286.4,198.8 301.8,198.8 										"/>
									</g>
									<g>
										<polygon id="pt_197_" class="st0" points="295.6,203.3 300.3,188.7 305,203.3 										"/>
									</g>
									<g transform="rotate(72)">
										<polygon id="pt_196_" class="st0" points="298.8,198.8 314.2,198.8 301.8,207.8 										"/>
									</g>
									<g transform="rotate(144)">
										<polygon id="pt_195_" class="st0" points="304.1,200.5 308.9,215.1 296.5,206.1 										"/>
									</g>
								</g>
							</g>
						</g>
					</g>
				</g>
			</g>
		</g>
	</g>
	<g id="_x3C_star_b3_x3E__3_">
		<g id="star_69_">
			<g transform="rotate(-144)">
				<polygon id="pt_249_" class="st0" points="35.4,231.6 23,240.6 27.7,226 				"/>
			</g>
			<g transform="rotate(-72)">
				<polygon id="pt_248_" class="st0" points="30.1,233.3 17.7,224.3 33,224.3 				"/>
			</g>
			<g>
				<polygon id="pt_247_" class="st0" points="26.8,228.8 31.5,214.2 36.3,228.8 				"/>
			</g>
			<g transform="rotate(72)">
				<polygon id="pt_246_" class="st0" points="30.1,224.3 45.4,224.3 33,233.3 				"/>
			</g>
			<g transform="rotate(144)">
				<polygon id="pt_245_" class="st0" points="35.4,226 40.1,240.6 27.7,231.6 				"/>
			</g>
		</g>
		<g>
			<g id="star_68_">
				<g transform="rotate(-144)">
					<polygon id="pt_244_" class="st0" points="95.1,231.6 82.7,240.6 87.4,226 					"/>
				</g>
				<g transform="rotate(-72)">
					<polygon id="pt_243_" class="st0" points="89.8,233.3 77.4,224.3 92.7,224.3 					"/>
				</g>
				<g>
					<polygon id="pt_242_" class="st0" points="86.5,228.8 91.3,214.2 96,228.8 					"/>
				</g>
				<g transform="rotate(72)">
					<polygon id="pt_241_" class="st0" points="89.8,224.3 105.2,224.3 92.7,233.3 					"/>
				</g>
				<g transform="rotate(144)">
					<polygon id="pt_240_" class="st0" points="95.1,226 99.8,240.6 87.4,231.6 					"/>
				</g>
			</g>
			<g>
				<g id="star_67_">
					<g transform="rotate(-144)">
						<polygon id="pt_239_" class="st0" points="154.8,231.6 142.4,240.6 147.2,226 						"/>
					</g>
					<g transform="rotate(-72)">
						<polygon id="pt_238_" class="st0" points="149.5,233.3 137.1,224.3 152.5,224.3 						"/>
					</g>
					<g>
						<polygon id="pt_237_" class="st0" points="146.2,228.8 151,214.2 155.7,228.8 						"/>
					</g>
					<g transform="rotate(72)">
						<polygon id="pt_236_" class="st0" points="149.5,224.3 164.9,224.3 152.5,233.3 						"/>
					</g>
					<g transform="rotate(144)">
						<polygon id="pt_235_" class="st0" points="154.8,226 159.6,240.6 147.2,231.6 						"/>
					</g>
				</g>
				<g>
					<g id="star_66_">
						<g transform="rotate(-144)">
							<polygon id="pt_234_" class="st0" points="214.6,231.6 202.1,240.6 206.9,226 							"/>
						</g>
						<g transform="rotate(-72)">
							<polygon id="pt_233_" class="st0" points="209.2,233.3 196.8,224.3 212.2,224.3 							"/>
						</g>
						<g>
							<polygon id="pt_232_" class="st0" points="206,228.8 210.7,214.2 215.5,228.8 							"/>
						</g>
						<g transform="rotate(72)">
							<polygon id="pt_231_" class="st0" points="209.2,224.3 224.6,224.3 212.2,233.3 							"/>
						</g>
						<g transform="rotate(144)">
							<polygon id="pt_230_" class="st0" points="214.6,226 219.3,240.6 206.9,231.6 							"/>
						</g>
					</g>
					<g id="s5_16_">
						<g id="star_65_">
							<g transform="rotate(-144)">
								<polygon id="pt_229_" class="st0" points="274.3,231.6 261.9,240.6 266.6,226 								"/>
							</g>
							<g transform="rotate(-72)">
								<polygon id="pt_228_" class="st0" points="269,233.3 256.6,224.3 271.9,224.3 								"/>
							</g>
							<g>
								<polygon id="pt_227_" class="st0" points="265.7,228.8 270.4,214.2 275.2,228.8 								"/>
							</g>
							<g transform="rotate(72)">
								<polygon id="pt_226_" class="st0" points="269,224.3 284.3,224.3 271.9,233.3 								"/>
							</g>
							<g transform="rotate(144)">
								<polygon id="pt_225_" class="st0" points="274.3,226 279,240.6 266.6,231.6 								"/>
							</g>
						</g>
					</g>
					<g id="s6_16_">
						<g id="star_64_">
							<g transform="rotate(-144)">
								<polygon id="pt_224_" class="st0" points="334,231.6 321.6,240.6 326.3,226 								"/>
							</g>
							<g transform="rotate(-72)">
								<polygon id="pt_223_" class="st0" points="328.7,233.3 316.3,224.3 331.6,224.3 								"/>
							</g>
							<g>
								<polygon id="pt_222_" class="st0" points="325.4,228.8 330.2,214.2 334.9,228.8 								"/>
							</g>
							<g transform="rotate(72)">
								<polygon id="pt_221_" class="st0" points="328.7,224.3 344,224.3 331.6,233.3 								"/>
							</g>
							<g transform="rotate(144)">
								<polygon id="pt_220_" class="st0" points="334,226 338.7,240.6 326.3,231.6 								"/>
							</g>
						</g>
					</g>
					<g>
						<g>
							<g id="star_63_">
							</g>
							<g id="star_62_">
							</g>
							<g id="star_61_">
							</g>
							<g id="star_60_">
							</g>
							<g id="star_59_">
							</g>
						</g>
					</g>
					<g>
						<g>
							<g id="s6_15_">
							</g>
							<g id="s5_15_">
							</g>
							<g id="s6_14_">
							</g>
							<g id="s5_14_">
							</g>
						</g>
						<g id="s6_13_">
						</g>
					</g>
				</g>
			</g>
		</g>
	</g>
</g>
</svg>
