<?xml version="1.0" encoding="utf-8"?>
<!-- Generator: Adobe Illustrator 21.0.2, SVG Export Plug-In . SVG Version: 6.00 Build 0)  -->
<svg version="1.1" id="Layer_1" xmlns="http://www.w3.org/2000/svg" xmlns:xlink="http://www.w3.org/1999/xlink" x="0px" y="0px"
	 viewBox="0 0 13.4 18" style="enable-background:new 0 0 13.4 18;" xml:space="preserve">
<style type="text/css">
	.st0{fill:#FFFFFF;}
	.st1{fill:#F6D83D;}
</style>
<g>
	<path class="st0" d="M10,7C9.6,7,9.7,6.7,9.8,6.7s0.2-0.1,0.3-0.1l0.1-0.1c0-0.1-0.1-0.1-0.1-0.1l0,0c-0.2-0.7-0.5-1.3-1-1.8l0,0
		c0-0.1,0-0.3,0.1-0.4l0.1-0.3L9,4C8.9,4.1,8.7,4.2,8.6,4.2C8.2,4,7.8,3.9,7.4,3.8C7.3,3.7,7.2,3.6,7.2,3.5L7.1,3.2L7,3.5
		c0,0.1-0.1,0.3-0.2,0.4C6.4,3.9,6,4,5.6,4.2C5.5,4.2,5.4,4.1,5.2,4L5,3.8l0.1,0.3c0,0.1,0.1,0.3,0.1,0.4L5.1,4.6
		c-0.3,0.3-0.6,0.6-0.7,1c-0.1,0-0.2,0.1-0.4,0H3.7L4,5.8C4.1,5.9,4.1,6,4.2,6.1c0,0.1,0,0.2-0.1,0.4V6.4C3.9,6.2,3.6,6.1,3.4,6.2
		c-0.1,0-0.1,0.1-0.1,0.2s0,0.2,0,0.3c0,0.2,0,0.3,0,0.4s0.1,0.2,0.1,0.2c0.2,0.1,0.5,0,0.7-0.2L4.2,7c0,0.1,0,0.2,0.1,0.4
		C4.1,7.5,4.1,7.6,3.9,7.7L3.7,7.9l0,0H4c0.1,0,0.3,0,0.4,0c0.2,0.4,0.4,0.7,0.7,1L5.2,9c0,0.1,0,0.3-0.1,0.4L5,9.7l0.2-0.2
		c0.1-0.1,0.2-0.1,0.3-0.2C6,9.5,6.4,9.7,6.8,9.7C6.9,9.8,7,9.9,7,10.1l0.1,0.3l0.1-0.3c0-0.1,0.1-0.3,0.2-0.4
		c0.4,0,0.8-0.2,1.2-0.4c0.1,0,0.3,0.1,0.4,0.2l0.2,0.2L9.1,9.4c0-0.2,0-0.3,0-0.5l0,0c0.5-0.4,0.8-1,0.9-1.7l0,0l0.1-0.1
		C10.1,7,10.1,7,10,7z M8.9,6.3C8.7,6.3,8.6,6.2,8.6,6c0-0.1,0.1-0.3,0.3-0.3C9,5.8,9.1,5.9,9.1,6C9.1,6.2,9,6.3,8.9,6.3z"/>
	<path class="st1" d="M13.4,6.6c0-3.7-3-6.6-6.6-6.6S0.2,3,0.2,6.6c0,1.5,0.5,2.8,1.3,3.9l-1.5,6l3.4-1.9L5.5,18l1.2-4.7l0,0L7.9,18
		l2.1-3.3l3.4,1.9l-1.5-5.8C12.9,9.7,13.4,8.2,13.4,6.6z M6.8,0.9c3.2,0,5.8,2.6,5.8,5.8s-2.6,5.8-5.8,5.8S1,9.9,1,6.7
		C1.1,3.4,3.6,0.9,6.8,0.9z M5.2,16.2l-1.6-2.5L1,15.1l1-4c1,1.1,2.4,1.8,3.9,2L5.2,16.2z M9.8,13.8l-1.6,2.5l-0.8-3
		c1.5-0.1,2.9-0.8,4-1.8l1,3.8L9.8,13.8z"/>
</g>
</svg>
