<?xml version="1.0" encoding="utf-8"?>
<!-- Generator: Adobe Illustrator 23.0.3, SVG Export Plug-In . SVG Version: 6.00 Build 0)  -->
<svg version="1.1" id="Layer_1" xmlns="http://www.w3.org/2000/svg" xmlns:xlink="http://www.w3.org/1999/xlink" x="0px" y="0px"
	 viewBox="0 0 733.6 498.9" style="enable-background:new 0 0 733.6 498.9;" xml:space="preserve">
<style type="text/css">
	.st0{fill:none;stroke:#095280;stroke-width:5;stroke-miterlimit:10;}
	.st1{clip-path:url(#SVGID_2_);}
	.st2{clip-path:url(#SVGID_4_);fill:#40B4E5;}
	.st3{fill:#40B4E5;stroke:#40B4E5;stroke-miterlimit:10;}
	.st4{clip-path:url(#SVGID_6_);fill:#40B4E5;}
	.st5{clip-path:url(#SVGID_8_);fill:#F7D93E;}
	.st6{clip-path:url(#SVGID_10_);fill:none;}
	.st7{clip-path:url(#SVGID_12_);fill:none;}
	.st8{clip-path:url(#SVGID_14_);fill:none;}
	.st9{clip-path:url(#SVGID_16_);fill:none;}
	.st10{clip-path:url(#SVGID_18_);fill:none;}
	.st11{clip-path:url(#SVGID_20_);fill:none;}
	.st12{clip-path:url(#SVGID_22_);fill:#40B4E5;}
	.st13{clip-path:url(#SVGID_24_);fill:#40B4E5;}
	.st14{clip-path:url(#SVGID_26_);fill:#40B4E5;}
	.st15{clip-path:url(#SVGID_28_);fill:#40B4E5;}
	.st16{clip-path:url(#SVGID_30_);fill:#40B4E5;}
	.st17{clip-path:url(#SVGID_32_);fill:#40B4E5;}
	.st18{clip-path:url(#SVGID_34_);fill:#40B4E5;}
	.st19{clip-path:url(#SVGID_36_);fill:#40B4E5;}
	.st20{fill:#40B4E5;}
	.st21{fill:#E24242;}
	.st22{fill:#FFFFFF;}
</style>
<title>mapGraphic</title>
<polygon class="st0" points="-138.8,299 -138.8,299 -138.8,299 -138.8,299 "/>
<g>
	<defs>
		<rect id="SVGID_1_" x="-0.6" y="0.2" width="735.3" height="498.1"/>
	</defs>
	<clipPath id="SVGID_2_">
		<use xlink:href="#SVGID_1_"  style="overflow:visible;"/>
	</clipPath>
	<g class="st1">
		<g>
			<defs>
				<path id="SVGID_3_" d="M712,499.9H43.4c-24.8,0-45.1-20.3-45.1-45.1V40c0-24.8,20.3-45.1,45.1-45.1H712
					c24.8,0,45.1,20.3,45.1,45.1v414.8C757.1,479.6,736.8,499.9,712,499.9z"/>
			</defs>
			<clipPath id="SVGID_4_">
				<use xlink:href="#SVGID_3_"  style="overflow:visible;"/>
			</clipPath>
			<path class="st2" d="M-12-18.3l-0.2-0.2c-0.4-0.3-0.7-0.6-1-0.9h0.1C-12.8-19-12.4-18.6-12-18.3z"/>
		</g>
		<g>
			<g>
				<path class="st3" d="M803.6,530.6c0.3,0.2,0.5,0.3,0.5,0.3S804.1,529.7,803.6,530.6z"/>
				<path class="st3" d="M612.4,403.2c33.9-24.3,34-75.8,5.1-105.9c1.4,1.4,16-12.8,17.4-14.4c4.9-5.5,8.9-11.7,12.1-18.4
					c7.7-16.4,12.7-33.4,8.3-51.4c-7.2-29.8-34.9-46.1-58.5-62c-2.7-1.8-5.4-3.7-8.1-5.5c-9.4-6.6-18.9-13.1-28.3-19.7
					c-4.8-3.3-9.6-6.6-14.3-10c-2.4-1.7-5.7-4.5-8.1-6.1c-0.2-0.1,12.9-9.9,13-10c17.1-14.4,37.4-26.6,48.8-46.4
					c11.8-20.5,19.1-50,19.1-73.5c0-0.2-23.4,0.2-25.7,0.2c2.7,0-6.6,35.6-7.7,38.2c-9.4,21-13.7,26.1-38.4,48.1
					c-3.7,3.3-33.3,29.7-37.9,26.2c-32.6-24.8-65.6-49.8-103-66.5S326,1.5,286.5,12.5c-7,2-14.2,4.5-21.4,3.8
					c-12.3-1.2-62.2-37.5-72-44.9c-20-15-76.5-20.5-30.5,10.6c24.1,16,48.3,32,72.4,47.9c-41.5,27.1-96,33.3-142.4,16
					C58.3,33.1,29.9,9.5-0.2-10.6c-3.4-2.2-33.7-25.3-41.7-23.7c-4.8,0.9,10.5,25,10.6,27.5c0.1,5.7,5.5,9.9,10.4,13.1
					c12.5,8.3,25,16.5,37.5,24.8C-4.2,44.9-25,58.7-45.7,72.5c-2.4-1.9-4.8-3.8-7.2-5.6c-5.3,8.3-3.2,19.6,2.3,27.7
					s14,13.7,22.2,19.1c56.5,37.2,113,74.4,169.5,111.6c-30,20-59.9,39.9-89.9,59.9c-35-23.3-70-46.7-105.1-70
					c0,10,0.1,19.9,0.1,29.9c27.7,18.4,55.4,36.7,83,55.1c-27.7,18.5-55.4,37-83.1,55.5c0,10,0,20,0,30c35-23.3,70-46.6,105-69.9
					c38.6,25.7,77.1,51.3,115.7,77c-0.8-0.5-11.2,7.5-12.5,8.3c-4.3,2.9-8.6,5.8-13,8.6c-8.6,5.8-17.3,11.5-25.9,17.3
					c-17.3,11.5-34.6,23-51.9,34.5s-34.6,23-51.9,34.5c-4.3,2.9-8.6,5.8-13,8.6c-2.1,1.4-4.2,2.8-6.2,4.1c-1.5,1-6,2.9-6.7,4.5
					c-2.4,4.9,18.4,4.3,21.5,4c20.8-2.5,39.5-14.3,56.5-25.8c42.1-28.3,84.2-56.6,126.3-84.9c31.8,24.9,71.3,39.9,111.6,42.3
					c0.1,22.3,0.2,44.6,0.3,66.8c10.6,0,21.2,0,31.8,0c-1.1-22.5-0.6-45.1,1.5-67.5c22.2-2.5,46.4-8.9,65.5-18
					c4.8-2.3,7.8-3.9,13.1-3.7c5.6,0.2,10.8,2.3,16.1,4.2c50.6,17.9,108.3,14.5,156.4-9.4C622.1,446,782.9,548,792.4,553.7
					c2.1-4.3,9-16,9.8-19c0.7-2.5,1.1-3.6,1.4-4.1C794.2,524.3,651.9,428.9,612.4,403.2z M426.9,67l0.2,0.2l60,39.1l0.3,0.2
					l-25.3,16.8c0,0,0.1,0,0.1-0.1l-138.3,92.2l-0.2-0.2l-59.6-39.6l-0.2-0.2L426.9,67z M61.4,142.2C47.7,133.1,34,124,20.3,114.9
					c-6.9-4.6-13.9-9.2-20.8-13.8c-3.5-2.3-6.9-4.6-10.4-6.9c-2-1.3-7.1-6.2-9.6-6.6c-0.1,0-0.2,0-0.3,0
					c20.7-13.7,41.4-27.5,62.1-41.2c24.9,22.3,90.8,47,171.1,21.8c17.4-5.5,32.3-17.1,48.7-24.9c44.8-21.5,100.4-18.6,142.8,7.4
					C323.8,104,243.8,157.3,163.7,210.6C129.7,187.6,95.5,164.9,61.4,142.2z M136,340.4l-59.9-40l-0.2-0.2l164.2-109l0.2,0.2
					l59.8,39.7l0.2,0.2L136.2,340.6L136,340.4z M363.5,418.6c-42.3,15.3-94.9,10.5-129.4-12c-0.1-0.1-0.2-0.1-0.2-0.2
					c-24.7-16.1-49.1-32.5-73.6-48.8c-0.1-0.1-0.2-0.1-0.2-0.2l-1.4-1.2l164.7-109.5l0.2,0.2l61.8,41l0.2,0.2
					c-46.2,38.1-37.6,89.1,1.1,120.2C378.9,411.7,371.6,415.7,363.5,418.6z M571,293.4c0.6,0.4,1.2,0.8,1.9,1.2
					c1.8,1.2,3.6,2.4,5.3,3.6c0.6,0.4,1.1,0.8,1.7,1.2c0.5,0.4,1,0.8,1.6,1.2c0.5,0.4,1,0.8,1.5,1.2s0.9,0.8,1.4,1.2
					c14.3,12.4,22.9,27.9,22.9,44.7c-0.1,40.5-49.8,73.7-110.8,73.7c-29.6,0-56.5-7.8-76.4-20.4c-0.6-0.4-1.3-0.8-1.9-1.2
					c-0.6-0.4-1.2-0.8-1.9-1.3c-0.6-0.4-1.2-0.8-1.8-1.3c-0.6-0.4-1.1-0.8-1.7-1.2c-17-13-27.4-30-27.4-48.5
					c0-31.2,29.4-57.8,70.6-68.5l-11.9-19.4c-12,3.2-23.5,7.6-34.5,13.1l-0.2-0.2l-62-41.3l-0.2-0.2l163.2-109.1
					c0,0,75.3,50.7,83.4,56.4c9.5,6.6,18.7,15,25.5,24.4c8,11,12.2,24.1,8.6,37.5c-3.3,12.7-16.3,27.3-28.6,37.1l-3.6,2.6
					c-13.6-8.6-28.6-15.2-44.8-19.7l-12.4,19.5C550.6,283,561.5,287.7,571,293.4z"/>
			</g>
		</g>
		<g>
			<defs>
				<path id="SVGID_5_" d="M712,499.9H43.4c-24.8,0-45.1-20.3-45.1-45.1V40c0-24.8,20.3-45.1,45.1-45.1H712
					c24.8,0,45.1,20.3,45.1,45.1v414.8C757.1,479.6,736.8,499.9,712,499.9z"/>
			</defs>
			<clipPath id="SVGID_6_">
				<use xlink:href="#SVGID_5_"  style="overflow:visible;"/>
			</clipPath>
			<path class="st4" d="M567.2,346.5c0,26.4-31.6,47.4-71.4,47.3s-71-21.3-71-47.4s31.9-47.3,71.6-47.3S567.2,320.2,567.2,346.5z
				 M553.2,346.5c0-21.1-25.6-38.1-57.4-38.1s-57,17.3-57,38.1s26.2,38.3,58.1,38.1c31.9-0.2,56.3-17.4,56.3-38.2L553.2,346.5
				L553.2,346.5z"/>
		</g>
		<g>
			<defs>
				<path id="SVGID_7_" d="M712,499.9H43.4c-24.8,0-45.1-20.3-45.1-45.1V40c0-24.8,20.3-45.1,45.1-45.1H712
					c24.8,0,45.1,20.3,45.1,45.1v414.8C757.1,479.6,736.8,499.9,712,499.9z"/>
			</defs>
			<clipPath id="SVGID_8_">
				<use xlink:href="#SVGID_7_"  style="overflow:visible;"/>
			</clipPath>
			<path class="st5" d="M469.1,341c6.1-0.3,11.2-0.8,16.3-0.9c3-0.1,4.5-0.8,5.5-2.6s3.8-6.3,6.1-10c2.3,3.7,4.4,6.8,6.2,10
				s2.6,2.6,5.5,2.6c4.9,0.1,9.8,0.5,16.2,0.9c-4.8,2.7-8.9,4.8-12.4,7.2c-1.3,0.9-2.2,2.6-2,3.9c0.8,3.4,2.2,6.7,3.7,10.7
				c-5.1-2.1-9.4-3.6-13.5-5.5c-2.2-1.2-4.9-1.2-7.2-0.1c-4.1,1.9-8.5,3.5-13.8,5.7c1.4-3.9,2.5-7,3.8-10.1s0.5-3.5-2.3-4.9
				S473.7,343.5,469.1,341z"/>
		</g>
		<g>
			<defs>
				<path id="SVGID_9_" d="M712,499.9H43.4c-24.8,0-45.1-20.3-45.1-45.1V40c0-24.8,20.3-45.1,45.1-45.1H712
					c24.8,0,45.1,20.3,45.1,45.1v414.8C757.1,479.6,736.8,499.9,712,499.9z"/>
			</defs>
			<clipPath id="SVGID_10_">
				<use xlink:href="#SVGID_9_"  style="overflow:visible;"/>
			</clipPath>
			<polygon class="st6" points="15.8,30.1 -31.7,61.7 -31.7,-1.5 -31.4,-1.3 13.4,28.3 			"/>
		</g>
		<g>
			<defs>
				<path id="SVGID_11_" d="M712,499.9H43.4c-24.8,0-45.1-20.3-45.1-45.1V40c0-24.8,20.3-45.1,45.1-45.1H712
					c24.8,0,45.1,20.3,45.1,45.1v414.8C757.1,479.6,736.8,499.9,712,499.9z"/>
			</defs>
			<clipPath id="SVGID_12_">
				<use xlink:href="#SVGID_11_"  style="overflow:visible;"/>
			</clipPath>
			<path class="st7" d="M28.3,299.2c-0.8,0.7-1.7,1.4-2.6,2.1l-57.4,38.2V259l0.2,0.2l57,37.9L28.3,299.2z"/>
		</g>
		<g>
			<defs>
				<path id="SVGID_13_" d="M712,499.9H43.4c-24.8,0-45.1-20.3-45.1-45.1V40c0-24.8,20.3-45.1,45.1-45.1H712
					c24.8,0,45.1,20.3,45.1,45.1v414.8C757.1,479.6,736.8,499.9,712,499.9z"/>
			</defs>
			<clipPath id="SVGID_14_">
				<use xlink:href="#SVGID_13_"  style="overflow:visible;"/>
			</clipPath>
			<path class="st8" d="M140,224.1L140,224.1L50.1,284c-6.7-4.5-13.7-9.4-21-14.2l-60.6-40.3l-0.2-0.2V110.5l0.2,0.2l30.8,20.4
				l137.4,91.3c0.1,0,0.1,0.1,0.2,0.1C138,223.1,139.2,223.6,140,224.1z"/>
		</g>
		<g>
			<defs>
				<path id="SVGID_15_" d="M712,499.9H43.4c-24.8,0-45.1-20.3-45.1-45.1V40c0-24.8,20.3-45.1,45.1-45.1H712
					c24.8,0,45.1,20.3,45.1,45.1v414.8C757.1,479.6,736.8,499.9,712,499.9z"/>
			</defs>
			<clipPath id="SVGID_16_">
				<use xlink:href="#SVGID_15_"  style="overflow:visible;"/>
			</clipPath>
			<polygon class="st9" points="299.4,230.1 135.2,339.4 75.3,299.4 75.1,299.3 239.3,190.2 239.6,190.4 			"/>
		</g>
		<g>
			<defs>
				<path id="SVGID_17_" d="M712,499.9H43.4c-24.8,0-45.1-20.3-45.1-45.1V40c0-24.8,20.3-45.1,45.1-45.1H712
					c24.8,0,45.1,20.3,45.1,45.1v414.8C757.1,479.6,736.8,499.9,712,499.9z"/>
			</defs>
			<clipPath id="SVGID_18_">
				<use xlink:href="#SVGID_17_"  style="overflow:visible;"/>
			</clipPath>
			<path class="st10" d="M385.7,407.1c-7.8,3.5-15.1,7.4-23.2,10.3c-42.3,15.3-94.9,10.5-129.4-12c-24.7-16.1-49.1-32.5-73.6-48.8
				l0,0c-0.1-0.1-0.2-0.1-0.2-0.2l-1.4-1.2l164.7-109.5l0.2,0.2l61.8,41C338.4,325,347,376,385.7,407.1z"/>
		</g>
		<g>
			<defs>
				<path id="SVGID_19_" d="M712,499.9H43.4c-24.8,0-45.1-20.3-45.1-45.1V40c0-24.8,20.3-45.1,45.1-45.1H712
					c24.8,0,45.1,20.3,45.1,45.1v414.8C757.1,479.6,736.8,499.9,712,499.9z"/>
			</defs>
			<clipPath id="SVGID_20_">
				<use xlink:href="#SVGID_19_"  style="overflow:visible;"/>
			</clipPath>
			<path class="st11" d="M606.1,346.5c0.1,40.6-49.6,73.7-110.6,73.7c-29.5,0-56.3-7.7-76.1-20.2c-0.6-0.4-1.3-0.8-1.9-1.2
				c-0.6-0.4-1.2-0.8-1.9-1.3c-0.6-0.4-1.2-0.8-1.8-1.3c-0.6-0.4-1.1-0.8-1.7-1.2c-17-13-27.4-30-27.4-48.5
				c0-31.2,29.4-57.8,70.6-68.5c12.5-3.2,26.1-5,40.2-5c14.9,0,29.2,2,42.2,5.6c12,3.3,22.9,8,32.4,13.7c0.6,0.4,1.2,0.8,1.9,1.2
				c1.8,1.2,3.6,2.4,5.3,3.6c0.6,0.4,1.1,0.8,1.7,1.2c0.5,0.4,1,0.8,1.6,1.2c0.5,0.4,1,0.8,1.5,1.2c0.5,0.4,0.9,0.8,1.4,1.2
				C597.6,314.3,606.1,329.7,606.1,346.5z"/>
		</g>
		<g>
			<defs>
				<path id="SVGID_21_" d="M712,499.9H43.4c-24.8,0-45.1-20.3-45.1-45.1V40c0-24.8,20.3-45.1,45.1-45.1H712
					c24.8,0,45.1,20.3,45.1,45.1v414.8C757.1,479.6,736.8,499.9,712,499.9z"/>
			</defs>
			<clipPath id="SVGID_22_">
				<use xlink:href="#SVGID_21_"  style="overflow:visible;"/>
			</clipPath>
			<path class="st12" d="M322.5,245.7L157.8,355.2l1.4,1.2c0.1,0.1,0.2,0.1,0.2,0.2l-1.4-1.2l164.8-109.5L322.5,245.7z"/>
		</g>
		<g>
			<defs>
				<path id="SVGID_23_" d="M712,499.9H43.4c-24.8,0-45.1-20.3-45.1-45.1V40c0-24.8,20.3-45.1,45.1-45.1H712
					c24.8,0,45.1,20.3,45.1,45.1v414.8C757.1,479.6,736.8,499.9,712,499.9z"/>
			</defs>
			<clipPath id="SVGID_24_">
				<use xlink:href="#SVGID_23_"  style="overflow:visible;"/>
			</clipPath>
			<path class="st13" d="M136.9,222.5c1,0.7,2.2,1.2,3,1.6l0,0C139.2,223.6,138,223.1,136.9,222.5z"/>
		</g>
		<g>
			<defs>
				<path id="SVGID_25_" d="M712,499.9H43.4c-24.8,0-45.1-20.3-45.1-45.1V40c0-24.8,20.3-45.1,45.1-45.1H712
					c24.8,0,45.1,20.3,45.1,45.1v414.8C757.1,479.6,736.8,499.9,712,499.9z"/>
			</defs>
			<clipPath id="SVGID_26_">
				<use xlink:href="#SVGID_25_"  style="overflow:visible;"/>
			</clipPath>
			<polygon class="st14" points="263.1,174.7 426.1,66.2 425.9,66.1 262.9,174.5 			"/>
		</g>
		<g>
			<defs>
				<path id="SVGID_27_" d="M712,499.9H43.4c-24.8,0-45.1-20.3-45.1-45.1V40c0-24.8,20.3-45.1,45.1-45.1H712
					c24.8,0,45.1,20.3,45.1,45.1v414.8C757.1,479.6,736.8,499.9,712,499.9z"/>
			</defs>
			<clipPath id="SVGID_28_">
				<use xlink:href="#SVGID_27_"  style="overflow:visible;"/>
			</clipPath>
			<path class="st15" d="M122.5,64.1L122.5,64.1z"/>
		</g>
		<g>
			<defs>
				<path id="SVGID_29_" d="M712,499.9H43.4c-24.8,0-45.1-20.3-45.1-45.1V40c0-24.8,20.3-45.1,45.1-45.1H712
					c24.8,0,45.1,20.3,45.1,45.1v414.8C757.1,479.6,736.8,499.9,712,499.9z"/>
			</defs>
			<clipPath id="SVGID_30_">
				<use xlink:href="#SVGID_29_"  style="overflow:visible;"/>
			</clipPath>
			<path class="st16" d="M455.5,278.2c12.5-3.2,26.1-5,40.3-5c14.8,0,29,2,41.9,5.5c12,3.3,23,7.9,32.4,13.6
				c-9.4-5.8-20.4-10.4-32.4-13.7l12.4-19.5c-14.5-4-30-6.4-46.5-7c-21.4-0.8-41.6,1.4-60.5,6.5l12.1,19.3
				c-41.2,10.7-70.6,37.4-70.6,68.5c0,18.5,10.3,35.5,27.4,48.5c-16.9-13-27.1-29.9-27.1-48.3C385.1,315.5,414.4,288.9,455.5,278.2z
				"/>
		</g>
		<g>
			<defs>
				<path id="SVGID_31_" d="M712,499.9H43.4c-24.8,0-45.1-20.3-45.1-45.1V40c0-24.8,20.3-45.1,45.1-45.1H712
					c24.8,0,45.1,20.3,45.1,45.1v414.8C757.1,479.6,736.8,499.9,712,499.9z"/>
			</defs>
			<clipPath id="SVGID_32_">
				<use xlink:href="#SVGID_31_"  style="overflow:visible;"/>
			</clipPath>
			<polygon class="st17" points="75.3,299.4 239.6,190.4 239.3,190.2 75.1,299.3 			"/>
		</g>
		<g>
			<defs>
				<path id="SVGID_33_" d="M712,499.9H43.4c-24.8,0-45.1-20.3-45.1-45.1V40c0-24.8-45.1-50.8,45.1-45.1H712
					c24.8,0,45.1,20.3,45.1,45.1v414.8C757.1,479.6,736.8,499.9,712,499.9z"/>
			</defs>
			<clipPath id="SVGID_34_">
				<use xlink:href="#SVGID_33_"  style="overflow:visible;"/>
			</clipPath>
			<path class="st18" d="M284.5,445.5c-26.9-3.2-50-11.1-69.9-22.9c19.9,11.9,43.1,19.8,70.2,23c4.3,0.5,8.7,0.6,12.9,1.2
				c0.7,0.1,1.5,0.5,2.2,0.9c-0.7-0.5-1.7-1-2.5-1.1C293.2,446.1,288.8,446,284.5,445.5z"/>
		</g>
		<g>
			<defs>
				<path id="SVGID_35_" d="M712,499.9H43.4c-24.8,0-45.1-20.3-45.1-45.1V40c-147-96.3-57.1-86.9-17.4-79.6L712-5.1
					c24.8,0,45.1,20.3,45.1,45.1v414.8C757.1,479.6,736.8,499.9,712,499.9z"/>
			</defs>
			<clipPath id="SVGID_36_">
				<use xlink:href="#SVGID_35_"  style="overflow:visible;"/>
			</clipPath>
			<polygon class="st19" points="50.3,314.8 -31.4,369.2 -31.4,369.5 50.6,314.9 			"/>
		</g>
		<g>
			<path class="st20" d="M40.7,45.6l-62,41.1l-0.2-0.2l62-41.1C40.6,45.4,40.6,45.5,40.7,45.6z"/>
		</g>
		<g>
			<polygon class="st20" points="185.4,408.2 80.8,478 25.7,514.9 -19,514.9 -19.2,515.1 26,515.1 81.1,478.1 185.6,408.4 
				189.6,405.9 189.4,405.7 			"/>
		</g>
		<g>
			<path class="st20" d="M106.3,73.4"/>
		</g>
		<g>
			<g>
				<path class="st21" d="M562.6,225.1c0,12.4-2.5,23.5-8.6,33.5l-12.7,19.7v0.1l-10.2,16l-0.1,0.1l-12.3,19.4l-4.6,7.2l-12.9,20.2
					l-4.1,6.5l-4.1-6.6l-12.7-20.3l-4.4-7l-12.4-19.8l-0.1-0.2l-9.9-15.9l-0.1-0.2l-12.1-19.3c-6.4-9.9-9.9-21.5-9.9-33.5v-0.6
					c0-2.9,0.2-5.7,0.6-8.4c0-0.1,0-0.2,0-0.3c2.1-15.9,10-29.9,21.5-40c0.5-0.4,1-0.8,1.5-1.2c3.6-3,7.5-5.6,11.7-7.8
					c0.6-0.2,1.2-0.6,1.6-0.8c8.6-4.2,18.4-6.6,28.7-6.5c26.1,0,48.8,15.6,59.4,37.9C560.4,205.8,562.6,215.2,562.6,225.1z"/>
				<g>
					<path class="st22" d="M520.7,222c1.6,0,3.2,0,4.8,0c0.2,0,0.3,0,0.3,0.2c0.5,1.8,1.8,2.7,3.5,3.1c1,0.2,1.9,0,2.8-0.2
						c0.4-0.1,0.9-0.2,1.3-0.2c0.7-0.2,1.3-0.6,1.5-1.3c0.2-0.8-0.1-1.5-0.7-2c-0.8-0.7-1.7-1-2.7-1.2c-2.5-0.7-5-1.3-7.5-2.1
						c-1.6-0.5-3-1.2-4.4-2.1c-2-1.4-3.1-3.3-3.5-5.8c-0.2-1.8-0.1-3.5,0.5-5.2c0.7-1.7,1.8-3,3.4-4.1c1.9-1.3,4-2.1,6.2-2.4
						c1.6-0.2,3.2-0.3,4.9-0.2c2.5,0.1,4.8,0.5,7.2,1.6c3.1,1.6,5,3.9,5.8,7.3c0.1,0.3,0.2,0.7,0.2,1.1c0,0.2,0,0.3-0.2,0.3
						c-3.2,0-6.4,0-9.5,0c-0.2,0-0.2-0.1-0.3-0.3c-0.2-0.8-0.7-1.5-1.4-1.8c-0.4-0.2-0.9-0.3-1.4-0.4c-0.7-0.2-1.3-0.4-2.1-0.3
						c-0.5,0.1-1,0.2-1.5,0.2c-0.7,0.2-1.2,0.6-1.3,1.2c-0.2,0.7,0.1,1.3,0.7,1.8c0.7,0.7,1.6,1,2.5,1.2c2.3,0.7,4.7,1.2,7,1.9
						c1.6,0.5,3.3,1.2,4.7,2.1c2.1,1.3,3.5,3.1,3.9,5.6c0.2,0.9,0.2,1.9,0.1,2.8c-0.1,1.3-0.4,2.5-1,3.8c-0.9,1.7-2.2,3-3.9,4
						c-1.7,1.1-3.5,1.6-5.5,2.1c-1.7,0.3-3.5,0.4-5.2,0.4c-2.6,0-5.1-0.4-7.5-1.6c-2.1-1.1-3.9-2.5-5.3-4.4
						c-0.7-1.2-1.2-2.4-1.4-3.8c0-0.2-0.1-0.5-0.1-0.8c-0.1-0.2,0-0.3,0.3-0.3C517.4,222,519.1,222,520.7,222z"/>
					<path class="st22" d="M481.4,211.7c-0.2,0-0.2,0-0.3,0c-3.1,0-6.2,0-9.5,0c-0.2,0-0.4-0.1-0.4-0.3c-0.1-0.8-0.3-1.6-0.7-2.2
						c-0.6-1.1-1.4-1.9-2.5-2.3c-1.6-0.6-3.1-0.7-4.7-0.1c-1.1,0.4-1.8,1.2-2.4,2.1c-0.8,1.2-1.2,2.7-1.5,4.1
						c-0.2,1.5-0.2,3-0.2,4.4c0.1,1.5,0.3,3,1,4.3c0.7,1.6,2,2.6,3.7,3c1.2,0.2,2.4,0.3,3.6,0c1.5-0.4,2.5-1.3,3-2.7
						c0.3-0.7,0.5-1.6,0.7-2.3c0.1-0.2,0.1-0.3,0.3-0.3c3.3,0,6.6,0,9.8,0c0.1,0,0.2,0,0.2,0c-0.1,0.5-0.2,1-0.2,1.5
						c-0.4,2-1.1,3.9-2.1,5.5c-1.8,2.7-4.2,4.6-7.3,5.7c-2.1,0.7-4.3,1-6.5,0.9c-2.6-0.1-5.3-0.5-7.7-1.6c-3.9-1.7-6.6-4.7-8.1-8.6
						c-0.7-1.7-1-3.5-1.1-5.3c-0.1-1.6-0.1-3.4,0.2-5c0.3-2.5,1.2-4.8,2.5-6.8c1.4-2.1,3.2-3.8,5.3-5.1c1.8-1.1,3.7-1.6,5.8-2
						c1.5-0.2,3-0.2,4.5-0.1c2.6,0.2,5.2,0.7,7.5,2.1c3.1,1.6,5.2,4.2,6.2,7.6c0.4,1.2,0.6,2.3,0.7,3.5
						C481.4,211.6,481.4,211.6,481.4,211.7z"/>
					<path class="st22" d="M515.1,199.2c-0.2,0.6-0.4,1.2-0.6,1.7c-1,3-2.1,5.9-3,8.9c-1.4,4.1-2.9,8.2-4.3,12.3
						c-1.2,3.2-2.2,6.5-3.4,9.7c-0.1,0.2-0.2,0.2-0.3,0.2c-0.8,0-1.6,0-2.4,0c-2.6,0-5.2,0-7.8,0c-0.2,0-0.4-0.1-0.5-0.3
						c-1.4-4.1-2.8-8.3-4.2-12.4c-1.3-3.9-2.6-7.9-4-11.8c-0.9-2.6-1.8-5.3-2.7-8c0-0.1-0.1-0.2-0.1-0.3c0.2,0,0.2,0,0.3,0
						c3.4,0,6.7,0,10.1,0c0.2,0,0.4,0.1,0.4,0.3c1.1,4.2,2.2,8.4,3.3,12.6c0.7,2.9,1.5,5.8,2.3,8.6c0,0.1,0.1,0.2,0.2,0.3
						c0.2-0.5,0.2-1,0.4-1.5c1.3-4.8,2.6-9.7,3.9-14.5c0.5-1.8,1-3.6,1.5-5.5c0.1-0.2,0.2-0.3,0.4-0.3c3.4,0,6.7,0,10.2,0
						C514.9,199.2,515.1,199.2,515.1,199.2z"/>
					<path class="st22" d="M497.2,239.2c0.2-0.2,0.4-0.4,0.6-0.7c1.2-1.4,4.2-1.2,5,0.6c0,0,0.1,0.1,0.1,0.2
						c0.1-0.1,0.2-0.2,0.3-0.3c0.9-1.2,2.1-1.5,3.5-1.3c1.7,0.2,2.5,1.3,2.6,2.8c0.1,0.7,0.1,1.5,0.1,2.2c0,1.2,0,2.5,0,3.8
						c0,0.3-0.1,0.3-0.4,0.3c-1.1,0-2.1,0-3.1,0c0-0.2,0-0.2,0-0.4c0-1.2,0-2.5,0-3.8c0-0.6-0.1-1.2-0.2-1.6c0-0.1-0.1-0.2-0.1-0.2
						c-0.8-0.7-1.8-0.3-2.1,0.7c-0.1,0.2-0.1,0.5-0.1,0.7c0,1.4,0,2.8,0,4.2c0,0.2-0.1,0.4-0.3,0.4c-1,0-1.9,0-2.9,0
						c-0.2,0-0.3-0.1-0.3-0.3c0-1.2,0-2.5,0-3.7c0-0.7-0.1-1.2-0.2-1.9c0-0.2-0.2-0.3-0.4-0.4c-0.9-0.3-1.6,0.2-1.7,1.2
						c0,0.3-0.1,0.7-0.1,1.1c0,1.2,0,2.5,0,3.8c0,0.2-0.1,0.3-0.3,0.3c-1,0-2,0-3,0c-0.2,0-0.2-0.1-0.2-0.2c0-2.8,0-5.6,0-8.5
						c0-0.2,0.1-0.2,0.2-0.2c0.9,0,1.8,0,2.6,0c0.2,0,0.2,0.1,0.2,0.2C497.1,238.5,497.1,238.9,497.2,239.2
						C497.1,239.2,497.2,239.2,497.2,239.2z"/>
					<path class="st22" d="M451.8,237.9c0.8,0,1.6,0,2.5,0c0.7,0,0.7,0,0.7,0.7c0,0.2,0,0.4,0,0.7c0.2-0.1,0.2-0.2,0.3-0.2
						c0.2-0.2,0.2-0.2,0.4-0.4c1.4-1.4,3.9-1.2,4.9,0.2c0.7,0.9,1.2,1.9,1.2,3.1c0,1,0,2.1-0.5,3c-0.7,1.3-1.8,2.1-3.4,2.1
						c-1,0.1-1.8-0.2-2.5-0.9c0,0-0.1-0.1-0.2-0.1c0,0.2,0,0.2,0,0.3c0,1.1,0,2.1,0,3.2c0,0.2-0.1,0.3-0.3,0.3c-1,0-1.9,0-2.9,0
						c-0.1,0-0.2,0-0.2,0C451.8,246,451.8,241.9,451.8,237.9z M458.3,242.4L458.3,242.4c-0.1-0.2-0.1-0.5-0.2-0.8
						c-0.2-0.8-0.6-1.3-1.4-1.4c-0.6-0.1-1.2,0.3-1.3,0.9c-0.1,0.2-0.2,0.6-0.2,0.8c-0.2,0.6-0.1,1.2,0.2,1.7
						c0.2,0.6,0.7,0.8,1.2,0.8s1.1-0.2,1.3-0.7C458.2,243.3,458.3,242.8,458.3,242.4z"/>
					<path class="st22" d="M466.9,239.1c0.2-0.2,0.4-0.4,0.6-0.7c1.3-1.2,3.6-1,4.7,0.3c0.5,0.6,0.7,1.2,0.7,1.9
						c0.1,1.6,0.1,3.2,0.1,4.8c0,0.4,0,0.7,0,1.2c0,0.2-0.1,0.2-0.2,0.2c-1,0-2,0-3,0c-0.2,0-0.2-0.1-0.2-0.3c0-1.5,0-3,0-4.4
						c0-0.3-0.1-0.7-0.2-0.9c-0.2-0.6-0.7-0.7-1.2-0.7c-0.6,0-1,0.2-1.1,0.7c-0.1,0.4-0.2,0.8-0.2,1.2c0,1.3,0,2.7,0,4
						c0,0.3-0.1,0.4-0.4,0.4c-0.9,0-1.9,0-2.8,0c-0.2,0-0.3-0.1-0.3-0.3c0-3.9,0-7.8,0-11.7c0-0.2,0.1-0.3,0.3-0.3c1,0,2,0,3,0
						c0.2,0,0.3,0.2,0.2,0.3c0,1.2,0,2.4,0,3.5c0,0.2,0,0.3,0,0.5C466.8,239,466.9,239,466.9,239.1z"/>
					<path class="st22" d="M484.6,246.9c-0.2,0-0.2,0-0.3,0c-1,0-2,0-3,0c-0.2,0-0.3-0.1-0.3-0.3c0-0.2-0.1-0.4-0.1-0.6
						c-0.6,0.2-1.1,0.6-1.6,0.8c-1.1,0.3-2.1,0.4-3.2,0.1s-1.8-1.3-1.8-2.4s0.4-1.9,1.7-2.4c0.8-0.3,1.7-0.5,2.6-0.6
						c0.7-0.1,1.3-0.2,1.8-0.7c0.2-0.2,0.2-0.2,0.2-0.4c-0.1-0.3-0.3-0.5-0.7-0.5c-0.3,0-0.7,0-1,0s-0.6,0.2-0.7,0.6
						c0,0.1-0.2,0.2-0.2,0.2c-1,0-1.9,0-2.9,0c-0.2,0-0.2-0.1-0.2-0.2c0.1-1.1,0.7-1.7,1.6-2.1c0.7-0.3,1.5-0.5,2.3-0.5
						c1-0.1,2-0.1,3,0.2c0.3,0.1,0.6,0.2,0.9,0.2c0.9,0.3,1.2,1.1,1.3,1.9c0.1,0.5,0.1,1,0.1,1.5c0,1.1,0,2.1,0,3.1
						c0,0.7,0.1,1.2,0.4,1.8C484.6,246.6,484.6,246.7,484.6,246.9z M479.1,245.1c0.8,0,1.3-0.3,1.5-1c0.1-0.3,0.1-0.7,0.1-1
						c0-0.2-0.1-0.2-0.2-0.2c-0.5,0.2-1.1,0.2-1.6,0.4c-0.2,0.1-0.5,0.2-0.7,0.3c-0.2,0.2-0.3,0.6-0.2,0.9c0.1,0.3,0.3,0.4,0.6,0.5
						C478.6,245.1,478.8,245.1,479.1,245.1z"/>
					<path class="st22" d="M521.1,246.9c-0.4,0-0.7,0-1,0c-0.8,0-1.6,0-2.4,0c-0.2,0-0.3-0.1-0.3-0.3c0-0.2-0.1-0.4-0.2-0.7
						c-0.2,0.1-0.2,0.2-0.3,0.2c-1.4,1-3,1.2-4.6,0.7c-1.6-0.6-2.1-2.4-1.3-3.7c0.4-0.7,1.2-1.1,1.9-1.2c1-0.2,2-0.3,3-0.6
						c0.3-0.1,0.6-0.1,0.9-0.2c0.5-0.2,0.6-0.7,0.2-1.1c-0.4-0.3-1.5-0.4-1.9,0c-0.1,0.1-0.2,0.2-0.2,0.2c-0.1,0.2-0.2,0.3-0.5,0.3
						c-0.9,0-1.8,0-2.7,0c-0.3,0-0.4-0.1-0.3-0.4c0.2-1.2,0.8-1.8,1.8-2.1c1.4-0.5,2.8-0.5,4.2-0.4c0.6,0.1,1.2,0.2,1.7,0.4
						c0.8,0.2,1.3,0.9,1.5,1.8c0.1,0.5,0.1,1.1,0.2,1.6c0,1.2,0,2.2,0,3.4C520.6,245.5,520.5,246.2,521.1,246.9z M517.1,243
						c-0.1,0-0.2,0-0.2,0c-0.6,0.2-1.2,0.3-1.7,0.5c-0.2,0.1-0.4,0.2-0.6,0.3c-0.5,0.4-0.3,1.2,0.2,1.3c0.5,0.2,1.1,0.2,1.6-0.1
						c0.2-0.1,0.3-0.2,0.4-0.4C517.1,244.1,517.1,243.6,517.1,243z"/>
					<path class="st22" d="M534.4,247.4c0.4,0,0.8,0,1.2,0c0.5,0,0.6-0.2,0.6-0.7c0.1-0.7-0.2-1.3-0.5-1.9c-0.8-2.2-1.6-4.4-2.4-6.7
						c0-0.1,0-0.2-0.1-0.2c0.1,0,0.2,0,0.2,0c1,0,2,0,3,0c0.2,0,0.3,0.1,0.4,0.2c0.5,1.6,0.9,3.3,1.4,4.9c0,0.1,0.1,0.2,0.1,0.3
						c0.1-0.2,0.1-0.2,0.1-0.2c0.5-1.6,0.9-3.3,1.4-4.9c0.1-0.2,0.2-0.3,0.4-0.3c1,0,2,0,3,0c-0.1,0.3-0.2,0.7-0.3,1
						c-0.8,2.4-1.6,4.8-2.5,7.2c-0.4,1.1-0.9,2.1-1.4,3c-0.2,0.2-0.5,0.4-0.8,0.6c-0.8,0.3-1.8,0.4-2.7,0.3c-0.3,0-0.6,0-0.9-0.1
						c-0.1,0-0.2-0.1-0.2-0.2C534.4,248.9,534.4,248.2,534.4,247.4z"/>
					<path class="st22" d="M532.2,243.5c-0.2,1.6-1.2,2.9-2.7,3.3s-3,0.5-4.4-0.1c-1.5-0.5-2.5-1.6-2.7-3.2c-0.4-2.1,0.4-4,2.1-5.2
						c0.7-0.4,1.4-0.7,2.2-0.7c1-0.1,2.1-0.1,3,0.3c1.2,0.5,2.2,1.2,2.5,2.6c0.2,0.7,0.2,0.6-0.5,0.6c-0.9,0-1.8,0-2.7,0
						c-0.2,0-0.3-0.1-0.4-0.3c-0.2-0.4-0.3-0.8-0.8-0.9c-0.7-0.2-1.3,0.1-1.6,0.7c-0.4,1.1-0.5,2.1-0.1,3.2c0.2,0.6,0.7,0.8,1.4,0.8
						c0.6,0,1.1-0.3,1.2-0.9c0.1-0.2,0.2-0.3,0.5-0.3c0.9,0,1.9,0,2.8,0C532,243.5,532.2,243.5,532.2,243.5z"/>
					<path class="st22" d="M492.5,241.2c-0.3,0-0.6-0.1-0.9-0.1c-1.2,0.1-1.9,0.8-2,2.1c0,1.2-0.1,2.2-0.1,3.4
						c0,0.2-0.1,0.3-0.3,0.3c-0.9,0-1.9,0-2.8,0c-0.2,0-0.3-0.1-0.3-0.3c0-2.8,0-5.6,0-8.4c0-0.2,0.1-0.3,0.3-0.3c0.8,0,1.6,0,2.4,0
						c0.2,0,0.3,0,0.3,0.3c0,0.4,0,0.8,0,1.2c0,0.1,0,0.2,0,0.3h0.1c0.1-0.1,0.1-0.2,0.2-0.2c0.4-0.8,0.9-1.5,1.9-1.7
						c0.3-0.1,0.7-0.1,1.1-0.1c0.1,0,0.2,0.1,0.2,0.2C492.6,239,492.6,240,492.5,241.2C492.6,241.1,492.5,241.2,492.5,241.2z"/>
				</g>
			</g>
		</g>
	</g>
</g>
</svg>
