<?xml version="1.0" encoding="utf-8"?>
<!-- Generator: Adobe Illustrator 21.0.2, SVG Export Plug-In . SVG Version: 6.00 Build 0)  -->
<svg version="1.1" id="Layer_1" xmlns="http://www.w3.org/2000/svg" xmlns:xlink="http://www.w3.org/1999/xlink" x="0px" y="0px"
	 viewBox="0 0 804.1 535.4" style="enable-background:new 0 0 804.1 535.4;" xml:space="preserve">
<style type="text/css">
	.st0{fill:#40B4E5;stroke:#095280;stroke-miterlimit:10;}
	.st1{fill:none;stroke:#095280;stroke-width:5;stroke-miterlimit:10;}
	.st2{fill:#40B4E5;}
	.st3{fill:#40B4E5;stroke:#40B4E5;stroke-miterlimit:10;}
	.st4{fill:#F7D93E;}
	.st5{fill:none;}
	.st6{fill:#E24242;}
	.st7{fill:#FFFFFF;}
</style>
<title>mapGraphic</title>
<path class="st0" d="M1096,132.3c3.6-9.5,5.1-19.6,5-29.8c-0.1-9.2-1.4-18.4-3.5-27.3c-6-25.6-11.9-51.2-17.8-76.8
	c-5.6-2.5-11.9-4.1-17.5-5.5c-3.1-0.8-6.3-1.5-9.4-2.2l0.9,3.9c6.1,26.3,12.5,52.7,18.1,78.8c6.8,31.5,1.3,57.1-20.8,70.8
	c-9.1,5.8-21.7,6.4-34.6,5.8c2.4,8.6,4.3,17.3,5.8,26.1c0.1,0.6,0.2,1.2,0.3,1.9c18.7,0.3,38.1-4.4,52.4-16.9
	C1083.9,153.2,1091.7,143.5,1096,132.3z"/>
<path class="st0" d="M1452.7,480.2l-177.5,118.2h45.2l55.1-36.9l97.8-65.3C1466.9,490.3,1459.9,485.1,1452.7,480.2z"/>
<path class="st0" d="M1627.2,539.9c-10.7-0.2-21.2,1.6-31.8,2.4c0,18.6,0,37.2-0.1,55.8h32.1c-0.1-13.9-0.1-27.8-0.2-41.7V539.9z"/>
<path class="st0" d="M2042.6,586.6c-0.3-2.1-1.5-4-3.2-5.2c-41.2-27.5-82.5-55-123.8-82.5l-14.1-9.2c4.9-5.2,10-9.9,13.9-15
	c23.9-31.3,22.7-62.3-3.2-92.8c-1.9-2.1-0.2-2.6,2.5-4.6c0.1-0.1,0.2-0.2,0.4-0.3c-0.3-0.2-0.6-0.5-0.9-0.7
	c-7.4-5.5-15.1-10.7-23.1-15.4l-1.7,1.2c-25.7-16.3-56.3-25.4-91.3-26.7s-66.7,5.4-94.9,19.6l-62.3-41.5l163.7-108.8l3.3,2.3
	c4.9-3.1,9.9-6,15-8.7c3-1.6,6.1-3.2,9.2-4.6c-1.3-0.9-2.6-1.7-3.9-2.6l-2.5-1.9c14.2-9,30.1-15,46.7-17.6
	c41.1-6.9,77.3-0.6,107.7,19c12,7.7,5.7,22.4,11.2,34.8c-2.7,12.7,24,13.7,20.8,3c-7-12.6-13-51.3-26.8-59
	c-19.7-11-43.4-19.3-68.9-21.1c-2.5-0.2-4.4-0.2-4.4-2.5c0.2-27.3,0.2-54.5,0.3-81.8h-32.1c0.1,11.9,0.2,23.8,0.2,35.7
	c0.1,15.4,0,30.7,0.1,46.1c0,2.1-0.7,3.2-4.1,3.6c-27.4,3.3-51.2,11.3-71.6,23.9l-1.7,0.8l-21.7-14.6
	c-19.8-13.3-39.8-26.4-59.3-39.9c-28.8-19.9-64-29.4-105.1-29.3c-19.6,0-39,3-57.7,8.8c-2.1,0.6-3.8,1.5-6.2-0.1
	c-17.3-11.8-34.8-23.4-52.2-35.1h-45.2l72.4,48c-11.5,7.4-22.7,14.6-36.8,19.3c-2.8,0.9-4.4,1.1-6.6-0.8
	c-19.6-16.4-55.5-14.5-70.7,3.8c-2.1,2.6-4,2.6-7.4,1.8c-16.6-3.7-31.3-9.5-43.7-17.7L1282.3,65c-0.4-0.3-0.8-0.7-1.2-1.1H1240v3.4
	c6.4,4.1,13,8.1,19.4,12.3l48.6,32.1l2.4,1.8l-50.9,33.8c7,5.7,13.3,12.3,20,18.3l55.6-36.8c2,1.7,4,3.4,6.2,4.9
	c18.7,12.1,40.8,20.2,66.3,24.4c2.3,0.4,4.5,1.4,6.3,3c9.1,9.9,21.1,15.3,39.5,14.6s31.3-7.2,37.7-18.8c1.2-2.1,2.8-3.3,5.8-4.1
	c15.8-4.4,30.8-11.2,44.5-20.1c23-14.9,50.6-22.2,82.7-21.4c27.5,0.7,51.3,7.6,71.4,20.1c0.7,0.5,1.3,1,1.9,1.5l-231.3,153.9
	c-8.5,12.8-24.1,21-38.1,27.5c-1.4,0.7-2.8,0.6-3.9,0.2l-69.5,46.3c7.3,6.5,16,11.5,25.3,15.1l154-102.3l60.1,39.9l-153,102
	c7.3,6,15.2,11.1,23.7,15.1l152.5-101.4l62.1,41.2c-41.8,34.5-38.7,79.5-9.1,110.8c0.6-1,1.6-1.7,3.1-1.9
	c8.8-1.2,15.8-5.6,22.7-10.7c-10.4-11.2-16.4-24.5-16.4-38.6c0-40.6,49.9-73.6,110.8-73.5s110.4,32.9,110.5,73.5
	s-49.6,73.7-110.6,73.7c-24.9,0-47.9-5.5-66.5-14.8c-3.8,6.4-7.1,13-8.3,20.5c-0.1,0.3-0.1,0.6-0.2,0.9
	c54.9,21.1,109.4,19.1,164.9-6.3c2.7,2,5.7,4.5,9.1,6.8l128.7,86c0.7,0.5,1.4,1.1,2.1,1.8h23.1
	C2042.9,594.6,2043.1,590.6,2042.6,586.6z M1451,170.5c-19-0.1-34.6-10.5-34.2-23s15.5-22.7,34.4-22.7s34.6,10.3,34.4,23
	C1485.4,160.5,1470.1,170.6,1451,170.5z M1557.5,258l163-108.4l60.3,39.3l-163.5,108.9L1557.5,258z"/>
<path class="st0" d="M1309.8,391.8l-68.3,45.5l-1.6,0.8v30.1l91-60.6C1324.4,401.5,1318.2,394.9,1309.8,391.8z"/>
<circle class="st1" cx="-114.9" cy="319.1" r="0"/>
<path class="st2" d="M11.9,1.8l-0.2-0.2c-0.4-0.3-0.7-0.6-1-0.9h0.1C11.1,1.1,11.5,1.5,11.9,1.8z"/>
<g>
	<path class="st3" d="M827.5,550.7c0.3,0.2,0.5,0.3,0.5,0.3S828,549.8,827.5,550.7z"/>
	<path class="st3" d="M636.3,423.3c33.9-24.3,34-75.8,5.1-105.9c1.4,1.4,16-12.8,17.4-14.4c4.9-5.5,8.9-11.7,12.1-18.4
		c7.7-16.4,12.7-33.4,8.3-51.4c-7.2-29.8-34.9-46.1-58.5-62c-2.7-1.8-5.4-3.7-8.1-5.5c-9.4-6.6-18.9-13.1-28.3-19.7
		c-4.8-3.3-9.6-6.6-14.3-10c-2.4-1.7-5.7-4.5-8.1-6.1c-0.2-0.1,12.9-9.9,13-10c17.1-14.4,37.4-26.6,48.8-46.4
		c11.8-20.5,19.1-50,19.1-73.5c0-0.2-23.4,0.2-25.7,0.2c2.7,0-6.6,35.6-7.7,38.2c-9.4,21-13.7,26.1-38.4,48.1
		c-3.7,3.3-33.3,29.7-37.9,26.2c-32.6-24.8-65.6-49.8-103-66.5c-37.4-16.7-80.2-24.6-119.7-13.6c-7,2-14.2,4.5-21.4,3.8
		c-12.3-1.2-62.2-37.5-72-44.9c-20-15-76.5-20.5-30.5,10.6c24.1,16,48.3,32,72.4,47.9c-41.5,27.1-96,33.3-142.4,16
		C82.2,53.2,53.8,29.6,23.7,9.5C20.3,7.3-10-15.8-18-14.2c-4.8,0.9,10.5,25,10.6,27.5C-7.3,19-1.9,23.2,3,26.4
		c12.5,8.3,25,16.5,37.5,24.8C19.7,65-1.1,78.8-21.8,92.6c-2.4-1.9-4.8-3.8-7.2-5.6c-5.3,8.3-3.2,19.6,2.3,27.7
		c5.5,8.1,14,13.7,22.2,19.1C52,171,108.5,208.2,165,245.4c-30,20-59.9,39.9-89.9,59.9c-35-23.3-70-46.7-105.1-70
		c0,10,0.1,19.9,0.1,29.9c27.7,18.4,55.4,36.7,83,55.1c-27.7,18.5-55.4,37-83.1,55.5c0,10,0,20,0,30c35-23.3,70-46.6,105-69.9
		c38.6,25.7,77.1,51.3,115.7,77c-0.8-0.5-11.2,7.5-12.5,8.3c-4.3,2.9-8.6,5.8-13,8.6c-8.6,5.8-17.3,11.5-25.9,17.3
		c-17.3,11.5-34.6,23-51.9,34.5c-17.3,11.5-34.6,23-51.9,34.5c-4.3,2.9-8.6,5.8-13,8.6c-2.1,1.4-4.2,2.8-6.2,4.1
		c-1.5,1-6,2.9-6.7,4.5c-2.4,4.9,18.4,4.3,21.5,4c20.8-2.5,39.5-14.3,56.5-25.8c42.1-28.3,84.2-56.6,126.3-84.9
		c31.8,24.9,71.3,39.9,111.6,42.3c0.1,22.3,0.2,44.6,0.3,66.8c10.6,0,21.2,0,31.8,0c-1.1-22.5-0.6-45.1,1.5-67.5
		c22.2-2.5,46.4-8.9,65.5-18c4.8-2.3,7.8-3.9,13.1-3.7c5.6,0.2,10.8,2.3,16.1,4.2c50.6,17.9,108.3,14.5,156.4-9.4
		c35.8,24.8,196.6,126.8,206.1,132.5c2.1-4.3,9-16,9.8-19c0.7-2.5,1.1-3.6,1.4-4.1C818.1,544.4,675.8,449,636.3,423.3z M450.8,87.1
		l0.2,0.2l60,39.1l0.3,0.2L486,143.4c0,0,0.1,0,0.1-0.1l-138.3,92.2l-0.2-0.2L288,195.7l-0.2-0.2L450.8,87.1z M85.3,162.3
		c-13.7-9.1-27.4-18.2-41.1-27.3c-6.9-4.6-13.9-9.2-20.8-13.8c-3.5-2.3-6.9-4.6-10.4-6.9c-2-1.3-7.1-6.2-9.6-6.6c-0.1,0-0.2,0-0.3,0
		C23.8,94,44.5,80.2,65.2,66.5c24.9,22.3,90.8,47,171.1,21.8c17.4-5.5,32.3-17.1,48.7-24.9c44.8-21.5,100.4-18.6,142.8,7.4
		c-80.1,53.3-160.1,106.6-240.2,159.9C153.6,207.7,119.4,185,85.3,162.3z M159.9,360.5l-59.9-40l-0.2-0.2l164.2-109l0.2,0.2
		l59.8,39.7l0.2,0.2L160.1,360.7L159.9,360.5z M387.4,438.7c-42.3,15.3-94.9,10.5-129.4-12c-0.1-0.1-0.2-0.1-0.2-0.2
		c-24.7-16.1-49.1-32.5-73.6-48.8c-0.1-0.1-0.2-0.1-0.2-0.2l-1.4-1.2l164.7-109.5l0.2,0.2l61.8,41l0.2,0.2
		c-46.2,38.1-37.6,89.1,1.1,120.2C402.8,431.8,395.5,435.8,387.4,438.7z M594.9,313.5c0.6,0.4,1.2,0.8,1.9,1.2
		c1.8,1.2,3.6,2.4,5.3,3.6c0.6,0.4,1.1,0.8,1.7,1.2c0.5,0.4,1,0.8,1.6,1.2c0.5,0.4,1,0.8,1.5,1.2s0.9,0.8,1.4,1.2
		c14.3,12.4,22.9,27.9,22.9,44.7c-0.1,40.5-49.8,73.7-110.8,73.7c-29.6,0-56.5-7.8-76.4-20.4c-0.6-0.4-1.3-0.8-1.9-1.2
		c-0.6-0.4-1.2-0.8-1.9-1.3c-0.6-0.4-1.2-0.8-1.8-1.3c-0.6-0.4-1.1-0.8-1.7-1.2c-17-13-27.4-30-27.4-48.5
		c0-31.2,29.4-57.8,70.6-68.5L468,279.7c-12,3.2-23.5,7.6-34.5,13.1l-0.2-0.2l-62-41.3l-0.2-0.2L534.3,142c0,0,75.3,50.7,83.4,56.4
		c9.5,6.6,18.7,15,25.5,24.4c8,11,12.2,24.1,8.6,37.5c-3.3,12.7-16.3,27.3-28.6,37.1l-3.6,2.6c-13.6-8.6-28.6-15.2-44.8-19.7
		l-12.4,19.5C574.5,303.1,585.4,307.8,594.9,313.5z"/>
</g>
<path class="st2" d="M591.1,366.6c0,26.4-31.6,47.4-71.4,47.3s-71-21.3-71-47.4s31.9-47.3,71.6-47.3S591.1,340.3,591.1,366.6z
	 M577.1,366.6c0-21.1-25.6-38.1-57.4-38.1s-57,17.3-57,38.1s26.2,38.3,58.1,38.1c31.9-0.2,56.3-17.4,56.3-38.2L577.1,366.6
	L577.1,366.6z"/>
<path class="st4" d="M493,361.1c6.1-0.3,11.2-0.8,16.3-0.9c3-0.1,4.5-0.8,5.5-2.6s3.8-6.3,6.1-10c2.3,3.7,4.4,6.8,6.2,10
	s2.6,2.6,5.5,2.6c4.9,0.1,9.8,0.5,16.2,0.9c-4.8,2.7-8.9,4.8-12.4,7.2c-1.3,0.9-2.2,2.6-2,3.9c0.8,3.4,2.2,6.7,3.7,10.7
	c-5.1-2.1-9.4-3.6-13.5-5.5c-2.2-1.2-4.9-1.2-7.2-0.1c-4.1,1.9-8.5,3.5-13.8,5.7c1.4-3.9,2.5-7,3.8-10.1s0.5-3.5-2.3-4.9
	S497.6,363.6,493,361.1z"/>
<polygon class="st5" points="39.7,50.2 -7.8,81.8 -7.8,18.6 -7.5,18.8 37.3,48.4 "/>
<path class="st5" d="M52.2,319.3c-0.8,0.7-1.7,1.4-2.6,2.1l-57.4,38.2v-80.5l0.2,0.2l57,37.9L52.2,319.3z"/>
<path class="st5" d="M163.9,244.2L163.9,244.2L74,304.1c-6.7-4.5-13.7-9.4-21-14.2l-60.6-40.3l-0.2-0.2V130.6l0.2,0.2l30.8,20.4
	l137.4,91.3c0.1,0,0.1,0.1,0.2,0.1C161.9,243.2,163.1,243.7,163.9,244.2z"/>
<polygon class="st5" points="323.3,250.2 159.1,359.5 99.2,319.5 99,319.4 263.2,210.3 263.5,210.5 "/>
<path class="st5" d="M409.6,427.2c-7.8,3.5-15.1,7.4-23.2,10.3c-42.3,15.3-94.9,10.5-129.4-12c-24.7-16.1-49.1-32.5-73.6-48.8l0,0
	c-0.1-0.1-0.2-0.1-0.2-0.2l-1.4-1.2l164.7-109.5l0.2,0.2l61.8,41C362.3,345.1,370.9,396.1,409.6,427.2z"/>
<path class="st5" d="M630,366.6c0.1,40.6-49.6,73.7-110.6,73.7c-29.5,0-56.3-7.7-76.1-20.2c-0.6-0.4-1.3-0.8-1.9-1.2
	c-0.6-0.4-1.2-0.8-1.9-1.3c-0.6-0.4-1.2-0.8-1.8-1.3c-0.6-0.4-1.1-0.8-1.7-1.2c-17-13-27.4-30-27.4-48.5c0-31.2,29.4-57.8,70.6-68.5
	c12.5-3.2,26.1-5,40.2-5c14.9,0,29.2,2,42.2,5.6c12,3.3,22.9,8,32.4,13.7c0.6,0.4,1.2,0.8,1.9,1.2c1.8,1.2,3.6,2.4,5.3,3.6
	c0.6,0.4,1.1,0.8,1.7,1.2c0.5,0.4,1,0.8,1.6,1.2c0.5,0.4,1,0.8,1.5,1.2c0.5,0.4,0.9,0.8,1.4,1.2C621.5,334.4,630,349.8,630,366.6z"
	/>
<path class="st2" d="M346.4,265.8L181.7,375.3l1.4,1.2c0.1,0.1,0.2,0.1,0.2,0.2l-1.4-1.2L346.7,266L346.4,265.8z"/>
<path class="st2" d="M160.8,242.6c1,0.7,2.2,1.2,3,1.6l0,0C163.1,243.7,161.9,243.2,160.8,242.6z"/>
<polygon class="st2" points="287,194.8 450,86.3 449.8,86.2 286.8,194.6 "/>
<path class="st2" d="M146.4,84.2L146.4,84.2z"/>
<path class="st2" d="M479.4,298.3c12.5-3.2,26.1-5,40.3-5c14.8,0,29,2,41.9,5.5c12,3.3,23,7.9,32.4,13.6
	c-9.4-5.8-20.4-10.4-32.4-13.7l12.4-19.5c-14.5-4-30-6.4-46.5-7c-21.4-0.8-41.6,1.4-60.5,6.5l12.1,19.3
	c-41.2,10.7-70.6,37.4-70.6,68.5c0,18.5,10.3,35.5,27.4,48.5c-16.9-13-27.1-29.9-27.1-48.3C409,335.6,438.3,309,479.4,298.3z"/>
<polygon class="st2" points="99.2,319.5 263.5,210.5 263.2,210.3 99,319.4 "/>
<path class="st2" d="M308.4,465.6c-26.9-3.2-50-11.1-69.9-22.9c19.9,11.9,43.1,19.8,70.2,23c4.3,0.5,8.7,0.6,12.9,1.2
	c0.7,0.1,1.5,0.5,2.2,0.9c-0.7-0.5-1.7-1-2.5-1.1C317.1,466.2,312.7,466.1,308.4,465.6z"/>
<polygon class="st2" points="74.2,334.9 -7.5,389.3 -7.5,389.6 74.5,335 "/>
<path class="st2" d="M64.6,65.7l-62,41.1l-0.2-0.2l62-41.1C64.5,65.5,64.5,65.6,64.6,65.7z"/>
<polygon class="st2" points="209.3,428.3 104.7,498.1 49.6,535 4.9,535 4.7,535.2 49.9,535.2 105,498.2 209.5,428.5 213.5,426 
	213.3,425.8 "/>
<path class="st2" d="M130.2,93.5"/>
<g>
	<path class="st6" d="M586.5,245.2c0,12.4-2.5,23.5-8.6,33.5l-12.7,19.7v0.1l-10.2,16l-0.1,0.1L542.6,334l-4.6,7.2l-12.9,20.2
		l-4.1,6.5l-4.1-6.6L504.2,341l-4.4-7l-12.4-19.8l-0.1-0.2l-9.9-15.9l-0.1-0.2l-12.1-19.3c-6.4-9.9-9.9-21.5-9.9-33.5v-0.6
		c0-2.9,0.2-5.7,0.6-8.4c0-0.1,0-0.2,0-0.3c2.1-15.9,10-29.9,21.5-40c0.5-0.4,1-0.8,1.5-1.2c3.6-3,7.5-5.6,11.7-7.8
		c0.6-0.2,1.2-0.6,1.6-0.8c8.6-4.2,18.4-6.6,28.7-6.5c26.1,0,48.8,15.6,59.4,37.9C584.3,225.9,586.5,235.3,586.5,245.2z"/>
	<g>
		<path class="st7" d="M544.6,242.1c1.6,0,3.2,0,4.8,0c0.2,0,0.3,0,0.3,0.2c0.5,1.8,1.8,2.7,3.5,3.1c1,0.2,1.9,0,2.8-0.2
			c0.4-0.1,0.9-0.2,1.3-0.2c0.7-0.2,1.3-0.6,1.5-1.3c0.2-0.8-0.1-1.5-0.7-2c-0.8-0.7-1.7-1-2.7-1.2c-2.5-0.7-5-1.3-7.5-2.1
			c-1.6-0.5-3-1.2-4.4-2.1c-2-1.4-3.1-3.3-3.5-5.8c-0.2-1.8-0.1-3.5,0.5-5.2c0.7-1.7,1.8-3,3.4-4.1c1.9-1.3,4-2.1,6.2-2.4
			c1.6-0.2,3.2-0.3,4.9-0.2c2.5,0.1,4.8,0.5,7.2,1.6c3.1,1.6,5,3.9,5.8,7.3c0.1,0.3,0.2,0.7,0.2,1.1c0,0.2,0,0.3-0.2,0.3
			c-3.2,0-6.4,0-9.5,0c-0.2,0-0.2-0.1-0.3-0.3c-0.2-0.8-0.7-1.5-1.4-1.8c-0.4-0.2-0.9-0.3-1.4-0.4c-0.7-0.2-1.3-0.4-2.1-0.3
			c-0.5,0.1-1,0.2-1.5,0.2c-0.7,0.2-1.2,0.6-1.3,1.2c-0.2,0.7,0.1,1.3,0.7,1.8c0.7,0.7,1.6,1,2.5,1.2c2.3,0.7,4.7,1.2,7,1.9
			c1.6,0.5,3.3,1.2,4.7,2.1c2.1,1.3,3.5,3.1,3.9,5.6c0.2,0.9,0.2,1.9,0.1,2.8c-0.1,1.3-0.4,2.5-1,3.8c-0.9,1.7-2.2,3-3.9,4
			c-1.7,1.1-3.5,1.6-5.5,2.1c-1.7,0.3-3.5,0.4-5.2,0.4c-2.6,0-5.1-0.4-7.5-1.6c-2.1-1.1-3.9-2.5-5.3-4.4c-0.7-1.2-1.2-2.4-1.4-3.8
			c0-0.2-0.1-0.5-0.1-0.8c-0.1-0.2,0-0.3,0.3-0.3C541.3,242.1,543,242.1,544.6,242.1z"/>
		<path class="st7" d="M505.3,231.8c-0.2,0-0.2,0-0.3,0c-3.1,0-6.2,0-9.5,0c-0.2,0-0.4-0.1-0.4-0.3c-0.1-0.8-0.3-1.6-0.7-2.2
			c-0.6-1.1-1.4-1.9-2.5-2.3c-1.6-0.6-3.1-0.7-4.7-0.1c-1.1,0.4-1.8,1.2-2.4,2.1c-0.8,1.2-1.2,2.7-1.5,4.1c-0.2,1.5-0.2,3-0.2,4.4
			c0.1,1.5,0.3,3,1,4.3c0.7,1.6,2,2.6,3.7,3c1.2,0.2,2.4,0.3,3.6,0c1.5-0.4,2.5-1.3,3-2.7c0.3-0.7,0.5-1.6,0.7-2.3
			c0.1-0.2,0.1-0.3,0.3-0.3c3.3,0,6.6,0,9.8,0c0.1,0,0.2,0,0.2,0c-0.1,0.5-0.2,1-0.2,1.5c-0.4,2-1.1,3.9-2.1,5.5
			c-1.8,2.7-4.2,4.6-7.3,5.7c-2.1,0.7-4.3,1-6.5,0.9c-2.6-0.1-5.3-0.5-7.7-1.6c-3.9-1.7-6.6-4.7-8.1-8.6c-0.7-1.7-1-3.5-1.1-5.3
			c-0.1-1.6-0.1-3.4,0.2-5c0.3-2.5,1.2-4.8,2.5-6.8c1.4-2.1,3.2-3.8,5.3-5.1c1.8-1.1,3.7-1.6,5.8-2c1.5-0.2,3-0.2,4.5-0.1
			c2.6,0.2,5.2,0.7,7.5,2.1c3.1,1.6,5.2,4.2,6.2,7.6c0.4,1.2,0.6,2.3,0.7,3.5C505.3,231.7,505.3,231.7,505.3,231.8z"/>
		<path class="st7" d="M539,219.3c-0.2,0.6-0.4,1.2-0.6,1.7c-1,3-2.1,5.9-3,8.9c-1.4,4.1-2.9,8.2-4.3,12.3c-1.2,3.2-2.2,6.5-3.4,9.7
			c-0.1,0.2-0.2,0.2-0.3,0.2c-0.8,0-1.6,0-2.4,0c-2.6,0-5.2,0-7.8,0c-0.2,0-0.4-0.1-0.5-0.3c-1.4-4.1-2.8-8.3-4.2-12.4
			c-1.3-3.9-2.6-7.9-4-11.8c-0.9-2.6-1.8-5.3-2.7-8c0-0.1-0.1-0.2-0.1-0.3c0.2,0,0.2,0,0.3,0c3.4,0,6.7,0,10.1,0
			c0.2,0,0.4,0.1,0.4,0.3c1.1,4.2,2.2,8.4,3.3,12.6c0.7,2.9,1.5,5.8,2.3,8.6c0,0.1,0.1,0.2,0.2,0.3c0.2-0.5,0.2-1,0.4-1.5
			c1.3-4.8,2.6-9.7,3.9-14.5c0.5-1.8,1-3.6,1.5-5.5c0.1-0.2,0.2-0.3,0.4-0.3c3.4,0,6.7,0,10.2,0C538.8,219.3,539,219.3,539,219.3z"
			/>
		<path class="st7" d="M521.1,259.3c0.2-0.2,0.4-0.4,0.6-0.7c1.2-1.4,4.2-1.2,5,0.6c0,0,0.1,0.1,0.1,0.2c0.1-0.1,0.2-0.2,0.3-0.3
			c0.9-1.2,2.1-1.5,3.5-1.3c1.7,0.2,2.5,1.3,2.6,2.8c0.1,0.7,0.1,1.5,0.1,2.2c0,1.2,0,2.5,0,3.8c0,0.3-0.1,0.3-0.4,0.3
			c-1.1,0-2.1,0-3.1,0c0-0.2,0-0.2,0-0.4c0-1.2,0-2.5,0-3.8c0-0.6-0.1-1.2-0.2-1.6c0-0.1-0.1-0.2-0.1-0.2c-0.8-0.7-1.8-0.3-2.1,0.7
			c-0.1,0.2-0.1,0.5-0.1,0.7c0,1.4,0,2.8,0,4.2c0,0.2-0.1,0.4-0.3,0.4c-1,0-1.9,0-2.9,0c-0.2,0-0.3-0.1-0.3-0.3c0-1.2,0-2.5,0-3.7
			c0-0.7-0.1-1.2-0.2-1.9c0-0.2-0.2-0.3-0.4-0.4c-0.9-0.3-1.6,0.2-1.7,1.2c0,0.3-0.1,0.7-0.1,1.1c0,1.2,0,2.5,0,3.8
			c0,0.2-0.1,0.3-0.3,0.3c-1,0-2,0-3,0c-0.2,0-0.2-0.1-0.2-0.2c0-2.8,0-5.6,0-8.5c0-0.2,0.1-0.2,0.2-0.2c0.9,0,1.8,0,2.6,0
			c0.2,0,0.2,0.1,0.2,0.2C521,258.6,521,259,521.1,259.3C521,259.3,521.1,259.3,521.1,259.3z"/>
		<path class="st7" d="M475.7,258c0.8,0,1.6,0,2.5,0c0.7,0,0.7,0,0.7,0.7c0,0.2,0,0.4,0,0.7c0.2-0.1,0.2-0.2,0.3-0.2
			c0.2-0.2,0.2-0.2,0.4-0.4c1.4-1.4,3.9-1.2,4.9,0.2c0.7,0.9,1.2,1.9,1.2,3.1c0,1,0,2.1-0.5,3c-0.7,1.3-1.8,2.1-3.4,2.1
			c-1,0.1-1.8-0.2-2.5-0.9c0,0-0.1-0.1-0.2-0.1c0,0.2,0,0.2,0,0.3c0,1.1,0,2.1,0,3.2c0,0.2-0.1,0.3-0.3,0.3c-1,0-1.9,0-2.9,0
			c-0.1,0-0.2,0-0.2,0C475.7,266.1,475.7,262,475.7,258z M482.2,262.5L482.2,262.5c-0.1-0.2-0.1-0.5-0.2-0.8
			c-0.2-0.8-0.6-1.3-1.4-1.4c-0.6-0.1-1.2,0.3-1.3,0.9c-0.1,0.2-0.2,0.6-0.2,0.8c-0.2,0.6-0.1,1.2,0.2,1.7c0.2,0.6,0.7,0.8,1.2,0.8
			s1.1-0.2,1.3-0.7C482.1,263.4,482.2,262.9,482.2,262.5z"/>
		<path class="st7" d="M490.8,259.2c0.2-0.2,0.4-0.4,0.6-0.7c1.3-1.2,3.6-1,4.7,0.3c0.5,0.6,0.7,1.2,0.7,1.9
			c0.1,1.6,0.1,3.2,0.1,4.8c0,0.4,0,0.7,0,1.2c0,0.2-0.1,0.2-0.2,0.2c-1,0-2,0-3,0c-0.2,0-0.2-0.1-0.2-0.3c0-1.5,0-3,0-4.4
			c0-0.3-0.1-0.7-0.2-0.9c-0.2-0.6-0.7-0.7-1.2-0.7c-0.6,0-1,0.2-1.1,0.7c-0.1,0.4-0.2,0.8-0.2,1.2c0,1.3,0,2.7,0,4
			c0,0.3-0.1,0.4-0.4,0.4c-0.9,0-1.9,0-2.8,0c-0.2,0-0.3-0.1-0.3-0.3c0-3.9,0-7.8,0-11.7c0-0.2,0.1-0.3,0.3-0.3c1,0,2,0,3,0
			c0.2,0,0.3,0.2,0.2,0.3c0,1.2,0,2.4,0,3.5c0,0.2,0,0.3,0,0.5C490.7,259.1,490.8,259.1,490.8,259.2z"/>
		<path class="st7" d="M508.5,267c-0.2,0-0.2,0-0.3,0c-1,0-2,0-3,0c-0.2,0-0.3-0.1-0.3-0.3c0-0.2-0.1-0.4-0.1-0.6
			c-0.6,0.2-1.1,0.6-1.6,0.8c-1.1,0.3-2.1,0.4-3.2,0.1c-1.1-0.3-1.8-1.3-1.8-2.4s0.4-1.9,1.7-2.4c0.8-0.3,1.7-0.5,2.6-0.6
			c0.7-0.1,1.3-0.2,1.8-0.7c0.2-0.2,0.2-0.2,0.2-0.4c-0.1-0.3-0.3-0.5-0.7-0.5c-0.3,0-0.7,0-1,0s-0.6,0.2-0.7,0.6
			c0,0.1-0.2,0.2-0.2,0.2c-1,0-1.9,0-2.9,0c-0.2,0-0.2-0.1-0.2-0.2c0.1-1.1,0.7-1.7,1.6-2.1c0.7-0.3,1.5-0.5,2.3-0.5
			c1-0.1,2-0.1,3,0.2c0.3,0.1,0.6,0.2,0.9,0.2c0.9,0.3,1.2,1.1,1.3,1.9c0.1,0.5,0.1,1,0.1,1.5c0,1.1,0,2.1,0,3.1
			c0,0.7,0.1,1.2,0.4,1.8C508.5,266.7,508.5,266.8,508.5,267z M503,265.2c0.8,0,1.3-0.3,1.5-1c0.1-0.3,0.1-0.7,0.1-1
			c0-0.2-0.1-0.2-0.2-0.2c-0.5,0.2-1.1,0.2-1.6,0.4c-0.2,0.1-0.5,0.2-0.7,0.3c-0.2,0.2-0.3,0.6-0.2,0.9c0.1,0.3,0.3,0.4,0.6,0.5
			C502.5,265.2,502.7,265.2,503,265.2z"/>
		<path class="st7" d="M545,267c-0.4,0-0.7,0-1,0c-0.8,0-1.6,0-2.4,0c-0.2,0-0.3-0.1-0.3-0.3c0-0.2-0.1-0.4-0.2-0.7
			c-0.2,0.1-0.2,0.2-0.3,0.2c-1.4,1-3,1.2-4.6,0.7c-1.6-0.6-2.1-2.4-1.3-3.7c0.4-0.7,1.2-1.1,1.9-1.2c1-0.2,2-0.3,3-0.6
			c0.3-0.1,0.6-0.1,0.9-0.2c0.5-0.2,0.6-0.7,0.2-1.1c-0.4-0.3-1.5-0.4-1.9,0c-0.1,0.1-0.2,0.2-0.2,0.2c-0.1,0.2-0.2,0.3-0.5,0.3
			c-0.9,0-1.8,0-2.7,0c-0.3,0-0.4-0.1-0.3-0.4c0.2-1.2,0.8-1.8,1.8-2.1c1.4-0.5,2.8-0.5,4.2-0.4c0.6,0.1,1.2,0.2,1.7,0.4
			c0.8,0.2,1.3,0.9,1.5,1.8c0.1,0.5,0.1,1.1,0.2,1.6c0,1.2,0,2.2,0,3.4C544.5,265.6,544.4,266.3,545,267z M541,263.1
			c-0.1,0-0.2,0-0.2,0c-0.6,0.2-1.2,0.3-1.7,0.5c-0.2,0.1-0.4,0.2-0.6,0.3c-0.5,0.4-0.3,1.2,0.2,1.3c0.5,0.2,1.1,0.2,1.6-0.1
			c0.2-0.1,0.3-0.2,0.4-0.4C541,264.2,541,263.7,541,263.1z"/>
		<path class="st7" d="M558.3,267.5c0.4,0,0.8,0,1.2,0c0.5,0,0.6-0.2,0.6-0.7c0.1-0.7-0.2-1.3-0.5-1.9c-0.8-2.2-1.6-4.4-2.4-6.7
			c0-0.1,0-0.2-0.1-0.2c0.1,0,0.2,0,0.2,0c1,0,2,0,3,0c0.2,0,0.3,0.1,0.4,0.2c0.5,1.6,0.9,3.3,1.4,4.9c0,0.1,0.1,0.2,0.1,0.3
			c0.1-0.2,0.1-0.2,0.1-0.2c0.5-1.6,0.9-3.3,1.4-4.9c0.1-0.2,0.2-0.3,0.4-0.3c1,0,2,0,3,0c-0.1,0.3-0.2,0.7-0.3,1
			c-0.8,2.4-1.6,4.8-2.5,7.2c-0.4,1.1-0.9,2.1-1.4,3c-0.2,0.2-0.5,0.4-0.8,0.6c-0.8,0.3-1.8,0.4-2.7,0.3c-0.3,0-0.6,0-0.9-0.1
			c-0.1,0-0.2-0.1-0.2-0.2C558.3,269,558.3,268.3,558.3,267.5z"/>
		<path class="st7" d="M556.1,263.6c-0.2,1.6-1.2,2.9-2.7,3.3c-1.5,0.4-3,0.5-4.4-0.1c-1.5-0.5-2.5-1.6-2.7-3.2
			c-0.4-2.1,0.4-4,2.1-5.2c0.7-0.4,1.4-0.7,2.2-0.7c1-0.1,2.1-0.1,3,0.3c1.2,0.5,2.2,1.2,2.5,2.6c0.2,0.7,0.2,0.6-0.5,0.6
			c-0.9,0-1.8,0-2.7,0c-0.2,0-0.3-0.1-0.4-0.3c-0.2-0.4-0.3-0.8-0.8-0.9c-0.7-0.2-1.3,0.1-1.6,0.7c-0.4,1.1-0.5,2.1-0.1,3.2
			c0.2,0.6,0.7,0.8,1.4,0.8c0.6,0,1.1-0.3,1.2-0.9c0.1-0.2,0.2-0.3,0.5-0.3c0.9,0,1.9,0,2.8,0C555.9,263.6,556.1,263.6,556.1,263.6z
			"/>
		<path class="st7" d="M516.4,261.3c-0.3,0-0.6-0.1-0.9-0.1c-1.2,0.1-1.9,0.8-2,2.1c0,1.2-0.1,2.2-0.1,3.4c0,0.2-0.1,0.3-0.3,0.3
			c-0.9,0-1.9,0-2.8,0c-0.2,0-0.3-0.1-0.3-0.3c0-2.8,0-5.6,0-8.4c0-0.2,0.1-0.3,0.3-0.3c0.8,0,1.6,0,2.4,0c0.2,0,0.3,0,0.3,0.3
			c0,0.4,0,0.8,0,1.2c0,0.1,0,0.2,0,0.3h0.1c0.1-0.1,0.1-0.2,0.2-0.2c0.4-0.8,0.9-1.5,1.9-1.7c0.3-0.1,0.7-0.1,1.1-0.1
			c0.1,0,0.2,0.1,0.2,0.2C516.5,259.1,516.5,260.1,516.4,261.3C516.5,261.2,516.4,261.3,516.4,261.3z"/>
	</g>
</g>
</svg>
