<?xml version="1.0" encoding="utf-8"?>
<!-- Generator: Adobe Illustrator 21.0.2, SVG Export Plug-In . SVG Version: 6.00 Build 0)  -->
<svg version="1.1" id="Layer_1" xmlns="http://www.w3.org/2000/svg" xmlns:xlink="http://www.w3.org/1999/xlink" x="0px" y="0px"
	 viewBox="0 0 897 674.3" style="enable-background:new 0 0 897 674.3;" xml:space="preserve">
<style type="text/css">
	.st0{fill:#FFFFFF;stroke:#095280;stroke-width:4;stroke-miterlimit:10;}
	.st1{fill:#40B4E5;}
	.st2{fill:#FFFFFF;}
	.st3{fill:#FFFFFF;stroke:#095280;stroke-width:4;stroke-linecap:round;stroke-miterlimit:10;}
	.st4{fill:none;stroke:#095280;stroke-width:6;stroke-miterlimit:10;}
	.st5{fill:#FBC100;}
	.st6{fill:#FBD000;}
	.st7{fill:#949696;}
</style>
<g>
	<g>
		<ellipse class="st0" cx="448.7" cy="42.7" rx="240.3" ry="38.1"/>
		<path class="st0" d="M688.5,43.2l-78,588.4c0,21-72.3,38.1-161.4,38.1s-161.4-17-161.4-38.1L208,43.2"/>
	</g>
	<path class="st1" d="M651.4,188.2l-51.7,391.7c0,21-67.4,38.1-150.5,38.1s-150.5-17-150.5-38.1L247,188.2"/>
	<ellipse class="st1" cx="449.2" cy="188.2" rx="202.2" ry="38.1"/>
	<g>
		
			<ellipse transform="matrix(0.9941 -0.1089 0.1089 0.9941 -45.482 42.8817)" class="st2" cx="369.9" cy="437.9" rx="7.2" ry="7.2"/>
		
			<ellipse transform="matrix(4.911331e-02 -0.9988 0.9988 4.911331e-02 218.1756 876.6523)" class="st2" cx="569.5" cy="323.7" rx="7.2" ry="7.2"/>
		
			<ellipse transform="matrix(4.911331e-02 -0.9988 0.9988 4.911331e-02 148.3493 868.893)" class="st2" cx="530.5" cy="356.5" rx="7.2" ry="7.2"/>
		
			<ellipse transform="matrix(0.9941 -0.1089 0.1089 0.9941 -33.3657 43.6384)" class="st2" cx="382.9" cy="327.3" rx="7.2" ry="7.2"/>
		<ellipse transform="matrix(0.9941 -0.1089 0.1089 0.9941 -38.2565 48.1834)" class="st2" cx="422" cy="374.4" rx="7.2" ry="7.2"/>
		
			<ellipse transform="matrix(4.911331e-02 -0.9988 0.9988 4.911331e-02 316.739 786.6625)" class="st2" cx="571.5" cy="227" rx="7.2" ry="7.2"/>
		
			<ellipse transform="matrix(0.9941 -0.1089 0.1089 0.9941 -37.667 44.0914)" class="st2" cx="384.9" cy="366.9" rx="7.2" ry="7.2"/>
		
			<ellipse transform="matrix(4.911331e-02 -0.9988 0.9988 4.911331e-02 202.2097 832.045)" class="st2" cx="538.1" cy="309.8" rx="7.2" ry="7.2"/>
		<ellipse transform="matrix(0.9941 -0.1089 0.1089 0.9941 -47.85 41.4521)" class="st2" cx="355.6" cy="458.8" rx="6.1" ry="6.1"/>
		
			<ellipse transform="matrix(4.911331e-02 -0.9988 0.9988 4.911331e-02 57.0624 820.9238)" class="st2" cx="459.7" cy="380.5" rx="6.1" ry="6.1"/>
		
			<ellipse transform="matrix(4.911331e-02 -0.9988 0.9988 4.911331e-02 214.4444 798.3897)" class="st2" cx="526.5" cy="286.6" rx="6.1" ry="6.1"/>
		<g>
			
				<ellipse transform="matrix(4.911331e-02 -0.9988 0.9988 4.911331e-02 223.5366 830.2238)" class="st2" cx="547.8" cy="297.7" rx="4.2" ry="4.2"/>
		</g>
		<g>
			
				<ellipse transform="matrix(4.911331e-02 -0.9988 0.9988 4.911331e-02 156.7119 895.127)" class="st2" cx="548.5" cy="365.3" rx="4.9" ry="4.9"/>
		</g>
		<g>
			
				<ellipse transform="matrix(0.741 -0.6715 0.6715 0.741 -99.6494 437.0547)" class="st2" cx="516.7" cy="347.7" rx="3.8" ry="3.8"/>
		</g>
		<g>
			<ellipse transform="matrix(0.741 -0.6715 0.6715 0.741 -92.7862 452.0457)" class="st2" cx="539.6" cy="346.3" rx="3" ry="3"/>
		</g>
		<g>
			<ellipse transform="matrix(0.741 -0.6715 0.6715 0.741 -90.2505 436.1461)" class="st2" cx="520.2" cy="335.1" rx="3" ry="3"/>
		</g>
		<g>
			<ellipse transform="matrix(0.741 -0.6715 0.6715 0.741 -72.3055 453.7665)" class="st2" cx="552.1" cy="320.6" rx="3" ry="3"/>
		</g>
		<g>
			<ellipse transform="matrix(0.741 -0.6715 0.6715 0.741 -107.3403 471.5942)" class="st2" cx="557.7" cy="374.9" rx="3" ry="3"/>
		</g>
		<g>
			
				<ellipse transform="matrix(4.911331e-02 -0.9988 0.9988 4.911331e-02 194.781 873.7725)" class="st2" cx="556.3" cy="334.6" rx="5.7" ry="5.7"/>
		</g>
		<g>
			
				<ellipse transform="matrix(4.911331e-02 -0.9988 0.9988 4.911331e-02 178.5752 884.7166)" class="st2" cx="553.9" cy="348.6" rx="5.7" ry="5.7"/>
		</g>
		<g>
			
				<ellipse transform="matrix(0.7194 -0.6946 0.6946 0.7194 -186.3016 393.5893)" class="st2" cx="394" cy="427.4" rx="5.4" ry="5.4"/>
		</g>
		<g>
			
				<ellipse transform="matrix(0.7194 -0.6946 0.6946 0.7194 -193.4427 366.561)" class="st2" cx="357" cy="422.7" rx="5.4" ry="5.4"/>
		</g>
		<g>
			
				<ellipse transform="matrix(0.7194 -0.6946 0.6946 0.7194 -210.0726 391.6877)" class="st2" cx="379.8" cy="455.8" rx="4.2" ry="4.2"/>
		</g>
		<g>
			
				<ellipse transform="matrix(0.7194 -0.6946 0.6946 0.7194 -93.2596 347.5882)" class="st2" cx="383.6" cy="289.2" rx="4.2" ry="4.2"/>
		</g>
		<g>
			
				<ellipse transform="matrix(0.7194 -0.6946 0.6946 0.7194 -177.1466 402.2374)" class="st2" cx="409.3" cy="420.4" rx="4.2" ry="4.2"/>
		</g>
		<g>
			
				<ellipse transform="matrix(0.8199 -0.5726 0.5726 0.8199 -50.2428 358.6844)" class="st2" cx="544.9" cy="259.2" rx="4.2" ry="4.2"/>
		</g>
		<g>
			
				<ellipse transform="matrix(0.8199 -0.5726 0.5726 0.8199 -93.8559 331.0103)" class="st2" cx="479.1" cy="314.7" rx="4.2" ry="4.2"/>
		</g>
		<g>
			
				<ellipse transform="matrix(0.8199 -0.5726 0.5726 0.8199 -80.0046 397.8053)" class="st2" cx="592.2" cy="326.1" rx="4.2" ry="4.2"/>
		</g>
		<g>
			
				<ellipse transform="matrix(0.7194 -0.6946 0.6946 0.7194 -161.0299 364.5473)" class="st2" cx="370.7" cy="381.6" rx="4.2" ry="4.2"/>
		</g>
		<g>
			
				<ellipse transform="matrix(0.7194 -0.6946 0.6946 0.7194 -145.5127 383.6432)" class="st2" cx="402.1" cy="371.9" rx="4.2" ry="4.2"/>
		</g>
		<g>
			
				<ellipse transform="matrix(0.8199 -0.5726 0.5726 0.8199 -118.3753 330.387)" class="st2" cx="465.9" cy="353.3" rx="4.2" ry="4.2"/>
		</g>
		<g>
			
				<ellipse transform="matrix(0.8199 -0.5726 0.5726 0.8199 -66.8758 343.9473)" class="st2" cx="513.2" cy="278.3" rx="4.2" ry="4.2"/>
		</g>
		<g>
			
				<ellipse transform="matrix(0.7194 -0.6946 0.6946 0.7194 -131.5777 363.5627)" class="st2" cx="384.2" cy="344.6" rx="4.9" ry="4.9"/>
		</g>
		<g>
			
				<ellipse transform="matrix(0.7194 -0.6946 0.6946 0.7194 -195.1249 437.3665)" class="st2" cx="443.8" cy="460.2" rx="4.9" ry="4.9"/>
		</g>
		<g>
			
				<ellipse transform="matrix(0.8199 -0.5726 0.5726 0.8199 -116.7063 393.4295)" class="st2" cx="566.9" cy="382.2" rx="4.9" ry="4.9"/>
		</g>
		<g>
			
				<ellipse transform="matrix(0.7194 -0.6946 0.6946 0.7194 -101.3701 364.1435)" class="st2" cx="400" cy="307.5" rx="4.9" ry="4.9"/>
		</g>
		<g>
			
				<ellipse transform="matrix(1.747679e-02 -0.9998 0.9998 1.747679e-02 5.9576 820.4349)" class="st2" cx="420.4" cy="407.2" rx="3.8" ry="3.8"/>
		</g>
		<g>
			
				<ellipse transform="matrix(0.1748 -0.9846 0.9846 0.1748 90.3541 901.189)" class="st2" cx="582.8" cy="396.7" rx="3.8" ry="3.8"/>
		</g>
		<g>
			
				<ellipse transform="matrix(1.747679e-02 -0.9998 0.9998 1.747679e-02 2.8603 763.7841)" class="st2" cx="390.1" cy="380.4" rx="3" ry="3"/>
		</g>
		<g>
			
				<ellipse transform="matrix(1.747679e-02 -0.9998 0.9998 1.747679e-02 83.1942 745.3668)" class="st2" cx="420.9" cy="330.4" rx="3" ry="3"/>
		</g>
		<g>
			<ellipse transform="matrix(0.1748 -0.9846 0.9846 0.1748 131.6089 769.6505)" class="st2" cx="525" cy="306.3" rx="3" ry="3"/>
		</g>
		<g>
			<ellipse transform="matrix(0.1748 -0.9846 0.9846 0.1748 40.3808 775.7099)" class="st2" cx="483" cy="363.8" rx="3" ry="3"/>
		</g>
		<g>
			<ellipse transform="matrix(0.1748 -0.9846 0.9846 0.1748 70.9049 803.1247)" class="st2" cx="514.6" cy="359.3" rx="3" ry="3"/>
		</g>
		<g>
			
				<ellipse transform="matrix(1.747679e-02 -0.9998 0.9998 1.747679e-02 27.5563 819.4081)" class="st2" cx="430.7" cy="395.7" rx="3" ry="3"/>
		</g>
		<g>
			
				<ellipse transform="matrix(1.747679e-02 -0.9998 0.9998 1.747679e-02 -40.2909 773.4285)" class="st2" cx="373.4" cy="407.2" rx="3" ry="3"/>
		</g>
		<g>
			
				<ellipse transform="matrix(1.747679e-02 -0.9998 0.9998 1.747679e-02 -23.3264 730.8816)" class="st2" cx="360.2" cy="377.3" rx="3" ry="3"/>
		</g>
		<g>
			<ellipse transform="matrix(0.1748 -0.9846 0.9846 0.1748 175.8345 709.4084)" class="st2" cx="511.1" cy="249.8" rx="3" ry="3"/>
		</g>
		<g>
			<ellipse transform="matrix(0.1748 -0.9846 0.9846 0.1748 260.2113 712.8679)" class="st2" cx="555.4" cy="201.2" rx="3" ry="3"/>
		</g>
		<g>
			<ellipse transform="matrix(0.1748 -0.9846 0.9846 0.1748 214.8477 785.0946)" class="st2" cx="575.8" cy="264.4" rx="3" ry="3"/>
		</g>
		<g>
			
				<ellipse transform="matrix(1.747679e-02 -0.9998 0.9998 1.747679e-02 -7.2152 799.2029)" class="st2" cx="403" cy="403.3" rx="3" ry="3"/>
		</g>
		<g>
			<ellipse transform="matrix(0.1748 -0.9846 0.9846 0.1748 158.9999 801.6368)" class="st2" cx="557.8" cy="306" rx="3" ry="3"/>
		</g>
		<g>
			
				<ellipse transform="matrix(1.747679e-02 -0.9998 0.9998 1.747679e-02 -14.1671 920.5856)" class="st2" cx="461.3" cy="467.5" rx="3" ry="3"/>
		</g>
		<g>
			<ellipse transform="matrix(0.1748 -0.9846 0.9846 0.1748 256.9401 730.3223)" class="st2" cx="564.2" cy="211.9" rx="3" ry="3"/>
		</g>
		<g>
			<ellipse transform="matrix(0.1748 -0.9846 0.9846 0.1748 188.3267 814.5996)" class="st2" cx="580.2" cy="294.9" rx="3" ry="3"/>
		</g>
		<g>
			<ellipse transform="matrix(0.1748 -0.9846 0.9846 0.1748 214.8388 749.5609)" class="st2" cx="554.6" cy="246.6" rx="3" ry="3"/>
		</g>
		<g>
			<ellipse transform="matrix(0.1748 -0.9846 0.9846 0.1748 24.9 767.388)" class="st2" cx="470.3" cy="368.8" rx="3" ry="3"/>
		</g>
		<g>
			<ellipse transform="matrix(0.1748 -0.9846 0.9846 0.1748 194.3757 734.2077)" class="st2" cx="535.2" cy="251.1" rx="3" ry="3"/>
		</g>
		<g>
			
				<ellipse transform="matrix(1.747679e-02 -0.9998 0.9998 1.747679e-02 -142.644 827.05)" class="st2" cx="349.5" cy="486.1" rx="3" ry="3"/>
		</g>
		<g>
			<ellipse transform="matrix(0.1748 -0.9846 0.9846 0.1748 97.0957 802.3607)" class="st2" cx="527.2" cy="343.3" rx="3" ry="3"/>
		</g>
		<g>
			<ellipse transform="matrix(0.1748 -0.9846 0.9846 0.1748 229.2301 764.224)" class="st2" cx="570.5" cy="245.4" rx="3" ry="3"/>
		</g>
		<g>
			<ellipse transform="matrix(0.1748 -0.9846 0.9846 0.1748 135.712 877.7527)" class="st2" cx="591.5" cy="357.9" rx="3" ry="3"/>
		</g>
		<g>
			
				<ellipse transform="matrix(1.747679e-02 -0.9998 0.9998 1.747679e-02 115.9234 659.2604)" class="st2" cx="393.4" cy="270.6" rx="3" ry="3"/>
		</g>
		<g>
			<ellipse transform="matrix(0.1748 -0.9846 0.9846 0.1748 114.9229 877.5245)" class="st2" cx="581" cy="370.2" rx="3" ry="3"/>
		</g>
		<g>
			
				<ellipse transform="matrix(1.747679e-02 -0.9998 0.9998 1.747679e-02 -39.705 835.6732)" class="st2" cx="405.4" cy="438" rx="3" ry="3"/>
		</g>
		<g>
			
				<ellipse transform="matrix(1.747679e-02 -0.9998 0.9998 1.747679e-02 -54.5915 854.0269)" class="st2" cx="407.2" cy="454.8" rx="3" ry="3"/>
		</g>
		<g>
			
				<ellipse transform="matrix(1.747679e-02 -0.9998 0.9998 1.747679e-02 -104.4553 830.1712)" class="st2" cx="370.2" cy="468.2" rx="3" ry="3"/>
		</g>
		<g>
			
				<ellipse transform="matrix(1.747679e-02 -0.9998 0.9998 1.747679e-02 -87.5079 783.6706)" class="st2" cx="355" cy="436.4" rx="3" ry="3"/>
		</g>
		<g>
			<ellipse transform="matrix(0.1748 -0.9846 0.9846 0.1748 276.8516 678.0208)" class="st2" cx="542.9" cy="173.8" rx="3" ry="3"/>
		</g>
		<g>
			
				<ellipse transform="matrix(1.747679e-02 -0.9998 0.9998 1.747679e-02 92.3738 718.2993)" class="st2" cx="411.7" cy="312.1" rx="3" ry="3"/>
		</g>
		<g>
			
				<ellipse transform="matrix(1.747679e-02 -0.9998 0.9998 1.747679e-02 151.7111 617.8412)" class="st2" cx="390.2" cy="231.7" rx="3" ry="3"/>
		</g>
		<g>
			
				<ellipse transform="matrix(1.747679e-02 -0.9998 0.9998 1.747679e-02 151.8692 668.261)" class="st2" cx="416" cy="256.9" rx="3" ry="3"/>
		</g>
		<g>
			
				<ellipse transform="matrix(1.747679e-02 -0.9998 0.9998 1.747679e-02 73.3456 672.6087)" class="st2" cx="378.9" cy="299" rx="3" ry="3"/>
		</g>
		<g>
			<ellipse transform="matrix(0.1748 -0.9846 0.9846 0.1748 78.9267 746.3453)" class="st2" cx="484.7" cy="326.1" rx="3" ry="3"/>
		</g>
		<g>
			<ellipse transform="matrix(0.1748 -0.9846 0.9846 0.1748 231.7434 722.5152)" class="st2" cx="546.9" cy="223" rx="3" ry="3"/>
		</g>
		<g>
			<ellipse transform="matrix(0.1748 -0.9846 0.9846 0.1748 49.6251 760.9327)" class="st2" cx="478.8" cy="350.9" rx="3" ry="3"/>
		</g>
		<g>
			
				<ellipse transform="matrix(0.1748 -0.9846 0.9846 0.1748 102.6905 767.447)" class="st2" cx="509.2" cy="322.5" rx="4.3" ry="4.3"/>
		</g>
		<g>
			
				<ellipse transform="matrix(1.747679e-02 -0.9998 0.9998 1.747679e-02 2.8818 865.6615)" class="st2" cx="441.9" cy="431.4" rx="4" ry="4"/>
		</g>
		<g>
			<ellipse transform="matrix(0.1748 -0.9846 0.9846 0.1748 127.1152 842.4496)" class="st2" cx="566.2" cy="345.4" rx="4" ry="4"/>
		</g>
		<g>
			
				<ellipse transform="matrix(0.7194 -0.6946 0.6946 0.7194 -90.8773 371.503)" class="st2" cx="414.4" cy="298.2" rx="5.7" ry="5.7"/>
		</g>
		<g>
			
				<ellipse transform="matrix(0.8199 -0.5726 0.5726 0.8199 -86.365 342.6779)" class="st2" cx="501.4" cy="308.6" rx="5.7" ry="5.7"/>
		</g>
		<g>
			
				<ellipse transform="matrix(0.8199 -0.5726 0.5726 0.8199 -37.4974 351.015)" class="st2" cx="539.1" cy="235.1" rx="5.7" ry="5.7"/>
		</g>
		<g>
			<path class="st2" d="M418.4,427.9c-1.4-1.4-2.1-3.3-2.1-5.3c0.1-2,0.8-3.9,2.3-5.3c1.4-1.4,3.3-2.1,5.3-2.1
				c2,0.1,3.9,0.8,5.3,2.3c1.4,1.4,2.1,3.3,2.1,5.3c-0.1,2-0.8,3.9-2.3,5.3c-1.5,1.4-3.3,2.1-5.2,2.1
				C421.9,430.2,419.8,429.5,418.4,427.9z M421,419.8c-0.7,0.7-1.2,1.7-1.2,2.8c-0.1,1,0.3,2,1.1,2.8c1.6,1.6,4,1.6,5.6,0.1
				c0.7-0.7,1.2-1.7,1.2-2.8c0.1-1-0.3-2-1.1-2.8l0,0c-0.7-0.7-1.7-1.2-2.9-1.2c0.1,0,0,0,0,0C422.8,418.8,421.7,419.2,421,419.8z"
				/>
		</g>
		<g>
			<path class="st2" d="M468.3,337.3c-2-0.4-3.7-1.5-4.9-3.1c-1.1-1.6-1.6-3.6-1.3-5.6c0.4-2,1.5-3.7,3.1-4.9
				c1.6-1.1,3.7-1.6,5.6-1.3c2,0.4,3.7,1.5,4.9,3.1c1.1,1.6,1.6,3.6,1.3,5.6c-0.4,2-1.5,3.7-3.1,4.9c-1.6,1.1-3.6,1.6-5.5,1.3
				C468.3,337.3,468.3,337.3,468.3,337.3z M467.4,326.7c-0.8,0.6-1.4,1.5-1.6,2.5c-0.3,0.9,0,2,0.6,2.9c0.6,0.8,1.5,1.4,2.5,1.6
				s2,0,2.9-0.6c0.8-0.6,1.4-1.5,1.6-2.5c0.3-0.9,0-2-0.6-2.9l0,0c-0.6-0.8-1.5-1.4-2.6-1.6l0,0
				C469.2,325.9,468.2,326.1,467.4,326.7z"/>
		</g>
		<g>
			<path class="st2" d="M559.3,188.3c-1.1-1.6-1.6-3.6-1.3-5.6c0.4-2,1.5-3.7,3.1-4.9c3.4-2.4,8.1-1.5,10.4,1.9l0,0
				c2.4,3.4,1.5,8.1-1.9,10.4c-1.7,1.1-3.6,1.6-5.5,1.3C562.4,191.1,560.5,190.1,559.3,188.3z M568.7,181.8
				c-1.2-1.8-3.7-2.2-5.5-0.9c-0.8,0.6-1.4,1.5-1.6,2.5c-0.3,0.9,0,2,0.6,2.9c1.3,1.8,3.7,2.2,5.5,1
				C569.5,186.1,569.9,183.7,568.7,181.8L568.7,181.8z"/>
		</g>
		<g>
			<path class="st2" d="M536.2,336.3c-2-0.4-3.7-1.5-4.9-3.1c-1.1-1.6-1.6-3.6-1.3-5.6c0.4-2,1.5-3.7,3.1-4.9
				c1.6-1.1,3.7-1.6,5.6-1.3c2,0.4,3.7,1.5,4.9,3.1c1.1,1.6,1.6,3.6,1.3,5.6c-0.4,2-1.5,3.7-3.1,4.9c-1.6,1.1-3.6,1.6-5.5,1.3
				C536.3,336.3,536.3,336.3,536.2,336.3z M535.3,325.7c-0.8,0.6-1.4,1.5-1.6,2.5c-0.3,0.9,0,2,0.6,2.9c0.6,0.8,1.5,1.4,2.5,1.6
				c1,0.2,2,0,2.9-0.6s1.4-1.5,1.6-2.5c0.3-0.9,0-2-0.6-2.9l0,0c-0.6-0.8-1.5-1.4-2.6-1.6c0.1,0,0.1,0,0,0
				C537.1,324.9,536.1,325.2,535.3,325.7z"/>
		</g>
		<path class="st2" d="M415.8,448.7c0-5.8,4.8-10.6,10.6-10.6c5.8,0,10.6,4.8,10.6,10.6s-4.8,10.6-10.6,10.6
			C420.6,459.2,415.8,454.5,415.8,448.7z M420.4,448.7c0,3.3,2.6,6,6,6c3.3,0,6-2.6,6-6c0-3.3-2.6-6-6-6
			C423,442.6,420.3,445.3,420.4,448.7z"/>
		<path class="st2" d="M485.8,349.4c0.9-5.8,6.4-9.7,12.1-8.8s9.7,6.4,8.8,12.1c-0.9,5.8-6.4,9.7-12.1,8.8
			C488.8,360.6,484.8,355.3,485.8,349.4z M490.3,350.1c-0.5,3.2,1.8,6.4,5,6.9c3.2,0.5,6.4-1.7,6.9-5c0.5-3.2-1.7-6.4-5-6.9
			C494,344.6,490.8,346.9,490.3,350.1z"/>
		<path class="st2" d="M378.9,400.3c0-4.7,3.7-8.4,8.4-8.4c4.7,0,8.4,3.7,8.4,8.4c0,4.7-3.7,8.4-8.4,8.4
			C382.7,408.7,378.9,404.9,378.9,400.3z M382.4,400.3c0,2.8,2.2,4.9,4.9,4.9c2.8,0,4.9-2.2,4.9-4.9c0-2.8-2.2-4.9-4.9-4.9
			C384.7,395.4,382.5,397.7,382.4,400.3z"/>
		<path class="st2" d="M555.1,360.6c0.7-4.6,5-7.7,9.6-6.9s7.7,5,6.9,9.6c-0.7,4.6-5,7.7-9.6,6.9
			C557.6,369.5,554.4,365.1,555.1,360.6z M558.6,361.2c-0.4,2.7,1.4,5.2,4,5.6c2.7,0.4,5.2-1.4,5.6-4c0.4-2.7-1.4-5.2-4-5.6
			S559.1,358.4,558.6,361.2z"/>
		<path class="st2" d="M383.6,447c0-4.7,3.7-8.4,8.4-8.4c4.7,0,8.4,3.7,8.4,8.4c0,4.7-3.7,8.4-8.4,8.4
			C387.4,455.3,383.6,451.5,383.6,447z M387.1,447c0,2.8,2.2,4.9,4.9,4.9c2.8,0,4.9-2.1,4.9-4.9c0-2.8-2.2-4.9-4.9-4.9
			C389.3,442.1,387.1,444.2,387.1,447z"/>
		<path class="st2" d="M551.6,277.6c1.1-6.7,7.4-11.2,14-10.1c6.7,1.1,11.2,7.3,10.1,14c-1.1,6.7-7.4,11.2-14,10.1
			C555,290.5,550.6,284.3,551.6,277.6z M556.1,278.4c-0.7,4.2,2.1,8.1,6.3,8.7c4.2,0.7,8.1-2.1,8.7-6.3s-2.1-8.1-6.3-8.7
			C560.7,271.4,556.7,274.3,556.1,278.4z"/>
		<path class="st2" d="M394.5,346.5c0-4.7,3.7-8.4,8.4-8.4s8.4,3.7,8.4,8.4s-3.7,8.4-8.4,8.4C398.4,354.9,394.5,351.2,394.5,346.5z
			 M398,346.7c0,2.8,2.2,4.9,4.9,4.9c2.8,0,4.9-2.2,4.9-4.9c0-2.8-2.2-4.9-4.9-4.9C400.3,341.8,398.1,343.9,398,346.7z"/>
		<path class="st2" d="M513.7,262.7c0.7-4.6,5-7.7,9.6-6.9c4.6,0.7,7.7,5,6.9,9.6c-0.7,4.6-5,7.7-9.6,6.9
			C516.1,271.5,513,267.3,513.7,262.7z M517.1,263.3c-0.4,2.7,1.4,5.2,4,5.6c2.7,0.4,5.2-1.4,5.6-4c0.4-2.7-1.4-5.2-4-5.6
			S517.7,260.6,517.1,263.3z"/>
		<g>
			<circle class="st0" cx="409" cy="519.2" r="61.6"/>
			<path class="st3" d="M356.9,519.2c0,28.8,23.3,52.1,52.1,52.1"/>
		</g>
		<g>
			<circle class="st0" cx="514.2" cy="417.8" r="61.6"/>
			<path class="st3" d="M463.5,418.3c0,28.8,23.3,52.1,52.1,52.1"/>
		</g>
	</g>
	<g>
		<ellipse class="st4" cx="448.7" cy="42.7" rx="240.3" ry="38.1"/>
		<path class="st4" d="M688.5,43.2l-78,588.4c0,21-72.3,38.1-161.4,38.1s-161.4-17-161.4-38.1L208,43.2"/>
	</g>
	<path class="st4" d="M651.4,188.2l-51.7,391.7c0,21-67.4,38.1-150.5,38.1s-150.5-17-150.5-38.1L247,188.2"/>
	<ellipse class="st4" cx="449.2" cy="188.2" rx="202.2" ry="38.1"/>
</g>
<g>
	<g id="XMLID_2_">
		<g>
			<path class="st5" d="M744.9,511.6c14.9,21.2,20.8,46.7,16.7,72.1c-7.7,47.9-50.3,81.9-99.7,81.9c-4.2,0-8.3-0.2-12.6-0.7
				c-19-2.2-36.4-13.6-49.2-24.7c-12.8-11.1-21.1-21.8-21.7-22.7c-0.8-1-0.6-2.5,0.5-3.3l156.4-111.1c1-0.7,2.3-0.5,3.1,0.4l6.3,7.7
				C744.9,511.5,744.9,511.6,744.9,511.6z M757.1,583.1c3.9-24.2-1.7-48.6-15.8-68.6c0-0.1-0.1-0.1-0.1-0.1l-3.5-4.3
				c-0.8-0.9-2.1-1.1-3.1-0.4l-149,105.6c-1.1,0.8-1.3,2.3-0.4,3.4c8.8,10.3,35.2,38.4,64.7,41.8c4,0.5,8.1,0.7,12,0.7
				C709.1,661.1,749.8,628.7,757.1,583.1z"/>
			<path class="st2" d="M741.3,514.4c14.1,20,19.7,44.4,15.8,68.6c-7.3,45.6-48,78.1-95.2,78.1c-4,0-8-0.2-12-0.7
				c-29.5-3.4-55.9-31.5-64.7-41.8c-0.9-1-0.7-2.6,0.4-3.4l148.9-105.7c1-0.7,2.3-0.5,3.1,0.4l3.5,4.3
				C741.2,514.3,741.2,514.4,741.3,514.4z"/>
		</g>
	</g>
	<g id="XMLID_1_">
		<g>
			<path class="st5" d="M735.2,517.9c0.8,1,20.3,25.5,15.4,64c-2.8,22.3-15.8,43.1-35.6,57.1c-14.4,10.2-32.1,15.5-51.7,15.5
				c-3.9,0-8-0.2-12-0.6c-28.9-3-55.9-34.1-57-35.5l-1.6-1.9L734,516.2L735.2,517.9z M746.3,579c3-29.6-9.3-50.5-13.4-56.4
				l-62.3,44.2L746.3,579z M745.7,583.5l-80.5-13l-65.9,46.7c6.3,6.7,29.1,29.6,52.3,32c23.3,2.4,44.2-2.4,60.7-14
				C730.4,622.5,742.5,603.7,745.7,583.5z"/>
			<path class="st6" d="M732.9,522.6c4.1,6,16.4,26.8,13.4,56.4l-75.7-12.2L732.9,522.6z"/>
			<path class="st6" d="M665.2,570.6l80.5,13c-3.2,20.2-15.3,39-33.4,51.8c-16.4,11.6-37.4,16.5-60.7,14c-23.2-2.4-46-25.3-52.3-32
				L665.2,570.6z"/>
		</g>
	</g>
	<path class="st2" d="M696.1,560.5c2.3,8-13.1,3.8-13.1,3.8S693.8,552.5,696.1,560.5z"/>
	
		<rect x="615.8" y="607.5" transform="matrix(0.1536 -0.9881 0.9881 0.1536 -45.6439 1166.2786)" class="st5" width="84.3" height="4.6"/>
	
		<rect x="686.7" y="560.5" transform="matrix(0.8169 -0.5767 0.5767 0.8169 -221.4096 507.6724)" class="st5" width="4.6" height="84.3"/>
	<path class="st2" d="M695,585.4c-3.7,7.5-12.3-6-12.3-6S698.6,577.9,695,585.4z"/>
	<path class="st2" d="M673.6,602c-7.7,3.3-5.5-12.5-5.5-12.5S681.3,598.7,673.6,602z"/>
	<path class="st2" d="M646.2,599.8c-7.3-4,6.5-12,6.5-12S653.5,603.8,646.2,599.8z"/>
</g>
<g>
	<path class="st7" d="M767.3,604.9c0-0.4,0.2-0.7,0.7-0.7h3.8c1.4,0,2.1,0.1,2.6,0.4c1.3,0.6,2.2,1.9,2.2,3.7s-1,3.4-2.5,3.9l0,0
		c0,0,0.2,0.2,0.4,0.6l2.5,4.7c0.3,0.5,0.1,0.8-0.4,0.8h-0.8c-0.4,0-0.6-0.1-0.8-0.5l-2.8-5.2h-3v5c0,0.4-0.2,0.7-0.7,0.7H768
		c-0.4,0-0.7-0.2-0.7-0.7V604.9z M772.1,611c1.5,0,2.5-1,2.5-2.6c0-1-0.4-1.8-1.3-2.2c-0.4-0.2-0.8-0.2-1.7-0.2h-2.4v5.1L772.1,611
		L772.1,611z"/>
	<path class="st7" d="M784,608c2.8,0,4.4,2,4.4,4.8c0,0.4-0.3,0.7-0.7,0.7h-6.8c0.1,2.2,1.7,3.4,3.5,3.4c1.1,0,2-0.5,2.4-0.8
		c0.4-0.2,0.7-0.2,0.9,0.2l0.2,0.3c0.2,0.3,0.1,0.7-0.2,0.9c-0.6,0.4-1.8,1.1-3.4,1.1c-3.2,0-5.4-2.3-5.4-5.3
		C778.9,610,781.1,608,784,608z M786.4,612.2c-0.1-1.8-1.1-2.7-2.5-2.7c-1.5,0-2.7,1-3,2.7H786.4z"/>
	<path class="st7" d="M791.4,609.9h-0.6c-0.4,0-0.7-0.2-0.7-0.7v-0.3c0-0.4,0.2-0.7,0.7-0.7h0.6v-0.5c0-3.2,2.6-3.7,3.7-3.7h0.2
		c0.4,0,0.7,0.2,0.7,0.7v0.4c0,0.4-0.2,0.6-0.7,0.7c-0.7,0-1.9,0.2-1.9,2.1v0.4h1.7c0.4,0,0.7,0.2,0.7,0.7v0.3
		c0,0.4-0.2,0.7-0.7,0.7h-1.7v7.8c0,0.4-0.2,0.7-0.7,0.7H792c-0.4,0-0.7-0.2-0.7-0.7v-7.9H791.4z"/>
	<path class="st7" d="M797.8,608.9c0-0.4,0.2-0.7,0.7-0.7h0.6c0.4,0,0.7,0.2,0.7,0.7v1.2c0,0.4-0.1,0.8-0.1,0.8l0,0
		c0.4-1.3,1.6-2.7,3.1-2.7c0.5,0,0.6,0.2,0.6,0.7v0.6c0,0.4-0.3,0.7-0.7,0.7c-2,0-2.9,2.1-2.9,4.1v3.5c0,0.4-0.2,0.7-0.7,0.7h-0.6
		c-0.4,0-0.7-0.2-0.7-0.7L797.8,608.9L797.8,608.9z"/>
	<path class="st7" d="M809.5,608c2.8,0,4.4,2,4.4,4.8c0,0.4-0.3,0.7-0.7,0.7h-6.8c0.1,2.2,1.7,3.4,3.5,3.4c1.1,0,2-0.5,2.4-0.8
		c0.4-0.2,0.7-0.2,0.9,0.2l0.2,0.3c0.2,0.3,0.1,0.7-0.2,0.9c-0.6,0.4-1.8,1.1-3.4,1.1c-3.2,0-5.4-2.3-5.4-5.3
		C804.4,610,806.6,608,809.5,608z M811.9,612.2c-0.1-1.8-1.1-2.7-2.5-2.7c-1.5,0-2.7,1-3,2.7H811.9z"/>
	<path class="st7" d="M815.9,616.6l0.2-0.3c0.3-0.3,0.5-0.4,0.9-0.1c0.5,0.3,1.3,0.8,2.5,0.8c1,0,1.7-0.5,1.7-1.3
		c0-2-5.2-1.3-5.2-4.7c0-1.9,1.7-2.9,3.7-2.9c1.4,0,2.3,0.5,2.8,0.8c0.4,0.2,0.4,0.5,0.2,0.9l-0.2,0.3c-0.2,0.4-0.5,0.4-0.9,0.2
		s-1.1-0.6-2.1-0.6s-1.7,0.4-1.7,1.3c0,2,5.2,1.3,5.2,4.7c0,1.7-1.5,3-3.6,3c-1.7,0-2.8-0.7-3.4-1.1
		C815.7,617.2,815.7,616.9,815.9,616.6z"/>
	<path class="st7" d="M825.7,604.9c0-0.4,0.2-0.7,0.7-0.7h0.6c0.4,0,0.6,0.2,0.6,0.7v4.6c0,0.5-0.1,0.8-0.1,0.8l0,0
		c0.4-1,1.8-2.3,3.8-2.3c2.4,0,3.5,1.3,3.5,3.9v5.8c0,0.4-0.2,0.7-0.7,0.7h-0.6c-0.4,0-0.7-0.2-0.7-0.7v-5.4c0-1.4-0.3-2.5-1.9-2.5
		c-1.9,0-3.4,1.6-3.4,3.8v4.1c0,0.4-0.2,0.7-0.6,0.7h-0.6c-0.4,0-0.7-0.2-0.7-0.7v-12.8H825.7z"/>
	<path class="st7" d="M837.9,605.5v-0.7c0-0.4,0.2-0.7,0.7-0.7h0.7c0.4,0,0.7,0.2,0.7,0.7v0.7c0,0.4-0.2,0.7-0.7,0.7h-0.7
		C838.2,606.2,837.9,605.9,837.9,605.5z M838,608.9c0-0.4,0.2-0.7,0.7-0.7h0.6c0.4,0,0.7,0.2,0.7,0.7v8.8c0,0.4-0.2,0.7-0.7,0.7
		h-0.6c-0.4,0-0.7-0.2-0.7-0.7V608.9z"/>
	<path class="st7" d="M843.2,608.9c0-0.4,0.2-0.7,0.7-0.7h0.6c0.4,0,0.7,0.2,0.7,0.7v0.9c0,0.3-0.1,0.6-0.1,0.6l0,0
		c0.4-0.9,1.6-2.4,3.8-2.4c2.4,0,3.5,1.3,3.5,3.9v5.8c0,0.4-0.2,0.7-0.7,0.7h-0.6c-0.4,0-0.7-0.2-0.7-0.7v-5.4
		c0-1.4-0.3-2.5-1.9-2.5c-2,0-3.4,1.6-3.4,3.7v4.2c0,0.4-0.2,0.7-0.7,0.7h-0.6c-0.4,0-0.7-0.2-0.7-0.7v-8.8H843.2z"/>
	<path class="st7" d="M857,620.4c0.5,0.2,1.2,0.4,2.2,0.4c1.7,0,3.2-0.8,3.2-2.8v-0.9c0-0.3,0.1-0.6,0.1-0.6l0,0
		c-0.6,1.1-1.5,1.7-3,1.7c-2.8,0-4.6-2.2-4.6-5.2c0-2.9,1.6-5,4.5-5c2.5,0,3.2,1.7,3.2,1.7l0,0c0,0,0-0.1,0-0.3v-0.6
		c0-0.3,0.2-0.6,0.7-0.6h0.5c0.4,0,0.7,0.2,0.7,0.7v9c0,3.3-2.6,4.6-5,4.6c-1.1,0-2.2-0.2-2.9-0.6c-0.4-0.2-0.5-0.5-0.3-0.9l0.1-0.3
		C856.4,620.3,856.6,620.2,857,620.4z M862.4,613.1c0-2.7-1.3-3.4-2.8-3.4c-1.8,0-2.8,1.3-2.8,3.3c0,2.2,1.1,3.6,2.9,3.6
		C861.2,616.5,862.4,615.7,862.4,613.1z"/>
	<path class="st7" d="M767.3,628.9c0-0.4,0.2-0.7,0.7-0.7h0.6c0.4,0,0.7,0.2,0.7,0.7v11.7h5.7c0.4,0,0.7,0.2,0.7,0.7v0.4
		c0,0.4-0.2,0.7-0.7,0.7h-7c-0.4,0-0.7-0.2-0.7-0.7V628.9z"/>
	<path class="st7" d="M781.7,632c2.8,0,4.4,2,4.4,4.8c0,0.4-0.3,0.7-0.7,0.7h-6.8c0.1,2.2,1.7,3.4,3.5,3.4c1.1,0,2-0.5,2.4-0.8
		c0.4-0.2,0.7-0.2,0.9,0.2l0.2,0.3c0.2,0.3,0.1,0.7-0.2,0.9c-0.6,0.4-1.8,1.1-3.4,1.1c-3.2,0-5.4-2.3-5.4-5.3
		C776.7,634,778.9,632,781.7,632z M784.2,636.2c-0.1-1.8-1.1-2.7-2.5-2.7c-1.5,0-2.7,1-3,2.7H784.2z"/>
	<path class="st7" d="M788.7,632.9c0-0.4,0.2-0.7,0.7-0.7h0.6c0.4,0,0.7,0.2,0.7,0.7v0.9c0,0.3-0.1,0.6-0.1,0.6l0,0
		c0.5-1.2,1.9-2.4,3.5-2.4c1.7,0,2.7,0.8,3,2.3l0,0c0.5-1.2,1.9-2.3,3.6-2.3c2.3,0,3.3,1.3,3.3,3.9v5.8c0,0.4-0.2,0.7-0.7,0.7h-0.6
		c-0.4,0-0.7-0.2-0.7-0.7v-5.4c0-1.4-0.3-2.5-1.8-2.5c-1.9,0-3,1.9-3,3.9v4.1c0,0.4-0.2,0.7-0.6,0.7H796c-0.4,0-0.6-0.2-0.6-0.7
		v-5.4c0-1.3-0.2-2.5-1.8-2.5c-1.9,0-3,2-3,3.9v4.1c0,0.4-0.2,0.7-0.7,0.7h-0.6c-0.4,0-0.7-0.2-0.7-0.7L788.7,632.9L788.7,632.9z"/>
	<path class="st7" d="M812,632c3,0,5.5,2.2,5.5,5.3s-2.4,5.3-5.5,5.3s-5.4-2.2-5.4-5.3C806.5,634.2,808.9,632,812,632z M812,640.9
		c1.9,0,3.5-1.5,3.5-3.6s-1.6-3.6-3.5-3.6s-3.5,1.5-3.5,3.6S810.1,640.9,812,640.9z"/>
	<path class="st7" d="M820,632.9c0-0.4,0.2-0.7,0.7-0.7h0.6c0.4,0,0.7,0.2,0.7,0.7v0.9c0,0.3-0.1,0.6-0.1,0.6l0,0
		c0.4-0.9,1.6-2.4,3.8-2.4c2.4,0,3.5,1.3,3.5,3.9v5.8c0,0.4-0.2,0.7-0.7,0.7h-0.6c-0.4,0-0.7-0.2-0.7-0.7v-5.4
		c0-1.4-0.3-2.5-1.9-2.5c-2,0-3.4,1.6-3.4,3.7v4.2c0,0.4-0.2,0.7-0.7,0.7h-0.6c-0.4,0-0.7-0.2-0.7-0.7v-8.8H820z"/>
	<path class="st7" d="M838.2,628.9c0-0.4,0.2-0.7,0.7-0.7h6.5c0.4,0,0.7,0.2,0.7,0.7v0.4c0,0.4-0.2,0.7-0.7,0.7h-5.2v4.6h4.3
		c0.4,0,0.7,0.2,0.7,0.7v0.4c0,0.4-0.2,0.7-0.7,0.7h-4.3v5.4c0,0.4-0.2,0.7-0.7,0.7h-0.6c-0.4,0-0.7-0.2-0.7-0.7V628.9z"/>
	<path class="st7" d="M848.2,628.9c0-0.4,0.2-0.7,0.7-0.7h0.6c0.4,0,0.7,0.2,0.7,0.7v10.5c0,1.1,0.5,1.3,0.9,1.3
		c0.3,0,0.5,0.2,0.5,0.6v0.5c0,0.4-0.2,0.7-0.7,0.7c-1.1,0-2.7-0.3-2.7-2.8V628.9z"/>
	<path class="st7" d="M859.1,636.1h0.5v-0.3c0-1.7-1-2.2-2.2-2.2c-1,0-1.8,0.4-2.3,0.6c-0.4,0.2-0.7,0.1-0.9-0.2l-0.2-0.3
		c-0.2-0.4-0.1-0.7,0.2-0.9c0.6-0.3,1.7-0.9,3.3-0.9c2.5,0,4,1.4,4,4v5.7c0,0.4-0.2,0.7-0.7,0.7h-0.5c-0.4,0-0.7-0.2-0.7-0.7V641
		c0-0.4,0.1-0.6,0.1-0.6l0,0c0,0-0.9,2.1-3.3,2.1c-1.8,0-3.4-1.1-3.4-3C853,636.4,857,636.1,859.1,636.1z M856.9,641
		c1.7,0,2.7-1.7,2.7-3.2v-0.4h-0.5c-1.4,0-4.1,0.1-4.1,2C855,640.2,855.7,641,856.9,641z"/>
	<path class="st7" d="M863.6,633c-0.2-0.5,0-0.8,0.5-0.8h0.7c0.4,0,0.6,0.2,0.7,0.5l2.3,6.3c0.2,0.6,0.4,1.4,0.4,1.4l0,0
		c0,0,0.2-0.8,0.4-1.4l2.3-6.3c0.1-0.4,0.4-0.5,0.7-0.5h0.7c0.5,0,0.7,0.3,0.5,0.8l-3.3,8.8c-0.1,0.4-0.4,0.5-0.7,0.5h-1.1
		c-0.4,0-0.6-0.2-0.7-0.5L863.6,633z"/>
	<path class="st7" d="M879.7,632c3,0,5.5,2.2,5.5,5.3s-2.4,5.3-5.5,5.3s-5.4-2.2-5.4-5.3S876.7,632,879.7,632z M879.7,640.9
		c1.9,0,3.5-1.5,3.5-3.6s-1.6-3.6-3.5-3.6s-3.5,1.5-3.5,3.6C876.3,639.4,877.8,640.9,879.7,640.9z"/>
	<path class="st7" d="M887.8,632.9c0-0.4,0.2-0.7,0.7-0.7h0.6c0.4,0,0.7,0.2,0.7,0.7v1.2c0,0.4-0.1,0.8-0.1,0.8l0,0
		c0.4-1.3,1.6-2.7,3.1-2.7c0.5,0,0.6,0.2,0.6,0.7v0.6c0,0.4-0.3,0.7-0.7,0.7c-2,0-2.9,2.1-2.9,4.1v3.5c0,0.4-0.2,0.7-0.7,0.7h-0.6
		c-0.4,0-0.7-0.2-0.7-0.7L887.8,632.9L887.8,632.9z"/>
</g>
</svg>
