<?xml version="1.0" encoding="utf-8"?>
<!-- Generator: Adobe Illustrator 21.0.2, SVG Export Plug-In . SVG Version: 6.00 Build 0)  -->
<svg version="1.1" id="Layer_1" xmlns="http://www.w3.org/2000/svg" xmlns:xlink="http://www.w3.org/1999/xlink" x="0px" y="0px"
	 viewBox="0 0 36.4 37.7" style="enable-background:new 0 0 36.4 37.7;" xml:space="preserve">
<style type="text/css">
	.st0{fill:#FFFFFF;}
	.st1{fill:#F2CB31;}
</style>
<g>
	<path class="st0" d="M35.1,20c-2.1-0.1-1.9-1.5-1.2-1.6c0.5-0.1,1.2-0.3,1.3-0.4c0.2-0.1,0.4-0.4,0.4-0.7c-0.1-0.3-0.3-0.5-0.6-0.5
		l0,0c-0.5-3.6-2.1-6.8-4.8-9.3l-0.1-0.1c0-0.7,0.1-1.5,0.3-2.3L31,3.6l-1.3,1c-0.6,0.5-1.3,0.8-2,1c-1.9-1.2-4.1-1.9-6.3-2.1
		c-0.4-0.6-0.8-1.2-1-1.9L20,0l-0.5,1.6c-0.2,0.7-0.5,1.3-0.9,1.9c-2.4,0.1-4.6,0.9-6.6,2c-0.6-0.2-1.2-0.5-1.8-0.9l-1.3-1l0.5,1.5
		c0.2,0.7,0.3,1.3,0.3,2c0,0.1-0.2,0.3-0.3,0.4C7.8,9,6.5,10.8,5.7,12.8c-0.6,0.1-1.3,0.2-2,0.2H2.1l1.3,0.9c0.6,0.4,1,0.8,1.4,1.3
		c-0.1,0.6-0.3,1.2-0.3,1.9l-0.3-0.3c-0.9-0.9-2.7-1.3-3.5-0.9c-0.4,0.2-0.7,0.6-0.7,1s0,0.9,0,1.5c0,0.8,0,1.6,0,2.2
		c0,0.5,0.3,0.9,0.8,1c0.9,0.4,2.6-0.1,3.4-0.9l0.3-0.3c0.1,0.6,0.2,1.3,0.3,1.9c-0.4,0.5-0.8,0.9-1.4,1.3l-1.3,0.9l0,0h1.6
		c0.7,0,1.3,0.1,1.9,0.3c0.8,2,2.1,3.8,3.7,5.3c0.2,0.1,0.3,0.3,0.5,0.4c0,0.6-0.1,1.3-0.3,2L8.9,34l1.3-1c0.6-0.4,1.2-0.7,1.8-0.9
		c2,1.2,4.2,1.9,6.5,2.1c0.4,0.5,0.7,1.2,0.9,1.9l0.5,1.6l0.5-1.6c0.2-0.7,0.6-1.4,1-1.9c2.2-0.2,4.4-1,6.3-2.1c0.7,0.2,1.4,0.5,2,1
		l1.3,1l-0.5-1.5c-0.3-0.8-0.4-1.5-0.3-2.3l0.1-0.1c2.6-2.4,4.2-5.5,4.7-8.9h0.1c0.3,0,0.5-0.3,0.5-0.6C35.6,20.2,35.4,20,35.1,20z
		 M29.1,16.4c-0.8,0-1.4-0.6-1.4-1.4c0-0.8,0.6-1.4,1.4-1.4s1.4,0.6,1.4,1.4C30.5,15.7,29.8,16.4,29.1,16.4z"/>
	<path class="st1" d="M36.3,14.2l-1.7-4.4l-5.5,1.1c-1.2,0-2.3,0.5-3.1,1.4c-0.8,0.9-1.2,2.1-1.1,3.4c0.2,1.9,1.7,3.5,3.6,3.8
		c0.2,0,0.4,0,0.6,0c0.9,0,1.7-0.3,2.4-0.7l0.6-0.5c0.5-0.4,0.8-1,1-1.5c1-1.2,1.7-1.3,2.1-1.3c0.3,0,0.6-0.1,0.8-0.4
		C36.4,14.8,36.4,14.5,36.3,14.2z M33.8,11.3l1.1,2.8c-0.7,0.1-1.7,0.6-2.7,1.9l-0.1,0.1v0.1c-0.2,0.4-0.4,0.8-0.8,1.2l0,0
		c-0.7,0.6-1.5,0.9-2.4,0.7c-1.3-0.2-2.4-1.3-2.5-2.6c-0.1-0.9,0.2-1.7,0.7-2.3c0.6-0.6,1.4-1,2.2-1L33.8,11.3z"/>
	<g>
		<path class="st1" d="M14.2,18.3c-3.4,0-6.9-0.6-9.7-2.3l0.2-0.4c7.7,4.7,20.6,0.5,20.8,0.5l0.1,0.4C25.5,16.6,20.2,18.3,14.2,18.3
			z"/>
	</g>
</g>
</svg>
