<?xml version="1.0" encoding="utf-8"?>
<!-- Generator: Adobe Illustrator 21.0.2, SVG Export Plug-In . SVG Version: 6.00 Build 0)  -->
<svg version="1.1" id="Layer_1" xmlns="http://www.w3.org/2000/svg" xmlns:xlink="http://www.w3.org/1999/xlink" x="0px" y="0px"
	 viewBox="0 0 570.3 401.1" style="enable-background:new 0 0 570.3 401.1;" xml:space="preserve">
<style type="text/css">
	.st0{fill:#FFFFFF;}
	.st1{fill:none;stroke:#FFFFFF;stroke-width:2;stroke-linecap:round;stroke-linejoin:round;stroke-miterlimit:10;}
	.st2{fill:#095280;stroke:#FFFFFF;stroke-width:2;stroke-miterlimit:10;}
</style>
<g>
	<path class="st0" d="M277,401.1c-6.6,0-54.5-0.7-89.9-21c-4.5-2.6-7.6-7.2-8.4-12.4L132,39.4c-2-6.4-2.4-19.7,10.2-25.3
		C165.7,3.7,230.7,0,283.8,0C355.4,0,410,16.5,425,21.6c2.7,0.9,4.6,3.3,4.8,6.2c0.2,2.7,0.3,6.8-0.4,11.5L379,367.9l0,0.1
		c-0.3,1.4-9.5,33.1-101.2,33.1C277.7,401.1,277.5,401.1,277,401.1z M283.8,3.9c-80.3,0-125,7.1-140,13.8
		c-12.7,5.6-8.3,20.1-8.1,20.7l0.1,0.3l46.8,328.5c0.6,4,3,7.6,6.5,9.6c36.9,21.1,88.2,20.5,88.7,20.4c46.2,0,70.3-8.3,82.4-15.3
		c12.2-7,14.8-14.1,15.1-14.9l50.4-328.4c0.7-4.3,0.6-8.2,0.4-10.6c-0.1-1.3-1-2.4-2.2-2.8C408.9,20.2,354.8,3.9,283.8,3.9z"/>
	<path class="st0" d="M297.9,44.2c-5.7,0-11.5-0.1-17.4-0.2l0.1-3.9c81.3,1.6,135.4-8.4,135.9-8.5c2.6-0.5,3.4-1.4,3.7-1.8
		c0.3-0.5,0.2-0.9,0.2-1l3.6-1.3c0.1,0.2,0.7,2.1-0.4,4.1c-1,1.9-3.2,3.1-6.4,3.8C405,37.9,359,44.2,297.9,44.2z"/>
	<path class="st0" d="M263.2,44.2c-61.1,0-107.2-6.3-119.4-8.8c-3.2-0.6-5.3-1.9-6.4-3.8c-1.1-2-0.4-3.9-0.4-4.1l3.6,1.4l-1.8-0.7
		l1.8,0.6c0,0-0.1,0.5,0.2,1c0.3,0.5,1.1,1.3,3.7,1.8c0.5,0.1,54.7,10.1,135.9,8.5l0.1,3.9C274.6,44.1,268.8,44.2,263.2,44.2z"/>
	<path class="st0" d="M282.8,372.3c-48.4,0-86.1-13.8-88.5-14.7c-6.3-2.4-6.8-8.3-6.9-9.4l-35.3-235.5l0.8-0.7
		c11.6-9.7,27.5-22.9,130.8-22.9c99.1,0,123,24.9,124,25.9l0.6,0.7l-0.1,0.9c-0.3,2.2-34.4,221.3-35.8,229.7
		c-1.5,8.9-8.4,11-9.7,11.4C335.5,368.6,307.7,372.3,282.8,372.3z M156.3,114.3l35,233.6v0.1c0,0.2,0.1,4.3,4.4,5.9
		c3.5,1.3,87,31.9,165.7,0l0.3-0.1c0.2,0,5.7-1.3,6.9-8.3c1.3-8,33.1-212.3,35.7-228.6c-4.4-3.8-32.1-24.1-120.5-24.1
		C184.4,92.9,167.4,105.1,156.3,114.3z"/>
	<path class="st0" d="M287.3,137.5c-69.9,0-125.7-16.3-126.6-16.5l1.1-3.7c1.2,0.4,125.7,36.6,235.5,0l1.2,3.7
		C361.3,133.3,322.5,137.5,287.3,137.5z"/>
	<path class="st0" d="M325.8,280.2c-22.6,0-41-18.4-41-41s18.4-41,41-41c22.6,0,41,18.4,41,41S348.4,280.2,325.8,280.2z"/>
	<path class="st0" d="M325.8,202.1c-20.5,0-37.1,16.6-37.1,37.1s16.6,37.1,37.1,37.1c20.5,0,37.1-16.6,37.1-37.1
		S346.3,202.1,325.8,202.1z"/>
	<path class="st0" d="M248.7,344.7c-1.8,0-3.6-0.1-5.4-0.3c-10.9-1.4-20.5-7-27.2-15.6c-13.8-17.9-10.4-43.7,7.5-57.5
		c17.9-13.8,43.7-10.4,57.5,7.5c6.7,8.7,9.6,19.4,8.2,30.3c-1.4,10.9-7,20.5-15.6,27.2C266.4,341.8,257.7,344.7,248.7,344.7z"/>
	<path class="st0" d="M248.6,266.6c-7.9,0-15.9,2.5-22.6,7.7c-7.9,6-12.9,14.8-14.2,24.6c-1.3,9.8,1.4,19.6,7.4,27.4
		c12.5,16.2,35.8,19.2,52,6.8c7.9-6,12.9-14.8,14.2-24.6c1.3-9.8-1.4-19.6-7.4-27.4C270.7,271.6,259.7,266.6,248.6,266.6z"/>
	
		<ellipse transform="matrix(0.1089 -0.9941 0.9941 0.1089 128.9314 510.7697)" class="st0" cx="349.4" cy="183.5" rx="4.2" ry="4.2"/>
	<ellipse transform="matrix(0.1089 -0.9941 0.9941 0.1089 -32.2071 432.47)" class="st0" cx="225.1" cy="234.2" rx="4.2" ry="4.2"/>
	
		<ellipse transform="matrix(0.1089 -0.9941 0.9941 0.1089 -37.1538 471.1887)" class="st0" cx="244.2" cy="256.3" rx="4.2" ry="4.2"/>
	
		<ellipse transform="matrix(0.1089 -0.9941 0.9941 0.1089 146.8048 466.8571)" class="st0" cx="333.8" cy="151.5" rx="4.2" ry="4.2"/>
	
		<ellipse transform="matrix(0.1089 -0.9941 0.9941 0.1089 169.3021 423.8897)" class="st0" cx="321.1" cy="117.5" rx="4.2" ry="4.2"/>
	
		<ellipse transform="matrix(0.1089 -0.9941 0.9941 0.1089 35.8195 375.5522)" class="st0" cx="227.4" cy="167.8" rx="4.2" ry="4.2"/>
	
		<ellipse transform="matrix(0.1089 -0.9941 0.9941 0.1089 98.8837 326.8352)" class="st0" cx="231.7" cy="108.3" rx="4.2" ry="4.2"/>
	
		<ellipse transform="matrix(0.1089 -0.9941 0.9941 0.1089 -1.6617 405.0882)" class="st0" cx="225.1" cy="203.5" rx="4.2" ry="4.2"/>
	
		<ellipse transform="matrix(0.1089 -0.9941 0.9941 0.1089 124.409 529.7662)" class="st0" cx="357.7" cy="195.5" rx="3.6" ry="3.6"/>
	
		<ellipse transform="matrix(0.1089 -0.9941 0.9941 0.1089 20.5219 407.6473)" class="st0" cx="237.6" cy="192.4" rx="3.6" ry="3.6"/>
	<ellipse transform="matrix(0.1089 -0.9941 0.9941 0.1089 9.7172 444.787)" class="st0" cx="252.9" cy="217" rx="3.6" ry="3.6"/>
	<g>
		
			<ellipse transform="matrix(0.1089 -0.9941 0.9941 0.1089 -6.2423 435.5614)" class="st0" cx="239.8" cy="221.3" rx="2.4" ry="2.4"/>
	</g>
	<g>
		
			<ellipse transform="matrix(0.1089 -0.9941 0.9941 0.1089 -50.2511 463.3037)" class="st0" cx="233.3" cy="259.7" rx="2.8" ry="2.8"/>
	</g>
	<g>
		
			<ellipse transform="matrix(0.7799 -0.6259 0.6259 0.7799 -102.3795 213.8963)" class="st0" cx="252.9" cy="252.5" rx="2.2" ry="2.2"/>
	</g>
	<g>
		
			<ellipse transform="matrix(0.7799 -0.6259 0.6259 0.7799 -103.3986 205.2022)" class="st0" cx="240.1" cy="249.6" rx="1.7" ry="1.7"/>
	</g>
	<g>
		<ellipse transform="matrix(0.7799 -0.6259 0.6259 0.7799 -97.8663 211.701)" class="st0" cx="252.1" cy="245" rx="1.7" ry="1.7"/>
	</g>
	<g>
		
			<ellipse transform="matrix(0.7799 -0.6259 0.6259 0.7799 -94.6083 198.756)" class="st0" cx="235.3" cy="233.9" rx="1.7" ry="1.7"/>
	</g>
	<g>
		
			<ellipse transform="matrix(0.7799 -0.6259 0.6259 0.7799 -115.4101 200.3888)" class="st0" cx="227.2" cy="264.3" rx="1.7" ry="1.7"/>
	</g>
	<g>
		
			<ellipse transform="matrix(0.1089 -0.9941 0.9941 0.1089 -33.607 445.4875)" class="st0" cx="231.7" cy="241.5" rx="3.3" ry="3.3"/>
	</g>
	<g>
		
			<ellipse transform="matrix(0.1089 -0.9941 0.9941 0.1089 -41.6344 452.7998)" class="st0" cx="231.7" cy="249.6" rx="3.3" ry="3.3"/>
	</g>
	<g>
		
			<ellipse transform="matrix(0.6946 -0.7194 0.7194 0.6946 -25.1012 295.5957)" class="st0" cx="335.6" cy="177.4" rx="3.1" ry="3.1"/>
	</g>
	<g>
		<ellipse transform="matrix(0.6946 -0.7194 0.7194 0.6946 16.4353 274.7506)" class="st0" cx="331.8" cy="118" rx="3.1" ry="3.1"/>
	</g>
	<g>
		
			<ellipse transform="matrix(0.6946 -0.7194 0.7194 0.6946 -34.4493 306.4337)" class="st0" cx="343.7" cy="193.8" rx="2.4" ry="2.4"/>
	</g>
	<g>
		
			<ellipse transform="matrix(0.6946 -0.7194 0.7194 0.6946 -23.0026 274.7499)" class="st0" cx="312.1" cy="164.5" rx="2.4" ry="2.4"/>
	</g>
	<g>
		
			<ellipse transform="matrix(0.6946 -0.7194 0.7194 0.6946 -24.8207 288.0553)" class="st0" cx="326.9" cy="173.3" rx="2.4" ry="2.4"/>
	</g>
	<g>
		
			<ellipse transform="matrix(0.6946 -0.7194 0.7194 0.6946 -77.5328 233.0459)" class="st0" cx="235.7" cy="207.8" rx="2.4" ry="2.4"/>
	</g>
	<g>
		
			<ellipse transform="matrix(0.6946 -0.7194 0.7194 0.6946 -105.5482 219.1517)" class="st0" cx="205.4" cy="233.9" rx="2.4" ry="2.4"/>
	</g>
	<g>
		
			<ellipse transform="matrix(0.6946 -0.7194 0.7194 0.6946 -17.6371 268.0675)" class="st0" cx="306.9" cy="154.8" rx="2.4" ry="2.4"/>
	</g>
	<g>
		
			<ellipse transform="matrix(0.6946 -0.7194 0.7194 0.6946 8.0734 250.2368)" class="st0" cx="298.8" cy="115.6" rx="2.4" ry="2.4"/>
	</g>
	<g>
		
			<ellipse transform="matrix(0.6946 -0.7194 0.7194 0.6946 -34.2418 215.8248)" class="st0" cx="237.1" cy="148.2" rx="2.4" ry="2.4"/>
	</g>
	<g>
		
			<ellipse transform="matrix(0.6946 -0.7194 0.7194 0.6946 -12.0316 191.2125)" class="st0" cx="219.2" cy="109.8" rx="2.4" ry="2.4"/>
	</g>
	<g>
		
			<ellipse transform="matrix(0.6946 -0.7194 0.7194 0.6946 -53.842 222.4303)" class="st0" cx="235.1" cy="174.6" rx="2.4" ry="2.4"/>
	</g>
	<g>
		<ellipse transform="matrix(0.6946 -0.7194 0.7194 0.6946 5.0914 306.519)" class="st0" cx="363.6" cy="147.3" rx="2.8" ry="2.8"/>
	</g>
	<g>
		
			<ellipse transform="matrix(0.6946 -0.7194 0.7194 0.6946 -47.4437 280.7201)" class="st0" cx="306.9" cy="196.2" rx="2.8" ry="2.8"/>
	</g>
	<g>
		
			<ellipse transform="matrix(0.6946 -0.7194 0.7194 0.6946 -124.8866 240.9052)" class="st0" cx="221.3" cy="267.6" rx="2.8" ry="2.8"/>
	</g>
	<g>
		
			<ellipse transform="matrix(0.6946 -0.7194 0.7194 0.6946 0.7502 283.0694)" class="st0" cx="333.8" cy="140.7" rx="2.8" ry="2.8"/>
	</g>
	<g>
		
			<ellipse transform="matrix(0.9998 -1.747265e-02 1.747265e-02 0.9998 -2.5201 6.0883)" class="st0" cx="347.2" cy="147.3" rx="2.2" ry="2.2"/>
	</g>
	<g>
		
			<ellipse transform="matrix(0.9998 -1.747265e-02 1.747265e-02 0.9998 -3.4366 3.7836)" class="st0" cx="214.8" cy="198.6" rx="2.2" ry="2.2"/>
	</g>
	<g>
		
			<ellipse transform="matrix(0.9998 -1.747265e-02 1.747265e-02 0.9998 -2.6883 6.1665)" class="st0" cx="351.6" cy="156.9" rx="1.7" ry="1.7"/>
	</g>
	<g>
		
			<ellipse transform="matrix(0.9998 -1.747265e-02 1.747265e-02 0.9998 -2.9311 5.9166)" class="st0" cx="337.1" cy="170.7" rx="1.7" ry="1.7"/>
	</g>
	<g>
		
			<ellipse transform="matrix(0.9998 -1.747265e-02 1.747265e-02 0.9998 -3.949 4.4394)" class="st0" cx="252.1" cy="228.2" rx="1.7" ry="1.7"/>
	</g>
	<g>
		
			<ellipse transform="matrix(0.9998 -1.747265e-02 1.747265e-02 0.9998 -4.5835 4.7712)" class="st0" cx="270.8" cy="264.7" rx="1.7" ry="1.7"/>
	</g>
	<g>
		
			<ellipse transform="matrix(0.9998 -1.747265e-02 1.747265e-02 0.9998 -4.492 4.4634)" class="st0" cx="253.2" cy="259.3" rx="1.7" ry="1.7"/>
	</g>
	<g>
		
			<ellipse transform="matrix(0.9998 -1.747265e-02 1.747265e-02 0.9998 -2.6528 5.9866)" class="st0" cx="341.3" cy="154.8" rx="1.7" ry="1.7"/>
	</g>
	<g>
		
			<ellipse transform="matrix(0.9998 -1.747265e-02 1.747265e-02 0.9998 -1.8755 5.689)" class="st0" cx="324.6" cy="110.2" rx="1.7" ry="1.7"/>
	</g>
	<g>
		
			<ellipse transform="matrix(0.9998 -1.747265e-02 1.747265e-02 0.9998 -3.0358 5.1828)" class="st0" cx="295.1" cy="176.3" rx="1.7" ry="1.7"/>
	</g>
	<g>
		
			<ellipse transform="matrix(0.9998 -1.747265e-02 1.747265e-02 0.9998 -4.0961 3.4387)" class="st0" cx="194.7" cy="236.1" rx="1.7" ry="1.7"/>
	</g>
	<g>
		
			<ellipse transform="matrix(0.9998 -1.747265e-02 1.747265e-02 0.9998 -3.0207 3.5307)" class="st0" cx="200.5" cy="174.6" rx="1.7" ry="1.7"/>
	</g>
	<g>
		
			<ellipse transform="matrix(0.9998 -1.747265e-02 1.747265e-02 0.9998 -1.9745 4.4314)" class="st0" cx="252.6" cy="115.2" rx="1.7" ry="1.7"/>
	</g>
	<g>
		
			<ellipse transform="matrix(0.9998 -1.747265e-02 1.747265e-02 0.9998 -3.3058 5.2499)" class="st0" cx="298.8" cy="191.8" rx="1.7" ry="1.7"/>
	</g>
	<g>
		
			<ellipse transform="matrix(0.9998 -1.747265e-02 1.747265e-02 0.9998 -3.8967 4.1138)" class="st0" cx="233.5" cy="225.1" rx="1.7" ry="1.7"/>
	</g>
	<g>
		
			<ellipse transform="matrix(0.9998 -1.747265e-02 1.747265e-02 0.9998 -3.125 4.9863)" class="st0" cx="283.8" cy="181.3" rx="1.7" ry="1.7"/>
	</g>
	<g>
		
			<ellipse transform="matrix(0.9998 -1.747265e-02 1.747265e-02 0.9998 -2.6717 3.8244)" class="st0" cx="217.5" cy="154.8" rx="1.7" ry="1.7"/>
	</g>
	<g>
		
			<ellipse transform="matrix(0.9998 -1.747265e-02 1.747265e-02 0.9998 -2.0215 3.6543)" class="st0" cx="208.1" cy="117.5" rx="1.7" ry="1.7"/>
	</g>
	<g>
		
			<ellipse transform="matrix(0.9998 -1.747265e-02 1.747265e-02 0.9998 -2.0078 3.9844)" class="st0" cx="227" cy="116.9" rx="1.7" ry="1.7"/>
	</g>
	<g>
		
			<ellipse transform="matrix(0.9998 -1.747265e-02 1.747265e-02 0.9998 -2.7798 4.3298)" class="st0" cx="246.4" cy="161.2" rx="1.7" ry="1.7"/>
	</g>
	<g>
		
			<ellipse transform="matrix(0.9998 -1.747265e-02 1.747265e-02 0.9998 -1.7479 4.1677)" class="st0" cx="237.6" cy="102.1" rx="1.7" ry="1.7"/>
	</g>
	<g>
		
			<ellipse transform="matrix(0.9998 -1.747265e-02 1.747265e-02 0.9998 -3.5883 4.9903)" class="st0" cx="283.8" cy="207.8" rx="1.7" ry="1.7"/>
	</g>
	<g>
		
			<ellipse transform="matrix(0.9998 -1.747265e-02 1.747265e-02 0.9998 -4.3134 4.3615)" class="st0" cx="247.4" cy="249" rx="1.7" ry="1.7"/>
	</g>
	<g>
		
			<ellipse transform="matrix(0.9998 -1.747265e-02 1.747265e-02 0.9998 -3.643 3.366)" class="st0" cx="190.8" cy="210.2" rx="1.7" ry="1.7"/>
	</g>
	<g>
		
			<ellipse transform="matrix(0.9998 -1.747265e-02 1.747265e-02 0.9998 -4.3627 3.7009)" class="st0" cx="209.6" cy="251.5" rx="1.7" ry="1.7"/>
	</g>
	<g>
		
			<ellipse transform="matrix(0.9998 -1.747265e-02 1.747265e-02 0.9998 -2.9301 6.0306)" class="st0" cx="343.7" cy="170.7" rx="1.7" ry="1.7"/>
	</g>
	<g>
		
			<ellipse transform="matrix(0.9998 -1.747265e-02 1.747265e-02 0.9998 -3.3174 3.9295)" class="st0" cx="223.2" cy="191.8" rx="1.7" ry="1.7"/>
	</g>
	<g>
		
			<ellipse transform="matrix(0.9998 -1.747265e-02 1.747265e-02 0.9998 -3.1555 5.7788)" class="st0" cx="329.1" cy="183.5" rx="1.7" ry="1.7"/>
	</g>
	<g>
		
			<ellipse transform="matrix(0.9998 -1.747265e-02 1.747265e-02 0.9998 -3.3426 5.7804)" class="st0" cx="329.1" cy="194.2" rx="1.7" ry="1.7"/>
	</g>
	<g>
		
			<ellipse transform="matrix(0.9998 -1.747265e-02 1.747265e-02 0.9998 -3.4566 6.1349)" class="st0" cx="349.4" cy="200.9" rx="1.7" ry="1.7"/>
	</g>
	<g>
		
			<ellipse transform="matrix(0.9998 -1.747265e-02 1.747265e-02 0.9998 -2.3548 6.1636)" class="st0" cx="351.6" cy="137.8" rx="1.7" ry="1.7"/>
	</g>
	<g>
		
			<ellipse transform="matrix(0.9998 -1.747265e-02 1.747265e-02 0.9998 -1.9058 6.2156)" class="st0" cx="354.8" cy="112.2" rx="1.7" ry="1.7"/>
	</g>
	<g>
		
			<ellipse transform="matrix(0.9998 -1.747265e-02 1.747265e-02 0.9998 -1.9081 5.9426)" class="st0" cx="339.1" cy="112.2" rx="1.7" ry="1.7"/>
	</g>
	<g>
		
			<ellipse transform="matrix(0.9998 -1.747265e-02 1.747265e-02 0.9998 -2.6613 5.0208)" class="st0" cx="286" cy="154.8" rx="1.7" ry="1.7"/>
	</g>
	<g>
		
			<ellipse transform="matrix(0.9998 -1.747265e-02 1.747265e-02 0.9998 -1.8999 5.4707)" class="st0" cx="312.1" cy="111.5" rx="1.7" ry="1.7"/>
	</g>
	<g>
		
			<ellipse transform="matrix(0.9998 -1.747265e-02 1.747265e-02 0.9998 -2.085 5.4443)" class="st0" cx="310.5" cy="122" rx="1.7" ry="1.7"/>
	</g>
	<g>
		
			<ellipse transform="matrix(0.9998 -1.747265e-02 1.747265e-02 0.9998 -2.3379 3.6972)" class="st0" cx="210.4" cy="135.6" rx="1.7" ry="1.7"/>
	</g>
	<g>
		
			<ellipse transform="matrix(0.9998 -1.747265e-02 1.747265e-02 0.9998 -2.009 3.8481)" class="st0" cx="219.2" cy="116.9" rx="1.7" ry="1.7"/>
	</g>
	<g>
		
			<ellipse transform="matrix(0.9998 -1.747265e-02 1.747265e-02 0.9998 -2.7244 3.9971)" class="st0" cx="227.4" cy="157.9" rx="1.7" ry="1.7"/>
	</g>
	<g>
		
			<ellipse transform="matrix(0.9998 -1.747265e-02 1.747265e-02 0.9998 -4.1332 4.5724)" class="st0" cx="259.6" cy="238.8" rx="2.5" ry="2.5"/>
	</g>
	<g>
		
			<ellipse transform="matrix(0.9998 -1.747265e-02 1.747265e-02 0.9998 -3.0913 5.41)" class="st0" cx="308.1" cy="179.6" rx="2.3" ry="2.3"/>
	</g>
	<g>
		
			<ellipse transform="matrix(0.9998 -1.747265e-02 1.747265e-02 0.9998 -4.2768 3.971)" class="st0" cx="225.1" cy="246.7" rx="2.3" ry="2.3"/>
	</g>
	<g>
		
			<ellipse transform="matrix(0.6946 -0.7194 0.7194 0.6946 -12.8417 303.5854)" class="st0" cx="351.2" cy="166.9" rx="3.3" ry="3.3"/>
	</g>
	<g>
		
			<ellipse transform="matrix(0.6946 -0.7194 0.7194 0.6946 -41.2345 216.7137)" class="st0" cx="234.6" cy="156.9" rx="3.3" ry="3.3"/>
	</g>
	<g>
		
			<ellipse transform="matrix(0.6946 -0.7194 0.7194 0.6946 -13.7424 209.6557)" class="st0" cx="240.1" cy="121" rx="3.3" ry="3.3"/>
	</g>
	<g>
		<path class="st0" d="M318.4,178.9c-1.1,0-2.2-0.4-3-1.2c-0.8-0.8-1.3-1.9-1.3-3c0-1.2,0.4-2.2,1.2-3.1c0.8-0.8,1.9-1.3,3-1.3
			c1.1,0,2.2,0.4,3.1,1.2c0.8,0.8,1.3,1.9,1.3,3c0,1.2-0.4,2.2-1.2,3.1C320.7,178.5,319.6,178.9,318.4,178.9z M318.4,172.4
			C318.4,172.4,318.4,172.4,318.4,172.4c-0.6,0-1.2,0.3-1.6,0.7h0c-0.4,0.4-0.6,1-0.6,1.6c0,0.6,0.3,1.2,0.7,1.6
			c0.9,0.9,2.3,0.8,3.2-0.1c0.4-0.4,0.6-1,0.6-1.6c0-0.6-0.3-1.2-0.7-1.6C319.6,172.6,319,172.4,318.4,172.4z"/>
	</g>
	<g>
		<path class="st0" d="M231.7,187.8c-1.1,0-2.2-0.4-3-1.2c-0.8-0.8-1.3-1.9-1.3-3c0-1.2,0.4-2.2,1.2-3.1c0.8-0.8,1.9-1.3,3-1.3
			c1.1,0,2.2,0.4,3.1,1.2c0.8,0.8,1.3,1.9,1.3,3c0,1.2-0.4,2.2-1.2,3.1C234,187.3,233,187.8,231.7,187.8
			C231.8,187.8,231.8,187.8,231.7,187.8z M231.7,181.2C231.7,181.2,231.7,181.2,231.7,181.2c-0.6,0-1.2,0.3-1.6,0.7h0
			c-0.4,0.4-0.6,1-0.6,1.6c0,0.6,0.3,1.2,0.7,1.6c0.4,0.4,1,0.6,1.6,0.6c0.6,0,1.2-0.3,1.6-0.7c0.4-0.4,0.6-1,0.6-1.6
			c0-0.6-0.3-1.2-0.7-1.6C232.9,181.4,232.3,181.2,231.7,181.2z"/>
	</g>
	<g>
		<path class="st0" d="M241,116.5c-1.1,0-2.2-0.4-3-1.2c-1.7-1.7-1.8-4.4-0.1-6.1h0c1.7-1.7,4.4-1.8,6.1-0.1c0.8,0.8,1.3,1.9,1.3,3
			c0,1.2-0.4,2.2-1.2,3.1C243.3,116,242.2,116.5,241,116.5z M239.4,110.6c-0.9,0.9-0.8,2.3,0.1,3.2c0.9,0.9,2.3,0.8,3.2-0.1
			c0.4-0.4,0.6-1,0.6-1.6c0-0.6-0.3-1.2-0.7-1.6C241.7,109.7,240.3,109.7,239.4,110.6L239.4,110.6z"/>
	</g>
	<g>
		<path class="st0" d="M242.9,244.3c-1.1,0-2.2-0.4-3-1.2c-0.8-0.8-1.3-1.9-1.3-3c0-1.2,0.4-2.2,1.2-3.1c0.8-0.8,1.9-1.3,3-1.3
			c1.1,0,2.2,0.4,3.1,1.2c0.8,0.8,1.3,1.9,1.3,3c0,1.2-0.4,2.2-1.2,3.1C245.2,243.8,244.1,244.2,242.9,244.3
			C242.9,244.3,242.9,244.3,242.9,244.3z M242.9,237.7C242.8,237.7,242.8,237.7,242.9,237.7c-0.6,0-1.2,0.3-1.6,0.7h0
			c-0.4,0.4-0.6,1-0.6,1.6c0,0.6,0.3,1.2,0.7,1.6c0.4,0.4,1,0.6,1.6,0.6c0.6,0,1.2-0.3,1.6-0.7c0.4-0.4,0.6-1,0.6-1.6
			c0-0.6-0.3-1.2-0.7-1.6C244,237.9,243.5,237.7,242.9,237.7z"/>
	</g>
	<path class="st0" d="M316.9,195.7c-3.4,0-6.1-2.7-6.1-6.1s2.7-6.1,6.1-6.1s6.1,2.7,6.1,6.1S320.3,195.7,316.9,195.7z M316.9,186.1
		c-1.9,0-3.5,1.6-3.5,3.5s1.6,3.5,3.5,3.5s3.5-1.6,3.5-3.5S318.9,186.1,316.9,186.1z"/>
	<path class="st0" d="M264.3,262.4c-3.4,0-6.1-2.7-6.1-6.1c0-3.4,2.7-6.1,6.1-6.1s6.1,2.7,6.1,6.1
		C270.4,259.7,267.6,262.4,264.3,262.4z M264.3,252.8c-1.9,0-3.5,1.6-3.5,3.5s1.6,3.5,3.5,3.5s3.5-1.6,3.5-3.5
		S266.2,252.8,264.3,252.8z"/>
	<path class="st0" d="M330.7,168.8c-2.7,0-4.8-2.2-4.8-4.8c0-2.7,2.2-4.8,4.8-4.8c2.7,0,4.8,2.2,4.8,4.8
		C335.5,166.7,333.3,168.8,330.7,168.8z M330.7,161.2c-1.5,0-2.8,1.2-2.8,2.8s1.2,2.8,2.8,2.8s2.8-1.2,2.8-2.8
		S332.2,161.2,330.7,161.2z"/>
	<path class="st0" d="M225.1,261.1c-2.7,0-4.8-2.2-4.8-4.8c0-2.7,2.2-4.8,4.8-4.8s4.8,2.2,4.8,4.8
		C229.9,259,227.8,261.1,225.1,261.1z M225.1,253.5c-1.5,0-2.8,1.2-2.8,2.8s1.2,2.8,2.8,2.8s2.8-1.2,2.8-2.8
		S226.6,253.5,225.1,253.5z"/>
	<path class="st0" d="M336.7,193.4c-2.7,0-4.8-2.2-4.8-4.8c0-2.7,2.2-4.8,4.8-4.8s4.8,2.2,4.8,4.8
		C341.5,191.2,339.4,193.4,336.7,193.4z M336.7,185.8c-1.5,0-2.8,1.2-2.8,2.8s1.2,2.8,2.8,2.8s2.8-1.2,2.8-2.8
		S338.3,185.8,336.7,185.8z"/>
	<path class="st0" d="M223.2,226.3c-3.9,0-7-3.1-7-7s3.1-7,7-7s7,3.1,7,7S227.1,226.3,223.2,226.3z M223.2,215c-2.4,0-4.4,2-4.4,4.4
		c0,2.4,2,4.4,4.4,4.4c2.4,0,4.4-2,4.4-4.4C227.6,216.9,225.6,215,223.2,215z"/>
	<path class="st0" d="M318.4,152.1c-2.7,0-4.8-2.2-4.8-4.8c0-2.7,2.2-4.8,4.8-4.8s4.8,2.2,4.8,4.8
		C323.2,149.9,321.1,152.1,318.4,152.1z M318.4,144.5c-1.5,0-2.8,1.2-2.8,2.8s1.2,2.8,2.8,2.8s2.8-1.2,2.8-2.8
		S320,144.5,318.4,144.5z"/>
	<path class="st0" d="M227,149.3c-2.7,0-4.8-2.2-4.8-4.8c0-2.7,2.2-4.8,4.8-4.8c2.7,0,4.8,2.2,4.8,4.8
		C231.8,147.1,229.7,149.3,227,149.3z M227,141.7c-1.5,0-2.8,1.2-2.8,2.8s1.2,2.8,2.8,2.8c1.5,0,2.8-1.2,2.8-2.8
		S228.5,141.7,227,141.7z"/>
	<path class="st0" d="M326.9,273.7c-17.7,0-27.1-10.6-27.5-11.1l2-1.7c0.1,0.1,9.8,11,27.7,10.1c17.8-0.9,27.4-18.9,27.5-19.1
		l2.3,1.2c-0.4,0.8-10.3,19.5-29.6,20.5C328.4,273.7,327.6,273.7,326.9,273.7z"/>
	<path class="st0" d="M249.1,338.3c-7,0-15.7-1.7-23-8.2c-14.3-12.9-13.4-28.2-13.3-28.9l2.6,0.2c0,0.1-0.9,14.7,12.5,26.8
		c13.3,12,32.8,6,32.9,5.9l0.8,2.5C261.1,336.7,255.9,338.3,249.1,338.3z"/>
</g>
<g>
	<path class="st0" d="M44.5,280.3c2.7,0,4.4,1,5.2,1.6c0.4,0.3,0.4,0.6,0.1,1l-0.3,0.4c-0.3,0.4-0.6,0.4-1,0.2
		c-0.7-0.4-2.1-1.2-3.9-1.2c-3.7,0-5.8,2.7-5.8,6c0,3.3,2.2,6.2,5.8,6.2c2.1,0,3.6-1,4.3-1.5c0.4-0.3,0.7-0.3,1,0.1l0.3,0.4
		c0.3,0.4,0.2,0.7-0.1,1c-0.8,0.7-2.7,2-5.6,2c-4.9,0-8-3.6-8-8.2C36.5,283.7,39.8,280.3,44.5,280.3z"/>
	<path class="st0" d="M58.6,289.3h0.6V289c0-1.9-1.1-2.5-2.5-2.5c-1.1,0-2,0.4-2.5,0.7c-0.4,0.2-0.8,0.1-1-0.3l-0.2-0.3
		c-0.2-0.4-0.2-0.8,0.2-1c0.7-0.4,1.9-1,3.7-1c2.8,0,4.4,1.6,4.4,4.4v6.4c0,0.5-0.3,0.7-0.7,0.7H60c-0.5,0-0.7-0.2-0.7-0.7v-0.7
		c0-0.4,0.1-0.7,0.1-0.7h0c0,0-1,2.4-3.7,2.4c-2,0-3.8-1.2-3.8-3.3C51.8,289.7,56.2,289.3,58.6,289.3z M56.1,294.8
		c1.9,0,3.1-1.9,3.1-3.6v-0.5h-0.6c-1.6,0-4.6,0.1-4.6,2.3C54,293.9,54.7,294.8,56.1,294.8z"/>
	<path class="st0" d="M64.7,286.7H64c-0.5,0-0.7-0.2-0.7-0.7v-0.3c0-0.5,0.2-0.7,0.7-0.7h0.7v-0.4c0-3.6,2.9-4.1,4.1-4.1H69
		c0.5,0,0.7,0.3,0.7,0.7v0.4c0,0.5-0.3,0.7-0.8,0.7c-0.8,0-2.1,0.2-2.1,2.3v0.3h5v-0.4c0-3.6,2.9-4.1,4.1-4.1h0.3
		c0.5,0,0.7,0.3,0.7,0.7v0.4c0,0.5-0.3,0.7-0.8,0.7c-0.8,0-2.1,0.2-2.1,2.3v0.3h1.9c0.5,0,0.7,0.2,0.7,0.7v0.3
		c0,0.5-0.2,0.7-0.7,0.7h-2v8.8c0,0.5-0.2,0.7-0.7,0.7h-0.7c-0.5,0-0.7-0.2-0.7-0.7v-8.8h-5v8.8c0,0.5-0.3,0.7-0.7,0.7h-0.7
		c-0.5,0-0.7-0.2-0.7-0.7V286.7z"/>
	<path class="st0" d="M83.2,284.7c3.1,0,4.9,2.2,4.9,5.4c0,0.4-0.3,0.8-0.8,0.8h-7.5c0.1,2.5,1.9,3.8,3.9,3.8c1.2,0,2.2-0.5,2.7-0.9
		c0.4-0.2,0.8-0.2,1,0.2l0.2,0.3c0.2,0.4,0.2,0.8-0.2,1c-0.7,0.5-2,1.2-3.8,1.2c-3.5,0-6-2.6-6-5.9C77.6,287,80,284.7,83.2,284.7z
		 M85.9,289.4c-0.1-2-1.2-3-2.7-3c-1.6,0-3,1.1-3.3,3H85.9z"/>
	<path class="st0" d="M90.4,282v-0.7c0-0.5,0.2-0.7,0.7-0.7h0.8c0.5,0,0.7,0.2,0.7,0.7v0.7c0,0.5-0.3,0.7-0.7,0.7h-0.8
		C90.7,282.7,90.4,282.5,90.4,282z M90.4,285.7c0-0.5,0.3-0.7,0.7-0.7h0.7c0.5,0,0.7,0.2,0.7,0.7v9.8c0,0.5-0.2,0.7-0.7,0.7h-0.7
		c-0.5,0-0.7-0.2-0.7-0.7V285.7z"/>
	<path class="st0" d="M95.7,285.7c0-0.5,0.3-0.7,0.7-0.7h0.6c0.5,0,0.7,0.2,0.7,0.7v1c0,0.3-0.1,0.6-0.1,0.6h0
		c0.4-1,1.8-2.7,4.3-2.7c2.7,0,3.9,1.4,3.9,4.3v6.5c0,0.5-0.2,0.7-0.7,0.7h-0.7c-0.5,0-0.7-0.2-0.7-0.7v-6c0-1.6-0.3-2.8-2.1-2.8
		c-2.2,0-3.8,1.8-3.8,4.2v4.7c0,0.5-0.2,0.7-0.7,0.7h-0.7c-0.5,0-0.7-0.2-0.7-0.7V285.7z"/>
	<path class="st0" d="M113.8,284.7c3.1,0,4.9,2.2,4.9,5.4c0,0.4-0.3,0.8-0.8,0.8h-7.5c0.1,2.5,1.9,3.8,3.9,3.8
		c1.2,0,2.2-0.5,2.7-0.9c0.4-0.2,0.8-0.2,1,0.2l0.2,0.3c0.2,0.4,0.2,0.8-0.2,1c-0.7,0.5-2,1.2-3.8,1.2c-3.5,0-6-2.6-6-5.9
		C108.2,287,110.6,284.7,113.8,284.7z M116.5,289.4c-0.1-2-1.2-3-2.7-3c-1.6,0-3,1.1-3.3,3H116.5z"/>
</g>
<g>
	<path class="st0" d="M456.5,264c0.1-0.4,0.4-0.6,0.8-0.6h1.1c0.4,0,0.7,0.2,0.8,0.6l5.2,14.3c0.2,0.5-0.1,0.8-0.6,0.8H463
		c-0.4,0-0.7-0.2-0.8-0.6l-1.4-3.9h-5.9l-1.4,3.9c-0.1,0.4-0.4,0.6-0.8,0.6h-0.8c-0.6,0-0.8-0.3-0.6-0.8L456.5,264z M460.2,272.8
		l-1.7-5c-0.3-0.8-0.6-2.2-0.6-2.2h0c0,0-0.4,1.4-0.6,2.2l-1.8,5H460.2z"/>
	<path class="st0" d="M465.7,277.2l0.2-0.3c0.3-0.4,0.6-0.4,1-0.2c0.5,0.3,1.4,0.9,2.8,0.9c1.1,0,1.9-0.5,1.9-1.5
		c0-2.2-5.8-1.5-5.8-5.3c0-2.1,1.9-3.3,4.1-3.3c1.6,0,2.6,0.5,3.1,0.9c0.4,0.2,0.5,0.6,0.2,1l-0.2,0.3c-0.2,0.4-0.6,0.4-1,0.2
		c-0.5-0.3-1.2-0.6-2.3-0.6s-1.9,0.5-1.9,1.4c0,2.3,5.8,1.4,5.8,5.3c0,1.9-1.6,3.3-4.1,3.3c-1.9,0-3.2-0.8-3.8-1.2
		C465.5,278,465.4,277.6,465.7,277.2z"/>
	<path class="st0" d="M476.1,268.6c0-0.5,0.2-0.7,0.7-0.7h0.5c0.5,0,0.7,0.2,0.7,0.6v0.7c0,0.3,0,0.6,0,0.6h0c0,0,1-2.2,3.8-2.2
		c3,0,4.9,2.4,4.9,5.9c0,3.6-2.2,5.9-5.1,5.9c-2.6,0-3.5-2-3.5-2h0c0,0,0.1,0.4,0.1,1v4.5c0,0.5-0.2,0.7-0.7,0.7h-0.7
		c-0.5,0-0.7-0.2-0.7-0.7V268.6z M481.4,277.6c1.8,0,3.3-1.4,3.3-4c0-2.5-1.3-4-3.2-4c-1.7,0-3.3,1.2-3.3,4.1
		C478.2,275.6,479.3,277.6,481.4,277.6z"/>
	<path class="st0" d="M489.3,264.9v-0.7c0-0.5,0.2-0.7,0.7-0.7h0.8c0.5,0,0.7,0.2,0.7,0.7v0.7c0,0.5-0.3,0.7-0.7,0.7H490
		C489.5,265.6,489.3,265.4,489.3,264.9z M489.3,268.6c0-0.5,0.3-0.7,0.7-0.7h0.7c0.5,0,0.7,0.2,0.7,0.7v9.8c0,0.5-0.2,0.7-0.7,0.7
		H490c-0.5,0-0.7-0.2-0.7-0.7V268.6z"/>
	<path class="st0" d="M494.6,268.6c0-0.5,0.3-0.7,0.7-0.7h0.6c0.5,0,0.7,0.2,0.7,0.7v1.3c0,0.5-0.1,0.8-0.1,0.8h0
		c0.5-1.5,1.8-3,3.5-3c0.5,0,0.7,0.2,0.7,0.7v0.6c0,0.5-0.3,0.7-0.8,0.7c-2.2,0-3.3,2.4-3.3,4.6v3.9c0,0.5-0.2,0.7-0.7,0.7h-0.7
		c-0.5,0-0.7-0.2-0.7-0.7V268.6z"/>
	<path class="st0" d="M502.5,264.9v-0.7c0-0.5,0.2-0.7,0.7-0.7h0.8c0.5,0,0.7,0.2,0.7,0.7v0.7c0,0.5-0.3,0.7-0.7,0.7h-0.8
		C502.7,265.6,502.5,265.4,502.5,264.9z M502.5,268.6c0-0.5,0.3-0.7,0.7-0.7h0.7c0.5,0,0.7,0.2,0.7,0.7v9.8c0,0.5-0.2,0.7-0.7,0.7
		h-0.7c-0.5,0-0.7-0.2-0.7-0.7V268.6z"/>
	<path class="st0" d="M507.8,268.6c0-0.5,0.3-0.7,0.7-0.7h0.6c0.5,0,0.7,0.2,0.7,0.7v1c0,0.3-0.1,0.6-0.1,0.6h0
		c0.4-1,1.8-2.7,4.3-2.7c2.7,0,3.9,1.4,3.9,4.3v6.5c0,0.5-0.2,0.7-0.7,0.7h-0.7c-0.5,0-0.7-0.2-0.7-0.7v-6c0-1.6-0.3-2.8-2.1-2.8
		c-2.2,0-3.8,1.8-3.8,4.2v4.7c0,0.5-0.2,0.7-0.7,0.7h-0.7c-0.5,0-0.7-0.2-0.7-0.7V268.6z"/>
</g>
<g>
	<path class="st0" d="M491.2,89.7c0-0.5,0.2-0.7,0.7-0.7h4.8c2.7,0,4.5,1.5,4.5,4c0,1.5-0.7,2.8-1.9,3.4v0c1.6,0.5,2.6,2.1,2.6,3.8
		c0,3-2.3,4.5-5.1,4.5H492c-0.5,0-0.7-0.2-0.7-0.7V89.7z M496.7,95.5c1.4,0,2.3-1,2.3-2.4c0-1.4-0.9-2.3-2.4-2.3h-3.3v4.7H496.7z
		 M497,102.7c1.7,0,2.7-1.1,2.7-2.7s-1.1-2.7-2.7-2.7h-3.5v5.4H497z"/>
	<path class="st0" d="M504.4,94.1c0-0.5,0.2-0.7,0.7-0.7h0.7c0.5,0,0.7,0.2,0.7,0.7v6c0,1.6,0.3,2.8,2.1,2.8c2.3,0,3.7-2,3.7-4.3
		v-4.5c0-0.5,0.2-0.7,0.7-0.7h0.7c0.5,0,0.7,0.2,0.7,0.7v9.8c0,0.5-0.3,0.7-0.7,0.7h-0.6c-0.5,0-0.7-0.2-0.7-0.7v-1
		c0-0.3,0.1-0.6,0.1-0.6h0c-0.5,1.1-2,2.7-4.2,2.7c-2.5,0-3.8-1.3-3.8-4.3V94.1z"/>
	<path class="st0" d="M517.7,89.7c0-0.5,0.2-0.7,0.7-0.7h0.7c0.5,0,0.7,0.2,0.7,0.7v4.6c0,0.6-0.1,1-0.1,1h0c0,0,1-2.1,3.7-2.1
		c3,0,4.9,2.4,4.9,5.9c0,3.6-2.2,5.9-5.1,5.9c-2.7,0-3.6-2.1-3.6-2.1h0c0,0,0.1,0.3,0.1,0.7v0.6c0,0.4-0.3,0.6-0.7,0.6h-0.6
		c-0.5,0-0.7-0.2-0.7-0.7V89.7z M522.9,103.1c1.8,0,3.3-1.4,3.3-4c0-2.5-1.3-4-3.2-4c-1.7,0-3.3,1.2-3.3,4
		C519.7,101.1,520.8,103.1,522.9,103.1z"/>
	<path class="st0" d="M530.9,89.7c0-0.5,0.2-0.7,0.7-0.7h0.7c0.5,0,0.7,0.2,0.7,0.7v4.6c0,0.6-0.1,1-0.1,1h0c0,0,1-2.1,3.7-2.1
		c3,0,4.9,2.4,4.9,5.9c0,3.6-2.2,5.9-5.1,5.9c-2.7,0-3.6-2.1-3.6-2.1h0c0,0,0.1,0.3,0.1,0.7v0.6c0,0.4-0.3,0.6-0.7,0.6h-0.6
		c-0.5,0-0.7-0.2-0.7-0.7V89.7z M536.1,103.1c1.8,0,3.3-1.4,3.3-4c0-2.5-1.3-4-3.2-4c-1.7,0-3.3,1.2-3.3,4
		C533,101.1,534,103.1,536.1,103.1z"/>
	<path class="st0" d="M544,89.7c0-0.5,0.2-0.7,0.7-0.7h0.7c0.5,0,0.7,0.2,0.7,0.7v11.7c0,1.3,0.6,1.4,1,1.5c0.3,0,0.6,0.2,0.6,0.6
		v0.5c0,0.5-0.2,0.8-0.8,0.8c-1.2,0-3-0.3-3-3.2V89.7z"/>
	<path class="st0" d="M554.8,93.1c3.1,0,4.9,2.2,4.9,5.4c0,0.4-0.3,0.8-0.8,0.8h-7.5c0.1,2.5,1.9,3.8,3.9,3.8c1.2,0,2.2-0.5,2.7-0.9
		c0.4-0.2,0.8-0.2,1,0.2l0.2,0.3c0.2,0.4,0.2,0.8-0.2,1c-0.7,0.5-2,1.2-3.8,1.2c-3.5,0-6-2.6-6-5.9
		C549.2,95.4,551.6,93.1,554.8,93.1z M557.5,97.8c-0.1-2-1.2-3-2.7-3c-1.7,0-3,1.1-3.3,3H557.5z"/>
	<path class="st0" d="M561.4,102.7l0.2-0.3c0.3-0.4,0.6-0.4,1-0.2c0.5,0.3,1.4,0.9,2.8,0.9c1.1,0,1.9-0.5,1.9-1.5
		c0-2.2-5.8-1.5-5.8-5.3c0-2.1,1.9-3.3,4.1-3.3c1.6,0,2.6,0.5,3.1,0.9c0.4,0.2,0.5,0.6,0.2,1l-0.2,0.3c-0.2,0.4-0.6,0.4-1,0.2
		c-0.5-0.3-1.2-0.6-2.3-0.6s-1.9,0.5-1.9,1.4c0,2.3,5.8,1.4,5.8,5.3c0,1.9-1.6,3.3-4.1,3.3c-1.9,0-3.2-0.8-3.8-1.2
		C561.2,103.5,561.2,103.1,561.4,102.7z"/>
</g>
<g>
	<path class="st0" d="M2.2,128.5c0-0.5,0.2-0.7,0.7-0.7h0.7c0.5,0,0.7,0.2,0.7,0.7v6.2h8.2v-6.2c0-0.5,0.3-0.7,0.7-0.7H14
		c0.5,0,0.7,0.2,0.7,0.7v14.3c0,0.5-0.2,0.7-0.7,0.7h-0.7c-0.5,0-0.7-0.2-0.7-0.7v-6.2H4.3v6.2c0,0.5-0.2,0.7-0.7,0.7H2.9
		c-0.5,0-0.7-0.2-0.7-0.7V128.5z"/>
	<path class="st0" d="M17.8,142.3c0-5.6,7.7-6.4,7.7-10.1c0-1.6-1.2-2.6-2.8-2.6c-1.4,0-2.4,0.9-2.8,1.4c-0.3,0.3-0.7,0.5-1,0.2
		l-0.4-0.3c-0.4-0.3-0.5-0.6-0.2-1c0.6-0.8,2.1-2.4,4.6-2.4c2.9,0,5,1.8,5,4.5c0,5.2-7.5,6-7.6,9.6h7.1c0.5,0,0.7,0.2,0.7,0.7v0.4
		c0,0.5-0.3,0.7-0.7,0.7h-8.7c-0.4,0-0.8-0.2-0.8-0.7V142.3z"/>
	<path class="st0" d="M38.3,127.5c4.7,0,8.1,3.5,8.1,8c0,4.6-3.4,8.2-8.1,8.2s-8.1-3.6-8.1-8.2C30.2,131,33.6,127.5,38.3,127.5z
		 M38.3,141.8c3.3,0,5.8-2.7,5.8-6.2c0-3.4-2.5-6-5.8-6s-5.8,2.6-5.8,6C32.5,139.1,34.9,141.8,38.3,141.8z"/>
</g>
<line class="st1" x1="35.5" y1="312.3" x2="244.2" y2="312.3"/>
<line class="st1" x1="283.7" y1="296.3" x2="493.1" y2="296.3"/>
<circle class="st2" cx="244.1" cy="312.8" r="7"/>
<circle class="st2" cx="284" cy="296.5" r="7"/>
<g>
	<line class="st1" x1="348.8" y1="116.1" x2="524.2" y2="116.1"/>
	<circle class="st2" cx="346.4" cy="116.3" r="7"/>
</g>
<g>
	<line class="st1" x1="176.4" y1="155.8" x2="1" y2="155.8"/>
	<circle class="st2" cx="178.8" cy="155.5" r="7"/>
</g>
</svg>
