<?xml version="1.0" encoding="utf-8"?>
<!-- Generator: Adobe Illustrator 21.0.2, SVG Export Plug-In . SVG Version: 6.00 Build 0)  -->
<svg version="1.1" id="Layer_1" xmlns="http://www.w3.org/2000/svg" xmlns:xlink="http://www.w3.org/1999/xlink" x="0px" y="0px"
	 viewBox="0 0 1092.9 730.1" style="enable-background:new 0 0 1092.9 730.1;" xml:space="preserve">
<style type="text/css">
	.st0{fill:#1788C7;stroke:#095284;stroke-width:2;stroke-miterlimit:10;}
	.st1{fill:#FFFFFF;}
	.st2{fill:#FFFFFF;stroke:#095284;stroke-width:2;stroke-miterlimit:10;}
	.st3{fill:none;stroke:#095284;stroke-width:2;stroke-miterlimit:10;}
	.st4{fill:#F7D93E;}
	.st5{fill:none;stroke:#095284;stroke-width:2;stroke-linecap:round;stroke-miterlimit:10;}
	.st6{fill:none;stroke:#F7D93E;stroke-miterlimit:10;}
	.st7{fill:none;stroke:#095284;stroke-width:2;stroke-linecap:round;stroke-linejoin:round;stroke-miterlimit:10;}
	.st8{fill:#FFFFFF;stroke:#095284;stroke-width:2;stroke-linecap:round;stroke-linejoin:round;stroke-miterlimit:10;}
	.st9{fill:#40B4E5;}
	.st10{fill:#F7D93E;stroke:#095284;stroke-width:2;stroke-linecap:round;stroke-linejoin:round;stroke-miterlimit:10;}
	.st11{fill:#095284;}
	.st12{fill:#0071CE;}
	.st13{fill:#0071CE;stroke:#095284;stroke-width:2;stroke-linecap:round;stroke-linejoin:round;stroke-miterlimit:10;}
	.st14{fill:#095284;stroke:#095284;stroke-width:2;stroke-linecap:round;stroke-linejoin:round;stroke-miterlimit:10;}
</style>
<path class="st0" d="M809.9,364c0,0,164.5-69.8,274.7,25.1c27,23.3-28.6,111.6-46.6,145.3c-20.6,38.4-37.2,79.2-68.9,160.2h-73.8
	L809.9,364z"/>
<polygon class="st1" points="326.6,610.1 366,713.4 381.3,718.4 619,678.7 337.3,606.4 "/>
<line class="st2" x1="346" y1="608.8" x2="619.6" y2="678.6"/>
<line class="st3" x1="469.2" y1="680.9" x2="337.3" y2="643.8"/>
<line class="st3" x1="443.8" y1="684.6" x2="341.8" y2="655.1"/>
<line class="st3" x1="418.8" y1="688.6" x2="348.3" y2="669.1"/>
<line class="st3" x1="392.9" y1="692.1" x2="353.8" y2="683.4"/>
<polyline class="st3" points="357.5,694.7 365.6,696.4 487.8,678.1 489,677.7 330.6,631.1 "/>
<path class="st2" d="M376.9,729L93.5,694.8c-2.7-0.3-4.9-2.5-5.2-5.2L87,678.7l289.9,34.5"/>
<path class="st2" d="M376.9,729v-15.8L619,678.7v13.1c0,2.6-1.9,4.8-4.5,5.2L376.9,729z"/>
<path class="st4" d="M712.1,169.6c0,0-26.1-11.4-32.1,0.2s-36.3,68.4-36.3,88.9l3.3,15.4c0,0,22.3,34,32.1,42.8
	c0,0,49.4-21.9,59.6-48l18.6-37.7l-6.5-3.7c0,0-37.2-45.2-39.6-49.8S712.1,169.6,712.1,169.6"/>
<path class="st5" d="M643.7,269.9c0,0,25.3,37.1,31.2,42.4"/>
<polyline class="st5" points="754.5,229.9 749.4,225.7 718.6,188.4 "/>
<path class="st6" d="M403.8,590.1"/>
<path class="st6" d="M386.2,565.2"/>
<path class="st4" d="M425.3,521.5c-5.8-6-11.5-11.9-17.3-17.9c0-0.2-0.1-0.3-0.1-0.5c-1.2-4.1-2.4-8.2-3.7-12.3
	c-0.6-2.1-2.4-3.8-4.6-3.9c-7.1-11.9-17.3-21.9-29.6-28.8c-0.2-0.1-0.5-0.2-0.7-0.3c-9.2-10.6-18.3-21.1-27.5-31.7
	c-0.6-4-6.4-6.7-9-2.3c-6.9,11.8,0.5,23.6,9.3,31.8c4.9,4.6,9.7,9,12.7,15.1c1.7,3.5,2.7,7.1,3.1,10.9c-0.4,0.1-0.9,0.2-1.3,0.3
	c-1,0.2-1.9,0.8-2.6,1.5c-5.7,0.1-11.3,2.5-15.2,6.9c-0.4,0.5-0.7,1-1,1.5c-5.1,1.1-10.3,2.3-15.4,3.4c-2.4,0.5-4,1.8-5.1,3.3
	c-3.9,4.1-3,12.3,3.3,14.1c0.4,0.6,0.8,1.3,1.2,2c-0.6,0.3-1.3,0.6-1.9,1.1c-8.5,6.3-8.1,18-3.4,26.5c2.9,5.4,7,10.2,11.8,14
	c-1.5,3.1-1.6,6.8,0.3,10.2c1.6,3,4.5,5.3,7.6,7.3c0.5-0.2,1.1-0.2,1.6,0.4c0.1,0.1,0.3,0.3,0.4,0.4c0.3-0.3,0.8-0.5,1.4-0.2
	c2.3,1.1,4.5,2.3,6.8,3.4c0.1,0.1,0.2,0.1,0.3,0.2c0.9,0.2,1.9,0.3,2.8,0.4c0.1,0,0.1,0,0.2,0c0.4-0.1,0.8-0.3,1.2-0.5
	c0.3,0,0.6-0.1,0.9-0.1c2.7-0.5,5.4-0.9,8.1-1.4c2.1-0.4,4-1.8,5.2-3.6c2.6-0.9,5.2-2,7.7-3.1c1.9,0.5,4,0.4,5.7-0.7
	c2.7-1.7,5.3-3.3,8-5c4.2,2.7,8.4,5.4,12.6,8c1.2,0.8,2.6,1.2,4,1.3c1.2,0.7,2.4,1.4,3.6,2.1c2,2.6,7.2,3,9.1-1.1
	c7.1-15.3,13.6-30.4,14.8-48C431,522.7,428.2,521.1,425.3,521.5z"/>
<path class="st7" d="M356.8,510.2c0,0-8.6-2.1-16.8-1.7"/>
<path class="st7" d="M343.8,498c0,0,4.6,7.6,5.2,11.1"/>
<path class="st7" d="M320.5,514.5c0,0-18.4,15.1-0.4,21.3c6.7,5.4,18.7,11.5,18.7,11.5s5.1,2.6,12.4,0.1s17.1-6.5,17.1-6.5
	s6.1-4.9,1.9-12.9c-3-3.8-6.5-2.2-6.5-2.2"/>
<path class="st7" d="M320.1,535.8c0,0-5.6,9.1,2.9,15.8c8.5,6.7,19.4,12.2,19.4,12.2s3.7,2.3,12.4-0.3s17.2-10.1,17.2-10.1
	s2.6-4,1.7-9c-1-4.9-5.5-3.6-5.5-3.6"/>
<path class="st7" d="M327.8,555.3c0,0-2.7,9.7,2.1,13.4s18.3,10.8,22.1,9.6c3.8-1.3,16.8-5.1,18.4-7.7c1.6-2.6,3.9-7.3-1.1-14.5"/>
<path class="st7" d="M395.8,557.1c0,0-2.9,3.3-9.8,8.2c-4.1,3-10,4.7-15.6,5.2"/>
<path class="st7" d="M424.7,519l5.7-0.2l27.6,18.1c0,0,9.9,16.1,3.1,39.2c-6.8,23.2-25.8,32.7-25.8,32.7l-45.5-28.7
	c0,0-5.4-2.3-3.3-14.6l26.5,12.1"/>
<path class="st7" d="M387,574c0,0,17.6,17.7,28.1,0.7c16.1-26,16-50.1,16-50.1c-8.4-4.6-23.1-21.9-23.1-21.9
	c-2.9-16.5-25.7-38.1-34.4-43.4c-8.8-5.2-25.8-27.5-25.8-27.5c-16-21.2-17.8-0.5-17.8-0.5s-3.3,11.5,19,31.7
	c5.2,4.4,8.3,10.6,8.8,12.3c0.4,1.8-0.7,6.4-0.7,6.4s-8.1,1.1-19.4,9.8c0,0-24.7,3.3-22.7,14.3c2.8,6.6,18.1,22.5,22.1,23.8
	s24-1.9,26.8-3.8s1.7-8.6-3.9-20.8c-4.1-4.4-8.3,4-8.3,4"/>
<path class="st7" d="M426.2,603.6l14.3,31.3c0,0,16.2,9.2,31.1,10.5s50.8,16.9,50.8,16.9"/>
<path class="st7" d="M452.5,533.3l28.9,7.9c0,0,25.7,22.5,30.6,32.9"/>
<path class="st7" d="M489.7,548.4l39.2,6.3c0,0,10.6,24.1,16.1,25.9c5.4,1.8-10.4-22.2-10.4-22.2"/>
<path class="st7" d="M529.7,557.9c0,0,1.3-9.7,8-13.7c0,0,4.2-58.4,9.6-97.1l-4-5.3l6-6c0,0-8.5-64.2,24.1-90.4"/>
<path class="st1" d="M565,391.2c0,0-4,22.7,1.9,59.4c3.3,20.2,13,25.1,14.7,39.1c0,0-1.4,14.7-3.7,25.4c-2.3,10.7-12.1,24-12.1,24
	l0.7,12.8l-3,10c0,0-4.2,3.4-6.3,12.6c-1.7,7.8-2.5,21.4-2.8,42.6l-9,56.1l29.9,3.8l63.3,11.2l4.2,5.1h250.5
	c0,0,31.8-114.4,33.1-172.7s-3.1-131.6-6.8-149c-1.6-7.6-7.7-18.4-12.4-30.4c-6.1-15.4-11-31.5-11-31.5l-63.8-26.1l-43.1-28.7
	c0,0-118,68.6-118,52.1l-24.2-32.7l-7.4,5.7l-0.3,15.8l-49.4,38.8L573.4,345L565,391.2z"/>
<line class="st8" x1="671.8" y1="306.2" x2="669.3" y2="315.5"/>
<line class="st8" x1="665.6" y1="312.7" x2="668" y2="319"/>
<path class="st9" d="M684.9,345.2c-0.2-0.6-0.8-1.1-1.4-1.3c-0.3-4.2-1.6-8.4-4.5-12.2c-7-9.3-20.2-10.1-27.1-0.5
	c-1.5,2.1-1,4.4,0.5,6.1c-0.7,2.9-1.2,6-1.7,8.9c-0.9,4.8-2.8,10.2-2.7,15.1c-0.2,0.7-0.3,1.5-0.3,2.3c-0.8,0.3-1.3,1.4-0.8,2.2
	c0.3,0.5,0.7,0.9,1.2,1.3c0.2,0.2,0.4,0.3,0.6,0.4c0.1,0.1,0.1,0.2,0.2,0.3c0.2,0.3,0.4,0.5,0.6,0.7c-1.5,4.6-3,9.2-4.5,13.9
	c-0.1,0.4-0.2,0.9-0.1,1.2c-0.5,0.2-1,0.5-1.4,1c-1.3,2-2.4,4.1-3.5,6.2c-0.6,0.1-1.2,0.5-1.5,1.2c-2.5,5.6-5.3,13-5.1,19.7
	c-0.4,2.5-0.6,5-0.7,7.5c-0.9,5.7-1.9,11.3-2.8,17c-0.3,0.3-0.5,0.7-0.6,1.3c-0.4,2.3-0.7,4.6-1.1,6.9c0,0.1-0.1,0.1-0.1,0.1
	c-5.1,14.5-9.1,29.2-12,44.2c-0.9,0.5-1.6,1.3-1.7,2.5c-0.7,6.9-1.5,13.9-2.2,20.8c-0.6,3.5-1,7.1-1.4,10.7c0,0,0,0.1,0,0.1
	c-1.3,8.2-2.7,16.4-4,24.5c-0.4,0.1-0.7,0.3-0.9,0.8c-0.7,2.8-1.4,5.6-2,8.5c-0.4,0.5-0.6,1.2-0.7,1.9c-0.6,4.7-1.1,9.4-1.7,14.2
	c-0.6,0.5-1,1.2-1.2,2.1c-1.3,8.9-2.6,17.8-3.9,26.6c-0.1,0.5-0.1,0.9,0,1.4c0,0.1,0,0.1,0,0.2c0,0.4,0,0.7,0,1.1
	c-0.1,0.7-0.2,1.4-0.3,2.2c-0.2,0.3-0.3,0.7-0.3,1.1c-0.1,0.2-0.2,0.4-0.2,0.6c-0.1,0.9-0.1,1.8-0.2,2.7c0,0.7,0.6,1.3,1.3,1.3
	c7.2-0.3,14.3-0.3,21.5-0.7c1.2-0.1,2.8-0.2,4.1-0.7c0.7,0.3,1.5,0.2,2.1-0.4c1.3-1.1,2.5-2.2,3.7-3.3c0.6-0.6,1.3-1.1,1.9-1.7
	c0.2-0.2,0.4-0.3,0.6-0.5c1.4,1.5,3.6-0.4,3.3-2.1c-0.2-1.3-0.4-2.7-0.7-4c0-0.1,0.1-0.2,0.1-0.3c0.5-1.3,0.2-2.5-0.4-3.3
	c0.6-11.9,1-23.8,1.5-35.8c0-0.5-0.1-0.8-0.4-1.1c0.9-9.7,1.8-19.4,2.5-29.1c0.1-1-0.2-1.8-0.8-2.4c0.5-5.3,1-10.6,1.5-15.9
	c0-0.3,0-0.5,0-0.7c0.1-0.2,0.1-0.5,0.1-0.8c0.8-9.7,1.9-19.3,3.7-28.7c0.1,2.9,0.3,5.8,0.4,8.6c0,0.4,0.1,0.7,0.2,1.1
	c0.9,17.1,3.5,34,7.6,50.6c1,16.8,5.9,31.3,9.7,47.4c1.4,5.8,3.4,16.1,8,21.5c0,0,0,0,0,0.1c0,0,0,0.1,0,0.1c0,0.1,0,0.3,0,0.4
	c0.1,0.4,0.2,0.8,0.3,1.1c0.2,0.6,0.9,0.8,1.4,0.6c0.5,0.3,1.1,0.4,1.6,0.3c1.8,0.8,3.9,1,6.3,0.3c1,0.4,2.4,0.4,3.4,0.6
	c1.3,0.2,2.2-1.4,1.9-2.5c-0.4-1.4-0.7-3.4-1.9-4.5c-1-4.9-2.1-9.8-3.1-14.7c-0.7-6.7-1.4-13.4-2.1-20.1c0,0,0,0,0,0
	c0-3.5-0.2-7.1-0.3-10.7c0-1-0.4-1.8-0.9-2.4c-1.5-16-3.1-32-4.4-48c0-0.6-0.2-1.1-0.4-1.5c-0.3-5-0.8-10-1.1-14.9
	c-0.7-12,0.5-26.6-3.1-38.3c0.9-15.9-0.9-32,0.6-48.1c0.1-0.7-0.1-1.2-0.5-1.6c3.4-10.3,6.1-20.7,8.1-31.4c0.1-0.5,0.1-0.9-0.1-1.3
	c1.3-0.5,2.3-1.6,2.9-3.1l0.2-0.4c0.2-0.3,0.4-0.6,0.6-1c2.8-5.6,5.5-12,6.5-18.3c0.1-0.1,0.2-0.1,0.3-0.2c0.7-0.5,1-1.2,1.3-2.1
	C685,347.4,685.3,346.1,684.9,345.2z"/>
<polyline class="st7" points="639.5,279.8 646.9,274.1 671.2,308.4 "/>
<path class="st7" d="M638.6,295.5c0,0-42.8,35.9-48.9,39.1c-6.1,3.3-14.9,8.4-16.3,10.7"/>
<path class="st7" d="M790.3,255.5c-2.8-2.3,41.9,27.9,41.9,27.9l63.8,26.1c0,0,6.1,12.6,8.4,24.2c2.3,11.6,14.4,27,14,31.7"/>
<path class="st7" d="M772.7,476.6c0,0,6.5,46.6,14.9,69.8"/>
<path class="st7" d="M572.8,411.6c2.5,17.6,4.7,35.3,6.7,53c1.4,11.9,2.6,23.9,1.2,35.7c-1.5,12.4-6,24.5-13,34.9
	c-0.8,1.2-1.7,2.4-2,3.9c-0.3,1.4,0.1,2.8,0.3,4.2c1.1,6.7-0.2,13.8-3.6,19.7c-1.5,2.6-3.4,4.9-4.5,7.7c-1.3,3.2-1.5,6.6-1.7,10
	c-0.7,11.9-1.4,23.9-2.1,35.8c0,0-3.8,35.6-8.8,49.1"/>
<path class="st7" d="M651.6,333.7c-0.5,7.4-1.5,14.8-2.9,22.1c-0.7,3.3-1.4,6.5-1.8,9.9c0,0.5-0.1,1.1,0.2,1.5
	c0.2,0.4,0.6,0.7,1,0.9c3.2,1.8,6.8,2.7,10.5,2.6c2.3,0,4.7-0.5,6.9,0.2c3.1,0.9,5.7,4,8.9,3.2c4.5-8.2,7.6-15.8,10.1-24.8"/>
<path class="st7" d="M655.4,327.8c3-3.1,7.7-4.2,11.9-3.5c4.2,0.7,8.1,3,11.2,6"/>
<path class="st7" d="M682.6,354.2c-5.9,2.2-21.5,7.9-30,14.7"/>
<path class="st7" d="M673,374.9c-2.8,26.2-15.8,49-24.2,74c-5.3,15.7-8.7,31.9-10.3,48.4c-0.5,5.5-0.8,11.1-1.1,16.6
	c-0.8,14.7-1.6,29.4-2.4,44.1c-0.5,9.3-1,18.7-1.5,28c-0.3,6.2-0.7,12.4,0.7,18.4"/>
<path class="st7" d="M648.8,368.8c-1.9,5.6-3.4,10.7-4.5,16.6"/>
<path class="st7" d="M657.3,370.6c-5.1,5.8-10.2,11.7-15.3,17.5c-1.7,1.9-3.4,3.9-4.7,6.1c-2.7,4.6-3.3,9.2-3.9,14.5l0.1,0
	c-2.5,17-5,34-9.7,50.5c-3.2,11.4-7.5,22.6-9.8,34.2c-1.6,7.9-2.2,15.9-3.2,23.9c-3.9,31.5-13.3,62.3-15.9,93.9"/>
<path class="st7" d="M666.2,403.1c-2.6,34.6,0.5,69.4,3.5,103.9c1.5,16.8,3,33.6,4.5,50.4c1.7,19,3.4,38.1,8.6,56.4"/>
<path class="st7" d="M643,470.2c-2.5,9.4-1.7,19.4-0.7,29.1c4,38.1,12.3,75.7,24.7,112"/>
<path class="st7" d="M659,453.8c-4.7,29.6-7.3,60.1-9.8,89.8"/>
<path class="st8" d="M744.3,213.1c0.4,1.6,0.4,3.5-0.2,5.7c-0.8,2.7-2.5,5.8-5.4,9.2c-3.9,4.7-66.9,78.2-66.9,78.2l18,58.4
	c0,0,75.7-77.6,86.9-88.2c11.2-10.6,14.3-24.8,14.3-24.8s-34.1-37.9-38.5-41c-4.3-3.1-18-3.6-18-3.6l9.6,12.6"/>
<polyline class="st7" points="639.5,279.8 639.8,352.8 667.4,308.1 "/>
<path class="st4" d="M572.2,669.2c0.2-0.1,0.4-0.2,0.7-0.3c1.7-0.4,3.2-1,4.7-2c0.6-0.4,1.2-0.5,1.9-0.3c0.1-0.2,0.1-0.4,0.2-0.7
	c0.1-0.7,0.2-1.5,0.4-2.2c0,0,0,0,0,0c0.6-3.4,1.2-6.9,1.7-10.3c0.2-1,0.1-1.9-0.2-2.8c0-0.5,0-1-0.1-1.6l-1.7-9.7
	c-0.4-4.1-1.2-8.2-2.2-12.4c-0.7-2.5-2.4-3.7-4.2-4c-0.6-2.4-2.6-4.4-5.4-4.6c-27.2-1.6-53.8,0.8-80.6,5.2c-3.3,0.3-6.7,0.6-10,0.9
	c-4.8,0.3-9.6,0.6-14.3,1.1c-4.5-2.9-11.5,2.1-7.9,7.3c0.3,0.4,0.5,0.8,0.8,1.2c0.4,1.1,1,2.2,2.1,2.9c26.6,35.6,72.7,48.4,114,32.2
	C572,669.2,572.1,669.2,572.2,669.2z"/>
<path class="st7" d="M458.7,625c35.8-1.5,71.4-9.1,107.2-7.6"/>
<path class="st7" d="M492.1,666.3c5.9,3.1,8.2,4.3,12.4,5.2c13.6,2.9,27.5,5.7,41.4,4.5c11.6-1,22.8-4.9,33.7-9"/>
<path class="st4" d="M496.1,658.7c-6-5.7-13.3-11.4-21.2-11.4c0.1-0.8,0-1.7-0.5-2.4c-1.1-2-2.4-4.1-3.8-6.1c0-1.9-1-3.6-3.3-4.3
	c-3.2-3.8-6.8-7-11.1-9c-0.6-0.3-1.2-0.4-1.8-0.5c-0.3-0.1-0.6-0.2-0.9-0.2c-8.9-0.3-17.8-0.6-26.6-1.1c-1.3-0.5-2.8-0.5-4.5-0.1
	c-0.9,0.2-1.6,0.8-2,1.5c-19-3.7-37,16.8-43.9,32.8c-0.4,0.8-0.4,1.6-0.1,2.3c-1.7,2.4-3.3,4.8-4.8,7.4c0,0.4-0.1,0.9-0.3,1.2
	c-0.6,1.2-1.1,2.4-1.7,3.6c0,0.5,0,1-0.2,1.5c-0.2,0.8-0.6,1.5-0.9,2.2c-0.1,0.3-0.2,0.5-0.4,0.8c0.2-0.5,0.1-0.1,0,0.1
	c0.1,0.5,0.2,1,0.5,1.5c-0.2,0.5-0.2,1.1-0.2,1.6c0.3,0.2,0.6,0.6,0.8,1c0.1,0.2,0.1,0.2,0.1,0.3c0,0,0.1,0.1,0.1,0.1
	c0,0,0.1,0.1,0.2,0.2c0.3,0.2,0.7,0.4,0.9,0.5c0.9,0.3,2.2,0.5,2.7,0.6c1,0.1,1.9,0.6,2.4,1.3c0.3,0,0.6,0,0.9-0.1
	c4-0.8,7.8-2,11.4-3.6c0,1.9,0.9,3.8,2.9,5.1c4.4,2.8,10.9,0.8,16.4-1.9c0.8,0.1,1.6,0,2.5-0.4c9.6-4.7,15.9-13.2,23.7-20.2
	c8.7-7.7,19.2-11.7,30.4-12.1c-3.8,2.7-6.8,6.5-9.6,10.2c-5.8,7.6-11.7,15.1-17.7,22.6c-2.8,1.2-2.2,5.1,0.5,6.2
	c8.5,3.2,16.4-0.8,22.8-6.5c10.8-9.5,20.6-16.6,34.9-19.7C497,663.3,497.7,660.3,496.1,658.7z"/>
<path class="st7" d="M419.9,624.8c-3.4-0.9-7.2-1.8-10.5-0.6c-1.1,0.4-2.1,1-3.1,1.6c-8.4,5.2-16.1,11.5-22.8,18.8
	c-0.9,1-1.9,2.1-2.6,3.2c-1,1.5-1.6,3.1-2.3,4.7c-3,7.2-6,14.4-9,21.7"/>
<path class="st7" d="M375.3,676.9c1.2-0.1,1.8,1.8,3,2c0.7,0.2,1.4-0.4,2-0.9c1.2-1.1,2.3-2.2,3.2-3.5c0.8-1.1,1.6-2.5,1.1-3.7"/>
<path class="st7" d="M374.5,684c4.1,1,10.2-0.3,13.6-2.8"/>
<path class="st7" d="M458.8,624.9c-9.8-0.3-19.3-1.1-29.1-1.4c-2.1-0.1-4.3-0.1-6.4,0.4c-2.8,0.7-5.2,2.4-7.5,4.1
	c-7.2,5.2-14.2,10.8-21,16.5c-2.4,2.1-4.8,4.2-6.7,6.7c-1.8,2.5-3,5.4-4.4,8.1c-3.1,6.3-7.1,12.1-11.1,17.9"/>
<path class="st7" d="M390.8,681.2c1.8,1.4,4.4,1.7,6.4,0.7c0.9-0.4,1.6-1.1,2.4-1.7c0.9-0.8,1.9-1.6,2.3-2.8s0.2-2.6-0.8-3.3"/>
<path class="st7" d="M438.3,686c1.7,0.3,3.5,0.6,5.3,0.3c1.8-0.3,3.5-1.2,4.4-2.6c1-1.5,0.9-3.7-0.3-4.9"/>
<path class="st7" d="M473.4,628.6c-7.9,1.7-16,2.1-24,1.3c-2.5-0.3-5.1-0.7-7.5,0.1c-1.8,0.5-3.3,1.6-4.8,2.7
	c-18.2,13.3-34.5,29.2-48.3,47.1c-1,1.3-2,3-1.2,4.4c0.4,0.8,1.3,1.2,2.2,1.6c6.3,2.3,13.5,1.2,19.5-1.8c6-3,11.1-7.6,15.7-12.4
	c4.3-4.5,8.5-9.3,13.8-12.6c7.5-4.7,16.6-5.8,25.4-6.9"/>
<path class="st7" d="M497,642c-8.6,0.3-17.6,0.6-25.1,4.8c-3.7,2-6.8,4.9-9.8,7.8c-9.5,9.1-18.4,18.8-26.6,29.1
	c-0.6,0.8-1.2,1.6-1.4,2.6c-0.5,2.6,2.3,4.7,4.9,5.3c6.6,1.5,13.5-1.5,18.8-5.6c5.4-4.1,9.9-9.3,15.4-13.2c6.8-4.9,15-7.7,23.4-8"/>
<path class="st3" d="M373.1,676.7c-1.2,1.2-2.4,2.9-1.9,4.6c0.4,1.4,1.8,2.1,3.1,2.7"/>
<path class="st3" d="M369.9,674.1c-1,0.9-1.3,2.3-1.4,3.7c-0.1,0.8-0.1,1.6,0.2,2.3c0.3,0.7,1.9,2.1,2.6,2.1"/>
<path class="st1" d="M802.1,391.3c0,0,48.4-89.4,111.1-33.5c0,0,9.3,5.6,11.8,50.3c2.5,44.7,6.8,28.6,2.2,98.7s0,0,0,0
	s3.4,20.5,1.9,41.9s-2.5,48.7-4,58.7c-1.6,9.9-14.9,59.3-22,68.3c-7.1,9,0,0,0,0l-7.8,16.8l-261.7,3.4l-2.5-8.7c0,0-23-5-29.5-5
	s-27.8-2.5-27.8-2.5l-3.6-5.6l8.4-1.9c0,0,5-13.3,2.8-27.3s-8.1-23.9-12.1-26.4c-4-2.5-6.5-1.6-6.5-1.6l5.6-5c0,0,34.1-0.3,40.4-0.3
	h12.4c0,0,7.1-6.2,9.9-6.8s18.3,6.8,21.1,10.9c0,0,11.5-4,19.2-3.1c7.8,0.9,23.3,2.8,23.3,2.8l56.8-7.8c0,0,5.9-10.9,22-10.2
	c0,0,4.7-6.2,9-9l1.6-19.2l8.4-2.5c0,0,8.1-41.9-4.3-82.9l-6.8-19.2l14.3-59.6L802.1,391.3z"/>
<path class="st7" d="M895,693c0,0,16.1-29.8,24.8-61.5s8.1-69.5,9.9-90c1.9-20.5-2.5-34.8-2.5-34.8c7.4-75.7-8.7-142.2-8.7-142.2"/>
<line class="st7" x1="631.1" y1="687.1" x2="633.4" y2="696.4"/>
<path class="st7" d="M569.7,671.5l4.2,8.1c0,0,42.8,3.3,51.7,6.1c8.8,2.8,17.7,2.3,17.7,2.3"/>
<path class="st7" d="M566.9,616.8c0,0,22.6,15.6,10,57.5"/>
<path class="st7" d="M562.7,616.8l4.7-3.7l2-0.1l49.1-1.3l3.1-0.1c0,0,2.8-1.2,6.8-5.6c4.9-5.3,25.1,9.8,25.1,9.8
	c8.4-6.1,39.1-0.9,39.1-0.9s6.5,0.6,24.2-2.3c24-4,35.4-5.1,35.4-5.1c4-7.3,15.4-8.8,15.4-8.8c24.4-6.2,37.7,7.9,37.7,7.9"/>
<path class="st7" d="M629.6,612c0,0,22.9,21.4,21.1,50.6c-1.4,22.7-10.7,28.7-10.7,28.7"/>
<path class="st7" d="M829,598.6c0,0-31.2-13.5-40.5-12.1c-9.3,1.4-14.4,10.2-14.4,10.2"/>
<path class="st7" d="M795.3,406.2l-13.7,58.4c0,0,14.3,38.5,13.7,64.6c-0.6,26.1-0.8,33.1-2.6,37.4l-8.4,3.3l-1.9,18.6"/>
<g>
	<path class="st10" d="M669.8,254.5c10.2-9.3,26.5-34.5,27-38.2c0.5-3.7,0.5-26.1-5.6-41c0,0,3.6-0.9,5.8-8.4s0.2-14.4,0-21.4
		s-5.3-33.1-17.4-30.7c-12.1,2.3-13,21.9-13,21.9l-10.7-13.5l-17.7-16.3l-32.6-30.3l-86.1,21.9l9.3,75.4c0,0,7.4,11.2,12.1,14.9
		s-1.9,17.7,14,29.8v16.8c0,0,7.4,7.4,15.8,4.7l4.7,7.9l18.2,22.8"/>
	<path class="st7" d="M544.1,176.5c0,0,5.6,3,9.7,14.9c2.9,8.4,0.9,27.3,0.9,27.3"/>
	<path class="st7" d="M575.6,237c0,0,3.7-4.7,10.9-5c7.1-0.3,5.6-13.3,5.6-13.3s-1.9-5.6-10.9-4.3"/>
	<path class="st7" d="M682.6,121.5c0,0-8,2.8-8.1,19.2c0,6.8,3.7,9.3,3.7,9.3s11.5-1.9,4,11.6c0,0-1.2,6.4,5,3
		c6.2-3.4,4-14.9,4-14.9"/>
</g>
<path class="st10" d="M575.2,248l18.2,22.8c0,0-0.5,16.8,6.1,19.6c6.5,2.8,19.1,4.2,29.3-2.3c10.2-6.5,30.7-24.2,41-33.5"/>
<path class="st10" d="M583.6,259.7c0,0-2.1,9.5,6.8,10.2c6.2,0.5,10.5-4.6,16.3-6.8"/>
<path class="st10" d="M575.2,248l0.9,1.2v6.1c0,0,2.7,4.3,7.4,4.3c3.4,0,6.2-5.6,16.5-6.5s13.3-1.4,13.3-1.4"/>
<path class="st10" d="M575.2,248l18.2,22.8c0,0-0.5,16.8,6.1,19.6c6.5,2.8,19.1,4.2,29.3-2.3c10.2-6.5,30.7-24.2,41-33.5"/>
<path class="st10" d="M583.6,259.7c0,0-2.1,9.5,6.8,10.2c6.2,0.5,10.5-4.6,16.3-6.8"/>
<path class="st10" d="M575.2,248l0.9,1.2v6.1c0,0,2.7,4.3,7.4,4.3c3.4,0,6.1-4.8,16.1-7.1c12.1-2.8,19.9-9,19.9-9"/>
<path class="st7" d="M617.8,242.7c1.5,0.1,3,0.2,4.5,0.2"/>
<path class="st11" d="M557.9,161.3c0,0,2.2,8.1,9,6.8s14.3-17.4,23.3-20.8c9-3.4,20.5-9.6,20.5-9.6s0.3-3.4-7.4-3.4
	c-7.8,0-21.7,3.7-27.9,8.7C569.1,147.9,557.9,161.3,557.9,161.3z"/>
<ellipse transform="matrix(0.8918 -0.4524 0.4524 0.8918 -13.1668 286.6354)" class="st11" cx="592.7" cy="170.8" rx="4.5" ry="4.3"/>
<ellipse transform="matrix(0.8918 -0.4524 0.4524 0.8918 -26.4911 269.3645)" class="st11" cx="549.9" cy="190.1" rx="2.6" ry="3.8"/>
<polygon class="st12" points="525.1,178.9 533.2,181.8 529.5,176.8 527.7,174.2 524.7,149.8 518.4,153.1 518.3,160.5 517.7,171.2 
	519.8,174.7 "/>
<path class="st13" d="M515,156.3c10.6-10.6,9.3-5.6,25.2-14.6c15.9-9,23.9-33.8,32.2-50.3c8.4-16.5,27.3-11.2,27.3-11.2l3.4-2.8v3.1
	c0,0,18.3,25.8,22.7,31s18,5.6,22.3,10.2c4.3,4.7,6.8,34.8,10.2,37.6s9-3.7,9-3.7l-0.9-18.9c0,0-2.1-11.9,6.4-18.1
	s12.7-2.5,18.1,4.3c5.4,6.8,5.5,18.1,6.9,31.7s-3.3,17.6-3.3,17.6c1.9,6.4,29.6,43.6,26.3,37.6c-3.3-6.1-7-20.7-7-20.7
	s14.9,10.4,9.8,5.1c-5.1-5.3-11.6-24.7-11.6-24.7S704.2,68.8,690.2,45s-39.6-21.9-39.6-21.9s-20.5-23.9-44.4-22
	c-23.9,1.9-49,5.3-95.9,49.4s-28.9,77-28.9,77"/>
<path class="st7" d="M636.4,41.5c0,0-25.1,13.3-33.2,36"/>
<path class="st7" d="M517.4,169.6c0,0,0.1,2.6,2.8,5.5c1.3,1.4,3.2,3,6,4.3c2.2,1.1,5,2,8.4,2.7"/>
<path class="st13" d="M518.4,153.1c0,0,0.6,11-2.5,23.4c-3.1,12.4,2.5,22.3,2.5,22.3c-14.6-8.4-22-29.2-22-29.2
	c-35.1-32.6,4-84.4,4-84.4"/>
<path class="st11" d="M537.1,170c0,0,5,3.1,5.3,7.4c0.5,6.5-5,2.2-7.1,4c-2.2,1.9-6.8-4.3-5.3-9.9C531.5,165.9,537.1,170,537.1,170z
	"/>
<path class="st7" d="M582.5,178.5c0,0-0.5-3.7,0.2-7c0.3-1.6,4-3.8,10.7-4.3c4.2-0.4,8-1.3,10.9-2.4"/>
<path class="st7" d="M578.5,173.8c0-0.9,0.1-8.3,17.8-9.2"/>
<path class="st7" d="M551.5,188.5c0,0-6.3-4-9.1,1.9c-0.6,1.3-1.7,1.9-1.7,1.9"/>
<path class="st7" d="M548.7,183.6c0,0-4.5-0.5-8.5,3.6"/>
<line class="st14" x1="543.2" y1="190.3" x2="543.8" y2="193.6"/>
<path class="st2" d="M371.8,713.2c6.4,0.8,14-4.7,10.7-14.4l-82.2-202.1c-2.7-6.6-8.7-11.3-15.8-12.3L16.5,446
	c-7.8-1.7-17.4,1.4-15.2,13.2"/>
<path class="st2" d="M1.8,461l74.7,205.1c2.6,7.1,9,12.2,16.5,13.1l276,34c6.4,0.8,11.3-5.6,8.8-11.6l-83.2-201.3
	c-2.7-6.6-8.7-11.3-15.8-12.3L10.9,449.8C4.6,448.9-0.4,455,1.8,461z"/>
<path class="st4" d="M240.9,727.9c-0.2,0-0.2,0.3,0,0.3C241.1,728.2,241.1,727.9,240.9,727.9z"/>
</svg>
