<?xml version="1.0" encoding="utf-8"?>
<!-- Generator: Adobe Illustrator 21.0.2, SVG Export Plug-In . SVG Version: 6.00 Build 0)  -->
<svg version="1.1" id="Layer_1" xmlns="http://www.w3.org/2000/svg" xmlns:xlink="http://www.w3.org/1999/xlink" x="0px" y="0px"
	 viewBox="0 0 843 678" style="enable-background:new 0 0 843 678;" xml:space="preserve">
<style type="text/css">
	.st0{fill:#FFFFFF;stroke:#095280;stroke-width:4;stroke-miterlimit:10;}
	.st1{fill:#40B4E5;}
	.st2{fill:#FFFFFF;}
	.st3{fill:#FFFFFF;stroke:#095280;stroke-width:4;stroke-linecap:round;stroke-miterlimit:10;}
	.st4{fill:none;stroke:#095280;stroke-width:5;stroke-miterlimit:10;}
	.st5{enable-background:new    ;}
	.st6{fill:#949696;}
	.st7{fill:none;stroke:#095280;stroke-width:3;stroke-miterlimit:10;}
	.st8{fill:#1B89C7;stroke:#095280;stroke-width:2;stroke-miterlimit:10;}
	.st9{fill:#1B89C7;stroke:#095280;stroke-width:3;stroke-miterlimit:10;}
	.st10{fill:#FBC100;}
	.st11{fill:#FBD000;}
</style>
<g>
	<g>
		<ellipse class="st0" cx="390.2" cy="40.6" rx="243.5" ry="38.6"/>
		<path class="st0" d="M633.3,41.1l-79,596.4c0,21.3-73.2,38.6-163.6,38.6s-163.6-17.3-163.6-38.6L146.3,41.1"/>
	</g>
	<path class="st1" d="M595.6,188.1l-52.4,397c0,21.3-68.3,38.6-152.5,38.6S238.2,606.3,238.2,585l-52.4-397"/>
	<ellipse class="st1" cx="390.7" cy="188.1" rx="204.9" ry="38.6"/>
	<g>
		
			<ellipse transform="matrix(0.9941 -0.1089 0.1089 0.9941 -46.2344 35.5328)" class="st2" cx="302.2" cy="441.1" rx="7.3" ry="7.3"/>
		
			<ellipse transform="matrix(0.9941 -0.1089 0.1089 0.9941 -31.0955 55.0487)" class="st2" cx="488.5" cy="312.2" rx="7.3" ry="7.3"/>
		
			<ellipse transform="matrix(0.9941 -0.1089 0.1089 0.9941 -35.5484 51.6021)" class="st2" cx="454.7" cy="351.3" rx="7.3" ry="7.3"/>
		<ellipse transform="matrix(0.9941 -0.1089 0.1089 0.9941 -33.9547 36.2997)" class="st2" cx="315.4" cy="329" rx="7.3" ry="7.3"/>
		
			<ellipse transform="matrix(0.9941 -0.1089 0.1089 0.9941 -38.9114 40.906)" class="st2" cx="355.1" cy="376.7" rx="7.3" ry="7.3"/>
		<ellipse transform="matrix(0.9941 -0.1089 0.1089 0.9941 -19.4377 52.0792)" class="st2" cx="467.1" cy="204" rx="7.3" ry="7.3"/>
		
			<ellipse transform="matrix(0.9941 -0.1089 0.1089 0.9941 -38.314 36.7587)" class="st2" cx="317.4" cy="369.2" rx="7.3" ry="7.3"/>
		
			<ellipse transform="matrix(0.9941 -0.1089 0.1089 0.9941 -30.325 51.3304)" class="st2" cx="454.8" cy="303.3" rx="7.3" ry="7.3"/>
		
			<ellipse transform="matrix(0.9941 -0.1089 0.1089 0.9941 -48.6343 34.0839)" class="st2" cx="287.8" cy="462.3" rx="6.2" ry="6.2"/>
		
			<ellipse transform="matrix(0.9941 -0.1089 0.1089 0.9941 -39.7903 44.5085)" class="st2" cx="387.6" cy="386.6" rx="6.2" ry="6.2"/>
		
			<ellipse transform="matrix(0.9941 -0.1089 0.1089 0.9941 -28.0827 49.5389)" class="st2" cx="439.5" cy="281.9" rx="6.2" ry="6.2"/>
		<g>
			
				<ellipse transform="matrix(0.9941 -0.1089 0.1089 0.9941 -28.79 52.0963)" class="st2" cx="462.6" cy="289.6" rx="4.3" ry="4.3"/>
		</g>
		<g>
			
				<ellipse transform="matrix(0.9941 -0.1089 0.1089 0.9941 -36.0718 53.746)" class="st2" cx="474.1" cy="357.1" rx="4.9" ry="4.9"/>
		</g>
		<g>
			
				<ellipse transform="matrix(0.6259 -0.7799 0.7799 0.6259 -104.3748 471.6807)" class="st2" cx="439.5" cy="344.6" rx="3.9" ry="3.9"/>
		</g>
		<g>
			<ellipse transform="matrix(0.6259 -0.7799 0.7799 0.6259 -91.9563 487.4622)" class="st2" cx="462.1" cy="339.6" rx="3" ry="3"/>
		</g>
		<g>
			<ellipse transform="matrix(0.6259 -0.7799 0.7799 0.6259 -93.5082 467.9133)" class="st2" cx="441" cy="331.4" rx="3" ry="3"/>
		</g>
		<g>
			<ellipse transform="matrix(0.6259 -0.7799 0.7799 0.6259 -67.2174 483.6336)" class="st2" cx="470.5" cy="311.9" rx="3" ry="3"/>
		</g>
		<g>
			<ellipse transform="matrix(0.6259 -0.7799 0.7799 0.6259 -103.5873 514.773)" class="st2" cx="484.8" cy="365.4" rx="3" ry="3"/>
		</g>
		<g>
			
				<ellipse transform="matrix(0.9941 -0.1089 0.1089 0.9941 -32.5757 53.8748)" class="st2" cx="477" cy="325.2" rx="5.8" ry="5.8"/>
		</g>
		<g>
			
				<ellipse transform="matrix(0.9941 -0.1089 0.1089 0.9941 -34.1413 53.9467)" class="st2" cx="476.9" cy="339.6" rx="5.8" ry="5.8"/>
		</g>
		<g>
			
				<ellipse transform="matrix(0.7194 -0.6946 0.6946 0.7194 -207.3311 347.6796)" class="st2" cx="326.7" cy="430.5" rx="5.5" ry="5.5"/>
		</g>
		<g>
			
				<ellipse transform="matrix(0.7194 -0.6946 0.6946 0.7194 -214.5685 320.2868)" class="st2" cx="289.1" cy="425.7" rx="5.5" ry="5.5"/>
		</g>
		<g>
			
				<ellipse transform="matrix(0.7194 -0.6946 0.6946 0.7194 -231.4228 345.7524)" class="st2" cx="312.2" cy="459.3" rx="4.3" ry="4.3"/>
		</g>
		<g>
			
				<ellipse transform="matrix(0.7194 -0.6946 0.6946 0.7194 -113.0341 301.058)" class="st2" cx="316.1" cy="290.4" rx="4.3" ry="4.3"/>
		</g>
		<g>
			
				<ellipse transform="matrix(0.7194 -0.6946 0.6946 0.7194 -198.0526 356.4444)" class="st2" cx="342.1" cy="423.4" rx="4.3" ry="4.3"/>
		</g>
		<g>
			
				<ellipse transform="matrix(0.7194 -0.6946 0.6946 0.7194 -47.456 385.6299)" class="st2" cx="453.6" cy="251.6" rx="4.3" ry="4.3"/>
		</g>
		<g>
			
				<ellipse transform="matrix(0.7194 -0.6946 0.6946 0.7194 -109.3084 364.5779)" class="st2" cx="396.6" cy="317.6" rx="4.3" ry="4.3"/>
		</g>
		<g>
			
				<ellipse transform="matrix(0.7194 -0.6946 0.6946 0.7194 -72.411 442.5802)" class="st2" cx="511.6" cy="310.9" rx="4.3" ry="4.3"/>
		</g>
		<g>
			
				<ellipse transform="matrix(0.7194 -0.6946 0.6946 0.7194 -181.7186 318.2458)" class="st2" cx="303" cy="384" rx="4.3" ry="4.3"/>
		</g>
		<g>
			
				<ellipse transform="matrix(0.7194 -0.6946 0.6946 0.7194 -165.992 337.5994)" class="st2" cx="334.8" cy="374.2" rx="4.3" ry="4.3"/>
		</g>
		<g>
			
				<ellipse transform="matrix(0.7194 -0.6946 0.6946 0.7194 -139.6396 371.1046)" class="st2" cx="389.5" cy="358.4" rx="4.3" ry="4.3"/>
		</g>
		<g>
			
				<ellipse transform="matrix(0.7194 -0.6946 0.6946 0.7194 -72.2893 372.4585)" class="st2" cx="424.8" cy="275.7" rx="4.3" ry="4.3"/>
		</g>
		<g>
			
				<ellipse transform="matrix(0.7194 -0.6946 0.6946 0.7194 -151.8691 317.248)" class="st2" cx="316.7" cy="346.6" rx="4.9" ry="4.9"/>
		</g>
		<g>
			
				<ellipse transform="matrix(0.7194 -0.6946 0.6946 0.7194 -216.2735 392.0474)" class="st2" cx="377.1" cy="463.7" rx="4.9" ry="4.9"/>
		</g>
		<g>
			
				<ellipse transform="matrix(0.7194 -0.6946 0.6946 0.7194 -118.8362 448.117)" class="st2" cx="495.2" cy="371.1" rx="4.9" ry="4.9"/>
		</g>
		<g>
			
				<ellipse transform="matrix(0.7194 -0.6946 0.6946 0.7194 -121.254 317.8366)" class="st2" cx="332.8" cy="309" rx="4.9" ry="4.9"/>
		</g>
		<g>
			
				<ellipse transform="matrix(1.747679e-02 -0.9998 0.9998 1.747679e-02 -62.6525 756.2169)" class="st2" cx="353.4" cy="410" rx="3.9" ry="3.9"/>
		</g>
		<g>
			
				<ellipse transform="matrix(1.747679e-02 -0.9998 0.9998 1.747679e-02 121.4335 889.7939)" class="st2" cx="513.5" cy="383.1" rx="3.9" ry="3.9"/>
		</g>
		<g>
			
				<ellipse transform="matrix(1.747679e-02 -0.9998 0.9998 1.747679e-02 -65.7916 698.8018)" class="st2" cx="322.7" cy="382.9" rx="3" ry="3"/>
		</g>
		<g>
			
				<ellipse transform="matrix(1.747679e-02 -0.9998 0.9998 1.747679e-02 15.626 680.1361)" class="st2" cx="353.9" cy="332.1" rx="3" ry="3"/>
		</g>
		<g>
			
				<ellipse transform="matrix(1.747679e-02 -0.9998 0.9998 1.747679e-02 131.5719 737.6761)" class="st2" cx="441.1" cy="301.9" rx="3" ry="3"/>
		</g>
		<g>
			
				<ellipse transform="matrix(1.747679e-02 -0.9998 0.9998 1.747679e-02 35.0873 767.9129)" class="st2" cx="408.3" cy="366.1" rx="3" ry="3"/>
		</g>
		<g>
			
				<ellipse transform="matrix(1.747679e-02 -0.9998 0.9998 1.747679e-02 75.0265 789.4431)" class="st2" cx="439.2" cy="356.5" rx="3" ry="3"/>
		</g>
		<g>
			
				<ellipse transform="matrix(1.747679e-02 -0.9998 0.9998 1.747679e-02 -40.7624 755.1762)" class="st2" cx="363.9" cy="398.3" rx="3" ry="3"/>
		</g>
		<g>
			
				<ellipse transform="matrix(1.747679e-02 -0.9998 0.9998 1.747679e-02 -109.5248 708.5764)" class="st2" cx="305.8" cy="410" rx="3" ry="3"/>
		</g>
		<g>
			
				<ellipse transform="matrix(1.747679e-02 -0.9998 0.9998 1.747679e-02 -92.3315 665.4555)" class="st2" cx="292.4" cy="379.7" rx="3" ry="3"/>
		</g>
		<g>
			
				<ellipse transform="matrix(1.747679e-02 -0.9998 0.9998 1.747679e-02 163.4439 661.4219)" class="st2" cx="418.3" cy="247.5" rx="3" ry="3"/>
		</g>
		<g>
			
				<ellipse transform="matrix(1.747679e-02 -0.9998 0.9998 1.747679e-02 250.3555 625.6028)" class="st2" cx="443.5" cy="185.4" rx="3" ry="3"/>
		</g>
		<g>
			
				<ellipse transform="matrix(1.747679e-02 -0.9998 0.9998 1.747679e-02 225.0607 732.6311)" class="st2" cx="485.3" cy="251.8" rx="3" ry="3"/>
		</g>
		<g>
			
				<ellipse transform="matrix(1.747679e-02 -0.9998 0.9998 1.747679e-02 -76.003 734.6984)" class="st2" cx="335.8" cy="406" rx="3" ry="3"/>
		</g>
		<g>
			
				<ellipse transform="matrix(1.747679e-02 -0.9998 0.9998 1.747679e-02 169.3322 764.9351)" class="st2" cx="473.9" cy="296.3" rx="3" ry="3"/>
		</g>
		<g>
			
				<ellipse transform="matrix(1.747679e-02 -0.9998 0.9998 1.747679e-02 -83.0486 857.7184)" class="st2" cx="394.9" cy="471.1" rx="3" ry="3"/>
		</g>
		<g>
			
				<ellipse transform="matrix(1.747679e-02 -0.9998 0.9998 1.747679e-02 251.3783 645.2151)" class="st2" cx="454" cy="194.7" rx="3" ry="3"/>
		</g>
		<g>
			
				<ellipse transform="matrix(1.747679e-02 -0.9998 0.9998 1.747679e-02 204.2262 771.2424)" class="st2" cx="494.5" cy="281.7" rx="3" ry="3"/>
		</g>
		<g>
			
				<ellipse transform="matrix(1.747679e-02 -0.9998 0.9998 1.747679e-02 215.8108 694.4385)" class="st2" cx="461.2" cy="237.4" rx="3" ry="3"/>
		</g>
		<g>
			
				<ellipse transform="matrix(1.747679e-02 -0.9998 0.9998 1.747679e-02 16.2831 762.9934)" class="st2" cx="396.4" cy="373.2" rx="3" ry="3"/>
		</g>
		<g>
			
				<ellipse transform="matrix(1.747679e-02 -0.9998 0.9998 1.747679e-02 189.8226 683.2568)" class="st2" cx="442.6" cy="245" rx="3" ry="3"/>
		</g>
		<g>
			
				<ellipse transform="matrix(1.747679e-02 -0.9998 0.9998 1.747679e-02 -213.2585 762.9211)" class="st2" cx="281.6" cy="490" rx="3" ry="3"/>
		</g>
		<g>
			
				<ellipse transform="matrix(1.747679e-02 -0.9998 0.9998 1.747679e-02 102.9801 781.8111)" class="st2" cx="449.3" cy="338.5" rx="3" ry="3"/>
		</g>
		<g>
			
				<ellipse transform="matrix(1.747679e-02 -0.9998 0.9998 1.747679e-02 235.093 706.4574)" class="st2" cx="477" cy="233.6" rx="3" ry="3"/>
		</g>
		<g>
			
				<ellipse transform="matrix(1.747679e-02 -0.9998 0.9998 1.747679e-02 164.0938 852.8074)" class="st2" cx="516" cy="342.9" rx="3" ry="3"/>
		</g>
		<g>
			
				<ellipse transform="matrix(1.747679e-02 -0.9998 0.9998 1.747679e-02 48.7966 592.8683)" class="st2" cx="326.1" cy="271.6" rx="3" ry="3"/>
		</g>
		<g>
			
				<ellipse transform="matrix(1.747679e-02 -0.9998 0.9998 1.747679e-02 141.6884 857.9681)" class="st2" cx="507.4" cy="356.9" rx="3" ry="3"/>
		</g>
		<g>
			
				<ellipse transform="matrix(1.747679e-02 -0.9998 0.9998 1.747679e-02 -108.9311 771.6606)" class="st2" cx="338.2" cy="441.3" rx="3" ry="3"/>
		</g>
		<g>
			
				<ellipse transform="matrix(1.747679e-02 -0.9998 0.9998 1.747679e-02 -124.0183 790.262)" class="st2" cx="340.1" cy="458.2" rx="3" ry="3"/>
		</g>
		<g>
			
				<ellipse transform="matrix(1.747679e-02 -0.9998 0.9998 1.747679e-02 -174.5547 766.0845)" class="st2" cx="302.5" cy="471.9" rx="3" ry="3"/>
		</g>
		<g>
			
				<ellipse transform="matrix(1.747679e-02 -0.9998 0.9998 1.747679e-02 -157.3788 718.9566)" class="st2" cx="287.1" cy="439.6" rx="3" ry="3"/>
		</g>
		<g>
			
				<ellipse transform="matrix(1.747679e-02 -0.9998 0.9998 1.747679e-02 278.2194 581.9677)" class="st2" cx="435.2" cy="149.4" rx="3" ry="3"/>
		</g>
		<g>
			
				<ellipse transform="matrix(1.747679e-02 -0.9998 0.9998 1.747679e-02 24.9294 652.7035)" class="st2" cx="344.6" cy="313.7" rx="3" ry="3"/>
		</g>
		<g>
			
				<ellipse transform="matrix(1.747679e-02 -0.9998 0.9998 1.747679e-02 85.0671 550.8904)" class="st2" cx="322.8" cy="232.2" rx="3" ry="3"/>
		</g>
		<g>
			
				<ellipse transform="matrix(1.747679e-02 -0.9998 0.9998 1.747679e-02 85.2273 601.9904)" class="st2" cx="348.9" cy="257.6" rx="3" ry="3"/>
		</g>
		<g>
			
				<ellipse transform="matrix(1.747679e-02 -0.9998 0.9998 1.747679e-02 5.6445 606.3966)" class="st2" cx="311.4" cy="300.3" rx="3" ry="3"/>
		</g>
		<g>
			
				<ellipse transform="matrix(1.747679e-02 -0.9998 0.9998 1.747679e-02 68.8839 726.3255)" class="st2" cx="404" cy="328.1" rx="3" ry="3"/>
		</g>
		<g>
			
				<ellipse transform="matrix(1.747679e-02 -0.9998 0.9998 1.747679e-02 222.2643 643.3756)" class="st2" cx="438.5" cy="208.6" rx="3" ry="3"/>
		</g>
		<g>
			
				<ellipse transform="matrix(1.747679e-02 -0.9998 0.9998 1.747679e-02 41.1812 749.625)" class="st2" cx="402" cy="353.9" rx="3" ry="3"/>
		</g>
		<g>
			
				<ellipse transform="matrix(1.747679e-02 -0.9998 0.9998 1.747679e-02 99.9147 742.8278)" class="st2" cx="427.9" cy="320.6" rx="4.4" ry="4.4"/>
		</g>
		<g>
			
				<ellipse transform="matrix(1.747679e-02 -0.9998 0.9998 1.747679e-02 -65.7698 802.0535)" class="st2" cx="375.2" cy="434.5" rx="4.1" ry="4.1"/>
		</g>
		<g>
			
				<ellipse transform="matrix(1.747679e-02 -0.9998 0.9998 1.747679e-02 145.6727 817.0959)" class="st2" cx="488.6" cy="334.4" rx="4.1" ry="4.1"/>
		</g>
		<g>
			
				<ellipse transform="matrix(0.7194 -0.6946 0.6946 0.7194 -110.6197 325.2954)" class="st2" cx="347.3" cy="299.6" rx="5.8" ry="5.8"/>
		</g>
		<g>
			
				<ellipse transform="matrix(0.7194 -0.6946 0.6946 0.7194 -96.6282 376.6948)" class="st2" cx="417.9" cy="307.9" rx="5.8" ry="5.8"/>
		</g>
		<g>
			
				<ellipse transform="matrix(0.7194 -0.6946 0.6946 0.7194 -34.0673 372.4097)" class="st2" cx="443.9" cy="228.4" rx="5.8" ry="5.8"/>
		</g>
		<g>
			<path class="st2" d="M351.3,431c-1.4-1.4-2.1-3.3-2.1-5.4c0.1-2,0.9-4,2.4-5.4c1.4-1.4,3.3-2.1,5.4-2.1c2,0.1,4,0.9,5.4,2.4
				c1.4,1.4,2.1,3.3,2.1,5.4c-0.1,2-0.9,4-2.4,5.4c-1.5,1.4-3.3,2.1-5.3,2.1C354.9,433.3,352.9,432.6,351.3,431z M354,422.8
				c-0.8,0.8-1.2,1.7-1.2,2.8c-0.1,1,0.3,2,1.1,2.8c1.6,1.6,4.1,1.6,5.7,0.1c0.8-0.8,1.2-1.7,1.2-2.8c0.1-1-0.3-2-1.1-2.8l0,0
				c-0.8-0.8-1.7-1.2-2.9-1.2c0.1,0,0,0,0,0C355.9,421.7,354.8,422.2,354,422.8z"/>
		</g>
		<g>
			<path class="st2" d="M389.4,342c-2-0.1-4-0.9-5.4-2.4c-1.4-1.4-2.1-3.3-2.1-5.4c0.1-2,0.9-4,2.4-5.4c1.4-1.4,3.4-2.1,5.4-2.1
				c2,0.1,4,0.9,5.4,2.4c1.4,1.4,2.1,3.3,2.1,5.4c-0.1,2-0.9,4-2.4,5.4c-1.4,1.4-3.3,2.1-5.3,2.1C389.4,342,389.4,342,389.4,342z
				 M386.8,331.5c-0.8,0.8-1.2,1.7-1.2,2.8c-0.1,1,0.3,2,1.1,2.8c0.8,0.8,1.7,1.2,2.8,1.2c1.1,0,2-0.3,2.8-1.1
				c0.8-0.8,1.2-1.7,1.2-2.8c0.1-1-0.3-2-1.1-2.8l0,0c-0.8-0.8-1.7-1.2-2.9-1.2l0,0C388.4,330.4,387.4,330.7,386.8,331.5z"/>
		</g>
		<g>
			<path class="st2" d="M445.4,171.9c-1.4-1.4-2.1-3.3-2.1-5.4c0.1-2,0.9-4,2.4-5.4c3-2.9,7.8-2.8,10.7,0.2l0,0
				c2.9,3,2.8,7.8-0.2,10.7c-1.5,1.4-3.3,2.1-5.3,2.1S446.9,173.5,445.4,171.9z M453.7,163.9c-1.5-1.6-4.1-1.6-5.7,0
				c-0.8,0.8-1.2,1.7-1.2,2.8c-0.1,1,0.3,2,1.1,2.8c1.6,1.6,4.1,1.6,5.7,0.1C455.2,168,455.2,165.5,453.7,163.9L453.7,163.9z"/>
		</g>
		<g>
			<path class="st2" d="M457.1,330.2c-2-0.1-4-0.9-5.4-2.4c-1.4-1.4-2.1-3.3-2.1-5.4c0.1-2,0.9-4,2.4-5.4c1.4-1.4,3.4-2.1,5.4-2.1
				c2,0.1,4,0.9,5.4,2.4c1.4,1.4,2.1,3.3,2.1,5.4c-0.1,2-0.9,4-2.4,5.4c-1.4,1.4-3.3,2.1-5.3,2.1
				C457.2,330.2,457.2,330.2,457.1,330.2z M454.5,319.6c-0.8,0.8-1.2,1.7-1.2,2.8c-0.1,1,0.3,2,1.1,2.8c0.8,0.8,1.7,1.2,2.8,1.2
				c1.1,0,2-0.3,2.8-1.1c0.8-0.8,1.2-1.7,1.2-2.8c0.1-1-0.3-2-1.1-2.8l0,0c-0.8-0.8-1.7-1.2-2.9-1.2c0.1,0,0.1,0,0,0
				C456.2,318.6,455.3,319,454.5,319.6z"/>
		</g>
		<path class="st2" d="M348.8,452c0-5.9,4.8-10.7,10.7-10.7c5.9,0,10.7,4.8,10.7,10.7s-4.8,10.7-10.7,10.7
			C353.6,462.7,348.8,457.9,348.8,452z M353.4,452c0,3.3,2.7,6.1,6.1,6.1c3.3,0,6.1-2.7,6.1-6.1c0-3.3-2.7-6.1-6.1-6.1
			C356.1,445.9,353.3,448.6,353.4,452z"/>
		<path class="st2" d="M408.8,351.3c0-5.9,4.8-10.7,10.7-10.7c5.9,0,10.7,4.8,10.7,10.7c0,5.9-4.8,10.7-10.7,10.7
			C413.6,362,408.8,357.3,408.8,351.3z M413.4,351.3c0,3.3,2.8,6.1,6.1,6.1c3.3,0,6.1-2.7,6.1-6.1c0-3.3-2.7-6.1-6.1-6.1
			C416.2,345.2,413.4,348,413.4,351.3z"/>
		<path class="st2" d="M311.4,403c0-4.7,3.8-8.5,8.5-8.5s8.5,3.8,8.5,8.5s-3.8,8.5-8.5,8.5C315.3,411.5,311.4,407.6,311.4,403z
			 M314.9,403c0,2.8,2.3,4.9,4.9,4.9c2.8,0,4.9-2.3,4.9-4.9c0-2.8-2.3-4.9-4.9-4.9S315,400.3,314.9,403z"/>
		<path class="st2" d="M480,351.4c0-4.7,3.8-8.5,8.5-8.5s8.5,3.8,8.5,8.5s-3.8,8.5-8.5,8.5C483.8,359.9,480,356,480,351.4z
			 M483.5,351.4c0,2.8,2.3,4.9,4.9,4.9c2.8,0,4.9-2.3,4.9-4.9c0-2.8-2.3-4.9-4.9-4.9S483.6,348.6,483.5,351.4z"/>
		<path class="st2" d="M316.1,450.3c0-4.7,3.8-8.5,8.5-8.5s8.5,3.8,8.5,8.5s-3.8,8.5-8.5,8.5C320,458.8,316.1,454.9,316.1,450.3z
			 M319.7,450.3c0,2.8,2.3,4.9,4.9,4.9c2.8,0,4.9-2.1,4.9-4.9s-2.3-4.9-4.9-4.9C321.9,445.4,319.7,447.5,319.7,450.3z"/>
		<path class="st2" d="M463.2,268.9c0-6.9,5.6-12.3,12.3-12.3c6.9,0,12.3,5.5,12.3,12.3c0,6.9-5.6,12.3-12.3,12.3
			C468.7,281.3,463.2,275.8,463.2,268.9z M467.8,268.9c0,4.3,3.4,7.7,7.7,7.7c4.3,0,7.7-3.4,7.7-7.7c0-4.3-3.4-7.7-7.7-7.7
			C471.3,261.2,467.7,264.8,467.8,268.9z"/>
		<path class="st2" d="M327.2,348.5c0-4.7,3.8-8.5,8.5-8.5c4.7,0,8.5,3.8,8.5,8.5s-3.8,8.5-8.5,8.5
			C331.1,357,327.2,353.3,327.2,348.5z M330.8,348.6c0,2.8,2.3,4.9,4.9,4.9c2.8,0,4.9-2.3,4.9-4.9c0-2.8-2.3-4.9-4.9-4.9
			S330.9,345.8,330.8,348.6z"/>
		<path class="st2" d="M422.9,260c0-4.7,3.8-8.5,8.5-8.5s8.5,3.8,8.5,8.5s-3.8,8.5-8.5,8.5C426.7,268.5,422.9,264.7,422.9,260z
			 M426.4,260.1c0,2.8,2.3,4.9,4.9,4.9c2.8,0,4.9-2.3,4.9-4.9c0-2.8-2.3-4.9-4.9-4.9S426.5,257.3,426.4,260.1z"/>
		<g>
			<circle class="st0" cx="341.9" cy="523.5" r="62.4"/>
			<path class="st3" d="M289.1,523.5c0,29.2,23.7,52.8,52.8,52.8"/>
		</g>
		<g>
			<circle class="st0" cx="448.5" cy="420.8" r="62.4"/>
			<path class="st3" d="M397.1,421.2c0,29.2,23.7,52.8,52.8,52.8"/>
		</g>
	</g>
	<g>
		<ellipse class="st4" cx="390.2" cy="40.6" rx="243.5" ry="38.6"/>
		<path class="st4" d="M633.3,41.1l-79,596.4c0,21.3-73.2,38.6-163.6,38.6s-163.6-17.3-163.6-38.6L146.3,41.1"/>
	</g>
	<path class="st4" d="M595.6,188.1l-52.4,397c0,21.3-68.3,38.6-152.5,38.6S238.2,606.3,238.2,585l-52.4-397"/>
	<ellipse class="st4" cx="390.7" cy="188.1" rx="204.9" ry="38.6"/>
</g>
<g>
	<g class="st5">
		<path class="st6" d="M41.5,482.2c3.9,0,6.6,1.5,7.9,2.4c0.7,0.5,0.7,1.2,0.3,2l-0.6,1c-0.5,0.8-1.1,0.8-1.9,0.3
			c-1.1-0.7-3-1.7-5.4-1.7c-5.3,0-8.1,3.8-8.1,8.3s2.9,8.6,8.1,8.6c2.7,0,4.8-1.3,5.9-2.1c0.7-0.5,1.4-0.5,2,0.2l0.7,0.9
			c0.5,0.7,0.5,1.4-0.2,2c-1.4,1.1-4.2,3-8.5,3c-7.6,0-12.5-5.5-12.5-12.6C29.1,487.5,34.2,482.2,41.5,482.2z"/>
		<path class="st6" d="M62.5,496h0.7v-0.4c0-2.3-1.5-3.1-3.2-3.1c-1.5,0-2.8,0.5-3.6,1c-0.9,0.4-1.5,0.2-1.9-0.6l-0.3-0.6
			c-0.4-0.8-0.3-1.5,0.5-1.9c1.1-0.6,3.1-1.4,5.7-1.4c4.5,0,7.2,2.5,7.2,6.9v9.4c0,1-0.5,1.4-1.4,1.4H65c-0.9,0-1.4-0.5-1.4-1.4
			v-0.7c0-0.5,0.1-0.7,0.1-0.7h-0.2c0,0-1.6,3.3-5.4,3.3c-3.2,0-5.7-2-5.7-5.2C52.4,496.8,58.6,496,62.5,496z M59.3,503.8
			c2.4,0,4-2.4,4-4.6v-0.6h-0.8c-2.2,0-5.9,0.3-5.9,2.9C56.6,502.7,57.5,503.8,59.3,503.8z"/>
		<path class="st6" d="M72.3,492.8h-0.8c-1,0-1.4-0.5-1.4-1.4v-0.6c0-0.9,0.5-1.4,1.4-1.4h0.8v-0.6c0-5.5,4.9-6.4,6.7-6.4h0.5
			c0.9,0,1.4,0.5,1.4,1.4v0.9c0,0.9-0.5,1.3-1.5,1.4c-1.1,0.1-2.8,0.3-2.8,2.8v0.4h7.2v-0.6c0-5.5,4.9-6.4,6.7-6.4H91
			c0.9,0,1.4,0.5,1.4,1.4v0.9c0,0.9-0.5,1.3-1.5,1.4c-1.1,0.1-2.8,0.3-2.8,2.8v0.4h2.3c1,0,1.4,0.5,1.4,1.4v0.6c0,1-0.4,1.4-1.2,1.4
			h-2.5v12.5c0,1-0.5,1.4-1.4,1.4h-1.5c-0.9,0-1.4-0.5-1.4-1.4v-12.5h-7.2v12.5c0,1-0.5,1.4-1.4,1.4h-1.5c-0.9,0-1.4-0.5-1.4-1.4
			C72.3,505.1,72.3,492.8,72.3,492.8z"/>
		<path class="st6" d="M101.8,489c4.9,0,7.7,3.5,7.7,8.3c0,0.7-0.6,1.5-1.5,1.5H97.4c0.3,3.1,2.6,4.8,5.2,4.8c1.6,0,2.9-0.6,3.7-1.1
			c0.8-0.4,1.5-0.3,1.9,0.5l0.4,0.7c0.4,0.8,0.3,1.5-0.5,1.9c-1.1,0.7-3.2,1.7-5.9,1.7c-5.7,0-9.3-4.1-9.3-9.1
			C93,492.7,96.6,489,101.8,489z M105.2,496.1c-0.1-2.4-1.5-3.8-3.5-3.8c-2.2,0-3.8,1.5-4.2,3.8H105.2z"/>
		<path class="st6" d="M112.6,485v-1c0-0.9,0.5-1.4,1.4-1.4h1.5c0.9,0,1.4,0.5,1.4,1.4v1c0,0.9-0.5,1.4-1.4,1.4H114
			C113.1,486.4,112.6,485.9,112.6,485z M112.6,490.8c0-0.9,0.5-1.4,1.4-1.4h1.5c0.9,0,1.4,0.5,1.4,1.4v14.5c0,1-0.5,1.4-1.4,1.4H114
			c-0.9,0-1.4-0.5-1.4-1.4V490.8z"/>
		<path class="st6" d="M121.2,490.8c0-0.9,0.5-1.4,1.4-1.4h1.3c0.9,0,1.4,0.5,1.4,1.4v1.1c0,0.4-0.1,0.8-0.1,0.8h0.1
			c0.7-1.5,2.7-3.7,6.2-3.7c3.8,0,6.1,2,6.1,6.6v9.7c0,1-0.5,1.4-1.4,1.4h-1.5c-0.9,0-1.4-0.5-1.4-1.4v-8.8c0-2.1-0.5-3.5-2.7-3.5
			c-3.1,0-5,2.5-5,5.7v6.7c0,1-0.5,1.4-1.4,1.4h-1.5c-0.9,0-1.4-0.5-1.4-1.4v-14.6L121.2,490.8L121.2,490.8z"/>
		<path class="st6" d="M149.3,489c4.9,0,7.7,3.5,7.7,8.3c0,0.7-0.6,1.5-1.5,1.5h-10.6c0.3,3.1,2.6,4.8,5.2,4.8
			c1.6,0,2.9-0.6,3.7-1.1c0.8-0.4,1.5-0.3,1.9,0.5l0.4,0.7c0.4,0.8,0.3,1.5-0.5,1.9c-1.1,0.7-3.2,1.7-5.9,1.7
			c-5.7,0-9.3-4.1-9.3-9.1C140.5,492.7,144.1,489,149.3,489z M152.7,496.1c-0.1-2.4-1.5-3.8-3.5-3.8c-2.2,0-3.8,1.5-4.2,3.8H152.7z"
			/>
	</g>
	<line class="st7" x1="30.1" y1="523.7" x2="311.4" y2="523.7"/>
	<circle class="st8" cx="311.2" cy="524.6" r="11.5"/>
</g>
<g>
	<g class="st5">
		<path class="st6" d="M599.9,446.4c0.3-0.8,0.8-1.2,1.6-1.2h2.2c0.8,0,1.4,0.4,1.6,1.2l7.5,21.3c0.3,1-0.1,1.6-1.2,1.6H610
			c-0.8,0-1.4-0.4-1.6-1.2l-1.7-5h-8.3l-1.7,5c-0.2,0.8-0.8,1.2-1.6,1.2h-1.6c-1.1,0-1.5-0.6-1.2-1.6L599.9,446.4z M605.7,459.7
			l-2.1-6.5c-0.4-1.4-1-3.7-1-3.7h-0.1c0,0-0.5,2.4-1,3.7l-2.2,6.5H605.7z"/>
		<path class="st6" d="M614.8,466.1l0.4-0.6c0.5-0.7,1.1-0.8,1.9-0.3c0.8,0.4,2.1,1.2,3.9,1.2c1.5,0,2.4-0.7,2.4-1.8
			c0-2.8-8.6-1.8-8.6-7.7c0-3.4,3-5.2,6.6-5.2c2.3,0,3.9,0.7,4.8,1.3c0.8,0.4,0.9,1.1,0.5,1.9l-0.3,0.6c-0.4,0.8-1.1,0.9-1.9,0.5
			c-0.7-0.3-1.9-0.8-3.3-0.8c-1.5,0-2.3,0.6-2.3,1.7c0,2.9,8.6,1.7,8.6,7.6c0,3.1-2.6,5.3-6.6,5.3c-2.8,0-4.7-1.1-5.8-1.8
			C614.3,467.6,614.3,466.9,614.8,466.1z"/>
		<path class="st6" d="M630.7,453.5c0-0.9,0.5-1.4,1.4-1.4h1.1c0.9,0,1.4,0.5,1.4,1.2v0.8c0,0.4,0,0.7,0,0.7h0.1
			c0,0,1.5-3.1,5.6-3.1c4.7,0,7.7,3.7,7.7,9.1c0,5.5-3.4,9.1-8,9.1c-3.6,0-5-2.7-5-2.7h-0.1c0,0,0.1,0.6,0.1,1.5v6.1
			c0,1-0.5,1.4-1.4,1.4h-1.5c-0.9,0-1.4-0.5-1.4-1.4L630.7,453.5L630.7,453.5z M639.2,466.2c2.4,0,4.4-1.9,4.4-5.4
			c0-3.3-1.8-5.4-4.3-5.4c-2.2,0-4.4,1.6-4.4,5.5C634.9,463.5,636.4,466.2,639.2,466.2z"/>
		<path class="st6" d="M651.2,447.7v-1c0-0.9,0.5-1.4,1.4-1.4h1.5c0.9,0,1.4,0.5,1.4,1.4v1c0,0.9-0.5,1.4-1.4,1.4h-1.5
			C651.7,449.1,651.2,448.6,651.2,447.7z M651.2,453.5c0-0.9,0.5-1.4,1.4-1.4h1.5c0.9,0,1.4,0.5,1.4,1.4V468c0,1-0.5,1.4-1.4,1.4
			h-1.5c-0.9,0-1.4-0.5-1.4-1.4V453.5z"/>
		<path class="st6" d="M659.8,453.5c0-0.9,0.5-1.4,1.4-1.4h1.3c0.9,0,1.4,0.5,1.4,1.4v1.6c0,0.6-0.1,1.2-0.1,1.2h0.1
			c0.7-2.1,2.6-4.4,5-4.4c1,0,1.3,0.5,1.3,1.4v1.3c0,0.9-0.5,1.4-1.5,1.4c-3.2,0-4.7,3.1-4.7,6.3v5.6c0,1-0.5,1.4-1.4,1.4h-1.5
			c-0.9,0-1.4-0.5-1.4-1.4v-14.4H659.8z"/>
		<path class="st6" d="M672.5,447.7v-1c0-0.9,0.5-1.4,1.4-1.4h1.5c0.9,0,1.4,0.5,1.4,1.4v1c0,0.9-0.5,1.4-1.4,1.4h-1.5
			C673,449.1,672.5,448.6,672.5,447.7z M672.5,453.5c0-0.9,0.5-1.4,1.4-1.4h1.5c0.9,0,1.4,0.5,1.4,1.4V468c0,1-0.5,1.4-1.4,1.4h-1.5
			c-0.9,0-1.4-0.5-1.4-1.4V453.5z"/>
		<path class="st6" d="M681.1,453.5c0-0.9,0.5-1.4,1.4-1.4h1.3c0.9,0,1.4,0.5,1.4,1.4v1.1c0,0.4-0.1,0.8-0.1,0.8h0.1
			c0.7-1.5,2.7-3.7,6.2-3.7c3.8,0,6.1,2,6.1,6.6v9.7c0,1-0.5,1.4-1.4,1.4h-1.5c-0.9,0-1.4-0.5-1.4-1.4v-8.8c0-2.1-0.5-3.5-2.7-3.5
			c-3.1,0-5,2.5-5,5.7v6.7c0,1-0.5,1.4-1.4,1.4h-1.5c-0.9,0-1.4-0.5-1.4-1.4L681.1,453.5L681.1,453.5z"/>
	</g>
	<line class="st7" x1="362" y1="486.5" x2="697.4" y2="486.5"/>
	<circle class="st8" cx="362.5" cy="486.8" r="11.5"/>
</g>
<g>
	<g>
		<line class="st7" x1="514.9" y1="198" x2="824.5" y2="198"/>
		<circle class="st9" cx="510.9" cy="198.4" r="11.5"/>
	</g>
	<g>
		<path class="st6" d="M631.7,164.4c0-0.8,0.4-1.3,1.3-1.3h10.6c0.8,0,1.3,0.5,1.3,1.3v0.9c0,0.8-0.5,1.3-1.3,1.3h-7.9v5.8h6.1
			c0.8,0,1.3,0.4,1.3,1.3v0.9c0,0.9-0.5,1.3-1.3,1.3h-6.1v5.9h8.4c0.8,0,1.3,0.4,1.3,1.3v0.9c0,0.9-0.5,1.3-1.3,1.3H633
			c-0.8,0-1.3-0.4-1.3-1.3V164.4z"/>
		<path class="st6" d="M649.1,172.4h-0.7c-0.9,0-1.3-0.4-1.3-1.3v-0.5c0-0.8,0.4-1.3,1.3-1.3h0.7v-0.5c0-5,4.4-5.8,6.1-5.8h0.4
			c0.8,0,1.3,0.4,1.3,1.3v0.8c0,0.8-0.5,1.2-1.3,1.3c-1,0.1-2.5,0.3-2.5,2.6v0.4h6.5v-0.5c0-5,4.4-5.8,6.1-5.8h0.4
			c0.8,0,1.3,0.4,1.3,1.3v0.8c0,0.8-0.5,1.2-1.3,1.3c-1,0.1-2.5,0.3-2.5,2.6v0.4h2.1c0.9,0,1.3,0.5,1.3,1.3v0.5
			c0,0.9-0.4,1.3-1.1,1.3h-2.3V184c0,0.9-0.4,1.3-1.3,1.3h-1.4c-0.8,0-1.3-0.4-1.3-1.3v-11.4h-6.5V184c0,0.9-0.4,1.3-1.3,1.3h-1.3
			c-0.8,0-1.3-0.4-1.3-1.3v-11.6H649.1z"/>
		<path class="st6" d="M675.9,168.9c4.5,0,7,3.2,7,7.5c0,0.7-0.6,1.3-1.4,1.3h-9.6c0.2,2.9,2.4,4.3,4.7,4.3c1.5,0,2.7-0.6,3.4-1
			c0.8-0.4,1.3-0.3,1.7,0.4l0.4,0.6c0.4,0.7,0.2,1.3-0.4,1.7c-1,0.7-2.9,1.6-5.4,1.6c-5.2,0-8.5-3.8-8.5-8.3
			C667.9,172.3,671.2,168.9,675.9,168.9z M679,175.4c-0.1-2.2-1.4-3.5-3.2-3.5c-2,0-3.4,1.4-3.8,3.5H679z"/>
		<path class="st6" d="M685.8,170.6c0-0.8,0.4-1.3,1.3-1.3h1.2c0.8,0,1.3,0.5,1.3,1.3v1.5c0,0.6-0.1,1.1-0.1,1.1h0.1
			c0.6-1.9,2.4-4,4.6-4c0.9,0,1.2,0.4,1.2,1.3v1.2c0,0.8-0.5,1.3-1.3,1.3c-2.9,0-4.3,2.9-4.3,5.7v5.1c0,0.9-0.4,1.3-1.3,1.3h-1.4
			c-0.8,0-1.3-0.4-1.3-1.3V170.6z"/>
		<path class="st6" d="M696,170.8c-0.3-0.9,0.1-1.5,1-1.5h1.5c0.7,0,1.2,0.3,1.5,1.1l2.9,8.7c0.3,0.9,0.6,2.4,0.6,2.4h0.1
			c0,0,0.2-1.5,0.6-2.4l2.9-8.7c0.2-0.7,0.7-1.1,1.5-1.1h1.5c1,0,1.4,0.6,1.1,1.5l-4.8,13.3c-0.2,0.7-0.7,1.1-1.5,1.1h-2.5
			c-0.7,0-1.2-0.3-1.5-1.1L696,170.8z"/>
		<path class="st6" d="M720.5,168.9c4.5,0,7,3.2,7,7.5c0,0.7-0.6,1.3-1.4,1.3h-9.6c0.2,2.9,2.4,4.3,4.7,4.3c1.5,0,2.7-0.6,3.4-1
			c0.8-0.4,1.3-0.3,1.7,0.4l0.4,0.6c0.4,0.7,0.2,1.3-0.4,1.7c-1,0.7-2.9,1.6-5.4,1.6c-5.2,0-8.5-3.8-8.5-8.3
			C712.5,172.3,715.8,168.9,720.5,168.9z M723.6,175.4c-0.1-2.2-1.4-3.5-3.2-3.5c-2,0-3.4,1.4-3.8,3.5H723.6z"/>
		<path class="st6" d="M729.7,182.1l0.4-0.6c0.5-0.7,1-0.7,1.8-0.3c0.7,0.4,1.9,1.1,3.5,1.1c1.4,0,2.2-0.6,2.2-1.6
			c0-2.6-7.8-1.6-7.8-7c0-3.1,2.7-4.7,6-4.7c2.1,0,3.6,0.7,4.4,1.1c0.7,0.4,0.8,1,0.5,1.7l-0.3,0.6c-0.4,0.7-1,0.8-1.7,0.5
			s-1.7-0.8-3-0.8c-1.4,0-2.1,0.6-2.1,1.6c0,2.6,7.8,1.6,7.8,7c0,2.8-2.4,4.9-6,4.9c-2.5,0-4.3-1-5.3-1.6
			C729.3,183.5,729.2,182.8,729.7,182.1z"/>
		<path class="st6" d="M751.8,168.9c2.5,0,4.2,0.9,5.2,1.6c0.7,0.4,0.7,1.1,0.2,1.8l-0.4,0.6c-0.5,0.7-1,0.7-1.7,0.3s-1.7-1-3.1-1
			c-2.9,0-4.8,2.2-4.8,4.9s1.9,5,4.9,5c1.6,0,2.8-0.7,3.5-1.2c0.8-0.4,1.4-0.3,1.8,0.4l0.3,0.6c0.4,0.7,0.3,1.3-0.3,1.7
			c-1,0.7-2.9,1.8-5.6,1.8c-5.2,0-8.6-3.7-8.6-8.3C743.2,172.7,746.6,168.9,751.8,168.9z"/>
		<path class="st6" d="M767.6,168.9c4.5,0,7,3.2,7,7.5c0,0.7-0.6,1.3-1.4,1.3h-9.6c0.2,2.9,2.4,4.3,4.7,4.3c1.5,0,2.7-0.6,3.4-1
			c0.8-0.4,1.3-0.3,1.7,0.4l0.4,0.6c0.4,0.7,0.2,1.3-0.4,1.7c-1,0.7-2.9,1.6-5.4,1.6c-5.2,0-8.5-3.8-8.5-8.3
			C759.5,172.3,762.8,168.9,767.6,168.9z M770.7,175.4c-0.1-2.2-1.4-3.5-3.2-3.5c-2,0-3.4,1.4-3.8,3.5H770.7z"/>
		<path class="st6" d="M777.4,170.6c0-0.8,0.4-1.3,1.3-1.3h1.2c0.8,0,1.3,0.5,1.3,1.3v1c0,0.3-0.1,0.7-0.1,0.7h0.1
			c0.7-1.3,2.4-3.3,5.6-3.3c3.5,0,5.5,1.8,5.5,6v8.9c0,0.9-0.4,1.3-1.3,1.3h-1.3c-0.8,0-1.3-0.4-1.3-1.3v-8.1c0-1.9-0.5-3.2-2.5-3.2
			c-2.8,0-4.6,2.3-4.6,5.2v6.1c0,0.9-0.4,1.3-1.3,1.3h-1.4c-0.8,0-1.3-0.4-1.3-1.3L777.4,170.6L777.4,170.6z"/>
		<path class="st6" d="M803.6,168.9c2.5,0,4.2,0.9,5.2,1.6c0.7,0.4,0.7,1.1,0.2,1.8l-0.4,0.6c-0.5,0.7-1,0.7-1.7,0.3s-1.7-1-3.1-1
			c-2.9,0-4.8,2.2-4.8,4.9s1.9,5,4.9,5c1.6,0,2.8-0.7,3.5-1.2c0.8-0.4,1.4-0.3,1.8,0.4l0.3,0.6c0.4,0.7,0.3,1.3-0.3,1.7
			c-1,0.7-2.9,1.8-5.6,1.8c-5.2,0-8.6-3.7-8.6-8.3C795,172.7,798.4,168.9,803.6,168.9z"/>
		<path class="st6" d="M819.3,168.9c4.5,0,7,3.2,7,7.5c0,0.7-0.6,1.3-1.4,1.3h-9.6c0.2,2.9,2.4,4.3,4.7,4.3c1.5,0,2.7-0.6,3.4-1
			c0.8-0.4,1.3-0.3,1.7,0.4l0.4,0.6c0.4,0.7,0.2,1.3-0.4,1.7c-1,0.7-2.9,1.6-5.4,1.6c-5.2,0-8.5-3.8-8.5-8.3
			C811.3,172.3,814.6,168.9,819.3,168.9z M822.4,175.4c-0.1-2.2-1.4-3.5-3.2-3.5c-2,0-3.4,1.4-3.8,3.5H822.4z"/>
	</g>
</g>
<g>
	<g class="st5">
		<path class="st6" d="M1.4,228.3c0-0.9,0.5-1.4,1.4-1.4h1.6c0.9,0,1.4,0.5,1.4,1.4v8.8h11v-8.8c0-0.9,0.5-1.4,1.4-1.4h1.5
			c0.9,0,1.4,0.5,1.4,1.4v21.3c0,1-0.5,1.4-1.4,1.4h-1.5c-1,0-1.4-0.5-1.4-1.4v-8.7h-11v8.7c0,1-0.5,1.4-1.4,1.4H2.8
			c-0.9,0-1.4-0.5-1.4-1.4V228.3z"/>
		<path class="st6" d="M24.8,256.9c0-5.1,6.6-5.9,6.6-8.7c0-1.2-1-2-2.1-2c-1,0-1.7,0.6-2.1,1.1c-0.4,0.4-0.8,0.5-1.2,0.2l-0.5-0.4
			c-0.4-0.3-0.5-0.7-0.2-1.1c0.6-0.8,1.9-2.1,4.2-2.1c2.5,0,4.6,1.5,4.6,4.2c0,4.5-6.3,5.3-6.4,7.9h5.8c0.6,0,0.8,0.3,0.8,0.8v0.6
			c0,0.6-0.3,0.8-0.8,0.8h-7.7c-0.5,0-0.9-0.3-0.9-0.8L24.8,256.9L24.8,256.9z"/>
		<path class="st6" d="M49,226.5c7.3,0,12.5,5.4,12.5,12.3c0,7.1-5.2,12.6-12.5,12.6s-12.5-5.5-12.5-12.6
			C36.5,231.9,41.7,226.5,49,226.5z M49,247.4c4.6,0,8-3.7,8-8.6c0-4.7-3.3-8.3-8-8.3s-8,3.6-8,8.3C41,243.7,44.4,247.4,49,247.4z"
			/>
	</g>
	<g>
		<line class="st7" x1="202.1" y1="267.1" x2="0" y2="267.1"/>
		<circle class="st9" cx="215.1" cy="266.7" r="11.5"/>
	</g>
</g>
<g>
	<g id="XMLID_2_">
		<g>
			<path class="st10" d="M681.8,514.3c14.9,21.2,20.8,46.7,16.7,72.1c-7.7,47.9-50.3,81.9-99.7,81.9c-4.1,0-8.3-0.2-12.6-0.7
				c-19-2.2-36.4-13.6-49.2-24.7c-12.8-11.1-21.1-21.8-21.7-22.7c-0.8-1-0.6-2.5,0.5-3.3L672.3,506c1-0.7,2.3-0.5,3.1,0.4l6.3,7.7
				C681.8,514.2,681.8,514.3,681.8,514.3z M694,585.8c3.9-24.2-1.7-48.6-15.9-68.6c0-0.1-0.1-0.1-0.1-0.1l-3.5-4.3
				c-0.8-0.9-2.1-1.1-3.1-0.4L522.5,618c-1.1,0.8-1.3,2.3-0.4,3.4c8.8,10.3,35.2,38.4,64.7,41.8c4,0.5,8.1,0.7,12,0.7
				C646,663.8,686.7,631.4,694,585.8z"/>
			<path class="st2" d="M678.2,517.1c14.1,20,19.7,44.4,15.9,68.6c-7.4,45.6-48,78.1-95.2,78.1c-4,0-8-0.2-12-0.7
				c-29.5-3.4-55.9-31.5-64.7-41.8c-0.9-1-0.7-2.6,0.4-3.4l148.9-105.7c1-0.7,2.3-0.5,3.1,0.4l3.5,4.3
				C678.1,517,678.1,517.1,678.2,517.1z"/>
		</g>
	</g>
	<g id="XMLID_1_">
		<g>
			<path class="st10" d="M672.1,520.6c0.8,1,20.3,25.5,15.4,64c-2.8,22.3-15.8,43.1-35.6,57.1c-14.4,10.2-32.1,15.5-51.7,15.5
				c-3.9,0-8-0.2-12-0.6c-28.9-3-55.9-34.1-57-35.5l-1.6-1.9L670.7,519L672.1,520.6z M683.2,581.7c3-29.6-9.3-50.4-13.4-56.4
				l-62.3,44.2L683.2,581.7z M682.6,586.2l-80.5-13L536.3,620c6.3,6.7,29.1,29.6,52.3,32c23.3,2.4,44.2-2.4,60.7-14
				C667.3,625.2,679.4,606.4,682.6,586.2z"/>
			<path class="st11" d="M669.8,525.3c4.1,6,16.4,26.8,13.4,56.4l-75.7-12.2L669.8,525.3z"/>
			<path class="st11" d="M602.1,573.3l80.5,13c-3.2,20.2-15.3,39-33.4,51.8c-16.4,11.6-37.4,16.5-60.7,14c-23.2-2.4-46-25.3-52.3-32
				L602.1,573.3z"/>
		</g>
	</g>
	<path class="st2" d="M633,563.2c2.3,8-13.1,3.8-13.1,3.8S630.7,555.2,633,563.2z"/>
	
		<rect x="552.7" y="610.3" transform="matrix(0.1536 -0.9881 0.9881 0.1536 -101.8152 1106.2798)" class="st10" width="84.3" height="4.6"/>
	
		<rect x="623.6" y="563.2" transform="matrix(0.8169 -0.5767 0.5767 0.8169 -234.5424 471.7653)" class="st10" width="4.6" height="84.3"/>
	<path class="st2" d="M631.9,588.1c-3.7,7.5-12.3-6-12.3-6S635.6,580.6,631.9,588.1z"/>
	<path class="st2" d="M610.6,604.7c-7.7,3.3-5.5-12.5-5.5-12.5S618.2,601.4,610.6,604.7z"/>
	<path class="st2" d="M583.1,602.5c-7.3-4,6.5-12,6.5-12S590.4,606.5,583.1,602.5z"/>
</g>
<g>
	<path class="st6" d="M705.2,606.3c0-0.6,0.3-0.9,0.9-0.9h4.2c1.5,0,2.3,0.1,3,0.4c1.6,0.7,2.6,2.2,2.6,4.3c0,1.8-1,3.6-2.6,4.3l0,0
		c0,0,0.2,0.2,0.5,0.8l2.6,4.7c0.4,0.6,0.1,1.1-0.6,1.1h-1.2c-0.5,0-0.8-0.2-1.1-0.6l-2.8-5.2H708v4.9c0,0.6-0.3,0.9-0.9,0.9h-1
		c-0.6,0-0.9-0.3-0.9-0.9V606.3z M710.6,612.7c1.5,0,2.5-0.9,2.5-2.5c0-1-0.4-1.8-1.2-2.1c-0.4-0.2-0.9-0.3-1.7-0.3h-2.1v4.9
		L710.6,612.7L710.6,612.7z"/>
	<path class="st6" d="M723.6,609.5c3.2,0,5,2.3,5,5.3c0,0.5-0.4,0.9-1,0.9h-6.8c0.2,2,1.7,3.1,3.4,3.1c1,0,1.9-0.4,2.4-0.7
		s0.9-0.2,1.2,0.3l0.3,0.4c0.3,0.5,0.2,0.9-0.3,1.2c-0.7,0.5-2,1.1-3.8,1.1c-3.7,0-6-2.7-6-5.9C717.9,612,720.3,609.5,723.6,609.5z
		 M725.8,614.1c0-1.6-1-2.5-2.3-2.5c-1.4,0-2.4,1-2.7,2.5H725.8z"/>
	<path class="st6" d="M731.4,612.2h-0.5c-0.6,0-0.9-0.3-0.9-0.9v-0.4c0-0.6,0.3-0.9,0.9-0.9h0.5v-0.5c0-3.6,3.1-4.1,4.3-4.1h0.3
		c0.6,0,0.9,0.3,0.9,0.9v0.6c0,0.6-0.3,0.9-0.9,0.9c-0.7,0-1.8,0.2-1.8,1.8v0.4h1.5c0.6,0,0.9,0.3,0.9,0.9v0.4
		c0,0.6-0.3,0.9-0.9,0.9h-1.5v7.9c0,0.6-0.3,0.9-0.9,0.9h-1c-0.6,0-0.9-0.3-0.9-0.9L731.4,612.2L731.4,612.2z"/>
	<path class="st6" d="M738.5,610.7c0-0.6,0.3-0.9,0.9-0.9h0.9c0.6,0,0.9,0.3,0.9,0.9v1.1c0,0.4-0.1,0.8-0.1,0.8l0,0
		c0.4-1.3,1.7-2.8,3.3-2.8c0.6,0,0.8,0.3,0.8,0.9v0.9c0,0.6-0.4,0.9-0.9,0.9c-2,0-3,2-3,4.1v3.6c0,0.6-0.3,0.9-0.9,0.9h-1
		c-0.6,0-0.9-0.3-0.9-0.9V610.7z"/>
	<path class="st6" d="M751.6,609.5c3.2,0,5,2.3,5,5.3c0,0.5-0.4,0.9-1,0.9h-6.8c0.2,2,1.7,3.1,3.4,3.1c1,0,1.9-0.4,2.4-0.7
		s0.9-0.2,1.2,0.3l0.3,0.4c0.3,0.5,0.2,0.9-0.3,1.2c-0.7,0.5-2,1.1-3.8,1.1c-3.7,0-6-2.7-6-5.9C745.9,612,748.3,609.5,751.6,609.5z
		 M753.8,614.1c0-1.6-1-2.5-2.3-2.5c-1.4,0-2.4,1-2.7,2.5H753.8z"/>
	<path class="st6" d="M758.4,618.9l0.3-0.4c0.3-0.5,0.7-0.5,1.3-0.2c0.5,0.3,1.4,0.8,2.5,0.8c1,0,1.6-0.4,1.6-1.1
		c0-1.8-5.6-1.1-5.6-5c0-2.2,1.9-3.4,4.3-3.4c1.5,0,2.5,0.5,3.1,0.8c0.5,0.3,0.6,0.7,0.3,1.2l-0.3,0.4c-0.3,0.5-0.7,0.6-1.2,0.4
		c-0.5-0.2-1.2-0.5-2.1-0.5c-1,0-1.5,0.4-1.5,1.1c0,1.8,5.6,1.1,5.6,5c0,2-1.7,3.5-4.3,3.5c-1.8,0-3.1-0.7-3.7-1.1
		C758.1,619.9,758,619.4,758.4,618.9z"/>
	<path class="st6" d="M768.9,606.3c0-0.6,0.3-0.9,0.9-0.9h0.9c0.6,0,0.9,0.3,0.9,0.9v4.5c0,0.5-0.1,0.9-0.1,0.9l0,0
		c0.6-1.1,2-2.3,3.9-2.3c2.5,0,3.9,1.3,3.9,4.3v6.3c0,0.6-0.3,0.9-0.9,0.9h-0.9c-0.6,0-0.9-0.3-0.9-0.9v-5.7c0-1.4-0.4-2.3-1.8-2.3
		c-2,0-3.2,1.6-3.2,3.7v4.3c0,0.6-0.3,0.9-0.9,0.9h-0.9c-0.6,0-0.9-0.3-0.9-0.9V606.3z"/>
	<path class="st6" d="M782.3,607v-0.7c0-0.6,0.3-0.9,0.9-0.9h1c0.6,0,0.9,0.3,0.9,0.9v0.7c0,0.6-0.3,0.9-0.9,0.9h-1
		C782.6,607.9,782.3,607.6,782.3,607z M782.3,610.7c0-0.6,0.3-0.9,0.9-0.9h1c0.6,0,0.9,0.3,0.9,0.9v9.4c0,0.6-0.3,0.9-0.9,0.9h-1
		c-0.6,0-0.9-0.3-0.9-0.9V610.7z"/>
	<path class="st6" d="M788.1,610.7c0-0.6,0.3-0.9,0.9-0.9h0.9c0.6,0,0.9,0.3,0.9,0.9v0.7c0,0.2,0,0.5,0,0.5l0,0
		c0.5-0.9,1.7-2.4,4-2.4c2.5,0,3.9,1.3,3.9,4.3v6.3c0,0.6-0.3,0.9-0.9,0.9h-0.9c-0.6,0-0.9-0.3-0.9-0.9v-5.7c0-1.4-0.4-2.3-1.8-2.3
		c-2,0-3.2,1.7-3.2,3.7v4.3c0,0.6-0.3,0.9-0.9,0.9h-1c-0.6,0-0.9-0.3-0.9-0.9L788.1,610.7L788.1,610.7z"/>
	<path class="st6" d="M803.6,622.8c0.5,0.2,1.2,0.4,2.3,0.4c1.7,0,3.2-0.7,3.2-2.7v-0.8c0-0.3,0-0.6,0-0.6l0,0
		c-0.6,1.1-1.6,1.7-3.1,1.7c-3.3,0-5.1-2.6-5.1-5.7c0-3.1,1.7-5.6,5.1-5.6c2.6,0,3.3,1.7,3.3,1.7l0,0c0,0,0-0.1,0-0.3v-0.4
		c0-0.4,0.3-0.7,0.9-0.7h0.7c0.6,0,0.9,0.3,0.9,0.9v9.6c0,3.8-3,5.3-5.8,5.3c-1.3,0-2.5-0.3-3.3-0.6c-0.6-0.2-0.7-0.6-0.5-1.2
		l0.2-0.5C802.6,622.8,803,622.7,803.6,622.8z M809.1,615.2c0-2.6-1.3-3.3-2.7-3.3c-1.7,0-2.7,1.2-2.7,3.1c0,2,1,3.5,2.8,3.5
		C807.8,618.4,809.1,617.7,809.1,615.2z"/>
	<path class="st6" d="M705.2,632.7c0-0.6,0.3-0.9,0.9-0.9h1c0.6,0,0.9,0.3,0.9,0.9V645h5.8c0.6,0,0.9,0.3,0.9,0.9v0.6
		c0,0.6-0.3,0.9-0.9,0.9h-7.7c-0.6,0-0.9-0.3-0.9-0.9V632.7z"/>
	<path class="st6" d="M721.2,635.9c3.2,0,5,2.3,5,5.3c0,0.5-0.4,0.9-1,0.9h-6.8c0.2,2,1.7,3.1,3.4,3.1c1,0,1.9-0.4,2.4-0.7
		s0.9-0.2,1.2,0.3l0.3,0.4c0.3,0.5,0.2,0.9-0.3,1.2c-0.7,0.5-2,1.1-3.8,1.1c-3.7,0-6-2.7-6-5.9C715.5,638.4,717.8,635.9,721.2,635.9
		z M723.4,640.5c0-1.6-1-2.5-2.3-2.5c-1.4,0-2.4,1-2.7,2.5H723.4z"/>
	<path class="st6" d="M728.4,637.1c0-0.6,0.3-0.9,0.9-0.9h0.9c0.6,0,0.9,0.3,0.9,0.9v0.7c0,0.2,0,0.5,0,0.5l0,0
		c0.6-1.1,1.9-2.4,3.7-2.4c1.7,0,2.8,0.8,3.3,2.3l0,0c0.6-1.2,2.1-2.3,3.8-2.3c2.3,0,3.7,1.3,3.7,4.3v6.3c0,0.6-0.3,0.9-0.9,0.9
		h-0.9c-0.6,0-0.9-0.3-0.9-0.9v-5.8c0-1.3-0.2-2.2-1.5-2.2c-1.9,0-2.9,1.9-2.9,3.9v4.1c0,0.6-0.3,0.9-0.9,0.9h-1
		c-0.6,0-0.9-0.3-0.9-0.9v-5.8c0-1.2-0.2-2.2-1.5-2.2c-2,0-2.9,2-2.9,3.9v4.1c0,0.6-0.3,0.9-0.9,0.9h-1c-0.6,0-0.9-0.3-0.9-0.9
		L728.4,637.1L728.4,637.1z"/>
	<path class="st6" d="M753.9,635.9c3.4,0,6.2,2.4,6.2,5.9s-2.8,5.9-6.2,5.9s-6.2-2.4-6.2-5.9C747.7,638.4,750.5,635.9,753.9,635.9z
		 M753.9,645.3c1.8,0,3.3-1.4,3.3-3.5s-1.5-3.5-3.3-3.5s-3.3,1.4-3.3,3.5C750.5,643.9,752,645.3,753.9,645.3z"/>
	<path class="st6" d="M762.3,637.1c0-0.6,0.3-0.9,0.9-0.9h0.9c0.6,0,0.9,0.3,0.9,0.9v0.7c0,0.2,0,0.5,0,0.5l0,0
		c0.5-0.9,1.7-2.4,4-2.4c2.5,0,3.9,1.3,3.9,4.3v6.3c0,0.6-0.3,0.9-0.9,0.9h-0.9c-0.6,0-0.9-0.3-0.9-0.9v-5.7c0-1.4-0.4-2.3-1.8-2.3
		c-2,0-3.2,1.7-3.2,3.7v4.3c0,0.6-0.3,0.9-0.9,0.9h-1c-0.6,0-0.9-0.3-0.9-0.9L762.3,637.1L762.3,637.1z"/>
	<path class="st6" d="M781.8,632.7c0-0.6,0.3-0.9,0.9-0.9h7.2c0.6,0,0.9,0.3,0.9,0.9v0.6c0,0.6-0.3,0.9-0.9,0.9h-5.2v4.4h4.3
		c0.6,0,0.9,0.3,0.9,0.9v0.6c0,0.6-0.3,0.9-0.9,0.9h-4.3v5.4c0,0.6-0.3,0.9-0.9,0.9h-1c-0.6,0-0.9-0.3-0.9-0.9L781.8,632.7
		L781.8,632.7z"/>
	<path class="st6" d="M792.7,632.7c0-0.6,0.3-0.9,0.9-0.9h1c0.6,0,0.9,0.3,0.9,0.9v11c0,1.1,0.5,1.3,0.9,1.3s0.7,0.3,0.7,0.8v0.7
		c0,0.6-0.3,0.9-0.9,0.9c-1.5,0-3.4-0.4-3.4-3.6v-11.1L792.7,632.7L792.7,632.7z"/>
	<path class="st6" d="M804.8,640.5h0.5v-0.3c0-1.5-0.9-2-2.1-2c-0.9,0-1.8,0.4-2.3,0.6c-0.5,0.2-1,0.2-1.2-0.4l-0.2-0.4
		c-0.3-0.5-0.2-0.9,0.4-1.2c0.7-0.4,2-0.9,3.7-0.9c2.9,0,4.6,1.6,4.6,4.5v6.1c0,0.6-0.3,0.9-0.9,0.9h-0.7c-0.6,0-0.9-0.3-0.9-0.9
		v-0.4c0-0.3,0-0.5,0-0.5l0,0c0,0-1.1,2.1-3.5,2.1c-2,0-3.7-1.3-3.7-3.4C798.3,641,802.3,640.5,804.8,640.5z M802.7,645.6
		c1.6,0,2.6-1.6,2.6-2.9v-0.4h-0.5c-1.4,0-3.8,0.2-3.8,1.9C801,644.8,801.6,645.6,802.7,645.6z"/>
	<path class="st6" d="M809.8,637.3c-0.2-0.6,0-1.1,0.7-1.1h1c0.5,0,0.9,0.2,1,0.8l2.1,6.2c0.2,0.7,0.4,1.7,0.4,1.7l0,0
		c0,0,0.2-1,0.4-1.7l2.1-6.2c0.2-0.5,0.5-0.8,1-0.8h1c0.7,0,1,0.4,0.7,1.1l-3.4,9.4c-0.2,0.5-0.5,0.7-1,0.7H814
		c-0.5,0-0.9-0.2-1-0.7L809.8,637.3z"/>
	<path class="st6" d="M827.8,635.9c3.4,0,6.2,2.4,6.2,5.9s-2.8,5.9-6.2,5.9s-6.2-2.4-6.2-5.9C821.7,638.4,824.4,635.9,827.8,635.9z
		 M827.8,645.3c1.8,0,3.3-1.4,3.3-3.5s-1.5-3.5-3.3-3.5s-3.3,1.4-3.3,3.5C824.5,643.9,826,645.3,827.8,645.3z"/>
	<path class="st6" d="M836.3,637.1c0-0.6,0.3-0.9,0.9-0.9h0.9c0.6,0,0.9,0.3,0.9,0.9v1.1c0,0.4-0.1,0.8-0.1,0.8l0,0
		c0.4-1.3,1.7-2.8,3.3-2.8c0.6,0,0.8,0.3,0.8,0.9v0.9c0,0.6-0.4,0.9-0.9,0.9c-2,0-3,2-3,4.1v3.6c0,0.6-0.3,0.9-0.9,0.9h-1
		c-0.6,0-0.9-0.3-0.9-0.9V637.1z"/>
</g>
</svg>
