<?xml version="1.0" encoding="utf-8"?>
<!-- Generator: Adobe Illustrator 19.2.0, SVG Export Plug-In . SVG Version: 6.00 Build 0)  -->
<svg version="1.1" id="Layer_1" xmlns="http://www.w3.org/2000/svg" xmlns:xlink="http://www.w3.org/1999/xlink" x="0px" y="0px"
	 viewBox="0 0 59.4 58.2" style="enable-background:new 0 0 59.4 58.2;" xml:space="preserve">
<style type="text/css">
	.st0{fill:#FFFFFF;}
	.st1{fill:#F2CB31;}
</style>
<g>
	<path class="st0" d="M35.1,20c-2.1-0.1-1.9-1.5-1.2-1.6c0.5-0.1,1.2-0.3,1.3-0.4c0.2-0.1,0.4-0.4,0.4-0.7c-0.1-0.3-0.3-0.5-0.6-0.5
		c0,0,0,0,0,0c-0.5-3.6-2.1-6.8-4.8-9.3c0,0-0.1-0.1-0.1-0.1c0-0.7,0.1-1.5,0.3-2.3L31,3.6l-1.3,1c-0.6,0.5-1.3,0.8-2,1
		c-1.9-1.2-4.1-1.9-6.3-2.1c-0.4-0.6-0.8-1.2-1-1.9L20,0l-0.5,1.6c-0.2,0.7-0.5,1.3-0.9,1.9C16.2,3.6,14,4.4,12,5.5
		c-0.6-0.2-1.2-0.5-1.8-0.9l-1.3-1l0.5,1.5c0.2,0.7,0.3,1.3,0.3,2C9.7,7.2,9.5,7.4,9.4,7.5C7.8,9,6.5,10.8,5.7,12.8
		C5.1,12.9,4.4,13,3.7,13l-1.6,0l1.3,0.9c0.6,0.4,1,0.8,1.4,1.3c-0.1,0.6-0.3,1.2-0.3,1.9l-0.3-0.3c-0.9-0.9-2.7-1.3-3.5-0.9
		c-0.4,0.2-0.7,0.6-0.7,1c0,0.4,0,0.9,0,1.5c0,0.8,0,1.6,0,2.2c0,0.5,0.3,0.9,0.8,1c0.9,0.4,2.6-0.1,3.4-0.9l0.3-0.3
		c0.1,0.6,0.2,1.3,0.3,1.9c-0.4,0.5-0.8,0.9-1.4,1.3l-1.3,0.9v0l1.6,0c0.7,0,1.3,0.1,1.9,0.3c0.8,2,2.1,3.8,3.7,5.3
		c0.2,0.1,0.3,0.3,0.5,0.4c0,0.6-0.1,1.3-0.3,2L8.9,34l1.3-1c0.6-0.4,1.2-0.7,1.8-0.9c2,1.2,4.2,1.9,6.5,2.1
		c0.4,0.5,0.7,1.2,0.9,1.9l0.5,1.6l0.5-1.6c0.2-0.7,0.6-1.4,1-1.9c2.2-0.2,4.4-1,6.3-2.1c0.7,0.2,1.4,0.5,2,1l1.3,1l-0.5-1.5
		c-0.3-0.8-0.4-1.5-0.3-2.3c0,0,0.1-0.1,0.1-0.1c2.6-2.4,4.2-5.5,4.7-8.9c0,0,0.1,0,0.1,0c0.3,0,0.5-0.3,0.5-0.6
		C35.6,20.2,35.4,20,35.1,20z M29.1,16.4c-0.8,0-1.4-0.6-1.4-1.4c0-0.8,0.6-1.4,1.4-1.4s1.4,0.6,1.4,1.4
		C30.5,15.7,29.8,16.4,29.1,16.4z"/>
	<path class="st1" d="M36.3,14.2l-1.7-4.4l-5.5,1.1c-1.2,0-2.3,0.5-3.1,1.4c-0.8,0.9-1.2,2.1-1.1,3.4c0.2,1.9,1.7,3.5,3.6,3.8
		c0.2,0,0.4,0,0.6,0c0.9,0,1.7-0.3,2.4-0.7l0.6-0.5c0.5-0.4,0.8-1,1-1.5c1-1.2,1.7-1.3,2.1-1.3c0.3,0,0.6-0.1,0.8-0.4
		C36.4,14.8,36.4,14.5,36.3,14.2z M33.8,11.3l1.1,2.8c-0.7,0.1-1.7,0.6-2.7,1.9l-0.1,0.1l0,0.1c-0.2,0.4-0.4,0.8-0.8,1.2l0,0
		c-0.7,0.6-1.5,0.9-2.4,0.7c-1.3-0.2-2.4-1.3-2.5-2.6c-0.1-0.9,0.2-1.7,0.7-2.3c0.6-0.6,1.4-1,2.2-1L33.8,11.3z"/>
	<g>
		<path class="st1" d="M14.2,18.3c-3.4,0-6.9-0.6-9.7-2.3l0.2-0.4c7.7,4.7,20.6,0.5,20.8,0.5l0.1,0.4C25.5,16.6,20.2,18.3,14.2,18.3
			z"/>
	</g>
</g>
<g>
	<ellipse transform="matrix(0.1089 -0.9941 0.9941 0.1089 2.7355 89.5047)" class="st0" cx="51.3" cy="43.2" rx="0.5" ry="0.5"/>
	<ellipse transform="matrix(0.1089 -0.9941 0.9941 0.1089 -14.7471 91.7198)" class="st0" cx="43.8" cy="54.1" rx="0.5" ry="0.5"/>
	<ellipse transform="matrix(0.1089 -0.9941 0.9941 0.1089 -5.5928 91.0978)" class="st0" cx="48" cy="48.7" rx="0.5" ry="0.5"/>
	<ellipse transform="matrix(0.1089 -0.9941 0.9941 0.1089 0.6181 93.5318)" class="st0" cx="52.5" cy="46.4" rx="0.5" ry="0.5"/>
	<ellipse transform="matrix(0.1089 -0.9941 0.9941 0.1089 -10.6448 87.071)" class="st0" cx="43.2" cy="49.5" rx="0.5" ry="0.5"/>
	<ellipse transform="matrix(0.1089 -0.9941 0.9941 0.1089 -0.2376 97.0716)" class="st0" cx="54" cy="48.7" rx="0.3" ry="0.3"/>
	<ellipse transform="matrix(0.1089 -0.9941 0.9941 0.1089 -17.6915 88.4352)" class="st0" cx="40.5" cy="54.1" rx="0.3" ry="0.3"/>
	<ellipse transform="matrix(0.1089 -0.9941 0.9941 0.1089 -3.034 80.2508)" class="st0" cx="43.2" cy="41.8" rx="0.3" ry="0.3"/>
	<ellipse transform="matrix(0.1089 -0.9941 0.9941 0.1089 -10.1985 93.7923)" class="st0" cx="47.2" cy="52.6" rx="0.3" ry="0.3"/>
	<ellipse transform="matrix(0.1089 -0.9941 0.9941 0.1089 -1.4872 88.3862)" class="st0" cx="48.6" cy="45" rx="0.3" ry="0.3"/>
	<ellipse transform="matrix(0.1089 -0.9941 0.9941 0.1089 -8.7996 98.8947)" class="st0" cx="50.8" cy="54.4" rx="0.5" ry="0.5"/>
	<ellipse transform="matrix(0.1089 -0.9941 0.9941 0.1089 0.7726 83.9568)" class="st0" cx="47.2" cy="41.5" rx="0.5" ry="0.5"/>
	<path class="st0" d="M39.9,51.2C39.9,51.2,39.9,51.2,39.9,51.2c0.2,0,0.4-0.1,0.5-0.2c0.2-0.1,0.2-0.3,0.3-0.5
		c0-0.4-0.2-0.8-0.7-0.8c-0.4,0-0.8,0.2-0.8,0.7c0,0.2,0,0.4,0.2,0.5C39.5,51.1,39.7,51.2,39.9,51.2z M39.5,50.4
		c0-0.1,0.1-0.2,0.2-0.3c0.1-0.1,0.2-0.1,0.3-0.1c0,0,0,0,0.1,0c0.3,0,0.5,0.3,0.4,0.5c0,0.1-0.1,0.2-0.2,0.3
		c-0.1,0.1-0.2,0.1-0.4,0.1c-0.1,0-0.2-0.1-0.3-0.2C39.5,50.7,39.4,50.5,39.5,50.4z"/>
	<path class="st0" d="M51.9,52.4C51.9,52.4,51.9,52.4,51.9,52.4c0.2,0,0.4-0.1,0.5-0.2c0.2-0.1,0.2-0.3,0.3-0.5
		c0-0.4-0.2-0.8-0.7-0.8c-0.4,0-0.8,0.2-0.8,0.7c0,0.2,0,0.4,0.2,0.5C51.5,52.3,51.7,52.4,51.9,52.4z M51.5,51.6
		c0-0.1,0.1-0.2,0.2-0.3c0.1-0.1,0.2-0.1,0.3-0.1c0,0,0,0,0.1,0c0.3,0,0.5,0.3,0.4,0.5c0,0.1-0.1,0.2-0.2,0.3
		c-0.1,0.1-0.2,0.1-0.4,0.1c-0.1,0-0.2-0.1-0.3-0.2C51.5,51.9,51.5,51.7,51.5,51.6z"/>
	<path class="st0" d="M43.7,46.5c0,0,0.1,0,0.1,0c0.2,0,0.5-0.1,0.7-0.2c0.2-0.2,0.4-0.4,0.4-0.7c0.1-0.6-0.4-1.1-0.9-1.2
		c-0.6-0.1-1.1,0.4-1.2,0.9c0,0.3,0,0.6,0.2,0.8C43.1,46.3,43.4,46.4,43.7,46.5z M43.1,45.4c0-0.2,0.1-0.3,0.3-0.5
		c0.1-0.1,0.3-0.1,0.4-0.1c0,0,0.1,0,0.1,0c0.4,0,0.6,0.4,0.6,0.8c0,0.2-0.1,0.3-0.3,0.5c-0.1,0.1-0.3,0.2-0.5,0.1
		c-0.2,0-0.3-0.1-0.5-0.3C43.1,45.7,43.1,45.5,43.1,45.4z"/>
	<path class="st0" d="M53,58.2H40.3v0c-2.2-0.2-4.2-1.5-5.3-3.4l0-0.1c-0.4-0.6-0.4-1.4-0.2-2.1L42,31.4v-6.8c0-0.1-0.1-0.2-0.2-0.2
		c-0.5,0-0.9-0.4-0.9-0.9v-1c0-0.5,0.4-0.9,0.9-0.9h10.5c0.5,0,0.9,0.4,0.9,0.9v1c0,0.5-0.4,0.9-0.9,0.9c-0.1,0-0.2,0.1-0.2,0.2v6.8
		l7.2,21.1c0.2,0.7,0.2,1.5-0.2,2.1l0,0.1C57.8,56.9,55.5,58.2,53,58.2z M40.9,57.5H53c2.3,0,4.4-1.2,5.5-3.1l0,0
		c0.3-0.5,0.3-1,0.2-1.6l-7.3-21.3v-6.9c0-0.5,0.4-0.9,0.9-0.9c0.1,0,0.2-0.1,0.2-0.2v-1c0-0.1-0.1-0.2-0.2-0.2H41.7
		c-0.1,0-0.2,0.1-0.2,0.2v1c0,0.1,0.1,0.2,0.2,0.2c0.5,0,0.9,0.4,0.9,0.9v6.9l0,0.1l-7.2,21.2c-0.2,0.5-0.1,1.1,0.1,1.5l0,0.1
		c1,1.8,2.9,3,5.1,3.1L40.9,57.5z"/>
	<path class="st0" d="M52.6,56.7H40.8v0c-1.7-0.2-3.2-1.2-4.1-2.7l0-0.1c-0.3-0.5-0.3-1.1-0.2-1.7l5-14.5h11.1l5,14.5
		c0.2,0.6,0.1,1.2-0.2,1.7l0,0C56.3,55.7,54.5,56.7,52.6,56.7z M41.3,56h11.2c1.7,0,3.3-0.9,4.1-2.3l0,0c0.2-0.3,0.2-0.7,0.1-1.1
		l-4.8-14H42l-4.8,14c-0.1,0.4-0.1,0.8,0.1,1.1l0,0c0.8,1.4,2.2,2.2,3.8,2.3L41.3,56z"/>
</g>
</svg>
