<?xml version="1.0" encoding="utf-8"?>
<!-- Generator: Adobe Illustrator 23.0.3, SVG Export Plug-In . SVG Version: 6.00 Build 0)  -->
<svg version="1.1" id="Layer_1" xmlns="http://www.w3.org/2000/svg" xmlns:xlink="http://www.w3.org/1999/xlink" x="0px" y="0px"
	 viewBox="0 0 225.8 29.1" style="enable-background:new 0 0 225.8 29.1;" xml:space="preserve">
<style type="text/css">
	.st0{fill:#8A8A8A;}
</style>
<g>
	<path class="st0" d="M65,1.9c0.1,0,0.1-0.1,0.1-0.2c0.1-0.5,0.1-0.9,0.2-1.4h-0.1C65,0.5,64.8,0.8,64.6,1c-0.7,0.5-2.2,0.9-3.1,0.2
		c-0.6-0.4-1.2-0.2-1.7,0.3c-0.4,0.4-0.7,0.7-1,1.1c-0.6,0.7-1.3,1.4-1.9,2.1c0.3-0.1,0.7-0.2,1-0.4c0.5-0.2,0.9-0.2,1.3,0.1
		c0.6,0.4,1.2,0.8,2,0.7v9.2c-0.2-0.3-0.3-0.5-0.5-0.8c-2.3-3.7-4.6-7.4-7-11.1c-0.2-0.4-0.6-0.8-0.9-1.1c-0.7-0.6-1.6-0.8-2.5-0.4
		c-0.6,0.3-1.1,0.7-1.6,1.1c-0.2,0.2-0.3,0.3-0.4,0.5c-0.3,0.7-0.4,1.4-0.4,2.1C47.9,4.7,48,4.8,48,5c0.1-0.2,0.2-0.3,0.3-0.4
		c0.2-0.2,0.3-0.4,0.5-0.6c0.2-0.3,0.5-0.4,0.9-0.3c0.5,0.2,1.1,1.1,1.1,1.6v3c0,0.3,0,0.4-0.3,0.5c-0.9,0.3-1.7,0.8-2.4,1.4
		c-0.5,0.4-0.9,0.9-0.8,1.6c0.2,1.1,1,1.7,1.9,2.3c-0.1-0.6-0.1-1.1,0.3-1.5c0.3-0.4,0.8-0.6,1.3-0.7v5.2c-1.1,0.2-2.1,0.5-3,1
		c-2.3,1.3-2,4.1-0.6,5.3c0.8,0.7,1.6,1.1,2.7,0.9c-0.1,0-0.2-0.1-0.4-0.1c-0.7-0.4-1.2-1-1.1-1.8c0.1-1,0.7-1.8,1.9-1.5
		c0.6,0.1,1.1,0.4,1.6,0.6l0.9,0.6c1-1.3,2-2.4,3-3.6c-0.1-0.1-0.1-0.2-0.2-0.3l-0.7,0.7c-1-0.9-2.2-1.6-3.6-1.8V5.8
		c0.2,0.2,0.2,0.3,0.3,0.4c3.2,5.2,6.4,10.5,9.6,15.8c0.1,0.3,0.3,0.4,0.6,0.3V6c0-0.2-0.1-0.6,0-0.8C62,5,62.4,4.9,62.5,4.6
		C64.4,3.8,64.5,3.6,65,1.9z"/>
	<path class="st0" d="M70.7,19.7c-0.6-0.5-1.2-1.1-1.9-1.6c-0.6-0.4-0.8-0.8-0.7-1.5c0.1-0.1,0.1-0.2,0.2-0.3c1.4-1,2.8-2.1,4.2-3.1
		c0.4-0.3,0.8-0.7,1.3-1c-0.9-1.5-1.9-2.9-2.8-4.4c-2,1.1-4.1,2.1-6.3,3c-0.2,0.1-0.3,0.3-0.3,0.5v7.3c0,0.2,0,0.3-0.2,0.4
		c-0.3,0.2-0.5,0.3-0.7,0.5c0.1,0.1,0.1,0.2,0.2,0.3c0.4-0.3,0.8-0.5,1.1-0.8c1.2,1.1,2.3,2.1,3.5,3.1c2-1.6,4-3.1,6-4.7L74,17.1
		C72.9,17.9,71.8,18.8,70.7,19.7z M68.2,9.8c1,1.3,2,2.7,3,4c-1,0.7-2,1.4-3,2.2V9.8z"/>
	<path class="st0" d="M93.5,9.7c-0.8-0.8-1.6-1.5-2.4-2.2c-1,0.8-2,1.6-3,2.5h0c0.4,0.3,0.8,0.7,1.5,0.8c0.1,0.2,0.2,0.3,0.2,0.5V19
		c0,0.5-0.2,0.8-0.6,1c-0.1,0.1-0.2,0.1-0.3,0c-0.7-0.6-1.5-1.1-2.2-1.7c-0.1,0-0.2-0.2-0.2-0.3v-6.9c0-0.1,0.1-0.2,0.2-0.3
		c0.3-0.3,0.6-0.6,1-0.9c-1-0.8-1.9-1.5-2.8-2.3c-1,0.7-1.9,1.5-2.9,2.3l0.8,0.8c0.1,0,0.2,0.2,0.2,0.3v8.1c0,0.1,0,0.2-0.1,0.3
		c-0.3,0.2-0.6,0.5-0.9,0.7c-0.6-0.6-1.2-1.2-1.7-1.8c-0.1-0.1-0.2-0.3-0.2-0.4v-7.8c0-0.1,0.1-0.2,0-0.3c-0.3-0.7-0.7-1.3-1.3-1.8
		c-0.2-0.2-0.5-0.3-0.8-0.3c-0.3,0-0.6-0.2-0.8-0.4c-0.4-0.5-0.5-1.5-0.1-2.1c0.1-0.2,0.3-0.3,0.4-0.4V4.7c-0.5,0.2-1,0.4-1.4,0.6
		C75.5,5.6,75,6,74.6,6.6c-0.4,0.5-0.4,1.2-0.3,1.9c0.1,1,0.4,1.7,1.5,2c0.5,0.1,0.8,0.6,0.9,1.1c0.1,0.2,0.1,0.5,0.1,0.7
		c0.1,2.2,0.1,4.4,0.1,6.6c0,0.2-0.1,0.3-0.2,0.4c-0.3,0.3-0.6,0.5-0.9,0.8c0,0.1,0.1,0.2,0.2,0.3c0.3-0.3,0.7-0.6,1-0.9
		c1,0.8,2,1.7,3,2.6c0-0.1,0.1-0.1,0.2-0.2l2.7-2.1c0.2-0.1,0.3-0.2,0.5,0c1,0.8,2.1,1.5,3.1,2.2c0.1,0.1,0.2,0.1,0.4,0
		c1.9-1.3,3.8-2.5,5.7-3.7c0.1-0.1,0.2-0.2,0.2-0.4v-6.6c0-0.1,0-0.3,0.1-0.4c0.5-0.5,1.1-1,1.7-1.5c0.2-0.2,0.4-0.3,0.6-0.5
		c-0.1,0-0.2-0.1-0.3-0.2C94.5,9,94,9.3,93.5,9.7z"/>
	<path class="st0" d="M2.2,6.9V6.4c0-1.1,0.4-1.9,1.6-2.1c1.1-0.2,2-0.1,3,0.2c2.1,0.6,4.2,1.2,6.5,1.8h0.5C14.2,6.2,14.7,6.2,15,6
		c1-0.6,1.8-1.4,2.2-2.5c0.4-0.8,0.2-1.5-0.4-2.1C16,0.6,15.1,0.3,14,0c0.3,0.2,0.6,0.4,0.9,0.7c0.4,0.4,0.4,0.9-0.1,1.2
		c-0.6,0.4-1.3,0.6-2,0.4c-0.8-0.2-1.6-0.4-2.4-0.7C9,1.1,7.6,0.6,6.2,0.5C4.1,0.3,2,1.4,1,3.2C0.1,4.8,1.2,6.3,2.2,6.9z"/>
	<path class="st0" d="M13.4,18.5v-0.4c0-1.3,0.1-2.7,0-4c-0.1-0.7,0.1-1.1,0.7-1.4c0.5-0.3,0.9-0.7,1.4-1c-0.7-0.5-1.3-0.9-1.9-1.4
		c-0.2-0.2-0.3-0.3-0.3-0.6c0,0.2-0.1,0.4-0.3,0.5c-0.5,0.5-1.1,0.9-1.6,1.4c0.5,0.5,1.1,0.9,1.6,1.4c0.1,0.1,0.2,0.2,0.2,0.4v4.8
		c0,0.4-0.1,0.6-0.4,0.7c-0.1,0.1-0.2,0.2-0.3,0.2c-1,0.3-2,0.4-3,0.3c-1.2-0.1-2.3-0.7-3.3-1.4c-0.2-0.2-0.4-0.3-0.6-0.5
		c0-0.1,0.1-0.1,0.1-0.1c1.6-0.8,3.1-1.6,4.6-2.3c0.1,0,0.2-0.1,0.2-0.3V6.6C8.3,7.5,6.1,8.4,4,9.3c0.8-1.5,2-2.6,3.3-3.6
		C6.9,5.8,6.5,5.8,6.1,6c-1.6,0.7-3,1.8-4.2,3.2c-1.7,2-2.3,4.3-1.7,6.9c1.1,4.4,5.5,7.3,9.9,6.7c1.5-0.2,2.8-0.7,4-1.7
		c1.5-1.3,2.3-2.9,2.7-4.8c0.1-0.4,0.1-0.8,0.2-1.2C15.8,16.3,14.8,17.5,13.4,18.5z M3.6,13.6c-0.2-1.2-0.2-2.4,0.1-3.6
		c0-0.1,0.1-0.2,0.3-0.3c0.8-0.3,1.5-0.6,2.3-0.9c0-0.1,0.1-0.1,0.2-0.1v2c-0.1,1.8-0.1,3.6-0.1,5.4c0,0.2,0,0.3-0.2,0.4L5,17.1
		C4.3,16,3.9,14.9,3.6,13.6z"/>
	<path class="st0" d="M28.8,10.6C27.9,9.7,27,8.8,26.1,8c-1.3,0.8-2.5,1.6-3.8,2.4V0.5c-1.6,1.2-3.1,2.5-4.6,3.7
		c0.4,0.1,0.8,0.2,0.9,0.6c0.1,0.2,0.1,0.4,0.1,0.6v12.8c0.1,0.6-0.1,1-0.6,1.3c-0.4,0.2-0.7,0.5-1,0.8l0.3,0.3l0.9-0.6
		c0.8,0.7,1.6,1.5,2.4,2.2c1.3-1,2.5-1.9,3.8-2.9c-0.1-0.1-0.1-0.2-0.2-0.3c-0.2,0.1-0.5,0.3-0.7,0.5c-0.3-0.3-0.7-0.6-1-0.9
		c0-0.1-0.1-0.2-0.1-0.3v-7.2c0,0,0-0.2,0.1-0.2c0.4-0.3,0.8-0.5,1.2-0.8c0.5,0.7,1,1.3,1.6,1.9c0.1,0.1,0.1,0.2,0.1,0.3v9.8
		c0,0.6-0.1,1.1-0.5,1.6c-0.5,0.7-1.3,1.2-2,1.6c-0.1,0.1-0.2,0.1-0.3,0.2h0.8c0.3,0,0.7-0.1,1-0.1c2.8-0.4,4.6-2.3,4.6-5.1v-9
		c0-0.2,0.1-0.3,0.2-0.4c0.3-0.2,0.6-0.5,0.9-0.7c-0.1-0.1-0.2-0.3-0.3-0.4C29.5,10.1,29.2,10.3,28.8,10.6z"/>
	<path class="st0" d="M223.6,12.7c0.5-0.6,0.9-1.1,1.4-1.6c0.6-0.6,0.9-1.3,0.9-2.1c0-0.6-0.1-1.2-0.1-1.8c-0.4,0.5-0.7,0.9-1,1.2
		c-0.4,0.3-0.8,0.4-1.3,0.2c-0.4-0.2-0.8-0.5-1.2-0.8c-0.1-0.1-0.2-0.1-0.4,0c-1.6,1-3.3,1.9-5,2.9c-0.1,0.1-0.2,0.2-0.2,0.4v3.3
		c0,0.1,0.1,0.3,0.2,0.4c0.6,0.5,1.2,1.1,1.8,1.7l-0.2,0.2c-0.7,0.7-1.3,1.4-2,2.1c-0.9,0.9-0.8,2.2-0.3,3s1.2,1.3,2.1,1.7
		c0.1,0.1,0.2,0.1,0.3,0.1l-0.4-0.4c-0.3-0.5-0.6-0.9-0.8-1.4c-0.2-0.5,0-0.8,0.6-0.9c1.1-0.1,1.9,0.2,2.5,1.2h0.1
		c1.7-1.1,3.3-2.2,5-3.3c0.1,0,0.1-0.1,0.1-0.2c0.1-1.5,0.1-2.9,0.1-4.4c0-0.1,0-0.2-0.1-0.3C225.1,13.3,224.5,12.8,223.6,12.7z
		 M220.4,18.1c-1-0.3-2,0.1-3,0.3c1.1-1.2,2.1-2.3,3.3-3.1c0.3-0.2,0.6-0.4,0.9-0.5c0.5-0.2,0.8,0,0.9,0.5c0.1,0.5,0.1,0.9,0.1,1.4
		c0,1,0.1,2.1,0.1,3.2C222.2,18.9,221.4,18.4,220.4,18.1z M222.1,13.5c-0.4,0.3-0.9,0.5-1.4,0.7h-0.3c-0.5,0-0.5-0.1-0.5-0.5V9.8
		c1.3,1.7,2.9,2.1,4.9,1.1c-0.2,0.1-0.3,0.3-0.5,0.5C223.6,12.1,222.9,12.9,222.1,13.5z"/>
	<path class="st0" d="M38,20c-0.7-0.6-1.3-1.2-2-1.7c-0.6-0.4-0.8-0.9-0.7-1.5c0-0.2,0.1-0.3,0.2-0.4l3.6-2.7
		c0.6-0.5,1.3-0.9,1.9-1.4c-0.9-1.5-1.9-2.9-2.8-4.4C38.1,7.9,38,8,37.9,8c-2,1-3.9,1.9-5.8,2.9c-0.2,0.2-0.3,0.3-0.3,0.6v7.2
		c0.1,0.2,0,0.4-0.2,0.5c-0.2,0.1-0.4,0.2-0.6,0.4c0.1,0.1,0.1,0.2,0.2,0.3c0.4-0.3,0.7-0.5,1.1-0.8c1.2,1,2.3,2.1,3.3,3.3
		c2-1.6,4-3.1,6-4.7l-0.3-0.3C40.2,18.2,39.1,19.1,38,20z M35.5,9.7c1,1.3,2,2.7,3,4c-1,0.8-2,1.5-3,2.2V9.7z"/>
	<polygon class="st0" points="218.6,23.6 218.6,23.6 218.6,23.6 	"/>
	<path class="st0" d="M204.2,18.9c-0.7,0.3-0.8,0.3-1.3-0.2l-0.3-0.3c0-0.1-0.1-0.2-0.1-0.3v-7.2c0-0.1,0.1-0.2,0.2-0.3
		c0.3-0.2,0.6-0.4,1-0.7c-0.1-0.1-0.2-0.1-0.3-0.2c-0.4,0.3-0.7,0.5-1.1,0.8c-0.9-0.8-1.8-1.7-2.7-2.5c-1.2,0.9-2.4,1.7-3.6,2.6
		c-0.9-0.8-1.8-1.7-2.7-2.6c-0.1,0.1-0.2,0.1-0.3,0.2c-1,0.7-2.1,1.4-3.1,2.1c-0.2,0.1-0.3,0.1-0.4,0c-0.7-0.6-1.5-1.3-2.2-1.9
		c-0.1-0.1-0.2-0.1-0.4,0c-1,0.8-2,1.5-3,2.3l-0.3,0.3c0.2,0,0.3,0,0.4-0.1c1-0.5,2.5,0.3,2.5,1.4v6.4c0,0.1-0.1,0.2-0.2,0.3
		c-0.2,0.2-0.5,0.3-0.7,0.4c0.8,0.9,1.7,1.9,2.6,2.8c1-0.9,2-1.7,3-2.5c-0.3-0.1-0.6-0.3-1.2-0.4c-0.2-0.1-0.3-0.3-0.3-0.6v-7.2
		c0-0.4,0.2-0.7,0.6-0.9c0.4-0.2,0.7,0,0.9,0.3c0.4,0.5,0.7,1,1.1,1.6v0.3v5.5c0.1,0.5,0,0.9-0.5,1.2l-0.1,0.1
		c0.9,0.8,1.7,1.6,2.5,2.4c1-0.7,1.9-1.6,2.9-2.4c-0.3-0.1-0.5-0.3-0.8-0.4c-0.1-0.1-0.2-0.2-0.2-0.4c0-2.6-0.1-5.1-0.1-7.6
		c0-0.1,0-0.2,0.1-0.3c0.4-0.5,1.1-0.5,1.6-0.2c0.4,0.3,0.7,0.7,0.9,1.1c0.2,0.3,0.3,0.6,0.3,1v5.3c0,0.5,0.1,1-0.7,1.1
		c1.1,0.9,2,1.8,3,2.7c1.1-1,2.3-1.9,3.4-2.9C204.4,18.8,204.4,18.8,204.2,18.9z"/>
	<path class="st0" d="M153.7,19.1l-0.9-1.2c-1.6-2.2-3.3-4.5-4.9-6.7c-0.1-0.2-0.2-0.5-0.1-0.7c0.1-0.3,0.4-0.1,0.6-0.1
		c0.7,0.1,1.5,0.3,2.3,0.4c1,0.2,1.8-0.2,2.4-1c0.5-0.7,0.7-1.5,0.7-2.3V7.4l-0.3,0.3c-0.5,0.5-1.1,0.7-1.8,0.5
		c-0.5-0.2-1.1-0.4-1.6-0.6c-0.2-0.1-0.3-0.1-0.4,0.1c-0.9,1.1-1.7,2.2-2.5,3.3c-0.5,0.8-1.1,1.5-1.6,2.2h-0.1V0.1
		c-1.6,1.1-3.2,2-4.8,3.2c0.7,0.3,1.1,0.8,1.2,1.5v0.9v12.1c0,0.4,0.2,0.8,0,1.1s-0.6,0.5-0.9,0.7c-0.2,0.2-0.5,0.3-0.7,0.5
		c0.1,0.1,0.3,0,0.4,0c0.3-0.1,0.5,0,0.7,0.2c0.7,0.7,1.4,1.3,2.2,1.9c1.2-1,2.4-1.9,3.7-3.2v-0.1c-0.7,0.4-1.2,0.1-1.6-0.4
		c-0.1-0.2-0.2-0.3-0.2-0.5v-4.1h0.1c1.6,2.8,3.6,5.3,5.6,7.9c1.3-1.1,2.5-2.1,3.7-3.1l-0.3-0.3C154.3,18.6,154,18.9,153.7,19.1z"/>
	<path class="st0" d="M172.8,18.8V14c0-0.4,0.1-0.6,0.4-0.8c0.6-0.4,1.1-0.8,1.7-1.2c-0.6-0.5-1.3-1-1.9-1.5
		c-0.1-0.2-0.2-0.3-0.2-0.5V6.5c0.6,0,1.2,0,1.7-0.4c0.8-0.6,1.5-1.3,2-2.2c0.4-0.8,0.4-1.5-0.2-2.2c-0.8-0.9-1.8-1.2-2.9-1.5
		c0.2,0.1,0.4,0.2,0.6,0.4c0.6,0.4,0.6,1-0.1,1.4c-0.6,0.3-1.2,0.4-1.8,0.3c-0.8-0.2-1.5-0.4-2.3-0.7c-1.4-0.4-2.8-1-4.3-1.1
		c-2.3-0.2-4.1,0.9-5.1,2.6c-1.1,1.7,0.1,3.2,1.2,3.8V6.1c0-0.9,0.5-1.5,1.4-1.7c0.3-0.1,0.7-0.1,1.1-0.1c1.5,0,2.8,0.5,4.2,0.9
		c1.3,0.4,2.6,1,4,1.2V10c0,0,0,0.1-0.1,0.2c-0.5,0.5-1,0.9-1.5,1.3l-0.2,0.2c0.5,0.5,1.1,0.9,1.6,1.4c0.1,0.2,0.2,0.3,0.2,0.5v4.7
		c0,0.4-0.2,0.6-0.5,0.8c-0.1,0-0.2,0.1-0.3,0.1c-1.4,0.3-2.8,0.4-4.2-0.1c-1-0.4-1.9-0.9-2.7-1.6c0.1-0.1,0.2-0.1,0.8,0.2
		c1.4-0.7,2.9-1.5,4.4-2.2c0.1-0.1,0.2-0.1,0.2-0.3V6.9c-2.1,0.9-4.2,1.7-6.2,2.6c0.7-0.2,1.4-0.5,2-0.8v0.7
		c-0.1,2.2-0.1,4.5-0.1,6.7c0,0.2-0.1,0.3-0.3,0.4l-1.2,0.6c-0.7-1-1.2-2.2-1.2-3.5c-0.3-1.2-0.3-2.3,0-3.5c0-0.2,0.1-0.4,0.4-0.5
		c0,0,0.1,0,0.1,0c0.8-1.4,2-2.6,3.3-3.6c-0.4,0.1-0.8,0.1-1.2,0.3c-1.6,0.8-2.9,1.9-4.1,3.2c-1.8,2-2.5,4.4-1.8,7
		c1.1,4.3,5.4,7.2,9.8,6.6c1.5-0.2,2.9-0.8,4.1-1.8c1.5-1.4,2.3-3.1,2.6-5.1c0.1-0.2,0.1-0.5,0.1-0.8c-0.6,0.6-1.1,1.2-1.7,1.8
		C174.1,17.8,173.5,18.3,172.8,18.8z"/>
	<path class="st0" d="M163.8,9.5c-0.1,0-0.2,0.1-0.2,0.1c0,0,0,0,0,0C163.6,9.6,163.7,9.5,163.8,9.5z"/>
	<path class="st0" d="M212,19.9l-0.2-0.2c-0.6-0.5-1.1-1-1.7-1.5c-0.7-0.6-0.7-0.6-0.7-1.5c0-0.1,0.1-0.2,0.2-0.3
		c1.1-0.9,2.3-1.7,3.4-2.6c0.6-0.5,1.3-1,2-1.5c-0.9-1.5-1.9-2.9-2.8-4.4C212.1,8,212.1,8,212,8l-6,3c-0.2,0.1-0.2,0.2-0.2,0.4v7.3
		c0,0.2-0.1,0.4-0.3,0.5c-0.2,0.1-0.4,0.2-0.6,0.4c0.1,0.1,0.1,0.2,0.2,0.3c0.4-0.3,0.7-0.5,1.1-0.8c1.2,1,2.3,2,3.4,3.2
		c2-1.6,4-3.1,6-4.7l-0.3-0.3C214.2,18.1,213.1,19,212,19.9z M209.4,9.7c1,1.3,2,2.7,3,4c-1,0.7-2,1.5-3,2.2V9.7z"/>
	<path class="st0" d="M128.2,10.5c-0.2,0.2-0.3,0.1-0.5,0c-1.2-0.9-2.3-1.7-3.4-2.6c-0.2-0.1-0.3-0.1-0.5,0c-2,1-3.9,2-5.8,2.9
		c-0.2,0.1-0.3,0.3-0.3,0.5v7.5c0,0.2,0,0.4-0.2,0.5c-0.3,0.2-0.6,0.5-0.9,0.7h0c0.1,0.1,0.1,0.2,0.3,0.1c0.4-0.3,0.7-0.6,1.1-0.9
		c1.2,0.8,2.4,1.7,3.6,2.6c0.1,0.1,0.3,0.1,0.5,0c1.9-1.1,3.8-2.1,5.7-3.2c0.2-0.1,0.3-0.2,0.3-0.4c-0.1-2.2-0.1-4.5-0.1-6.8
		c0-0.3,0.1-0.6,0.4-0.7c0.3-0.1,0.5-0.3,0.8-0.5L129,10C128.7,10.2,128.5,10.3,128.2,10.5z M124.4,20.2c-0.1,0-0.2-0.1-0.2-0.1
		c-0.9-0.8-1.7-1.5-2.6-2.2c-0.1,0-0.2-0.2-0.2-0.3V9.7c0.5,0.5,1,0.9,1.6,1.3c0.4,0.4,0.9,0.7,1.3,1.1c0.1,0.1,0.2,0.2,0.2,0.3
		C124.4,15,124.4,17.6,124.4,20.2z"/>
	<path class="st0" d="M102.6,21c0.8-0.2,1.7-0.1,2.5,0c1.6,0.3,3.1,0.6,4.7,0.9c1,0.2,1.9,0.4,2.9,0.3c1.2-0.2,2-0.8,2.4-2
		c0.2-0.6,0.2-1.3,0.2-1.9V3.6c0-0.1,0.1-0.3,0.2-0.4l0.9-0.9L116.1,2c-0.4,0.3-0.7,0.7-1.1,1c-0.9-0.9-1.8-1.7-2.8-2.6
		c-1.3,1.1-2.5,2.1-3.8,3.2V0.8H108v20.1c-0.6,0-1.2-0.1-1.8-0.3c-0.2-0.1-0.3-0.3-0.3-0.5V5.4c0-0.6,0-1.1-0.1-1.6
		c-0.2-0.9-0.4-1.8-1-2.5c-0.5-0.6-1-0.9-1.8-0.9c-0.9,0-1.7,0.4-2.4,0.9C99.5,2,99.1,2.7,99,4c0-0.1,0.1-0.1,0.2-0.2
		c0.3-0.2,0.7-0.5,1.1-0.7c0.5-0.2,0.9-0.1,1.2,0.2c0.2,0.3,0.4,0.7,0.4,1.1v5v0.3c-0.9-0.1-1.7,0.1-2.4,0.6
		c-0.8,0.6-1.3,1.8-1.1,2.7c0.2,0.7,0.7,1.2,1.3,1.6c0.3,0.2,0.6,0.3,0.9,0.5c0-0.2-0.1-0.4-0.2-0.5c-0.2-0.4-0.2-0.8,0.1-1.2
		c0.3-0.4,0.8-0.6,1.3-0.5c0.3,0,0.3,0.1,0.3,0.3v7.3c0,0.2,0,0.2-0.2,0.3c-0.6,0.2-1.2,0.5-1.7,1c-1.4,1.3-1.5,3.7-0.2,5
		c1.1,1,2.4,1.4,3.9,1.2c1.8-0.3,3.5-0.7,5.3-1c0.9-0.2,1.8-0.3,2.8-0.2c0.5,0.1,0.8,0.3,1,0.8c0.1,0.5,0,0.9-0.3,1.2
		c-0.2,0.1-0.4,0.3-0.6,0.5c1-0.3,2-0.6,2.8-1.3c0.4-0.4,0.8-0.8,0.8-1.4s-0.1-1.2-0.2-1.8c-0.2-0.9-0.8-1.4-1.6-1.6
		c-0.5-0.1-0.9-0.2-1.3-0.2c-2.4,0-4.7,0.3-7,0.8c-0.8,0.2-1.6,0.3-2.4,0.4c-0.6,0-1.2-0.1-1.6-0.6c-0.4-0.4-0.5-0.9-0.3-1.4
		C101.5,21.5,101.9,21.1,102.6,21z M111.3,18.6c0,0.3-0.1,0.5-0.1,0.8c-0.1,0.8-0.7,1.4-1.6,1.5h-1.1V13c0-0.2,0-0.3,0.2-0.4
		c0.7-0.3,1.3-0.5,2-0.4c0.5,0.1,0.6,0.3,0.6,0.8V18.6z M111.3,12.1c-1-0.4-1.9-0.3-2.8,0.1v-2.1c0.9,0.7,1.8,0.6,2.8,0.2V12.1z
		 M108.5,4.5c0-0.1,0.1-0.3,0.2-0.4c0.3-0.3,0.6-0.5,0.9-0.8c0.2,0.2,0.6,0.4,0.9,0.7c0,0.1,0.1,0.2,0.2,0.2
		c0.5,0.3,0.6,0.7,0.6,1.3v4c0,0.1,0,0.2-0.1,0.3c-0.7,0.6-1.9,0.6-2.6,0c-0.1-0.1-0.2-0.3-0.2-0.4C108.4,7.7,108.5,6.1,108.5,4.5z"
		/>
	<path class="st0" d="M178.7,7.1c1-0.7,1.9-1.5,2.9-2.3c-0.8-0.7-1.6-1.5-2.4-2.2c-0.8,0.8-1.7,1.5-2.5,2.3
		C177.4,5.6,178,6.4,178.7,7.1z"/>
	<path class="st0" d="M182.7,19.3c-0.2-0.1-0.4-0.3-0.6-0.5c-0.1-0.1-0.2-0.3-0.2-0.4v-7.2c0-0.2,0-0.3,0.2-0.4
		c0.4-0.2,0.7-0.4,1.1-0.7c0-0.1,0-0.2-0.1-0.3h0c-0.3,0.2-0.7,0.4-0.9,0.4c-0.2,0.2-0.3,0.1-0.5,0c-0.8-0.7-1.6-1.5-2.5-2.2
		c-1.1,0.9-2.3,1.8-3.4,2.8h0.3c0.4,0,0.9-0.1,1.3-0.1c0.6,0,1,0.4,1,1V19c0,0.4-0.1,0.6-0.4,0.8c-0.4,0.3-0.7,0.5-1,0.8
		c0.1,0.1,0.2,0.2,0.3,0.2c0.3-0.2,0.5-0.4,0.8-0.7c0.1-0.2,0.2-0.1,0.4,0c0.3,0.3,0.7,0.5,1,0.8l1.5,1.2c1.1-0.8,2.2-1.6,3.2-2.4
		C183.6,19.8,183.1,19.6,182.7,19.3z"/>
	<path class="st0" d="M137.7,8c-0.8,0.7-1.6,1.4-2.5,2.1c-0.7-0.8-1.3-1.5-2-2.3c-1.3,1-2.5,2-3.8,3.1c0.1,0.1,0.1,0.2,0.2,0.3
		c0.3-0.2,0.5-0.4,0.8-0.6c0.5-0.4,0.9-0.3,1.1,0.3c0.1,0.3,0.2,0.6,0.2,0.9v6.7c0,0.2-0.1,0.4-0.3,0.5c-0.5,0.3-0.9,0.8-1.1,1.3
		c0.5-0.4,1.1-0.3,1.6,0l1.2,0.9c0.4,0.3,0.7,0.6,1.1,1c1.1-0.9,2.2-1.7,3.3-2.4h-0.7c-0.5-0.1-0.9-0.4-1.3-0.7
		c-0.1-0.2-0.2-0.4-0.2-0.6v-7.9c0.2,0.1,0.2,0.1,0.3,0.2c0.5,0.3,1.1,0.6,1.7,0.8c0.9,0.2,1.6,0,2.2-0.7c0.6-0.7,0.9-1.6,1.1-2.6
		C139.9,8.8,138.5,8.6,137.7,8z"/>
</g>
</svg>
