<svg id="Layer_1" xmlns="http://www.w3.org/2000/svg" viewBox="0 0 165.6 64.8"><style>.st0{fill:#8a8a8a}</style><path class="st0" d="M46.9 46.6h-2.8c-.3 0-.4-.1-.4-.4-.1-4.9-1.9-9.1-5.3-12.6-2.4-2.5-5.4-4.2-8.8-5-1.3-.3-2.6-.5-3.9-.5-4-.1-7.7.9-11 3.2-4.2 2.9-6.8 6.9-7.8 11.9-.2 1.1-.3 2.1-.3 3.2 0 .3-.1.3-.3.3H.5c-.3 0-.3-.1-.3-.4.1-3.7.9-7.3 2.6-10.6 2.6-5.1 6.4-9 11.6-11.5 2.2-1.1 4.6-1.8 7.1-2.2 1.4-.2 2.9-.4 4.3-.3 5.7.2 10.9 2 15.3 5.6 4.4 3.6 7.2 8.1 8.6 13.6.4 1.4.6 2.9.6 4.4 0 .4 0 .7.1 1.1 0 .3-.1.4-.4.4-1.2-.2-2.1-.2-3.1-.2zM101 46.7V25h10c2.6.1 5 .8 7.1 2.4 2 1.6 3.2 3.7 3.7 6.2.3 2 .3 3.9-.4 5.8-1.1 3.2-3.3 5.4-6.6 6.5-1.5.5-3 .7-4.6.7h-8.8c-.1.1-.3.1-.4.1zm5.7-16.7v11.6c1.3 0 2.6.1 3.9 0 1.8-.1 3.4-.9 4.4-2.5.9-1.3 1.1-2.8.9-4.3-.3-2.8-2.2-4.6-5-4.8-1.4-.1-2.8 0-4.2-.1.1.1.1.1 0 .1zM85.9 24.6c3 0 5.8.9 8 2.9 2 1.8 3.1 4.1 3.4 6.7.3 2.4 0 4.8-1.2 7-1.6 3-4.2 4.8-7.5 5.5-3.5.7-6.8.3-9.8-1.8-2.5-1.7-3.9-4.1-4.5-7-.4-2.1-.3-4.2.5-6.3 1.4-3.6 4-5.8 7.7-6.7 1.2-.2 2.3-.2 3.4-.3 0-.1 0 0 0 0zm-5.8 11.1c0 1.7.4 3.2 1.5 4.4 1.4 1.6 3.2 2.2 5.3 1.8 2-.3 3.4-1.4 4.2-3.2.5-1 .7-2.1.6-3.3-.2-3.4-2.5-5.6-5.4-5.8-1.7-.1-3.2.4-4.4 1.6-1.3 1.4-1.8 2.9-1.8 4.5zM122.3 46.7c.4-1 .8-2.1 1.2-3.1l6.9-18.3c.1-.2.2-.3.5-.3h6.5c.2 0 .3.1.4.3 2.6 7 5.3 14.1 8 21.1 0 .1.1.2.1.4h-6.1c-.3 0-.4-.1-.4-.3-.3-.9-.6-1.9-.9-2.8h-8.1c-.3 0-.4.1-.5.3-.3.9-.6 1.7-.9 2.5 0 .1-.2.2-.3.2h-6.4zm14.3-8.1c-.9-2.6-1.7-5.1-2.6-7.7h-.1c-.9 2.5-1.7 5.1-2.6 7.6 1.8.1 3.6.1 5.3.1z"/><path class="st0" d="M38.6 46.6h-2.9c-.2 0-.3 0-.3-.3-.2-4.3-2.3-7.3-6.2-9.1-4.9-2.2-10.8 0-13.2 4.7-.7 1.3-1.1 2.7-1.2 4.2 0 .5 0 .5-.5.5H8.7c-.3 0-.4-.1-.4-.4.1-3.1.9-6 2.6-8.6 2.5-3.9 6-6.3 10.5-7.3 1.6-.4 3.3-.4 4.9-.3 4.4.4 8 2.2 11 5.4 2.2 2.4 3.5 5.1 4.1 8.3.1.8.2 1.7.3 2.6 0 .2-.1.3-.3.3h-2.8zM143.4 25h6.2c.2 0 .3.1.5.3 1.4 2.4 2.9 4.9 4.3 7.3 0 .1.1.1.2.3.1-.1.1-.2.2-.3 1.4-2.4 2.8-4.9 4.2-7.3.1-.2.2-.3.5-.3h6.2c-.1.2-.2.3-.2.4l-7.8 12.3c-.1.2-.2.4-.2.6v8.4h-5.7v-.4-8c0-.2-.1-.5-.2-.6l-7.8-12.3c-.2-.1-.3-.3-.4-.4zM72.7 30h-6v16.7H61V30h-6v-5h17.8c-.1 1.6-.1 3.3-.1 5z"/><path class="st0" d="M25 46.6h-7.9c-.3 0-.4-.1-.4-.4.2-2.2 1-4.1 2.6-5.6 1.4-1.3 3.1-2 5-2.2 4.2-.4 8.2 2.6 8.9 6.8.1.4.1.7.1 1.1 0 .3-.1.4-.3.4h-5.7c-.7-.1-1.5-.1-2.3-.1z"/></svg>