<svg id="Layer_1" xmlns="http://www.w3.org/2000/svg" viewBox="0 0 161.7 25"><style>.st0{fill:#8a8a8a}</style><path class="st0" d="M24.7 2.6c1.1.2 2.3.4 3.4.7C37.4 5.6 44.3 14 44.8 23.6V25h-5.7c-.4-11.4-10-17-17.3-16.6-7.5.3-15.5 6.2-16 16.6H0v-2.3c.4-1.4.6-2.9 1.1-4.2C3.7 10.4 9.2 5.3 17.4 3.1l2.7-.6c1.6.1 3.1.1 4.6.1zM78.4 22.9c-4.2-1.7-7.6-4.1-8.5-9C68.6 7.5 72.1 2 78.2.5c6.5-1.6 12.7 1.7 14.5 7.7 1.8 6.3-1.3 12.2-7.7 14.3-.3.1-.7.3-1 .5-1.9-.1-3.8-.1-5.6-.1zm3-17.5c-3.4 0-5.8 2.6-5.8 6.2 0 3.4 2.4 6 5.6 6.1 3.3.1 5.9-2.6 5.9-6.1.1-3.6-2.4-6.2-5.7-6.2zM161.7 1.1c-2.7 4.1-5.9 8-7.9 12.4-1.1 2.4-.2 5.6-.2 8.8h-6.3c2.4-8.9-4.2-14.5-7.8-21.3l.3-.9c2.2.5 4.9.4 6.6 1.7 1.8 1.4 2.6 4 4.1 6.5 1.1-1.9 2.2-3.4 2.9-5 1-2.3 2.6-3.2 5-2.8 1.1.2 2.2.1 3.3.1v.5zM49.8.5H68v5h-5.9v16.7h-5.9V5.5h-6.4v-5z"/><path class="st0" d="M37.4 25h-5.8c-.2-3.1-1.5-5.7-4.1-7.5-1.8-1.2-3.8-1.7-5.9-1.5-4.4.3-7.5 3.6-8.3 9H7.6c.2-5.1 2.2-9.3 6.4-12.1 5-3.4 10.3-3.8 15.6-.9 5 2.6 7.5 7.1 7.8 13z"/><path class="st0" d="M15.1 24.9c0-4.2 3.4-7.5 7.6-7.4 4 .1 7.3 3.4 7.2 7.4H15.1zM96.6 22.4V.7c4.1 0 8.2-.4 12.1.1 5.8.7 9.1 5.4 8.9 11.3-.2 5.6-4.2 9.8-9.8 10.2-3.7.3-7.3.1-11.2.1zm5.9-5.1c3.3.2 6.3.5 8.2-2.6 1.4-2.2 1.3-4.7-.2-6.8-2-2.8-5-2.3-8-2.1v11.5zM141.7 22.4c-2.1 0-3.7.1-5.2 0-.6 0-1.5-.4-1.6-.7-.5-2.6-2.4-2.5-4.3-2.3-2.3.2-5.2-1.2-6.1 2.6-.1.3-1.3.4-2 .4-1.4.1-2.8 0-4.6 0 1.4-3.7 2.7-7.2 4-10.6 1.2-3.1 2.4-6.3 3.5-9.4.5-1.4 1.1-2.2 2.8-2 1.3.1 2.6-.1 3.9.1.7.1 1.6.7 1.8 1.3 2.6 6.7 5.1 13.4 7.8 20.6zM130.1 7.5h-.6c-.7 2.1-1.4 4.2-2.2 6.4h4.9c-.7-2.3-1.4-4.3-2.1-6.4z"/></svg>