<svg id="Layer_1" xmlns="http://www.w3.org/2000/svg" viewBox="0 0 165.6 64.8"><style>.st0{fill:#8a8a8a}</style><g id="g3710"><path class="st0" d="M9.2 1.2v11.2H31V1.2H9.2zm.4 11.1l.7-11.1H12L9.8 12.3h-.2zM15.9 8H14v2.3h-2V8.7l-1.9 3.6h-.2l2.2-6v-3h1.1l.8-2.1h2.1L15 3.3h1.4l.1 1.9H14v.9h1.9V8zm3.8 2.2c-1.8 0-3.3-1.5-3.3-3.4s1.5-3.4 3.3-3.4c1.8 0 3.3 1.5 3.3 3.4s-1.5 3.4-3.3 3.4zm10.4 2.1l-3.4-6.4-.5.8 2.1 3.6h-2.2l-1-1.8-1 1.8H22l2-3.6-2-3.4h2.2l.9 1.6.5-.9-1.5-2.8h2.1l.8 2.1h1.1l-.7 1.2 2.8 7.8h-.1zm.3 0L28.2 1.2H30l.7 11.1h-.3z" transform="translate(-4.449 -3.913) scale(4.3399)"/><path class="st0" d="M19.7 4.8c-.3 0-.5.2-.5.5v2.9c0 .3.2.5.5.5s.5-.2.5-.5V5.3c0-.3-.2-.5-.5-.5zM9.2 12.7v2.9H31v-2.9H9.2zm3.3 2.6h-.8l-1.1-1.4v1.4h-.8v-2.2h.9l1.1 1.4v-1.4h.7v2.2zm5.6-1.7h-1.5v.4H18v.5h-1.4v.4h1.5v.5h-2.3v-2.2h2.3v.4zm6.1 1.7h-.7l-.5-1.4-.5 1.4h-.7l-.9-2.2h.8l.4 1.5.5-1.5h.8l.5 1.5.4-1.5h.8l-.9 2.2zm6.2-.3c-.1.1-.2.2-.4.2-.1 0-.3.1-.4.1h-1c-.2 0-.3-.1-.4-.1-.1 0-.2-.1-.2-.2-.1-.1-.1-.2-.1-.4h.9c0 .1.1.2.1.2.1 0 .2.1.4.1h.2s.1 0 .1-.1v-.1c0-.1 0-.1-.1-.1s-.1 0-.3-.1l-.8-.1c-.2 0-.4-.1-.5-.2-.1-.1-.2-.2-.2-.4v-.2c0-.1.1-.2.2-.2.1-.1.2-.1.4-.2.2 0 .4-.1.6-.1.4 0 .8.1 1 .2.2.1.4.3.4.5h-.9c0-.1-.1-.1-.1-.2-.1 0-.2-.1-.4-.1-.3 0-.4.1-.4.2s.1.1.2.1h.4c.3.1.5.1.6.1.2 0 .4.1.5.2.1.1.2.2.2.4.1.3.1.4 0 .5z" transform="translate(-4.449 -3.913) scale(4.3399)"/></g></svg>