<svg id="Layer_1" xmlns="http://www.w3.org/2000/svg" viewBox="0 0 165.6 64.8"><style>.st0{fill:#8a8a8a}</style><path class="st0" d="M82.7 2.5c5.1 1.3 10.1 2.7 15.1 4v.6c-1.1 0-2.2.2-3.2 0-2.6-.5-5.2-1.2-7.8-1.9-2.5-.7-5-.9-7.6-.2-3.9 1.2-7.8 2-11.8 3-1.7 3.2-5.1 3.8-8.1 5.5v15.6c-.2.1-.5.2-.7.3-.4-.7-1.1-1.3-1.1-2.1-.1-4.8 0-9.7 0-14.6 2.8-1.9 6.7-1.8 8.3-5.8 4.7-1.1 9.7-2.4 14.6-3.6.7-.2 1.3-.5 1.9-.8h.4zM81.9 62.3c-4.1-2.3-8.3-4.4-12.2-6.9-2.1-1.3-3.7-3.2-5.6-4.9.1-.2.3-.5.4-.7.8.4 1.7.7 2.3 1.3 4.6 4.3 10 7.4 16.4 10 4.3-2.5 8.9-5.1 13.9-7.9-.3-.1 0 0 .2.1s.3.3.5.6c-4.2 3.8-9.2 6.1-14.2 8.4h-1.7zM148.4 31.6c.5.4.9.7 1.5 1.1-2.2 2.8-4.5 5.2-7.7 6.6-3.6 1.6-6 .9-8.2-2.2-1.3 1-2.5 2.1-3.8 2.9-3.2 1.9-5.4.9-6.2-2.7-1.2.3-2.4.5-3.8.8-4.6 5-8.7 4.4-10.6.7-.5.5-1 .9-1.6 1.3-1.2.8-2.3 1.7-3.6 2-1.1.3-2.9 0-3.6-.7-.7-.8-1-2.6-.5-3.6 2.1-4.8 4.5-9.5 6.8-14.3 1.3-.1 2.4-.3 4-.4-2.7 5.6-5.2 10.8-7.7 16.1.2.2.3.4.5.7.8-.3 1.9-.4 2.5-1 1.8-1.9 3.8-3.8 5.1-6.1 2.7-4.8 5-9.7 7.5-14.6.3-.7.7-1.3 1.1-2.1 1.1-.1 2.2-.2 3.7-.3-1.3 2.7-2.4 5-3.7 7.5.6-.1 1-.2 1.3-.2 2.8-.3 4.6 1.5 3.9 4.2-.5 2.1-1.6 4-2.5 6-.3.8-.8 1.6-1.3 2.7 2.6-.4 4.2-1.5 5.2-3.6 2.5-5.1 5.1-10.2 7.7-15.2.3-.7.7-1.3 1.1-2 1.1-.1 2.2-.2 3.6-.3-3.8 7.9-7.8 15.4-11.5 23 .2.2.5.4.7.6.9-.4 2-.6 2.6-1.3 1.9-2.1 3.6-4.3 5.2-6.5 1-1.5 1.6-3.2 2.5-4.9 1.3-2.3 3.2-3.7 5.9-3.9 3.1-.3 4.7 2 3.7 4.9-1.6 4.6-4.2 6.4-10.1 6.7 0 1.1-.5 2.5 0 3.3.8 1.4 2.4 1.2 3.6.5 1.9-1.1 3.5-2.5 5.2-3.9.5-.5.9-1.2 1.5-1.8zm-30.3 3.6c1.2-2.5 2.4-4.9 3.5-7.4.3-.7-.3-1.6-.4-2.5-4.4 1.4-6.1 7.1-3.1 9.9zM145 24.9c-2.5-.2-4.2 1.9-5.2 6 3.1.7 5.8-2.4 5.2-6zm-30.7 9.3c-.5 1.5-1 2.8-1.4 4.1 2 1.3 3 .4 4-.8-.9-1-1.5-2-2.6-3.3zM18 33.2c1.3-.1 2.6-.3 4.3-.4-3.8 4.3-4.5 8.7-1.3 13.7.7-1.1 1.3-2 1.7-2.9 3.6-7 7.2-14 11-20.9 1-1.8 2.4-3.5 3.9-4.9 2.5-2.1 6.4-1.9 8.6.1 2 1.8 2.7 5.1.9 7.9-1.3 2-3.2 3.7-4.9 5.5-.1-.1-.3-.3-.4-.3v.4c5 4 4.3 10.2 2.1 14.3-4.2 7.9-14.9 10.7-22.4 5.8-6-3.8-7.7-12-3.5-18.3zm15.4-1c-1.5 2.8-2.9 5.6-4.4 8.4-1.5 2.8-2.9 5.5-4.4 8.3 6.6 3.6 15-.3 16.3-7.6.9-5-2.1-8.8-7.5-9.1zm1.5-3.1c2.8 0 5.2-.4 6.8-2.3 1-1.1 1.8-2.6 2.1-4 .2-.8-.5-2.3-1.2-2.7-.6-.4-1.9.3-2.8.7-.3.1-.6.5-.8.9-1.3 2.3-2.6 4.7-4.1 7.4zM72.4 45.5C78.2 37.1 82 27.7 87 18.9c.8-1.5 1.8-2.9 2.9-4.1 1.3-1.5 3.2-2.3 5.3-2.3 4.6 0 7.3 3.5 6 7.9-.9 3.2-3.2 5.2-6.2 6.8 4.9 4.3 5 9.4 2.3 14.7-2.8 5.5-8.9 8.6-15.1 8.1-4.6-.4-7.8-1.9-9.8-4.5zm5.4-.4c6.8 3.2 14.3 0 16.2-6.8 1.5-5.5-1.8-10-7.4-9.9-2.9 5.5-5.8 11-8.8 16.7zM88.2 25c4.3.4 8-1.9 8.8-5.3.3-1.3.5-2.8-1-3.5-1.4-.8-2.7 0-3.4 1.2-1.6 2.4-2.9 5-4.4 7.6z"/><path class="st0" d="M60.2 41.8c-1.1 1-2.1 2.1-3.2 2.9-.9.7-2 1.3-3.2 1.6-1.5.5-3 .3-4-1s-1-2.8-.3-4.2c1.3-2.7 2.7-5.2 4.1-7.8.6-1.1.7-2.1-.7-3.1-1.9 2.7-3.8 5.4-6 8.6-.2-1.4-.3-2.2-.5-3.2 1.6-2.4 3.2-4.9 5-7.4-1.6-2.4-1.6-4.7.7-6.9.7.6 1.3 1.3 2.1 1.9-.1.6-.3 1.2-.4 2 .9 1.1 1.9 2.3 3 3.4 1.5 1.6 1.7 3.4.6 5.4-1.2 2.2-2.4 4.5-3.5 6.7-.4.7-.6 1.5-.9 2.3.1.2.3.4.4.6.9-.3 2-.3 2.5-.9 2-2.1 4-4.1 5.6-6.5 1.8-2.7 3.1-5.8 4.8-8.7 1.6-2.8 3.9-4.6 7.3-4.7 3.6-.1 5.9 2.6 5.3 6.1-.1.8-.3 1.5-.7 2.2-1.6 3-3 6.1-4.9 8.9-1.1 1.7-2.7 3.2-4.5 4.2-3.6 2.1-6.5 1.1-8.6-2.4zm12.9-16.3c-1.1 1.1-2.4 2.1-3.1 3.4-1.8 3.1-3.4 6.3-5.1 9.4-.2.4-.5.9-.5 1.3 0 .6 0 1.6.4 1.9.5.4 1.4.5 2.1.3.7-.2 1.5-.7 1.8-1.3 2.2-3.8 4.2-7.8 6.2-11.7.5-1.2.3-2.4-1.8-3.3zM94.9 46.8c1-1.1 1.5-1.7 2.1-2.4 17.2-1.3 34.5-2.7 52-4-.5.9-.8 1.6-1.1 2.3-17.5 1.4-34.9 2.7-53 4.1zM71.4 46.4c.8.6 1.4 1.1 1.9 1.6 0 .2-.1.3-.2.5-10.4.8-20.8 1.6-31.8 2.4 1.2-1 1.9-1.6 3.1-2.5 8.5-.6 17.8-1.3 27-2zM98.4 10c-.4.4-.8.7-1.3 1.1 0-.6-.1-1.3-.2-2.2-4.5-1.1-8.9-2.2-13.7-3.4v10.3h-.6V5.4c-4.9 1.2-9.4 2.3-14 3.5v11.2h-.5v-9.7c-.6.2-1.1.3-1.9.6.8-1 1.3-1.7 1.9-2.5 4.5-1.1 9.1-2.3 13.8-3.4.8-.2 1.8 0 2.7.2 3.8.9 7.5 1.8 11.2 2.7 1.2.2 2.3.6 2.6 2-.1 0 0 0 0 0zM107.9 21.5c-.6-.3-1.1-.5-1.6-.7v-7.3c-2.7-1.6-6-2.1-7.8-5 .5-.4 1-.7 1.3-.9 1.9 2.9 5.3 3.4 8.1 4.9v9zM111.8 16.8c.4.7 1.4 1.6 1.5 2.5.1 1.3-1 2.2-2.4 2.1-1.3-.1-2.1-.9-2-2.2.1-1.5.9-2.2 2.9-2.4zM80.2 59c2.3.8 4.4.2 6.4-1.1 3.5-2.2 7.1-4.4 10.6-6.7-.1-.2-.2-.3-.3-.5 0-.9.1-1.7.2-2.6h.3c.1.5.2 1.1.3 1.9.9-.8 1.6-1.4 2.4-2.2-1.4 3.7-9.7 9.5-17.5 12.4-.7-.3-1.6-.8-2.4-1.2z"/><path class="st0" d="M98.3 10c2.3 1.3 4.6 2.6 7 3.9v7.7h-.5v-6.8c-2.5-1.8-4.5-3.3-6.5-4.8.1 0 0 0 0 0zM99.5 52.7c-.5-.4-.8-.7-1.1-1 1.2-1.4 2.3-2.7 3.5-4 .4-.4 1.1-.4 1.9-.3-1.3 1.7-2.7 3.4-4.3 5.3zM60.2 30.3V20.1h.4v10.2h-.4zM60.1 18.7v-4.9c1.7-.8 3.5-1.7 5.4-2.6.1.2.2.3.3.5-1.6.8-3.2 1.6-4.9 2.5-.1 1.5-.3 3-.4 4.5h-.4zM105.9 37.8c.6-2.1 1.1-3.7 1.5-5.3.2 0 .4.1.6.2.1 1.8.4 3.6-2.1 5.1zM75.6 56.4c-3.3-1.2-5.9-3.3-7.8-6.2 2.5 2.1 5.1 4.2 7.8 6.2zM83 51.3v5.2h-.4v-5.1c.1 0 .2-.1.4-.1zM80.2 59c-1.6-.8-3.1-1.7-4.6-2.5 1.5.8 3 1.6 4.6 2.5zM82.5 41.3v-3h.4v3h-.4z"/></svg>