<svg id="Layer_1" xmlns="http://www.w3.org/2000/svg" viewBox="0 0 165.6 64.8"><style>.st0{fill:#8a8a8a}</style><path class="st0" d="M7.3 27v19.4h2v1.9H2.8v-1.9h1.7V18.2H2.8v-1.9H11c.3 0 .4.1.4.4 1.3 5.1 2.5 10.2 3.8 15.3.2.7.3 1.4.6 2.1 0-.1.1-.2.1-.3.8-3.3 1.5-6.5 2.3-9.8.6-2.4 1.1-4.9 1.7-7.3.1-.3.2-.4.4-.4h8v1.8h-1.4V46c0 .3.1.4.4.4h1.1v1.9h-9.5v-1.9h1.6c.3 0 .3-.1.3-.3V27.2c0-.1 0-.2-.1-.3l-.3 1.2c-.7 2.8-1.3 5.6-2 8.5-.9 3.8-1.8 7.6-2.6 11.4-.1.5 0 .4-.6.4h-2.6C10.7 41.2 9 34.2 7.3 27zM75 18.2h-1.7v-1.8c0-.1.1-.1.1-.1h9.8v1.9h-2v13.2h6.2V18.2h-1.9v-1.8h9.7v1.8h-1.6v27.9c0 .3.1.4.4.4h1.3v1.9h-9.7v-1.9h1.2c.8 0 .8 0 .8-.8V34.2v-.4h-5.9c-.3 0-.4.1-.4.3v12.5h2v1.9h-9.8v-1.9h1.4c.3 0 .3-.1.3-.3V18.7c-.2-.2-.2-.3-.2-.5zM161.2 46.4h1.5v1.9h-8.4v-1.9h.8c.4 0 .4 0 .4-.4V36v-6c0-.3-.1-.7-.1-1-.1-.5-.5-.8-1-.8-.7-.1-1.3.3-1.6.9-.4.8-.5 1.7-.5 2.6v14.6c0 .3.1.4.3.3h.8v1.9h-7.8v-1.9h1.1V18.8h-1.3c-.3 0-.4-.1-.3-.3v-1.3c0-.2.1-.3.3-.3 2-.2 3.9-.4 6-.6.3 0 .6-.1.9-.1V27s.1 0 .1.1l.4-.4c1.5-1.8 4.1-2.4 6.3-1.6 1.2.5 1.8 1.4 2.1 2.6.1.7.3 1.4.3 2.1v16.4c-.3-.1-.3.1-.3.2zM43.8 27.2h-1.4c-.3 0-.3-.1-.3-.3v-1.6c2.4-.3 4.7-.5 7.1-.8v2.1c.3-.3.7-.6 1-.9 1.3-1 2.6-1.4 4.2-1.3.8.1 1.6.3 2.2.8.8.6 1.2 1.5 1.4 2.4.1.6.2 1.3.2 1.9V46.3h1.1v1.9h-8v-1.9h1.2v-.4-16.1c0-.3 0-.6-.1-.8-.1-1.1-1.1-1.3-1.9-1-.6.2-.9.6-1 1.2-.2.6-.3 1.3-.3 2v14.7c0 .3.1.4.4.4h.8v1.9h-8.5v-1.8c0-.1.1-.1.3-.1h1.1c.3 0 .3-.1.3-.3v-5.5-13.1c.2 0 .2-.1.2-.2zM119.1 48.4v-2.2h-.1c-.2.3-.4.5-.6.8-.7.9-1.6 1.6-2.8 1.8-1.6.3-3 0-4.1-1.3-.7-.8-1.1-1.8-1.2-2.8-.3-1.7-.3-3.4.1-5.1.4-2 1.6-3.4 3.4-4.5 1.4-.8 2.9-1.4 4.5-1.9.3-.1.4-.2.3-.4v-3.7c0-.4-.1-.9-.1-1.3-.2-1.1-1.4-1.5-2.2-.9-.4.4-.6.9-.6 1.4-.1 1.3-.1 2.6-.1 3.9 0 .4 0 .4-.4.4h-4.1c-.3 0-.4-.1-.4-.4.1-.9 0-1.8.2-2.6.7-2.8 2.5-4.4 5.2-5 1.4-.3 2.8-.3 4.2.1 2.1.5 3.3 1.8 3.6 3.8.1.7.2 1.4.2 2v15.9h1.2v1.9c-2 .1-4.1.1-6.2.1zm-.5-13.2c-.1 0-.1.1-.1.1-.1.1-.3.1-.4.3-1.3.8-2.1 1.8-2.3 3.3-.1 1.3-.1 2.6-.2 3.9 0 .6.1 1.3.3 1.8.3 1 1.3 1 1.8.7.3-.2.6-.4.6-.8.1-.6.3-1.2.3-1.8v-7-.5z"/><path class="st0" d="M42.4 36.6h-8.7v2.3c.1 1.6.1 3.1.5 4.6.2.6.4 1.3.8 1.8 1.1 1.3 3.3.9 4.1-.6.4-.8.6-1.6.6-2.4v-1.8H42c0 .6.1 1.3 0 1.9-.1.9-.3 1.9-.6 2.8-.6 2.1-2.1 3.3-4.3 3.5-.8.1-1.5.2-2.3.1-1.9-.2-3.5-.9-4.8-2.4-1.3-1.6-1.9-3.4-2.3-5.5-.3-1.4-.3-2.8-.3-4.3.1-2.4.3-4.7 1.2-6.9.6-1.6 1.6-3.1 3.1-4.2 1.3-.9 2.8-1.3 4.5-1.1 1 .1 1.9.3 2.8.9 1.1.8 1.8 1.8 2.3 3 .5 1.4.8 2.8.9 4.2.1 1.3.1 2.5.2 3.7v.4zm-8.6-2.1h3.3c.2 0 .2-.2.2-.3-.1-1.5-.1-2.9-.1-4.5l-.3-1.8c-.2-.7-.6-1-1.1-1-.6 0-1 .4-1.2.9-.2.6-.4 1.3-.4 1.9-.1.9-.2 1.9-.3 2.9-.1.7-.1 1.2-.1 1.9zM100.9 36.6v2.6c.1 1 .1 1.9.3 2.9.1.9.3 1.7.6 2.4.6 1.1 1.3 1.6 2.6 1.5 1-.1 1.8-.7 2.1-1.8.4-1 .4-2 .4-3v-.8h2.3c0 .4.1.9 0 1.3-.1 1-.2 2-.4 3-.3 1.4-1.1 2.6-2.4 3.3-.6.3-1.3.6-1.9.7-.8.1-1.5.2-2.3.1-1.5-.1-2.9-.6-4.1-1.6-1.6-1.4-2.4-3.3-2.9-5.3-.8-3.5-.7-7.1.3-10.6.5-1.8 1.3-3.5 2.6-4.8 1.5-1.6 3.4-2.2 5.5-1.9 1.4.1 2.6.6 3.6 1.6.9.9 1.3 2.1 1.6 3.3.4 1.4.6 2.8.6 4.3.1.8.1 1.7.1 2.5 0 .3-.1.4-.4.4h-7.8c-.1-.1-.2-.1-.4-.1zm0-2.1h3.4v-1.6c-.1-1.1-.1-2.2-.1-3.3-.1-.7-.3-1.3-.4-2-.1-.4-.5-.6-.9-.6s-.9.1-1.1.6c-.2.4-.4.8-.4 1.1-.2 1.2-.3 2.4-.4 3.6-.1.7-.1 1.4-.1 2.2zM72.2 32.9h-1.6c-.3 0-.2-.2-.2-.3-.1-.9-.2-1.9-.3-2.8-.2-.9-.5-1.8-1.1-2.5-.9-1-2.6-1-3.4-.1-.5.6-.6 1.3-.6 2 .1 1.2.6 2.3 1.4 3.1.9.9 1.9 1.6 2.8 2.4 1.3 1.1 2.4 2.2 3.1 3.7.6 1.4.9 2.8.8 4.3-.1 1.1-.3 2.1-.9 3.1-.9 1.4-2.2 2.3-3.8 2.8-1.1.3-2.3.4-3.4.3-1.5-.1-3-.4-4.4-1.1-.2-.1-.3-.2-.3-.4v-7.2-.3h1.9v.4c.1 1.5.2 2.9.7 4.3.3.8.8 1.6 1.6 1.9.9.4 2.3.3 3-.5.4-.4.5-.9.6-1.5.2-1.4-.3-2.6-1.3-3.7-.9-.9-1.8-1.8-2.7-2.6-1.3-1.1-2.5-2.3-3.2-3.9-.9-2.3-1.1-4.6.1-6.8.8-1.4 2.1-2.3 3.6-2.8 2.6-.7 5-.3 7.3.8.1.1.3.3.3.4v7zM134 25.2h1.6c.3 0 .4-.1.4-.3 1-2.1 1.9-4.1 2.9-6.2.1-.3.3-.4.6-.4h1.8v6.6h3.8V27c0 .1-.2.1-.3.1h-3.6v17c0 .4.1.8.1 1.1.1.4.3.6.7.7.4 0 .8-.1.8-.6.1-.4.1-.9.1-1.3v-3.3-.4h2.1v.2c0 1.4 0 2.7-.1 4.1-.1 1.1-.4 2.1-1.2 2.9-.6.6-1.3.9-2.1 1.1-.7.1-1.4.2-2.1.1-.8-.1-1.7-.2-2.4-.7-.9-.6-1.3-1.5-1.4-2.5-.1-.8-.2-1.6-.2-2.4V27.3c0-.4 0-.4-.4-.4H134c-.1 0-.3 0-.3-.2.3-.4.3-1 .3-1.5zM127.3 18.7h-1.8V17c0-.1.1-.2.2-.2 1.8-.2 3.6-.4 5.5-.6.4-.1.8-.1 1.1-.2h.5v30.5h1.7v1.9h-8.4v-1.9h.9c.2 0 .3-.1.3-.3V46 19.1v-.4zM58.7 25.4v-4.1h-1.1c-.3.1-.4 0-.4-.3v-4.4c0-.2 0-.3.3-.3h4.7v1c.1 1.1-.1 2.1-.4 3.1l-1.2 4.8c-.1.3-.1.4-.4.3-.5-.1-1-.1-1.5-.1z"/></svg>