<svg id="Layer_1" xmlns="http://www.w3.org/2000/svg" viewBox="0 0 393.5 226.4"><style>.st0{fill:#f7f7f7}</style><g id="V8dwPr.tif_4_"><path class="st0" d="M381.4 44c-.1-1.1-.3-2.2-.4-3.2-1-6.8-3.2-13.1-7-18.9-5.8-8.7-14.1-14.2-23.8-17.6-8.7-3-17.7-4.1-26.8-4.3-6.1-.1-12.1.3-18.1 1.2-7.3 1.2-14.3 3.1-20.9 6.5-9.1 4.8-16.1 11.6-19.8 21.3-3.1 7.9-3.6 16.1-2.1 24.4 2 11.2 8 19.7 17.7 25.5 3.8 2.3 8 3.8 12.3 5.2 11.2 3.8 22.8 6.6 34.3 9.5 3.5.9 6.9 1.8 10.2 3.4 6 3 6.3 11.7.6 15.2-1.1.6-2.2 1.2-3.3 1.6-6.4 2-12.9 2-19.3.3-4.7-1.2-7.9-4.2-9.8-8.6-.5-1.1-.9-2.3-1.2-3.4-.2-.8-.5-1.1-1.4-1.1-13.9.1-27.8.2-41.8.2h-1.1c0 .6-.1 1.1 0 1.6.2 1.5.5 3 .8 4.5 3.3 16.5 12.7 28.1 27.9 35.1 10 4.5 20.6 6.1 31.4 6.3 7.6.2 15.1-.3 22.6-1.6 7.2-1.3 14.2-3.4 20.6-6.9 9.5-5.1 16.3-12.5 20-22.8 2.4-6.9 3.1-13.9 2.6-21.2-.3-4.6-1.3-9.1-3.4-13.2-4.1-8.4-10.7-14.1-18.8-18.3-5.7-2.9-11.8-4.6-17.9-6.2-9.2-2.4-18.4-4.6-27.5-7-2.7-.7-5.3-1.8-7.9-3-2-.9-3.4-2.6-3.9-4.8-.9-4.2.3-8.9 5.7-10.7 5.9-1.9 11.8-1.7 17.7.1 4.7 1.4 7.5 4.7 8.7 9.4.1.5.3 1.1.4 1.6 14.2 0 28.4-.1 42.7-.1zM269 4h-1.2c-14 .1-28.1.1-42.1.2-.9 0-1.2.3-1.4 1.1-8.2 29.7-16.3 59.5-24.5 89.2-.1.3-.2.5-.4 1-.2-.8-.4-1.3-.5-1.8-7.8-29.4-15.6-58.8-23.4-88.3-.2-.8-.5-1-1.3-1-14.7.1-29.4.2-44.1.2h-1c.1.4.2.8.4 1.1 15.8 46.3 31.6 92.5 47.4 138.8.3.8.7 1 1.5 1 14.3-.1 28.6-.2 42.9-.2.8 0 1.2-.3 1.4-1C237.9 98.2 253.2 52 268.5 5.8c.1-.6.3-1.1.5-1.8zm-76.6 165.6c-4.9 0-9.5 0-14.2.1.1 13.3.1 26.5.2 39.7 5.1 0 10.2 0 15.4-.1v-1.2c0-6.8-.1-13.6-.1-20.3 0-1.5.4-3.1 1-4.4 1-2.3 3.1-2.7 5.4-2.5 2 .2 3.5 1.2 4.1 3.1.4 1.3.6 2.6.6 3.9.1 6.7.1 13.4.1 20.1v1.2c5.2 0 10.3-.1 15.4-.1v-1.2c0-6.9-.1-13.8-.1-20.7 0-4.7 2.3-6.9 6.7-6.5 1.8.2 3.2 1.1 3.7 2.9.4 1.2.6 2.6.6 3.8.1 6.8.1 13.7.1 20.5v1.2c5.2 0 10.3-.1 15.4-.1 0-.2.1-.3.1-.4-.1-9.4.1-18.9-.2-28.3-.2-5.3-2.8-9.3-8-11.1-6.7-2.3-14.6-1.3-19.9 5-.3.3-.5.6-.9 1-2.9-4.8-7-7.1-12.5-6.9-5.3.2-9.6 2.5-12.9 6.7v-5.4zM54.9 156l.3 54c5.2 0 10.4-.1 15.6-.1v-1.2c0-6.1-.1-12.2-.1-18.4 0-1.1 0-2.2.2-3.3.4-4 2.7-5.9 6.7-5.7 2 .1 3.5 1.1 4.1 3.1.3 1 .5 2.1.5 3.1.1 7.1.1 14.1.2 21.2v1.2c5.3 0 10.5-.1 15.8-.1v-1.2c0-5.8 0-11.6-.1-17.4 0-3.2-.1-6.4-.4-9.6-.5-5.2-2.8-9.3-7.8-11.3-1.5-.6-3.3-1-4.9-1.1-5-.5-9.5.9-13.2 4.4-.2.2-.5.5-1 .9 0-6.3-.1-12.4-.1-18.5H54.9zm74.2 53.7c5.3 0 10.5-.1 15.9-.1-.2-.5-.2-1-.4-1.2-1.1-1-1.5-2.3-1.5-3.8 0-7.8-.1-15.6-.1-23.4 0-3.3-1-6.3-3.7-8.5-1.8-1.5-3.9-2.4-6.1-3-5.1-1.4-10.3-1.5-15.6-1.1-3.5.3-6.9 1-10 2.7-3.2 1.8-5.4 4.3-6.1 8-.2.8-.2 1.7-.3 2.5.2.1.3.1.4.1h14.3c.6 0 .7-.3.8-.8.4-1.5 1.3-2.5 2.8-2.9 2.1-.6 4.1-.5 6.2.2 1 .3 1.6.9 1.9 1.9.6 2.2-.4 3.8-3 4.2-3.9.6-7.8 1.1-11.6 1.7-2.9.5-5.8 1.2-8.5 2.6-2.1 1.1-3.5 2.8-4.3 5-.7 2-.8 4.1-.6 6.1.4 4.4 2.3 7.9 6.4 9.7 1.5.7 3.2 1.1 4.9 1.3 6 .7 11.6-.5 16.4-4.5.2-.2.5-.4.8-.6.3 1.4.6 2.6 1 3.9zm136.1-28.6c.6-2.1 1.2-3 2.6-3.5 2.2-.8 4.5-.7 6.7.1 1.2.4 1.8 1.4 1.8 2.7 0 1.9-.9 3-3.1 3.4-3.5.6-7 .9-10.5 1.5-3.2.5-6.3 1.1-9.2 2.6-2.8 1.4-4.6 3.6-5.1 6.8-.2 1.3-.3 2.7-.3 4.1.3 4.7 2.3 8.5 6.8 10.3 1.4.6 3 .9 4.5 1.1 6.1.7 11.7-.5 16.4-4.5.2-.2.5-.3.8-.6.3 1.1.6 2 .8 2.9.1.7.4.9 1.1.9 4.6-.1 9.3-.1 13.9-.1.3 0 .6 0 1-.1-.1-.5-.1-.9-.3-1.1-1.3-1.1-1.5-2.6-1.5-4.2 0-7.9-.1-15.8-.2-23.8-.1-3.5-1.5-6.4-4.4-8.3-1.3-.8-2.7-1.6-4.1-2-7.7-2.3-15.5-2.3-23.2-.2-2.8.8-5.3 2.1-7.3 4.4-1.8 2.2-2.6 4.7-2.7 7.6 5.4.1 10.4.1 15.5 0zm72.5 12.1c-5.1 0-10.2 0-15.2.1-.2 0-.6.4-.6.7-.8 4.3-3.8 5.6-7.4 5.1-2.9-.4-4.4-2.5-4.8-5.2-.4-2.6-.5-5.3-.4-7.9.1-1.6.6-3.4 1.3-4.9 1.1-2.4 3.7-3.2 6.9-2.7 2.3.4 3.7 1.9 4.1 4.5.1.7.4.9 1.2.9 4.6-.1 9.2-.1 13.8-.1.3 0 .6 0 1-.1-.1-.9-.2-1.7-.4-2.6-1.2-5.7-4.7-9.6-10-11.7-7-2.8-14.2-2.9-21.4-.3-6 2.2-9.8 6.5-11.6 12.5-1.1 3.7-1.2 7.4-.6 11.2 1 6.5 4.2 11.7 10.2 14.5 8 3.8 16.3 3.8 24.4.1 6-2.4 9-7.4 9.5-14.1zm-162.9-24.6c-6.4-.3-11.3 1.7-13.6 8.1-.1-2-.2-3.9-.1-5.8 0-.9-.2-1.2-1.1-1.2-4.1.1-8.2.1-12.3.1-.3 0-.7.1-1 .1.1 13.3.1 26.5.2 39.7 5.3 0 10.5-.1 15.7-.1v-1.1c0-5.3-.1-10.6 0-15.9 0-2.9.8-5.7 3.7-7.1 1.3-.6 2.8-.9 4.2-1.1 1.5-.2 3-.1 4.5-.1-.1-5.2-.1-10.4-.2-15.6zm218.7-7.9c-.1-.9 0-1.9-.3-2.7-1.2-3-4.9-4.5-8.1-3.3-3.1 1.1-4.9 4.5-4.1 7.6.8 3.1 3.9 5.3 6.8 4.9 3.7-.6 5.6-2.8 5.7-6.5zM0 72.6c.1-1.9.3-3.7.4-5.6 1.3-16.2 6-31.2 16.9-43.7 8.6-9.8 19.4-16 31.9-19.3C58 1.7 66.9 1 76 1.3c8.7.3 17.3 1.5 25.6 4.4 19.6 6.8 31.6 20.5 36.4 40.6.5 2 .9 4.1 1.2 6.2.3 1.8.4 3.6.7 5.4-14.6.1-28.9.1-43.2.2-.5-2.3-.9-4.6-1.6-6.9-2.6-8.5-8.6-13.1-17.2-14.4-4.5-.7-9.1-.6-13.5.7-6.9 2-11.5 6.6-14.4 13.1-2 4.5-3.2 9.3-3.6 14.3-.3 4.5-.6 9-.5 13.4.1 7.1 1.1 14 3.8 20.6 2.6 6.2 6.7 11.2 13.1 13.8 4.6 1.9 9.5 2.3 14.4 1.8 4.1-.4 7.9-1.6 11.2-4 4.8-3.5 7.3-8.4 8.6-14.1.4-1.7.6-3.4.9-5.2 14.2-.1 28.5-.1 43-.2-.5 3.4-.9 6.8-1.5 10.2-1.6 8.6-4.7 16.6-9.7 23.8-7 10-16.5 16.5-27.9 20.5-6.5 2.3-13.2 3.5-20 4.1-5.8.5-11.5.5-17.3 0-14.5-1.2-27.9-5.4-39.4-14.6-10.2-8-16.8-18.4-20.8-30.6C2.2 97.8 1 91.1.5 84.2.4 82.6.2 81 .1 79.3 0 77.1 0 74.9 0 72.6zM9.2 226.4c0-.5-.1-.9-.1-1.4-.1-17.6-.1-35.3-.2-53.1 0-1.5 0-1.5 1.5-1.5 3.8 0 7.6 0 11.4-.1.8 0 1.1.2 1.1 1-.1 1.2 0 2.5 0 4 .4-.4.6-.7.8-.9 3.5-4.3 8.2-5.7 13.5-5.3 8.4.6 13.5 6.7 15.2 14 1.5 6.3 1.3 12.5-1.4 18.4-3 6.9-9.7 10.6-17.2 9.8-3.6-.4-6.6-1.8-8.9-4.5-.1-.1-.2-.2-.5-.4 0 6.8.1 13.3.1 19.9-5.2.1-10.3.1-15.3.1zm14.9-36.5c.2 1.6.2 2.9.5 4.2.6 3.3 2.7 5.2 5.6 5.4 3.3.2 5.7-1.2 6.6-4.2 1-3.4 1-6.9-.1-10.2-.9-2.7-2.8-4-5.7-4-3.1 0-5.2 1.3-6 4.2-.6 1.5-.7 3.2-.9 4.6z"/><path class="st0" d="M347.2 224.8c-.8-.1-1.6-.2-2.3-.2-1.8-.1-3.6-.1-5.4-.2 0-3.9 0-7.8-.1-11.7h3.4c1 0 2 0 3-.2 1.6-.3 2.5-1.4 2.3-3-.1-1.6-.5-3.2-1-4.7-4.2-11.6-8.5-23.2-12.8-34.7-.1-.3-.2-.7-.4-1.1.5 0 .8-.1 1.1-.1 4.6 0 9.1 0 13.7-.1.8 0 1.2.3 1.4 1.1 2.1 7.2 4.2 14.5 6.3 21.7.1.4.3.8.6 1.1.6-2.2 1.2-4.3 1.8-6.5 1.5-5.5 3-11 4.5-16.4.2-.8.5-1.1 1.4-1.1h13.7c-.1.5-.3.9-.4 1.4-4.5 14.1-9 28.2-13.6 42.4-.6 1.8-1.3 3.5-2.1 5.3-2 4.5-5.6 6.6-10.4 6.9l-3.3.3c-.5-.2-1-.2-1.4-.2zM381.4 44c-14.4.1-28.6.1-42.9.2-.1-.5-.2-1-.4-1.6-1.2-4.7-4.1-8-8.7-9.4-5.9-1.8-11.8-2-17.7-.1-5.4 1.8-6.7 6.5-5.7 10.7.5 2.2 1.9 3.9 3.9 4.8 2.5 1.2 5.2 2.3 7.9 3 9.2 2.4 18.4 4.6 27.5 7 6.1 1.6 12.3 3.3 17.9 6.2 8.1 4.2 14.8 9.9 18.8 18.3 2 4.2 3 8.6 3.4 13.2.5 7.2-.2 14.3-2.6 21.2-3.6 10.2-10.5 17.6-20 22.8-6.5 3.5-13.4 5.6-20.6 6.9-7.5 1.3-15 1.8-22.6 1.6-10.8-.3-21.4-1.8-31.4-6.3-15.3-6.9-24.6-18.6-27.9-35.1-.3-1.5-.5-3-.8-4.5-.1-.5 0-1 0-1.6h1.1c13.9-.1 27.8-.1 41.8-.2.9 0 1.2.2 1.4 1.1.3 1.2.7 2.3 1.2 3.4 1.9 4.4 5.1 7.4 9.8 8.6 6.5 1.7 12.9 1.7 19.3-.3 1.2-.4 2.3-1 3.3-1.6 5.8-3.5 5.4-12.2-.6-15.2-3.2-1.6-6.7-2.6-10.2-3.4-11.5-2.9-23-5.7-34.3-9.5-4.2-1.4-8.4-2.9-12.3-5.2-9.7-5.9-15.8-14.3-17.7-25.5-1.5-8.3-1-16.5 2.1-24.4 3.8-9.7 10.7-16.5 19.8-21.3 6.6-3.4 13.6-5.4 20.9-6.5 6-.9 12-1.3 18.1-1.2 9.1.2 18.1 1.3 26.8 4.3 9.7 3.4 18 8.9 23.8 17.6 3.8 5.7 6 12.1 7 18.9.4.9.5 1.9.6 3.1zM269 4c-.2.7-.4 1.3-.6 1.8-15.3 46.2-30.6 92.4-45.9 138.5-.3.8-.6 1-1.4 1-14.3 0-28.6.1-42.9.2-.8 0-1.2-.2-1.5-1C161 98.3 145.2 52.1 129.4 5.8c-.1-.3-.2-.7-.4-1.1h1c14.7-.1 29.4-.1 44.1-.2.8 0 1.1.2 1.3 1 7.8 29.4 15.6 58.8 23.4 88.3.1.5.3 1.1.5 1.8.2-.5.3-.7.4-1C208 64.8 216.1 35 224.3 5.3c.2-.8.5-1.1 1.4-1.1 14 0 28.1-.1 42.1-.2h1.2zM192.4 169.6v5.5c3.4-4.2 7.6-6.5 12.9-6.7 5.5-.2 9.6 2.1 12.5 6.9.4-.4.6-.7.9-1 5.3-6.3 13.2-7.3 19.9-5 5.2 1.8 7.8 5.8 8 11.1.3 9.4.2 18.9.2 28.3 0 .1 0 .3-.1.4-5.1 0-10.2 0-15.4.1V208c0-6.8 0-13.7-.1-20.5 0-1.3-.3-2.6-.6-3.8-.5-1.8-1.9-2.7-3.7-2.9-4.4-.4-6.7 1.7-6.7 6.5 0 6.9 0 13.8.1 20.7v1.2c-5.2 0-10.2 0-15.4.1v-1.2c0-6.7 0-13.4-.1-20.1 0-1.3-.2-2.7-.6-3.9-.6-2-2-3-4.1-3.1-2.3-.2-4.4.2-5.4 2.5-.6 1.4-.9 2.9-1 4.4-.1 6.8 0 13.6.1 20.3v1.2c-5.2 0-10.2 0-15.4.1-.1-13.2-.1-26.4-.2-39.7 4.7-.1 9.4-.2 14.2-.2zM54.9 156c5.2 0 10.3-.1 15.6-.1 0 6.1.1 12.1.1 18.5.5-.4.7-.7 1-.9 3.7-3.6 8.2-5 13.2-4.4 1.7.2 3.4.5 4.9 1.1 5 2.1 7.3 6.1 7.8 11.3.3 3.2.4 6.4.4 9.6.1 5.9.1 11.7.1 17.4v1.2c-5.3 0-10.4.1-15.8.1v-1.2c0-7.1-.1-14.1-.2-21.2 0-1-.2-2.1-.5-3.1-.6-2-2-3-4.1-3.1-4-.2-6.3 1.7-6.7 5.7-.1 1.1-.2 2.2-.2 3.3 0 6.1.1 12.2.1 18.4v1.2c-5.3 0-10.4.1-15.6.1.1-17.9 0-35.8-.1-53.9zM144.5 208.4c-1.1-1-1.5-2.3-1.5-3.8 0-7.8-.1-15.6-.1-23.4 0-3.3-1-6.3-3.7-8.5-1.8-1.5-3.9-2.4-6.1-3-5.1-1.4-10.3-1.5-15.6-1.1-3.5.3-6.9 1-10 2.7-3.2 1.8-5.4 4.3-6.1 8-.2.8-.2 1.7-.3 2.5.2.1.3.1.4.1h14.3c.6 0 .7-.3.8-.8.4-1.5 1.3-2.5 2.8-2.9 2.1-.6 4.1-.5 6.2.2 1 .3 1.6.9 1.9 1.9.6 2.2-.4 3.8-3 4.2-3.9.6-7.8 1.1-11.6 1.7-2.9.5-5.8 1.2-8.5 2.6-2.1 1.1-3.5 2.8-4.3 5-.7 2-.8 4.1-.6 6.1.4 4.4 2.3 7.9 6.4 9.7 1.5.7 3.2 1.1 4.9 1.3 6 .7 11.6-.5 16.4-4.5.2-.2.5-.4.8-.6.4 1.3.7 2.5 1 3.7 5.3 0 10.5-.1 15.9-.1-.1-.3-.1-.8-.4-1zm-17.3-11.2c-.5 2.2-2 3.7-4.2 4.1-1.5.3-3.1.3-4.6.2-1.7-.2-2.7-1.4-2.9-2.9-.2-1.8.3-3 2.1-3.6 2-.8 4.1-1.3 6.1-1.9 1.2-.4 2.4-.8 4-1.3-.1 2-.1 3.7-.5 5.4zM265.2 181.1c-5.1 0-10.1 0-15.2.1 0-2.9.8-5.4 2.7-7.6 1.9-2.3 4.5-3.7 7.3-4.4 7.7-2.1 15.5-2.1 23.2.2 1.4.4 2.8 1.2 4.1 2 3 1.9 4.4 4.8 4.4 8.3.1 7.9.2 15.8.2 23.8 0 1.6.2 3.1 1.5 4.2.2.2.2.7.3 1.1-.4 0-.7.1-1 .1-4.6 0-9.3 0-13.9.1-.7 0-1-.2-1.1-.9-.2-1-.5-1.9-.8-2.9-.3.2-.6.4-.8.6-4.8 4-10.4 5.2-16.4 4.5-1.5-.2-3.1-.5-4.5-1.1-4.6-1.9-6.6-5.6-6.8-10.3-.1-1.4 0-2.8.3-4.1.5-3.1 2.3-5.3 5.1-6.8 2.9-1.5 6-2.1 9.2-2.6 3.5-.5 7-.9 10.5-1.5 2.2-.4 3.1-1.5 3.1-3.4 0-1.3-.6-2.3-1.8-2.7-2.2-.8-4.5-.9-6.7-.1-1.7.4-2.3 1.3-2.9 3.4zm11.2 10c-1.5.5-2.7.9-4 1.3-2.1.6-4.1 1.2-6.2 2-1.5.6-2.1 1.7-1.9 3.4.1 1.5 1 2.5 2.4 2.9 1 .3 2.1.4 3.1.3 2.1-.1 4.2-.6 5.5-2.6 1.3-2.2 1.3-4.6 1.1-7.3z"/><path class="st0" d="M337.7 193.2c-.5 6.6-3.5 11.6-9.4 14.4-8.1 3.7-16.3 3.7-24.4-.1-6-2.9-9.2-8-10.2-14.5-.6-3.8-.5-7.5.6-11.2 1.8-6.1 5.6-10.4 11.6-12.5 7.1-2.6 14.3-2.5 21.4.3 5.3 2.1 8.8 6 10 11.7.2.8.2 1.7.4 2.6-.4 0-.7.1-1 .1-4.6 0-9.2 0-13.8.1-.7 0-1-.2-1.2-.9-.4-2.6-1.8-4.1-4.1-4.5-3.2-.5-5.8.3-6.9 2.7-.7 1.5-1.3 3.2-1.3 4.9-.1 2.6 0 5.3.4 7.9.4 2.6 1.8 4.8 4.8 5.2 3.6.5 6.7-.8 7.4-5.1.1-.3.4-.7.6-.7 4.9-.3 9.9-.3 15.1-.4zM174.8 168.6c0 5.3.1 10.4.1 15.6-1.5 0-3.1-.1-4.5.1s-2.9.5-4.2 1.1c-2.9 1.4-3.7 4.2-3.7 7.1-.1 5.3 0 10.6 0 15.9v1.1c-5.3 0-10.4.1-15.7.1-.1-13.2-.1-26.4-.2-39.7.3 0 .7-.1 1-.1 4.1 0 8.2 0 12.3-.1.9 0 1.2.3 1.1 1.2 0 1.9 0 3.8.1 5.8 2.5-6.5 7.4-8.4 13.7-8.1zM393.5 160.7c-.1 3.7-1.9 5.9-5.6 6.4-2.9.4-6-1.8-6.8-4.9-.8-3.1 1-6.5 4.1-7.6 3.2-1.1 6.9.3 8.1 3.3.2.9.1 1.9.2 2.8zm-6.3-5.3c-3 0-5.3 2.4-5.4 5.4 0 2.9 2.5 5.4 5.5 5.4s5.3-2.4 5.3-5.4c.1-3.2-2.3-5.5-5.4-5.4zM24.1 189.9c.2-1.3.4-3 .8-4.7.8-2.9 2.8-4.2 6-4.2 2.9 0 4.9 1.3 5.7 4 1.1 3.4 1.1 6.8.1 10.2-.9 3-3.3 4.4-6.6 4.2-2.9-.2-4.9-2.1-5.6-5.4-.2-1.2-.2-2.5-.4-4.1zM127.8 191.8c-.2 1.9-.2 3.7-.5 5.4-.5 2.2-2 3.7-4.2 4.1-1.5.3-3.1.3-4.6.2-1.7-.2-2.7-1.4-2.9-2.9-.2-1.8.3-3 2.1-3.6 2-.8 4.1-1.3 6.1-1.9 1.2-.4 2.4-.8 4-1.3zM276.4 191.1c.2 2.6.2 5.1-1.2 7.2-1.3 2-3.3 2.5-5.5 2.6-1 .1-2.1-.1-3.1-.3-1.4-.4-2.3-1.4-2.4-2.9-.1-1.6.4-2.8 1.9-3.4 2-.8 4.1-1.3 6.2-2 1.3-.3 2.6-.7 4.1-1.2z"/><path class="st0" d="M387.2 155.4c3.1 0 5.4 2.3 5.5 5.3 0 3-2.3 5.4-5.3 5.4s-5.5-2.4-5.5-5.4c0-2.9 2.3-5.3 5.3-5.3zm1.7 5.6c1-.5 1.6-1.1 1.5-2.2-.1-.8-.6-1.4-1.4-1.5-1.4-.2-2.9-.2-4.4-.3v6.9c1.6.3 1.7.2 1.7-.8 0-.6.2-1.2.3-1.8.4.5.8 1 1.1 1.5.7 1.4.9 1.5 2.5 1-.3-.9-.8-1.8-1.3-2.8z"/><path class="st0" d="M388.9 161c.5 1 1 1.9 1.4 2.9-1.6.4-1.8.3-2.5-1-.3-.6-.8-1-1.1-1.5l-.3 1.8c-.1 1-.1 1.1-1.7.8v-6.9c1.5.1 2.9.1 4.4.3.8.1 1.3.7 1.4 1.5 0 1-.6 1.6-1.6 2.1zm-2.4-.6c.7-.3 1.3-.4 1.8-.7.2-.1.1-.9 0-1-.5-.3-1.1-.4-1.8-.7v2.4z"/><path class="st0" d="M386.5 160.4V158c.7.3 1.3.4 1.8.7.2.1.2.9 0 1-.4.3-1.1.4-1.8.7z"/></g></svg>