<svg id="Layer_1" xmlns="http://www.w3.org/2000/svg" viewBox="0 0 165.6 64.8"><style>.st0{fill:#8a8a8a}</style><path class="st0" d="M82.8 51.2H2.4C-.4 51.2 0 51 0 48.9V24.5v-1c0-.6.3-1 .9-1h2.9c.6 0 .9.4.9 1v21.9c0 .7.4 1 1 1H163c2.8 0 2.5-.2 2.5 2.5 0 2 .4 2.2-2.3 2.2-26.7.1-53.6.1-80.4.1zM82.9 10.6h80.6c2.2 0 2.1-.1 2.1 2.2v25.5c0 .6-.4.9-1 .9h-2.8c-.6 0-.9-.3-.9-.9v-1.1-19.6-1.1c-.1-.9-.2-1-1.1-1.1H2.5c-2.7 0-2.4 0-2.4-2.3 0-2.5-.3-2.4 2.3-2.4 26.8-.1 53.6-.1 80.5-.1z"/><path class="st0" d="M50.8 30.7V24c0-1.5 0-1.5 1.5-1.5h5.6c2.5 0 4.4 1.1 5.5 3.5 1 2.3.7 4.5-1.1 6.4-.6.7-.6 1.1-.2 1.8.8 1.2 1.5 2.5 2.3 3.7.6 1.1.5 1.3-.8 1.4h-2.5c-.6 0-1-.2-1.4-.8-.7-1.2-1.5-2.4-2.2-3.6-.2-.4-.5-.8-1.1-.8-.9-.1-1.2.1-1.2 1.1v3.1c0 .7-.3 1-1 1h-2.4c-.9 0-1-.1-1.1-1.1v-5.1c.1-.8.1-1.6.1-2.4zm4.5-2.5c0 2 0 2 2 2 .3 0 .7 0 1-.1.3-.1.6-.3.8-.5.5-.7.5-1.5.2-2.2-.3-.7-.9-.9-1.6-.8h-1.3c-.7 0-1.1.2-1 1-.1.1-.1.3-.1.6zM31.2 30.8v-7c0-1.1.1-1.2 1.2-1.2h2c1.2 0 1.3 0 1.3 1.2v3.6c0 1.1.1 1.3 1.3 1.3h3.4c.7 0 1-.3 1-1v-3.8c0-1.3.1-1.4 1.5-1.4h2.2c.5 0 .8.3.8.8V37.7c0 1.5 0 1.5-1.5 1.5h-1.7c-1.2 0-1.3-.1-1.3-1.3v-4.1c0-1.1-.1-1.2-1.2-1.2H37c-1.1 0-1.2.1-1.3 1.3v4.2c0 .7-.2 1-1 1h-2.4c-1 0-1.1-.1-1.1-1.2v-7.1zM128.8 39.3c-2.4-.1-4.5-.5-6.4-1.4-.9-.4-.9-.5-.5-1.4.3-.7.6-1.4 1-2 .5-.9.4-.8 1.4-.4 1.2.5 2.4.8 3.6 1.2.3.1.6.1.8.1.5 0 1-.1 1.1-.6.1-.6-.3-.9-.7-1-.5-.2-1-.3-1.4-.5-.8-.3-1.6-.5-2.4-.8-1.9-.8-3.1-2-3.1-4.2.1-2.3 1.1-3.9 3.1-4.9 1.5-.7 3.2-.7 4.8-.4 1 .2 2.1.6 3 1 1 .4 1 .6.6 1.5-.3.6-.6 1.2-.9 1.7-.3.6-.7.8-1.3.5-.9-.4-1.8-.7-2.8-.9-.7-.1-1.6-.3-2 .6-.2.5.3 1 1.5 1.4.7.2 1.4.4 2.1.7.5.2 1.1.4 1.6.6 2.1 1.1 2.9 2.4 2.7 4.9-.2 2-1.4 3.5-3.5 4.1-.9 0-1.8.1-2.3.2zM19.3 22.5h5.6c1.4 0 1.5.1 1.5 1.4 0 2.8.4 2.6-2.5 2.6-2.6 0-2.3-.2-2.3 2.4v9c0 1.4-.1 1.4-1.4 1.4h-1.7c-1.4 0-1.4-.1-1.4-1.4v-8.6c0-2.8 0-2.8-2.7-2.8h-1.1c-.7 0-1-.3-1-1v-1.8c0-1 .1-1.1 1.1-1.1h.1c1.8-.1 3.8-.1 5.8-.1zM146.6 22.5h5.8c1.1 0 1.2.1 1.2 1.2 0 3.1.5 2.8-2.7 2.8-2.3 0-2 0-2 2.1v9.3c0 1.3 0 1.4-1.3 1.4h-2.2c-.7 0-.9-.3-.9-.9v-3.2V28c0-1.3-.1-1.4-1.5-1.4h-2.4c-.7 0-1-.3-1-1v-2c0-.7.3-1 1-1 1.9-.1 4-.1 6-.1zM78.1 30.9v-6.7c0-1.6 0-1.6 1.7-1.6h1.7c1 0 1.1.1 1.1 1.2v10.3c0 1.2.2 1.4 1.4 1.4h5c1.1 0 1.1 0 1.1 1.1v2c0 .6-.2.9-.8.9H79.1c-.8 0-.9-.2-.9-1.2-.1-2.7-.1-5-.1-7.4zM95.1 30.9v-6.7c0-1.6 0-1.6 1.7-1.6h1.8c.7 0 1 .3 1 1v10.5c0 1.1.1 1.2 1.2 1.2h5.2c1.1 0 1.1.1 1.2 1.1v1.7c0 1-.1 1.1-1.2 1.1h-9.6c-1.1 0-1.2-.1-1.2-1.2-.1-2.4-.1-4.8-.1-7.1zM73.3 30.8v6.9c0 1.5 0 1.5-1.6 1.5h-2c-.7 0-.9-.3-.9-.9v-.7-13.5c0-1.6 0-1.6 1.7-1.6h1.7c1 0 1.1.1 1.1 1.1v7.2zM116.5 30.9v7c0 1.3-.1 1.3-1.4 1.4h-2.2c-.6 0-.9-.2-.9-.8v-.8-13.3-.7c0-.7.3-1 1-1h2.4c1 0 1.1.2 1.1 1.2v7z"/></svg>