<svg id="Layer_1" xmlns="http://www.w3.org/2000/svg" viewBox="0 0 165.6 64.8"><style>.st0{fill:#8a8a8a}</style><path class="st0" d="M16.3 31.6l1.5.6c2.2 1.1 3.4 2.9 3.7 5.2.2 1.4.1 2.9-.4 4.2-1 2.6-2.9 4.1-5.5 4.6-1 .2-2 .2-3 .3H.5c-.4 0-.5-.1-.5-.5V18.3c0-.4.1-.5.5-.5H13c1.4 0 2.8.1 4.1.7 2.4 1.2 3.8 3.2 4.1 5.8.2 1.7-.2 3.3-1.1 4.8-.7 1.1-1.7 1.9-3 2.3-.4 0-.5.1-.8.2zM6.1 34.5v6.3c0 .3.2.3.5.3h2.3c1.3 0 2.6 0 3.9-.1 1.5-.1 2.6-1.2 2.8-2.7.2-1.7-.5-3.1-2-3.6-.7-.2-1.4-.3-2.1-.3-1.6-.1-3.2 0-4.8 0-.3 0-.4 0-.6.1zm0-11.4v6h.1c1.9 0 3.8.1 5.6 0 1.1 0 2.1-.5 2.6-1.6 1.1-2.1-.4-4.5-2.7-4.5H6.4s-.2 0-.3.1zM83.1 17.8h19.8v4.6c0 .6-.1.7-.7.7h-13v6h9.5c.7 0 .8.1.8.8v4.5h-9.9c-.4 0-.5.1-.5.5v10.9c0 .6 0 .6-.6.6h-5c-.4 0-.5-.1-.5-.5V18.2c.1-.1.1-.2.1-.4zM106.6 37.8c0 1.8 1.4 3.5 3.2 4.2 2.7 1.1 5.1.6 7.4-.8l.9-.6 2.4 3.6c-1.6 1.2-3.4 2.1-5.3 2.5-1.3.2-2.6.5-3.9.4-4.1-.4-7.4-2-9.3-5.7-1.1-2.1-1.3-4.4-1-6.6.3-1.9.8-3.7 2-5.2 1.5-2.1 3.7-3.3 6-3.9 3.5-.8 6.6-.3 9.4 2.1 1.9 1.6 2.9 3.7 3.3 6 .2 1.4.3 2.7.4 4.2-5.2-.2-10.4-.2-15.5-.2zm10.2-3.8c.1-1.1-.3-1.9-.9-2.7-2-2.4-5.9-2.5-8-.3-.7.7-1.1 1.5-1.2 2.4 0 .5 0 .5.5.5h9.1c.1.1.3.1.5.1zM140.4 40.6c.8 1.2 1.6 2.4 2.5 3.6-1.4 1.1-2.9 1.9-4.6 2.3-1.6.4-3.2.7-4.8.5-5.2-.5-9.1-3.4-10.1-8.5-.6-3.4-.2-6.5 2-9.2 2.3-2.9 5.2-4.2 8.9-4.1 5 .2 8.6 3.3 9.6 8.2.3 1.4.4 2.8.3 4.2v.3h-15.4c.2 1.5.9 2.6 2 3.5 1.3 1 2.8 1.4 4.4 1.3 2-.4 3.7-.9 5.2-2.1zM134 34h4.8c.3 0 .5-.1.4-.5-.1-.9-.4-1.6-1-2.3-1.4-1.6-3.9-2.3-6-1.5-1.7.6-2.9 1.7-3.2 3.6-.1.5 0 .6.5.6 1.4.1 2.9.1 4.5.1zM145.8 36.1v-9.7c0-.8 0-.9.9-.8 2.7 0 5.4 0 8.1.1 2 .1 4 .4 5.8 1.4 2.7 1.5 4.2 4 4.8 6.9.6 3.4-.1 6.5-2.5 9.1-1.8 2-4.2 3.2-6.8 3.3-3.3.1-6.5.1-9.8.1-.4 0-.4-.1-.4-.5-.1-3.3-.1-6.6-.1-9.9zm5.1-6.1v11.7c0 .2.1.3.3.3 1.3 0 2.6 0 3.9-.1 1.9-.2 3.4-1.1 4.3-2.8.7-1.3.9-2.6.8-4-.2-2.2-1.7-4.6-4.4-5-1.6-.1-3.2 0-4.9-.1zM37.2 25.7h5c.3 0 .4.1.4.4 0 4.4 0 8.7-.1 13-.1 3.9-2.9 6.9-6.6 7.6-1.5.3-3 .4-4.5.3-2.6-.3-5.1-1-6.8-3.2-1.2-1.5-1.8-3.2-1.8-5.1V25.9v-.2h5.3v11.8c0 .5 0 1 .1 1.5.2 1.4 1.1 2.4 2.4 2.9 1 .4 2.1.6 3.2.3 2.1-.5 3.3-2 3.3-4.2V26.3c.1-.2.1-.3.1-.6zM61.2 46.3H44.4v-3.9c0-.2.2-.4.3-.6 2.8-3.6 5.6-7.1 8.4-10.8.2-.2.4-.5.6-.8h-9.3v-.4V26c0-.3.1-.5.4-.5h16.3c0 1.1.1 2.2 0 3.3-.1.5-.4 1-.7 1.5-2.8 3.6-5.5 7.1-8.4 10.6-.1.1-.2.3-.4.5h9.6v4.9zM72.2 30.4h-9.3v-4.7H79c.5 0 .6.1.5.6 0 1 0 2-.1 3 0 .2-.2.5-.3.7-2.8 3.6-5.5 7.1-8.4 10.6-.2.3-.5.6-.8 1h9c.7 0 .8.1.8.8v3.9H63.4c-.6 0-.6 0-.6-.6v-3.1c0-.3.1-.6.3-.8l8.7-11.1c.1 0 .2-.2.4-.3z"/></svg>