<svg id="Layer_1" xmlns="http://www.w3.org/2000/svg" viewBox="0 0 165.6 64.8"><style>.st0{fill:#8a8a8a}</style><g id="UYQwdU_1_"><path class="st0" d="M97.8 49.2h-5.9v-14H80.5v14h-6V15.7h5.9v13.5h11.4v-7.6h-5.4v-6h11.3c.1 11.2.1 22.3.1 33.6zM130 15.6v5.8h-5.4v16.5c4.9-7.5 9.7-14.9 14.6-22.3h7.4C139 26.9 131.5 38 124 49.2h-5.4V15.6H130zM72.7 25.5H66c-.6-.6-1.2-1.2-1.9-1.7-4.2-3.6-11-3.5-15 1.9-4.7 6.5-1.4 14.9 5.1 17.3 3.8 1.4 7.3.6 10.2-2.2.4-.4.7-.8 1-1.1h7c-.1.3-.2.5-.3.7-2.6 5-6.9 7.9-12.4 8.7-8.8 1.3-17-5-18.5-13.8-1.7-9.6 5.1-17.8 13.5-19.2 7.2-1.2 14 2.1 17.4 8.3.2.3.4.7.6 1.1zM154.1 21.5v8h6.3v6h-6.3v7.8h11.2v5.8H148V15.6h17.3v5.9h-11.2zM99.7 49.1v-5.8h5.4V21.6h-5.4v-5.9h16.9v5.9h-5.4v21.8h5.4v5.8c-5.6-.1-11.2-.1-16.9-.1zM12 28.7h3.9v6.8c1-1 2.2-1.6 3.6-1.8 1.4-.2 2.8.1 4 .9 1.1.8 1.8 1.9 1.8 3.2.1 3.6 0 7.2 0 10.8 0 0 0 .1-.1.2h-3.9v-.9V40v-.6c-.1-1-.1-1.9-1.2-2.3-1.2-.5-2.6-.1-3.4.8-.6.8-.8 1.7-.8 2.7v8.3H12V28.7zM40.4 44.5c-.6 2.6-2.9 4.6-5.7 4.7-1 .1-2.1 0-3-.2-2.4-.5-4-2-4.7-4.4-.5-1.9-.6-3.8-.2-5.7 1-4.2 4.4-5.6 7.9-5.2 3.3.4 5.2 2.3 5.8 5.8.2.9.2 1.9.3 3H30.7c-.1 1.5.8 2.9 2 3.4 1.5.5 2.8 0 3.8-1.4h3.9zm-4-4.6c0-1.1-.4-2-1.3-2.6-1-.6-2.1-.7-3.1 0-.9.6-1.3 1.5-1.4 2.6h5.8zM4.2 30.4v3.8h6.3v3H4.3v6.2c1.2-1.2 2.4-2.3 3.4-3.3l3 2.7c-2.2 2.2-4.4 4.3-6.6 6.4H.2V30.4h4z"/></g></svg>