<?xml version="1.0" encoding="utf-8"?>
<!-- Generator: Adobe Illustrator 21.0.2, SVG Export Plug-In . SVG Version: 6.00 Build 0)  -->
<svg version="1.1" id="Layer_1" xmlns="http://www.w3.org/2000/svg" xmlns:xlink="http://www.w3.org/1999/xlink" x="0px" y="0px"
	 viewBox="0 0 279.3 97" style="enable-background:new 0 0 279.3 97;" xml:space="preserve">
<style type="text/css">
	.st0{fill:#F6D83D;}
	.st1{fill:#FFFFFF;}
</style>
<g>
	<g>
		<g>
			<path class="st0" d="M46.5,77.8c0-0.6,0.3-0.9,0.9-0.9h9.1c0.6,0,0.9,0.3,0.9,0.9v0.6c0,0.6-0.3,0.9-0.9,0.9h-7.2v6.5h6
				c0.6,0,0.9,0.3,0.9,0.9v0.6c0,0.6-0.3,0.9-0.9,0.9h-6v7.6c0,0.6-0.3,0.9-0.9,0.9h-0.9c-0.6,0-0.9-0.3-0.9-0.9V77.8z"/>
			<path class="st0" d="M70.2,76.5c5.9,0,10.2,4.4,10.2,10.1c0,5.8-4.3,10.4-10.2,10.4C64.3,97,60,92.5,60,86.6
				C60,80.9,64.3,76.5,70.2,76.5z M70.2,94.5c4.2,0,7.3-3.4,7.3-7.8c0-4.3-3.1-7.6-7.3-7.6s-7.3,3.3-7.3,7.6
				C62.8,91.1,66,94.5,70.2,94.5z"/>
			<path class="st0" d="M84.7,77.8c0-0.6,0.3-0.9,0.9-0.9h5.3c1.9,0,2.9,0.2,3.7,0.5c1.9,0.8,3.1,2.7,3.1,5.2c0,2.5-1.3,4.7-3.5,5.4
				v0.1c0,0,0.3,0.3,0.6,0.9l3.6,6.6c0.4,0.6,0.1,1.1-0.6,1.1h-1.1c-0.5,0-0.9-0.2-1.1-0.6l-3.9-7.2h-4.2v7c0,0.6-0.3,0.9-0.9,0.9
				h-0.9c-0.6,0-0.9-0.3-0.9-0.9V77.8z M91.4,86.4c2.2,0,3.5-1.5,3.5-3.7c0-1.4-0.6-2.6-1.9-3.1c-0.5-0.2-1.1-0.3-2.4-0.3h-3.3v7.1
				H91.4z"/>
			<path class="st0" d="M110.1,77.8c0-0.6,0.3-0.9,0.9-0.9h0.9c0.6,0,0.9,0.3,0.9,0.9v7.8h10.3v-7.8c0-0.6,0.3-0.9,0.9-0.9h0.9
				c0.6,0,0.9,0.3,0.9,0.9v18c0,0.6-0.3,0.9-0.9,0.9h-0.9c-0.6,0-0.9-0.3-0.9-0.9V88h-10.3v7.8c0,0.6-0.3,0.9-0.9,0.9h-0.9
				c-0.6,0-0.9-0.3-0.9-0.9V77.8z"/>
			<path class="st0" d="M136.1,77.6c0.2-0.5,0.5-0.8,1-0.8h1.3c0.5,0,0.9,0.2,1,0.8l6.5,18c0.2,0.6-0.1,1.1-0.8,1.1h-1
				c-0.5,0-0.9-0.3-1-0.8l-1.8-4.9H134l-1.7,4.9c-0.1,0.5-0.5,0.8-1,0.8h-1c-0.7,0-1-0.4-0.8-1.1L136.1,77.6z M140.7,88.7l-2.2-6.3
				c-0.3-1-0.8-2.8-0.8-2.8h-0.1c0,0-0.4,1.8-0.8,2.8l-2.2,6.3H140.7z"/>
			<path class="st0" d="M149.6,77.8c0-0.6,0.3-0.9,0.9-0.9h1.1c0.5,0,0.8,0.2,1.1,0.6l8.5,12.3c0.7,1.1,1.6,2.9,1.6,2.9h0.1
				c0,0-0.2-1.8-0.2-2.9v-12c0-0.6,0.3-0.9,0.9-0.9h0.9c0.6,0,0.9,0.3,0.9,0.9v18c0,0.6-0.3,0.9-0.9,0.9h-1.1
				c-0.5,0-0.8-0.2-1.1-0.6l-8.5-12.2c-0.7-1.1-1.6-2.9-1.6-2.9h-0.1c0,0,0.2,1.8,0.2,2.9v11.9c0,0.6-0.3,0.9-0.9,0.9h-0.9
				c-0.6,0-0.9-0.3-0.9-0.9V77.8z"/>
			<path class="st0" d="M179.9,76.5c3.3,0,5.7,1.3,6.5,1.9c0.5,0.4,0.5,0.8,0.2,1.3l-0.4,0.6c-0.3,0.5-0.8,0.5-1.3,0.3
				c-0.9-0.5-2.5-1.4-4.9-1.4c-4.5,0-7.4,3.4-7.4,7.6c0,4.5,3.1,7.7,7.2,7.7c3.7,0,5.6-2.6,5.6-2.6v-2.8h-2.3
				c-0.6,0-0.9-0.3-0.9-0.9v-0.6c0-0.6,0.3-0.9,0.9-0.9h3.9c0.6,0,0.9,0.3,0.9,0.9v8.1c0,0.6-0.3,0.9-0.9,0.9h-0.5
				c-0.6,0-0.9-0.3-0.9-0.8v-0.7c0-0.3,0-0.6,0-0.6h-0.1c0,0-2.1,2.5-6.1,2.5c-5.4,0-9.7-4.2-9.7-10.2
				C169.8,81,174.1,76.5,179.9,76.5z"/>
			<path class="st0" d="M201.6,76.5c5.9,0,10.2,4.4,10.2,10.1c0,5.8-4.3,10.4-10.2,10.4c-5.9,0-10.2-4.5-10.2-10.4
				C191.4,80.9,195.7,76.5,201.6,76.5z M201.6,94.5c4.2,0,7.3-3.4,7.3-7.8c0-4.3-3.1-7.6-7.3-7.6c-4.2,0-7.3,3.3-7.3,7.6
				C194.2,91.1,197.4,94.5,201.6,94.5z"/>
			<path class="st0" d="M213.8,77.9c-0.2-0.6,0.1-1.1,0.8-1.1h1.1c0.5,0,0.9,0.2,1,0.8l4.7,13.3c0.4,1.1,0.8,2.7,0.8,2.7h0.1
				c0,0,0.4-1.7,0.8-2.7l4.7-13.3c0.2-0.5,0.5-0.8,1-0.8h1c0.7,0,1,0.4,0.8,1.1l-6.6,18c-0.2,0.5-0.5,0.8-1,0.8h-1.3
				c-0.5,0-0.9-0.2-1.1-0.8L213.8,77.9z"/>
			<path class="st0" d="M233.9,77.8c0-0.6,0.3-0.9,0.9-0.9h9.7c0.6,0,0.9,0.3,0.9,0.9v0.6c0,0.6-0.3,0.9-0.9,0.9h-7.8v6.2h6.2
				c0.6,0,0.9,0.3,0.9,0.9V87c0,0.6-0.3,0.9-0.9,0.9h-6.2v6.4h8.3c0.6,0,0.9,0.3,0.9,0.9v0.6c0,0.6-0.3,0.9-0.9,0.9h-10.1
				c-0.6,0-0.9-0.3-0.9-0.9V77.8z"/>
			<path class="st0" d="M250.1,77.8c0-0.6,0.3-0.9,0.9-0.9h5.3c1.9,0,2.9,0.2,3.7,0.5c1.9,0.8,3.1,2.7,3.1,5.2
				c0,2.5-1.3,4.7-3.5,5.4v0.1c0,0,0.3,0.3,0.6,0.9l3.6,6.6c0.4,0.6,0.1,1.1-0.6,1.1H262c-0.5,0-0.9-0.2-1.1-0.6l-3.9-7.2h-4.2v7
				c0,0.6-0.3,0.9-0.9,0.9H251c-0.6,0-0.9-0.3-0.9-0.9V77.8z M256.8,86.4c2.2,0,3.5-1.5,3.5-3.7c0-1.4-0.6-2.6-1.9-3.1
				c-0.5-0.2-1.1-0.3-2.4-0.3h-3.3v7.1H256.8z"/>
			<path class="st0" d="M267,93.7l0.5-0.7c0.3-0.4,0.7-0.5,1.3-0.2c0.7,0.5,2.2,1.6,4.3,1.6c2.1,0,3.5-1.1,3.5-2.8
				c0-4.4-9.5-3.4-9.5-9.6c0-3.3,2.8-5.5,6.4-5.5c2.4,0,4.2,0.9,5,1.5c0.5,0.3,0.5,0.8,0.3,1.3l-0.4,0.7c-0.3,0.6-0.8,0.5-1.3,0.3
				c-0.8-0.4-2-1.2-3.6-1.2c-2,0-3.6,1.1-3.6,2.8c0,4.3,9.5,3.1,9.5,9.5c0,3.1-2.3,5.6-6.3,5.6c-2.9,0-5.1-1.3-6-2
				C266.7,94.6,266.5,94.2,267,93.7z"/>
		</g>
		<g>
			<g>
				<path class="st1" d="M19.5,24.7c-5.1,0-9.8,2.6-12.5,6.1v-28C6.9,1.2,5.6,0,4.1,0H2.8C1.3,0,0,1.2,0,2.8v60.8
					c0,1.6,1.3,2.8,2.8,2.8h1.3c1.5,0,2.8-1.2,2.8-2.8v-1.9c2.2,2.7,6.8,6.1,12.5,6.1c12.3,0,20.7-9.4,20.7-21.6
					C40.1,34.1,31.7,24.7,19.5,24.7z M19.5,61.1C15.1,61.1,6,58.2,6,46.2C6,35,15.1,31.6,19.5,31.6c8.3,0,13.8,6.3,13.8,14.6
					C33.3,54.5,27.8,61.1,19.5,61.1z"/>
				<path class="st1" d="M51.3,0H50c-1.5,0-2.8,1.2-2.8,2.8v60.8c0,1.6,1.3,2.8,2.8,2.8h1.3c1.5,0,2.8-1.2,2.8-2.8V2.8
					C54.1,1.2,52.8,0,51.3,0z"/>
				<path class="st1" d="M81.6,24.3c-12.2,0-22,9.8-22,22s9.8,22,22,22s22-9.8,22-22S93.7,24.3,81.6,24.3z M81.6,61.4
					c-8.3,0-15.2-6.8-15.2-15.2c0-8.3,6.8-15.2,15.2-15.2c8.3,0,15.2,6.8,15.2,15.2C96.7,54.5,89.9,61.4,81.6,61.4z"/>
				<path class="st1" d="M198.2,26.2h-1.3c-1.5,0-2.8,1.2-2.8,2.8v34.6c0,1.6,1.3,2.8,2.8,2.8h1.3c1.5,0,2.8-1.2,2.8-2.8V29
					C201,27.4,199.7,26.2,198.2,26.2z"/>
				<path class="st1" d="M197.6,12.3c-2.3,0-4.2,1.9-4.2,4.2c0,2.3,1.9,4.2,4.2,4.2c2.3,0,4.2-1.9,4.2-4.2
					C201.8,14.2,199.9,12.3,197.6,12.3z"/>
				<path class="st1" d="M216.9,35.8c0-2.3,2.6-4.6,6.3-4.6c1.9,0,4,0.2,5.6,1.2c0,0,1.2,0.8,2,0.8c0.7,0,1.4-0.3,2-0.8l1.2-1.3
					c0.6-0.6,0.8-1.4,0.8-2c0-0.7-0.4-1.6-1-2.1c-2.3-1.6-4.7-2.8-10.6-2.8c-8.8,0-13.8,5.5-13.8,12.6c0,10,21.4,10.8,21.4,19
					c0,3.7-3.8,5.8-7.6,5.8c-5.6,0-8.1-4.1-8.5-4.5c-0.6-0.7-1.3-1-2.1-1c-0.6,0-1.4,0.3-2,0.8l-1.1,1.2c-0.6,0.6-0.8,1.3-0.8,2
					c0,0.7,0.9,2,0.9,2c0.4,0.5,4.8,6.1,13.6,6.1c8.9,0,14.9-5.2,14.9-13.3C238.1,43.5,216.9,42.4,216.9,35.8z"/>
				<path class="st1" d="M261.8,24.8c-3.1,0-7.9,2.2-11.1,5.9V2.8c0-1.6-1.3-2.8-2.8-2.8h-1.3c-1.5,0-2.8,1.2-2.8,2.8v60.8
					c0,1.6,1.3,2.8,2.8,2.8h1.3c1.5,0,2.8-1.2,2.8-2.8V40.3c2.8-5.8,6.7-8.8,11.1-8.8c8.1,0,10,8.7,10,15.2v16.9
					c0,1.6,1.3,2.8,2.8,2.8h1.3c1.5,0,2.8-1.2,2.8-2.8V44.8C278.8,32.7,274.1,24.8,261.8,24.8z"/>
				<path class="st1" d="M184.9,0.3c-2.4,0-15.7,3.3-15.7,18.4v44.9c0,1.6,1.3,2.8,2.8,2.8h1.3c1.5,0,2.8-1.2,2.8-2.8v-31h8.8
					c1.6,0,2.8-1.3,2.8-2.8V29c0-1.5-1.2-2.8-2.8-2.8h-8.8v-9.5c0-5,4.2-8.2,8.8-9.4c1.7-0.5,2.8-1.3,2.8-2.8V3.1
					C187.7,1.6,186.5,0.3,184.9,0.3z"/>
				<path class="st1" d="M161.3,26.2h-1.6c-2.1,0-3.2,1.4-3.8,2.8l-8.7,20.5c-0.2,0.4-0.6,0.7-1.1,0.7c-0.5,0-0.9-0.3-1.1-0.7
					l-9.3-22.5c-0.5-1.1-1-1.7-1.5-1.7c-0.5,0-1,0.6-1.5,1.7l-9.3,22.5c-0.2,0.4-0.6,0.7-1.1,0.7c-0.5,0-0.9-0.3-1.1-0.7L112.5,29
					c-0.7-1.4-1.8-2.8-3.8-2.8h-1.6c-1.3,0-2.5,0.1-2.5,1.2c0,0.6,0.5,1.6,0.5,1.6l16.2,36.6c0,0,0.7,1.7,1.1,1.7
					c0.4,0,1.1-1.7,1.1-1.7l9.6-22.5c0.2-0.5,0.7-0.8,1.2-0.8c0.5,0,1,0.3,1.2,0.8l9.6,22.5c0,0,0.7,1.7,1.1,1.7
					c0.4,0,1.1-1.7,1.1-1.7L163.4,29c0,0,0.5-1,0.5-1.6C163.8,26.3,162.6,26.2,161.3,26.2z"/>
			</g>
		</g>
	</g>
</g>
</svg>
