<svg id="Layer_1" xmlns="http://www.w3.org/2000/svg" viewBox="0 0 145.6 29.2"><style>.st0{fill:#8a8a8a}</style><path class="st0" d="M18.2.1v28.5h-5V11h-.3c-.6 5.9-1.3 11.7-1.9 17.7H7.4c-.7-5.7-1.3-11.5-2-17.2h-.3v17.2H0V.2h7.6c.5 4 .9 8.2 1.4 12.3h.3c.4-4.1.8-8.2 1.3-12.4h7.6zM64.8 0h11.9v5.6h-6v5.5h5.5v5.4h-5.5v12h-5.9V0zM99.4 28.7h-5.2v-20h5.2c0 .5.1.9.1 1.6 1-1.5 2.2-2.1 3.8-2 1.4.1 2.5 1 2.9 2.2.1.4.2.9.2 1.3v16.7h-5.2c0-.4-.1-.8-.1-1.2v-13c0-.6 0-1.3-.1-1.9-.1-.3-.5-.6-.7-.6-.3 0-.7.3-.7.6-.2.5-.2 1-.2 1.6v14.7zM45.4 28.7h-5.1c0-.5-.1-.9-.1-1.4V14.6c0-.6 0-1.2-.1-1.8-.1-.4-.5-.7-.8-1-.3.4-.7.7-.8 1.1-.1.7-.1 1.4-.1 2.2v13.6h-5.3V8.8h5.2c0 .4.1.8.2 1.5 1-1.4 2.2-2.1 3.8-1.9 1.5.1 2.6 1.1 2.9 2.5.1.5.2 1.1.2 1.7v15.8c.1 0 0 .1 0 .3zM120 19.1h-6.9v5.6c0 .3.5.6.8.9.3-.3.9-.5 1-.9.2-.9.2-1.8.2-2.9h4.8c.4 2.7-.6 5.3-2.6 6.5-1.9 1.2-5.6 1-7.4-.4-1.3-1-2.1-2.3-2.1-3.9-.1-3.7-.2-7.4.1-11.1.3-3.2 2.8-4.9 6.1-4.6 3.8.3 5.6 2.1 5.9 6 .2 1.5.1 3.1.1 4.8zm-5.2-3.4c-.1-1.2-.1-2.2-.2-3.1 0-.3-.5-.5-.7-.8-.2.3-.7.5-.7.8-.1 1 0 2 0 3.1h1.6zM31.9 19.1H26c-.9 0-1.2.3-1.1 1.2.1 1.4 0 2.8.1 4.2 0 .4.6.8.9 1.2.3-.4.8-.8.9-1.2.2-.8 0-1.7 0-2.6h4.9c.8 3.3-1.2 7-4.7 7.3-3.6.3-7.1-.9-7.4-5.5-.2-3.5-.1-7.1.2-10.7.2-2.8 2.3-4.5 5.1-4.6 4.5-.2 6.8 2 7 6.4v4.3zm-5.3-5c0-.4 0-1-.1-1.4-.1-.3-.5-.6-.8-.9-.2.3-.6.5-.7.8-.1.9-.1 1.8-.1 2.6 0 .2.4.5.6.6 1.6.3 1-.9 1.1-1.7zM49.6 21.9h4.9c0 .9-.1 1.8 0 2.6.1.4.6.8.9 1.2.4-.4.9-.8 1-1.2.3-1.3-.1-2.4-1.4-3.2-1.2-.7-2.4-1.5-3.5-2.4-1.2-.8-1.8-2-1.8-3.4 0-1.1-.1-2.3 0-3.4.2-2 1.6-3.3 4.1-3.7 1-.1 2-.1 2.9 0 3.4.5 4.7 2.5 4.2 6.6h-4.7c0-.7.1-1.5 0-2.2-.1-.4-.5-.7-.8-1-.3.3-.8.6-.9.9-.3 1.2 0 2.3 1.1 3.1 1.2.7 2.3 1.4 3.5 2.2 1.4.9 2.2 2.2 2.2 3.9 0 1 0 2-.1 3-.3 2.5-2 4-4.7 4.1-1 .1-2.1 0-3.1-.3-2-.5-3.3-1.6-3.5-3.8-.1-.8-.2-1.8-.3-3zM145.3 15h-4.8c-.1-.7 0-1.5-.2-2.2-.1-.4-.5-.7-.8-1-.3.3-.9.6-.9.9-.2 1.2-.1 2.3 1 3 .7.5 1.5 1 2.3 1.4 3.2 1.8 4.1 3.5 3.6 7.2-.4 3.1-1.5 4.4-4.7 4.7-1.3.1-2.7-.1-4-.5-1.6-.4-2.6-1.7-2.8-3.4-.1-1.1-.1-2.2-.2-3.4h4.6c.1.9.1 1.8.3 2.7.1.4.6.7.9 1 .3-.4.8-.7.9-1.2.3-1.4 0-2.6-1.5-3.3-1.2-.6-2.3-1.4-3.3-2.2-2.2-1.7-2.7-6.5-1.1-8.8 1.7-2.4 8.6-2.7 10.1.8.4 1.4.4 2.8.6 4.3zM125.9 21.9c.1 1 0 1.9.2 2.7.1.4.6.7.9 1 .3-.3.8-.7.9-1.1.3-1.4.1-2.7-1.5-3.5-.7-.3-1.3-.8-1.9-1.2-3.1-2-3.9-4-3.3-7.6.4-2.1 1.5-3.4 3.6-3.7 1.3-.2 2.6-.3 3.8 0 3.2.6 4.4 2.8 3.8 6.5h-4.5c0-.7 0-1.5-.2-2.2-.1-.4-.5-.7-.8-1-.3.3-.8.6-.9 1-.2 1.2-.1 2.3 1.1 3 .7.5 1.4.9 2.2 1.3 3.2 1.8 4.1 2.8 3.6 7.6-.3 2.8-1.5 4-4.4 4.3-1.2.1-2.4.1-3.6-.2-2.4-.6-3.4-2-3.5-4.4v-2.5h4.5zM90.6 8.7c.7.1 1.3.1 1.9.2v3.4c-.5.1-1.1.1-1.8.2 0 .4-.1.7-.1 1.1v10.1c0 2 0 2 2.1 2.2V29c-1.8-.1-3.6-.1-5.4-.3-1.2-.2-1.9-1.3-2-2.7-.1-4-.1-8.1-.1-12.1 0-.8.1-1.6-1.1-1.5V9.2c2.2-.7.5-2.5 1.3-3.7h5.1c.1.9.1 2 .1 3.2zM82.9 28.7c-.4 0-.8.1-1.2.1h-4.2v-15h5.3c.1 5 .1 9.9.1 14.9zM77.5 8.9h5.3c.1.1.1.1.1.2.4 3.3.4 3.3-2.9 3.3h-2.6v-1.8c.1-.5.1-1.1.1-1.7zM46.7 13.3c.3-1.2.5-2 .7-3-.4-.1-.7-.2-1.1-.3V6.6h2.8c.6 2.3-.2 5-2.4 6.7z"/></svg>